;TYPE=PLATED
;Layer: PTH_Through
;EasyEDA Pro v2.1.49.1.de255bc8.674264, 2024-08-10 13:04:53
;Gerber Generator version 0.3
M48
METRIC,LZ,000.00000
;Hole size 1 = 0.30000 METRIC
T01C0.30000
;Hole size 2 = 0.70002 METRIC
T02C0.70002
%
G05
G90
T01
X00149668Y00165100
X-00304800Y-00038100
X-00058318Y-00927100
X-00482600Y-01193800
X-00419100Y-01193800
X-00355600Y-01193800
X-00292100Y-01193800
X-00228600Y-01193800
X-00165100Y-01193800
X-00101600Y-01193800
X-00038100Y-01193800
X-00037549Y-01249416
X-00101049Y-01249416
X-00164549Y-01249416
X-00228049Y-01249416
X-00291549Y-01249416
X-00355049Y-01249416
X-00418549Y-01249416
X-00482049Y-01249416
X00000000Y-00596900
X00000551Y-00652516
X00064051Y-00652516
X00063500Y-00596900
X00000000Y-00711200
X00000551Y-00766816
X00064051Y-00766816
X00063500Y-00711200
X00000000Y-00825500
X00000551Y-00881116
X00064051Y-00881116
X00063500Y-00825500
X-00698500Y-00304800
X-00635000Y-00304800
X-00571500Y-00304800
X-00508000Y-00304800
T02
X-00482600Y-00444500
X-00482600Y-00571500
X-00482600Y-00825500
X-00482600Y-00952500
X-00482600Y-01079500
X-00482600Y-00698500
M30