G04 Layer: TopPasteMaskLayer*
G04 EasyEDA Pro v2.1.49.1.de255bc8.674264, 2024-08-10 13:04:53*
G04 Gerber Generator version 0.3*
G04 Scale: 100 percent, Rotated: No, Reflected: No*
G04 Dimensions in millimeters*
G04 Leading zeros omitted, absolute positions, 3 integers and 5 decimals*
%FSLAX35Y35*%
%MOMM*%
%AMRect*21,1,$1,$2,0,0,$3*%
%ADD10Rect,0.67501X0.28001X173.0*%
%ADD11Rect,0.28001X0.67501X173.0*%
%ADD12R,1.75001X0.7*%
%ADD13R,2.55001X1.2*%
G75*


G04 PolygonModel Start*
G36*
G01X-88100Y-1039000D02*
G01X-88100Y-993000D01*
G01X-84099Y-989000D01*
G01X-34036D01*
G01X-30035Y-993000D01*
G01Y-1039000D01*
G01X-34036Y-1043000D01*
G01X-84099D01*
G01X-88100Y-1039000D01*
G37*
G36*
G01X-115100Y-1039000D02*
G01X-115100Y-993000D01*
G01X-119101Y-989000D01*
G01X-169164D01*
G01X-173164Y-993000D01*
G01Y-1039000D01*
G01X-169164Y-1043000D01*
G01X-119101D01*
G01X-115100Y-1039000D01*
G37*
G36*
G01X329341Y27928D02*
G01X284675Y33412D01*
G01X280566Y40967D01*
G01X286416Y88610D01*
G01X291987Y92965D01*
G01X336653Y87481D01*
G01X341005Y81907D01*
G01X335155Y34264D01*
G01X329341Y27928D01*
G37*
G36*
G01X317641Y-67358D02*
G01X272975Y-61874D01*
G01X268623Y-56301D01*
G01X274473Y-8660D01*
G01X280287Y-2321D01*
G01X324953Y-7806D01*
G01X329061Y-15363D01*
G01X323212Y-63004D01*
G01X317641Y-67358D01*
G37*
G36*
G01X-229459Y91428D02*
G01X-274125Y96912D01*
G01X-278234Y104467D01*
G01X-272384Y152110D01*
G01X-266813Y156465D01*
G01X-222147Y150981D01*
G01X-217795Y145407D01*
G01X-223645Y97764D01*
G01X-229459Y91428D01*
G37*
G36*
G01X-241159Y-3858D02*
G01X-285825Y1626D01*
G01X-290177Y7199D01*
G01X-284327Y54840D01*
G01X-278513Y61179D01*
G01X-233847Y55694D01*
G01X-229739Y48137D01*
G01X-235588Y496D01*
G01X-241159Y-3858D01*
G37*
G04 PolygonModel End*

G04 Pad Start*
G54D10*
G01X116118Y-89827D03*
G01X122213Y-40187D03*
G01X128305Y9427D03*
G01X134400Y59067D03*
G54D11*
G01X61966Y94396D03*
G01X12351Y100488D03*
G01X-37289Y106583D03*
G54D10*
G01X-116118Y89827D03*
G01X-122213Y40187D03*
G01X-128305Y-9427D03*
G01X-134400Y-59067D03*
G54D11*
G01X-61966Y-94396D03*
G01X-12326Y-100491D03*
G01X37289Y-106583D03*
G54D12*
G01X-320470Y-518265D03*
G01X-320470Y-618265D03*
G01X-320470Y-718265D03*
G01X-320470Y-818265D03*
G01X-320470Y-918265D03*
G01X-320470Y-1018264D03*
G54D13*
G01X-691487Y-407293D03*
G01X-691487Y-1129262D03*
G04 Pad End*

M02*
