G04 Layer: TopLayer*
G04 EasyEDA Pro v2.1.49.1.de255bc8.674264, 2024-08-10 13:04:53*
G04 Gerber Generator version 0.3*
G04 Scale: 100 percent, Rotated: No, Reflected: No*
G04 Dimensions in millimeters*
G04 Leading zeros omitted, absolute positions, 3 integers and 5 decimals*
%FSLAX35Y35*%
%MOMM*%
%AMRect*21,1,$1,$2,0,0,$3*%
%ADD8191C,0.2032*%
%ADD10C,0.254*%
%ADD11C,0.6096*%
%ADD12Rect,0.67501X0.28001X173.0*%
%ADD13Rect,0.28001X0.67501X173.0*%
%ADD14R,0.56566X0.54*%
%ADD15R,1.75001X0.7*%
%ADD16R,2.55001X1.2*%
%ADD17Rect,0.6X0.6X-97.0*%
%ADD18C,1.0045*%
%ADD19C,1.0*%
%ADD20R,1.0X1.0*%
%ADD21C,0.5*%
%ADD22C,0.1905*%
G75*


G04 Copper Start*
G36*
G01X-462734Y-289258D02*
G01X-349188Y-399161D01*
G01X-409291D01*
G01X-410091Y-398014D01*
G01X-410678Y-397196D01*
G01X-413425Y-393481D01*
G01X-414632Y-391940D01*
G01X-416749Y-389382D01*
G01X-418107Y-387834D01*
G01X-420523Y-385236D01*
G01X-422092Y-383649D01*
G03X-425839Y-380140I-60508J-60851D01*
G03X-482600Y-358686I-56761J-64360D01*
G03X-528173Y-371787I0J-85814D01*
G01Y-347293D01*
G03X-563987Y-311479I-35814J0D01*
G01X-744064D01*
G01Y-91850D01*
G02X-594878Y57336I149186J0D01*
G02X-445693Y-91850I0J-149186D01*
G02X-473100Y-178027I-149186J0D01*
G03X-488866Y-227597I70049J-49570D01*
G03X-462734Y-289258I85814J0D01*
G37*
%LPC*%
G36*
G01X-740692Y-91850D02*
G03X-594878Y-237664I145814J0D01*
G03X-449064Y-91850I0J145814D01*
G03X-594878Y53964I-145814J0D01*
G03X-740692Y-91850I0J-145814D01*
G37*
%LPD*%
G36*
G01X-594878Y-1590563D02*
G02X-744064Y-1441378I0J149186D01*
G01Y-1225076D01*
G01X-563987D01*
G03X-528173Y-1189262I0J35814D01*
G01Y-1165314D01*
G01X-432600D01*
G03X-396786Y-1129500I0J35814D01*
G01Y-1124839D01*
G01X-342900D01*
G03X-310840Y-1111560I0J45339D01*
G01X-288410Y-1089129D01*
G01X-288359Y-1089078D01*
G01X-232969D01*
G03X-199848Y-1066889I0J35814D01*
G03X-173164Y-1078814I26683J23888D01*
G01X-116599D01*
G03X-101600Y-1075522I0J35814D01*
G03X-86601Y-1078814I14999J32522D01*
G01X-30036D01*
G01X-30035D01*
G03X5779Y-1043000I0J35814D01*
G01Y-989000D01*
G03X-7786Y-960936I-35814J0D01*
G03X2496Y-927100I-50532J33835D01*
G03X-58318Y-866286I-60814J0D01*
G03X-119132Y-927100I0J-60814D01*
G03X-113175Y-953350I60814J0D01*
G03X-116599Y-953186I-3423J-35650D01*
G01X-173164D01*
G03X-198799Y-963989I0J-35814D01*
G03X-197155Y-953265I-34171J10725D01*
G01Y-883265D01*
G03X-200448Y-868265I-35814J0D01*
G03X-197488Y-858139I-32521J15000D01*
G01X-152400D01*
G03X-120340Y-844860I0J45339D01*
G01X-82240Y-806760D01*
G03X-68961Y-774700I-32060J32060D01*
G01Y-577580D01*
G01X6660Y-501960D01*
G03X19939Y-469900I-32060J32060D01*
G01Y-323580D01*
G01X148178Y-195341D01*
G03X161457Y-163282I-32060J32060D01*
G01Y-140990D01*
G03X175133Y-131108I-13547J33153D01*
G01X175136Y-131152D01*
G03X241300Y-193294I66164J4152D01*
G03X307594Y-127000I0J66294D01*
G03X299800Y-95814I-66294J0D01*
G01X321376Y-98463D01*
G03X325741Y-98730I4365J35547D01*
G03X361288Y-67280I0J35814D01*
G01X368600Y-7728D01*
G03X368867Y-3363I-35547J4365D01*
G03X367888Y4954I-35814J0D01*
G03X371647Y17086I-31788J16497D01*
G01X378959Y76639D01*
G03X379226Y81003I-35547J4365D01*
G03X347776Y116550I-35814J0D01*
G01X288224Y123863D01*
G03X284421Y124125I-4365J-35547D01*
G01Y129218D01*
G03X271142Y161277I-45339J0D01*
G01X235260Y197159D01*
G03X203200Y210439I-32060J-32060D01*
G01X190201D01*
G01X189872Y210728D01*
G03X149668Y225914I-40204J-45628D01*
G03X109692Y210928I0J-60814D01*
G01X109119Y210439D01*
G01X88900D01*
G03X56840Y197159I0J-45339D01*
G01X29906Y170225D01*
G01X28367Y168608D01*
G01X6933Y171240D01*
G03X2568Y171507I-4365J-35547D01*
G03X-4202Y170861I0J-35814D01*
G03X-14915Y173923I-15077J-32486D01*
G01X-42707Y177335D01*
G03X-47072Y177602I-4365J-35547D01*
G03X-82619Y146153I0J-35814D01*
G01X-83859Y136054D01*
G01X-99222Y137941D01*
G01X-107640Y146359D01*
G03X-139700Y159639I-32060J-32060D01*
G01X-165100D01*
G03X-181647Y156511I0J-45339D01*
G03X-211024Y180050I-33741J-12008D01*
G01X-270576Y187363D01*
G03X-274941Y187630I-4365J-35547D01*
G03X-310488Y156180I0J-35814D01*
G01X-317800Y96628D01*
G03X-318067Y92263I35547J-4365D01*
G03X-317088Y83946I35814J0D01*
G03X-320847Y71814I31788J-16497D01*
G01X-324309Y43619D01*
G02X-329906Y29362I-45251J9537D01*
G01Y186682D01*
G02X-285720Y230868I44186J0D01*
G01X344279D01*
G02X388465Y186682I0J-44186D01*
G01Y-253317D01*
G02X344279Y-297503I-44186J0D01*
G01X214144D01*
G01X214143D01*
G03X62750Y-375582I0J-185814D01*
G03X33887Y-465923I126950J-90341D01*
G03X47411Y-529417I155814J0D01*
G03X217097Y-639511I169686J75720D01*
G01X224653D01*
G02X373838Y-788697I0J-149186D01*
G02X224653Y-937883I-149186J0D01*
G01X217097D01*
G03X31283Y-1123696I0J-185814D01*
G01Y-1149954D01*
G02X-69554Y-1301426I-164186J0D01*
G01X-377606Y-1430260D01*
G03X-461677Y-1508562I63977J-152974D01*
G02X-594878Y-1590563I-133202J67184D01*
G37*
%LPC*%
G36*
G01X78839Y-788697D02*
G03X224653Y-934511I145814J0D01*
G03X370467Y-788697I0J145814D01*
G03X224653Y-642883I-145814J0D01*
G03X78839Y-788697I0J-145814D01*
G37*
G36*
G01X-740692Y-1441378D02*
G03X-594878Y-1587192I145814J0D01*
G03X-449064Y-1441378I0J145814D01*
G03X-594878Y-1295564I-145814J0D01*
G03X-740692Y-1441378I0J-145814D01*
G37*
%LPD*%
G36*
G01X-568414Y-1029500D02*
G01X-568414Y-1033449D01*
G01X-744064D01*
G01Y-503107D01*
G01X-563987D01*
G03X-548429Y-499551I0J35814D01*
G03X-540322Y-508000I65829J55051D01*
G03X-568414Y-571500I57722J-63500D01*
G03X-540322Y-635000I85814J0D01*
G03X-568414Y-698500I57722J-63500D01*
G03X-540322Y-762000I85814J0D01*
G03X-568414Y-825500I57722J-63500D01*
G03X-540322Y-889000I85814J0D01*
G03X-568414Y-952500I57722J-63500D01*
G03X-553695Y-1000558I85814J0D01*
G03X-568414Y-1029500I21095J-28942D01*
G37*
G36*
G01X52353Y-38346D02*
G01X31870Y-35831D01*
G03X27506Y-35564I-4365J-35547D01*
G03X20748Y-36208I0J-35814D01*
G03X10048Y-33152I-15065J-32491D01*
G01X-17744Y-29739D01*
G03X-22109Y-29472I-4365J-35547D01*
G03X-28879Y-30118I0J-35814D01*
G03X-39592Y-27057I-15077J-32486D01*
G01X-60074Y-24542D01*
G01X-57553Y-4009D01*
G03X-57286Y355I-35547J4365D01*
G03X-57930Y7113I-35814J0D01*
G03X-54874Y17813I-32491J15065D01*
G01X-52353Y38346D01*
G01X-31870Y35831D01*
G03X-27506Y35564I4365J35547D01*
G03X-20735Y36210I0J35814D01*
G03X-10023Y33149I15077J32486D01*
G01X17770Y29736D01*
G03X22134Y29469I4365J35547D01*
G03X28891Y30112I0J35814D01*
G03X39592Y27057I15065J32491D01*
G01X60074Y24542D01*
G01X57553Y4009D01*
G03X57286Y-356I35547J-4365D01*
G03X57930Y-7113I35814J0D01*
G03X54874Y-17813I32491J-15065D01*
G01X52353Y-38346D01*
G37*
G54D8191*
G01X-462734Y-289258D02*
G01X-349188Y-399161D01*
G01X-409291D01*
G01X-410091Y-398014D01*
G01X-410678Y-397196D01*
G01X-413425Y-393481D01*
G01X-414632Y-391940D01*
G01X-416749Y-389382D01*
G01X-418107Y-387834D01*
G01X-420523Y-385236D01*
G01X-422092Y-383649D01*
G03X-425839Y-380140I-60508J-60851D01*
G03X-482600Y-358686I-56761J-64360D01*
G03X-528173Y-371787I0J-85814D01*
G01Y-347293D01*
G03X-563987Y-311479I-35814J0D01*
G01X-744064D01*
G01Y-91850D01*
G02X-594878Y57336I149186J0D01*
G02X-445693Y-91850I0J-149186D01*
G02X-473100Y-178027I-149186J0D01*
G03X-488866Y-227597I70049J-49570D01*
G03X-462734Y-289258I85814J0D01*
G01X-740692Y-91850D02*
G03X-594878Y-237664I145814J0D01*
G03X-449064Y-91850I0J145814D01*
G03X-594878Y53964I-145814J0D01*
G03X-740692Y-91850I0J-145814D01*
G01X-594878Y-1590563D02*
G02X-744064Y-1441378I0J149186D01*
G01Y-1225076D01*
G01X-563987D01*
G03X-528173Y-1189262I0J35814D01*
G01Y-1165314D01*
G01X-432600D01*
G03X-396786Y-1129500I0J35814D01*
G01Y-1124839D01*
G01X-342900D01*
G03X-310840Y-1111560I0J45339D01*
G01X-288410Y-1089129D01*
G01X-288359Y-1089078D01*
G01X-232969D01*
G03X-199848Y-1066889I0J35814D01*
G03X-173164Y-1078814I26683J23888D01*
G01X-116599D01*
G03X-101600Y-1075522I0J35814D01*
G03X-86601Y-1078814I14999J32522D01*
G01X-30036D01*
G01X-30035D01*
G03X5779Y-1043000I0J35814D01*
G01Y-989000D01*
G03X-7786Y-960936I-35814J0D01*
G03X2496Y-927100I-50532J33835D01*
G03X-58318Y-866286I-60814J0D01*
G03X-119132Y-927100I0J-60814D01*
G03X-113175Y-953350I60814J0D01*
G03X-116599Y-953186I-3423J-35650D01*
G01X-173164D01*
G03X-198799Y-963989I0J-35814D01*
G03X-197155Y-953265I-34171J10725D01*
G01Y-883265D01*
G03X-200448Y-868265I-35814J0D01*
G03X-197488Y-858139I-32521J15000D01*
G01X-152400D01*
G03X-120340Y-844860I0J45339D01*
G01X-82240Y-806760D01*
G03X-68961Y-774700I-32060J32060D01*
G01Y-577580D01*
G01X6660Y-501960D01*
G03X19939Y-469900I-32060J32060D01*
G01Y-323580D01*
G01X148178Y-195341D01*
G03X161457Y-163282I-32060J32060D01*
G01Y-140990D01*
G03X175133Y-131108I-13547J33153D01*
G01X175136Y-131152D01*
G03X241300Y-193294I66164J4152D01*
G03X307594Y-127000I0J66294D01*
G03X299800Y-95814I-66294J0D01*
G01X321376Y-98463D01*
G03X325741Y-98730I4365J35547D01*
G03X361288Y-67280I0J35814D01*
G01X368600Y-7728D01*
G03X368867Y-3363I-35547J4365D01*
G03X367888Y4954I-35814J0D01*
G03X371647Y17086I-31788J16497D01*
G01X378959Y76639D01*
G03X379226Y81003I-35547J4365D01*
G03X347776Y116550I-35814J0D01*
G01X288224Y123863D01*
G03X284421Y124125I-4365J-35547D01*
G01Y129218D01*
G03X271142Y161277I-45339J0D01*
G01X235260Y197159D01*
G03X203200Y210439I-32060J-32060D01*
G01X190201D01*
G01X189872Y210728D01*
G03X149668Y225914I-40204J-45628D01*
G03X109692Y210928I0J-60814D01*
G01X109119Y210439D01*
G01X88900D01*
G03X56840Y197159I0J-45339D01*
G01X29906Y170225D01*
G01X28367Y168608D01*
G01X6933Y171240D01*
G03X2568Y171507I-4365J-35547D01*
G03X-4202Y170861I0J-35814D01*
G03X-14915Y173923I-15077J-32486D01*
G01X-42707Y177335D01*
G03X-47072Y177602I-4365J-35547D01*
G03X-82619Y146153I0J-35814D01*
G01X-83859Y136054D01*
G01X-99222Y137941D01*
G01X-107640Y146359D01*
G03X-139700Y159639I-32060J-32060D01*
G01X-165100D01*
G03X-181647Y156511I0J-45339D01*
G03X-211024Y180050I-33741J-12008D01*
G01X-270576Y187363D01*
G03X-274941Y187630I-4365J-35547D01*
G03X-310488Y156180I0J-35814D01*
G01X-317800Y96628D01*
G03X-318067Y92263I35547J-4365D01*
G03X-317088Y83946I35814J0D01*
G03X-320847Y71814I31788J-16497D01*
G01X-324309Y43619D01*
G02X-329906Y29362I-45251J9537D01*
G01Y186682D01*
G02X-285720Y230868I44186J0D01*
G01X344279D01*
G02X388465Y186682I0J-44186D01*
G01Y-253317D01*
G02X344279Y-297503I-44186J0D01*
G01X214144D01*
G01X214143D01*
G03X62750Y-375582I0J-185814D01*
G03X33887Y-465923I126950J-90341D01*
G03X47411Y-529417I155814J0D01*
G03X217097Y-639511I169686J75720D01*
G01X224653D01*
G02X373838Y-788697I0J-149186D01*
G02X224653Y-937883I-149186J0D01*
G01X217097D01*
G03X31283Y-1123696I0J-185814D01*
G01Y-1149954D01*
G02X-69554Y-1301426I-164186J0D01*
G01X-377606Y-1430260D01*
G03X-461677Y-1508562I63977J-152974D01*
G02X-594878Y-1590563I-133202J67184D01*
G01X78839Y-788697D02*
G03X224653Y-934511I145814J0D01*
G03X370467Y-788697I0J145814D01*
G03X224653Y-642883I-145814J0D01*
G03X78839Y-788697I0J-145814D01*
G01X-740692Y-1441378D02*
G03X-594878Y-1587192I145814J0D01*
G03X-449064Y-1441378I0J145814D01*
G03X-594878Y-1295564I-145814J0D01*
G03X-740692Y-1441378I0J-145814D01*
G01X-568414Y-1029500D02*
G01X-568414Y-1033449D01*
G01X-744064D01*
G01Y-503107D01*
G01X-563987D01*
G03X-548429Y-499551I0J35814D01*
G03X-540322Y-508000I65829J55051D01*
G03X-568414Y-571500I57722J-63500D01*
G03X-540322Y-635000I85814J0D01*
G03X-568414Y-698500I57722J-63500D01*
G03X-540322Y-762000I85814J0D01*
G03X-568414Y-825500I57722J-63500D01*
G03X-540322Y-889000I85814J0D01*
G03X-568414Y-952500I57722J-63500D01*
G03X-553695Y-1000558I85814J0D01*
G03X-568414Y-1029500I21095J-28942D01*
G01X52353Y-38346D02*
G01X31870Y-35831D01*
G03X27506Y-35564I-4365J-35547D01*
G03X20748Y-36208I0J-35814D01*
G03X10048Y-33152I-15065J-32491D01*
G01X-17744Y-29739D01*
G03X-22109Y-29472I-4365J-35547D01*
G03X-28879Y-30118I0J-35814D01*
G03X-39592Y-27057I-15077J-32486D01*
G01X-60074Y-24542D01*
G01X-57553Y-4009D01*
G03X-57286Y355I-35547J4365D01*
G03X-57930Y7113I-35814J0D01*
G03X-54874Y17813I-32491J15065D01*
G01X-52353Y38346D01*
G01X-31870Y35831D01*
G03X-27506Y35564I4365J35547D01*
G03X-20735Y36210I0J35814D01*
G03X-10023Y33149I15077J32486D01*
G01X17770Y29736D01*
G03X22134Y29469I4365J35547D01*
G03X28891Y30112I0J35814D01*
G03X39592Y27057I15065J32491D01*
G01X60074Y24542D01*
G01X57553Y4009D01*
G03X57286Y-356I35547J-4365D01*
G03X57930Y-7113I35814J0D01*
G03X54874Y-17813I32491J-15065D01*
G01X52353Y-38346D01*
G54D10*
G01X-691487Y-1129262D02*
G01X-691487Y-1043355D01*
G01X-691487Y-1129262D02*
G01X-691487Y-1215170D01*
G01X-691487Y-407293D02*
G01X-691487Y-321385D01*
G01X-691487Y-407293D02*
G01X-691487Y-493201D01*
G01X-320470Y-918265D02*
G01X-207061Y-918265D01*
G01X-248821Y118383D02*
G01X-242007Y173874D01*
G01X-248821Y118383D02*
G01X-304312Y125197D01*
G01X-37289Y106583D02*
G01X-44559Y47370D01*
G01X-37289Y106583D02*
G01X-30018Y165797D01*
G01X309979Y54883D02*
G01X316793Y110374D01*
G01X309979Y54883D02*
G01X365471Y48070D01*
G01X-482600Y-952500D02*
G01X-558508Y-952500D01*
G04 Copper End*

G04 Tear Start*
G36*
G01X106593Y-131338D02*
G01X125643Y-133677D01*
G02X139931Y-106857I32318J0D01*
G01X92306Y-101009D01*
G02X106593Y-131338I-25048J-30329D01*
G37*
G36*
G01X182233Y49542D02*
G01X182233Y68592D01*
G02X155343Y70601I-0J180945D01*
G01X166988Y47533D01*
G02X182233Y49542I15246J-56833D01*
G37*
G36*
G01X71491Y138166D02*
G01X52441Y138166D01*
G02X50432Y115339I-130675J-0D01*
G01X73500Y126984D01*
G02X71491Y138166I30111J11182D01*
G37*
G36*
G01X-29160Y110013D02*
G01X-31194Y90963D01*
G02X-4678Y76675I0J-31748D01*
G01X1169Y124300D01*
G02X-29160Y110013I-30329J25048D01*
G37*
G36*
G01X21876Y161897D02*
G01X2826Y164236D01*
G02X817Y121431I-456989J-1D01*
G01X23885Y133076D01*
G02X21876Y161897I205717J28821D01*
G37*
G36*
G01X3474Y90963D02*
G01X5813Y110013D01*
G02X-21008Y124300I0J32318D01*
G01X-26855Y76675D01*
G02X3474Y90963I30329J-25048D01*
G37*
G36*
G01X-27764Y167992D02*
G01X-46814Y170331D01*
G02X-48823Y127526I-456989J-1D01*
G01X-25754Y139171D01*
G02X-27764Y167992I205717J28823D01*
G37*
G36*
G01X-166943Y49712D02*
G01X-166943Y30662D01*
G02X-143156Y28653I0J-141817D01*
G01X-154801Y51721D01*
G02X-166943Y49712I-12142J35687D01*
G37*
G36*
G01X-71491Y-155806D02*
G01X-52441Y-158145D01*
G02X-50432Y-115339I456989J1D01*
G01X-73500Y-126984D01*
G02X-71491Y-155806I-205717J-28821D01*
G37*
G36*
G01X-21851Y-161901D02*
G01X-2801Y-164240D01*
G02X-792Y-121434I456989J1D01*
G01X-23860Y-133079D01*
G02X-21851Y-161901I-205717J-28823D01*
G37*
G36*
G01X27764Y-167993D02*
G01X46814Y-170332D01*
G02X48823Y-127526I456989J1D01*
G01X25754Y-139171D01*
G02X27764Y-167993I-205717J-28823D01*
G37*
G36*
G01X-48793Y-960425D02*
G01X-67843Y-960425D01*
G02X-82131Y-989000I-35719J0D01*
G01X-34506D01*
G02X-48793Y-960425I21431J28575D01*
G37*
G36*
G01X-201739Y-1008739D02*
G01X-201739Y-1027789D01*
G02X-173164Y-1042077I0J-35719D01*
G01Y-994452D01*
G02X-201739Y-1008739I-28575J21431D01*
G37*
G36*
G01X-215900Y-517525D02*
G01X-215900Y-498475D01*
G02X-232969Y-484187I0J17340D01*
G01Y-531812D01*
G02X-215900Y-517525I17069J-3052D01*
G37*
G36*
G01X-310945Y-466930D02*
G01X-329995Y-466930D01*
G02X-344282Y-483265I-16482J0D01*
G01X-296657D01*
G02X-310945Y-466930I2194J16335D01*
G37*
G36*
G01X-215900Y-631825D02*
G01X-215900Y-612775D01*
G02X-232969Y-598487I0J17340D01*
G01Y-646112D01*
G02X-215900Y-631825I17069J-3052D01*
G37*
G36*
G01X-435835Y-608740D02*
G01X-435835Y-627790D01*
G02X-407970Y-642078I0J-34316D01*
G01Y-594453D01*
G02X-435835Y-608740I-27865J20029D01*
G37*
G36*
G01X-204394Y-720725D02*
G01X-204394Y-701675D01*
G02X-232969Y-687387I0J35719D01*
G01Y-735012D01*
G02X-204394Y-720725I28575J-21431D01*
G37*
G36*
G01X-436545Y-688975D02*
G01X-436545Y-708025D01*
G02X-407970Y-722312I0J-35719D01*
G01Y-686966D01*
G02X-436545Y-688975I-28575J202195D01*
G37*
G36*
G01X-204394Y-822325D02*
G01X-204394Y-803275D01*
G02X-232969Y-788987I0J35719D01*
G01Y-836612D01*
G02X-204394Y-822325I28575J-21431D01*
G37*
G36*
G01X-436545Y-808740D02*
G01X-436545Y-827790D01*
G02X-407970Y-842077I0J-35719D01*
G01Y-794452D01*
G02X-436545Y-808740I-28575J21431D01*
G37*
G36*
G01X-436545Y-908740D02*
G01X-436545Y-927790D01*
G02X-407970Y-942077I0J-35719D01*
G01Y-894452D01*
G02X-436545Y-908740I-28575J21431D01*
G37*
G36*
G01X-204394Y-911225D02*
G01X-204394Y-892175D01*
G02X-232969Y-883265I-0J50274D01*
G01Y-925512D01*
G02X-204394Y-911225I28575J-21431D01*
G37*
G36*
G01X-204394Y-1027789D02*
G01X-204394Y-1008739D01*
G02X-232969Y-994452I0J35719D01*
G01Y-1042077D01*
G02X-204394Y-1027789I28575J-21431D01*
G37*
G36*
G01X-701012Y-495868D02*
G01X-681962Y-495868D01*
G02X-667675Y-467293I35719J0D01*
G01X-715300D01*
G02X-701012Y-495868I-21431J-28575D01*
G37*
G36*
G01X-681962Y-1040688D02*
G01X-701012Y-1040688D01*
G02X-715300Y-1069263I-35719J0D01*
G01X-667675D01*
G02X-681962Y-1040688I21431J28575D01*
G37*
G36*
G01X301625Y114709D02*
G01X282575Y106432D01*
G03X283859Y88316I128423J0D01*
G01X315913Y84380D01*
G02X301625Y114709I25048J30329D01*
G37*
G36*
G01X358785Y21444D02*
G01X361732Y45439D01*
G02X341837Y68175I160612J160613D01*
G01X336370Y23654D01*
G02X358785Y21444I9861J-14764D01*
G37*
G36*
G01X-311535Y-4869D02*
G01X-294308Y-14582D01*
G02X-256106Y3414I44127J-44126D01*
G01X-288922Y37950D01*
G02X-311535Y-4869I-80638J15206D01*
G37*
G36*
G01X-231775Y175090D02*
G01X-250825Y177429D01*
G02X-265112Y150609I-32318J0D01*
G01X-217487Y144761D01*
G02X-231775Y175090I25047J30329D01*
G37*
G36*
G01X-206375Y-38100D02*
G01X-225425Y-38100D01*
G01X-225646Y-39842D01*
G01X-226277Y-41394D01*
G01X-227270Y-42777D01*
G01X-228578Y-44017D01*
G01X-230152Y-45135D01*
G01X-231946Y-46155D01*
G01X-236002Y-47992D01*
G01X-244646Y-51507D01*
G01X-246640Y-52487D01*
G01X-248473Y-53553D01*
G01X-250095Y-54730D01*
G01X-251460Y-56040D01*
G01X-205740D01*
G01X-206686Y-54869D01*
G01X-207402Y-53768D01*
G01X-207913Y-52724D01*
G01X-208242Y-51723D01*
G01X-208411Y-50751D01*
G01X-208444Y-49796D01*
G01X-208363Y-48842D01*
G01X-208193Y-47877D01*
G01X-207375Y-44775D01*
G01X-206805Y-42399D01*
G01X-206581Y-41078D01*
G01X-206430Y-39649D01*
G01X-206375Y-38100D01*
G37*
G36*
G01X225043Y-84572D02*
G01X211572Y-98043D01*
G01X212542Y-99280D01*
G01X213233Y-100736D01*
G01X213678Y-102385D01*
G01X213906Y-104198D01*
G01X213948Y-106149D01*
G01X213835Y-108210D01*
G01X213264Y-112556D01*
G01X211259Y-123446D01*
G01X211003Y-125410D01*
G01X210866Y-127241D01*
G01X210880Y-128909D01*
G01X243209Y-96580D01*
G01X241720Y-96424D01*
G01X240317Y-96154D01*
G01X238990Y-95778D01*
G01X237733Y-95302D01*
G01X236537Y-94735D01*
G01X235393Y-94084D01*
G01X234294Y-93355D01*
G01X232196Y-91698D01*
G01X230177Y-89823D01*
G01X225043Y-84572D01*
G37*
G36*
G01X-414528Y-454025D02*
G01X-414528Y-434975D01*
G01X-418232Y-434815D01*
G01X-419899Y-434618D01*
G01X-421453Y-434347D01*
G01X-422902Y-434004D01*
G01X-424252Y-433592D01*
G01X-425511Y-433114D01*
G01X-426688Y-432571D01*
G01X-427789Y-431967D01*
G01X-428822Y-431304D01*
G01X-429794Y-430585D01*
G01X-430714Y-429812D01*
G01X-431587Y-428987D01*
G01X-433228Y-427195D01*
G01X-434777Y-425230D01*
G01X-439474Y-418491D01*
G01X-442221Y-414776D01*
G01X-444338Y-412218D01*
G01X-446754Y-409619D01*
G01X-449528Y-407000D01*
G01Y-482000D01*
G01X-446754Y-479381D01*
G01X-444338Y-476782D01*
G01X-441255Y-472967D01*
G01X-435536Y-464813D01*
G01X-434011Y-462767D01*
G01X-432423Y-460886D01*
G01X-431587Y-460013D01*
G01X-430714Y-459189D01*
G01X-429794Y-458415D01*
G01X-428822Y-457696D01*
G01X-427789Y-457033D01*
G01X-426688Y-456429D01*
G01X-425511Y-455887D01*
G01X-424252Y-455408D01*
G01X-422902Y-454996D01*
G01X-421453Y-454653D01*
G01X-419899Y-454382D01*
G01X-418232Y-454186D01*
G01X-414528Y-454025D01*
G37*
G36*
G01X-442570Y-625001D02*
G01X-429100Y-611530D01*
G01X-431590Y-608813D01*
G01X-432611Y-607513D01*
G01X-433493Y-606248D01*
G01X-434244Y-605012D01*
G01X-434871Y-603803D01*
G01X-435382Y-602615D01*
G01X-435784Y-601446D01*
G01X-436085Y-600290D01*
G01X-436294Y-599145D01*
G01X-436416Y-598005D01*
G01X-436460Y-596867D01*
G01X-436434Y-595728D01*
G01X-436201Y-593426D01*
G01X-435778Y-591069D01*
G01X-433978Y-583340D01*
G01X-433156Y-578908D01*
G01X-432777Y-575670D01*
G01X-432604Y-572168D01*
G01X-432698Y-568369D01*
G01X-485731Y-621402D01*
G01X-481932Y-621496D01*
G01X-478430Y-621323D01*
G01X-475192Y-620944D01*
G01X-470760Y-620122D01*
G01X-463031Y-618322D01*
G01X-460674Y-617899D01*
G01X-458372Y-617666D01*
G01X-457233Y-617640D01*
G01X-456095Y-617684D01*
G01X-454956Y-617806D01*
G01X-453810Y-618015D01*
G01X-452654Y-618316D01*
G01X-451485Y-618718D01*
G01X-450297Y-619229D01*
G01X-449088Y-619856D01*
G01X-447852Y-620607D01*
G01X-446587Y-621489D01*
G01X-445287Y-622510D01*
G01X-442570Y-625001D01*
G37*
G36*
G01X-414528Y-827790D02*
G01X-414528Y-808740D01*
G01X-417376Y-808621D01*
G01X-420051Y-808274D01*
G01X-422572Y-807714D01*
G01X-424957Y-806957D01*
G01X-427225Y-806018D01*
G01X-429392Y-804912D01*
G01X-431477Y-803654D01*
G01X-433498Y-802259D01*
G01X-436449Y-799943D01*
G01X-442285Y-794697D01*
G01X-449528Y-788000D01*
G01Y-863000D01*
G01X-447636Y-861154D01*
G01X-445704Y-858960D01*
G01X-441720Y-853785D01*
G01X-432176Y-840664D01*
G01X-428819Y-836609D01*
G01X-426533Y-834183D01*
G01X-424208Y-832053D01*
G01X-423031Y-831120D01*
G01X-421845Y-830285D01*
G01X-420649Y-829556D01*
G01X-419444Y-828942D01*
G01X-418229Y-828450D01*
G01X-417005Y-828089D01*
G01X-415771Y-827866D01*
G01X-414528Y-827790D01*
G37*
G36*
G01X-550672Y-908740D02*
G01X-550672Y-927790D01*
G01X-548553Y-927924D01*
G01X-546598Y-928317D01*
G01X-544797Y-928956D01*
G01X-543140Y-929825D01*
G01X-541618Y-930910D01*
G01X-540222Y-932198D01*
G01X-538940Y-933674D01*
G01X-537763Y-935323D01*
G01X-536682Y-937132D01*
G01X-535687Y-939086D01*
G01X-533914Y-943373D01*
G01X-532367Y-948069D01*
G01X-527598Y-966094D01*
G01X-525274Y-973718D01*
G01X-523435Y-978484D01*
G01X-522400Y-980728D01*
G01X-521275Y-982862D01*
G01X-520048Y-984870D01*
G01X-518713Y-986738D01*
G01X-517257Y-988453D01*
G01X-515672Y-990000D01*
G01Y-915000D01*
G01X-517250Y-916077D01*
G01X-519010Y-916730D01*
G01X-520931Y-917008D01*
G01X-522991Y-916959D01*
G01X-525167Y-916633D01*
G01X-527440Y-916078D01*
G01X-532185Y-914481D01*
G01X-541873Y-910697D01*
G01X-544210Y-909914D01*
G01X-546470Y-909294D01*
G01X-548631Y-908886D01*
G01X-550672Y-908740D01*
G37*
G36*
G01X-414528Y-927790D02*
G01X-414528Y-908740D01*
G01X-416569Y-908886D01*
G01X-418730Y-909294D01*
G01X-420990Y-909914D01*
G01X-425720Y-911594D01*
G01X-435414Y-915345D01*
G01X-437760Y-916078D01*
G01X-440033Y-916633D01*
G01X-442209Y-916959D01*
G01X-444269Y-917008D01*
G01X-446190Y-916730D01*
G01X-447950Y-916077D01*
G01X-449528Y-915000D01*
G01Y-990000D01*
G01X-447943Y-988453D01*
G01X-446487Y-986738D01*
G01X-445152Y-984870D01*
G01X-443925Y-982862D01*
G01X-442800Y-980728D01*
G01X-440810Y-976142D01*
G01X-439104Y-971226D01*
G01X-434902Y-955635D01*
G01X-432082Y-945677D01*
G01X-430432Y-941171D01*
G01X-429513Y-939086D01*
G01X-428518Y-937132D01*
G01X-427437Y-935323D01*
G01X-426260Y-933674D01*
G01X-424978Y-932198D01*
G01X-423582Y-930910D01*
G01X-422060Y-929825D01*
G01X-420403Y-928956D01*
G01X-418602Y-928317D01*
G01X-416647Y-927924D01*
G01X-414528Y-927790D01*
G37*
G36*
G01X-404025Y-1089025D02*
G01X-404025Y-1069975D01*
G02X-432600Y-1055687I0J35719D01*
G01Y-1103312D01*
G02X-404025Y-1089025I28575J-21431D01*
G37*
G36*
G01X-414528Y-708025D02*
G01X-414528Y-688975D01*
G01X-418232Y-688815D01*
G01X-419899Y-688618D01*
G01X-421453Y-688347D01*
G01X-422902Y-688004D01*
G01X-424252Y-687592D01*
G01X-425511Y-687114D01*
G01X-426688Y-686571D01*
G01X-427789Y-685967D01*
G01X-428822Y-685304D01*
G01X-429794Y-684585D01*
G01X-430714Y-683812D01*
G01X-431587Y-682987D01*
G01X-433228Y-681195D01*
G01X-434777Y-679230D01*
G01X-439474Y-672491D01*
G01X-442221Y-668776D01*
G01X-444338Y-666218D01*
G01X-446754Y-663619D01*
G01X-449528Y-661000D01*
G01Y-736000D01*
G01X-446754Y-733381D01*
G01X-444338Y-730782D01*
G01X-441255Y-726967D01*
G01X-435536Y-718813D01*
G01X-434011Y-716767D01*
G01X-432423Y-714886D01*
G01X-431587Y-714013D01*
G01X-430714Y-713189D01*
G01X-429794Y-712415D01*
G01X-428822Y-711696D01*
G01X-427789Y-711033D01*
G01X-426688Y-710429D01*
G01X-425511Y-709887D01*
G01X-424252Y-709408D01*
G01X-422902Y-708996D01*
G01X-421453Y-708653D01*
G01X-419899Y-708382D01*
G01X-418232Y-708186D01*
G01X-414528Y-708025D01*
G37*
G36*
G01X115632Y174625D02*
G01X115632Y155575D01*
G01X116920Y155522D01*
G01X118171Y155368D01*
G01X119388Y155119D01*
G01X120573Y154782D01*
G01X121727Y154364D01*
G01X122854Y153872D01*
G01X123957Y153313D01*
G01X126094Y152017D01*
G01X128160Y150533D01*
G01X132150Y147214D01*
G01X133132Y146350D01*
G01Y183850D01*
G01X129172Y180463D01*
G01X127135Y178904D01*
G01X125036Y177508D01*
G01X123957Y176887D01*
G01X122854Y176328D01*
G01X121727Y175835D01*
G01X120573Y175418D01*
G01X119388Y175081D01*
G01X118171Y174832D01*
G01X116920Y174678D01*
G01X115632Y174625D01*
G37*
G36*
G01X183704Y155575D02*
G01X183704Y174625D01*
G01X182415Y174678D01*
G01X181164Y174832D01*
G01X179948Y175081D01*
G01X178763Y175418D01*
G01X177608Y175835D01*
G01X176481Y176328D01*
G01X175379Y176887D01*
G01X173241Y178182D01*
G01X171176Y179666D01*
G01X167186Y182986D01*
G01X166204Y183850D01*
G01Y146350D01*
G01X170164Y149737D01*
G01X172201Y151296D01*
G01X174300Y152692D01*
G01X175379Y153313D01*
G01X176481Y153872D01*
G01X177608Y154364D01*
G01X178763Y154782D01*
G01X179948Y155119D01*
G01X181164Y155368D01*
G01X182415Y155522D01*
G01X183704Y155575D01*
G37*
G36*
G01X-295275Y-11604D02*
G01X-314325Y-11604D01*
G01X-314627Y-12926D01*
G01X-315442Y-14263D01*
G01X-316636Y-15598D01*
G01X-318073Y-16911D01*
G01X-322491Y-20528D01*
G01X-323550Y-21564D01*
G01X-286050D01*
G01X-287109Y-20528D01*
G01X-291527Y-16911D01*
G01X-292964Y-15598D01*
G01X-294158Y-14263D01*
G01X-294973Y-12926D01*
G01X-295275Y-11604D01*
G37*
G36*
G01X-67843Y-961136D02*
G01X-48793Y-961136D01*
G01X-48741Y-959848D01*
G01X-48586Y-958597D01*
G01X-48337Y-957380D01*
G01X-48001Y-956195D01*
G01X-47583Y-955041D01*
G01X-47091Y-953914D01*
G01X-46531Y-952811D01*
G01X-45236Y-950673D01*
G01X-43752Y-948608D01*
G01X-40432Y-944618D01*
G01X-39568Y-943636D01*
G01X-77068D01*
G01X-73681Y-947596D01*
G01X-72123Y-949633D01*
G01X-70726Y-951732D01*
G01X-70106Y-952811D01*
G01X-69546Y-953914D01*
G01X-69054Y-955041D01*
G01X-68636Y-956195D01*
G01X-68300Y-957380D01*
G01X-68051Y-958597D01*
G01X-67896Y-959848D01*
G01X-67843Y-961136D01*
G37*
G36*
G01X-624812Y-908740D02*
G01X-624812Y-927790D01*
G03X-681962Y-946840I0J-95250D01*
G01Y-889690D01*
G03X-624812Y-908740I57150J76200D01*
G37*
G36*
G01X-550672Y-908740D02*
G01X-550672Y-927790D01*
G01X-548553Y-927924D01*
G01X-546598Y-928317D01*
G01X-544797Y-928956D01*
G01X-543140Y-929825D01*
G01X-541618Y-930910D01*
G01X-540222Y-932198D01*
G01X-538940Y-933674D01*
G01X-537763Y-935323D01*
G01X-536682Y-937132D01*
G01X-535687Y-939086D01*
G01X-533914Y-943373D01*
G01X-532367Y-948069D01*
G01X-527598Y-966094D01*
G01X-525274Y-973718D01*
G01X-523435Y-978484D01*
G01X-522400Y-980728D01*
G01X-521275Y-982862D01*
G01X-520048Y-984870D01*
G01X-518713Y-986738D01*
G01X-517257Y-988453D01*
G01X-515672Y-990000D01*
G01Y-915000D01*
G01X-517250Y-916077D01*
G01X-519010Y-916730D01*
G01X-520931Y-917008D01*
G01X-522991Y-916959D01*
G01X-525167Y-916633D01*
G01X-527440Y-916078D01*
G01X-532185Y-914481D01*
G01X-541873Y-910697D01*
G01X-544210Y-909914D01*
G01X-546470Y-909294D01*
G01X-548631Y-908886D01*
G01X-550672Y-908740D01*
G37*
G36*
G01X-414528Y-927790D02*
G01X-414528Y-908740D01*
G01X-416569Y-908886D01*
G01X-418730Y-909294D01*
G01X-420990Y-909914D01*
G01X-425720Y-911594D01*
G01X-435414Y-915345D01*
G01X-437760Y-916078D01*
G01X-440033Y-916633D01*
G01X-442209Y-916959D01*
G01X-444269Y-917008D01*
G01X-446190Y-916730D01*
G01X-447950Y-916077D01*
G01X-449528Y-915000D01*
G01Y-990000D01*
G01X-447943Y-988453D01*
G01X-446487Y-986738D01*
G01X-445152Y-984870D01*
G01X-443925Y-982862D01*
G01X-442800Y-980728D01*
G01X-440810Y-976142D01*
G01X-439104Y-971226D01*
G01X-434902Y-955635D01*
G01X-432082Y-945677D01*
G01X-430432Y-941171D01*
G01X-429513Y-939086D01*
G01X-428518Y-937132D01*
G01X-427437Y-935323D01*
G01X-426260Y-933674D01*
G01X-424978Y-932198D01*
G01X-423582Y-930910D01*
G01X-422060Y-929825D01*
G01X-420403Y-928956D01*
G01X-418602Y-928317D01*
G01X-416647Y-927924D01*
G01X-414528Y-927790D01*
G37*
G04 Tear End*

G04 Pad Start*
G54D11*
G01X-228600Y-76200D03*
G01X241300Y-127000D03*
G54D12*
G01X116118Y-89827D03*
G01X122213Y-40187D03*
G01X128305Y9427D03*
G01X134400Y59067D03*
G54D13*
G01X61966Y94396D03*
G01X12351Y100488D03*
G01X-37289Y106583D03*
G54D12*
G01X-116118Y89827D03*
G01X-122213Y40187D03*
G01X-128305Y-9427D03*
G01X-134400Y-59067D03*
G54D13*
G01X-61966Y-94396D03*
G01X-12326Y-100491D03*
G01X37289Y-106583D03*
G54D14*
G01X-58318Y-1016000D03*
G01X-144882Y-1016000D03*
G54D15*
G01X-320470Y-518265D03*
G01X-320470Y-618265D03*
G01X-320470Y-718265D03*
G01X-320470Y-818265D03*
G01X-320470Y-918265D03*
G01X-320470Y-1018264D03*
G54D16*
G01X-691487Y-407293D03*
G01X-691487Y-1129262D03*
G54D17*
G01X299621Y-29483D03*
G01X309979Y54883D03*
G01X-259179Y34017D03*
G01X-248821Y118383D03*
G54D19*
G01X-482600Y-444500D03*
G01X-482600Y-571500D03*
G01X-482600Y-825500D03*
G01X-482600Y-952500D03*
G54D20*
G01X-482600Y-1079500D03*
G54D19*
G01X-482600Y-698500D03*
G04 Pad End*

G04 Via Start*
G54D21*
G01X149668Y165100D03*
G01X-304800Y-38100D03*
G01X-58318Y-927100D03*
G01X-482600Y-1193800D03*
G01X-419100Y-1193800D03*
G01X-355600Y-1193800D03*
G01X-292100Y-1193800D03*
G01X-228600Y-1193800D03*
G01X-165100Y-1193800D03*
G01X-101600Y-1193800D03*
G01X-38100Y-1193800D03*
G01X-37549Y-1249416D03*
G01X-101049Y-1249416D03*
G01X-164549Y-1249416D03*
G01X-228049Y-1249416D03*
G01X-291549Y-1249416D03*
G01X-355049Y-1249416D03*
G01X-418549Y-1249416D03*
G01X-482049Y-1249416D03*
G01X0Y-596900D03*
G01X551Y-652516D03*
G01X64051Y-652516D03*
G01X63500Y-596900D03*
G01X0Y-711200D03*
G01X551Y-766816D03*
G01X64051Y-766816D03*
G01X63500Y-711200D03*
G01X0Y-825500D03*
G01X551Y-881116D03*
G01X64051Y-881116D03*
G01X63500Y-825500D03*
G01X-698500Y-304800D03*
G01X-635000Y-304800D03*
G01X-571500Y-304800D03*
G01X-508000Y-304800D03*
G04 Via End*

G04 Track Start*
G54D22*
G01X12351Y100488D02*
G01X-31194Y100488D01*
G01X-37289Y106583D01*
G01Y202388D01*
G01X-50800Y215900D01*
G01X-215900Y215900D02*
G01X-50800Y215900D01*
G01X-241300Y125904D02*
G01X-241300Y190500D01*
G01X-241300Y125904D02*
G01X-248820Y118383D01*
G01X-259180Y34017D02*
G01X-216222Y34017D01*
G01X-190500Y59739D01*
G01Y88900D01*
G01X-165100Y114300D01*
G01X-139700D01*
G01X-116118Y90718D01*
G01Y89827D01*
G01X-122213Y40187D02*
G01X-166943Y40187D01*
G01X-203200Y3930D01*
G01X-203200Y-25400D02*
G01X-215900Y-38100D01*
G01Y-63500D01*
G01X-228600Y-76200D01*
G01X-203200Y3930D02*
G01X-203200Y-25400D01*
G01X12351Y100488D02*
G01X12351Y190151D01*
G01X38100Y215900D01*
G01X266700D01*
G01X292100Y190500D01*
G01Y62404D01*
G01X61966Y94396D02*
G01X61966Y138166D01*
G01X88900Y165100D01*
G01X134400Y59067D02*
G01X182233Y59067D01*
G01X197132Y44168D01*
G01X197132Y-70132D02*
G01X241300Y-114300D01*
G01X197132Y44168D02*
G01X197132Y-70132D01*
G01X88900Y165100D02*
G01X149668Y165100D01*
G01X203200D01*
G01X-259180Y34017D02*
G01X-304800Y-11604D01*
G01Y-38100D01*
G01X-310204Y-508000D02*
G01X-320470Y-518265D01*
G01X-12326Y-100491D02*
G01X-12326Y-177426D01*
G01X-316435Y-622300D02*
G01X-320470Y-618265D01*
G01X37289Y-106583D02*
G01X37289Y-178612D01*
G01X-63500Y-279400D01*
G01Y-457200D01*
G01X-313405Y-711200D02*
G01X-320470Y-718265D01*
G01X116118Y-89827D02*
G01X116118Y-163282D01*
G01X-315005Y-812800D02*
G01X-320470Y-818265D01*
G01X-58318Y-1016000D02*
G01X-58318Y-927100D01*
G01X292100Y62404D02*
G01X331296Y62404D01*
G01X368300Y25400D01*
G01Y-152400D01*
G01X317500Y-203200D01*
G01X-303905Y-901700D02*
G01X-320470Y-918265D01*
G01X-215900Y-622300D02*
G01X-316435Y-622300D01*
G01X-61966Y-94396D02*
G01X-61966Y-163566D01*
G01X-139700Y-241300D01*
G01X-12326Y-177426D02*
G01X-101600Y-266700D01*
G01Y-447766D01*
G01X116118Y-163282D02*
G01X-25400Y-304800D01*
G01X317500Y-203200D02*
G01X127000Y-203200D01*
G01X12700Y-317500D01*
G01X-25400Y-304800D02*
G01X-25400Y-469900D01*
G01X12700Y-317500D02*
G01X12700Y-473109D01*
G01X-139700Y-241300D02*
G01X-139700Y-431800D01*
G01X-215900Y-508000D01*
G01X-310204D01*
G01X-101600Y-447766D02*
G01X-190500Y-536666D01*
G01Y-596900D01*
G01X-215900Y-622300D01*
G01X-63500Y-457200D02*
G01X-152400Y-546100D01*
G01X-25400Y-469900D02*
G01X-114300Y-558800D01*
G01X12700Y-473109D02*
G01X-76200Y-562009D01*
G01X-320470Y-1018264D02*
G01X-147146Y-1018264D01*
G01X-144882Y-1016000D01*
G01X-320470Y-918265D02*
G01X-691001Y-918265D01*
G01X-691487Y-918751D01*
G01X-691487Y-407293D02*
G01X-691487Y-918751D01*
G01Y-1129262D01*
G01X-320470Y-518265D02*
G01X-320470Y-466930D01*
G01X-342900Y-444500D01*
G01X-482600D01*
G01X-435835Y-618265D02*
G01X-482600Y-571500D01*
G01X-320470Y-618265D02*
G01X-435835Y-618265D01*
G01X-320470Y-718265D02*
G01X-340235Y-698500D01*
G01X-482600D01*
G01X-320470Y-818265D02*
G01X-475365Y-818265D01*
G01X-482600Y-825500D01*
G01X-320470Y-1018264D02*
G01X-320470Y-1057070D01*
G01X-342900Y-1079500D01*
G01X-482600D01*
G01X-76200Y-562009D02*
G01X-76200Y-825500D01*
G01X-152400Y-901700D01*
G01X-303905D01*
G01X-114300Y-558800D02*
G01X-114300Y-774700D01*
G01X-152400Y-812800D01*
G01X-315005D01*
G01X-152400Y-546100D02*
G01X-152400Y-685800D01*
G01X-177800Y-711200D01*
G01X-313405D01*
G01X203200Y165100D02*
G01X239082Y129218D01*
G01Y5655D01*
G01X274220Y-29483D01*
G01X-241300Y190500D02*
G01X-215900Y215900D01*
G04 Track End*

M02*
