;TYPE=PLATED
;Layer: PTH_Through
;EasyEDA Pro v2.1.49.1.de255bc8.674264, 2024-08-10 13:06:22
;Gerber Generator version 0.3
M48
METRIC,LZ,000.00000
;Hole size 1 = 0.30400 METRIC
T01C0.30400
;Hole size 2 = 0.30500 METRIC
T02C0.30500
;Hole size 3 = 0.70002 METRIC
T03C0.70002
;Hole size 4 = 1.20000 METRIC
T04C1.20000
%
G05
G90
T01
X01532800Y03183800
X01532800Y03423800
X01532800Y03663800
X01532800Y03903800
X01532800Y04143800
X01532800Y04383800
X01532800Y04623800
X01532800Y04863800
X01532800Y05103800
X01532800Y05343800
X01532800Y05583800
X01532800Y05823800
X01532800Y06063800
X01772800Y03183800
X01772800Y03423800
X01772800Y04623800
X01772800Y05343800
X01772800Y05583800
X01772800Y05823800
X01772800Y06063800
X01772800Y06303800
X02012800Y02943800
X02012800Y03183800
X02012800Y06063800
X02012800Y06303800
X02252800Y03183800
X02252800Y04143800
X02252800Y04383800
X02252800Y05103800
X02492800Y02943800
X02492800Y06303800
X02732800Y02943800
X02732800Y06303800
X02972800Y02943800
X02972800Y03183800
X02972800Y03903800
X03212800Y02943800
X03212800Y03183800
X03212800Y03423800
X03212800Y04863800
X03212800Y05103800
X03212800Y06303800
X03452800Y02943800
X03452800Y03183800
X03452800Y05343800
X03452800Y06303800
X03692800Y03183800
X03692800Y06063800
T02
X02526001Y03721100
X02781300Y03721100
X02692400Y03802939
X02614994Y03801799
X02641600Y03263900
X03683000Y04876800
X03683000Y04381500
X02692400Y04914900
X02298700Y03975100
X02222500Y03975100
X03098800Y05762714
X03098800Y05918200
X03200400Y05918200
X03149600Y05918200
X02781300Y04787716
X03721100Y03733800
X03632200Y04051300
T03
X02222299Y03070088G85X02222299Y03000091
X03086303Y03070095G85X03086303Y03000098
X03086296Y03503087G85X03086296Y03403089
X02222299Y03503087G85X02222299Y03403089
X02311400Y05778500
X02438400Y05778500
X02692400Y05778500
X02819400Y05778500
X02946400Y05778500
X02565400Y05778500
T04
X03263900Y05486400
X03009900Y05486400
X02755900Y05486400
X02501900Y05486400
X02247900Y05486400
X01993900Y05486400
M30