G04 Layer: TopPasteMaskLayer*
G04 EasyEDA Pro v2.1.49.1.de255bc8.674264, 2024-08-10 13:06:22*
G04 Gerber Generator version 0.3*
G04 Scale: 100 percent, Rotated: No, Reflected: No*
G04 Dimensions in millimeters*
G04 Leading zeros omitted, absolute positions, 3 integers and 5 decimals*
%FSLAX35Y35*%
%MOMM*%
%ADD10R,1.15001X0.95001*%
%ADD11R,0.6X0.6*%
%ADD12R,0.6X0.6*%
%ADD13R,0.6X0.6*%
%ADD14R,0.6X0.6*%
%ADD15R,0.98001X2.47*%
%ADD16R,3.59999X2.47*%
%ADD17O,1.74501X0.55999*%
%ADD18R,1.25001X0.7*%
%ADD19R,0.7076X1.75001*%
%ADD20R,0.7X1.75001*%
%ADD21R,1.2X2.55001*%
%ADD22R,0.8X0.8*%
G75*


G04 PolygonModel Start*
G36*
G01X2226780Y3552937D02*
G01X2223793Y3553087D01*
G01X2220801D01*
G01X2217814Y3552937D01*
G01X2214837Y3552640D01*
G01X2211878Y3552193D01*
G01X2208947Y3551601D01*
G01X2206046Y3550862D01*
G01X2203188Y3549980D01*
G01X2200377Y3548957D01*
G01X2197621Y3547796D01*
G01X2194923Y3546498D01*
G01X2192297Y3545065D01*
G01X2189744Y3543506D01*
G01X2187273Y3541822D01*
G01X2184888Y3540013D01*
G01X2182597Y3538090D01*
G01X2180402Y3536056D01*
G01X2178314Y3533915D01*
G01X2176333Y3531672D01*
G01X2174469Y3529333D01*
G01X2172724Y3526904D01*
G01X2171101Y3524390D01*
G01X2169605Y3521799D01*
G01X2168238Y3519137D01*
G01X2167009Y3516412D01*
G01X2165916Y3513625D01*
G01X2164961Y3510791D01*
G01X2164151Y3507910D01*
G01X2163486Y3504994D01*
G01X2162967Y3502048D01*
G01X2162594Y3499079D01*
G01X2162371Y3496094D01*
G01X2162297Y3493105D01*
G01Y3413105D01*
G01X2162371Y3410115D01*
G01X2162594Y3407131D01*
G01X2162967Y3404161D01*
G01X2163486Y3401215D01*
G01X2164151Y3398299D01*
G01X2164961Y3395419D01*
G01X2165916Y3392584D01*
G01X2167009Y3389798D01*
G01X2168238Y3387072D01*
G01X2169605Y3384410D01*
G01X2171101Y3381820D01*
G01X2172724Y3379305D01*
G01X2174469Y3376877D01*
G01X2176333Y3374537D01*
G01X2178314Y3372295D01*
G01X2180402Y3370153D01*
G01X2182597Y3368119D01*
G01X2184888Y3366196D01*
G01X2187273Y3364387D01*
G01X2189744Y3362703D01*
G01X2192297Y3361144D01*
G01X2194923Y3359711D01*
G01X2197621Y3358413D01*
G01X2200377Y3357253D01*
G01X2203188Y3356229D01*
G01X2206046Y3355348D01*
G01X2208947Y3354608D01*
G01X2211878Y3354017D01*
G01X2214837Y3353570D01*
G01X2217814Y3353272D01*
G01X2220801Y3353123D01*
G01X2223793D01*
G01X2226780Y3353272D01*
G01X2229757Y3353570D01*
G01X2232716Y3354017D01*
G01X2235647Y3354608D01*
G01X2238548Y3355348D01*
G01X2241405Y3356229D01*
G01X2244217Y3357253D01*
G01X2246973Y3358413D01*
G01X2249670Y3359711D01*
G01X2252297Y3361144D01*
G01X2254849Y3362703D01*
G01X2257321Y3364387D01*
G01X2259706Y3366196D01*
G01X2261997Y3368119D01*
G01X2264192Y3370153D01*
G01X2266279Y3372295D01*
G01X2268261Y3374537D01*
G01X2270125Y3376877D01*
G01X2271870Y3379305D01*
G01X2273493Y3381820D01*
G01X2274989Y3384410D01*
G01X2276356Y3387072D01*
G01X2277585Y3389798D01*
G01X2278677Y3392584D01*
G01X2279632Y3395419D01*
G01X2280442Y3398299D01*
G01X2281108Y3401215D01*
G01X2281626Y3404161D01*
G01X2282000Y3407131D01*
G01X2282223Y3410115D01*
G01X2282297Y3413105D01*
G01Y3493105D01*
G01X2282223Y3496094D01*
G01X2282000Y3499079D01*
G01X2281626Y3502048D01*
G01X2281108Y3504994D01*
G01X2280442Y3507910D01*
G01X2279632Y3510791D01*
G01X2278677Y3513625D01*
G01X2277585Y3516412D01*
G01X2276356Y3519137D01*
G01X2274989Y3521799D01*
G01X2273493Y3524390D01*
G01X2271870Y3526904D01*
G01X2270125Y3529333D01*
G01X2268261Y3531672D01*
G01X2266279Y3533915D01*
G01X2264192Y3536056D01*
G01X2261997Y3538090D01*
G01X2259706Y3540013D01*
G01X2257321Y3541822D01*
G01X2254849Y3543506D01*
G01X2252297Y3545065D01*
G01X2249670Y3546498D01*
G01X2246973Y3547796D01*
G01X2244217Y3548957D01*
G01X2241405Y3549980D01*
G01X2238548Y3550862D01*
G01X2235647Y3551601D01*
G01X2232716Y3552193D01*
G01X2229757Y3552640D01*
G01X2226780Y3552937D01*
G37*
G36*
G01X3090786Y3552937D02*
G01X3087799Y3553087D01*
G01X3084807D01*
G01X3081820Y3552937D01*
G01X3078843Y3552640D01*
G01X3075884Y3552193D01*
G01X3072953Y3551601D01*
G01X3070052Y3550862D01*
G01X3067195Y3549980D01*
G01X3064383Y3548957D01*
G01X3061627Y3547796D01*
G01X3058930Y3546498D01*
G01X3056303Y3545065D01*
G01X3053751Y3543506D01*
G01X3051279Y3541822D01*
G01X3048894Y3540013D01*
G01X3046603Y3538090D01*
G01X3044408Y3536056D01*
G01X3042321Y3533915D01*
G01X3040339Y3531672D01*
G01X3038475Y3529333D01*
G01X3036730Y3526904D01*
G01X3035107Y3524390D01*
G01X3033611Y3521799D01*
G01X3032244Y3519137D01*
G01X3031015Y3516412D01*
G01X3029923Y3513625D01*
G01X3028968Y3510791D01*
G01X3028158Y3507910D01*
G01X3027492Y3504994D01*
G01X3026974Y3502048D01*
G01X3026601Y3499079D01*
G01X3026377Y3496094D01*
G01X3026303Y3493105D01*
G01Y3413105D01*
G01X3026377Y3410115D01*
G01X3026601Y3407131D01*
G01X3026974Y3404161D01*
G01X3027492Y3401215D01*
G01X3028158Y3398299D01*
G01X3028968Y3395419D01*
G01X3029923Y3392584D01*
G01X3031015Y3389798D01*
G01X3032244Y3387072D01*
G01X3033611Y3384410D01*
G01X3035107Y3381820D01*
G01X3036730Y3379305D01*
G01X3038475Y3376877D01*
G01X3040339Y3374537D01*
G01X3042321Y3372295D01*
G01X3044408Y3370153D01*
G01X3046603Y3368119D01*
G01X3048894Y3366196D01*
G01X3051279Y3364387D01*
G01X3053751Y3362703D01*
G01X3056303Y3361144D01*
G01X3058930Y3359711D01*
G01X3061627Y3358413D01*
G01X3064383Y3357253D01*
G01X3067195Y3356229D01*
G01X3070052Y3355348D01*
G01X3072953Y3354608D01*
G01X3075884Y3354017D01*
G01X3078843Y3353570D01*
G01X3081820Y3353272D01*
G01X3084807Y3353123D01*
G01X3087799D01*
G01X3090786Y3353272D01*
G01X3093763Y3353570D01*
G01X3096722Y3354017D01*
G01X3099653Y3354608D01*
G01X3102554Y3355348D01*
G01X3105412Y3356229D01*
G01X3108223Y3357253D01*
G01X3110979Y3358413D01*
G01X3113677Y3359711D01*
G01X3116303Y3361144D01*
G01X3118856Y3362703D01*
G01X3121327Y3364387D01*
G01X3123712Y3366196D01*
G01X3126003Y3368119D01*
G01X3128198Y3370153D01*
G01X3130286Y3372295D01*
G01X3132267Y3374537D01*
G01X3134131Y3376877D01*
G01X3135876Y3379305D01*
G01X3137499Y3381820D01*
G01X3138996Y3384410D01*
G01X3140362Y3387072D01*
G01X3141591Y3389798D01*
G01X3142684Y3392584D01*
G01X3143639Y3395419D01*
G01X3144449Y3398299D01*
G01X3145114Y3401215D01*
G01X3145633Y3404161D01*
G01X3146006Y3407131D01*
G01X3146229Y3410115D01*
G01X3146303Y3413105D01*
G01Y3493105D01*
G01X3146229Y3496094D01*
G01X3146006Y3499079D01*
G01X3145633Y3502048D01*
G01X3145114Y3504994D01*
G01X3144449Y3507910D01*
G01X3143639Y3510791D01*
G01X3142684Y3513625D01*
G01X3141591Y3516412D01*
G01X3140362Y3519137D01*
G01X3138996Y3521799D01*
G01X3137499Y3524390D01*
G01X3135876Y3526904D01*
G01X3134131Y3529333D01*
G01X3132267Y3531672D01*
G01X3130286Y3533915D01*
G01X3128198Y3536056D01*
G01X3126003Y3538090D01*
G01X3123712Y3540013D01*
G01X3121327Y3541822D01*
G01X3118856Y3543506D01*
G01X3116303Y3545065D01*
G01X3113677Y3546498D01*
G01X3110979Y3547796D01*
G01X3108223Y3548957D01*
G01X3105412Y3549980D01*
G01X3102554Y3550862D01*
G01X3099653Y3551601D01*
G01X3096722Y3552193D01*
G01X3093763Y3552640D01*
G01X3090786Y3552937D01*
G37*
G36*
G01X2226780Y3124929D02*
G01X2223793Y3125079D01*
G01X2220801D01*
G01X2217814Y3124929D01*
G01X2214837Y3124632D01*
G01X2211878Y3124185D01*
G01X2208947Y3123593D01*
G01X2206046Y3122854D01*
G01X2203188Y3121972D01*
G01X2200377Y3120949D01*
G01X2197621Y3119788D01*
G01X2194923Y3118490D01*
G01X2192297Y3117058D01*
G01X2189744Y3115498D01*
G01X2187273Y3113814D01*
G01X2184888Y3112005D01*
G01X2182597Y3110083D01*
G01X2180402Y3108048D01*
G01X2178314Y3105907D01*
G01X2176333Y3103664D01*
G01X2174469Y3101325D01*
G01X2172724Y3098897D01*
G01X2171101Y3096382D01*
G01X2169605Y3093791D01*
G01X2168238Y3091129D01*
G01X2167009Y3088404D01*
G01X2165916Y3085617D01*
G01X2164961Y3082783D01*
G01X2164151Y3079902D01*
G01X2163486Y3076986D01*
G01X2162967Y3074040D01*
G01X2162594Y3071071D01*
G01X2162371Y3068086D01*
G01X2162297Y3065097D01*
G01Y3005097D01*
G01X2162371Y3002107D01*
G01X2162594Y2999123D01*
G01X2162967Y2996154D01*
G01X2163486Y2993207D01*
G01X2164151Y2990291D01*
G01X2164961Y2987411D01*
G01X2165916Y2984576D01*
G01X2167009Y2981790D01*
G01X2168238Y2979064D01*
G01X2169605Y2976402D01*
G01X2171101Y2973812D01*
G01X2172724Y2971297D01*
G01X2174469Y2968869D01*
G01X2176333Y2966530D01*
G01X2178314Y2964287D01*
G01X2180402Y2962145D01*
G01X2182597Y2960111D01*
G01X2184888Y2958188D01*
G01X2187273Y2956380D01*
G01X2189744Y2954696D01*
G01X2192297Y2953136D01*
G01X2194923Y2951704D01*
G01X2197621Y2950406D01*
G01X2200377Y2949245D01*
G01X2203188Y2948221D01*
G01X2206046Y2947340D01*
G01X2208947Y2946601D01*
G01X2211878Y2946009D01*
G01X2214837Y2945562D01*
G01X2217814Y2945265D01*
G01X2220801Y2945115D01*
G01X2223793D01*
G01X2226780Y2945265D01*
G01X2229757Y2945562D01*
G01X2232716Y2946009D01*
G01X2235647Y2946601D01*
G01X2238548Y2947340D01*
G01X2241405Y2948221D01*
G01X2244217Y2949245D01*
G01X2246973Y2950406D01*
G01X2249670Y2951704D01*
G01X2252297Y2953136D01*
G01X2254849Y2954696D01*
G01X2257321Y2956380D01*
G01X2259706Y2958188D01*
G01X2261997Y2960111D01*
G01X2264192Y2962145D01*
G01X2266279Y2964287D01*
G01X2268261Y2966530D01*
G01X2270125Y2968869D01*
G01X2271870Y2971297D01*
G01X2273493Y2973812D01*
G01X2274989Y2976402D01*
G01X2276356Y2979064D01*
G01X2277585Y2981790D01*
G01X2278677Y2984576D01*
G01X2279632Y2987411D01*
G01X2280442Y2990291D01*
G01X2281108Y2993207D01*
G01X2281626Y2996154D01*
G01X2282000Y2999123D01*
G01X2282223Y3002107D01*
G01X2282297Y3005097D01*
G01Y3065097D01*
G01X2282223Y3068086D01*
G01X2282000Y3071071D01*
G01X2281626Y3074040D01*
G01X2281108Y3076986D01*
G01X2280442Y3079902D01*
G01X2279632Y3082783D01*
G01X2278677Y3085617D01*
G01X2277585Y3088404D01*
G01X2276356Y3091129D01*
G01X2274989Y3093791D01*
G01X2273493Y3096382D01*
G01X2271870Y3098897D01*
G01X2270125Y3101325D01*
G01X2268261Y3103664D01*
G01X2266279Y3105907D01*
G01X2264192Y3108048D01*
G01X2261997Y3110083D01*
G01X2259706Y3112005D01*
G01X2257321Y3113814D01*
G01X2254849Y3115498D01*
G01X2252297Y3117058D01*
G01X2249670Y3118490D01*
G01X2246973Y3119788D01*
G01X2244217Y3120949D01*
G01X2241405Y3121972D01*
G01X2238548Y3122854D01*
G01X2235647Y3123593D01*
G01X2232716Y3124185D01*
G01X2229757Y3124632D01*
G01X2226780Y3124929D01*
G37*
G36*
G01X3090786Y3124929D02*
G01X3087799Y3125079D01*
G01X3084807D01*
G01X3081820Y3124929D01*
G01X3078843Y3124632D01*
G01X3075884Y3124185D01*
G01X3072953Y3123593D01*
G01X3070052Y3122854D01*
G01X3067195Y3121972D01*
G01X3064383Y3120949D01*
G01X3061627Y3119788D01*
G01X3058930Y3118490D01*
G01X3056303Y3117058D01*
G01X3053751Y3115498D01*
G01X3051279Y3113814D01*
G01X3048894Y3112005D01*
G01X3046603Y3110083D01*
G01X3044408Y3108048D01*
G01X3042321Y3105907D01*
G01X3040339Y3103664D01*
G01X3038475Y3101325D01*
G01X3036730Y3098897D01*
G01X3035107Y3096382D01*
G01X3033611Y3093791D01*
G01X3032244Y3091129D01*
G01X3031015Y3088404D01*
G01X3029923Y3085617D01*
G01X3028968Y3082783D01*
G01X3028158Y3079902D01*
G01X3027492Y3076986D01*
G01X3026974Y3074040D01*
G01X3026601Y3071071D01*
G01X3026377Y3068086D01*
G01X3026303Y3065097D01*
G01Y3005097D01*
G01X3026377Y3002107D01*
G01X3026601Y2999123D01*
G01X3026974Y2996154D01*
G01X3027492Y2993207D01*
G01X3028158Y2990291D01*
G01X3028968Y2987411D01*
G01X3029923Y2984576D01*
G01X3031015Y2981790D01*
G01X3032244Y2979064D01*
G01X3033611Y2976402D01*
G01X3035107Y2973812D01*
G01X3036730Y2971297D01*
G01X3038475Y2968869D01*
G01X3040339Y2966530D01*
G01X3042321Y2964287D01*
G01X3044408Y2962145D01*
G01X3046603Y2960111D01*
G01X3048894Y2958188D01*
G01X3051279Y2956380D01*
G01X3053751Y2954696D01*
G01X3056303Y2953136D01*
G01X3058930Y2951704D01*
G01X3061627Y2950406D01*
G01X3064383Y2949245D01*
G01X3067195Y2948221D01*
G01X3070052Y2947340D01*
G01X3072953Y2946601D01*
G01X3075884Y2946009D01*
G01X3078843Y2945562D01*
G01X3081820Y2945265D01*
G01X3084807Y2945115D01*
G01X3087799D01*
G01X3090786Y2945265D01*
G01X3093763Y2945562D01*
G01X3096722Y2946009D01*
G01X3099653Y2946601D01*
G01X3102554Y2947340D01*
G01X3105412Y2948221D01*
G01X3108223Y2949245D01*
G01X3110979Y2950406D01*
G01X3113677Y2951704D01*
G01X3116303Y2953136D01*
G01X3118856Y2954696D01*
G01X3121327Y2956380D01*
G01X3123712Y2958188D01*
G01X3126003Y2960111D01*
G01X3128198Y2962145D01*
G01X3130286Y2964287D01*
G01X3132267Y2966530D01*
G01X3134131Y2968869D01*
G01X3135876Y2971297D01*
G01X3137499Y2973812D01*
G01X3138996Y2976402D01*
G01X3140362Y2979064D01*
G01X3141591Y2981790D01*
G01X3142684Y2984576D01*
G01X3143639Y2987411D01*
G01X3144449Y2990291D01*
G01X3145114Y2993207D01*
G01X3145633Y2996154D01*
G01X3146006Y2999123D01*
G01X3146229Y3002107D01*
G01X3146303Y3005097D01*
G01Y3065097D01*
G01X3146229Y3068086D01*
G01X3146006Y3071071D01*
G01X3145633Y3074040D01*
G01X3145114Y3076986D01*
G01X3144449Y3079902D01*
G01X3143639Y3082783D01*
G01X3142684Y3085617D01*
G01X3141591Y3088404D01*
G01X3140362Y3091129D01*
G01X3138996Y3093791D01*
G01X3137499Y3096382D01*
G01X3135876Y3098897D01*
G01X3134131Y3101325D01*
G01X3132267Y3103664D01*
G01X3130286Y3105907D01*
G01X3128198Y3108048D01*
G01X3126003Y3110083D01*
G01X3123712Y3112005D01*
G01X3121327Y3113814D01*
G01X3118856Y3115498D01*
G01X3116303Y3117058D01*
G01X3113677Y3118490D01*
G01X3110979Y3119788D01*
G01X3108223Y3120949D01*
G01X3105412Y3121972D01*
G01X3102554Y3122854D01*
G01X3099653Y3123593D01*
G01X3096722Y3124185D01*
G01X3093763Y3124632D01*
G01X3090786Y3124929D01*
G37*
G36*
G01X2304298Y3583112D02*
G01X2304298Y3453110D01*
G01X2334296D01*
G01X2334298D01*
G01X2364296D01*
G01Y3583112D01*
G01X2334298D01*
G01X2334296D01*
G01X2304298D01*
G37*
G36*
G01X2694292Y3453110D02*
G01X2694292Y3583112D01*
G01X2664292D01*
G01Y3453110D01*
G01X2694292D01*
G37*
G36*
G01X2594293Y3453110D02*
G01X2594293Y3583112D01*
G01X2564293D01*
G01Y3453110D01*
G01X2594293D01*
G37*
G36*
G01X2444306Y3453110D02*
G01X2444306Y3583112D01*
G01X2414308D01*
G01X2414306D01*
G01X2384308D01*
G01Y3453110D01*
G01X2414306D01*
G01X2414308D01*
G01X2444306D01*
G37*
G36*
G01X2514305Y3583109D02*
G01X2514305Y3453107D01*
G01X2544305D01*
G01Y3583109D01*
G01X2514305D01*
G37*
G36*
G01X3004299Y3453107D02*
G01X3004299Y3583109D01*
G01X2974302D01*
G01X2974299D01*
G01X2944302D01*
G01Y3453107D01*
G01X2974299D01*
G01X2974302D01*
G01X3004299D01*
G37*
G36*
G01X2614305Y3583109D02*
G01X2614305Y3453107D01*
G01X2644305D01*
G01Y3583109D01*
G01X2614305D01*
G37*
G36*
G01X2844305Y3453107D02*
G01X2844305Y3583109D01*
G01X2814305D01*
G01Y3453107D01*
G01X2844305D01*
G37*
G36*
G01X2714305Y3583109D02*
G01X2714305Y3453107D01*
G01X2744305D01*
G01Y3583109D01*
G01X2714305D01*
G37*
G36*
G01X2794267Y3453105D02*
G01X2794267Y3583107D01*
G01X2764267D01*
G01Y3453105D01*
G01X2794267D01*
G37*
G36*
G01X2494293Y3453105D02*
G01X2494293Y3583107D01*
G01X2464293D01*
G01Y3453105D01*
G01X2494293D01*
G37*
G36*
G01X2924320Y3453082D02*
G01X2924320Y3583084D01*
G01X2894322D01*
G01X2894320D01*
G01X2864322D01*
G01Y3453082D01*
G01X2894320D01*
G01X2894322D01*
G01X2924320D01*
G37*
G36*
G01X1970004Y3977604D02*
G01X2098002Y3977604D01*
G01X2103003Y3972603D01*
G01Y3857602D01*
G01X2098002Y3852603D01*
G01X2056999Y3852101D01*
G01Y3897102D01*
G01X2012000D01*
G01Y3853101D01*
G01X1970004Y3852603D01*
G01X1965002Y3857602D01*
G01Y3972603D01*
G01X1970004Y3977604D01*
G37*
G36*
G01X1970004Y3762604D02*
G01X2012000Y3762601D01*
G01Y3718103D01*
G01X2056999D01*
G01Y3762101D01*
G01X2098002Y3762604D01*
G01X2103003Y3757602D01*
G01Y3642604D01*
G01X2098002Y3637603D01*
G01X1970004D01*
G01X1965002Y3642604D01*
G01Y3757602D01*
G01X1970004Y3762604D01*
G37*
G36*
G01X2453500Y3910800D02*
G01X2499500Y3910800D01*
G01X2503500Y3906799D01*
G01Y3856736D01*
G01X2499500Y3852736D01*
G01X2453500D01*
G01X2449500Y3856736D01*
G01Y3906799D01*
G01X2453500Y3910800D01*
G37*
G36*
G01X2453500Y3937800D02*
G01X2499500Y3937800D01*
G01X2503500Y3941801D01*
G01Y3991864D01*
G01X2499500Y3995865D01*
G01X2453500D01*
G01X2449500Y3991864D01*
G01Y3941801D01*
G01X2453500Y3937800D01*
G37*
G36*
G01X2842400Y3937800D02*
G01X2796400Y3937800D01*
G01X2792400Y3941801D01*
G01Y3991864D01*
G01X2796400Y3995865D01*
G01X2842400D01*
G01X2846400Y3991864D01*
G01Y3941801D01*
G01X2842400Y3937800D01*
G37*
G36*
G01X2842400Y3910800D02*
G01X2796400Y3910800D01*
G01X2792400Y3906799D01*
G01Y3856736D01*
G01X2796400Y3852736D01*
G01X2842400D01*
G01X2846400Y3856736D01*
G01Y3906799D01*
G01X2842400Y3910800D01*
G37*
G36*
G01X2567800Y3910800D02*
G01X2613800Y3910800D01*
G01X2617800Y3906799D01*
G01Y3856736D01*
G01X2613800Y3852736D01*
G01X2567800D01*
G01X2563800Y3856736D01*
G01Y3906799D01*
G01X2567800Y3910800D01*
G37*
G36*
G01X2567800Y3937800D02*
G01X2613800Y3937800D01*
G01X2617800Y3941801D01*
G01Y3991864D01*
G01X2613800Y3995865D01*
G01X2567800D01*
G01X2563800Y3991864D01*
G01Y3941801D01*
G01X2567800Y3937800D01*
G37*
G36*
G01X2682100Y3910800D02*
G01X2728100Y3910800D01*
G01X2732100Y3906799D01*
G01Y3856736D01*
G01X2728100Y3852736D01*
G01X2682100D01*
G01X2678100Y3856736D01*
G01Y3906799D01*
G01X2682100Y3910800D01*
G37*
G36*
G01X2682100Y3937800D02*
G01X2728100Y3937800D01*
G01X2732100Y3941801D01*
G01Y3991864D01*
G01X2728100Y3995865D01*
G01X2682100D01*
G01X2678100Y3991864D01*
G01Y3941801D01*
G01X2682100Y3937800D01*
G37*
G36*
G01X3225000Y3693300D02*
G01X3225000Y3647300D01*
G01X3220999Y3643300D01*
G01X3170936D01*
G01X3166936Y3647300D01*
G01Y3693300D01*
G01X3170936Y3697300D01*
G01X3220999D01*
G01X3225000Y3693300D01*
G37*
G36*
G01X3252000Y3693300D02*
G01X3252000Y3647300D01*
G01X3256001Y3643300D01*
G01X3306064D01*
G01X3310065Y3647300D01*
G01Y3693300D01*
G01X3306064Y3697300D01*
G01X3256001D01*
G01X3252000Y3693300D01*
G37*
G36*
G01X3225000Y3833000D02*
G01X3225000Y3787000D01*
G01X3220999Y3783000D01*
G01X3170936D01*
G01X3166936Y3787000D01*
G01Y3833000D01*
G01X3170936Y3837000D01*
G01X3220999D01*
G01X3225000Y3833000D01*
G37*
G36*
G01X3252000Y3833000D02*
G01X3252000Y3787000D01*
G01X3256001Y3783000D01*
G01X3306064D01*
G01X3310065Y3787000D01*
G01Y3833000D01*
G01X3306064Y3837000D01*
G01X3256001D01*
G01X3252000Y3833000D01*
G37*
G36*
G01X3219745Y3965077D02*
G01X3219745Y3919078D01*
G01X3215744Y3915077D01*
G01X3165681D01*
G01X3161680Y3919078D01*
G01Y3965077D01*
G01X3165681Y3969077D01*
G01X3215744D01*
G01X3219745Y3965077D01*
G37*
G36*
G01X3246745Y3965077D02*
G01X3246745Y3919078D01*
G01X3250745Y3915077D01*
G01X3300809D01*
G01X3304809Y3919078D01*
G01Y3965077D01*
G01X3300809Y3969077D01*
G01X3250745D01*
G01X3246745Y3965077D01*
G37*
G36*
G01X3531400Y4993500D02*
G01X3531400Y5039500D01*
G01X3535401Y5043500D01*
G01X3585464D01*
G01X3589465Y5039500D01*
G01Y4993500D01*
G01X3585464Y4989500D01*
G01X3535401D01*
G01X3531400Y4993500D01*
G37*
G36*
G01X3504400Y4993500D02*
G01X3504400Y5039500D01*
G01X3500399Y5043500D01*
G01X3450336D01*
G01X3446336Y5039500D01*
G01Y4993500D01*
G01X3450336Y4989500D01*
G01X3500399D01*
G01X3504400Y4993500D01*
G37*
G36*
G01X3544100Y4498200D02*
G01X3544100Y4544200D01*
G01X3548101Y4548200D01*
G01X3598164D01*
G01X3602165Y4544200D01*
G01Y4498200D01*
G01X3598164Y4494200D01*
G01X3548101D01*
G01X3544100Y4498200D01*
G37*
G36*
G01X3517100Y4498200D02*
G01X3517100Y4544200D01*
G01X3513099Y4548200D01*
G01X3463036D01*
G01X3459036Y4544200D01*
G01Y4498200D01*
G01X3463036Y4494200D01*
G01X3513099D01*
G01X3517100Y4498200D01*
G37*
G36*
G01X1796004Y5019398D02*
G01X1796004Y5064399D01*
G01X1803001Y5069398D01*
G01X1851002D01*
G01X1856003Y5064399D01*
G01Y5019398D01*
G01X1851002Y5014399D01*
G01X1803001D01*
G01X1796004Y5019398D01*
G37*
G36*
G01X1700002Y5019398D02*
G01X1700002Y5064399D01*
G01X1705003Y5069398D01*
G01X1753001D01*
G01X1760002Y5064399D01*
G01Y5019398D01*
G01X1753001Y5014399D01*
G01X1705003D01*
G01X1700002Y5019398D01*
G37*
G36*
G01X2113504Y5019398D02*
G01X2113504Y5064399D01*
G01X2120501Y5069398D01*
G01X2168502D01*
G01X2173503Y5064399D01*
G01Y5019398D01*
G01X2168502Y5014399D01*
G01X2120501D01*
G01X2113504Y5019398D01*
G37*
G36*
G01X2017502Y5019398D02*
G01X2017502Y5064399D01*
G01X2022503Y5069398D01*
G01X2070501D01*
G01X2077502Y5064399D01*
G01Y5019398D01*
G01X2070501Y5014399D01*
G01X2022503D01*
G01X2017502Y5019398D01*
G37*
G36*
G01X2788696Y5204102D02*
G01X2788696Y5159101D01*
G01X2781699Y5154102D01*
G01X2733698D01*
G01X2728697Y5159101D01*
G01Y5204102D01*
G01X2733698Y5209101D01*
G01X2781699D01*
G01X2788696Y5204102D01*
G37*
G36*
G01X2884698Y5204102D02*
G01X2884698Y5159101D01*
G01X2879697Y5154102D01*
G01X2831699D01*
G01X2824698Y5159101D01*
G01Y5204102D01*
G01X2831699Y5209101D01*
G01X2879697D01*
G01X2884698Y5204102D01*
G37*
G04 PolygonModel End*

G04 Pad Start*
G54D10*
G01X1778000Y3979240D03*
G01X1778000Y3640760D03*
G54D11*
G01X2273300Y3884994D03*
G54D12*
G01X2273300Y3735007D03*
G54D13*
G01X2614994Y3721100D03*
G54D14*
G01X2465007Y3721100D03*
G01X2693607Y3721100D03*
G54D13*
G01X2843594Y3721100D03*
G54D15*
G01X2160397Y4817389D03*
G01X1930400Y4817389D03*
G01X1700403Y4817389D03*
G54D16*
G01X1930400Y4250411D03*
G54D12*
G01X3098800Y5703507D03*
G54D11*
G01X3098800Y5853494D03*
G54D12*
G01X3213100Y5703507D03*
G54D11*
G01X3213100Y5853494D03*
G54D12*
G01X2159000Y5703507D03*
G54D11*
G01X2159000Y5853494D03*
G54D12*
G01X2057400Y5703507D03*
G54D11*
G01X2057400Y5853494D03*
G54D12*
G01X3340100Y5703507D03*
G54D11*
G01X3340100Y5853494D03*
G54D17*
G01X2519451Y5041900D03*
G01X2519451Y4914900D03*
G01X2519451Y4787900D03*
G01X2519451Y4660900D03*
G01X2519451Y4533900D03*
G01X2519451Y4406900D03*
G01X2519451Y4279900D03*
G01X2519451Y4152900D03*
G01X3093949Y5041900D03*
G01X3093949Y4914900D03*
G01X3093949Y4787900D03*
G01X3093949Y4660900D03*
G01X3093949Y4533900D03*
G01X3093949Y4406900D03*
G01X3093949Y4279900D03*
G01X3093949Y4152900D03*
G54D18*
G01X3443300Y4870196D03*
G01X3443300Y4680204D03*
G01X3643300Y4775200D03*
G01X3456000Y4374896D03*
G01X3456000Y4184904D03*
G01X3656000Y4279900D03*
G54D20*
G01X2878912Y6037491D03*
G01X2778912Y6037491D03*
G01X2678913Y6037491D03*
G01X2578913Y6037491D03*
G01X2478913Y6037491D03*
G01X2378913Y6037491D03*
G54D21*
G01X2989885Y6408509D03*
G01X2267915Y6408509D03*
G54D22*
G01X3458210Y3937000D03*
G01X3628390Y3937000D03*
G01X3458210Y3733800D03*
G01X3628390Y3733800D03*
G01X3458210Y3530600D03*
G01X3628390Y3530600D03*
G04 Pad End*

M02*
