G04 Layer: BottomSilkscreenLayer*
G04 EasyEDA Pro v2.1.49.1.de255bc8.674264, 2024-08-10 13:06:22*
G04 Gerber Generator version 0.3*
G04 Scale: 100 percent, Rotated: No, Reflected: No*
G04 Dimensions in millimeters*
G04 Leading zeros omitted, absolute positions, 3 integers and 5 decimals*
%FSLAX35Y35*%
%MOMM*%
%ADD10C,0.2032*%
%ADD11C,0.12*%
G75*


G04 Text Start*
G54D10*
G01X2923540Y5062474D02*
G01X2923540Y4954778D01*
G01X2916428Y4933442D01*
G01X2901950Y4918964D01*
G01X2880360Y4911852D01*
G01X2866136D01*
G01X2844546Y4918964D01*
G01X2830322Y4933442D01*
G01X2822956Y4954778D01*
G01Y5062474D01*
G01X2710688Y5062474D02*
G01X2768092Y4911852D01*
G01X2710688Y5062474D02*
G01X2653284Y4911852D01*
G01X2746756Y4962144D02*
G01X2674874Y4962144D01*
G01X2598420Y5062474D02*
G01X2598420Y4911852D01*
G01X2598420Y5062474D02*
G01X2533904Y5062474D01*
G01X2512314Y5055362D01*
G01X2505202Y5048250D01*
G01X2498090Y5033772D01*
G01Y5019548D01*
G01X2505202Y5005070D01*
G01X2512314Y4997958D01*
G01X2533904Y4990846D01*
G01X2598420D01*
G01X2548382Y4990846D02*
G01X2498090Y4911852D01*
G01X2393188Y5062474D02*
G01X2393188Y4911852D01*
G01X2443226Y5062474D02*
G01X2342896Y5062474D01*
G54D11*
G01X3346704Y4804410D02*
G01X3346704Y4720336D01*
G01X3346704Y4804410D02*
G01X3318764Y4804410D01*
G01X3306826Y4800346D01*
G01X3298698Y4792218D01*
G01X3294888Y4784344D01*
G01X3290824Y4772406D01*
G01Y4752340D01*
G01X3294888Y4740402D01*
G01X3298698Y4732274D01*
G01X3306826Y4724400D01*
G01X3318764Y4720336D01*
G01X3346704D01*
G01X3259582Y4752340D02*
G01X3211576Y4752340D01*
G01Y4760214D01*
G01X3215640Y4768342D01*
G01X3219704Y4772406D01*
G01X3227578Y4776216D01*
G01X3239516D01*
G01X3247644Y4772406D01*
G01X3255518Y4764278D01*
G01X3259582Y4752340D01*
G01Y4744212D01*
G01X3255518Y4732274D01*
G01X3247644Y4724400D01*
G01X3239516Y4720336D01*
G01X3227578D01*
G01X3219704Y4724400D01*
G01X3211576Y4732274D01*
G01X3136392Y4764278D02*
G01X3140456Y4772406D01*
G01X3152394Y4776216D01*
G01X3164332D01*
G01X3176270Y4772406D01*
G01X3180334Y4764278D01*
G01X3176270Y4756404D01*
G01X3168396Y4752340D01*
G01X3148330Y4748276D01*
G01X3140456Y4744212D01*
G01X3136392Y4736338D01*
G01Y4732274D01*
G01X3140456Y4724400D01*
G01X3152394Y4720336D01*
G01X3164332D01*
G01X3176270Y4724400D01*
G01X3180334Y4732274D01*
G01X3105150Y4804410D02*
G01X3101086Y4800346D01*
G01X3097276Y4804410D01*
G01X3101086Y4808220D01*
G01X3105150Y4804410D01*
G01X3101086Y4776216D02*
G01X3101086Y4720336D01*
G01X3018028Y4776216D02*
G01X3018028Y4712208D01*
G01X3022092Y4700270D01*
G01X3026156Y4696206D01*
G01X3034030Y4692396D01*
G01X3045968D01*
G01X3054096Y4696206D01*
G01X3018028Y4764278D02*
G01X3026156Y4772406D01*
G01X3034030Y4776216D01*
G01X3045968D01*
G01X3054096Y4772406D01*
G01X3061970Y4764278D01*
G01X3066034Y4752340D01*
G01Y4744212D01*
G01X3061970Y4732274D01*
G01X3054096Y4724400D01*
G01X3045968Y4720336D01*
G01X3034030D01*
G01X3026156Y4724400D01*
G01X3018028Y4732274D01*
G01X2986786Y4776216D02*
G01X2986786Y4720336D01*
G01X2986786Y4760214D02*
G01X2974848Y4772406D01*
G01X2966720Y4776216D01*
G01X2954782D01*
G01X2946908Y4772406D01*
G01X2942844Y4760214D01*
G01Y4720336D01*
G01X2911602Y4752340D02*
G01X2863596Y4752340D01*
G01Y4760214D01*
G01X2867660Y4768342D01*
G01X2871724Y4772406D01*
G01X2879598Y4776216D01*
G01X2891536D01*
G01X2899664Y4772406D01*
G01X2907538Y4764278D01*
G01X2911602Y4752340D01*
G01Y4744212D01*
G01X2907538Y4732274D01*
G01X2899664Y4724400D01*
G01X2891536Y4720336D01*
G01X2879598D01*
G01X2871724Y4724400D01*
G01X2863596Y4732274D01*
G01X2784348Y4804410D02*
G01X2784348Y4720336D01*
G01X2784348Y4764278D02*
G01X2792476Y4772406D01*
G01X2800350Y4776216D01*
G01X2812288D01*
G01X2820416Y4772406D01*
G01X2828290Y4764278D01*
G01X2832354Y4752340D01*
G01Y4744212D01*
G01X2828290Y4732274D01*
G01X2820416Y4724400D01*
G01X2812288Y4720336D01*
G01X2800350D01*
G01X2792476Y4724400D01*
G01X2784348Y4732274D01*
G01X2663444Y4804410D02*
G01X2663444Y4720336D01*
G01X2663444Y4804410D02*
G01X2627630Y4804410D01*
G01X2615438Y4800346D01*
G01X2611628Y4796282D01*
G01X2607564Y4788408D01*
G01Y4780280D01*
G01X2611628Y4772406D01*
G01X2615438Y4768342D01*
G01X2627630Y4764278D01*
G01X2663444Y4764278D02*
G01X2627630Y4764278D01*
G01X2615438Y4760214D01*
G01X2611628Y4756404D01*
G01X2607564Y4748276D01*
G01Y4736338D01*
G01X2611628Y4728210D01*
G01X2615438Y4724400D01*
G01X2627630Y4720336D01*
G01X2663444D01*
G01X2572258Y4776216D02*
G01X2548382Y4720336D01*
G01X2524252Y4776216D02*
G01X2548382Y4720336D01*
G01X2556256Y4704334D01*
G01X2564384Y4696206D01*
G01X2572258Y4692396D01*
G01X2576322D01*
G01X2347468Y4804410D02*
G01X2403348Y4720336D01*
G01X2403348Y4804410D02*
G01X2347468Y4804410D01*
G01X2403348Y4720336D02*
G01X2347468Y4720336D01*
G01X2316226Y4804410D02*
G01X2316226Y4720336D01*
G01X2316226Y4760214D02*
G01X2304288Y4772406D01*
G01X2296160Y4776216D01*
G01X2284222D01*
G01X2276348Y4772406D01*
G01X2272284Y4760214D01*
G01Y4720336D01*
G01X2193036Y4776216D02*
G01X2193036Y4720336D01*
G01X2193036Y4764278D02*
G01X2201164Y4772406D01*
G01X2209038Y4776216D01*
G01X2220976D01*
G01X2229104Y4772406D01*
G01X2236978Y4764278D01*
G01X2241042Y4752340D01*
G01Y4744212D01*
G01X2236978Y4732274D01*
G01X2229104Y4724400D01*
G01X2220976Y4720336D01*
G01X2209038D01*
G01X2201164Y4724400D01*
G01X2193036Y4732274D01*
G01X2121916Y4804410D02*
G01X2121916Y4740402D01*
G01X2125726Y4728210D01*
G01X2129790Y4724400D01*
G01X2137918Y4720336D01*
G01X2145792D01*
G01X2153920Y4724400D01*
G01X2157730Y4728210D01*
G01X2161794Y4740402D01*
G01Y4748276D01*
G01X2090674Y4804410D02*
G01X2086610Y4800346D01*
G01X2082800Y4804410D01*
G01X2086610Y4808220D01*
G01X2090674Y4804410D01*
G01X2086610Y4776216D02*
G01X2086610Y4720336D01*
G01X2051558Y4804410D02*
G01X2051558Y4720336D01*
G01X1995678Y4804410D02*
G01X1995678Y4720336D01*
G01X2051558Y4764278D02*
G01X1995678Y4764278D01*
G01X1964436Y4776216D02*
G01X1964436Y4736338D01*
G01X1960372Y4724400D01*
G01X1952498Y4720336D01*
G01X1940560D01*
G01X1932432Y4724400D01*
G01X1920494Y4736338D01*
G01X1920494Y4776216D02*
G01X1920494Y4720336D01*
G04 Text End*

M02*
