G04 Layer: BottomSilkscreenLayer*
G04 EasyEDA Pro v2.1.49.1.de255bc8.674264, 2024-08-10 13:04:53*
G04 Gerber Generator version 0.3*
G04 Scale: 100 percent, Rotated: No, Reflected: No*
G04 Dimensions in millimeters*
G04 Leading zeros omitted, absolute positions, 3 integers and 5 decimals*
%FSLAX35Y35*%
%MOMM*%
%ADD10C,0.254*%
G75*


G04 Text Start*
G36*
G01X-114300Y85395D02*
G01X-114300Y44450D01*
G01X-92253D01*
G01X-92050Y49987D01*
G01X-91389Y52121D01*
G01X-90526Y54661D01*
G01X-89713Y56337D01*
G01X-88849Y57810D01*
G01X-87579Y59741D01*
G01X-86106Y61214D01*
G01X-83972Y62890D01*
G01X-82702Y63754D01*
G01X-81839Y64618D01*
G01X-82956Y64922D01*
G01X-86716Y65024D01*
G01X-90526Y65227D01*
G01X-91796Y65888D01*
G01X-91389Y67564D01*
G01X-90526Y69494D01*
G01X-89713Y71831D01*
G01X-89052Y74574D01*
G01X-88849Y78384D01*
G01Y80721D01*
G01X-85446D01*
G01Y78384D01*
G01X-85039Y75235D01*
G01X-84176Y73965D01*
G01X-82702Y73101D01*
G01X-54458Y72695D01*
G01X-34138Y72441D01*
G01X-27330Y71831D01*
G01X-27737Y70561D01*
G01X-28600Y69088D01*
G01X-29464Y67361D01*
G01X-30074Y64821D01*
G01X-30531Y61011D01*
G01X-30734Y57810D01*
G01Y56540D01*
G01X-33680D01*
G01Y59080D01*
G01X-33833Y61265D01*
G01X-34341Y62687D01*
G01X-36017Y64211D01*
G01X-38557Y64821D01*
G01X-56794Y65024D01*
G01X-74422Y64618D01*
G01X-76556Y63754D01*
G01X-78232Y62890D01*
G01X-80772Y61214D01*
G01X-81839Y60350D01*
G01X-82906Y59080D01*
G01X-83769Y57810D01*
G01X-84836Y56337D01*
G01X-85649Y54407D01*
G01X-86106Y52934D01*
G01X-86512Y51257D01*
G01X-86919Y48717D01*
G01X-87173Y45923D01*
G01X-86919Y44044D01*
G01X-86512Y42316D01*
G01X-85852Y40640D01*
G01X-85039Y39167D01*
G01X-83972Y37897D01*
G01X-82906Y37033D01*
G01X-81432Y36170D01*
G01X-79502Y35357D01*
G01X-77826Y34900D01*
G01X-76352Y34696D01*
G01X-51511Y34493D01*
G01X-33376Y34290D01*
G01X-27330Y33630D01*
G01X-27991Y31953D01*
G01X-29007Y30023D01*
G01X-29667Y28346D01*
G01X-30074Y26619D01*
G01X-30277Y24536D01*
G01X-30531Y22809D01*
G01X-30734Y20269D01*
G01Y18390D01*
G01X-33680D01*
G01Y20726D01*
G01X-34138Y23876D01*
G01X-34950Y25146D01*
G01X-36474Y26010D01*
G01X-55982Y26416D01*
G01X-75082Y26619D01*
G01X-78892Y27076D01*
G01X-80772Y27483D01*
G01X-82702Y28143D01*
G01X-84176Y28753D01*
G01X-86106Y29820D01*
G01X-87782Y31090D01*
G01X-88849Y32360D01*
G01X-89713Y33630D01*
G01X-90526Y35103D01*
G01X-91389Y37440D01*
G01X-92050Y39167D01*
G01X-92253Y44450D01*
G01X-114300D01*
G01Y12446D01*
G01X-91796D01*
G01X-88849D01*
G01Y10516D01*
G01X-88443Y7772D01*
G01X-87579Y6299D01*
G01X-85852Y5232D01*
G01X-44704Y4775D01*
G01X-14529Y4928D01*
G01X-3810Y5436D01*
G01X-2286Y7112D01*
G01X-1676Y9246D01*
G01X-1473Y11176D01*
G01X-1067Y11786D01*
G01X51Y11989D01*
G01X1524D01*
G01Y-11328D01*
G01X-1473D01*
G01Y-9398D01*
G01X-1676Y-6858D01*
G01X-2286Y-5588D01*
G01X-3810Y-4521D01*
G01X-22860Y-4115D01*
G01X-40894D01*
G01Y-35916D01*
G01X-22454D01*
G01X-8382Y-35712D01*
G01X-3150Y-35103D01*
G01X-1880Y-32969D01*
G01X-1473Y-30429D01*
G01Y-29159D01*
G01X1524D01*
G01Y-52070D01*
G01X-1473D01*
G01Y-50140D01*
G01X-1880Y-47396D01*
G01X-3150Y-45923D01*
G01X-14122Y-45415D01*
G01X-45364Y-45263D01*
G01X-87173Y-45669D01*
G01X-87986Y-46736D01*
G01X-88646Y-48870D01*
G01X-88849Y-51613D01*
G01Y-52883D01*
G01X-91796D01*
G01Y-28296D01*
G01X-88849D01*
G01Y-30429D01*
G01X-88443Y-33376D01*
G01X-87579Y-34849D01*
G01X-85649Y-35712D01*
G01X-64262Y-35916D01*
G01X-44298D01*
G01Y-4115D01*
G01X-65278D01*
G01X-81331Y-4318D01*
G01X-87376Y-4978D01*
G01X-88138Y-5791D01*
G01X-88443Y-6655D01*
G01X-88646Y-8128D01*
G01X-88849Y-10262D01*
G01Y-11735D01*
G01X-91796D01*
G01Y12446D01*
G01X-114300D01*
G01Y-69444D01*
G01X-91796D01*
G01X-88849D01*
G01Y-75794D01*
G01X-88443Y-83007D01*
G01X-87579Y-84531D01*
G01X-85852Y-85547D01*
G01X-55778Y-86004D01*
G01X-34138Y-86208D01*
G01X-26924Y-86868D01*
G01X-27330Y-88341D01*
G01X-27686Y-89154D01*
G01X-10770D01*
G01X-10363Y-86208D01*
G01X-9500Y-84938D01*
G01X-8433Y-83871D01*
G01X-7163Y-83007D01*
G01X-5486Y-82398D01*
G01X-3150Y-82194D01*
G01X-1219Y-82601D01*
G01X51Y-83464D01*
G01X1118Y-84938D01*
G01X1930Y-86614D01*
G01X2388Y-89408D01*
G01X1727Y-92558D01*
G01X660Y-94285D01*
G01X-813Y-95555D01*
G01X-3353Y-96368D01*
G01X-5486D01*
G01X-6960Y-95758D01*
G01X-8230Y-94691D01*
G01X-9296Y-93624D01*
G01X-10363Y-92354D01*
G01X-10770Y-89154D01*
G01X-27686D01*
G01X-27991Y-89814D01*
G01X-28600Y-91491D01*
G01X-29261Y-93624D01*
G01X-29667Y-95555D01*
G01X-30074Y-98095D01*
G01X-30277Y-103581D01*
G01X-30531Y-107848D01*
G01X-30734Y-109322D01*
G01X-31090Y-109982D01*
G01X-32207Y-110185D01*
G01X-33680D01*
G01Y-107645D01*
G01X-33884Y-104445D01*
G01X-34138Y-100228D01*
G01X-34544Y-95961D01*
G01X-35814Y-94691D01*
G01X-38557Y-93828D01*
G01X-62941Y-93624D01*
G01X-86309Y-94031D01*
G01X-87579Y-94894D01*
G01X-88443Y-96622D01*
G01X-88849Y-104038D01*
G01Y-110185D01*
G01X-91796D01*
G01Y-69444D01*
G01X-114300D01*
G01Y-173584D01*
G01X-109423D01*
G01Y-172314D01*
G01X-109220Y-169367D01*
G01X-108763Y-166624D01*
G01X-108356Y-164897D01*
G01X-108153Y-163424D01*
G01X-107493Y-161696D01*
G01X-105816Y-158344D01*
G01X-104750Y-156820D01*
G01X-103886Y-155804D01*
G01X-102870Y-154076D01*
G01X-100940Y-152400D01*
G01X-99466Y-151130D01*
G01X-98400Y-150266D01*
G01X-93726Y-147930D01*
G01X-91592Y-147320D01*
G01X-89459Y-146863D01*
G01X-87782Y-146456D01*
G01X-45974Y-146253D01*
G01X-4420Y-145796D01*
G01X-3150Y-144983D01*
G01X-2489Y-143459D01*
G01X-2083Y-141376D01*
G01X-1880Y-134163D01*
G01Y-128016D01*
G01X1524D01*
G01X1727Y-129489D01*
G01X1930Y-151536D01*
G01X1778Y-167081D01*
G01X1321Y-172517D01*
G01X-406Y-172974D01*
G01X-1219Y-172720D01*
G01X-1676Y-171907D01*
G01X-1880Y-164897D01*
G01X-2083Y-158344D01*
G01X-2489Y-156820D01*
G01X-2946Y-156108D01*
G01X-3810Y-155550D01*
G01X-47498Y-155143D01*
G01X-90780Y-155346D01*
G01X-93726Y-155804D01*
G01X-95656Y-156413D01*
G01X-97942Y-157277D01*
G01X-99466Y-158140D01*
G01X-100533Y-158953D01*
G01X-101549Y-160020D01*
G01X-102413Y-161087D01*
G01X-103480Y-162560D01*
G01X-104546Y-165100D01*
G01X-104953Y-167437D01*
G01X-105156Y-168910D01*
G01X-105410Y-171907D01*
G01X-105156Y-174854D01*
G01X-104546Y-176581D01*
G01X-103480Y-178257D01*
G01X-102718Y-178714D01*
G01X-101803D01*
G01X-100076Y-178054D01*
G01X-98196Y-177648D01*
G01X-96266Y-178054D01*
G01X-94590Y-179121D01*
G01X-93066Y-180594D01*
G01X-92456Y-182067D01*
G01X-92050Y-183591D01*
G01Y-185064D01*
G01X-92659Y-186538D01*
G01X-93726Y-188011D01*
G01X-95402Y-189078D01*
G01X-97130Y-189738D01*
G01X-99263Y-189941D01*
G01X-101346Y-189535D01*
G01X-102870Y-188671D01*
G01X-104140Y-187604D01*
G01X-105156Y-186538D01*
G01X-106223Y-185268D01*
G01X-107290Y-183591D01*
G01X-108153Y-181458D01*
G01X-108560Y-179527D01*
G01X-109017Y-177851D01*
G01X-109220Y-175311D01*
G01X-109423Y-173584D01*
G01X-114300D01*
G01Y-237896D01*
G01X-92253D01*
G01X-92050Y-231699D01*
G01X-91592Y-229819D01*
G01X-90983Y-227686D01*
G01X-90119Y-225552D01*
G01X-89256Y-223672D01*
G01X-87579Y-220675D01*
G01X-86512Y-218999D01*
G01X-85649Y-217322D01*
G01X-85801Y-216713D01*
G01X-88443Y-215392D01*
G01X-89459Y-214528D01*
G01X-90526Y-213055D01*
G01X-91389Y-211125D01*
G01X-91796Y-207315D01*
G01X-91389Y-203505D01*
G01X-90322Y-201625D01*
G01X-88646Y-199898D01*
G01X-86512Y-198831D01*
G01X-84379Y-198222D01*
G01X-82245Y-197764D01*
G01X-79705Y-197561D01*
G01X-78232D01*
G01Y-200558D01*
G01X-80569D01*
G01X-83566Y-200762D01*
G01X-85242Y-201371D01*
G01X-86919Y-202895D01*
G01X-87579Y-205638D01*
G01X-87376Y-207061D01*
G01X-86716Y-207975D01*
G01X-85039Y-208585D01*
G01X-83566Y-208788D01*
G01X-41554Y-209245D01*
G01X-39624Y-209855D01*
G01X-37490Y-210922D01*
G01X-36017Y-211988D01*
G01X-34950Y-213055D01*
G01X-34138Y-214122D01*
G01X-33071Y-215595D01*
G01X-32004Y-217729D01*
G01X-31140Y-220066D01*
G01X-30531Y-222809D01*
G01X-30074Y-225349D01*
G01X-29870Y-231699D01*
G01X-30074Y-237642D01*
G01X-30531Y-239776D01*
G01X-31140Y-242113D01*
G01X-32410Y-245516D01*
G01X-33274Y-247193D01*
G01X-34138Y-248666D01*
G01X-34950Y-249987D01*
G01X-36220Y-251663D01*
G01X-37744Y-253136D01*
G01X-39218Y-254203D01*
G01X-41554Y-255270D01*
G01X-43891Y-255676D01*
G01X-45568Y-255270D01*
G01X-47041Y-254406D01*
G01X-48108Y-252933D01*
G01X-48565Y-249987D01*
G01X-48311Y-248310D01*
G01X-47701Y-247193D01*
G01X-45771Y-245923D01*
G01X-43434Y-245720D01*
G01X-41554Y-246126D01*
G01X-39624D01*
G01X-37948Y-245313D01*
G01X-36881Y-244246D01*
G01X-35611Y-242773D01*
G01X-34544Y-240640D01*
G01X-33884Y-238506D01*
G01X-33477Y-236372D01*
G01X-33071Y-233426D01*
G01X-32868Y-229413D01*
G01X-33071Y-226619D01*
G01X-33477Y-224485D01*
G01X-34341Y-221945D01*
G01X-35408Y-220269D01*
G01X-36881Y-218999D01*
G01X-39218Y-217932D01*
G01X-41554Y-217322D01*
G01X-44094Y-216865D01*
G01X-48768Y-216662D01*
G01X-51918D01*
G01X-52172Y-218135D01*
G01X-52578Y-221539D01*
G01X-53442Y-227482D01*
G01X-53848Y-230022D01*
G01X-54712Y-234290D01*
G01X-55321Y-236372D01*
G01X-56388Y-240640D01*
G01X-57048Y-242316D01*
G01X-57861Y-244653D01*
G01X-58725Y-246583D01*
G01X-59588Y-248056D01*
G01X-60655Y-249733D01*
G01X-61671Y-251257D01*
G01X-64872Y-254406D01*
G01X-66345Y-255473D01*
G01X-68275Y-256743D01*
G01X-70409Y-257607D01*
G01X-72288Y-258216D01*
G01X-74625Y-258674D01*
G01X-76759Y-258877D01*
G01X-78435D01*
G01X-80569Y-258470D01*
G01X-82245Y-257810D01*
G01X-83769Y-256946D01*
G01X-85649Y-255676D01*
G01X-87173Y-254203D01*
G01X-88443Y-252527D01*
G01X-89713Y-250393D01*
G01X-90526Y-248666D01*
G01X-91186Y-246786D01*
G01X-91592Y-244856D01*
G01X-92050Y-243789D01*
G01X-92253Y-237896D01*
G01X-114300D01*
G01Y-269291D01*
G01X-91796D01*
G01X-88849D01*
G01Y-271170D01*
G01X-88443Y-273914D01*
G01X-87579Y-275438D01*
G01X-85649Y-276504D01*
G01X-63805Y-276911D01*
G01X-42824Y-277114D01*
G01X-41097Y-277520D01*
G01X-39218Y-278181D01*
G01X-37287Y-279044D01*
G01X-35814Y-279857D01*
G01X-34747Y-280721D01*
G01X-33680Y-281788D01*
G01X-32614Y-283261D01*
G01X-31598Y-285191D01*
G01X-30734Y-287071D01*
G01X-30074Y-289865D01*
G01X-29870Y-295148D01*
G01X-30074Y-299161D01*
G01X-30531Y-300888D01*
G01X-31140Y-302768D01*
G01X-32004Y-304902D01*
G01X-32868Y-306578D01*
G01X-34544Y-309169D01*
G01X-35408Y-310185D01*
G01X-38557Y-313385D01*
G01X-39421Y-314452D01*
G01X-33884Y-314909D01*
G01X-16916Y-315062D01*
G01X102Y-315316D01*
G01X5740Y-315925D01*
G01X5131Y-317195D01*
G01X4064Y-318465D01*
G01X2997Y-320192D01*
G01X2134Y-322072D01*
G01X1727Y-323799D01*
G01X1524Y-327812D01*
G01Y-331216D01*
G01X-1880D01*
G01Y-328219D01*
G01X-2083Y-325730D01*
G01X-2743Y-324206D01*
G01X-3556Y-323393D01*
G01X-4420Y-323139D01*
G01X-5893Y-322936D01*
G01X-45974Y-322732D01*
G01X-86309Y-323139D01*
G01X-87579Y-324002D01*
G01X-88443Y-325679D01*
G01X-88849Y-328676D01*
G01Y-330352D01*
G01X-91796D01*
G01Y-307442D01*
G01X-88849D01*
G01Y-309372D01*
G01X-88646Y-311912D01*
G01X-87986Y-313182D01*
G01X-86716Y-314249D01*
G01X-84836Y-314858D01*
G01X-65075Y-315062D01*
G01X-45974Y-314655D01*
G01X-44958Y-313792D01*
G01X-40284Y-309169D01*
G01X-39218Y-307848D01*
G01X-38354Y-306578D01*
G01X-37490Y-305105D01*
G01X-36678Y-303428D01*
G01X-35814Y-301498D01*
G01X-35154Y-299161D01*
G01X-34747Y-297078D01*
G01X-34544Y-294488D01*
G01X-34747Y-292405D01*
G01X-35408Y-290678D01*
G01X-36678Y-288595D01*
G01X-38557Y-286868D01*
G01X-40894Y-285801D01*
G01X-43688Y-285191D01*
G01X-47041Y-284734D01*
G01X-67412Y-284531D01*
G01X-81534Y-284683D01*
G01X-86919Y-285191D01*
G01X-87782Y-285902D01*
G01X-88189Y-286868D01*
G01X-88646Y-288595D01*
G01X-88849Y-290678D01*
G01Y-292151D01*
G01X-91796D01*
G01Y-269291D01*
G01X-114300D01*
G01Y-373634D01*
G01X-91796D01*
G01Y-347320D01*
G01X-90526Y-346913D01*
G01X-87986Y-346253D01*
G01X-83769Y-344983D01*
G01X-81839Y-344576D01*
G01X-79959Y-343916D01*
G01X-77622Y-343306D01*
G01X-75895Y-342849D01*
G01X-73762Y-342240D01*
G01X-71476Y-341579D01*
G01X-70815Y-341630D01*
G01X-70612Y-342240D01*
G01X-70409Y-343713D01*
G01Y-344322D01*
G01X-70815Y-344780D01*
G01X-74625Y-346456D01*
G01X-76352Y-347320D01*
G01X-78232Y-348386D01*
G01X-80162Y-349656D01*
G01X-81636Y-350926D01*
G01X-82702Y-351790D01*
G01X-83769Y-352857D01*
G01X-84836Y-354127D01*
G01X-85649Y-355194D01*
G01X-87173Y-358140D01*
G01X-87782Y-359867D01*
G01X-88189Y-361544D01*
G01X-88646Y-363677D01*
G01X-88849Y-376580D01*
G01Y-388468D01*
G01X-87782Y-388264D01*
G01X-86106Y-387655D01*
G01X-84379Y-386588D01*
G01X-80569Y-384658D01*
G01X-77622Y-382981D01*
G01X-72492Y-380441D01*
G01X-69545Y-378714D01*
G01X-66142Y-377038D01*
G01X-63195Y-375310D01*
G01X-59792Y-373634D01*
G01X-56794Y-371958D01*
G01X-53442Y-370230D01*
G01X-49581Y-368097D01*
G01X-46228Y-366420D01*
G01X-43231Y-364744D01*
G01X-39827Y-363017D01*
G01X-36881Y-361340D01*
G01X-33477Y-359613D01*
G01X-29667Y-357530D01*
G01X-26264Y-355803D01*
G01X-23317Y-354127D01*
G01X-19914Y-352400D01*
G01X-16916Y-350723D01*
G01X-13564Y-349047D01*
G01X-9703Y-346913D01*
G01X-6350Y-345186D01*
G01X-3353Y-343510D01*
G01X1321Y-341173D01*
G01X1524Y-366014D01*
G01Y-391008D01*
G01X254Y-391262D01*
G01X-1880Y-391871D01*
G01X-3810Y-392532D01*
G01X-7163Y-393802D01*
G01X-10973Y-395072D01*
G01X-16104Y-396951D01*
G01X-16662D01*
G01X-17170Y-396138D01*
G01X-17780Y-394208D01*
G01X-17729Y-393700D01*
G01X-17170Y-393344D01*
G01X-15900Y-392735D01*
G01X-12700Y-390601D01*
G01X-10973Y-389331D01*
G01X-6756Y-385064D01*
G01X-5690Y-383794D01*
G01X-4826Y-382321D01*
G01X-3150Y-378917D01*
G01X-2489Y-377038D01*
G01X-2083Y-375107D01*
G01X-1676Y-372567D01*
G01X-1473Y-361340D01*
G01Y-351993D01*
G01X-2286Y-352196D01*
G01X-3810Y-352857D01*
G01X-5486Y-353924D01*
G01X-9296Y-355803D01*
G01X-12294Y-357530D01*
G01X-15646Y-359207D01*
G01X-18644Y-360883D01*
G01X-23724Y-363474D01*
G01X-26670Y-365150D01*
G01X-30074Y-366827D01*
G01X-33071Y-368554D01*
G01X-36474Y-370230D01*
G01X-39421Y-371958D01*
G01X-42824Y-373634D01*
G01X-46634Y-375768D01*
G01X-50038Y-377444D01*
G01X-52984Y-379120D01*
G01X-56388Y-380848D01*
G01X-59385Y-382524D01*
G01X-62738Y-384251D01*
G01X-66548Y-386334D01*
G01X-69952Y-388061D01*
G01X-72949Y-389738D01*
G01X-76352Y-391465D01*
G01X-79299Y-393141D01*
G01X-82702Y-394818D01*
G01X-86512Y-396951D01*
G01X-89916Y-398678D01*
G01X-91389Y-399491D01*
G01X-91694Y-393243D01*
G01X-91796Y-373634D01*
G01X-114300D01*
G01Y-526796D01*
G01X-111354D01*
G01X-110896Y-522122D01*
G01X-110287Y-520395D01*
G01X-109626Y-519125D01*
G01X-108763Y-518109D01*
G01X-106680Y-515976D01*
G01X-105156Y-514706D01*
G01X-103276Y-513436D01*
G01X-101346Y-512369D01*
G01X-99670Y-511505D01*
G01X-97739Y-510642D01*
G01X-95656Y-509829D01*
G01X-91796Y-508559D01*
G01X-88443Y-507289D01*
G01X-76962Y-503428D01*
G01X-73558Y-502158D01*
G01X-62128Y-498348D01*
G01X-58725Y-497078D01*
G01X-47295Y-493268D01*
G01X-45161Y-492404D01*
G01X-40081Y-490728D01*
G01X-37948Y-489661D01*
G01X-36474Y-488594D01*
G01X-35611Y-487528D01*
G01X-34950Y-486461D01*
G01X-34138Y-484784D01*
G01X-33680Y-481584D01*
G01Y-479704D01*
G01X-30734D01*
G01Y-503022D01*
G01X-33680D01*
G01Y-500685D01*
G01X-33833Y-498653D01*
G01X-34341Y-497281D01*
G01X-35814Y-495808D01*
G01X-38151Y-495402D01*
G01X-40488Y-495808D01*
G01X-51918Y-499618D01*
G01X-56185Y-500888D01*
G01X-75286Y-507289D01*
G01X-76352Y-508102D01*
G01X-76200Y-508559D01*
G01X-75489Y-508965D01*
G01X-73152Y-509829D01*
G01X-70612Y-510642D01*
G01X-65938Y-512369D01*
G01X-60858Y-514045D01*
G01X-58725Y-514909D01*
G01X-54915Y-516179D01*
G01X-51511Y-517449D01*
G01X-45771Y-519379D01*
G01X-42367Y-520649D01*
G01X-40488Y-521259D01*
G01X-38354Y-521919D01*
G01X-36474D01*
G01X-35154Y-521259D01*
G01X-34138Y-519582D01*
G01X-33680Y-517042D01*
G01Y-515772D01*
G01X-30734D01*
G01Y-539090D01*
G01X-33680D01*
G01Y-537159D01*
G01X-34138Y-534416D01*
G01X-35154Y-532486D01*
G01X-36881Y-531012D01*
G01X-38760Y-530200D01*
G01X-40894Y-529336D01*
G01X-43231Y-528472D01*
G01X-45364Y-527609D01*
G01X-47701Y-526796D01*
G01X-51918Y-525069D01*
G01X-54254Y-524256D01*
G01X-56388Y-523392D01*
G01X-58725Y-522529D01*
G01X-62941Y-520852D01*
G01X-65278Y-519989D01*
G01X-67412Y-519125D01*
G01X-69748Y-518312D01*
G01X-76098Y-515772D01*
G01X-79502Y-514502D01*
G01X-81636Y-513639D01*
G01X-83972Y-512775D01*
G01X-86106Y-511912D01*
G01X-88646D01*
G01X-91389Y-512775D01*
G01X-93929Y-513639D01*
G01X-96063Y-514502D01*
G01X-97942Y-515315D01*
G01X-100076Y-516179D01*
G01X-103073Y-517855D01*
G01X-103937Y-518516D01*
G01X-104546Y-519582D01*
G01X-104953Y-521919D01*
G01X-104343Y-523799D01*
G01X-103276Y-525272D01*
G01X-102413Y-526339D01*
G01X-101549Y-527863D01*
G01X-101143Y-530200D01*
G01X-101549Y-532079D01*
G01X-102413Y-533349D01*
G01X-103886Y-534416D01*
G01X-105816Y-535076D01*
G01X-107290D01*
G01X-108763Y-534213D01*
G01X-110287Y-532486D01*
G01X-111100Y-531012D01*
G01X-111354Y-526796D01*
G01X-114300D01*
G01Y-612902D01*
G01X-91796D01*
G01Y-592531D01*
G01X-91592Y-571551D01*
G01X-90780Y-567284D01*
G01X-90119Y-565404D01*
G01X-89256Y-563270D01*
G01X-88443Y-561594D01*
G01X-87376Y-559867D01*
G01X-86309Y-558394D01*
G01X-85039Y-556666D01*
G01X-83109Y-554990D01*
G01X-80162Y-552856D01*
G01X-78029Y-551790D01*
G01X-76098Y-550977D01*
G01X-73558Y-550316D01*
G01X-71222Y-549910D01*
G01X-67208Y-549707D01*
G01X-63195Y-549910D01*
G01X-61062Y-550316D01*
G01X-58725Y-550977D01*
G01X-56794Y-551586D01*
G01X-55118Y-552247D01*
G01X-53442Y-553110D01*
G01X-51918Y-553923D01*
G01X-50851Y-554787D01*
G01X-49174Y-556057D01*
G01X-47904Y-557530D01*
G01X-46228Y-559664D01*
G01X-45364Y-561137D01*
G01X-44298Y-563067D01*
G01X-43434Y-564744D01*
G01X-42824Y-566217D01*
G01X-42164Y-567944D01*
G01X-41554Y-569417D01*
G01X-40894Y-569824D01*
G01X-40081Y-568350D01*
G01X-39218Y-566471D01*
G01X-38354Y-564744D01*
G01X-37287Y-562864D01*
G01X-36220Y-561340D01*
G01X-34950Y-559664D01*
G01X-33071Y-557987D01*
G01X-31344Y-556920D01*
G01X-29667Y-556057D01*
G01X-27737Y-555193D01*
G01X-24994Y-554584D01*
G01X-22047Y-554126D01*
G01X-18847Y-553923D01*
G01X-16104Y-554126D01*
G01X-13106Y-554584D01*
G01X-11227Y-555193D01*
G01X-8890Y-556057D01*
G01X-6756Y-557327D01*
G01X-5080Y-558597D01*
G01X-4013Y-559664D01*
G01X-2946Y-561137D01*
G01X-1880Y-562864D01*
G01X-1016Y-564540D01*
G01X-203Y-566674D01*
G01X457Y-569214D01*
G01X864Y-571094D01*
G01X1321Y-573684D01*
G01X1524Y-593598D01*
G01Y-611632D01*
G01X-1473D01*
G01Y-609092D01*
G01X-1626Y-606908D01*
G01X-2083Y-605485D01*
G01X-3810Y-604012D01*
G01X-45568Y-603555D01*
G01X-76403Y-603758D01*
G01X-87376Y-604418D01*
G01X-88189Y-605536D01*
G01X-88646Y-607162D01*
G01X-88849Y-610972D01*
G01Y-612902D01*
G01X-91796D01*
G01X-114300D01*
G01Y-722782D01*
G01X-92253D01*
G01X-92050Y-717906D01*
G01X-91592Y-716229D01*
G01X-90983Y-714502D01*
G01X-90119Y-712826D01*
G01X-89256Y-711352D01*
G01X-88443Y-710286D01*
G01X-85242Y-707085D01*
G01X-84176Y-706222D01*
G01X-83312Y-705409D01*
G01X-83160Y-705002D01*
G01X-83566Y-704748D01*
G01X-87986Y-704545D01*
G01X-91796D01*
G01Y-703478D01*
G01X-91389Y-701802D01*
G01X-90526Y-699872D01*
G01X-89713Y-697332D01*
G01X-89052Y-694588D01*
G01X-88849Y-690728D01*
G01Y-688442D01*
G01X-85446D01*
G01Y-691185D01*
G01X-85293Y-693522D01*
G01X-84836Y-694995D01*
G01X-84023Y-695858D01*
G01X-82906Y-696265D01*
G01X-80975Y-696671D01*
G01X-37287Y-696925D01*
G01X5740D01*
G01X5334Y-697738D01*
G01X4267Y-699465D01*
G01X3200Y-701345D01*
G01X2388Y-703275D01*
G01X1727Y-706018D01*
G01X1524Y-710895D01*
G01Y-713892D01*
G01X-1880D01*
G01Y-710489D01*
G01X-2032Y-707847D01*
G01X-2489Y-706679D01*
G01X-3556Y-705815D01*
G01X-5486Y-704952D01*
G01X-21793Y-704545D01*
G01X-32918Y-704698D01*
G01X-36474Y-705155D01*
G01X-35611Y-706222D01*
G01X-34544Y-707492D01*
G01X-33680Y-708762D01*
G01X-32868Y-710286D01*
G01X-32004Y-712165D01*
G01X-31140Y-714502D01*
G01X-30531Y-717499D01*
G01X-30277Y-722122D01*
G01X-30531Y-725983D01*
G01X-31140Y-728066D01*
G01X-32004Y-730199D01*
G01X-33274Y-732739D01*
G01X-34138Y-734009D01*
G01X-35408Y-735736D01*
G01X-39014Y-739343D01*
G01X-40081Y-740156D01*
G01X-41554Y-741223D01*
G01X-43231Y-742290D01*
G01X-46634Y-744017D01*
G01X-48311Y-744626D01*
G01X-50241Y-745287D01*
G01X-51918Y-745693D01*
G01X-53442Y-745896D01*
G01X-55982Y-746303D01*
G01X-62941Y-746557D01*
G01X-68682Y-746303D01*
G01X-73355Y-745490D01*
G01X-75286Y-744830D01*
G01X-77622Y-744017D01*
G01X-79299Y-743153D01*
G01X-80772Y-742290D01*
G01X-82499Y-741223D01*
G01X-83972Y-740156D01*
G01X-86106Y-738073D01*
G01X-87376Y-736549D01*
G01X-89459Y-733603D01*
G01X-90526Y-731469D01*
G01X-91389Y-729132D01*
G01X-92050Y-727456D01*
G01X-92253Y-722782D01*
G01X-114300D01*
G01Y-787705D01*
G01X-92659D01*
G01X-92456Y-781964D01*
G01X-91796Y-779831D01*
G01X-90983Y-777291D01*
G01X-89916Y-775411D01*
G01X-88849Y-773887D01*
G01X-87173Y-771804D01*
G01X-85039Y-770077D01*
G01X-83566Y-768807D01*
G01X-81636Y-767537D01*
G01X-79705Y-766470D01*
G01X-76352Y-764794D01*
G01X-75286Y-764337D01*
G01X-75082Y-765404D01*
G01X-74625Y-767131D01*
G01X-74727Y-767639D01*
G01X-75489Y-767944D01*
G01X-77165Y-768604D01*
G01X-78892Y-769671D01*
G01X-80975Y-771144D01*
G01X-83566Y-773684D01*
G01X-84836Y-775157D01*
G01X-85852Y-776884D01*
G01X-86716Y-778561D01*
G01X-87579Y-780491D01*
G01X-87986Y-782168D01*
G01X-88189Y-783641D01*
G01X-88443Y-787248D01*
G01X-88189Y-790854D01*
G01X-87782Y-792582D01*
G01X-87173Y-794461D01*
G01X-86309Y-796392D01*
G01X-85446Y-797865D01*
G01X-84582Y-798932D01*
G01X-81432Y-802132D01*
G01X-79959Y-803199D01*
G01X-78029Y-804215D01*
G01X-75692Y-805078D01*
G01X-72949Y-805942D01*
G01X-69545Y-806552D01*
G01X-66142Y-807009D01*
G01X-62941Y-807212D01*
G01X-61265D01*
G01Y-763067D01*
G01X-57658D01*
G01X-53442Y-763321D01*
G01X-50444Y-763727D01*
G01X-48565Y-764134D01*
G01X-46431Y-764794D01*
G01X-43028Y-766064D01*
G01X-41097Y-767131D01*
G01X-39421Y-768198D01*
G01X-37287Y-769874D01*
G01X-35611Y-772008D01*
G01X-34544Y-773278D01*
G01X-33680Y-774751D01*
G01X-32614Y-776427D01*
G01X-31801Y-778358D01*
G01X-31140Y-780034D01*
G01X-30531Y-782371D01*
G01X-30074Y-784504D01*
G01X-29870Y-789178D01*
G01X-30074Y-793852D01*
G01X-30531Y-795731D01*
G01X-31140Y-797662D01*
G01X-32410Y-800608D01*
G01X-33477Y-802335D01*
G01X-34950Y-804469D01*
G01X-38557Y-808076D01*
G01X-40691Y-809752D01*
G01X-42164Y-810819D01*
G01X-44094Y-811886D01*
G01X-47498Y-813562D01*
G01X-49835Y-814426D01*
G01X-52375Y-815035D01*
G01X-54254Y-815492D01*
G01X-57252Y-815899D01*
G01X-62332Y-816102D01*
G01X-67412Y-815899D01*
G01X-70409Y-815492D01*
G01X-73762Y-814629D01*
G01X-75489Y-814019D01*
G01X-77622Y-813156D01*
G01X-79299Y-812292D01*
G01X-80975Y-811225D01*
G01X-82499Y-810158D01*
G01X-83566Y-809346D01*
G01X-85649Y-807212D01*
G01X-86919Y-805739D01*
G01X-89459Y-801878D01*
G01X-90526Y-799592D01*
G01X-91796Y-795731D01*
G01X-92456Y-793648D01*
G01X-92659Y-787705D01*
G01X-114300D01*
G01Y-829259D01*
G01X-91796D01*
G01X-88849D01*
G01Y-831190D01*
G01X-88443Y-833933D01*
G01X-87579Y-835406D01*
G01X-85649Y-836473D01*
G01X-64008Y-836879D01*
G01X-43231Y-837133D01*
G01X-41554Y-837540D01*
G01X-39624Y-838200D01*
G01X-37744Y-839013D01*
G01X-35611Y-840283D01*
G01X-33071Y-842823D01*
G01X-32207Y-844093D01*
G01X-31598Y-845617D01*
G01X-30734Y-847496D01*
G01X-30074Y-850697D01*
G01X-29870Y-855777D01*
G01X-30074Y-859587D01*
G01X-30734Y-861517D01*
G01X-31598Y-863854D01*
G01X-32410Y-865530D01*
G01X-33477Y-867258D01*
G01X-34544Y-868731D01*
G01X-35408Y-869798D01*
G01X-36474Y-870864D01*
G01X-38151Y-872947D01*
G01X-39218Y-874217D01*
G01X-39624Y-875081D01*
G01X-33884D01*
G01X-29616Y-875284D01*
G01X-28194Y-875944D01*
G01X-28600Y-877418D01*
G01X-29464Y-879094D01*
G01X-30074Y-881228D01*
G01X-30531Y-883361D01*
G01X-30734Y-887171D01*
G01Y-889914D01*
G01X-34138D01*
G01Y-886968D01*
G01X-34341Y-884631D01*
G01X-34950Y-883564D01*
G01X-36881Y-882955D01*
G01X-61671Y-882701D01*
G01X-86309Y-883158D01*
G01X-87579Y-883971D01*
G01X-88443Y-885698D01*
G01X-88849Y-888644D01*
G01Y-890372D01*
G01X-91796D01*
G01Y-867461D01*
G01X-88849D01*
G01Y-869340D01*
G01X-88646Y-871880D01*
G01X-87986Y-873201D01*
G01X-86716Y-874217D01*
G01X-84836Y-874878D01*
G01X-65075Y-875081D01*
G01X-45974Y-874674D01*
G01X-44958Y-873811D01*
G01X-43891Y-872744D01*
G01X-41758Y-871068D01*
G01X-40081Y-868934D01*
G01X-39014Y-867867D01*
G01X-38151Y-866800D01*
G01X-37287Y-865327D01*
G01X-36220Y-863397D01*
G01X-35408Y-861517D01*
G01X-34747Y-859384D01*
G01X-34341Y-857504D01*
G01X-34138Y-854710D01*
G01X-34544Y-851764D01*
G01X-35154Y-850290D01*
G01X-36220Y-848563D01*
G01X-37948Y-847090D01*
G01X-39421Y-846226D01*
G01X-41097Y-845617D01*
G01X-42824Y-845160D01*
G01X-45771Y-844753D01*
G01X-66142Y-844550D01*
G01X-81229Y-844702D01*
G01X-86919Y-845160D01*
G01X-87782Y-845922D01*
G01X-88189Y-846887D01*
G01X-88646Y-848563D01*
G01X-88849Y-850697D01*
G01Y-852170D01*
G01X-91796D01*
G01Y-829259D01*
G01X-114300D01*
G01Y-930859D01*
G01X-112624D01*
G01X-112370Y-923239D01*
G01X-111963Y-919836D01*
G01X-111100Y-916432D01*
G01X-110490Y-914552D01*
G01X-109626Y-912622D01*
G01X-108763Y-911149D01*
G01X-107493Y-909218D01*
G01X-104953Y-906678D01*
G01X-103683Y-905612D01*
G01X-102210Y-904799D01*
G01X-100279Y-903935D01*
G01X-97942Y-903275D01*
G01X-93929Y-903072D01*
G01X-90119Y-903529D01*
G01X-88189Y-904342D01*
G01X-86716Y-905408D01*
G01X-85649Y-906272D01*
G01X-84836Y-907136D01*
G01X-84176Y-908152D01*
G01X-83312Y-909676D01*
G01X-82499Y-911352D01*
G01X-81839Y-913079D01*
G01X-80975Y-916432D01*
G01X-80569Y-918972D01*
G01X-80162Y-922376D01*
G01X-79705Y-925373D01*
G01X-79502Y-927252D01*
G01X-79299Y-928776D01*
G01X-78892Y-931316D01*
G01X-77622Y-940206D01*
G01X-77165Y-942746D01*
G01X-76352Y-944677D01*
G01X-75082Y-945490D01*
G01X-72949Y-945947D01*
G01X-70815Y-945490D01*
G01X-69545Y-944677D01*
G01X-68275Y-943153D01*
G01X-67869Y-941273D01*
G01X-68478Y-939546D01*
G01X-69139Y-937666D01*
G01X-69545Y-935939D01*
G01X-69952Y-933399D01*
G01X-70155Y-929792D01*
G01X-69952Y-927456D01*
G01X-69545Y-924509D01*
G01X-68885Y-922376D01*
G01X-68072Y-920242D01*
G01X-67208Y-918566D01*
G01X-66142Y-917092D01*
G01X-64008Y-914959D01*
G01X-62941Y-914095D01*
G01X-61468Y-913079D01*
G01X-59792Y-912012D01*
G01X-58064Y-911149D01*
G01X-55778Y-910285D01*
G01X-52578Y-909676D01*
G01X-49174Y-909472D01*
G01X-47041Y-909676D01*
G01X-44958Y-910082D01*
G01X-42621Y-910742D01*
G01X-40894Y-911352D01*
G01X-39014Y-912419D01*
G01X-37998Y-912978D01*
G01X-37084Y-913079D01*
G01X-36424Y-912673D01*
G01X-36017Y-912012D01*
G01X-35611Y-910488D01*
G01X-35408Y-909015D01*
G01X-35662Y-908304D01*
G01X-38354Y-906475D01*
G01X-39624Y-904342D01*
G01X-39827Y-902005D01*
G01X-38760Y-900328D01*
G01X-36881Y-899465D01*
G01X-34544Y-899262D01*
G01X-32410Y-899668D01*
G01X-30937Y-900532D01*
G01X-30074Y-902462D01*
G01X-29870Y-905408D01*
G01X-30277Y-907745D01*
G01X-31140Y-909879D01*
G01X-32004Y-911555D01*
G01X-32868Y-912825D01*
G01X-33884Y-914552D01*
G01X-34341Y-915416D01*
G01Y-916432D01*
G01X-33477Y-917956D01*
G01X-32614Y-919226D01*
G01X-32004Y-920902D01*
G01X-31344Y-922833D01*
G01X-30937Y-924509D01*
G01X-30531Y-927049D01*
G01X-30277Y-932790D01*
G01X-30531Y-937260D01*
G01X-31140Y-939343D01*
G01X-32004Y-941680D01*
G01X-33071Y-943610D01*
G01X-34544Y-945744D01*
G01X-37084Y-948284D01*
G01X-38151Y-949096D01*
G01X-39218Y-949757D01*
G01X-40488Y-950620D01*
G01X-42164Y-951433D01*
G01X-44298Y-952297D01*
G01X-47041Y-952957D01*
G01X-49581Y-953364D01*
G01X-51511Y-953567D01*
G01X-52984Y-953364D01*
G01X-54915Y-952957D01*
G01X-56794Y-952297D01*
G01X-58522Y-951433D01*
G01X-59995Y-950366D01*
G01X-64262Y-947014D01*
G01X-65278Y-945947D01*
G01X-65888Y-945845D01*
G01X-66345Y-946353D01*
G01X-67615Y-948284D01*
G01X-69545Y-950163D01*
G01X-71018Y-951433D01*
G01X-72746Y-952297D01*
G01X-75895Y-952703D01*
G01X-78435Y-952297D01*
G01X-79705Y-951433D01*
G01X-80772Y-950366D01*
G01X-81839Y-948893D01*
G01X-82906Y-947217D01*
G01X-83769Y-946556D01*
G01X-84582Y-947826D01*
G01X-85446Y-949554D01*
G01X-86512Y-951230D01*
G01X-87782Y-952703D01*
G01X-88849Y-953770D01*
G01X-89916Y-954634D01*
G01X-92862Y-956107D01*
G01X-95402Y-956970D01*
G01X-97739Y-957377D01*
G01X-99263Y-957174D01*
G01X-100736Y-956767D01*
G01X-102210Y-956107D01*
G01X-103480Y-955243D01*
G01X-104546Y-954430D01*
G01X-105410Y-953567D01*
G01X-107086Y-951433D01*
G01X-108153Y-949960D01*
G01X-109423Y-947826D01*
G01X-110287Y-945947D01*
G01X-110896Y-944220D01*
G01X-111557Y-941883D01*
G01X-111963Y-939800D01*
G01X-112370Y-938530D01*
G01X-112624Y-930859D01*
G01X-114300D01*
G01Y-979424D01*
G01X-91796D01*
G01X-88849D01*
G01Y-985825D01*
G01X-88443Y-993038D01*
G01X-87579Y-994512D01*
G01X-85852Y-995578D01*
G01X-55778Y-995985D01*
G01X-34138Y-996188D01*
G01X-26924Y-996848D01*
G01X-27330Y-998322D01*
G01X-27737Y-999185D01*
G01X-10770D01*
G01X-10363Y-996188D01*
G01X-9500Y-994918D01*
G01X-8433Y-993851D01*
G01X-7163Y-993038D01*
G01X-5486Y-992378D01*
G01X-3150Y-992175D01*
G01X-1219Y-992581D01*
G01X51Y-993445D01*
G01X1118Y-994918D01*
G01X1930Y-996645D01*
G01X2388Y-999388D01*
G01X1727Y-1002589D01*
G01X660Y-1004265D01*
G01X-813Y-1005535D01*
G01X-3353Y-1006399D01*
G01X-5486D01*
G01X-6960Y-1005738D01*
G01X-8230Y-1004672D01*
G01X-9296Y-1003656D01*
G01X-10363Y-1002335D01*
G01X-10770Y-999185D01*
G01X-27737D01*
G01X-27991Y-999795D01*
G01X-28600Y-1001522D01*
G01X-29261Y-1003656D01*
G01X-29667Y-1005535D01*
G01X-30074Y-1008075D01*
G01X-30277Y-1013612D01*
G01X-30531Y-1017829D01*
G01X-30734Y-1019353D01*
G01X-31090Y-1019962D01*
G01X-32207Y-1020166D01*
G01X-33680D01*
G01Y-1017626D01*
G01X-33884Y-1014425D01*
G01X-34138Y-1010209D01*
G01X-34544Y-1005942D01*
G01X-35814Y-1004672D01*
G01X-38557Y-1003859D01*
G01X-62941Y-1003656D01*
G01X-86309Y-1004062D01*
G01X-87579Y-1004926D01*
G01X-88443Y-1006602D01*
G01X-88849Y-1014019D01*
G01Y-1020166D01*
G01X-91796D01*
G01Y-979424D01*
G01X-114300D01*
G01Y-1066394D01*
G01X-92253D01*
G01X-92050Y-1061110D01*
G01X-91592Y-1058977D01*
G01X-90983Y-1056640D01*
G01X-90119Y-1054557D01*
G01X-89256Y-1052830D01*
G01X-88189Y-1051357D01*
G01X-86919Y-1049884D01*
G01X-85852Y-1048817D01*
G01X-84836Y-1047953D01*
G01X-81839Y-1046480D01*
G01X-79299Y-1045616D01*
G01X-75082Y-1045210D01*
G01X-71476Y-1045616D01*
G01X-69748Y-1046277D01*
G01X-68478Y-1046886D01*
G01X-67412Y-1047750D01*
G01X-65278Y-1049884D01*
G01X-64008Y-1051357D01*
G01X-62738Y-1053287D01*
G01X-61671Y-1055167D01*
G01X-60858Y-1056894D01*
G01X-59995Y-1058774D01*
G01X-59131Y-1060907D01*
G01X-58318Y-1062838D01*
G01X-57455Y-1064920D01*
G01X-56591Y-1067460D01*
G01X-55778Y-1070254D01*
G01X-54915Y-1072794D01*
G01X-54051Y-1075131D01*
G01X-53442Y-1077214D01*
G01X-52781Y-1078941D01*
G01X-51918Y-1080414D01*
G01X-50444Y-1082091D01*
G01X-48768Y-1083412D01*
G01X-46634Y-1084021D01*
G01X-42824Y-1084224D01*
G01X-39624Y-1083818D01*
G01X-38151Y-1082954D01*
G01X-36017Y-1080821D01*
G01X-35154Y-1079551D01*
G01X-34544Y-1078078D01*
G01X-33884Y-1076198D01*
G01X-33477Y-1074268D01*
G01X-33071Y-1071321D01*
G01X-32868Y-1068984D01*
G01X-33071Y-1066648D01*
G01X-33477Y-1064717D01*
G01X-34138Y-1062584D01*
G01X-34950Y-1060704D01*
G01X-36220Y-1058570D01*
G01X-37490Y-1056894D01*
G01X-38557Y-1055827D01*
G01X-40691Y-1054100D01*
G01X-42164Y-1053033D01*
G01X-44094Y-1052017D01*
G01X-45974Y-1051154D01*
G01X-47498Y-1050290D01*
G01X-48108Y-1049020D01*
G01X-47701Y-1047547D01*
G01X-47041Y-1047039D01*
G01X-45974Y-1046886D01*
G01X-44094Y-1047140D01*
G01X-40691Y-1047547D01*
G01X-36881Y-1047953D01*
G01X-31801Y-1048614D01*
G01X-30277Y-1049020D01*
G01X-30124Y-1049426D01*
G01X-30531Y-1049884D01*
G01X-31344Y-1050950D01*
G01X-32004Y-1052424D01*
G01X-32410Y-1054557D01*
G01X-32207Y-1056437D01*
G01X-31598Y-1058367D01*
G01X-30734Y-1061110D01*
G01X-30074Y-1064514D01*
G01X-29870Y-1070661D01*
G01X-30074Y-1075538D01*
G01X-30531Y-1077214D01*
G01X-31140Y-1079144D01*
G01X-31801Y-1080821D01*
G01X-32410Y-1082345D01*
G01X-33274Y-1083818D01*
G01X-34544Y-1085698D01*
G01X-36017Y-1087222D01*
G01X-37084Y-1088034D01*
G01X-38557Y-1089101D01*
G01X-40894Y-1090168D01*
G01X-43231Y-1090828D01*
G01X-47041Y-1091032D01*
G01X-50648Y-1090625D01*
G01X-52578Y-1089762D01*
G01X-54051Y-1088695D01*
G01X-55118Y-1087831D01*
G01X-56185Y-1086764D01*
G01X-57861Y-1084224D01*
G01X-58725Y-1082548D01*
G01X-60401Y-1078738D01*
G01X-62941Y-1071931D01*
G01X-63602Y-1070000D01*
G01X-64262Y-1068324D01*
G01X-65075Y-1066394D01*
G01X-67615Y-1060044D01*
G01X-68478Y-1058164D01*
G01X-69545Y-1056640D01*
G01X-70409Y-1055624D01*
G01X-71679Y-1054303D01*
G01X-73152Y-1053287D01*
G01X-74625Y-1052627D01*
G01X-76352Y-1052220D01*
G01X-79096Y-1052017D01*
G01X-82042Y-1052424D01*
G01X-83769Y-1053287D01*
G01X-85039Y-1054303D01*
G01X-85852Y-1055370D01*
G01X-86919Y-1056894D01*
G01X-87782Y-1058977D01*
G01X-88646Y-1062380D01*
G01X-89052Y-1065378D01*
G01X-89256Y-1068984D01*
G01X-89052Y-1071321D01*
G01X-88646Y-1074674D01*
G01X-87986Y-1076808D01*
G01X-87173Y-1079144D01*
G01X-86106Y-1081075D01*
G01X-84582Y-1083158D01*
G01X-83109Y-1084682D01*
G01X-82042Y-1085494D01*
G01X-80569Y-1086561D01*
G01X-76759Y-1088492D01*
G01X-74828Y-1089101D01*
G01X-72949Y-1089558D01*
G01X-72085Y-1090371D01*
G01X-71882Y-1091895D01*
G01X-72492Y-1093165D01*
G01X-73762Y-1093368D01*
G01X-78892Y-1092911D01*
G01X-84379Y-1092505D01*
G01X-89459Y-1092098D01*
G01X-91186Y-1091895D01*
G01X-91897Y-1091590D01*
G01X-92050Y-1090828D01*
G01X-91389Y-1089101D01*
G01X-90526Y-1087425D01*
G01X-89916Y-1084885D01*
G01X-89713Y-1082548D01*
G01X-89916Y-1081075D01*
G01X-90526Y-1078941D01*
G01X-91389Y-1076198D01*
G01X-92050Y-1072998D01*
G01X-92253Y-1066394D01*
G01X-114300D01*
G01Y-1137666D01*
G01X-92659D01*
G01X-92456Y-1131976D01*
G01X-91796Y-1129843D01*
G01X-90983Y-1127303D01*
G01X-89916Y-1125372D01*
G01X-88849Y-1123899D01*
G01X-87173Y-1121766D01*
G01X-85039Y-1120089D01*
G01X-83566Y-1118819D01*
G01X-81636Y-1117549D01*
G01X-79705Y-1116482D01*
G01X-76352Y-1114806D01*
G01X-75286Y-1114349D01*
G01X-75082Y-1115416D01*
G01X-74625Y-1117092D01*
G01X-74727Y-1117651D01*
G01X-75489Y-1117956D01*
G01X-77165Y-1118616D01*
G01X-78892Y-1119683D01*
G01X-80975Y-1121156D01*
G01X-83566Y-1123696D01*
G01X-84836Y-1125169D01*
G01X-85852Y-1126896D01*
G01X-86716Y-1128573D01*
G01X-87579Y-1130503D01*
G01X-87986Y-1132180D01*
G01X-88189Y-1133653D01*
G01X-88443Y-1137260D01*
G01X-88189Y-1140866D01*
G01X-87782Y-1142594D01*
G01X-87173Y-1144473D01*
G01X-86309Y-1146404D01*
G01X-85446Y-1147877D01*
G01X-84582Y-1148944D01*
G01X-81432Y-1152093D01*
G01X-79959Y-1153160D01*
G01X-78029Y-1154227D01*
G01X-75692Y-1155090D01*
G01X-72949Y-1155954D01*
G01X-69545Y-1156564D01*
G01X-66142Y-1156970D01*
G01X-62941Y-1157224D01*
G01X-61265D01*
G01Y-1113079D01*
G01X-57658D01*
G01X-53442Y-1113282D01*
G01X-50444Y-1113739D01*
G01X-48565Y-1114146D01*
G01X-46431Y-1114806D01*
G01X-43028Y-1116076D01*
G01X-41097Y-1117092D01*
G01X-39421Y-1118159D01*
G01X-37287Y-1119886D01*
G01X-35611Y-1121969D01*
G01X-34544Y-1123290D01*
G01X-33680Y-1124763D01*
G01X-32614Y-1126439D01*
G01X-31801Y-1128370D01*
G01X-31140Y-1130046D01*
G01X-30531Y-1132383D01*
G01X-30074Y-1134516D01*
G01X-29870Y-1139190D01*
G01X-30074Y-1143864D01*
G01X-30531Y-1145743D01*
G01X-31140Y-1147674D01*
G01X-32410Y-1150620D01*
G01X-33477Y-1152347D01*
G01X-34950Y-1154430D01*
G01X-38557Y-1158037D01*
G01X-40691Y-1159764D01*
G01X-42164Y-1160831D01*
G01X-44094Y-1161898D01*
G01X-47498Y-1163574D01*
G01X-49835Y-1164438D01*
G01X-52375Y-1165047D01*
G01X-54254Y-1165454D01*
G01X-57252Y-1165911D01*
G01X-62332Y-1166114D01*
G01X-67412Y-1165911D01*
G01X-70409Y-1165454D01*
G01X-73762Y-1164641D01*
G01X-75489Y-1163980D01*
G01X-77622Y-1163168D01*
G01X-79299Y-1162304D01*
G01X-80975Y-1161237D01*
G01X-82499Y-1160170D01*
G01X-83566Y-1159307D01*
G01X-85649Y-1157224D01*
G01X-86919Y-1155700D01*
G01X-89459Y-1151890D01*
G01X-90526Y-1149553D01*
G01X-91796Y-1145743D01*
G01X-92456Y-1143610D01*
G01X-92659Y-1137666D01*
G01X-114300D01*
G01Y-1242060D01*
G01X-91796D01*
G01Y-1226972D01*
G01X-91592Y-1211275D01*
G01X-91186Y-1208329D01*
G01X-90526Y-1206195D01*
G01X-89916Y-1203655D01*
G01X-89256Y-1201979D01*
G01X-88443Y-1200048D01*
G01X-87376Y-1197915D01*
G01X-86106Y-1196035D01*
G01X-84582Y-1193902D01*
G01X-79959Y-1189228D01*
G01X-78892Y-1188364D01*
G01X-77368Y-1187552D01*
G01X-75489Y-1186282D01*
G01X-73355Y-1185215D01*
G01X-71476Y-1184351D01*
G01X-69342Y-1183488D01*
G01X-66802Y-1182675D01*
G01X-64262Y-1182014D01*
G01X-62332Y-1181608D01*
G01X-58064Y-1180744D01*
G01X-55118Y-1180338D01*
G01X-50444Y-1179881D01*
G01X-43028Y-1179678D01*
G01X-35611Y-1179881D01*
G01X-31344Y-1180338D01*
G01X-26670Y-1181151D01*
G01X-23317Y-1182014D01*
G01X-21387Y-1182675D01*
G01X-19253Y-1183488D01*
G01X-17374Y-1184351D01*
G01X-15646Y-1185215D01*
G01X-14173Y-1186078D01*
G01X-12497Y-1187094D01*
G01X-10973Y-1188161D01*
G01X-6756Y-1192428D01*
G01X-5486Y-1193902D01*
G01X-2946Y-1197712D01*
G01X-1880Y-1199845D01*
G01X-1016Y-1201979D01*
G01X-203Y-1204316D01*
G01X457Y-1206856D01*
G01X864Y-1208735D01*
G01X1321Y-1211275D01*
G01X1524Y-1227430D01*
G01Y-1241654D01*
G01X-1473D01*
G01Y-1239063D01*
G01X-1626Y-1236929D01*
G01X-2083Y-1235456D01*
G01X-3810Y-1233983D01*
G01X-45568Y-1233576D01*
G01X-76403Y-1233780D01*
G01X-87376Y-1234440D01*
G01X-88189Y-1235507D01*
G01X-88646Y-1237183D01*
G01X-88849Y-1240587D01*
G01Y-1242060D01*
G01X-91796D01*
G01X-114300D01*
G01Y-1244600D01*
G01X26111D01*
G01Y85395D01*
G37*
G36*
G01X-68885Y-216662D02*
G01X-78181Y-216814D01*
G01X-81432Y-217322D01*
G01X-82245Y-218796D01*
G01X-83566Y-220675D01*
G01X-86309Y-226212D01*
G01X-87173Y-228549D01*
G01X-87782Y-230886D01*
G01X-88189Y-233020D01*
G01X-88443Y-234899D01*
G01X-88646Y-236372D01*
G01Y-237642D01*
G01X-88443Y-239573D01*
G01X-87986Y-241706D01*
G01X-87173Y-243586D01*
G01X-86106Y-245110D01*
G01X-85039Y-245923D01*
G01X-83566Y-246990D01*
G01X-81432Y-248056D01*
G01X-78892Y-248920D01*
G01X-75082Y-249326D01*
G01X-72085Y-249123D01*
G01X-70155Y-248463D01*
G01X-68072Y-247396D01*
G01X-66548Y-246380D01*
G01X-63398Y-243180D01*
G01X-62332Y-241706D01*
G01X-61265Y-239776D01*
G01X-60401Y-238100D01*
G01X-59588Y-236169D01*
G01X-58725Y-233629D01*
G01X-57861Y-230886D01*
G01X-57252Y-227889D01*
G01X-56794Y-225806D01*
G01X-55982Y-220675D01*
G01X-55524Y-217729D01*
G01Y-217170D01*
G01X-55982Y-216865D01*
G37*
G36*
G01X-67412Y-560273D02*
G01X-72085Y-560527D01*
G01X-74219Y-560934D01*
G01X-76556Y-561594D01*
G01X-78435Y-562407D01*
G01X-80162Y-563270D01*
G01X-81432Y-564134D01*
G01X-83109Y-565404D01*
G01X-84582Y-567080D01*
G01X-85446Y-568350D01*
G01X-86309Y-569824D01*
G01X-87173Y-571551D01*
G01X-87782Y-573430D01*
G01X-88189Y-575361D01*
G01X-88646Y-577901D01*
G01X-88849Y-585114D01*
G01X-88646Y-590652D01*
G01X-88189Y-591922D01*
G01X-87376Y-593395D01*
G01X-86106Y-594004D01*
G01X-84379Y-594462D01*
G01X-63195Y-594665D01*
G01X-43028D01*
G01Y-587451D01*
G01X-43231Y-579577D01*
G01X-43688Y-575767D01*
G01X-44094Y-574091D01*
G01X-44704Y-572160D01*
G01X-45568Y-570281D01*
G01X-46838Y-568147D01*
G01X-48108Y-566471D01*
G01X-49581Y-565201D01*
G01X-51105Y-564134D01*
G01X-52578Y-563270D01*
G01X-54254Y-562407D01*
G01X-55982Y-561797D01*
G01X-57658Y-561340D01*
G01X-59792Y-560934D01*
G01X-62332Y-560527D01*
G37*
G36*
G01X-20980Y-563677D02*
G01X-25400Y-563880D01*
G01X-27127Y-564337D01*
G01X-29007Y-564947D01*
G01X-30937Y-565810D01*
G01X-32410Y-566674D01*
G01X-33477Y-567487D01*
G01X-35611Y-569620D01*
G01X-36474Y-570687D01*
G01X-37084Y-571754D01*
G01X-37948Y-573227D01*
G01X-38760Y-574954D01*
G01X-39421Y-577037D01*
G01X-39827Y-579171D01*
G01X-40081Y-587045D01*
G01X-39827Y-594462D01*
G01X-22454Y-594665D01*
G01X-4623Y-594462D01*
G01X-3353Y-593801D01*
G01X-2286Y-592328D01*
G01X-1676Y-590194D01*
G01X-1473Y-584708D01*
G01X-1676Y-579577D01*
G01X-2083Y-576631D01*
G01X-2743Y-574700D01*
G01X-3556Y-572364D01*
G01X-4420Y-570687D01*
G01X-5283Y-569417D01*
G01X-7366Y-567284D01*
G01X-8687Y-566217D01*
G01X-10160Y-565404D01*
G01X-11836Y-564744D01*
G01X-13564Y-564337D01*
G01X-15646Y-563880D01*
G37*
G36*
G01X-58318Y-704545D02*
G01X-74016Y-704952D01*
G01X-75895Y-705612D01*
G01X-77622Y-706222D01*
G01X-79299Y-707085D01*
G01X-80772Y-707949D01*
G01X-81839Y-708762D01*
G01X-83566Y-710032D01*
G01X-84836Y-711556D01*
G01X-85446Y-712622D01*
G01X-86309Y-714096D01*
G01X-87173Y-715772D01*
G01X-87782Y-718312D01*
G01X-87986Y-721919D01*
G01X-87782Y-723849D01*
G01X-87579Y-724916D01*
G01X-87173Y-726592D01*
G01X-86309Y-728523D01*
G01X-85242Y-729996D01*
G01X-84379Y-731063D01*
G01X-83109Y-732333D01*
G01X-81636Y-733400D01*
G01X-80162Y-734212D01*
G01X-78435Y-735076D01*
G01X-76759Y-735736D01*
G01X-73355Y-736549D01*
G01X-71222Y-737006D01*
G01X-68275Y-737413D01*
G01X-61265Y-737616D01*
G01X-55524Y-737413D01*
G01X-52578Y-737006D01*
G01X-48768Y-736143D01*
G01X-47041Y-735533D01*
G01X-44958Y-734670D01*
G01X-43231Y-733806D01*
G01X-41554Y-732739D01*
G01X-39421Y-731266D01*
G01X-37744Y-729336D01*
G01X-36678Y-727862D01*
G01X-35814Y-726389D01*
G01X-34950Y-723849D01*
G01X-34544Y-719582D01*
G01X-34747Y-716229D01*
G01X-35154Y-714502D01*
G01X-35814Y-712622D01*
G01X-36678Y-710692D01*
G01X-37948Y-708558D01*
G01X-40488Y-706018D01*
G01X-41554Y-705155D01*
G01X-42824Y-704748D01*
G37*
G36*
G01X-57861Y-772414D02*
G01X-57861Y-789584D01*
G01X-57658Y-807009D01*
G01X-55524Y-807212D01*
G01X-52984Y-807009D01*
G01X-50038Y-806552D01*
G01X-48311Y-806145D01*
G01X-46431Y-805485D01*
G01X-44704Y-804875D01*
G01X-43231Y-804215D01*
G01X-41554Y-803199D01*
G01X-40081Y-802132D01*
G01X-39014Y-801268D01*
G01X-37948Y-800202D01*
G01X-36678Y-798525D01*
G01X-35408Y-796392D01*
G01X-34544Y-794461D01*
G01X-33884Y-792124D01*
G01X-33477Y-789178D01*
G01Y-787044D01*
G01X-33680Y-785571D01*
G01X-34138Y-783895D01*
G01X-34950Y-781964D01*
G01X-36220Y-779831D01*
G01X-38760Y-777291D01*
G01X-40081Y-776224D01*
G01X-41554Y-775411D01*
G01X-43231Y-774548D01*
G01X-45568Y-773684D01*
G01X-48768Y-773074D01*
G01X-51308Y-772617D01*
G01X-54915Y-772414D01*
G37*
G36*
G01X-98196Y-910285D02*
G01X-101143Y-910742D01*
G01X-102870Y-911555D01*
G01X-104140Y-912622D01*
G01X-105156Y-913689D01*
G01X-106020Y-914756D01*
G01X-106680Y-916026D01*
G01X-107493Y-917956D01*
G01X-108356Y-920496D01*
G01X-109017Y-923646D01*
G01X-109423Y-927456D01*
G01X-109626Y-931316D01*
G01X-109423Y-933399D01*
G01X-109220Y-935330D01*
G01X-109017Y-937666D01*
G01X-108560Y-939343D01*
G01X-107950Y-941273D01*
G01X-107086Y-942950D01*
G01X-105816Y-944880D01*
G01X-104546Y-946556D01*
G01X-103276Y-947623D01*
G01X-101549Y-948690D01*
G01X-99263Y-949554D01*
G01X-95656Y-949757D01*
G01X-92659Y-949350D01*
G01X-90780Y-948487D01*
G01X-89256Y-947420D01*
G01X-88189Y-946353D01*
G01X-86919Y-944880D01*
G01X-85852Y-943153D01*
G01X-85242Y-941476D01*
G01X-85039Y-939546D01*
G01X-85242Y-938073D01*
G01X-86106Y-931316D01*
G01X-86512Y-927049D01*
G01X-87376Y-921969D01*
G01X-88189Y-917296D01*
G01X-88646Y-915619D01*
G01X-89256Y-913892D01*
G01X-90119Y-912622D01*
G01X-91592Y-911555D01*
G01X-93320Y-910946D01*
G01X-94996Y-910488D01*
G37*
G36*
G01X-51714Y-917499D02*
G01X-56388Y-917702D01*
G01X-58318Y-918362D01*
G01X-60198Y-919226D01*
G01X-61671Y-920039D01*
G01X-62941Y-921106D01*
G01X-64008Y-922172D01*
G01X-64872Y-923442D01*
G01X-65532Y-924916D01*
G01X-66142Y-926846D01*
G01X-66548Y-928776D01*
G01X-66802Y-931723D01*
G01X-66548Y-934263D01*
G01X-66345Y-935330D01*
G01X-65938Y-936803D01*
G01X-65075Y-938530D01*
G01X-64008Y-940003D01*
G01X-62941Y-941070D01*
G01X-61671Y-942137D01*
G01X-59995Y-943153D01*
G01X-57861Y-944220D01*
G01X-55118Y-945083D01*
G01X-50038Y-945490D01*
G01X-45771Y-945286D01*
G01X-43891Y-944880D01*
G01X-41758Y-944220D01*
G01X-40081Y-943407D01*
G01X-38151Y-942137D01*
G01X-36678Y-940613D01*
G01X-35611Y-939140D01*
G01X-34544Y-937006D01*
G01X-33680Y-934263D01*
G01X-33274Y-931062D01*
G01X-33477Y-928776D01*
G01X-33884Y-927049D01*
G01X-34544Y-925373D01*
G01X-35611Y-923646D01*
G01X-36881Y-922172D01*
G01X-37948Y-921106D01*
G01X-39421Y-920039D01*
G01X-41097Y-919226D01*
G01X-43231Y-918362D01*
G01X-46228Y-917702D01*
G37*
G36*
G01X-57861Y-1122426D02*
G01X-57861Y-1139596D01*
G01X-57658Y-1156970D01*
G01X-55524Y-1157224D01*
G01X-52984Y-1156970D01*
G01X-50038Y-1156564D01*
G01X-48311Y-1156157D01*
G01X-46431Y-1155497D01*
G01X-44704Y-1154887D01*
G01X-43231Y-1154227D01*
G01X-41554Y-1153160D01*
G01X-40081Y-1152093D01*
G01X-39014Y-1151280D01*
G01X-37948Y-1150214D01*
G01X-36678Y-1148486D01*
G01X-35408Y-1146404D01*
G01X-34544Y-1144473D01*
G01X-33884Y-1142136D01*
G01X-33477Y-1139190D01*
G01Y-1137056D01*
G01X-33680Y-1135583D01*
G01X-34138Y-1133856D01*
G01X-34950Y-1131976D01*
G01X-36220Y-1129843D01*
G01X-38760Y-1127303D01*
G01X-40081Y-1126236D01*
G01X-41554Y-1125372D01*
G01X-43231Y-1124560D01*
G01X-45568Y-1123696D01*
G01X-48768Y-1123036D01*
G01X-51308Y-1122629D01*
G01X-54915Y-1122426D01*
G37*
G36*
G01X-45161Y-1190295D02*
G01X-53848Y-1190498D01*
G01X-58928Y-1190955D01*
G01X-61925Y-1191362D01*
G01X-66548Y-1192225D01*
G01X-68682Y-1192835D01*
G01X-71476Y-1193698D01*
G01X-73558Y-1194562D01*
G01X-75489Y-1195375D01*
G01X-76962Y-1196238D01*
G01X-78029Y-1197102D01*
G01X-79705Y-1198372D01*
G01X-82245Y-1200912D01*
G01X-83109Y-1201979D01*
G01X-83769Y-1203046D01*
G01X-84836Y-1204519D01*
G01X-86716Y-1208329D01*
G01X-87376Y-1210005D01*
G01X-88189Y-1213409D01*
G01X-88646Y-1216406D01*
G01X-88443Y-1220419D01*
G01X-87376Y-1223162D01*
G01X-85446Y-1224229D01*
G01X-44704Y-1224636D01*
G01X-14884Y-1224483D01*
G01X-4216Y-1224026D01*
G01X-2743Y-1222553D01*
G01X-2083Y-1220622D01*
G01X-1676Y-1218489D01*
G01X-1473Y-1215746D01*
G01X-1676Y-1213409D01*
G01X-2083Y-1211072D01*
G01X-2743Y-1208532D01*
G01X-3556Y-1206398D01*
G01X-4623Y-1204316D01*
G01X-5690Y-1202792D01*
G01X-6960Y-1201115D01*
G01X-9500Y-1198575D01*
G01X-10566Y-1197712D01*
G01X-11633Y-1197102D01*
G01X-12903Y-1196238D01*
G01X-14376Y-1195375D01*
G01X-16307Y-1194562D01*
G01X-18440Y-1193698D01*
G01X-20523Y-1193038D01*
G01X-22454Y-1192632D01*
G01X-24587Y-1191971D01*
G01X-26924Y-1191565D01*
G01X-28397Y-1191362D01*
G01X-31801Y-1190955D01*
G01X-36474Y-1190498D01*
G37*
G36*
G01X-342900Y-444602D02*
G01X-342900Y-448818D01*
G01X-311404D01*
G01X-307137D01*
G01Y-450952D01*
G01X-306222Y-454609D01*
G01X-304698Y-457048D01*
G01X-303225Y-458216D01*
G01X-301396Y-459130D01*
G01X-298958Y-460045D01*
G01X-296520Y-460654D01*
G01X-291084Y-461874D01*
G01X-288036Y-462788D01*
G01X-284124Y-463702D01*
G01X-275946Y-465531D01*
G01X-272898Y-466395D01*
G01X-268935Y-467309D01*
G01X-266243Y-467919D01*
G01X-260198Y-469443D01*
G01X-256235Y-470357D01*
G01X-253492Y-470967D01*
G01X-250495Y-471881D01*
G01X-246228Y-472796D01*
G01X-243180Y-473405D01*
G01X-240182Y-474320D01*
G01X-236220Y-475183D01*
G01X-228041Y-477012D01*
G01X-225044Y-477926D01*
G01X-221082Y-478841D01*
G01X-212903Y-480670D01*
G01X-209855Y-481584D01*
G01X-205943Y-482498D01*
G01X-197764Y-484276D01*
G01X-194716Y-485191D01*
G01X-190754Y-486105D01*
G01X-182575Y-487934D01*
G01X-179578Y-488848D01*
G01X-176225Y-489763D01*
G01X-175412Y-490423D01*
G01X-175311Y-491896D01*
G01X-176225Y-494894D01*
G01X-178664Y-500939D01*
G01X-179578Y-501955D01*
G01X-181102Y-502463D01*
G01X-183794Y-503072D01*
G01X-186842Y-503987D01*
G01X-190754Y-504901D01*
G01X-193497Y-505511D01*
G01X-196545Y-506425D01*
G01X-200762Y-507644D01*
G01X-204724Y-508559D01*
G01X-207467Y-509168D01*
G01X-210464Y-510032D01*
G01X-214427Y-510946D01*
G01X-217119Y-511556D01*
G01X-220167Y-512470D01*
G01X-224130Y-513385D01*
G01X-227127Y-514299D01*
G01X-230480Y-515214D01*
G01X-233528Y-515823D01*
G01X-236525Y-516738D01*
G01X-240487Y-517652D01*
G01X-243180Y-518211D01*
G01X-246228Y-519125D01*
G01X-250190Y-520040D01*
G01X-252882Y-520649D01*
G01X-255930Y-521564D01*
G01X-260198Y-522783D01*
G01X-264109Y-523697D01*
G01X-266852Y-524307D01*
G01X-269850Y-525221D01*
G01X-273812Y-526136D01*
G01X-276555Y-526745D01*
G01X-279552Y-527609D01*
G01X-283515Y-528523D01*
G01X-286512Y-529438D01*
G01X-289865Y-530352D01*
G01X-292913Y-530962D01*
G01X-295910Y-531876D01*
G01X-299872Y-532790D01*
G01X-302616Y-533705D01*
G01X-304394Y-534924D01*
G01X-305613Y-536397D01*
G01X-306527Y-538531D01*
G01X-307137Y-541579D01*
G01Y-543408D01*
G01X-311404D01*
G01Y-514299D01*
G01X-307137D01*
G01Y-516738D01*
G01X-306527Y-520344D01*
G01X-305308Y-522173D01*
G01X-303225Y-523392D01*
G01X-298958Y-524307D01*
G01X-294132D01*
G01X-285648Y-522478D01*
G01X-282600Y-521868D01*
G01X-279552Y-520954D01*
G01X-275641Y-520040D01*
G01X-267462Y-518211D01*
G01X-264414Y-517347D01*
G01X-262738Y-516636D01*
G01X-261976Y-515823D01*
G01X-261671Y-498246D01*
G01X-261976Y-485750D01*
G01X-262890Y-481584D01*
G01X-265024Y-481279D01*
G01X-268072Y-480365D01*
G01X-272288Y-479450D01*
G01X-275336Y-478841D01*
G01X-280772Y-477622D01*
G01X-286817Y-476098D01*
G01X-291084Y-475183D01*
G01X-294132Y-474624D01*
G01X-296520Y-474015D01*
G01X-299568Y-473405D01*
G01X-302311Y-473100D01*
G01X-305003Y-474015D01*
G01X-306222Y-475336D01*
G01X-306832Y-477622D01*
G01X-307137Y-481584D01*
G01X-307696Y-482498D01*
G01X-309270Y-482803D01*
G01X-311404D01*
G01Y-448818D01*
G01X-342900D01*
G01Y-596138D01*
G01X-312572D01*
G01X-312318Y-587350D01*
G01X-311099Y-581863D01*
G01X-310185Y-579425D01*
G01X-308966Y-576428D01*
G01X-307442Y-573684D01*
G01X-305613Y-570941D01*
G01X-303784Y-568858D01*
G01X-301396Y-565810D01*
G01X-298958Y-563982D01*
G01X-296215Y-561848D01*
G01X-293522Y-560375D01*
G01X-291084Y-559156D01*
G01X-288646Y-558241D01*
G01X-286258Y-557632D01*
G01X-283210Y-557022D01*
G01X-276250Y-556717D01*
G01X-270459Y-557022D01*
G01X-267462Y-557936D01*
G01X-263804Y-559156D01*
G01X-261366Y-560375D01*
G01X-259283Y-561594D01*
G01X-256540Y-563372D01*
G01X-254102Y-565201D01*
G01X-248056Y-571246D01*
G01X-246837Y-572770D01*
G01X-245923Y-574294D01*
G01X-244704Y-575818D01*
G01X-243180Y-577952D01*
G01X-241706Y-580339D01*
G01X-240995Y-581203D01*
G01X-240182Y-581254D01*
G01X-238963Y-579730D01*
G01X-237744Y-577342D01*
G01X-236220Y-574904D01*
G01X-235001Y-573075D01*
G01X-233832Y-571551D01*
G01X-232004Y-569163D01*
G01X-229870Y-567030D01*
G01X-227432Y-565201D01*
G01X-224739Y-563067D01*
G01X-221996Y-561594D01*
G01X-219558Y-560375D01*
G01X-216814Y-559460D01*
G01X-214122Y-558851D01*
G01X-211074Y-558241D01*
G01X-206858Y-557936D01*
G01X-203810Y-558241D01*
G01X-201066Y-558851D01*
G01X-198069Y-559765D01*
G01X-195326Y-560984D01*
G01X-192583Y-562458D01*
G01X-190500Y-563982D01*
G01X-187452Y-566420D01*
G01X-183794Y-570636D01*
G01X-182575Y-572465D01*
G01X-181712Y-574294D01*
G01X-180492Y-576428D01*
G01X-179273Y-579120D01*
G01X-178359Y-582168D01*
G01X-177749Y-584911D01*
G01X-177140Y-587908D01*
G01X-176835Y-596697D01*
G01X-177140Y-604317D01*
G01X-178359Y-609752D01*
G01X-179273Y-612496D01*
G01X-180492Y-615188D01*
G01X-181712Y-617322D01*
G01X-183185Y-619760D01*
G01X-184709Y-621894D01*
G01X-187757Y-624891D01*
G01X-189890Y-626720D01*
G01X-191973Y-628244D01*
G01X-194107Y-629463D01*
G01X-196545Y-630682D01*
G01X-199288Y-631850D01*
G01X-203810Y-632765D01*
G01X-210464Y-633070D01*
G01X-215341Y-632765D01*
G01X-218034Y-631850D01*
G01X-221386Y-630682D01*
G01X-223825Y-629463D01*
G01X-226212Y-627939D01*
G01X-228346Y-626110D01*
G01X-231394Y-623672D01*
G01X-235001Y-619150D01*
G01X-236525Y-617017D01*
G01X-238049Y-614578D01*
G01X-239573Y-612496D01*
G01X-240487Y-611886D01*
G01X-241402Y-612496D01*
G01X-243180Y-615188D01*
G01X-245313Y-618236D01*
G01X-247142Y-620674D01*
G01X-248666Y-622198D01*
G01X-249885Y-623672D01*
G01X-251663Y-625500D01*
G01X-253797Y-627329D01*
G01X-255626Y-628853D01*
G01X-259283Y-631292D01*
G01X-261366Y-632460D01*
G01X-263500Y-633374D01*
G01X-265938Y-634289D01*
G01X-269240Y-635203D01*
G01X-272288Y-635813D01*
G01X-278333Y-636422D01*
G01X-281991D01*
G01X-286817Y-635508D01*
G01X-290474Y-634289D01*
G01X-292913Y-633070D01*
G01X-295300Y-631546D01*
G01X-297434Y-629768D01*
G01X-300482Y-627329D01*
G01X-304089Y-622757D01*
G01X-305613Y-620674D01*
G01X-307137Y-618236D01*
G01X-309575Y-613410D01*
G01X-310490Y-610972D01*
G01X-311099Y-608533D01*
G01X-312014Y-605790D01*
G01X-312572Y-596138D01*
G01X-342900D01*
G01Y-696722D01*
G01X-312572D01*
G01X-312318Y-687934D01*
G01X-311709Y-685190D01*
G01X-310794Y-682193D01*
G01X-309880Y-679755D01*
G01X-308966Y-677621D01*
G01X-307746Y-675488D01*
G01X-306222Y-673100D01*
G01X-304698Y-670966D01*
G01X-303225Y-669442D01*
G01X-300177Y-667004D01*
G01X-298044Y-665531D01*
G01X-295300Y-663702D01*
G01X-292303Y-662178D01*
G01X-289255Y-660959D01*
G01X-285648Y-659740D01*
G01X-281381Y-658825D01*
G01X-278333Y-658216D01*
G01X-274117Y-657606D01*
G01X-266548Y-657352D01*
G01X-258978Y-657606D01*
G01X-254711Y-658216D01*
G01X-251968Y-658825D01*
G01X-248971Y-659740D01*
G01X-245923Y-660959D01*
G01X-243180Y-662178D01*
G01X-240792Y-663702D01*
G01X-237744Y-665836D01*
G01X-234696Y-668223D01*
G01X-232918Y-670357D01*
G01X-230480Y-673405D01*
G01X-228346Y-677621D01*
G01X-227127Y-680364D01*
G01X-226212Y-684276D01*
G01X-225603Y-687934D01*
G01X-225349Y-692201D01*
G01X-225603Y-696417D01*
G01X-226212Y-701243D01*
G01X-227127Y-704291D01*
G01X-228346Y-707949D01*
G01X-229565Y-710336D01*
G01X-230784Y-712165D01*
G01X-233223Y-715213D01*
G01X-236830Y-718261D01*
G01X-238049Y-719734D01*
G01X-238303Y-720293D01*
G01X-237744Y-720649D01*
G01X-233528Y-720954D01*
G01X-229260Y-720649D01*
G01X-219558Y-720039D01*
G01X-209245Y-719430D01*
G01X-199542Y-718820D01*
G01X-194412Y-718515D01*
G01X-190195D01*
G01X-189890Y-717042D01*
G01X-189586Y-688848D01*
G01Y-662178D01*
G01X-181966Y-660654D01*
G01X-179273Y-660044D01*
G01X-178054Y-659740D01*
G01Y-724002D01*
G01X-181102D01*
G01X-185014Y-724306D01*
G01X-206858Y-725526D01*
G01X-218338Y-726135D01*
G01X-240182Y-727304D01*
G01X-245008Y-727608D01*
G01X-248971D01*
G01Y-725526D01*
G01X-249276Y-722478D01*
G01Y-720954D01*
G01X-247447Y-719430D01*
G01X-245008Y-717956D01*
G01X-242621Y-716128D01*
G01X-240182Y-713994D01*
G01X-238658Y-712165D01*
G01X-237439Y-710641D01*
G01X-236220Y-708558D01*
G01X-235001Y-705815D01*
G01X-234137Y-702158D01*
G01X-233528Y-698856D01*
G01X-233223Y-693674D01*
G01X-233528Y-688543D01*
G01X-234391Y-686105D01*
G01X-235610Y-683666D01*
G01X-236830Y-681888D01*
G01X-239878Y-678840D01*
G01X-241402Y-677621D01*
G01X-248056Y-674319D01*
G01X-250495Y-673405D01*
G01X-252882Y-672795D01*
G01X-258978Y-671576D01*
G01X-265024Y-670966D01*
G01X-269545Y-670662D01*
G01X-274117Y-670966D01*
G01X-280772Y-671576D01*
G01X-286817Y-672795D01*
G01X-289560Y-673710D01*
G01X-292913Y-674878D01*
G01X-295300Y-676097D01*
G01X-297739Y-677621D01*
G01X-299872Y-679450D01*
G01X-302920Y-682498D01*
G01X-304089Y-684276D01*
G01X-305308Y-686714D01*
G01X-306222Y-689153D01*
G01X-306832Y-691591D01*
G01X-307442Y-695808D01*
G01Y-699465D01*
G01X-306832Y-704901D01*
G01X-306222Y-707339D01*
G01X-305308Y-710032D01*
G01X-304394Y-712470D01*
G01X-302920Y-715213D01*
G01X-300177Y-717956D01*
G01X-296520Y-719430D01*
G01X-292608D01*
G01X-289255Y-717956D01*
G01X-286258Y-716128D01*
G01X-282600Y-715213D01*
G01X-278638Y-715518D01*
G01X-275336Y-717347D01*
G01X-274117Y-718769D01*
G01X-273507Y-720649D01*
G01X-273202Y-724611D01*
G01X-273812Y-727304D01*
G01X-275031Y-729132D01*
G01X-277165Y-730961D01*
G01X-280467Y-732485D01*
G01X-285953Y-733095D01*
G01X-290474Y-732790D01*
G01X-292913Y-731876D01*
G01X-295605Y-730656D01*
G01X-298348Y-728828D01*
G01X-301092Y-726440D01*
G01X-302920Y-724306D01*
G01X-305308Y-721258D01*
G01X-306527Y-719430D01*
G01X-308051Y-717042D01*
G01X-309270Y-714299D01*
G01X-310185Y-712165D01*
G01X-311099Y-709473D01*
G01X-311709Y-706730D01*
G01X-312318Y-705206D01*
G01X-312572Y-696722D01*
G01X-342900D01*
G01Y-793090D01*
G01X-312572D01*
G01X-312318Y-784911D01*
G01X-311404Y-781863D01*
G01X-310185Y-778561D01*
G01X-308966Y-775818D01*
G01X-307746Y-773684D01*
G01X-306222Y-771550D01*
G01X-304394Y-769468D01*
G01X-302920Y-767639D01*
G01X-300787Y-765505D01*
G01X-298653Y-763676D01*
G01X-297129Y-762457D01*
G01X-295300Y-761594D01*
G01X-293218Y-760374D01*
G01X-287731Y-757936D01*
G01X-284429Y-757022D01*
G01X-278333Y-755802D01*
G01X-273507Y-755193D01*
G01X-265938Y-754888D01*
G01X-260198Y-755193D01*
G01X-255930Y-755802D01*
G01X-252882Y-756717D01*
G01X-248971Y-757936D01*
G01X-245923Y-759155D01*
G01X-243484Y-760374D01*
G01X-241402Y-761594D01*
G01X-238963Y-763067D01*
G01X-236830Y-764591D01*
G01X-235306Y-765810D01*
G01X-233528Y-767944D01*
G01X-232004Y-770077D01*
G01X-230784Y-772160D01*
G01X-229565Y-774598D01*
G01X-228346Y-777646D01*
G01X-227432Y-781863D01*
G01X-226822Y-785520D01*
G01X-226517Y-790956D01*
G01X-226822Y-795833D01*
G01X-227432Y-798525D01*
G01X-228346Y-801573D01*
G01X-229565Y-804316D01*
G01X-230784Y-806704D01*
G01X-232308Y-809142D01*
G01X-234137Y-811276D01*
G01X-235306Y-812800D01*
G01X-236830Y-814273D01*
G01X-238658Y-815797D01*
G01X-240182Y-817016D01*
G01X-242316Y-818236D01*
G01X-243789Y-819760D01*
G01X-242316Y-820217D01*
G01X-237134Y-820369D01*
G01X-229260Y-820064D01*
G01X-221386Y-819455D01*
G01X-216560Y-818845D01*
G01X-209245Y-817626D01*
G01X-206248Y-816712D01*
G01X-202286Y-815492D01*
G01X-199288Y-814273D01*
G01X-196850Y-813105D01*
G01X-194107Y-811276D01*
G01X-191059Y-808838D01*
G01X-188671Y-806094D01*
G01X-185623Y-801878D01*
G01X-184099Y-798830D01*
G01X-182880Y-795223D01*
G01X-182270Y-791566D01*
G01X-181966Y-789127D01*
G01Y-785520D01*
G01X-183185Y-781253D01*
G01X-185623Y-778866D01*
G01X-190195Y-777951D01*
G01X-194107Y-778256D01*
G01X-196545Y-778561D01*
G01X-199542Y-777646D01*
G01X-201981Y-775208D01*
G01X-202692Y-773227D01*
G01X-202895Y-770382D01*
G01X-202692Y-767486D01*
G01X-201981Y-765505D01*
G01X-199542Y-763372D01*
G01X-197155Y-762457D01*
G01X-193497Y-762152D01*
G01X-189890Y-762762D01*
G01X-187452Y-764286D01*
G01X-185318Y-766115D01*
G01X-182270Y-769163D01*
G01X-180797Y-771246D01*
G01X-179273Y-773989D01*
G01X-178054Y-776732D01*
G01X-177140Y-780644D01*
G01X-176835Y-788518D01*
G01X-177140Y-794614D01*
G01X-177749Y-797306D01*
G01X-178664Y-800354D01*
G01X-180492Y-805231D01*
G01X-181966Y-807923D01*
G01X-183794Y-810971D01*
G01X-185623Y-813105D01*
G01X-188062Y-816102D01*
G01X-189586Y-817626D01*
G01X-194107Y-821284D01*
G01X-195631Y-822198D01*
G01X-197764Y-823671D01*
G01X-200762Y-825500D01*
G01X-203810Y-827024D01*
G01X-206858Y-828243D01*
G01X-209550Y-829462D01*
G01X-212293Y-830377D01*
G01X-214732Y-830986D01*
G01X-217424Y-831850D01*
G01X-221691Y-832764D01*
G01X-225044Y-833374D01*
G01X-228041Y-833984D01*
G01X-232308Y-834593D01*
G01X-236220Y-834898D01*
G01X-238963Y-835203D01*
G01X-251104Y-835508D01*
G01X-263195Y-835203D01*
G01X-268681Y-834593D01*
G01X-272898Y-833984D01*
G01X-278943Y-832764D01*
G01X-285344Y-830682D01*
G01X-288341Y-829462D01*
G01X-291084Y-828243D01*
G01X-293827Y-826719D01*
G01X-296215Y-825195D01*
G01X-298044Y-823976D01*
G01X-299568Y-822757D01*
G01X-304089Y-818236D01*
G01X-305308Y-816712D01*
G01X-306832Y-814578D01*
G01X-308661Y-811581D01*
G01X-309880Y-808838D01*
G01X-310794Y-806399D01*
G01X-311709Y-803097D01*
G01X-312318Y-800659D01*
G01X-312572Y-793090D01*
G01X-342900D01*
G01Y-896112D01*
G01X-312572D01*
G01X-312318Y-887324D01*
G01X-311099Y-881888D01*
G01X-310185Y-879450D01*
G01X-308966Y-876402D01*
G01X-307442Y-873709D01*
G01X-305613Y-870966D01*
G01X-303784Y-868832D01*
G01X-301396Y-865835D01*
G01X-298958Y-864006D01*
G01X-296215Y-861873D01*
G01X-293522Y-860349D01*
G01X-291084Y-859130D01*
G01X-288646Y-858215D01*
G01X-286258Y-857606D01*
G01X-283210Y-857047D01*
G01X-276250Y-856742D01*
G01X-270459Y-857047D01*
G01X-267462Y-857910D01*
G01X-263804Y-859130D01*
G01X-261366Y-860349D01*
G01X-259283Y-861568D01*
G01X-256540Y-863397D01*
G01X-254102Y-865226D01*
G01X-248056Y-871271D01*
G01X-246837Y-872795D01*
G01X-245923Y-874319D01*
G01X-244704Y-875792D01*
G01X-243180Y-877926D01*
G01X-241706Y-880364D01*
G01X-240995Y-881177D01*
G01X-240182Y-881278D01*
G01X-238963Y-879754D01*
G01X-237744Y-877316D01*
G01X-236220Y-874878D01*
G01X-235001Y-873100D01*
G01X-233832Y-871576D01*
G01X-232004Y-869137D01*
G01X-229870Y-867004D01*
G01X-227432Y-865226D01*
G01X-224739Y-863092D01*
G01X-221996Y-861568D01*
G01X-219558Y-860349D01*
G01X-216814Y-859434D01*
G01X-214122Y-858825D01*
G01X-211074Y-858215D01*
G01X-206858Y-857910D01*
G01X-203810Y-858215D01*
G01X-201066Y-858825D01*
G01X-198069Y-859739D01*
G01X-195326Y-860958D01*
G01X-192583Y-862482D01*
G01X-190500Y-864006D01*
G01X-187452Y-866394D01*
G01X-183794Y-870661D01*
G01X-182575Y-872490D01*
G01X-181712Y-874319D01*
G01X-180492Y-876402D01*
G01X-179273Y-879145D01*
G01X-178359Y-882193D01*
G01X-177749Y-884885D01*
G01X-177140Y-887933D01*
G01X-176835Y-896722D01*
G01X-177140Y-904291D01*
G01X-178359Y-909726D01*
G01X-179273Y-912470D01*
G01X-180492Y-915213D01*
G01X-181712Y-917346D01*
G01X-183185Y-919734D01*
G01X-184709Y-921868D01*
G01X-187757Y-924916D01*
G01X-189890Y-926744D01*
G01X-191973Y-928218D01*
G01X-194107Y-929437D01*
G01X-196545Y-930656D01*
G01X-199288Y-931875D01*
G01X-203810Y-932790D01*
G01X-210464Y-933094D01*
G01X-215341Y-932790D01*
G01X-218034Y-931875D01*
G01X-221386Y-930656D01*
G01X-223825Y-929437D01*
G01X-226212Y-927913D01*
G01X-228346Y-926135D01*
G01X-231394Y-923696D01*
G01X-235001Y-919124D01*
G01X-236525Y-917042D01*
G01X-238049Y-914603D01*
G01X-239573Y-912470D01*
G01X-240487Y-911860D01*
G01X-241402Y-912470D01*
G01X-243180Y-915213D01*
G01X-245313Y-918261D01*
G01X-247142Y-920648D01*
G01X-248666Y-922172D01*
G01X-249885Y-923696D01*
G01X-251663Y-925525D01*
G01X-255626Y-928827D01*
G01X-259283Y-931266D01*
G01X-261366Y-932485D01*
G01X-263500Y-933399D01*
G01X-265938Y-934314D01*
G01X-269240Y-935228D01*
G01X-272288Y-935787D01*
G01X-278333Y-936396D01*
G01X-281991D01*
G01X-286817Y-935533D01*
G01X-290474Y-934314D01*
G01X-292913Y-933094D01*
G01X-295300Y-931570D01*
G01X-297434Y-929742D01*
G01X-300482Y-927303D01*
G01X-304089Y-922782D01*
G01X-305613Y-920648D01*
G01X-307137Y-918261D01*
G01X-309575Y-913384D01*
G01X-310490Y-910946D01*
G01X-311099Y-908558D01*
G01X-312014Y-905815D01*
G01X-312572Y-896112D01*
G01X-342900D01*
G01Y-963371D01*
G01X-311404D01*
G01X-307137D01*
G01Y-973379D01*
G01X-306527Y-984606D01*
G01X-305308Y-986739D01*
G01X-302616Y-987958D01*
G01X-243180Y-988212D01*
G01X-199949Y-987958D01*
G01X-184709Y-987044D01*
G01X-182880Y-983996D01*
G01X-182270Y-972769D01*
G01Y-963371D01*
G01X-178054D01*
G01Y-1026414D01*
G01X-182270D01*
G01Y-1016102D01*
G01X-182880Y-1004621D01*
G01X-184709Y-1002487D01*
G01X-200406Y-1001776D01*
G01X-245008Y-1001573D01*
G01X-304698Y-1002182D01*
G01X-305918Y-1003706D01*
G01X-306832Y-1006704D01*
G01X-307137Y-1017626D01*
G01Y-1026414D01*
G01X-311404D01*
G01Y-963371D01*
G01X-342900D01*
G01Y-1047039D01*
G01X-311404D01*
G01X-307137D01*
G01Y-1049731D01*
G01X-306222Y-1053998D01*
G01X-303784Y-1056437D01*
G01X-288188Y-1057097D01*
G01X-244399Y-1057351D01*
G01X-200609Y-1057046D01*
G01X-185014Y-1056132D01*
G01X-182880Y-1053084D01*
G01X-182270Y-1049122D01*
G01Y-1047039D01*
G01X-178054D01*
G01Y-1072490D01*
G01X-180188Y-1072794D01*
G01X-183185Y-1073404D01*
G01X-186233Y-1074318D01*
G01X-190500Y-1075182D01*
G01X-193497Y-1075792D01*
G01X-199542Y-1077316D01*
G01X-203810Y-1078230D01*
G01X-206858Y-1078840D01*
G01X-209855Y-1079754D01*
G01X-214122Y-1080668D01*
G01X-217119Y-1081278D01*
G01X-220167Y-1082192D01*
G01X-224434Y-1083107D01*
G01X-227432Y-1083666D01*
G01X-233528Y-1085190D01*
G01X-237744Y-1086104D01*
G01X-240792Y-1086714D01*
G01X-243789Y-1087628D01*
G01X-248056Y-1088542D01*
G01X-251104Y-1089152D01*
G01X-257150Y-1090676D01*
G01X-261366Y-1091590D01*
G01X-264414Y-1092200D01*
G01X-267462Y-1093064D01*
G01X-271678Y-1093978D01*
G01X-274726Y-1094588D01*
G01X-277724Y-1095502D01*
G01X-281076Y-1096416D01*
G01X-281940Y-1096772D01*
G01X-281991Y-1097331D01*
G01X-279857Y-1098245D01*
G01X-277165Y-1098855D01*
G01X-271069Y-1100074D01*
G01X-265024Y-1101547D01*
G01X-260452Y-1102462D01*
G01X-257150Y-1103071D01*
G01X-254711Y-1103681D01*
G01X-251663Y-1104290D01*
G01X-248056Y-1105205D01*
G01X-243789Y-1106119D01*
G01X-234696Y-1107948D01*
G01X-232308Y-1108558D01*
G01X-229260Y-1109167D01*
G01X-225603Y-1110031D01*
G01X-221386Y-1110945D01*
G01X-212293Y-1112774D01*
G01X-206248Y-1114298D01*
G01X-201676Y-1115212D01*
G01X-198374Y-1115822D01*
G01X-195936Y-1116432D01*
G01X-192888Y-1117041D01*
G01X-189281Y-1117956D01*
G01X-185014Y-1118819D01*
G01X-181966Y-1119429D01*
G01X-179578Y-1120038D01*
G01X-178054Y-1120343D01*
G01Y-1143406D01*
G01X-182270D01*
G01Y-1140663D01*
G01X-182880Y-1136701D01*
G01X-184099Y-1134923D01*
G01X-186538Y-1133704D01*
G01X-245313Y-1133094D01*
G01X-303530Y-1133704D01*
G01X-305308Y-1134923D01*
G01X-306527Y-1137310D01*
G01X-307137Y-1140968D01*
G01Y-1142797D01*
G01X-311404D01*
G01Y-1119124D01*
G01X-307137D01*
G01Y-1121258D01*
G01X-306527Y-1124610D01*
G01X-305308Y-1126744D01*
G01X-302616Y-1127912D01*
G01X-250495Y-1128217D01*
G01X-213055Y-1128065D01*
G01X-200762Y-1127608D01*
G01X-202590Y-1126744D01*
G01X-206248Y-1125830D01*
G01X-210769Y-1124915D01*
G01X-214122Y-1124306D01*
G01X-220167Y-1122782D01*
G01X-224739Y-1121867D01*
G01X-228041Y-1121258D01*
G01X-234137Y-1119734D01*
G01X-238658Y-1118819D01*
G01X-242011Y-1118260D01*
G01X-248056Y-1116736D01*
G01X-252578Y-1115822D01*
G01X-255930Y-1115212D01*
G01X-261976Y-1113688D01*
G01X-266548Y-1112774D01*
G01X-269850Y-1112164D01*
G01X-275946Y-1110640D01*
G01X-280467Y-1109777D01*
G01X-283820Y-1109167D01*
G01X-289865Y-1107643D01*
G01X-294437Y-1106729D01*
G01X-297739Y-1106119D01*
G01X-303784Y-1104595D01*
G01X-308356Y-1103681D01*
G01X-310236Y-1103071D01*
G01X-311099Y-1101852D01*
G01X-311404Y-1099160D01*
G01X-310845Y-1098093D01*
G01X-309270Y-1097331D01*
G01X-305003Y-1096416D01*
G01X-302006Y-1095807D01*
G01X-295910Y-1094283D01*
G01X-291998Y-1093368D01*
G01X-283820Y-1091590D01*
G01X-280772Y-1090676D01*
G01X-276555Y-1089762D01*
G01X-273507Y-1089152D01*
G01X-267462Y-1087628D01*
G01X-263500Y-1086714D01*
G01X-255321Y-1084885D01*
G01X-252273Y-1083970D01*
G01X-248056Y-1083107D01*
G01X-245008Y-1082497D01*
G01X-242011Y-1081583D01*
G01X-237744Y-1080668D01*
G01X-234696Y-1080059D01*
G01X-228651Y-1078535D01*
G01X-224739Y-1077620D01*
G01X-216560Y-1075792D01*
G01X-213512Y-1074928D01*
G01X-209245Y-1074014D01*
G01X-206248Y-1073404D01*
G01X-200152Y-1071880D01*
G01X-198679Y-1071270D01*
G01X-198374Y-1070661D01*
G01X-251104Y-1070051D01*
G01X-290779Y-1070356D01*
G01X-305003Y-1071270D01*
G01X-306172Y-1072490D01*
G01X-306527Y-1073709D01*
G01X-306832Y-1075792D01*
G01X-307137Y-1078840D01*
G01Y-1080973D01*
G01X-311404D01*
G01Y-1047039D01*
G01X-342900D01*
G01Y-1169162D01*
G01X-328981D01*
G01X-328371Y-1164285D01*
G01X-327152Y-1162152D01*
G01X-325628Y-1160374D01*
G01X-324104Y-1158850D01*
G01X-322275Y-1157630D01*
G01X-320192Y-1156716D01*
G01X-317754Y-1155497D01*
G01X-314401Y-1154278D01*
G01X-312014Y-1153668D01*
G01X-310794Y-1155192D01*
G01X-310185Y-1156716D01*
G01X-312014Y-1157326D01*
G01X-314401Y-1158850D01*
G01X-315620Y-1160678D01*
G01X-316535Y-1163676D01*
G01Y-1167028D01*
G01X-315316Y-1168857D01*
G01X-313792Y-1170381D01*
G01X-312014Y-1171550D01*
G01X-307746Y-1173378D01*
G01X-306629Y-1173226D01*
G01X-305613Y-1172159D01*
G01X-303784Y-1170076D01*
G01X-302311Y-1168552D01*
G01X-298653Y-1165504D01*
G01X-297129Y-1164285D01*
G01X-295605Y-1163371D01*
G01X-293827Y-1162152D01*
G01X-291694Y-1160983D01*
G01X-289255Y-1159459D01*
G01X-286258Y-1157935D01*
G01X-283210Y-1156716D01*
G01X-279857Y-1155497D01*
G01X-275946Y-1154278D01*
G01X-271678Y-1153363D01*
G01X-268072Y-1152804D01*
G01X-263804Y-1152195D01*
G01X-258369Y-1151585D01*
G01X-243484Y-1151280D01*
G01X-230480Y-1151585D01*
G01X-225044Y-1152195D01*
G01X-220777Y-1152804D01*
G01X-215341Y-1153973D01*
G01X-212293Y-1154887D01*
G01X-208331Y-1156106D01*
G01X-205334Y-1157326D01*
G01X-202590Y-1158545D01*
G01X-200152Y-1159764D01*
G01X-198069Y-1160983D01*
G01X-195631Y-1162456D01*
G01X-192888Y-1164285D01*
G01X-190754Y-1166114D01*
G01X-185014Y-1171854D01*
G01X-183490Y-1173683D01*
G01X-181966Y-1176122D01*
G01X-180492Y-1178865D01*
G01X-179273Y-1181252D01*
G01X-178359Y-1183996D01*
G01X-177749Y-1186739D01*
G01X-177140Y-1189126D01*
G01X-176835Y-1196137D01*
G01X-177140Y-1202487D01*
G01X-177749Y-1205230D01*
G01X-178664Y-1207922D01*
G01X-180492Y-1212190D01*
G01X-181966Y-1214577D01*
G01X-184099Y-1217625D01*
G01X-189281Y-1222807D01*
G01X-192278Y-1225194D01*
G01X-194412Y-1226718D01*
G01X-197155Y-1228242D01*
G01X-199288Y-1229462D01*
G01X-201676Y-1230681D01*
G01X-204419Y-1231849D01*
G01X-206553Y-1232764D01*
G01X-208940Y-1233678D01*
G01X-211988Y-1234592D01*
G01X-214732Y-1235202D01*
G01X-217729Y-1236116D01*
G01X-221082Y-1236726D01*
G01X-223215Y-1237031D01*
G01X-226822Y-1237640D01*
G01X-232308Y-1238250D01*
G01X-246837Y-1238555D01*
G01X-259588Y-1238250D01*
G01X-265024Y-1237640D01*
G01X-269240Y-1237031D01*
G01X-275336Y-1235812D01*
G01X-278028Y-1234897D01*
G01X-281381Y-1233983D01*
G01X-283820Y-1233068D01*
G01X-288036Y-1231290D01*
G01X-290170Y-1230071D01*
G01X-292608Y-1228547D01*
G01X-294742Y-1227023D01*
G01X-297129Y-1225194D01*
G01X-302311Y-1220064D01*
G01X-304089Y-1217625D01*
G01X-306222Y-1214577D01*
G01X-307746Y-1212190D01*
G01X-308966Y-1209751D01*
G01X-310185Y-1206703D01*
G01X-311099Y-1203401D01*
G01X-311709Y-1200658D01*
G01X-312014Y-1192479D01*
G01X-312318Y-1186942D01*
G01X-313182Y-1184910D01*
G01X-315620Y-1183996D01*
G01X-318364Y-1182776D01*
G01X-321107Y-1181252D01*
G01X-323494Y-1179728D01*
G01X-325323Y-1178255D01*
G01X-326542Y-1176731D01*
G01X-328066Y-1174598D01*
G01X-328727Y-1172464D01*
G01X-328981Y-1169162D01*
G01X-342900D01*
G01Y-1244600D01*
G01X-142900D01*
G01Y-444602D01*
G37*
G36*
G01X-256845Y-482803D02*
G01X-256845Y-498551D01*
G01X-256540Y-514604D01*
G01X-254406D01*
G01X-251663Y-513994D01*
G01X-248666Y-513080D01*
G01X-244704Y-512166D01*
G01X-242011Y-511556D01*
G01X-239268Y-510642D01*
G01X-235610Y-509727D01*
G01X-232918Y-509168D01*
G01X-229870Y-508254D01*
G01X-225908Y-507340D01*
G01X-223215Y-506730D01*
G01X-220167Y-505816D01*
G01X-216256Y-504901D01*
G01X-213512Y-504292D01*
G01X-210464Y-503377D01*
G01X-206553Y-502463D01*
G01X-203810Y-501853D01*
G01X-200762Y-500939D01*
G01X-196850Y-500075D01*
G01X-194107Y-499161D01*
G01X-193650Y-498551D01*
G01X-194107Y-497942D01*
G01X-197155Y-497027D01*
G01X-200152Y-496418D01*
G01X-205638Y-495198D01*
G01X-208636Y-494284D01*
G01X-212598Y-493370D01*
G01X-215341Y-492760D01*
G01X-221386Y-491287D01*
G01X-225349Y-490372D01*
G01X-228041Y-489763D01*
G01X-231089Y-488848D01*
G01X-235306Y-487934D01*
G01X-238354Y-487324D01*
G01X-241402Y-486410D01*
G01X-245313Y-485496D01*
G01X-248056Y-484886D01*
G01X-251104Y-483972D01*
G01X-255016Y-483108D01*
G37*
G36*
G01X-282600Y-568554D02*
G01X-285953Y-568858D01*
G01X-288036Y-569163D01*
G01X-290779Y-570078D01*
G01X-294132Y-571246D01*
G01X-296215Y-572465D01*
G01X-298348Y-573989D01*
G01X-300482Y-575818D01*
G01X-302006Y-577342D01*
G01X-303225Y-579120D01*
G01X-305308Y-583387D01*
G01X-306222Y-586740D01*
G01X-306832Y-589737D01*
G01X-307137Y-592785D01*
G01X-307442Y-595224D01*
G01Y-597306D01*
G01X-307137Y-600964D01*
G01X-306832Y-604317D01*
G01X-305918Y-607009D01*
G01X-304698Y-609752D01*
G01X-303530Y-612191D01*
G01X-302006Y-614274D01*
G01X-299568Y-617322D01*
G01X-296520Y-619760D01*
G01X-294742Y-620979D01*
G01X-289865Y-623367D01*
G01X-286512Y-624281D01*
G01X-283210Y-624891D01*
G01X-278028Y-625196D01*
G01X-272898Y-624891D01*
G01X-269850Y-624281D01*
G01X-266548Y-623367D01*
G01X-261671Y-621589D01*
G01X-259283Y-620370D01*
G01X-257150Y-619150D01*
G01X-255321Y-617931D01*
G01X-252882Y-616102D01*
G01X-246228Y-609448D01*
G01X-245008Y-607924D01*
G01X-244094Y-606400D01*
G01Y-604317D01*
G01X-245313Y-601269D01*
G01X-248971Y-594004D01*
G01X-250495Y-591566D01*
G01X-252273Y-588518D01*
G01X-254102Y-585826D01*
G01X-255626Y-583692D01*
G01X-257454Y-581254D01*
G01X-262585Y-576123D01*
G01X-265633Y-573684D01*
G01X-267462Y-572465D01*
G01X-272288Y-570078D01*
G01X-275946Y-569163D01*
G01X-279552Y-568554D01*
G37*
G36*
G01X-210160Y-569468D02*
G01X-215951Y-569773D01*
G01X-218338Y-570382D01*
G01X-220777Y-571246D01*
G01X-224434Y-573075D01*
G01X-226212Y-574294D01*
G01X-228651Y-576123D01*
G01X-230784Y-578256D01*
G01X-233223Y-581254D01*
G01X-234391Y-583082D01*
G01X-235610Y-587045D01*
G01X-235915Y-591261D01*
G01X-235001Y-593700D01*
G01X-233832Y-596443D01*
G01X-231394Y-601269D01*
G01X-230175Y-603402D01*
G01X-227127Y-607924D01*
G01X-225349Y-610362D01*
G01X-222910Y-613410D01*
G01X-221386Y-614883D01*
G01X-218948Y-616712D01*
G01X-216256Y-618846D01*
G01X-213512Y-620370D01*
G01X-209855Y-621589D01*
G01X-205334Y-622198D01*
G01X-201981Y-621894D01*
G01X-199542Y-621284D01*
G01X-197155Y-620370D01*
G01X-194716Y-619150D01*
G01X-191668Y-617322D01*
G01X-189281Y-615493D01*
G01X-187757Y-613969D01*
G01X-186233Y-611886D01*
G01X-184709Y-609143D01*
G01X-183490Y-605790D01*
G01X-182575Y-601878D01*
G01X-182270Y-598526D01*
G01X-181712Y-594309D01*
G01X-181966Y-592176D01*
G01X-182575Y-587350D01*
G01X-183490Y-584606D01*
G01X-184709Y-581863D01*
G01X-186233Y-579425D01*
G01X-188062Y-577342D01*
G01X-191059Y-574904D01*
G01X-192888Y-573684D01*
G01X-195326Y-572465D01*
G01X-198069Y-571246D01*
G01X-201371Y-570382D01*
G01X-204419Y-569773D01*
G37*
G36*
G01X-268681Y-768248D02*
G01X-271678Y-768553D01*
G01X-281381Y-769163D01*
G01X-285648Y-769772D01*
G01X-288646Y-770382D01*
G01X-291998Y-771246D01*
G01X-294437Y-772160D01*
G01X-296520Y-773074D01*
G01X-298348Y-774294D01*
G01X-300787Y-776122D01*
G01X-303225Y-778866D01*
G01X-304698Y-781253D01*
G01X-305918Y-783996D01*
G01X-306832Y-787349D01*
G01X-307442Y-791261D01*
G01Y-794004D01*
G01X-307137Y-795833D01*
G01X-306527Y-798525D01*
G01X-305613Y-800964D01*
G01X-304698Y-802792D01*
G01X-303225Y-804926D01*
G01X-301396Y-807009D01*
G01X-299872Y-808533D01*
G01X-298348Y-809752D01*
G01X-296824Y-810666D01*
G01X-294742Y-812190D01*
G01X-291694Y-814019D01*
G01X-288950Y-815188D01*
G01X-286512Y-816102D01*
G01X-283210Y-817321D01*
G01X-279248Y-818236D01*
G01X-276555Y-818845D01*
G01X-272898Y-819455D01*
G01X-268072Y-820064D01*
G01X-261671Y-820369D01*
G01X-256540Y-819760D01*
G01X-251663Y-817321D01*
G01X-246837Y-814273D01*
G01X-244399Y-812495D01*
G01X-240792Y-808838D01*
G01X-239573Y-807314D01*
G01X-238354Y-805231D01*
G01X-236830Y-802488D01*
G01X-235610Y-799135D01*
G01X-234696Y-795223D01*
G01X-234391Y-789737D01*
G01X-235001Y-785216D01*
G01X-236220Y-782472D01*
G01X-237439Y-780339D01*
G01X-238658Y-778866D01*
G01X-240182Y-777342D01*
G01X-243180Y-774903D01*
G01X-245008Y-773684D01*
G01X-247447Y-772465D01*
G01X-250190Y-771246D01*
G01X-252882Y-770382D01*
G01X-255321Y-769772D01*
G01X-258978Y-769163D01*
G01X-263195Y-768858D01*
G01X-265633Y-768553D01*
G37*
G36*
G01X-282600Y-868528D02*
G01X-285953Y-868832D01*
G01X-288036Y-869137D01*
G01X-290779Y-870052D01*
G01X-294132Y-871271D01*
G01X-296215Y-872490D01*
G01X-298348Y-874014D01*
G01X-300482Y-875792D01*
G01X-302006Y-877316D01*
G01X-303225Y-879145D01*
G01X-305308Y-883412D01*
G01X-306222Y-886714D01*
G01X-306832Y-889762D01*
G01X-307137Y-892759D01*
G01X-307442Y-895198D01*
G01Y-897331D01*
G01X-307137Y-900989D01*
G01X-306832Y-904291D01*
G01X-305918Y-907034D01*
G01X-304698Y-909726D01*
G01X-303530Y-912165D01*
G01X-302006Y-914298D01*
G01X-299568Y-917346D01*
G01X-296520Y-919734D01*
G01X-294742Y-920953D01*
G01X-289865Y-923392D01*
G01X-286512Y-924306D01*
G01X-283210Y-924916D01*
G01X-278028Y-925220D01*
G01X-272898Y-924916D01*
G01X-269850Y-924306D01*
G01X-266548Y-923392D01*
G01X-261671Y-921563D01*
G01X-259283Y-920344D01*
G01X-257150Y-919124D01*
G01X-255321Y-917956D01*
G01X-252882Y-916127D01*
G01X-246228Y-909472D01*
G01X-245008Y-907948D01*
G01X-244094Y-906424D01*
G01Y-904291D01*
G01X-245313Y-901243D01*
G01X-248971Y-893978D01*
G01X-250495Y-891591D01*
G01X-252273Y-888543D01*
G01X-254102Y-885800D01*
G01X-255626Y-883666D01*
G01X-257454Y-881278D01*
G01X-262585Y-876097D01*
G01X-265633Y-873709D01*
G01X-267462Y-872490D01*
G01X-272288Y-870052D01*
G01X-275946Y-869137D01*
G01X-279552Y-868528D01*
G37*
G36*
G01X-210160Y-869442D02*
G01X-215951Y-869747D01*
G01X-218338Y-870356D01*
G01X-220777Y-871271D01*
G01X-224434Y-873100D01*
G01X-226212Y-874319D01*
G01X-228651Y-876097D01*
G01X-230784Y-878230D01*
G01X-233223Y-881278D01*
G01X-234391Y-883107D01*
G01X-235610Y-887019D01*
G01X-235915Y-891286D01*
G01X-235001Y-893674D01*
G01X-233832Y-896417D01*
G01X-231394Y-901243D01*
G01X-230175Y-903376D01*
G01X-227127Y-907948D01*
G01X-225349Y-910336D01*
G01X-222910Y-913384D01*
G01X-221386Y-914908D01*
G01X-218948Y-916737D01*
G01X-216256Y-918820D01*
G01X-213512Y-920344D01*
G01X-209855Y-921563D01*
G01X-205334Y-922172D01*
G01X-201981Y-921868D01*
G01X-199542Y-921258D01*
G01X-197155Y-920344D01*
G01X-194716Y-919124D01*
G01X-191668Y-917346D01*
G01X-189281Y-915518D01*
G01X-187757Y-913994D01*
G01X-186233Y-911860D01*
G01X-184709Y-909168D01*
G01X-183490Y-905815D01*
G01X-182575Y-901852D01*
G01X-182270Y-898550D01*
G01X-181712Y-894283D01*
G01X-181966Y-892200D01*
G01X-182575Y-887324D01*
G01X-183490Y-884580D01*
G01X-184709Y-881888D01*
G01X-186233Y-879450D01*
G01X-188062Y-877316D01*
G01X-191059Y-874878D01*
G01X-192888Y-873709D01*
G01X-195326Y-872490D01*
G01X-198069Y-871271D01*
G01X-201371Y-870356D01*
G01X-204419Y-869747D01*
G37*
G36*
G01X-246532Y-1166419D02*
G01X-264414Y-1166724D01*
G01X-271069Y-1167333D01*
G01X-275946Y-1167943D01*
G01X-283210Y-1169162D01*
G01X-289560Y-1171245D01*
G01X-292608Y-1172464D01*
G01X-295046Y-1173988D01*
G01X-296824Y-1175512D01*
G01X-297129Y-1176731D01*
G01X-295300Y-1177646D01*
G01X-292608Y-1178560D01*
G01X-290170Y-1179424D01*
G01X-283820Y-1182167D01*
G01X-281381Y-1183691D01*
G01X-278333Y-1185824D01*
G01X-276250Y-1187958D01*
G01X-274726Y-1190041D01*
G01X-273202Y-1193089D01*
G01X-272288Y-1196442D01*
G01X-271983Y-1201572D01*
G01X-272288Y-1206094D01*
G01X-273202Y-1208837D01*
G01X-274422Y-1211275D01*
G01X-275641Y-1212799D01*
G01X-278638Y-1215187D01*
G01X-280467Y-1216406D01*
G01X-282296Y-1217320D01*
G01X-283820Y-1218540D01*
G01X-284175Y-1219149D01*
G01X-283515Y-1219759D01*
G01X-280467Y-1220673D01*
G01X-277724Y-1221283D01*
G01X-274117Y-1221892D01*
G01X-269850Y-1222502D01*
G01X-265938Y-1222807D01*
G01X-262585Y-1223061D01*
G01X-245313Y-1223366D01*
G01X-228041Y-1223061D01*
G01X-221386Y-1222502D01*
G01X-217119Y-1221892D01*
G01X-211074Y-1220673D01*
G01X-206248Y-1219454D01*
G01X-203505Y-1218540D01*
G01X-200457Y-1217320D01*
G01X-197764Y-1216101D01*
G01X-195021Y-1214577D01*
G01X-192278Y-1212799D01*
G01X-190195Y-1211275D01*
G01X-188671Y-1210056D01*
G01X-187147Y-1208227D01*
G01X-185928Y-1206398D01*
G01X-184404Y-1204316D01*
G01X-182880Y-1200658D01*
G01X-182270Y-1197305D01*
G01X-181966Y-1195222D01*
G01Y-1192174D01*
G01X-182575Y-1188517D01*
G01X-183490Y-1185824D01*
G01X-184709Y-1183386D01*
G01X-186538Y-1180643D01*
G01X-188671Y-1178560D01*
G01X-190195Y-1177341D01*
G01X-192278Y-1175817D01*
G01X-195021Y-1174293D01*
G01X-200457Y-1171854D01*
G01X-206553Y-1170076D01*
G01X-208940Y-1169467D01*
G01X-211074Y-1169162D01*
G01X-214122Y-1168552D01*
G01X-217729Y-1167943D01*
G01X-221996Y-1167333D01*
G01X-226212Y-1167028D01*
G01X-228651Y-1166724D01*
G37*
G36*
G01X-306527Y-1187653D02*
G01X-306832Y-1189736D01*
G01X-307137Y-1194003D01*
G01X-306832Y-1196442D01*
G01X-306527Y-1198524D01*
G01X-306222Y-1201268D01*
G01X-305308Y-1203706D01*
G01X-303784Y-1206398D01*
G01X-302311Y-1208532D01*
G01X-300787Y-1210056D01*
G01X-298653Y-1211580D01*
G01X-295300Y-1213104D01*
G01X-291998Y-1213714D01*
G01X-289865Y-1213409D01*
G01X-287426Y-1212799D01*
G01X-285344Y-1211885D01*
G01X-283820Y-1210666D01*
G01X-282296Y-1208837D01*
G01X-281076Y-1206703D01*
G01X-279857Y-1203706D01*
G01Y-1199439D01*
G01X-281381Y-1196746D01*
G01X-282905Y-1195222D01*
G01X-285039Y-1193698D01*
G01X-287731Y-1192479D01*
G01X-290779Y-1191260D01*
G01X-294742Y-1190041D01*
G01X-298958Y-1188822D01*
G01X-303784Y-1187958D01*
G37*
G04 Text End*

G04 Rect Start*
G54D10*
G01X-584200Y-1155700D02*
G01X-381000Y-1155700D01*
G01Y-368300D01*
G01X-584200D01*
G01Y-1155700D01*
G04 Rect End*

M02*
