;TYPE=PLATED
;Layer: PTH_Through_Via
;EasyEDA Pro v2.0.15.e63e9f, 2024-02-27 22:05:23
;Gerber Generator version 0.3
M48
METRIC,LZ,000.000
;Hole size 1 = 0.305 METRIC
T01C0.305
%
G05
G90
T01
X001651Y014351
X000635Y013335
X-000635Y013208
X-001905Y013335
X-009906Y010017
X-005080Y005842
X-004445Y006858
X-004318Y010160
X-009271Y012954
X-010033Y012954
X-010033Y012319
X-009271Y012319
X-009398Y005080
X-009398Y005715
X-010033Y005715
X-010033Y005080
X-004309Y010890
X-006350Y007112
X-006350Y006477
X-006985Y007112
X-006985Y006477
X-005334Y009271
X-005334Y008763
X-009398Y009017
X-008858Y009017
M30