G04 Layer: TopSilkscreenLayer*
G04 EasyEDA Pro v2.0.15.e63e9f, 2024-02-27 22:05:23*
G04 Gerber Generator version 0.3*
G04 Scale: 100 percent, Rotated: No, Reflected: No*
G04 Dimensions in millimeters*
G04 Leading zeros omitted, absolute positions, 3 integers and 3 decimals*
%FSLAX33Y33*%
%MOMM*%
%ADD10C,0.1*%
%ADD11C,0.1524*%
%ADD12C,0.254*%
%ADD13C,0.299999*%
G75*


G04 Text Start*
G04 //text: GND*
G54D10*
G01X-5149Y7953D02*
G01X-5184Y8021D01*
G01X-5253Y8090D01*
G01X-5321Y8125D01*
G01X-5458D01*
G01X-5527Y8090D01*
G01X-5596Y8021D01*
G01X-5631Y7953D01*
G01X-5664Y7849D01*
G01Y7678D01*
G01X-5631Y7574D01*
G01X-5596Y7506D01*
G01X-5527Y7437D01*
G01X-5458Y7402D01*
G01X-5321D01*
G01X-5253Y7437D01*
G01X-5184Y7506D01*
G01X-5149Y7574D01*
G01Y7678D01*
G01X-5321Y7678D02*
G01X-5149Y7678D01*
G01X-4884Y8125D02*
G01X-4884Y7402D01*
G01X-4884Y8125D02*
G01X-4404Y7402D01*
G01X-4404Y8125D02*
G01X-4404Y7402D01*
G01X-4138Y8125D02*
G01X-4138Y7402D01*
G01X-4138Y8125D02*
G01X-3896Y8125D01*
G01X-3795Y8090D01*
G01X-3726Y8021D01*
G01X-3691Y7953D01*
G01X-3658Y7849D01*
G01Y7678D01*
G01X-3691Y7574D01*
G01X-3726Y7506D01*
G01X-3795Y7437D01*
G01X-3896Y7402D01*
G01X-4138D01*
G04 //text: 5V*
G01X-5253Y9395D02*
G01X-5596Y9395D01*
G01X-5631Y9086D01*
G01X-5596Y9119D01*
G01X-5494Y9154D01*
G01X-5390D01*
G01X-5286Y9119D01*
G01X-5217Y9050D01*
G01X-5184Y8948D01*
G01Y8880D01*
G01X-5217Y8776D01*
G01X-5286Y8707D01*
G01X-5390Y8672D01*
G01X-5494D01*
G01X-5596Y8707D01*
G01X-5631Y8740D01*
G01X-5664Y8811D01*
G01X-4920Y9395D02*
G01X-4643Y8672D01*
G01X-4369Y9395D02*
G01X-4643Y8672D01*
G04 //text: PWM*
G01X-5664Y10665D02*
G01X-5664Y9942D01*
G01X-5664Y10665D02*
G01X-5357Y10665D01*
G01X-5253Y10630D01*
G01X-5217Y10597D01*
G01X-5184Y10526D01*
G01Y10424D01*
G01X-5217Y10356D01*
G01X-5253Y10320D01*
G01X-5357Y10287D01*
G01X-5664D01*
G01X-4920Y10665D02*
G01X-4747Y9942D01*
G01X-4575Y10665D02*
G01X-4747Y9942D01*
G01X-4575Y10665D02*
G01X-4404Y9942D01*
G01X-4232Y10665D02*
G01X-4404Y9942D01*
G01X-3967Y10665D02*
G01X-3967Y9942D01*
G01X-3967Y10665D02*
G01X-3691Y9942D01*
G01X-3416Y10665D02*
G01X-3691Y9942D01*
G01X-3416Y10665D02*
G01X-3416Y9942D01*
G04 //text: H1*
G54D11*
G01X1999Y5151D02*
G01X2649Y5151D01*
G01X1999Y5585D02*
G01X2649Y5585D01*
G01X2309Y5151D02*
G01X2309Y5585D01*
G01X2123Y5885D02*
G01X2090Y5949D01*
G01X1999Y6040D01*
G01X2649D01*
G04 Text End*

G04 PolygonModel Start*
G01X-2576Y7479D02*
G01X-2576Y10521D01*
G01X-2576Y10521D02*
G01X2576Y10521D01*
G01X2576Y10521D02*
G01X2576Y7479D01*
G01X2576Y7479D02*
G01X-2576Y7479D01*
G01X-1016Y13852D02*
G01X-226Y13852D01*
G01X-226Y14850D02*
G01X-1016Y14850D01*
G01X-1169Y14697D02*
G01X-1169Y14005D01*
G01X1016Y13852D02*
G01X226Y13852D01*
G01X226Y14850D02*
G01X1016Y14850D01*
G01X1169Y14697D02*
G01X1169Y14005D01*
G01X-1016Y14850D02*
G03X-1169Y14697I0J-152D01*
G01X-1169Y14005D02*
G03X-1016Y13852I152J0D01*
G01X1016Y14850D02*
G02X1169Y14697I0J-152D01*
G01X1169Y14005D02*
G02X1016Y13852I-152J0D01*
G54D12*
G01X-7507Y7136D02*
G01X-7507Y4617D01*
G01X-7507Y4617D02*
G01X-7707Y4617D01*
G01X-8201Y13417D02*
G01X-7507Y13417D01*
G01X-7507Y13417D02*
G01X-7507Y10898D01*
G01X-11163Y4617D02*
G01X-11807Y4617D01*
G01X-11807Y4617D02*
G01X-11807Y13417D01*
G01X-11807Y13417D02*
G01X-11163Y13417D01*
G01X-7607Y4617D02*
G01X-8201Y4617D01*
G04 PolygonModel End*

G04 Rect Start*
G01X3195Y5202D02*
G01X5695Y5202D01*
G01Y12822D01*
G01X3195D01*
G01Y5202D01*
G04 Rect End*

G04 Circle Start*
G54D13*
G01X-2055Y8231D02*
G03X-1755Y8231I150J0D01*
G03X-2055I-150J0D01*
G01X-2822Y6318D02*
G03X-2522Y6318I150J0D01*
G03X-2822I-150J0D01*
G04 Circle End*

M02*
