;TYPE=PLATED
;Layer: PTH_Through_Via
;EasyEDA Pro v2.1.49.1.de255bc8.674264, 2024-06-01 15:44:06
;Gerber Generator version 0.3
M48
METRIC,LZ,000.00000
;Hole size 1 = 0.30000 METRIC
T01C0.30000
;Hole size 2 = 0.30480 METRIC
T02C0.30480
%
G05
G90
T01
X05857347Y00192521
X05793745Y00192521
X05655778Y00192521
X05727700Y00190500
X05803900Y01295400
X05753100Y01295400
X05829300Y01701800
X05448300Y01701800
X05600700Y01701800
X05372100Y01701800
X05857347Y00271482
X05793745Y00271482
X05654461Y00271482
X05816600Y01079500
X05321300Y00939800
X05222245Y01848665
X05222245Y01810565
X05257800Y01727200
X05676900Y01701800
X05753100Y01701800
X05524500Y01701800
X01381191Y01937873
X01511300Y02286000
X01460500Y02286000
X05273045Y-00107135
X03022600Y00546100
X02959100Y00546100
X03022600Y00482600
X02959100Y00482600
X02641600Y00533400
X02362200Y01257300
X02374900Y01473200
X02484800Y01308100
X02044700Y00863600
X01905000Y00850900
X02484800Y01409700
X02354125Y01403772
X01346200Y01511300
X02071361Y-00363444
X02122161Y-00363444
X02020561Y-00363444
X02071361Y-00414244
X02122161Y-00414244
X02020561Y-00414244
X02540000Y02108200
X02527300Y02006600
X01485900Y01849800
X01676400Y01892300
X01612900Y01892300
X01460500Y01600200
X01498600Y01701800
X01651000Y02489200
X01397000Y02463800
X01854200Y02425700
X01765300Y02425700
X01371600Y02413000
X01676400Y02082800
X01612900Y02082800
X01841500Y02336800
X01371600Y01765300
X01676400Y02019300
X01612900Y02019300
X01676400Y01955800
X01612900Y01955800
X01612900Y02171700
X-00042500Y02261332
X02997200Y02298700
X03098800Y02184400
X02997200Y02184400
X03048000Y02184400
X02946400Y02184400
X03966349Y-00285125
X03890149Y-00285125
X03813949Y-00285125
X03890149Y00159324
X03813949Y00159324
X04114800Y00254000
X03966349Y00095824
X03890149Y00095824
X03813949Y00095824
X03966349Y-00158125
X03890149Y-00158125
X03813949Y-00158125
X03966349Y-00221625
X03890149Y-00221625
X03813949Y-00221625
X03962400Y01193800
X03911600Y01193800
X03860800Y01193800
X03810000Y01193800
X03964945Y00591365
X03888745Y00591365
X03812545Y00591365
X03888745Y00527865
X03812545Y00527865
X04178300Y00622300
X03962400Y01308100
X03962400Y01257300
X03911600Y01257300
X00965200Y-00596900
X02987045Y01594665
X02821945Y-00208735
X02872745Y-00208735
X02771145Y-00208735
X03111500Y-00241300
X03009900Y-00241300
X03060700Y-00241300
X02959100Y-00241300
X02821945Y-00259535
X02872745Y-00259535
X02771145Y-00259535
X03009900Y-00292100
X02959100Y-00292100
X02821945Y-00310335
X02872745Y-00310335
X02771145Y-00310335
X02899085Y-00728997
X02783845Y01975665
X02821945Y00311965
X02872745Y00311965
X02771145Y00311965
X03022600Y00292100
X02971800Y00292100
X02821945Y00261165
X02872745Y00261165
X02771145Y00261165
X03022600Y00241300
X02971800Y00241300
X02956412Y01741833
X02839524Y01741833
X02895735Y01741833
X02785509Y01741833
X02959100Y01676400
X02839744Y01674498
X02897272Y01674498
X02785509Y01674498
X02948945Y01162865
X02885445Y01162865
X02705100Y01384300
X02809245Y01378765
X02948945Y01366065
X02743200Y-00774700
X02819400Y02133600
X02946400Y02133600
X02946400Y02082800
X02654300Y02057400
X02946400Y02032000
X02885214Y00954484
X02694945Y00936145
X02806700Y01219200
X02948945Y01213665
X02885445Y01213665
X02946400Y02730500
X02882900Y02730500
X03022600Y00190500
X02971800Y00190500
X02821691Y00183326
X02872491Y00183326
X02770891Y00183326
X03112292Y-00188935
X03009900Y-00190500
X03060700Y-00190500
X02959100Y-00190500
X02895600Y01028700
X03022600Y00139700
X02821691Y00132526
X02872491Y00132526
X02770891Y00132526
X02821691Y00081726
X02872491Y00081726
X02770891Y00081726
X02821945Y-00081735
X02872745Y-00081735
X02771145Y-00081735
X02821945Y-00132535
X02872745Y-00132535
X02771145Y-00132535
X02809245Y01302565
X02999745Y01340665
X02707645Y01315265
X02948945Y01315265
X02768600Y02641600
X02821945Y00362765
X02872745Y00362765
X02771145Y00362765
X02743200Y-00838200
X02946400Y-00889000
X02821945Y-00030935
X02872745Y-00030935
X02771145Y-00030935
X02006600Y02590800
X01905000Y02590800
X02235200Y02451100
X-00038100Y02616200
X03329132Y02590800
X01841500Y00850900
X01765300Y00850900
X01689100Y00850900
X01666245Y-00437335
X01615445Y-00437335
X01564645Y-00437335
X01666245Y-00488135
X01615445Y-00488135
X01564645Y-00488135
X01666245Y-00386535
X01615445Y-00386535
X01564645Y-00386535
X01540441Y01017487
X01470526Y01013326
X01778000Y-00152400
X01828800Y-00152400
X01727200Y-00152400
X01333500Y01117600
X01333500Y01371600
X01485900Y01333500
X01333500Y01308100
X01333500Y01244600
X01778000Y-00203200
X01828800Y-00203200
X01727200Y-00203200
X01778000Y-00254000
X01828800Y-00254000
X01727200Y-00254000
X01473200Y00939800
X01409700Y00914400
X01296129Y00865377
X01386845Y00629465
X01488445Y00578665
X01437645Y00578665
X01386845Y00578665
X01368703Y-00810278
X01309418Y-00810278
X01574800Y00711200
X01574800Y00635000
X01488445Y00629465
X01437645Y00629465
X01488445Y00527865
X01437645Y00527865
X01386845Y00527865
X02301245Y-00907235
X03966349Y00159324
X03977645Y-00538935
X03797300Y-00533400
X03860800Y-00533400
X04053845Y-00538935
X04193545Y-00996135
X04193545Y-01072435
X04193545Y-01161235
X04193545Y-00856435
X04117345Y-00856435
X04193545Y-00919935
X04117345Y-00919935
X05393383Y02140765
X05219700Y02133600
X04178300Y02476500
X04102100Y02476500
X04076700Y00609600
X03888745Y00464365
X03812545Y00464365
X03747000Y00395000
X03773246Y02305865
X03939545Y01721665
X03876045Y01721665
X03812545Y01721665
X03964945Y00223065
X03890149Y00222824
X03813949Y00222824
X04038600Y00317500
X03746500Y00304800
X04165600Y01003300
X03939545Y01658165
X03876045Y01658165
X03812545Y01658165
X03939545Y01594665
X03876045Y01594665
X03812545Y01594665
X04140200Y02070100
X04089400Y02070100
X03939545Y02064565
X03876045Y02064565
X03812545Y02064565
X04140200Y02019300
X04089400Y02019300
X03939545Y02001065
X03876045Y02001065
X03812545Y02001065
X03886200Y02209800
X03939545Y02128065
X03876045Y02128065
X03812545Y02128065
X04140200Y02120900
X04089400Y02120900
X03962400Y01371600
X03467100Y02209800
X01193800Y-00355600
X-00114300Y01955800
X-00042500Y01739115
X-00101600Y02463800
X-00044948Y00749962
X-00101600Y-00050800
X-00114300Y00952500
X-00101600Y00457200
X-00101600Y-01536700
X02298700Y00508000
X02071361Y-00465044
X02122161Y-00465044
X02020561Y-00465044
X02540000Y-00901700
X02120900Y-00901700
X02451100Y-00901700
X02019300Y-00901700
X03596393Y00024272
X03545593Y00024272
X03500000Y00024272
X03594100Y00673100
X03543300Y00673100
X03500000Y00673100
X03594100Y00393700
X03543300Y00393700
X03492500Y00393700
X03964945Y-00856435
X04041145Y-00856435
X03888745Y-00856435
X04041145Y-00919935
X03623244Y02305865
X03596645Y-00538935
X03596645Y00210365
X03545845Y00210365
X03500000Y00210365
X03594100Y-00127000
X03543300Y-00127000
X03500000Y-00127000
X03594100Y-00177800
X03543300Y-00177800
X03500000Y-00177800
X03596393Y00075072
X03545593Y00075072
X03500000Y00075072
X03253745Y-00716735
X03190245Y-00716735
X03416300Y01003300
X03479800Y01003300
X03556000Y01003300
X03619500Y01003300
X03352800Y01003300
X03149600Y01003300
X03594100Y00495300
X03543300Y00495300
X03492500Y00495300
X03594100Y00444500
X03543300Y00444500
X03492500Y00444500
X03594100Y-00076200
X03543300Y-00076200
X03500000Y-00076200
X03594100Y00304800
X03543300Y00304800
X03500000Y00304800
X03596645Y00261165
X03545845Y00261165
X03500000Y00261165
X03500000Y-00304800
X03596645Y-00304916
X03545845Y-00304916
X03500000Y-00355600
X03596645Y-00355716
X03545845Y-00355716
X03500000Y-00254000
X03596645Y-00254116
X03545845Y-00254116
X03520445Y01899465
X03467100Y01816100
X03467100Y01943100
X03596645Y00629465
X03545845Y00629465
X03500000Y00629465
X03543300Y00584200
X03596645Y00579723
X03500000Y00578665
X03596393Y00125872
X03545593Y00125872
X03500000Y00125872
X03495045Y01353365
X03444245Y01353365
X03393445Y01353365
X03495045Y01302565
X03444245Y01302565
X03393445Y01302565
X03495045Y01251765
X03444245Y01251765
X03393445Y01251765
X03695700Y01625600
X03581400Y01536700
X03467100Y01536700
X03467100Y01473200
X03568700Y01430000
X03403600Y02209800
X03329157Y02209800
X03213100Y02209800
X00965200Y02260600
X00850900Y02247900
X01244205Y-00810278
X00939800Y00342900
X00838200Y00050800
X01133134Y00242344
X00898127Y00232829
X00990600Y-00266700
X01244600Y00711200
X01133134Y00162309
X01133134Y00097096
X00990554Y00545492
X01104900Y00939800
X00889000Y00927100
X01104900Y00876300
X00965200Y02082800
X01030062Y02081698
X01093398Y02081257
X00901700Y02413000
X00965200Y02336800
X01092200Y01981200
X00990600Y01981200
X01016000Y01854200
X01143000Y01828800
X01066800Y01816100
X00965200Y01816100
X01041400Y02184400
X01104900Y02184400
X00965200Y02184400
X01231900Y02146300
X00114300Y-01447800
X-00114300Y-00546100
X-00114300Y-01041400
X04851400Y-00685800
X04787900Y-00685800
X04851400Y-00749300
X04787900Y-00749300
X04305300Y02476500
X04241800Y02476500
X04508500Y02476500
X04394200Y02476500
X05171445Y01848665
X05120645Y01848665
X05041900Y01816100
X04978400Y01816100
X05171445Y01810565
X05120645Y01810565
X05194300Y01727200
X05130800Y01727200
X05146045Y01607365
X05397500Y00762000
X05105400Y02171700
X05068107Y02120900
X05461000Y00762000
X05168900Y02184400
X04927600Y02184400
X04777745Y02382065
X04625345Y02382065
X05194300Y-00749300
X05130800Y-00749300
X05194300Y-00685800
X05130800Y-00685800
X05323845Y-01199335
X04927600Y-02463800
X04648200Y-02413000
X05067300Y-01663700
X05067300Y-01790700
X05067300Y-01727200
X04508500Y-01968500
X05323845Y-01072335
X04851400Y-01968500
X04787900Y-01968500
X04724400Y-01968500
X04851400Y-02032000
X04787900Y-02032000
X04724400Y-02032000
X04851400Y-02095500
X04787900Y-02095500
X04724400Y-02095500
X04851400Y-02159000
X04787900Y-02159000
X04724400Y-02159000
X05158745Y-01300935
X00284943Y02131682
X00042494Y00266700
X00571500Y00952500
X00508000Y00952500
X00762000Y00939800
X00825500Y00927100
X00685800Y00927100
X00571500Y00901700
X00508000Y00901700
X00393700Y00457200
X00444500Y01193800
X00622300Y02057400
X00114300Y02044700
X00406400Y01041400
X00114300Y01041400
X00609102Y00558800
X00114300Y00546100
X00584200Y-00368300
X00317500Y01562100
X00626700Y00762000
X00546100Y00762000
X00045039Y02260600
X00698500Y02159000
X00698500Y-00698500
X00045045Y-00749300
X00114300Y-00952500
X00042494Y00749300
X00660400Y00000000
X00444500Y01549400
X00114300Y01549400
X00114300Y-00457200
X00558800Y00203200
X00660400Y00101600
X00762000Y-00190500
X00711200Y-00190500
X00762000Y-00241300
X00711200Y-00241300
X00040799Y-00254000
X00582744Y00375465
X00762000Y-00076200
X00711200Y-00076200
X00762000Y-00127000
X00711200Y-00127000
X00749300Y02032000
X00469900Y01917700
X00635000Y00889000
X00749300Y00887311
X00406400Y00825500
X00042494Y01739900
X00042500Y-02248800
X00444500Y01397000
X00800100Y02463800
X00431800Y01295400
X00342900Y01295400
X00042494Y01257300
X00114300Y00050800
X00038100Y-01244600
X00038100Y-01739900
X00114300Y02540000
X00042494Y-02618547
X-00042500Y-02250612
X-00039949Y-01738521
X-00106583Y-02043242
X-00039955Y00266632
X-00101600Y01460500
X-00042500Y01256854
X-00042494Y-00253552
X-00042494Y-01244995
X02019300Y02425700
X01943100Y02425700
X01905000Y02362200
X02448404Y00870765
X02184400Y00901700
X02120900Y00901700
X05067300Y-01600200
X05067300Y-01409700
X05067300Y-01473200
X05067300Y-01536700
X04673600Y01104900
X04457700Y02197100
X04394200Y02197100
X04305300Y02171700
X04229100Y02146300
X04305300Y02120900
X04229100Y02095500
X04381495Y-02311400
X04368800Y01041400
X04318000Y01041400
X04762500Y00990600
X04813300Y00990600
X04711700Y00990600
X04368800Y00990600
X04318000Y00990600
X04762500Y00939800
X04813300Y00939800
X04711700Y00939800
X04368800Y00939800
X04318000Y00939800
X04873048Y01898530
X04376318Y-02641600
X-00039955Y-00751383
X03964945Y-00919935
X03888745Y-00919935
X05722309Y00271482
X03958260Y00533210
X03962400Y00469900
X04114800Y00127000
X04512882Y-00000001
X04127500Y00431800
X04512932Y00508000
X04513682Y00254000
X05270500Y00711200
X05029200Y00787400
X04737100Y00241300
X04686300Y00381000
X04851400Y00241300
X04572000Y-00139700
X04622800Y00381000
X05067300Y00330200
X05182006Y00185192
X05003800Y00241300
X04876800Y00381000
X04749800Y00381000
X04663445Y-00414894
X04901435Y-00422839
X05476245Y-00427594
X05067300Y-00431800
X05295900Y-00546100
X05308600Y-00457200
X04902200Y-00304800
X05016500Y-00274320
X04470400Y-00546100
X04521200Y-00317500
X04664537Y-00088900
X04533900Y-00203200
X04406900Y-00203200
X04483100Y-00152400
X05473700Y00025400
X04940300Y00381000
X04513682Y00381000
X04914900Y00241300
X04673600Y00241300
X03390211Y-00703935
X03453711Y-00703935
X03590682Y-00703935
X03654182Y-00703935
X03793773Y-00704035
X03857273Y-00704035
X03989004Y-00704035
X04052504Y-00704035
X04180745Y-00703835
X04244245Y-00703835
X04193506Y-00538835
X04257006Y-00538835
X03468277Y-00538798
X03531777Y-00538798
X03671484Y-00537810
X03734984Y-00537810
X04584700Y-02336800
X04648200Y-02336800
X04711700Y-02336800
X04775200Y-02336800
X04775200Y-02273300
X04711700Y-02273300
X04648200Y-02273300
X04584700Y-02273300
X04838700Y-02336800
X04838700Y-02273300
X04953000Y00774700
X04800600Y00762000
X04664537Y00774700
X04864100Y00762000
X04599538Y00723900
X04508500Y00711200
X04165600Y00680720
X05116698Y00787400
X05222245Y01607365
X04866645Y01581965
X05613400Y01295400
X05562600Y01295400
X05562600Y01248132
X05131524Y01326613
X05574500Y00441500
X05574500Y00598500
X04762500Y02026465
X04864100Y01676400
X04699000Y01625600
X04749800Y01333500
X04660900Y01397000
X04610100Y01587500
X04660900Y01333500
X04610100Y01816100
X04538332Y01524000
X04539082Y01244600
X01714500Y00495300
X04546600Y01041400
X05005612Y00996987
X05930900Y01143000
X03568700Y-01460500
X03632200Y-01460500
X03695700Y-01460500
X03632200Y-01530787
X03695700Y-01530787
X03568700Y-01530787
X03632200Y-01600200
X03695700Y-01600200
X03568700Y-01600200
X01244600Y00635000
X00254000Y-00876300
X00330276Y-00876300
X00406400Y-00876300
X00482600Y-00876300
X00254000Y-00946799
X00330276Y-00946799
X00406400Y-00946799
X00482600Y-00946799
X00254000Y-01016000
X00482600Y-01016000
X00330276Y-01016000
X00406400Y-01016000
X00254000Y-01092200
X00482600Y-01092200
X00330276Y-01092200
X00406400Y-01092200
X00254000Y-01168400
X00482600Y-01168400
X00330276Y-01168400
X00406400Y-01168400
X00254000Y-01231900
X00254000Y-01371600
X00254000Y-01302399
X00254000Y-01447800
X00254000Y-01524000
X00330276Y-01231900
X00406400Y-01231900
X00482600Y-01371600
X00330276Y-01371600
X00406400Y-01371600
X00482600Y-01302399
X00330276Y-01302399
X00406400Y-01302399
X00482600Y-01447800
X00330276Y-01447800
X00406400Y-01447800
X00482600Y-01524000
X00330276Y-01524000
X00406400Y-01524000
X00482600Y-01231900
X05638800Y-01993900
X05715000Y-02133600
X05638800Y-02133600
X05715000Y-02064399
X05638800Y-02064399
X05715000Y-02209800
X05638800Y-02209800
X05715000Y-02286000
X05638800Y-02286000
X05715000Y-01993900
X05803900Y-01993900
X05803900Y-02133600
X05803900Y-02064399
X05803900Y-02209800
X05803900Y-02286000
X05880176Y-01993900
X05956300Y-01993900
X06032500Y-02133600
X05880176Y-02133600
X05956300Y-02133600
X06032500Y-02064399
X05880176Y-02064399
X05956300Y-02064399
X06032500Y-02209800
X05880176Y-02209800
X05956300Y-02209800
X06032500Y-02286000
X05880176Y-02286000
X05956300Y-02286000
X06032500Y-01993900
X05638800Y-02362200
X05715000Y-02501900
X05638800Y-02501900
X05715000Y-02432699
X05638800Y-02432699
X05715000Y-02578100
X05638800Y-02578100
X05715000Y-02654300
X05638800Y-02654300
X05715000Y-02362200
X05803900Y-02362200
X05803900Y-02501900
X05803900Y-02432699
X05803900Y-02578100
X05803900Y-02654300
X05880176Y-02362200
X05956300Y-02362200
X06032500Y-02501900
X05880176Y-02501900
X05956300Y-02501900
X06032500Y-02432699
X05880176Y-02432699
X05956300Y-02432699
X06032500Y-02578100
X05880176Y-02578100
X05956300Y-02578100
X06032500Y-02654300
X05880176Y-02654300
X05956300Y-02654300
X06032500Y-02362200
X05867400Y02679700
X05867400Y02540000
X05867400Y02609201
X05867400Y02463800
X05867400Y02387600
X05943676Y02679700
X06019800Y02679700
X06096000Y02540000
X05943676Y02540000
X06019800Y02540000
X06096000Y02609201
X05943676Y02609201
X06019800Y02609201
X06096000Y02463800
X05943676Y02463800
X06019800Y02463800
X06096000Y02387600
X05943676Y02387600
X06019800Y02387600
X06096000Y02679700
X05714924Y02463800
X05714924Y02387600
X05791200Y02463800
X05791200Y02387600
X05714924Y02679700
X05714924Y02540000
X05714924Y02609201
X05791200Y02679700
X05791200Y02540000
X05791200Y02609201
X06096000Y02311400
X05867400Y02311400
X05867400Y02235200
X05943676Y02311400
X06019800Y02311400
X06096000Y02235200
X05943676Y02235200
X06019800Y02235200
X05714924Y02311400
X05714924Y02235200
X05791200Y02311400
X05791200Y02235200
X06134100Y01358900
X05981624Y01358900
X06057900Y01358900
X05981624Y01663700
X05981624Y01732901
X06057900Y01663700
X06057900Y01732901
X06134100Y01803400
X06134100Y01663700
X06134100Y01732901
X05981624Y01803400
X06057900Y01803400
X06134100Y01587500
X06134100Y01511300
X05981624Y01587500
X05981624Y01511300
X06057900Y01587500
X06057900Y01511300
X06134100Y01435100
X05981624Y01435100
X06057900Y01435100
X06134100Y00444500
X05981624Y00444500
X06057900Y00444500
X05981624Y00749300
X05981624Y00818501
X06057900Y00749300
X06057900Y00818501
X06134100Y00889000
X06134100Y00749300
X06134100Y00818501
X05981624Y00889000
X06057900Y00889000
X06134100Y00673100
X06134100Y00596900
X05981624Y00673100
X05981624Y00596900
X06057900Y00673100
X06057900Y00596900
X06134100Y00520700
X05981624Y00520700
X06057900Y00520700
X05981624Y-00279400
X05981624Y-00210199
X06057900Y-00279400
X06057900Y-00210199
X06134100Y-00139700
X06134100Y-00279400
X06134100Y-00210199
X05981624Y-00139700
X06057900Y-00139700
X06134100Y-00355600
X06134100Y-00431800
X05981624Y-00355600
X05981624Y-00431800
X06057900Y-00355600
X06057900Y-00431800
X06134100Y-00508000
X05981624Y-00508000
X06057900Y-00508000
X00254000Y-01605577
X00254000Y-01745277
X00254000Y-01676077
X00254000Y-01821477
X00254000Y-01897677
X00330276Y-01605577
X00406400Y-01605577
X00482600Y-01745277
X00330276Y-01745277
X00406400Y-01745277
X00482600Y-01676077
X00330276Y-01676077
X00406400Y-01676077
X00482600Y-01821477
X00330276Y-01821477
X00406400Y-01821477
X00482600Y-01897677
X00330276Y-01897677
X00406400Y-01897677
X00482600Y-01605577
X00254000Y-01968500
X00254000Y-02044700
X00482600Y-01968500
X00330276Y-01968500
X00406400Y-01968500
X00482600Y-02044700
X00330276Y-02044700
X00406400Y-02044700
X05118100Y-01943100
X03214657Y01003300
X03288855Y01003300
X04232106Y01000067
X05145585Y-01786598
X05145585Y-01723098
X05145585Y-01659598
X05145585Y-01596098
X05145585Y-01532598
X05145585Y-01469098
X05145585Y-01405598
X05549900Y02717800
X05613400Y02717800
X05613400Y02654300
X05549900Y02654300
X05486400Y02717800
X05486400Y02654300
X03949700Y02209800
T02
X02020257Y01378778
X01820232Y01378778
X01820232Y01478752
X01820232Y01278753
X01920232Y01278778
X02020257Y01478778
X02020257Y01278778
X01920232Y01478778
X01920232Y01378778
X00888987Y01471613
X00888987Y01271588
X00789013Y01271588
X00989013Y01271588
X00988987Y01371587
X00788988Y01471613
X00988987Y01471613
X00788988Y01371587
X00888987Y01371587
M30