G04 Layer: BoardOutlineLayer*
G04 EasyEDA Pro v2.1.49.1.de255bc8.674264, 2024-06-01 15:44:05*
G04 Gerber Generator version 0.3*
G04 Scale: 100 percent, Rotated: No, Reflected: No*
G04 Dimensions in millimeters*
G04 Leading zeros omitted, absolute positions, 3 integers and 5 decimals*
%FSLAX35Y35*%
%MOMM*%
%ADD10C,0.1*%
G75*


G04 PolygonModel Start*
G54D10*
G01X3845347Y2799994D02*
G01X1021444Y2799994D01*
G01X-190000Y-2599995D02*
G03X10000Y-2799994I200000J0D01*
G01X10000Y-2799994D02*
G01X678073Y-2799994D01*
G01X711881Y-986630D02*
G03X561882Y-1136630I0J-150000D01*
G01X71446Y2799994D02*
G01X10000Y2799994D01*
G01X171446Y2899994D02*
G01X171446Y3059994D01*
G01X-190000Y-2599995D02*
G01X-190000Y2599995D01*
G01X10000Y2799994D02*
G03X-190000Y2599995I0J-200000D01*
G01X4172160Y-2005129D02*
G03X4022160Y-1855130I-150000J0D01*
G01X4172160Y-2649995D02*
G03X4322159Y-2799994I150000J0D01*
G01X4322159Y-2799994D02*
G01X6009988Y-2799994D01*
G01X4172160Y-2649995D02*
G01X4172160Y-2005129D01*
G01X561882Y-1959977D02*
G03X609573Y-2069672I150000J-0D01*
G01X828073Y-2338674D02*
G03X780381Y-2228979I-150000J-0D01*
G01X678073Y-2799994D02*
G03X828073Y-2649995I0J150000D01*
G01X828073Y-2338674D02*
G01X828073Y-2649995D01*
G01X609573Y-2069672D02*
G01X780381Y-2228979D01*
G01X6209988Y-2599995D02*
G01X6209988Y-1887126D01*
G01X6209988Y-1887126D02*
G03X6149988Y-1827126I-60000J0D01*
G01X6212416Y221420D02*
G01X6212416Y281420D01*
G01X6209988Y281420D02*
G01X6212416Y281420D01*
G01X6209988Y221420D02*
G01X6212416Y221420D01*
G01X71446Y2799994D02*
G03X171446Y2899994I0J100000D01*
G01X271446Y3159994D02*
G03X171446Y3059994I0J-100000D01*
G01X406198Y3160994D02*
G01X406198Y3159994D01*
G01X409854Y3160994D02*
G01X409854Y3159994D01*
G01X396766Y3160994D02*
G01X396766Y3159994D01*
G01X401830Y3160994D02*
G01X401830Y3159994D01*
G01X411796Y3160994D02*
G01X411796Y3159994D01*
G01X413139Y3160994D02*
G01X413139Y3159994D01*
G01X417965Y3160994D02*
G01X417965Y3159994D01*
G01X418926Y3160994D02*
G01X420268Y3160994D01*
G01X403608Y3160994D02*
G01X403608Y3159994D01*
G01X420268Y3160994D02*
G01X420268Y3159994D01*
G01X921444Y3059994D02*
G03X821445Y3159994I-100000J0D01*
G01X921444Y2899994D02*
G03X1021444Y2799994I100000J0D01*
G01X3316726Y-1136630D02*
G03X3166726Y-986630I-150000J0D01*
G01X5809988Y-1679811D02*
G01X5809988Y-1767126D01*
G01X5869988Y-634129D02*
G03X5809988Y-694128I0J-60000D01*
G01X3316726Y-1705130D02*
G03X3466726Y-1855130I150000J0D01*
G01X4022160Y-1855130D02*
G01X3466726Y-1855130D01*
G01X5809988Y-1767126D02*
G03X5869988Y-1827126I60000J0D01*
G01X6149988Y-634129D02*
G03X6209988Y-574129I0J60000D01*
G01X6149988Y-634129D02*
G01X5869988Y-634129D01*
G01X561882Y-1136630D02*
G01X561882Y-1959977D01*
G01X6009988Y-2799994D02*
G03X6209988Y-2599995I0J200000D01*
G01X5869988Y-1827126D02*
G01X6149988Y-1827126D01*
G01X271446Y3159994D02*
G01X821445Y3159994D01*
G01X271446Y3159994D02*
G01X821445Y3159994D01*
G01X271446Y3159994D02*
G01X821445Y3159994D01*
G01X271446Y3159994D02*
G01X821445Y3159994D01*
G01X271446Y3159994D02*
G01X821445Y3159994D01*
G01X271446Y3159994D02*
G01X821445Y3159994D01*
G01X271446Y3159994D02*
G01X821445Y3159994D01*
G01X271446Y3159994D02*
G01X821445Y3159994D01*
G01X271446Y3159994D02*
G01X821445Y3159994D01*
G01X271446Y3159994D02*
G01X821445Y3159994D01*
G01X271446Y3159994D02*
G01X821445Y3159994D01*
G01X271446Y3159994D02*
G01X821445Y3159994D01*
G01X3316726Y-1705130D02*
G01X3316726Y-1136630D01*
G01X5809988Y-694128D02*
G01X5809988Y-1679811D01*
G01X6212416Y-278579D02*
G01X6212416Y-218579D01*
G01X6209988Y-278579D02*
G01X6212416Y-278579D01*
G01X6209988Y-218579D02*
G01X6212416Y-218579D01*
G01X6209988Y-574129D02*
G01X6209988Y2599995D01*
G01X6209988Y2599995D02*
G03X6009988Y2799994I-200000J0D01*
G01X3845347Y2799994D02*
G01X6009988Y2799994D01*
G01X320269Y3160994D02*
G01X320269Y3159994D01*
G01X328436Y3160994D02*
G01X328436Y3159994D01*
G01X334796Y3160994D02*
G01X334796Y3159994D01*
G01X341490Y3160994D02*
G01X341490Y3159994D01*
G01X354411Y3160994D02*
G01X354411Y3159994D01*
G01X348519Y3160994D02*
G01X348519Y3159994D01*
G01X350461Y3160994D02*
G01X350461Y3159994D01*
G01X323081Y3160994D02*
G01X323081Y3159994D01*
G01X395495Y3160994D02*
G01X395495Y3159994D01*
G01X385709Y3160994D02*
G01X385709Y3159994D01*
G01X389283Y3160994D02*
G01X389283Y3159994D01*
G01X390043Y3160994D02*
G01X392443Y3160994D01*
G01X392443Y3160994D02*
G01X392443Y3159994D01*
G01X387668Y3160994D02*
G01X387668Y3159994D01*
G01X379015Y3160994D02*
G01X379015Y3159994D01*
G01X381076Y3160994D02*
G01X381076Y3159994D01*
G01X383884Y3160994D02*
G01X383884Y3159994D01*
G01X362979Y3160994D02*
G01X362979Y3159994D01*
G01X360502Y3160994D02*
G01X360502Y3159994D01*
G01X370690Y3160994D02*
G01X370690Y3159994D01*
G01X377461Y3160994D02*
G01X377461Y3159994D01*
G01X375754Y3160994D02*
G01X375754Y3159994D01*
G01X921444Y3059994D02*
G01X921444Y2899994D01*
G01X3166726Y-986630D02*
G01X711881Y-986630D01*
G04 PolygonModel End*

M02*
