G04 Layer: BottomPasteMaskLayer*
G04 EasyEDA Pro v2.1.49.1.de255bc8.674264, 2024-06-01 15:44:05*
G04 Gerber Generator version 0.3*
G04 Scale: 100 percent, Rotated: No, Reflected: No*
G04 Dimensions in millimeters*
G04 Leading zeros omitted, absolute positions, 3 integers and 5 decimals*
%FSLAX35Y35*%
%MOMM*%
%AMPolygonMacro1*4,1,22,0.6638,-1.22428,0.6638,-1.17602,1.26406,-1.17602,1.26406,-0.7747,0.6638,-0.7747,0.6638,-0.52578,1.26406,-0.52578,1.26406,-0.12446,0.6638,-0.12446,0.6638,0.12446,1.26406,0.12446,1.26406,0.52578,0.6638,0.52578,0.6638,0.7747,1.26406,0.7747,0.6638,0.7747,1.26406,0.7747,1.26406,1.17602,0.6638,1.17602,0.6638,1.22428,-1.26406,1.22428,-1.26406,-1.22428,0.6638,-1.22428,0*%
%AMOval*1,1,$1,$2,$3*1,1,$1,$4,$5*20,1,$1,$2,$3,$4,$5,0*%
%AMPolygonMacro2*4,1,22,0.78867,-1.24,0.78867,-1.18654,1.13919,-1.18654,1.13919,-0.78522,0.78867,-0.78522,0.78867,-0.5363,1.13919,-0.5363,1.13919,-0.13498,0.78867,-0.13498,0.78867,0.11394,1.13919,0.11394,1.13919,0.51526,0.78867,0.51526,0.78867,0.76418,1.13919,0.76418,0.78867,0.76418,1.13919,0.76418,1.13919,1.1655,0.78867,1.1655,0.78867,1.24,-1.13919,1.24,-1.13919,-1.24,0.78867,-1.24,0*%
%ADD10R,0.75001X1.0*%
%ADD11R,0.75001X1.0*%
%ADD12O,0.36401X1.74201*%
%ADD13R,0.75001X0.35001*%
%ADD14PolygonMacro1*%
%ADD15Oval,0.7X0.0X-0.5X0.0X0.5*%
%ADD16O,0.7X1.7*%
%ADD17R,0.6715X1.575*%
%ADD18R,0.67201X1.575*%
%ADD19R,1.07201X0.532*%
%ADD20R,5.69999X2.49999*%
%ADD21R,2.79999X1.4*%
%ADD22R,1.0X0.75001*%
%ADD23O,1.865X0.63*%
%ADD24R,0.6X0.6*%
%ADD25R,0.6X0.6*%
%ADD26R,0.7X1.75001*%
%ADD27R,1.2X2.55001*%
%ADD28R,1.23X1.35999*%
%ADD29R,0.6X0.6*%
%ADD30R,1.8X1.524*%
%ADD31R,0.45001X0.45001*%
%ADD32R,0.9X0.8*%
%ADD33R,0.9X0.8*%
%ADD34PolygonMacro2*%
%ADD35R,0.55001X0.35001*%
%ADD36R,0.8X1.0*%
%ADD37R,1.8X2.0*%
%ADD38R,1.5X2.2*%
%ADD39R,0.9X0.8*%
G75*


G04 PolygonModel Start*
G36*
G01X3867516Y-1251534D02*
G01X3943566Y-1251534D01*
G01X3953566Y-1241534D01*
G01Y-1162594D01*
G01X3963566Y-1152594D01*
G01X4042524D01*
G01X4052524Y-1162594D01*
G01Y-1241534D01*
G01X4062524Y-1251534D01*
G01X4138574D01*
G01X4148574Y-1241534D01*
G01Y-970534D01*
G01X4138574Y-960534D01*
G01X3867516D01*
G01X3857516Y-970534D01*
G01Y-1241534D01*
G01X3867516Y-1251534D01*
G37*
G36*
G01X3867516Y-1426535D02*
G01X3943566Y-1426535D01*
G01X3953566Y-1436535D01*
G01Y-1515476D01*
G01X3963566Y-1525476D01*
G01X4042524D01*
G01X4052524Y-1515476D01*
G01Y-1436535D01*
G01X4062524Y-1426535D01*
G01X4138574D01*
G01X4148574Y-1436535D01*
G01Y-1707535D01*
G01X4138574Y-1717535D01*
G01X3867516D01*
G01X3857516Y-1707535D01*
G01Y-1436535D01*
G01X3867516Y-1426535D01*
G37*
G36*
G01X5061895Y764898D02*
G01X5061895Y809899D01*
G01X5054897Y814898D01*
G01X5006896D01*
G01X5001895Y809899D01*
G01Y764898D01*
G01X5006896Y759899D01*
G01X5054897D01*
G01X5061895Y764898D01*
G37*
G36*
G01X5157897Y764898D02*
G01X5157897Y809899D01*
G01X5152895Y814898D01*
G01X5104897D01*
G01X5097897Y809899D01*
G01Y764898D01*
G01X5104897Y759899D01*
G01X5152895D01*
G01X5157897Y764898D01*
G37*
G36*
G01X4152100Y-150000D02*
G01X4152100Y-104000D01*
G01X4148099Y-100000D01*
G01X4098036D01*
G01X4094036Y-104000D01*
G01Y-150000D01*
G01X4098036Y-154000D01*
G01X4148099D01*
G01X4152100Y-150000D01*
G37*
G36*
G01X4179100Y-150000D02*
G01X4179100Y-104000D01*
G01X4183101Y-100000D01*
G01X4233164D01*
G01X4237165Y-104000D01*
G01Y-150000D01*
G01X4233164Y-154000D01*
G01X4183101D01*
G01X4179100Y-150000D01*
G37*
G36*
G01X4152100Y-23000D02*
G01X4152100Y23000D01*
G01X4148099Y27000D01*
G01X4098036D01*
G01X4094036Y23000D01*
G01Y-23000D01*
G01X4098036Y-27000D01*
G01X4148099D01*
G01X4152100Y-23000D01*
G37*
G36*
G01X4179100Y-23000D02*
G01X4179100Y23000D01*
G01X4183101Y27000D01*
G01X4233164D01*
G01X4237165Y23000D01*
G01Y-23000D01*
G01X4233164Y-27000D01*
G01X4183101D01*
G01X4179100Y-23000D01*
G37*
G36*
G01X4152100Y104000D02*
G01X4152100Y150000D01*
G01X4148099Y154000D01*
G01X4098036D01*
G01X4094036Y150000D01*
G01Y104000D01*
G01X4098036Y100000D01*
G01X4148099D01*
G01X4152100Y104000D01*
G37*
G36*
G01X4179100Y104000D02*
G01X4179100Y150000D01*
G01X4183101Y154000D01*
G01X4233164D01*
G01X4237165Y150000D01*
G01Y104000D01*
G01X4233164Y100000D01*
G01X4183101D01*
G01X4179100Y104000D01*
G37*
G36*
G01X4152100Y231000D02*
G01X4152100Y277000D01*
G01X4148099Y281000D01*
G01X4098036D01*
G01X4094036Y277000D01*
G01Y231000D01*
G01X4098036Y227000D01*
G01X4148099D01*
G01X4152100Y231000D01*
G37*
G36*
G01X4179100Y231000D02*
G01X4179100Y277000D01*
G01X4183101Y281000D01*
G01X4233164D01*
G01X4237165Y277000D01*
G01Y231000D01*
G01X4233164Y227000D01*
G01X4183101D01*
G01X4179100Y231000D01*
G37*
G36*
G01X4152100Y358000D02*
G01X4152100Y404000D01*
G01X4148099Y408000D01*
G01X4098036D01*
G01X4094036Y404000D01*
G01Y358000D01*
G01X4098036Y354000D01*
G01X4148099D01*
G01X4152100Y358000D01*
G37*
G36*
G01X4179100Y358000D02*
G01X4179100Y404000D01*
G01X4183101Y408000D01*
G01X4233164D01*
G01X4237165Y404000D01*
G01Y358000D01*
G01X4233164Y354000D01*
G01X4183101D01*
G01X4179100Y358000D01*
G37*
G36*
G01X4152100Y485000D02*
G01X4152100Y531000D01*
G01X4148099Y535000D01*
G01X4098036D01*
G01X4094036Y531000D01*
G01Y485000D01*
G01X4098036Y481000D01*
G01X4148099D01*
G01X4152100Y485000D01*
G37*
G36*
G01X4179100Y485000D02*
G01X4179100Y531000D01*
G01X4183101Y535000D01*
G01X4233164D01*
G01X4237165Y531000D01*
G01Y485000D01*
G01X4233164Y481000D01*
G01X4183101D01*
G01X4179100Y485000D01*
G37*
G36*
G01X2509850Y-808533D02*
G01X2509850Y-853534D01*
G01X2516848Y-858533D01*
G01X2564849D01*
G01X2569850Y-853534D01*
G01Y-808533D01*
G01X2564849Y-803534D01*
G01X2516848D01*
G01X2509850Y-808533D01*
G37*
G36*
G01X2413848Y-808533D02*
G01X2413848Y-853534D01*
G01X2418849Y-858533D01*
G01X2466848D01*
G01X2473848Y-853534D01*
G01Y-808533D01*
G01X2466848Y-803534D01*
G01X2418849D01*
G01X2413848Y-808533D01*
G37*
G36*
G01X2844945Y-781035D02*
G01X2798945Y-781035D01*
G01X2794945Y-785035D01*
G01Y-835099D01*
G01X2798945Y-839099D01*
G01X2844945D01*
G01X2848945Y-835099D01*
G01Y-785035D01*
G01X2844945Y-781035D01*
G37*
G36*
G01X2844945Y-754035D02*
G01X2798945Y-754035D01*
G01X2794945Y-750034D01*
G01Y-699971D01*
G01X2798945Y-695970D01*
G01X2844945D01*
G01X2848945Y-699971D01*
G01Y-750034D01*
G01X2844945Y-754035D01*
G37*
G36*
G01X2971945Y-781035D02*
G01X2925945Y-781035D01*
G01X2921945Y-785035D01*
G01Y-835099D01*
G01X2925945Y-839099D01*
G01X2971945D01*
G01X2975945Y-835099D01*
G01Y-785035D01*
G01X2971945Y-781035D01*
G37*
G36*
G01X2971945Y-754035D02*
G01X2925945Y-754035D01*
G01X2921945Y-750034D01*
G01Y-699971D01*
G01X2925945Y-695970D01*
G01X2971945D01*
G01X2975945Y-699971D01*
G01Y-750034D01*
G01X2971945Y-754035D01*
G37*
G36*
G01X2473640Y848263D02*
G01X2473640Y893265D01*
G01X2466642Y898263D01*
G01X2418641D01*
G01X2413640Y893265D01*
G01Y848263D01*
G01X2418641Y843265D01*
G01X2466642D01*
G01X2473640Y848263D01*
G37*
G36*
G01X2569642Y848263D02*
G01X2569642Y893265D01*
G01X2564640Y898263D01*
G01X2516642D01*
G01X2509642Y893265D01*
G01Y848263D01*
G01X2516642Y843265D01*
G01X2564640D01*
G01X2569642Y848263D01*
G37*
G36*
G01X2796400Y788200D02*
G01X2842400Y788200D01*
G01X2846400Y792201D01*
G01Y842264D01*
G01X2842400Y846265D01*
G01X2796400D01*
G01X2792400Y842264D01*
G01Y792201D01*
G01X2796400Y788200D01*
G37*
G36*
G01X2796400Y761200D02*
G01X2842400Y761200D01*
G01X2846400Y757199D01*
G01Y707136D01*
G01X2842400Y703136D01*
G01X2796400D01*
G01X2792400Y707136D01*
G01Y757199D01*
G01X2796400Y761200D01*
G37*
G36*
G01X2923400Y788200D02*
G01X2969400Y788200D01*
G01X2973400Y792201D01*
G01Y842264D01*
G01X2969400Y846265D01*
G01X2923400D01*
G01X2919400Y842264D01*
G01Y792201D01*
G01X2923400Y788200D01*
G37*
G36*
G01X2923400Y761200D02*
G01X2969400Y761200D01*
G01X2973400Y757199D01*
G01Y707136D01*
G01X2969400Y703136D01*
G01X2923400D01*
G01X2919400Y707136D01*
G01Y757199D01*
G01X2923400Y761200D01*
G37*
G36*
G01X3685311Y-478112D02*
G01X3557313Y-478112D01*
G01X3552312Y-483113D01*
G01Y-598114D01*
G01X3557313Y-603113D01*
G01X3598316Y-603616D01*
G01Y-558615D01*
G01X3643315D01*
G01Y-602615D01*
G01X3685311Y-603113D01*
G01X3690312Y-598114D01*
G01Y-483113D01*
G01X3685311Y-478112D01*
G37*
G36*
G01X3685311Y-655013D02*
G01X3643315Y-655015D01*
G01Y-699513D01*
G01X3598316D01*
G01Y-655516D01*
G01X3557313Y-655013D01*
G01X3552312Y-660014D01*
G01Y-775012D01*
G01X3557313Y-780014D01*
G01X3685311D01*
G01X3690312Y-775012D01*
G01Y-660014D01*
G01X3685311Y-655013D01*
G37*
G36*
G01X4079011Y-478112D02*
G01X3951013Y-478112D01*
G01X3946012Y-483113D01*
G01Y-598114D01*
G01X3951013Y-603113D01*
G01X3992016Y-603616D01*
G01Y-558615D01*
G01X4037015D01*
G01Y-602615D01*
G01X4079011Y-603113D01*
G01X4084012Y-598114D01*
G01Y-483113D01*
G01X4079011Y-478112D01*
G37*
G36*
G01X4079011Y-655013D02*
G01X4037015Y-655015D01*
G01Y-699513D01*
G01X3992016D01*
G01Y-655516D01*
G01X3951013Y-655013D01*
G01X3946012Y-660014D01*
G01Y-775012D01*
G01X3951013Y-780014D01*
G01X4079011D01*
G01X4084012Y-775012D01*
G01Y-660014D01*
G01X4079011Y-655013D01*
G37*
G36*
G01X4282211Y-478112D02*
G01X4154213Y-478112D01*
G01X4149212Y-483113D01*
G01Y-598114D01*
G01X4154213Y-603113D01*
G01X4195216Y-603616D01*
G01Y-558615D01*
G01X4240215D01*
G01Y-602615D01*
G01X4282211Y-603113D01*
G01X4287212Y-598114D01*
G01Y-483113D01*
G01X4282211Y-478112D01*
G37*
G36*
G01X4282211Y-655013D02*
G01X4240215Y-655015D01*
G01Y-699513D01*
G01X4195216D01*
G01Y-655516D01*
G01X4154213Y-655013D01*
G01X4149212Y-660014D01*
G01Y-775012D01*
G01X4154213Y-780014D01*
G01X4282211D01*
G01X4287212Y-775012D01*
G01Y-660014D01*
G01X4282211Y-655013D01*
G37*
G36*
G01X3888511Y-478112D02*
G01X3760513Y-478112D01*
G01X3755512Y-483113D01*
G01Y-598114D01*
G01X3760513Y-603113D01*
G01X3801516Y-603616D01*
G01Y-558615D01*
G01X3846515D01*
G01Y-602615D01*
G01X3888511Y-603113D01*
G01X3893512Y-598114D01*
G01Y-483113D01*
G01X3888511Y-478112D01*
G37*
G36*
G01X3888511Y-655013D02*
G01X3846515Y-655015D01*
G01Y-699513D01*
G01X3801516D01*
G01Y-655516D01*
G01X3760513Y-655013D01*
G01X3755512Y-660014D01*
G01Y-775012D01*
G01X3760513Y-780014D01*
G01X3888511D01*
G01X3893512Y-775012D01*
G01Y-660014D01*
G01X3888511Y-655013D01*
G37*
G36*
G01X3482111Y-478112D02*
G01X3354113Y-478112D01*
G01X3349112Y-483113D01*
G01Y-598114D01*
G01X3354113Y-603113D01*
G01X3395116Y-603616D01*
G01Y-558615D01*
G01X3440115D01*
G01Y-602615D01*
G01X3482111Y-603113D01*
G01X3487112Y-598114D01*
G01Y-483113D01*
G01X3482111Y-478112D01*
G37*
G36*
G01X3482111Y-655013D02*
G01X3440115Y-655015D01*
G01Y-699513D01*
G01X3395116D01*
G01Y-655516D01*
G01X3354113Y-655013D01*
G01X3349112Y-660014D01*
G01Y-775012D01*
G01X3354113Y-780014D01*
G01X3482111D01*
G01X3487112Y-775012D01*
G01Y-660014D01*
G01X3482111Y-655013D01*
G37*
G36*
G01X3278911Y-478112D02*
G01X3150913Y-478112D01*
G01X3145912Y-483113D01*
G01Y-598114D01*
G01X3150913Y-603113D01*
G01X3191916Y-603616D01*
G01Y-558615D01*
G01X3236915D01*
G01Y-602615D01*
G01X3278911Y-603113D01*
G01X3283912Y-598114D01*
G01Y-483113D01*
G01X3278911Y-478112D01*
G37*
G36*
G01X3278911Y-655013D02*
G01X3236915Y-655015D01*
G01Y-699513D01*
G01X3191916D01*
G01Y-655516D01*
G01X3150913Y-655013D01*
G01X3145912Y-660014D01*
G01Y-775012D01*
G01X3150913Y-780014D01*
G01X3278911D01*
G01X3283912Y-775012D01*
G01Y-660014D01*
G01X3278911Y-655013D01*
G37*
G36*
G01X5069611Y1236388D02*
G01X4941613Y1236388D01*
G01X4936612Y1231387D01*
G01Y1116386D01*
G01X4941613Y1111387D01*
G01X4982616Y1110884D01*
G01Y1155885D01*
G01X5027615D01*
G01Y1111885D01*
G01X5069611Y1111387D01*
G01X5074612Y1116386D01*
G01Y1231387D01*
G01X5069611Y1236388D01*
G37*
G36*
G01X5069611Y1059487D02*
G01X5027615Y1059485D01*
G01Y1014987D01*
G01X4982616D01*
G01Y1058984D01*
G01X4941613Y1059487D01*
G01X4936612Y1054486D01*
G01Y939488D01*
G01X4941613Y934486D01*
G01X5069611D01*
G01X5074612Y939488D01*
G01Y1054486D01*
G01X5069611Y1059487D01*
G37*
G36*
G01X5161643Y1028570D02*
G01X5206644Y1028570D01*
G01X5211643Y1035568D01*
G01Y1083569D01*
G01X5206644Y1088570D01*
G01X5161643D01*
G01X5156644Y1083569D01*
G01Y1035568D01*
G01X5161643Y1028570D01*
G37*
G36*
G01X5161643Y932569D02*
G01X5206644Y932569D01*
G01X5211643Y937570D01*
G01Y985568D01*
G01X5206644Y992569D01*
G01X5161643D01*
G01X5156644Y985568D01*
G01Y937570D01*
G01X5161643Y932569D01*
G37*
G36*
G01X5161643Y1231770D02*
G01X5206644Y1231770D01*
G01X5211643Y1238768D01*
G01Y1286769D01*
G01X5206644Y1291770D01*
G01X5161643D01*
G01X5156644Y1286769D01*
G01Y1238768D01*
G01X5161643Y1231770D01*
G37*
G36*
G01X5161643Y1135769D02*
G01X5206644Y1135769D01*
G01X5211643Y1140770D01*
G01Y1188768D01*
G01X5206644Y1195769D01*
G01X5161643D01*
G01X5156644Y1188768D01*
G01Y1140770D01*
G01X5161643Y1135769D01*
G37*
G36*
G01X5069611Y2061888D02*
G01X4941613Y2061888D01*
G01X4936612Y2056887D01*
G01Y1941886D01*
G01X4941613Y1936887D01*
G01X4982616Y1936384D01*
G01Y1981385D01*
G01X5027615D01*
G01Y1937385D01*
G01X5069611Y1936887D01*
G01X5074612Y1941886D01*
G01Y2056887D01*
G01X5069611Y2061888D01*
G37*
G36*
G01X5069611Y1884987D02*
G01X5027615Y1884985D01*
G01Y1840487D01*
G01X4982616D01*
G01Y1884484D01*
G01X4941613Y1884987D01*
G01X4936612Y1879986D01*
G01Y1764988D01*
G01X4941613Y1759986D01*
G01X5069611D01*
G01X5074612Y1764988D01*
G01Y1879986D01*
G01X5069611Y1884987D01*
G37*
G36*
G01X4942978Y1406943D02*
G01X5070977Y1406943D01*
G01X5075978Y1411944D01*
G01Y1526945D01*
G01X5070977Y1531944D01*
G01X5029973Y1532447D01*
G01Y1487445D01*
G01X4984975D01*
G01Y1531446D01*
G01X4942978Y1531944D01*
G01X4937977Y1526945D01*
G01Y1411944D01*
G01X4942978Y1406943D01*
G37*
G36*
G01X4942978Y1583843D02*
G01X4984975Y1583846D01*
G01Y1628344D01*
G01X5029973D01*
G01Y1584346D01*
G01X5070977Y1583843D01*
G01X5075978Y1588845D01*
G01Y1703843D01*
G01X5070977Y1708844D01*
G01X4942978D01*
G01X4937977Y1703843D01*
G01Y1588845D01*
G01X4942978Y1583843D01*
G37*
G36*
G01X5796643Y1053970D02*
G01X5841644Y1053970D01*
G01X5846643Y1060968D01*
G01Y1108969D01*
G01X5841644Y1113970D01*
G01X5796643D01*
G01X5791644Y1108969D01*
G01Y1060968D01*
G01X5796643Y1053970D01*
G37*
G36*
G01X5796643Y957969D02*
G01X5841644Y957969D01*
G01X5846643Y962970D01*
G01Y1010968D01*
G01X5841644Y1017969D01*
G01X5796643D01*
G01X5791644Y1010968D01*
G01Y962970D01*
G01X5796643Y957969D01*
G37*
G36*
G01X4747443Y-652734D02*
G01X4747443Y-780732D01*
G01X4752444Y-785734D01*
G01X4867445D01*
G01X4872444Y-780732D01*
G01X4872947Y-739729D01*
G01X4827945D01*
G01Y-694731D01*
G01X4871946D01*
G01X4872444Y-652734D01*
G01X4867445Y-647733D01*
G01X4752444D01*
G01X4747443Y-652734D01*
G37*
G36*
G01X4962443Y-652734D02*
G01X4962446Y-694731D01*
G01X5006944D01*
G01Y-739729D01*
G01X4962946D01*
G01X4962443Y-780732D01*
G01X4967445Y-785734D01*
G01X5082443D01*
G01X5087444Y-780732D01*
G01Y-652734D01*
G01X5082443Y-647733D01*
G01X4967445D01*
G01X4962443Y-652734D01*
G37*
G36*
G01X3891145Y1900265D02*
G01X3937145Y1900265D01*
G01X3941145Y1904266D01*
G01Y1954329D01*
G01X3937145Y1958330D01*
G01X3891145D01*
G01X3887145Y1954329D01*
G01Y1904266D01*
G01X3891145Y1900265D01*
G37*
G36*
G01X3891145Y1873265D02*
G01X3937145Y1873265D01*
G01X3941145Y1869265D01*
G01Y1819201D01*
G01X3937145Y1815201D01*
G01X3891145D01*
G01X3887145Y1819201D01*
G01Y1869265D01*
G01X3891145Y1873265D01*
G37*
G36*
G01X3815997Y1862310D02*
G01X3770996Y1862310D01*
G01X3765997Y1855313D01*
G01Y1807312D01*
G01X3770996Y1802310D01*
G01X3815997D01*
G01X3820995Y1807312D01*
G01Y1855313D01*
G01X3815997Y1862310D01*
G37*
G36*
G01X3815997Y1958312D02*
G01X3770996Y1958312D01*
G01X3765997Y1953311D01*
G01Y1905312D01*
G01X3770996Y1898312D01*
G01X3815997D01*
G01X3820995Y1905312D01*
G01Y1953311D01*
G01X3815997Y1958312D01*
G37*
G36*
G01X2837045Y1887565D02*
G01X2883045Y1887565D01*
G01X2887045Y1891566D01*
G01Y1941629D01*
G01X2883045Y1945630D01*
G01X2837045D01*
G01X2833045Y1941629D01*
G01Y1891566D01*
G01X2837045Y1887565D01*
G37*
G36*
G01X2837045Y1860565D02*
G01X2883045Y1860565D01*
G01X2887045Y1856565D01*
G01Y1806501D01*
G01X2883045Y1802501D01*
G01X2837045D01*
G01X2833045Y1806501D01*
G01Y1856565D01*
G01X2837045Y1860565D01*
G37*
G36*
G01X3821900Y1475600D02*
G01X3821900Y1521600D01*
G01X3817899Y1525600D01*
G01X3767836D01*
G01X3763836Y1521600D01*
G01Y1475600D01*
G01X3767836Y1471600D01*
G01X3817899D01*
G01X3821900Y1475600D01*
G37*
G36*
G01X3848900Y1475600D02*
G01X3848900Y1521600D01*
G01X3852901Y1525600D01*
G01X3902964D01*
G01X3906965Y1521600D01*
G01Y1475600D01*
G01X3902964Y1471600D01*
G01X3852901D01*
G01X3848900Y1475600D01*
G37*
G36*
G01X3828697Y1316210D02*
G01X3783696Y1316210D01*
G01X3778697Y1309213D01*
G01Y1261212D01*
G01X3783696Y1256210D01*
G01X3828697D01*
G01X3833695Y1261212D01*
G01Y1309213D01*
G01X3828697Y1316210D01*
G37*
G36*
G01X3828697Y1412212D02*
G01X3783696Y1412212D01*
G01X3778697Y1407211D01*
G01Y1359212D01*
G01X3783696Y1352212D01*
G01X3828697D01*
G01X3833695Y1359212D01*
G01Y1407211D01*
G01X3828697Y1412212D01*
G37*
G36*
G01X2837045Y1354165D02*
G01X2883045Y1354165D01*
G01X2887045Y1358166D01*
G01Y1408229D01*
G01X2883045Y1412230D01*
G01X2837045D01*
G01X2833045Y1408229D01*
G01Y1358166D01*
G01X2837045Y1354165D01*
G37*
G36*
G01X2837045Y1327165D02*
G01X2883045Y1327165D01*
G01X2887045Y1323165D01*
G01Y1273101D01*
G01X2883045Y1269101D01*
G01X2837045D01*
G01X2833045Y1273101D01*
G01Y1323165D01*
G01X2837045Y1327165D01*
G37*
G36*
G01X1453205Y2194202D02*
G01X1453205Y2149201D01*
G01X1460203Y2144202D01*
G01X1508204D01*
G01X1513205Y2149201D01*
G01Y2194202D01*
G01X1508204Y2199201D01*
G01X1460203D01*
G01X1453205Y2194202D01*
G37*
G36*
G01X1357203Y2194202D02*
G01X1357203Y2149201D01*
G01X1362205Y2144202D01*
G01X1410203D01*
G01X1417203Y2149201D01*
G01Y2194202D01*
G01X1410203Y2199201D01*
G01X1362205D01*
G01X1357203Y2194202D01*
G37*
G36*
G01X339501Y1742265D02*
G01X339501Y1787266D01*
G01X332504Y1792265D01*
G01X284503D01*
G01X279502Y1787266D01*
G01Y1742265D01*
G01X284503Y1737266D01*
G01X332504D01*
G01X339501Y1742265D01*
G37*
G36*
G01X435503Y1742265D02*
G01X435503Y1787266D01*
G01X430502Y1792265D01*
G01X382504D01*
G01X375503Y1787266D01*
G01Y1742265D01*
G01X382504Y1737266D01*
G01X430502D01*
G01X435503Y1742265D01*
G37*
G36*
G01X337495Y1628498D02*
G01X337495Y1673499D01*
G01X330497Y1678498D01*
G01X282496D01*
G01X277495Y1673499D01*
G01Y1628498D01*
G01X282496Y1623499D01*
G01X330497D01*
G01X337495Y1628498D01*
G37*
G36*
G01X433497Y1628498D02*
G01X433497Y1673499D01*
G01X428495Y1678498D01*
G01X380497D01*
G01X373497Y1673499D01*
G01Y1628498D01*
G01X380497Y1623499D01*
G01X428495D01*
G01X433497Y1628498D01*
G37*
G36*
G01X1463398Y1910405D02*
G01X1508399Y1910405D01*
G01X1513398Y1917403D01*
G01Y1965404D01*
G01X1508399Y1970405D01*
G01X1463398D01*
G01X1458399Y1965404D01*
G01Y1917403D01*
G01X1463398Y1910405D01*
G37*
G36*
G01X1463398Y1814403D02*
G01X1508399Y1814403D01*
G01X1513398Y1819405D01*
G01Y1867403D01*
G01X1508399Y1874403D01*
G01X1463398D01*
G01X1458399Y1867403D01*
G01Y1819405D01*
G01X1463398Y1814403D01*
G37*
G36*
G01X2316805Y1876702D02*
G01X2316805Y1831701D01*
G01X2323803Y1826702D01*
G01X2371804D01*
G01X2376805Y1831701D01*
G01Y1876702D01*
G01X2371804Y1881701D01*
G01X2323803D01*
G01X2316805Y1876702D01*
G37*
G36*
G01X2220803Y1876702D02*
G01X2220803Y1831701D01*
G01X2225805Y1826702D01*
G01X2273803D01*
G01X2280803Y1831701D01*
G01Y1876702D01*
G01X2273803Y1881701D01*
G01X2225805D01*
G01X2220803Y1876702D01*
G37*
G36*
G01X2316805Y1978302D02*
G01X2316805Y1933301D01*
G01X2323803Y1928302D01*
G01X2371804D01*
G01X2376805Y1933301D01*
G01Y1978302D01*
G01X2371804Y1983301D01*
G01X2323803D01*
G01X2316805Y1978302D01*
G37*
G36*
G01X2220803Y1978302D02*
G01X2220803Y1933301D01*
G01X2225805Y1928302D01*
G01X2273803D01*
G01X2280803Y1933301D01*
G01Y1978302D01*
G01X2273803Y1983301D01*
G01X2225805D01*
G01X2220803Y1978302D01*
G37*
G36*
G01X1127402Y-30805D02*
G01X1082401Y-30805D01*
G01X1077402Y-37803D01*
G01Y-85804D01*
G01X1082401Y-90805D01*
G01X1127402D01*
G01X1132401Y-85804D01*
G01Y-37803D01*
G01X1127402Y-30805D01*
G37*
G36*
G01X1127402Y65197D02*
G01X1082401Y65197D01*
G01X1077402Y60195D01*
G01Y12197D01*
G01X1082401Y5197D01*
G01X1127402D01*
G01X1132401Y12197D01*
G01Y60195D01*
G01X1127402Y65197D01*
G37*
G36*
G01X318095Y2130125D02*
G01X289168Y2164598D01*
G01X280595Y2163929D01*
G01X243824Y2133075D01*
G01X243206Y2126031D01*
G01X272132Y2091558D01*
G01X279176Y2090943D01*
G01X315947Y2121798D01*
G01X318095Y2130125D01*
G37*
G36*
G01X391636Y2191834D02*
G01X362710Y2226307D01*
G01X355666Y2226921D01*
G01X318897Y2196068D01*
G01X316747Y2187739D01*
G01X345674Y2153266D01*
G01X354249Y2153937D01*
G01X391018Y2184790D01*
G01X391636Y2191834D01*
G37*
G36*
G01X508595Y1914225D02*
G01X479668Y1948698D01*
G01X471095Y1948029D01*
G01X434324Y1917175D01*
G01X433706Y1910131D01*
G01X462632Y1875658D01*
G01X469676Y1875043D01*
G01X506447Y1905898D01*
G01X508595Y1914225D01*
G37*
G36*
G01X582136Y1975934D02*
G01X553210Y2010407D01*
G01X546166Y2011021D01*
G01X509397Y1980168D01*
G01X507247Y1971839D01*
G01X536174Y1937366D01*
G01X544749Y1938037D01*
G01X581518Y1968890D01*
G01X582136Y1975934D01*
G37*
G36*
G01X566095Y739498D02*
G01X566095Y784499D01*
G01X559097Y789498D01*
G01X511096D01*
G01X506095Y784499D01*
G01Y739498D01*
G01X511096Y734499D01*
G01X559097D01*
G01X566095Y739498D01*
G37*
G36*
G01X662097Y739498D02*
G01X662097Y784499D01*
G01X657095Y789498D01*
G01X609097D01*
G01X602097Y784499D01*
G01Y739498D01*
G01X609097Y734499D01*
G01X657095D01*
G01X662097Y739498D01*
G37*
G36*
G01X18105Y2372002D02*
G01X18105Y2327001D01*
G01X25103Y2322002D01*
G01X73104D01*
G01X78105Y2327001D01*
G01Y2372002D01*
G01X73104Y2377001D01*
G01X25103D01*
G01X18105Y2372002D01*
G37*
G36*
G01X-77897Y2372002D02*
G01X-77897Y2327001D01*
G01X-72895Y2322002D01*
G01X-24897D01*
G01X-17897Y2327001D01*
G01Y2372002D01*
G01X-24897Y2377001D01*
G01X-72895D01*
G01X-77897Y2372002D01*
G37*
G36*
G01X18105Y1864002D02*
G01X18105Y1819001D01*
G01X25103Y1814002D01*
G01X73104D01*
G01X78105Y1819001D01*
G01Y1864002D01*
G01X73104Y1869001D01*
G01X25103D01*
G01X18105Y1864002D01*
G37*
G36*
G01X-77897Y1864002D02*
G01X-77897Y1819001D01*
G01X-72895Y1814002D01*
G01X-24897D01*
G01X-17897Y1819001D01*
G01Y1864002D01*
G01X-24897Y1869001D01*
G01X-72895D01*
G01X-77897Y1864002D01*
G37*
G36*
G01X18105Y1368702D02*
G01X18105Y1323701D01*
G01X25103Y1318702D01*
G01X73104D01*
G01X78105Y1323701D01*
G01Y1368702D01*
G01X73104Y1373701D01*
G01X25103D01*
G01X18105Y1368702D01*
G37*
G36*
G01X-77897Y1368702D02*
G01X-77897Y1323701D01*
G01X-72895Y1318702D01*
G01X-24897D01*
G01X-17897Y1323701D01*
G01Y1368702D01*
G01X-24897Y1373701D01*
G01X-72895D01*
G01X-77897Y1368702D01*
G37*
G36*
G01X15658Y871372D02*
G01X15658Y826371D01*
G01X22655Y821372D01*
G01X70656D01*
G01X75657Y826371D01*
G01Y871372D01*
G01X70656Y876371D01*
G01X22655D01*
G01X15658Y871372D01*
G37*
G36*
G01X-80344Y871372D02*
G01X-80344Y826371D01*
G01X-75343Y821372D01*
G01X-27345D01*
G01X-20344Y826371D01*
G01Y871372D01*
G01X-27345Y876371D01*
G01X-75343D01*
G01X-80344Y871372D01*
G37*
G36*
G01X20650Y372567D02*
G01X20650Y327566D01*
G01X27648Y322567D01*
G01X75649D01*
G01X80650Y327566D01*
G01Y372567D01*
G01X75649Y377566D01*
G01X27648D01*
G01X20650Y372567D01*
G37*
G36*
G01X-75352Y372567D02*
G01X-75352Y327566D01*
G01X-70351Y322567D01*
G01X-22352D01*
G01X-15352Y327566D01*
G01Y372567D01*
G01X-22352Y377566D01*
G01X-70351D01*
G01X-75352Y372567D01*
G37*
G36*
G01X16404Y-133188D02*
G01X16404Y-178189D01*
G01X23402Y-183188D01*
G01X71403D01*
G01X76404Y-178189D01*
G01Y-133188D01*
G01X71403Y-128189D01*
G01X23402D01*
G01X16404Y-133188D01*
G37*
G36*
G01X-79598Y-133188D02*
G01X-79598Y-178189D01*
G01X-74596Y-183188D01*
G01X-26598D01*
G01X-19598Y-178189D01*
G01Y-133188D01*
G01X-26598Y-128189D01*
G01X-74596D01*
G01X-79598Y-133188D01*
G37*
G36*
G01X20650Y-630733D02*
G01X20650Y-675734D01*
G01X27648Y-680733D01*
G01X75649D01*
G01X80650Y-675734D01*
G01Y-630733D01*
G01X75649Y-625734D01*
G01X27648D01*
G01X20650Y-630733D01*
G37*
G36*
G01X-75352Y-630733D02*
G01X-75352Y-675734D01*
G01X-70351Y-680733D01*
G01X-22352D01*
G01X-15352Y-675734D01*
G01Y-630733D01*
G01X-22352Y-625734D01*
G01X-70351D01*
G01X-75352Y-630733D01*
G37*
G36*
G01X14452Y-1136488D02*
G01X14452Y-1181489D01*
G01X21450Y-1186488D01*
G01X69451D01*
G01X74452Y-1181489D01*
G01Y-1136488D01*
G01X69451Y-1131489D01*
G01X21450D01*
G01X14452Y-1136488D01*
G37*
G36*
G01X-81549Y-1136488D02*
G01X-81549Y-1181489D01*
G01X-76548Y-1186488D01*
G01X-28550D01*
G01X-21550Y-1181489D01*
G01Y-1136488D01*
G01X-28550Y-1131489D01*
G01X-76548D01*
G01X-81549Y-1136488D01*
G37*
G36*
G01X18105Y-1628498D02*
G01X18105Y-1673499D01*
G01X25103Y-1678498D01*
G01X73104D01*
G01X78105Y-1673499D01*
G01Y-1628498D01*
G01X73104Y-1623499D01*
G01X25103D01*
G01X18105Y-1628498D01*
G37*
G36*
G01X-77897Y-1628498D02*
G01X-77897Y-1673499D01*
G01X-72895Y-1678498D01*
G01X-24897D01*
G01X-17897Y-1673499D01*
G01Y-1628498D01*
G01X-24897Y-1623499D01*
G01X-72895D01*
G01X-77897Y-1628498D01*
G37*
G36*
G01X18105Y-2136498D02*
G01X18105Y-2181499D01*
G01X25103Y-2186498D01*
G01X73104D01*
G01X78105Y-2181499D01*
G01Y-2136498D01*
G01X73104Y-2131499D01*
G01X25103D01*
G01X18105Y-2136498D01*
G37*
G36*
G01X-77897Y-2136498D02*
G01X-77897Y-2181499D01*
G01X-72895Y-2186498D01*
G01X-24897D01*
G01X-17897Y-2181499D01*
G01Y-2136498D01*
G01X-24897Y-2131499D01*
G01X-72895D01*
G01X-77897Y-2136498D01*
G37*
G36*
G01X2236945Y-839676D02*
G01X2236945Y-822394D01*
G01X2210082Y-804034D01*
G01X2160435D01*
G01X2156434Y-808035D01*
G01Y-854034D01*
G01X2160435Y-858035D01*
G01X2210082D01*
G01X2236945Y-839676D01*
G37*
G36*
G01X2263945Y-839676D02*
G01X2263945Y-822394D01*
G01X2290808Y-804034D01*
G01X2340455D01*
G01X2344455Y-808035D01*
G01Y-854034D01*
G01X2340455Y-858035D01*
G01X2290808D01*
G01X2263945Y-839676D01*
G37*
G36*
G01X5715145Y1022365D02*
G01X5669145Y1022365D01*
G01X5665145Y1018365D01*
G01Y968301D01*
G01X5669145Y964301D01*
G01X5715145D01*
G01X5719145Y968301D01*
G01Y1018365D01*
G01X5715145Y1022365D01*
G37*
G36*
G01X5715145Y1049365D02*
G01X5669145Y1049365D01*
G01X5665145Y1053366D01*
G01Y1103429D01*
G01X5669145Y1107430D01*
G01X5715145D01*
G01X5719145Y1103429D01*
G01Y1053366D01*
G01X5715145Y1049365D01*
G37*
G36*
G01X5715145Y1238265D02*
G01X5669145Y1238265D01*
G01X5665145Y1234265D01*
G01Y1184201D01*
G01X5669145Y1180201D01*
G01X5715145D01*
G01X5719145Y1184201D01*
G01Y1234265D01*
G01X5715145Y1238265D01*
G37*
G36*
G01X5715145Y1265265D02*
G01X5669145Y1265265D01*
G01X5665145Y1269266D01*
G01Y1319329D01*
G01X5669145Y1323330D01*
G01X5715145D01*
G01X5719145Y1319329D01*
G01Y1269266D01*
G01X5715145Y1265265D01*
G37*
G36*
G01X5450045Y-1095334D02*
G01X5450045Y-1049335D01*
G01X5446044Y-1045334D01*
G01X5395981D01*
G01X5391980Y-1049335D01*
G01Y-1095334D01*
G01X5395981Y-1099335D01*
G01X5446044D01*
G01X5450045Y-1095334D01*
G37*
G36*
G01X5477045Y-1095334D02*
G01X5477045Y-1049335D01*
G01X5481045Y-1045334D01*
G01X5531109D01*
G01X5535109Y-1049335D01*
G01Y-1095334D01*
G01X5531109Y-1099335D01*
G01X5481045D01*
G01X5477045Y-1095334D01*
G37*
G36*
G01X5450045Y-1222334D02*
G01X5450045Y-1176335D01*
G01X5446044Y-1172334D01*
G01X5395981D01*
G01X5391980Y-1176335D01*
G01Y-1222334D01*
G01X5395981Y-1226335D01*
G01X5446044D01*
G01X5450045Y-1222334D01*
G37*
G36*
G01X5477045Y-1222334D02*
G01X5477045Y-1176335D01*
G01X5481045Y-1172334D01*
G01X5531109D01*
G01X5535109Y-1176335D01*
G01Y-1222334D01*
G01X5531109Y-1226335D01*
G01X5481045D01*
G01X5477045Y-1222334D01*
G37*
G36*
G01X5477045Y-1455735D02*
G01X5477045Y-1501734D01*
G01X5481045Y-1505735D01*
G01X5531109D01*
G01X5535109Y-1501734D01*
G01Y-1455735D01*
G01X5531109Y-1451734D01*
G01X5481045D01*
G01X5477045Y-1455735D01*
G37*
G36*
G01X5450045Y-1455735D02*
G01X5450045Y-1501734D01*
G01X5446044Y-1505735D01*
G01X5395981D01*
G01X5391980Y-1501734D01*
G01Y-1455735D01*
G01X5395981Y-1451734D01*
G01X5446044D01*
G01X5450045Y-1455735D01*
G37*
G36*
G01X1448600Y2080400D02*
G01X1448600Y2034400D01*
G01X1452601Y2030400D01*
G01X1502664D01*
G01X1506665Y2034400D01*
G01Y2080400D01*
G01X1502664Y2084400D01*
G01X1452601D01*
G01X1448600Y2080400D01*
G37*
G36*
G01X1421600Y2080400D02*
G01X1421600Y2034400D01*
G01X1417599Y2030400D01*
G01X1367536D01*
G01X1363536Y2034400D01*
G01Y2080400D01*
G01X1367536Y2084400D01*
G01X1417599D01*
G01X1421600Y2080400D01*
G37*
G36*
G01X1361300Y1905800D02*
G01X1407300Y1905800D01*
G01X1411300Y1909801D01*
G01Y1959864D01*
G01X1407300Y1963865D01*
G01X1361300D01*
G01X1357300Y1959864D01*
G01Y1909801D01*
G01X1361300Y1905800D01*
G37*
G36*
G01X1361300Y1878800D02*
G01X1407300Y1878800D01*
G01X1411300Y1874799D01*
G01Y1824736D01*
G01X1407300Y1820736D01*
G01X1361300D01*
G01X1357300Y1824736D01*
G01Y1874799D01*
G01X1361300Y1878800D01*
G37*
G36*
G01X1196200Y800D02*
G01X1242200Y800D01*
G01X1246200Y4801D01*
G01Y54864D01*
G01X1242200Y58865D01*
G01X1196200D01*
G01X1192200Y54864D01*
G01Y4801D01*
G01X1196200Y800D01*
G37*
G36*
G01X1196200Y-26200D02*
G01X1242200Y-26200D01*
G01X1246200Y-30201D01*
G01Y-80264D01*
G01X1242200Y-84264D01*
G01X1196200D01*
G01X1192200Y-80264D01*
G01Y-30201D01*
G01X1196200Y-26200D01*
G37*
G36*
G01X1026300Y-26200D02*
G01X980300Y-26200D01*
G01X976300Y-30201D01*
G01Y-80264D01*
G01X980300Y-84264D01*
G01X1026300D01*
G01X1030300Y-80264D01*
G01Y-30201D01*
G01X1026300Y-26200D01*
G37*
G36*
G01X1026300Y800D02*
G01X980300Y800D01*
G01X976300Y4801D01*
G01Y54864D01*
G01X980300Y58865D01*
G01X1026300D01*
G01X1030300Y54864D01*
G01Y4801D01*
G01X1026300Y800D01*
G37*
G36*
G01X470796Y2087242D02*
G01X435559Y2057674D01*
G01X435066Y2052038D01*
G01X467246Y2013688D01*
G01X472882Y2013194D01*
G01X508120Y2042762D01*
G01X508613Y2048398D01*
G01X476433Y2086749D01*
G01X470796Y2087242D01*
G37*
G36*
G01X453441Y2107926D02*
G01X418204Y2078358D01*
G01X412567Y2078851D01*
G01X380387Y2117202D01*
G01X380880Y2122838D01*
G01X416118Y2152406D01*
G01X421754Y2151912D01*
G01X453934Y2113562D01*
G01X453441Y2107926D01*
G37*
G36*
G01X597700Y670700D02*
G01X597700Y624700D01*
G01X601701Y620700D01*
G01X651764D01*
G01X655765Y624700D01*
G01Y670700D01*
G01X651764Y674700D01*
G01X601701D01*
G01X597700Y670700D01*
G37*
G36*
G01X570700Y670700D02*
G01X570700Y624700D01*
G01X566699Y620700D01*
G01X516636D01*
G01X512636Y624700D01*
G01Y670700D01*
G01X516636Y674700D01*
G01X566699D01*
G01X570700Y670700D01*
G37*
G36*
G01X4916045Y-1156233D02*
G01X4876144Y-1156233D01*
G01Y-1216233D01*
G01X4916144D01*
G01X4916045Y-1156233D01*
G37*
G36*
G01X4981044Y-1156221D02*
G01X4941143Y-1156221D01*
G01Y-1216221D01*
G01X4981143D01*
G01X4981044Y-1156221D01*
G37*
G36*
G01X5046042Y-1156221D02*
G01X5006142Y-1156221D01*
G01Y-1216221D01*
G01X5046142D01*
G01X5046042Y-1156221D01*
G37*
G36*
G01X5111066Y-1156221D02*
G01X5071166Y-1156221D01*
G01Y-1216221D01*
G01X5111166D01*
G01X5111066Y-1156221D01*
G37*
G36*
G01X4876134Y-896737D02*
G01X4876134Y-852233D01*
G01X4916134D01*
G01Y-896737D01*
G01X4941133D01*
G01Y-852233D01*
G01X4981133D01*
G01Y-896737D01*
G01X5006131D01*
G01Y-852233D01*
G01X5046131D01*
G01Y-896737D01*
G01X5071155D01*
G01Y-852233D01*
G01X5111155D01*
G01Y-896737D01*
G01X5123645D01*
G01Y-1101735D01*
G01X4863645D01*
G01Y-896737D01*
G01X4876134D01*
G37*
G36*
G01X5071244Y-1331336D02*
G01X5111145Y-1331336D01*
G01Y-1271336D01*
G01X5071145D01*
G01X5071244Y-1331336D01*
G37*
G36*
G01X5006246Y-1331349D02*
G01X5046147Y-1331349D01*
G01Y-1271349D01*
G01X5006147D01*
G01X5006246Y-1331349D01*
G37*
G36*
G01X4941247Y-1331349D02*
G01X4981148Y-1331349D01*
G01Y-1271349D01*
G01X4941148D01*
G01X4941247Y-1331349D01*
G37*
G36*
G01X4876223Y-1331349D02*
G01X4916124Y-1331349D01*
G01Y-1271349D01*
G01X4876124D01*
G01X4876223Y-1331349D01*
G37*
G36*
G01X5111155Y-1590832D02*
G01X5111155Y-1635336D01*
G01X5071155D01*
G01Y-1590832D01*
G01X5046157D01*
G01Y-1635336D01*
G01X5006157D01*
G01Y-1590832D01*
G01X4981158D01*
G01Y-1635336D01*
G01X4941158D01*
G01Y-1590832D01*
G01X4916134D01*
G01Y-1635336D01*
G01X4876134D01*
G01Y-1590832D01*
G01X4863645D01*
G01Y-1385834D01*
G01X5123645D01*
G01Y-1590832D01*
G01X5111155D01*
G37*
G36*
G01X18105Y-2314298D02*
G01X18105Y-2359299D01*
G01X25103Y-2364298D01*
G01X73104D01*
G01X78105Y-2359299D01*
G01Y-2314298D01*
G01X73104Y-2309299D01*
G01X25103D01*
G01X18105Y-2314298D01*
G37*
G36*
G01X-77897Y-2314298D02*
G01X-77897Y-2359299D01*
G01X-72895Y-2364298D01*
G01X-24897D01*
G01X-17897Y-2359299D01*
G01Y-2314298D01*
G01X-24897Y-2309299D01*
G01X-72895D01*
G01X-77897Y-2314298D01*
G37*
G36*
G01X2545405Y1089302D02*
G01X2545405Y1044301D01*
G01X2552403Y1039302D01*
G01X2600404D01*
G01X2605405Y1044301D01*
G01Y1089302D01*
G01X2600404Y1094301D01*
G01X2552403D01*
G01X2545405Y1089302D01*
G37*
G36*
G01X2449403Y1089302D02*
G01X2449403Y1044301D01*
G01X2454405Y1039302D01*
G01X2502403D01*
G01X2509403Y1044301D01*
G01Y1089302D01*
G01X2502403Y1094301D01*
G01X2454405D01*
G01X2449403Y1089302D01*
G37*
G36*
G01X802998Y1897705D02*
G01X847999Y1897705D01*
G01X852998Y1904703D01*
G01Y1952704D01*
G01X847999Y1957705D01*
G01X802998D01*
G01X797999Y1952704D01*
G01Y1904703D01*
G01X802998Y1897705D01*
G37*
G36*
G01X802998Y1801703D02*
G01X847999Y1801703D01*
G01X852998Y1806705D01*
G01Y1854703D01*
G01X847999Y1861703D01*
G01X802998D01*
G01X797999Y1854703D01*
G01Y1806705D01*
G01X802998Y1801703D01*
G37*
G36*
G01X2545405Y1648102D02*
G01X2545405Y1603101D01*
G01X2552403Y1598102D01*
G01X2600404D01*
G01X2605405Y1603101D01*
G01Y1648102D01*
G01X2600404Y1653101D01*
G01X2552403D01*
G01X2545405Y1648102D01*
G37*
G36*
G01X2449403Y1648102D02*
G01X2449403Y1603101D01*
G01X2454405Y1598102D01*
G01X2502403D01*
G01X2509403Y1603101D01*
G01Y1648102D01*
G01X2502403Y1653101D01*
G01X2454405D01*
G01X2449403Y1648102D01*
G37*
G36*
G01X2545405Y1533802D02*
G01X2545405Y1488801D01*
G01X2552403Y1483802D01*
G01X2600404D01*
G01X2605405Y1488801D01*
G01Y1533802D01*
G01X2600404Y1538801D01*
G01X2552403D01*
G01X2545405Y1533802D01*
G37*
G36*
G01X2449403Y1533802D02*
G01X2449403Y1488801D01*
G01X2454405Y1483802D01*
G01X2502403D01*
G01X2509403Y1488801D01*
G01Y1533802D01*
G01X2502403Y1538801D01*
G01X2454405D01*
G01X2449403Y1533802D01*
G37*
G36*
G01X2545405Y1432202D02*
G01X2545405Y1387201D01*
G01X2552403Y1382202D01*
G01X2600404D01*
G01X2605405Y1387201D01*
G01Y1432202D01*
G01X2600404Y1437201D01*
G01X2552403D01*
G01X2545405Y1432202D01*
G37*
G36*
G01X2449403Y1432202D02*
G01X2449403Y1387201D01*
G01X2454405Y1382202D01*
G01X2502403D01*
G01X2509403Y1387201D01*
G01Y1432202D01*
G01X2502403Y1437201D01*
G01X2454405D01*
G01X2449403Y1432202D01*
G37*
G36*
G01X2545405Y1330602D02*
G01X2545405Y1285601D01*
G01X2552403Y1280602D01*
G01X2600404D01*
G01X2605405Y1285601D01*
G01Y1330602D01*
G01X2600404Y1335601D01*
G01X2552403D01*
G01X2545405Y1330602D01*
G37*
G36*
G01X2449403Y1330602D02*
G01X2449403Y1285601D01*
G01X2454405Y1280602D01*
G01X2502403D01*
G01X2509403Y1285601D01*
G01Y1330602D01*
G01X2502403Y1335601D01*
G01X2454405D01*
G01X2449403Y1330602D01*
G37*
G36*
G01X2545405Y1229002D02*
G01X2545405Y1184001D01*
G01X2552403Y1179002D01*
G01X2600404D01*
G01X2605405Y1184001D01*
G01Y1229002D01*
G01X2600404Y1234001D01*
G01X2552403D01*
G01X2545405Y1229002D01*
G37*
G36*
G01X2449403Y1229002D02*
G01X2449403Y1184001D01*
G01X2454405Y1179002D01*
G01X2502403D01*
G01X2509403Y1184001D01*
G01Y1229002D01*
G01X2502403Y1234001D01*
G01X2454405D01*
G01X2449403Y1229002D01*
G37*
G36*
G01X608800Y-23000D02*
G01X608800Y23000D01*
G01X604799Y27000D01*
G01X554736D01*
G01X550736Y23000D01*
G01Y-23000D01*
G01X554736Y-27000D01*
G01X604799D01*
G01X608800Y-23000D01*
G37*
G36*
G01X635800Y-23000D02*
G01X635800Y23000D01*
G01X639801Y27000D01*
G01X689864D01*
G01X693865Y23000D01*
G01Y-23000D01*
G01X689864Y-27000D01*
G01X639801D01*
G01X635800Y-23000D01*
G37*
G36*
G01X608800Y78600D02*
G01X608800Y124600D01*
G01X604799Y128600D01*
G01X554736D01*
G01X550736Y124600D01*
G01Y78600D01*
G01X554736Y74600D01*
G01X604799D01*
G01X608800Y78600D01*
G37*
G36*
G01X635800Y78600D02*
G01X635800Y124600D01*
G01X639801Y128600D01*
G01X689864D01*
G01X693865Y124600D01*
G01Y78600D01*
G01X689864Y74600D01*
G01X639801D01*
G01X635800Y78600D01*
G37*
G36*
G01X4355300Y-23000D02*
G01X4355300Y23000D01*
G01X4351299Y27000D01*
G01X4301236D01*
G01X4297236Y23000D01*
G01Y-23000D01*
G01X4301236Y-27000D01*
G01X4351299D01*
G01X4355300Y-23000D01*
G37*
G36*
G01X4382300Y-23000D02*
G01X4382300Y23000D01*
G01X4386301Y27000D01*
G01X4436364D01*
G01X4440365Y23000D01*
G01Y-23000D01*
G01X4436364Y-27000D01*
G01X4386301D01*
G01X4382300Y-23000D01*
G37*
G36*
G01X4355300Y-150000D02*
G01X4355300Y-104000D01*
G01X4351299Y-100000D01*
G01X4301236D01*
G01X4297236Y-104000D01*
G01Y-150000D01*
G01X4301236Y-154000D01*
G01X4351299D01*
G01X4355300Y-150000D01*
G37*
G36*
G01X4382300Y-150000D02*
G01X4382300Y-104000D01*
G01X4386301Y-100000D01*
G01X4436364D01*
G01X4440365Y-104000D01*
G01Y-150000D01*
G01X4436364Y-154000D01*
G01X4386301D01*
G01X4382300Y-150000D01*
G37*
G36*
G01X4355300Y104000D02*
G01X4355300Y150000D01*
G01X4351299Y154000D01*
G01X4301236D01*
G01X4297236Y150000D01*
G01Y104000D01*
G01X4301236Y100000D01*
G01X4351299D01*
G01X4355300Y104000D01*
G37*
G36*
G01X4382300Y104000D02*
G01X4382300Y150000D01*
G01X4386301Y154000D01*
G01X4436364D01*
G01X4440365Y150000D01*
G01Y104000D01*
G01X4436364Y100000D01*
G01X4386301D01*
G01X4382300Y104000D01*
G37*
G36*
G01X4355300Y231000D02*
G01X4355300Y277000D01*
G01X4351299Y281000D01*
G01X4301236D01*
G01X4297236Y277000D01*
G01Y231000D01*
G01X4301236Y227000D01*
G01X4351299D01*
G01X4355300Y231000D01*
G37*
G36*
G01X4382300Y231000D02*
G01X4382300Y277000D01*
G01X4386301Y281000D01*
G01X4436364D01*
G01X4440365Y277000D01*
G01Y231000D01*
G01X4436364Y227000D01*
G01X4386301D01*
G01X4382300Y231000D01*
G37*
G36*
G01X4355300Y358000D02*
G01X4355300Y404000D01*
G01X4351299Y408000D01*
G01X4301236D01*
G01X4297236Y404000D01*
G01Y358000D01*
G01X4301236Y354000D01*
G01X4351299D01*
G01X4355300Y358000D01*
G37*
G36*
G01X4382300Y358000D02*
G01X4382300Y404000D01*
G01X4386301Y408000D01*
G01X4436364D01*
G01X4440365Y404000D01*
G01Y358000D01*
G01X4436364Y354000D01*
G01X4386301D01*
G01X4382300Y358000D01*
G37*
G36*
G01X4355300Y485000D02*
G01X4355300Y531000D01*
G01X4351299Y535000D01*
G01X4301236D01*
G01X4297236Y531000D01*
G01Y485000D01*
G01X4301236Y481000D01*
G01X4351299D01*
G01X4355300Y485000D01*
G37*
G36*
G01X4382300Y485000D02*
G01X4382300Y531000D01*
G01X4386301Y535000D01*
G01X4436364D01*
G01X4440365Y531000D01*
G01Y485000D01*
G01X4436364Y481000D01*
G01X4386301D01*
G01X4382300Y485000D01*
G37*
G36*
G01X4674400Y-2517000D02*
G01X4674400Y-2563000D01*
G01X4678401Y-2567000D01*
G01X4728464D01*
G01X4732465Y-2563000D01*
G01Y-2517000D01*
G01X4728464Y-2513000D01*
G01X4678401D01*
G01X4674400Y-2517000D01*
G37*
G36*
G01X4647400Y-2517000D02*
G01X4647400Y-2563000D01*
G01X4643399Y-2567000D01*
G01X4593336D01*
G01X4589336Y-2563000D01*
G01Y-2517000D01*
G01X4593336Y-2513000D01*
G01X4643399D01*
G01X4647400Y-2517000D01*
G37*
G36*
G01X4874400Y-2502700D02*
G01X4828400Y-2502700D01*
G01X4824400Y-2506701D01*
G01Y-2556764D01*
G01X4828400Y-2560764D01*
G01X4874400D01*
G01X4878400Y-2556764D01*
G01Y-2506701D01*
G01X4874400Y-2502700D01*
G37*
G36*
G01X4874400Y-2475700D02*
G01X4828400Y-2475700D01*
G01X4824400Y-2471699D01*
G01Y-2421636D01*
G01X4828400Y-2417635D01*
G01X4874400D01*
G01X4878400Y-2421636D01*
G01Y-2471699D01*
G01X4874400Y-2475700D01*
G37*
G36*
G01X4433100Y-2402700D02*
G01X4433100Y-2448700D01*
G01X4437101Y-2452700D01*
G01X4487164D01*
G01X4491165Y-2448700D01*
G01Y-2402700D01*
G01X4487164Y-2398700D01*
G01X4437101D01*
G01X4433100Y-2402700D01*
G37*
G36*
G01X4406100Y-2402700D02*
G01X4406100Y-2448700D01*
G01X4402099Y-2452700D01*
G01X4352036D01*
G01X4348036Y-2448700D01*
G01Y-2402700D01*
G01X4352036Y-2398700D01*
G01X4402099D01*
G01X4406100Y-2402700D01*
G37*
G36*
G01X4433100Y-2517000D02*
G01X4433100Y-2563000D01*
G01X4437101Y-2567000D01*
G01X4487164D01*
G01X4491165Y-2563000D01*
G01Y-2517000D01*
G01X4487164Y-2513000D01*
G01X4437101D01*
G01X4433100Y-2517000D01*
G37*
G36*
G01X4406100Y-2517000D02*
G01X4406100Y-2563000D01*
G01X4402099Y-2567000D01*
G01X4352036D01*
G01X4348036Y-2563000D01*
G01Y-2517000D01*
G01X4352036Y-2513000D01*
G01X4402099D01*
G01X4406100Y-2517000D01*
G37*
G36*
G01X2168802Y705795D02*
G01X2123801Y705795D01*
G01X2118802Y698797D01*
G01Y650796D01*
G01X2123801Y645795D01*
G01X2168802D01*
G01X2173801Y650796D01*
G01Y698797D01*
G01X2168802Y705795D01*
G37*
G36*
G01X2168802Y801797D02*
G01X2123801Y801797D01*
G01X2118802Y796795D01*
G01Y748797D01*
G01X2123801Y741797D01*
G01X2168802D01*
G01X2173801Y748797D01*
G01Y796795D01*
G01X2168802Y801797D01*
G37*
G36*
G01X4689695Y-568602D02*
G01X4689695Y-523601D01*
G01X4682697Y-518602D01*
G01X4634696D01*
G01X4629695Y-523601D01*
G01Y-568602D01*
G01X4634696Y-573601D01*
G01X4682697D01*
G01X4689695Y-568602D01*
G37*
G36*
G01X4785697Y-568602D02*
G01X4785697Y-523601D01*
G01X4780696Y-518602D01*
G01X4732697D01*
G01X4725697Y-523601D01*
G01Y-568602D01*
G01X4732697Y-573601D01*
G01X4780696D01*
G01X4785697Y-568602D01*
G37*
G36*
G01X4913895Y-573002D02*
G01X4913895Y-528001D01*
G01X4906897Y-523002D01*
G01X4858896D01*
G01X4853895Y-528001D01*
G01Y-573002D01*
G01X4858896Y-578001D01*
G01X4906897D01*
G01X4913895Y-573002D01*
G37*
G36*
G01X5009897Y-573002D02*
G01X5009897Y-528001D01*
G01X5004896Y-523002D01*
G01X4956897D01*
G01X4949897Y-528001D01*
G01Y-573002D01*
G01X4956897Y-578001D01*
G01X5004896D01*
G01X5009897Y-573002D01*
G37*
G36*
G01X5125395Y-581302D02*
G01X5125395Y-536301D01*
G01X5118397Y-531302D01*
G01X5070396D01*
G01X5065395Y-536301D01*
G01Y-581302D01*
G01X5070396Y-586301D01*
G01X5118397D01*
G01X5125395Y-581302D01*
G37*
G36*
G01X5221397Y-581302D02*
G01X5221397Y-536301D01*
G01X5216395Y-531302D01*
G01X5168397D01*
G01X5161397Y-536301D01*
G01Y-581302D01*
G01X5168397Y-586301D01*
G01X5216395D01*
G01X5221397Y-581302D01*
G37*
G36*
G01X1704236Y1594782D02*
G01X1704236Y1162782D01*
G01X2136236D01*
G01Y1594782D01*
G01X1704236D01*
G37*
G36*
G01X1659227Y1688765D02*
G01X1631226Y1688765D01*
G01Y1768765D01*
G01X1659227D01*
G01Y1688765D01*
G37*
G36*
G01X1709244Y1688760D02*
G01X1681241Y1688760D01*
G01Y1768759D01*
G01X1709244D01*
G01Y1688760D01*
G37*
G36*
G01X1759232Y1688757D02*
G01X1731228Y1688757D01*
G01Y1768757D01*
G01X1759232D01*
G01Y1688757D01*
G37*
G36*
G01X1809244Y1688757D02*
G01X1781243Y1688757D01*
G01Y1768757D01*
G01X1809244D01*
G01Y1688757D01*
G37*
G36*
G01X1859226Y1688765D02*
G01X1831225Y1688765D01*
G01Y1768765D01*
G01X1859226D01*
G01Y1688765D01*
G37*
G36*
G01X1909252Y1688734D02*
G01X1881256Y1688734D01*
G01Y1768732D01*
G01X1909252D01*
G01Y1688734D01*
G37*
G36*
G01X1959226Y1688762D02*
G01X1931228Y1688762D01*
G01Y1768762D01*
G01X1959226D01*
G01Y1688762D01*
G37*
G36*
G01X2009241Y1688729D02*
G01X1981243Y1688729D01*
G01Y1768726D01*
G01X2009241D01*
G01Y1688729D01*
G37*
G36*
G01X2059229Y1688739D02*
G01X2031230Y1688739D01*
G01Y1768742D01*
G01X2059229D01*
G01Y1688739D01*
G37*
G36*
G01X2109239Y1688762D02*
G01X2081240Y1688762D01*
G01Y1768762D01*
G01X2109239D01*
G01Y1688762D01*
G37*
G36*
G01X2159228Y1688762D02*
G01X2131230Y1688762D01*
G01Y1768759D01*
G01X2159228D01*
G01Y1688762D01*
G37*
G36*
G01X2209238Y1688760D02*
G01X2181240Y1688760D01*
G01Y1768759D01*
G01X2209238D01*
G01Y1688760D01*
G37*
G36*
G01X2209246Y988748D02*
G01X2181248Y988748D01*
G01Y1068748D01*
G01X2209246D01*
G01Y988748D01*
G37*
G36*
G01X2159239Y988751D02*
G01X2131235Y988751D01*
G01Y1068748D01*
G01X2159239D01*
G01Y988751D01*
G37*
G36*
G01X2109244Y988751D02*
G01X2081245Y988751D01*
G01Y1068751D01*
G01X2109244D01*
G01Y988751D01*
G37*
G36*
G01X2059231Y988728D02*
G01X2031233Y988728D01*
G01Y1068730D01*
G01X2059231D01*
G01Y988728D01*
G37*
G36*
G01X2009249Y988720D02*
G01X1981251Y988720D01*
G01Y1068718D01*
G01X2009249D01*
G01Y988720D01*
G37*
G36*
G01X1959236Y988751D02*
G01X1931233Y988751D01*
G01Y1068751D01*
G01X1959236D01*
G01Y988751D01*
G37*
G36*
G01X1909259Y988723D02*
G01X1881261Y988723D01*
G01Y1068720D01*
G01X1909259D01*
G01Y988723D01*
G37*
G36*
G01X1859229Y988753D02*
G01X1831231Y988753D01*
G01Y1068753D01*
G01X1859229D01*
G01Y988753D01*
G37*
G36*
G01X1809252Y988746D02*
G01X1781248Y988746D01*
G01Y1068746D01*
G01X1809252D01*
G01Y988746D01*
G37*
G36*
G01X1759234Y988746D02*
G01X1731231Y988746D01*
G01Y1068746D01*
G01X1759234D01*
G01Y988746D01*
G37*
G36*
G01X1709250Y988748D02*
G01X1681246Y988748D01*
G01Y1068748D01*
G01X1709250D01*
G01Y988748D01*
G37*
G36*
G01X1659232Y988753D02*
G01X1631228Y988753D01*
G01Y1068753D01*
G01X1659232D01*
G01Y988753D01*
G37*
G36*
G01X2230219Y1089713D02*
G01X2230219Y1117712D01*
G01X2310216D01*
G01Y1089713D01*
G01X2230219D01*
G37*
G36*
G01X2230219Y1139726D02*
G01X2230219Y1167724D01*
G01X2310216D01*
G01Y1139726D01*
G01X2230219D01*
G37*
G36*
G01X2230219Y1189703D02*
G01X2230219Y1217701D01*
G01X2310216D01*
G01Y1189703D01*
G01X2230219D01*
G37*
G36*
G01X2230196Y1239721D02*
G01X2230196Y1267719D01*
G01X2310198D01*
G01Y1239721D01*
G01X2230196D01*
G37*
G36*
G01X2230196Y1289715D02*
G01X2230196Y1317714D01*
G01X2310193D01*
G01Y1289715D01*
G01X2230196D01*
G37*
G36*
G01X2230219Y1339728D02*
G01X2230219Y1367727D01*
G01X2310216D01*
G01Y1339728D01*
G01X2230219D01*
G37*
G36*
G01X2230196Y1389703D02*
G01X2230196Y1417698D01*
G01X2310193D01*
G01Y1389703D01*
G01X2230196D01*
G37*
G36*
G01X2230219Y1439720D02*
G01X2230219Y1467721D01*
G01X2310221D01*
G01Y1439720D01*
G01X2230219D01*
G37*
G36*
G01X2230219Y1489713D02*
G01X2230219Y1517711D01*
G01X2310216D01*
G01Y1489713D01*
G01X2230219D01*
G37*
G36*
G01X2230219Y1539710D02*
G01X2230219Y1567729D01*
G01X2310216D01*
G01Y1539710D01*
G01X2230219D01*
G37*
G36*
G01X2230219Y1589705D02*
G01X2230219Y1617706D01*
G01X2310216D01*
G01Y1589705D01*
G01X2230219D01*
G37*
G36*
G01X2230219Y1639722D02*
G01X2230219Y1667723D01*
G01X2310221D01*
G01Y1639722D01*
G01X2230219D01*
G37*
G36*
G01X1530228Y1089731D02*
G01X1530228Y1117730D01*
G01X1610225D01*
G01Y1089731D01*
G01X1530228D01*
G37*
G36*
G01X1530228Y1139731D02*
G01X1530228Y1167732D01*
G01X1610225D01*
G01Y1139731D01*
G01X1530228D01*
G37*
G36*
G01X1530228Y1189726D02*
G01X1530228Y1217724D01*
G01X1610235D01*
G01Y1189726D01*
G01X1530228D01*
G37*
G36*
G01X1530205Y1239738D02*
G01X1530205Y1267737D01*
G01X1610212D01*
G01Y1239738D01*
G01X1530205D01*
G37*
G36*
G01X1530200Y1289728D02*
G01X1530200Y1317727D01*
G01X1610197D01*
G01Y1289728D01*
G01X1530200D01*
G37*
G36*
G01X1530228Y1339733D02*
G01X1530228Y1367734D01*
G01X1610235D01*
G01Y1339733D01*
G01X1530228D01*
G37*
G36*
G01X1530200Y1389718D02*
G01X1530200Y1417706D01*
G01X1610197D01*
G01Y1389718D01*
G01X1530200D01*
G37*
G36*
G01X1530241Y1439741D02*
G01X1530241Y1467744D01*
G01X1610235D01*
G01Y1439741D01*
G01X1530241D01*
G37*
G36*
G01X1530223Y1489718D02*
G01X1530223Y1517719D01*
G01X1610225D01*
G01Y1489718D01*
G01X1530223D01*
G37*
G36*
G01X1530223Y1539735D02*
G01X1530223Y1567734D01*
G01X1610225D01*
G01Y1539735D01*
G01X1530223D01*
G37*
G36*
G01X1530228Y1589725D02*
G01X1530228Y1617729D01*
G01X1610225D01*
G01Y1589725D01*
G01X1530228D01*
G37*
G36*
G01X1530241Y1639743D02*
G01X1530241Y1667741D01*
G01X1610235D01*
G01Y1639743D01*
G01X1530241D01*
G37*
G36*
G01X672983Y1155591D02*
G01X1104984Y1155591D01*
G01Y1587591D01*
G01X672983D01*
G01Y1155591D01*
G37*
G36*
G01X579001Y1110582D02*
G01X579001Y1082581D01*
G01X499001D01*
G01Y1110582D01*
G01X579001D01*
G37*
G36*
G01X579006Y1160600D02*
G01X579006Y1132596D01*
G01X499006D01*
G01Y1160600D01*
G01X579006D01*
G37*
G36*
G01X579008Y1210587D02*
G01X579008Y1182583D01*
G01X499008D01*
G01Y1210587D01*
G01X579008D01*
G37*
G36*
G01X579008Y1260599D02*
G01X579008Y1232599D01*
G01X499008D01*
G01Y1260599D01*
G01X579008D01*
G37*
G36*
G01X579001Y1310582D02*
G01X579001Y1282581D01*
G01X499001D01*
G01Y1310582D01*
G01X579001D01*
G37*
G36*
G01X579031Y1360607D02*
G01X579031Y1332611D01*
G01X499034D01*
G01Y1360607D01*
G01X579031D01*
G37*
G36*
G01X579003Y1410581D02*
G01X579003Y1382583D01*
G01X499003D01*
G01Y1410581D01*
G01X579003D01*
G37*
G36*
G01X579036Y1460597D02*
G01X579036Y1432598D01*
G01X499039D01*
G01Y1460597D01*
G01X579036D01*
G37*
G36*
G01X579026Y1510584D02*
G01X579026Y1482585D01*
G01X499024D01*
G01Y1510584D01*
G01X579026D01*
G37*
G36*
G01X579003Y1560594D02*
G01X579003Y1532595D01*
G01X499003D01*
G01Y1560594D01*
G01X579003D01*
G37*
G36*
G01X579003Y1610584D02*
G01X579003Y1582585D01*
G01X499006D01*
G01Y1610584D01*
G01X579003D01*
G37*
G36*
G01X579006Y1660594D02*
G01X579006Y1632595D01*
G01X499006D01*
G01Y1660594D01*
G01X579006D01*
G37*
G36*
G01X1279017Y1660601D02*
G01X1279017Y1632603D01*
G01X1199017D01*
G01Y1660601D01*
G01X1279017D01*
G37*
G36*
G01X1279014Y1610594D02*
G01X1279014Y1582590D01*
G01X1199017D01*
G01Y1610594D01*
G01X1279014D01*
G37*
G36*
G01X1279014Y1560599D02*
G01X1279014Y1532600D01*
G01X1199015D01*
G01Y1560599D01*
G01X1279014D01*
G37*
G36*
G01X1279037Y1510586D02*
G01X1279037Y1482588D01*
G01X1199035D01*
G01Y1510586D01*
G01X1279037D01*
G37*
G36*
G01X1279045Y1460604D02*
G01X1279045Y1432606D01*
G01X1199048D01*
G01Y1460604D01*
G01X1279045D01*
G37*
G36*
G01X1279014Y1410592D02*
G01X1279014Y1382588D01*
G01X1199015D01*
G01Y1410592D01*
G01X1279014D01*
G37*
G36*
G01X1279042Y1360615D02*
G01X1279042Y1332616D01*
G01X1199045D01*
G01Y1360615D01*
G01X1279042D01*
G37*
G36*
G01X1279012Y1310584D02*
G01X1279012Y1282586D01*
G01X1199012D01*
G01Y1310584D01*
G01X1279012D01*
G37*
G36*
G01X1279020Y1260607D02*
G01X1279020Y1232604D01*
G01X1199020D01*
G01Y1260607D01*
G01X1279020D01*
G37*
G36*
G01X1279020Y1210589D02*
G01X1279020Y1182586D01*
G01X1199020D01*
G01Y1210589D01*
G01X1279020D01*
G37*
G36*
G01X1279017Y1160605D02*
G01X1279017Y1132601D01*
G01X1199017D01*
G01Y1160605D01*
G01X1279017D01*
G37*
G36*
G01X1279012Y1110587D02*
G01X1279012Y1082584D01*
G01X1199012D01*
G01Y1110587D01*
G01X1279012D01*
G37*
G36*
G01X1178052Y1681574D02*
G01X1150054Y1681574D01*
G01Y1761571D01*
G01X1178052D01*
G01Y1681574D01*
G37*
G36*
G01X1128039Y1681574D02*
G01X1100041Y1681574D01*
G01Y1761571D01*
G01X1128039D01*
G01Y1681574D01*
G37*
G36*
G01X1078062Y1681574D02*
G01X1050064Y1681574D01*
G01Y1761571D01*
G01X1078062D01*
G01Y1681574D01*
G37*
G36*
G01X1028045Y1681551D02*
G01X1000046Y1681551D01*
G01Y1761554D01*
G01X1028045D01*
G01Y1681551D01*
G37*
G36*
G01X978050Y1681551D02*
G01X950051Y1681551D01*
G01Y1761548D01*
G01X978050D01*
G01Y1681551D01*
G37*
G36*
G01X928037Y1681574D02*
G01X900039Y1681574D01*
G01Y1761571D01*
G01X928037D01*
G01Y1681574D01*
G37*
G36*
G01X878063Y1681551D02*
G01X850067Y1681551D01*
G01Y1761548D01*
G01X878063D01*
G01Y1681551D01*
G37*
G36*
G01X828045Y1681574D02*
G01X800044Y1681574D01*
G01Y1761576D01*
G01X828045D01*
G01Y1681574D01*
G37*
G36*
G01X778053Y1681574D02*
G01X750054Y1681574D01*
G01Y1761571D01*
G01X778053D01*
G01Y1681574D01*
G37*
G36*
G01X728055Y1681574D02*
G01X700037Y1681574D01*
G01Y1761571D01*
G01X728055D01*
G01Y1681574D01*
G37*
G36*
G01X678061Y1681574D02*
G01X650060Y1681574D01*
G01Y1761571D01*
G01X678061D01*
G01Y1681574D01*
G37*
G36*
G01X628043Y1681574D02*
G01X600042Y1681574D01*
G01Y1761576D01*
G01X628043D01*
G01Y1681574D01*
G37*
G36*
G01X1178034Y981583D02*
G01X1150036Y981583D01*
G01Y1061580D01*
G01X1178034D01*
G01Y981583D01*
G37*
G36*
G01X1128034Y981583D02*
G01X1100033Y981583D01*
G01Y1061580D01*
G01X1128034D01*
G01Y981583D01*
G37*
G36*
G01X1078040Y981583D02*
G01X1050041Y981583D01*
G01Y1061590D01*
G01X1078040D01*
G01Y981583D01*
G37*
G36*
G01X1028027Y981560D02*
G01X1000028Y981560D01*
G01Y1061568D01*
G01X1028027D01*
G01Y981560D01*
G37*
G36*
G01X978037Y981555D02*
G01X950039Y981555D01*
G01Y1061552D01*
G01X978037D01*
G01Y981555D01*
G37*
G36*
G01X928032Y981583D02*
G01X900031Y981583D01*
G01Y1061590D01*
G01X928032D01*
G01Y981583D01*
G37*
G36*
G01X878048Y981555D02*
G01X850059Y981555D01*
G01Y1061552D01*
G01X878048D01*
G01Y981555D01*
G37*
G36*
G01X828025Y981596D02*
G01X800021Y981596D01*
G01Y1061590D01*
G01X828025D01*
G01Y981596D01*
G37*
G36*
G01X778048Y981578D02*
G01X750047Y981578D01*
G01Y1061580D01*
G01X778048D01*
G01Y981578D01*
G37*
G36*
G01X728030Y981578D02*
G01X700032Y981578D01*
G01Y1061580D01*
G01X728030D01*
G01Y981578D01*
G37*
G36*
G01X678040Y981583D02*
G01X650037Y981583D01*
G01Y1061580D01*
G01X678040D01*
G01Y981583D01*
G37*
G36*
G01X628023Y981596D02*
G01X600024Y981596D01*
G01Y1061590D01*
G01X628023D01*
G01Y981596D01*
G37*
G04 PolygonModel End*

G04 Pad Start*
G54D10*
G01X4663445Y-414894D03*
G01X4663445Y-180376D03*
G54D11*
G01X4879345Y-414894D03*
G01X4879345Y-180376D03*
G01X5080000Y-422059D03*
G01X5080000Y-187541D03*
G54D12*
G01X4599538Y599062D03*
G01X4664537Y599062D03*
G01X4729536Y599062D03*
G01X4794534Y599062D03*
G01X4859558Y599062D03*
G01X4924557Y599062D03*
G01X4989555Y599062D03*
G01X5054554Y599062D03*
G01X5119553Y599062D03*
G01X5184551Y599062D03*
G01X4599538Y24869D03*
G01X4664537Y24869D03*
G01X4729536Y24869D03*
G01X4794534Y24869D03*
G01X4859558Y24869D03*
G01X4924557Y24869D03*
G01X4989555Y24869D03*
G01X5054554Y24869D03*
G01X5119553Y24869D03*
G01X5184551Y24869D03*
G54D13*
G01X3683792Y-123937D03*
G01X3683792Y-188935D03*
G01X3683792Y-253934D03*
G01X3683792Y-318933D03*
G54D14*
G01X3908290Y-221244D03*
G54D13*
G01X3112292Y-123937D03*
G01X3112292Y-188935D03*
G01X3112292Y-253934D03*
G01X3112292Y-318933D03*
G54D14*
G01X3336790Y-221244D03*
G54D13*
G01X3683792Y257063D03*
G01X3683792Y192065D03*
G01X3683792Y127066D03*
G01X3683792Y62067D03*
G54D14*
G01X3908290Y159756D03*
G54D13*
G01X3112292Y257063D03*
G01X3112292Y192065D03*
G01X3112292Y127066D03*
G01X3112292Y62067D03*
G54D14*
G01X3336790Y159756D03*
G54D13*
G01X3681247Y630898D03*
G01X3681247Y565899D03*
G01X3681247Y500901D03*
G01X3681247Y435902D03*
G54D14*
G01X3905745Y533591D03*
G54D13*
G01X3099592Y625363D03*
G01X3099592Y560365D03*
G01X3099592Y495366D03*
G01X3099592Y430367D03*
G54D14*
G01X3324090Y528056D03*
G54D15*
G01X2301245Y-83835D03*
G01X2428245Y-83835D03*
G01X2555245Y-83835D03*
G01X2682245Y-83835D03*
G01X2301245Y-663834D03*
G01X2428245Y-663834D03*
G01X2555245Y-663834D03*
G01X2682245Y-663834D03*
G54D16*
G01X2682245Y136266D03*
G01X2555245Y136266D03*
G01X2428245Y136266D03*
G01X2301245Y136266D03*
G01X2682245Y716265D03*
G01X2555245Y716265D03*
G01X2428245Y716265D03*
G01X2301245Y716265D03*
G54D18*
G01X4107045Y1577889D03*
G01X4407045Y1577889D03*
G36*
G01X4352028Y1213945D02*
G01X4352028Y1399365D01*
G01X4351921Y1403817D01*
G01X4351609Y1408260D01*
G01X4351088Y1412685D01*
G01X4350362Y1417079D01*
G01X4349427Y1421435D01*
G01X4348292Y1425740D01*
G01X4346956Y1429990D01*
G01X4345422Y1434170D01*
G01X4343692Y1438275D01*
G01X4341774Y1442296D01*
G01X4339668Y1446220D01*
G01X4337380Y1450043D01*
G01X4334916Y1453754D01*
G01X4332282Y1457345D01*
G01X4329483Y1460807D01*
G01X4326521Y1464137D01*
G01X4323410Y1467322D01*
G01X4320151Y1470360D01*
G01X4316755Y1473241D01*
G01X4313227Y1475958D01*
G01X4309575Y1478509D01*
G01X4305808Y1480884D01*
G01X4301932Y1483081D01*
G01X4297959Y1485095D01*
G01X4290029Y1486919D01*
G01Y1656652D01*
G01X4224030D01*
G01Y1486919D01*
G01X4216095Y1485095D01*
G01X4212122Y1483081D01*
G01X4208246Y1480884D01*
G01X4204480Y1478509D01*
G01X4200827Y1475958D01*
G01X4197299Y1473241D01*
G01X4193903Y1470360D01*
G01X4190644Y1467322D01*
G01X4187533Y1464137D01*
G01X4184571Y1460807D01*
G01X4181772Y1457345D01*
G01X4179138Y1453754D01*
G01X4176674Y1450043D01*
G01X4174386Y1446220D01*
G01X4172280Y1442296D01*
G01X4170362Y1438275D01*
G01X4168633Y1434170D01*
G01X4167098Y1429990D01*
G01X4165762Y1425740D01*
G01X4164627Y1421435D01*
G01X4163692Y1417079D01*
G01X4162966Y1412685D01*
G01X4162445Y1408260D01*
G01X4162133Y1403817D01*
G01X4162026Y1399365D01*
G01Y1213945D01*
G01X4162133Y1209492D01*
G01X4162445Y1205050D01*
G01X4162966Y1200625D01*
G01X4163692Y1196231D01*
G01X4164627Y1191875D01*
G01X4165762Y1187569D01*
G01X4167098Y1183320D01*
G01X4168633Y1179139D01*
G01X4170362Y1175034D01*
G01X4172280Y1171014D01*
G01X4174386Y1167089D01*
G01X4176674Y1163267D01*
G01X4179138Y1159556D01*
G01X4181772Y1155964D01*
G01X4184571Y1152502D01*
G01X4187533Y1149172D01*
G01X4190644Y1145987D01*
G01X4193903Y1142949D01*
G01X4197299Y1140069D01*
G01X4200827Y1137351D01*
G01X4204480Y1134801D01*
G01X4208246Y1132426D01*
G01X4212122Y1130229D01*
G01X4216095Y1128215D01*
G01X4220159Y1126391D01*
G01X4224302Y1124758D01*
G01X4228518Y1123323D01*
G01X4232798Y1122086D01*
G01X4237131Y1121052D01*
G01X4241505Y1120221D01*
G01X4245917Y1119596D01*
G01X4250352Y1119180D01*
G01X4254799Y1118972D01*
G01X4259255D01*
G01X4263702Y1119180D01*
G01X4268137Y1119596D01*
G01X4272549Y1120221D01*
G01X4276923Y1121052D01*
G01X4281256Y1122086D01*
G01X4285536Y1123323D01*
G01X4289752Y1124758D01*
G01X4293895Y1126391D01*
G01X4297959Y1128215D01*
G01X4301932Y1130229D01*
G01X4305808Y1132426D01*
G01X4309575Y1134801D01*
G01X4313227Y1137351D01*
G01X4316755Y1140069D01*
G01X4320151Y1142949D01*
G01X4323410Y1145987D01*
G01X4326521Y1149172D01*
G01X4329483Y1152502D01*
G01X4332282Y1155964D01*
G01X4334916Y1159556D01*
G01X4337380Y1163267D01*
G01X4339668Y1167089D01*
G01X4341774Y1171014D01*
G01X4343692Y1175034D01*
G01X4345422Y1179139D01*
G01X4346956Y1183320D01*
G01X4348292Y1187569D01*
G01X4349427Y1191875D01*
G01X4350362Y1196231D01*
G01X4351088Y1200625D01*
G01X4351609Y1205050D01*
G01X4351921Y1209492D01*
G01X4352028Y1213945D01*
G37*
G54D19*
G01X5553054Y1181661D03*
G01X5553054Y1086665D03*
G01X5553054Y991669D03*
G01X5323235Y991669D03*
G01X5323235Y1086665D03*
G01X5323235Y1181661D03*
G54D20*
G01X5566415Y1969366D03*
G01X5563875Y1499365D03*
G54D21*
G01X5488381Y237287D03*
G01X6119419Y-12700D03*
G01X5488381Y-262687D03*
G54D22*
G01X5346286Y-932635D03*
G01X5580804Y-932635D03*
G01X5346286Y-1339035D03*
G01X5580804Y-1339035D03*
G54D23*
G01X3623594Y2089965D03*
G01X3623594Y1962965D03*
G01X3623594Y1835965D03*
G01X3623594Y1708965D03*
G01X3087095Y2089965D03*
G01X3087095Y1962965D03*
G01X3087095Y1835965D03*
G01X3087095Y1708965D03*
G01X3636294Y1531165D03*
G01X3636294Y1404165D03*
G01X3636294Y1277165D03*
G01X3636294Y1150165D03*
G01X3099795Y1531165D03*
G01X3099795Y1404165D03*
G01X3099795Y1277165D03*
G01X3099795Y1150165D03*
G54D24*
G01X3773246Y2305865D03*
G54D25*
G01X3623244Y2305865D03*
G54D26*
G01X3029133Y2348956D03*
G01X3129132Y2348956D03*
G01X3229132Y2348956D03*
G01X3329132Y2348956D03*
G01X3429132Y2348956D03*
G01X3529132Y2348956D03*
G54D27*
G01X2918160Y2719974D03*
G01X3640130Y2719974D03*
G54D28*
G01X810209Y2146300D03*
G01X1247191Y2146300D03*
G54D29*
G01X4776546Y2305865D03*
G54D25*
G01X4626544Y2305865D03*
G54D26*
G01X4007033Y2348956D03*
G01X4107032Y2348956D03*
G01X4207032Y2348956D03*
G01X4307032Y2348956D03*
G01X4407032Y2348956D03*
G01X4507032Y2348956D03*
G54D27*
G01X3896060Y2719974D03*
G01X4618030Y2719974D03*
G54D30*
G01X1352745Y375465D03*
G01X582744Y375465D03*
G01X1352745Y-361135D03*
G01X582744Y-361135D03*
G54D31*
G01X829894Y668706D03*
G01X744906Y668706D03*
G01X829894Y753669D03*
G01X744906Y753694D03*
G01X45039Y2457506D03*
G01X-39949Y2457506D03*
G01X45039Y2542469D03*
G01X-39949Y2542494D03*
G01X42494Y1957506D03*
G01X-42494Y1957506D03*
G01X42494Y2042469D03*
G01X-42494Y2042494D03*
G01X42494Y1457506D03*
G01X-42494Y1457506D03*
G01X42494Y1542469D03*
G01X-42494Y1542494D03*
G01X42494Y957506D03*
G01X-42494Y957506D03*
G01X42494Y1042469D03*
G01X-42494Y1042494D03*
G01X42494Y457506D03*
G01X-42494Y457506D03*
G01X42494Y542469D03*
G01X-42494Y542494D03*
G01X42494Y-42494D03*
G01X-42494Y-42494D03*
G01X42494Y42469D03*
G01X-42494Y42494D03*
G01X42494Y-542494D03*
G01X-42494Y-542494D03*
G01X42494Y-457531D03*
G01X-42494Y-457506D03*
G01X42494Y-1042494D03*
G01X-42494Y-1042494D03*
G01X42494Y-957531D03*
G01X-42494Y-957506D03*
G01X42494Y-1542494D03*
G01X-42494Y-1542494D03*
G01X42494Y-1457531D03*
G01X-42494Y-1457506D03*
G01X45039Y-2042494D03*
G01X-39949Y-2042494D03*
G01X45039Y-1957531D03*
G01X-39949Y-1957506D03*
G54D32*
G01X4409445Y1758965D03*
G01X4409445Y1912965D03*
G54D33*
G01X4117345Y1758965D03*
G01X4117345Y1912965D03*
G54D31*
G01X42494Y-2542494D03*
G01X-42494Y-2542494D03*
G01X42494Y-2457531D03*
G01X-42494Y-2457506D03*
G54D34*
G01X4813300Y-2069353D03*
G54D35*
G01X4615434Y-2167611D03*
G01X4615409Y-2102587D03*
G01X4615409Y-2037588D03*
G01X4615409Y-1972589D03*
G54D36*
G01X4286499Y-2223201D03*
G01X4381495Y-1993199D03*
G01X4476501Y-2223201D03*
G54D24*
G01X4740897Y-2425700D03*
G54D25*
G01X4580903Y-2425700D03*
G54D37*
G01X3632200Y-1133500D03*
G01X3632200Y-1533500D03*
G54D38*
G01X277099Y2997200D03*
G01X815101Y2997200D03*
G54D39*
G01X5575300Y597700D03*
G01X5575300Y443700D03*
G04 Pad End*

M02*
