G04 Layer: BottomSolderMaskLayer*
G04 EasyEDA Pro v2.1.49.1.de255bc8.674264, 2024-06-01 15:44:05*
G04 Gerber Generator version 0.3*
G04 Scale: 100 percent, Rotated: No, Reflected: No*
G04 Dimensions in millimeters*
G04 Leading zeros omitted, absolute positions, 3 integers and 5 decimals*
%FSLAX35Y35*%
%MOMM*%
%AMRoundRect*1,1,$1,$2,$3*1,1,$1,$4,$5*1,1,$1,0-$2,0-$3*1,1,$1,0-$4,0-$5*20,1,$1,$2,$3,$4,$5,0*20,1,$1,$4,$5,0-$2,0-$3,0*20,1,$1,0-$2,0-$3,0-$4,0-$5,0*20,1,$1,0-$4,0-$5,$2,$3,0*4,1,4,$2,$3,$4,$5,0-$2,0-$3,0-$4,0-$5,$2,$3,0*%
%AMOval*1,1,$1,$2,$3*1,1,$1,$4,$5*20,1,$1,$2,$3,$4,$5,0*%
%ADD10C,0.7116*%
%ADD11RoundRect,0.0911X0.38046X0.50545X0.38046X-0.50545*%
%ADD12RoundRect,0.0911X0.38046X0.50545X0.38046X-0.50545*%
%ADD13O,0.46601X1.84401*%
%ADD14RoundRect,0.08184X-0.3841X-0.1841X-0.3841X0.1841*%
%ADD15Oval,0.802X0.0X-0.5X0.0X0.5*%
%ADD16O,0.802X1.802*%
%ADD17RoundRect,0.09012X-0.34194X-0.79344X-0.34194X0.79344*%
%ADD18C,2.602*%
%ADD19C,1.9024*%
%ADD20C,1.902*%
%ADD21RoundRect,0.08787X0.54307X0.27307X0.54307X-0.27307*%
%ADD22RoundRect,0.09828X-1.45696X-1.45666X-1.45696X1.45666*%
%ADD23RoundRect,0.09815X-2.85192X-1.25192X-2.85192X1.25192*%
%ADD24RoundRect,0.09551X-1.40324X-0.70324X-1.40324X0.70324*%
%ADD25RoundRect,0.0911X0.50545X-0.38046X-0.50545X-0.38046*%
%ADD26O,1.967X0.732*%
%ADD27RoundRect,0.08875X0.30643X-0.30643X-0.30643X-0.30643*%
%ADD28RoundRect,0.08875X-0.30643X0.30643X0.30643X0.30643*%
%ADD29RoundRect,0.08891X-0.35556X0.88056X0.35556X0.88056*%
%ADD30RoundRect,0.09288X-0.60357X1.27858X0.60357X1.27858*%
%ADD31RoundRect,0.09475X-0.61863X0.68362X0.61863X0.68362*%
%ADD32RoundRect,0.08875X0.30643X-0.30643X-0.30643X-0.30643*%
%ADD33RoundRect,0.09598X0.90301X-0.76501X-0.90301X-0.76501*%
%ADD34RoundRect,0.08609X0.23296X-0.23296X-0.23296X-0.23296*%
%ADD35RoundRect,0.08771X0.28977X-0.27695X-0.28977X-0.27695*%
%ADD36RoundRect,0.08771X0.27695X0.28977X0.27695X-0.28977*%
%ADD37RoundRect,0.08771X-0.27695X-0.28977X-0.27695X0.28977*%
%ADD38RoundRect,0.09403X0.67879X0.58379X0.67879X-0.58379*%
%ADD39RoundRect,0.09403X0.67879X0.58379X0.67879X-0.58379*%
%ADD40RoundRect,0.09164X0.45518X0.40518X0.45518X-0.40518*%
%ADD41RoundRect,0.09164X0.45518X0.40518X0.45518X-0.40518*%
%ADD42RoundRect,0.08875X0.30643X0.30643X0.30643X-0.30643*%
%ADD43RoundRect,0.09403X-0.67879X-0.58379X-0.67879X0.58379*%
%ADD44RoundRect,0.09387X-0.57013X0.69237X0.57013X0.69237*%
%ADD45RoundRect,0.08875X-0.30643X-0.30643X-0.30643X0.30643*%
%ADD46RoundRect,0.08875X-0.4317X0.03777X0.03777X0.4317*%
%ADD47RoundRect,0.08771X0.40199X-0.27695X-0.40199X-0.27695*%
%ADD48RoundRect,0.08771X-0.28977X0.27695X0.28977X0.27695*%
%ADD49RoundRect,0.08771X0.02589X0.4X0.39842X-0.04396*%
%ADD50RoundRect,0.09702X1.30229X-1.02729X-1.30229X-1.02729*%
%ADD51RoundRect,0.08449X-0.20856X0.30856X0.20856X0.30856*%
%ADD52RoundRect,0.09702X-1.30229X1.02729X1.30229X1.02729*%
%ADD53RoundRect,0.08449X0.20856X-0.30856X-0.20856X-0.30856*%
%ADD54RoundRect,0.08322X-0.2844X-0.1844X-0.2844X0.1844*%
%ADD55RoundRect,0.09164X-0.40518X-0.50518X-0.40518X0.50518*%
%ADD56RoundRect,0.08906X0.30647X-0.30647X-0.30647X-0.30647*%
%ADD57RoundRect,0.08906X-0.30647X0.30647X0.30647X0.30647*%
%ADD58RoundRect,0.09681X0.90259X1.00259X0.90259X-1.00259*%
%ADD59RoundRect,0.0959X-0.75305X1.10305X0.75305X1.10305*%
%ADD60RoundRect,0.09164X-0.45518X-0.40518X-0.45518X0.40518*%
%ADD61RoundRect,0.08024X0.41068X0.15069X0.41068X-0.15069*%
%ADD62RoundRect,0.08024X0.15069X0.41068X0.15069X-0.41068*%
%ADD63RoundRect,0.09976X2.70092X2.70092X2.70092X-2.70092*%
%ADD64RoundRect,0.08024X-0.15069X0.41068X0.15069X0.41068*%
%ADD65RoundRect,0.08024X-0.41068X0.15069X0.41068X0.15069*%
%ADD66RoundRect,0.09976X-2.70092X2.70092X2.70092X2.70092*%
G75*


G04 Pad Start*
G54D10*
G01X4229100Y-1765300D03*
G01X4635500Y-1765300D03*
G01X5270500Y-800100D03*
G01X5969000Y2108200D03*
G01X4089400Y901700D03*
G01X5562600Y850900D03*
G54D11*
G01X4663445Y-414894D03*
G01X4663445Y-180376D03*
G54D12*
G01X4879345Y-414894D03*
G01X4879345Y-180376D03*
G01X5080000Y-422059D03*
G01X5080000Y-187541D03*
G54D13*
G01X4599538Y599062D03*
G01X4664537Y599062D03*
G01X4729536Y599062D03*
G01X4794534Y599062D03*
G01X4859558Y599062D03*
G01X4924557Y599062D03*
G01X4989555Y599062D03*
G01X5054554Y599062D03*
G01X5119553Y599062D03*
G01X5184551Y599062D03*
G01X4599538Y24869D03*
G01X4664537Y24869D03*
G01X4729536Y24869D03*
G01X4794534Y24869D03*
G01X4859558Y24869D03*
G01X4924557Y24869D03*
G01X4989555Y24869D03*
G01X5054554Y24869D03*
G01X5119553Y24869D03*
G01X5184551Y24869D03*
G54D14*
G01X3683792Y-123937D03*
G01X3683792Y-188935D03*
G01X3683792Y-253934D03*
G01X3683792Y-318933D03*
G36*
G01X3781884Y-348673D02*
G02X3776883Y-343672I0J5001D01*
G01Y-98816D01*
G02X3781884Y-93815I5001J0D01*
G01X3974670D01*
G02X3979669Y-98641I0J-5001D01*
G01X4034696D01*
G02X4039697Y-103642I0J-5001D01*
G01Y-143774D01*
G02X4034696Y-148775I-5001J0D01*
G01X3979672D01*
G01Y-163665D01*
G01X4034696D01*
G02X4039697Y-168666I0J-5001D01*
G01Y-208798D01*
G02X4034696Y-213799I-5001J0D01*
G01X3979672D01*
G01Y-228689D01*
G01X4034696D01*
G02X4039697Y-233690I0J-5001D01*
G01Y-273822D01*
G02X4034696Y-278823I-5001J0D01*
G01X3979672D01*
G01Y-293713D01*
G01X4034696D01*
G02X4039697Y-298714I0J-5001D01*
G01Y-338846D01*
G02X4034696Y-343847I-5001J0D01*
G01X3979669D01*
G02X3974670Y-348673I-4998J175D01*
G01X3781884D01*
G37*
G01X3112292Y-123937D03*
G01X3112292Y-188935D03*
G01X3112292Y-253934D03*
G01X3112292Y-318933D03*
G36*
G01X3210384Y-348673D02*
G02X3205383Y-343672I0J5001D01*
G01Y-98816D01*
G02X3210384Y-93815I5001J0D01*
G01X3403170D01*
G02X3408169Y-98641I0J-5001D01*
G01X3463196D01*
G02X3468197Y-103642I0J-5001D01*
G01Y-143774D01*
G02X3463196Y-148775I-5001J0D01*
G01X3408172D01*
G01Y-163665D01*
G01X3463196D01*
G02X3468197Y-168666I0J-5001D01*
G01Y-208798D01*
G02X3463196Y-213799I-5001J0D01*
G01X3408172D01*
G01Y-228689D01*
G01X3463196D01*
G02X3468197Y-233690I0J-5001D01*
G01Y-273822D01*
G02X3463196Y-278823I-5001J0D01*
G01X3408172D01*
G01Y-293713D01*
G01X3463196D01*
G02X3468197Y-298714I0J-5001D01*
G01Y-338846D01*
G02X3463196Y-343847I-5001J0D01*
G01X3408169D01*
G02X3403170Y-348673I-4998J175D01*
G01X3210384D01*
G37*
G01X3683792Y257063D03*
G01X3683792Y192065D03*
G01X3683792Y127066D03*
G01X3683792Y62067D03*
G36*
G01X3781884Y32327D02*
G02X3776883Y37328I0J5001D01*
G01Y282184D01*
G02X3781884Y287185I5001J0D01*
G01X3974670D01*
G02X3979669Y282359I0J-5001D01*
G01X4034696D01*
G02X4039697Y277358I0J-5001D01*
G01Y237226D01*
G02X4034696Y232225I-5001J0D01*
G01X3979672D01*
G01Y217335D01*
G01X4034696D01*
G02X4039697Y212334I0J-5001D01*
G01Y172202D01*
G02X4034696Y167201I-5001J0D01*
G01X3979672D01*
G01Y152311D01*
G01X4034696D01*
G02X4039697Y147310I0J-5001D01*
G01Y107178D01*
G02X4034696Y102177I-5001J0D01*
G01X3979672D01*
G01Y87287D01*
G01X4034696D01*
G02X4039697Y82286I0J-5001D01*
G01Y42154D01*
G02X4034696Y37153I-5001J0D01*
G01X3979669D01*
G02X3974670Y32327I-4998J175D01*
G01X3781884D01*
G37*
G01X3112292Y257063D03*
G01X3112292Y192065D03*
G01X3112292Y127066D03*
G01X3112292Y62067D03*
G36*
G01X3210384Y32327D02*
G02X3205383Y37328I0J5001D01*
G01Y282184D01*
G02X3210384Y287185I5001J0D01*
G01X3403170D01*
G02X3408169Y282359I0J-5001D01*
G01X3463196D01*
G02X3468197Y277358I0J-5001D01*
G01Y237226D01*
G02X3463196Y232225I-5001J0D01*
G01X3408172D01*
G01Y217335D01*
G01X3463196D01*
G02X3468197Y212334I0J-5001D01*
G01Y172202D01*
G02X3463196Y167201I-5001J0D01*
G01X3408172D01*
G01Y152311D01*
G01X3463196D01*
G02X3468197Y147310I0J-5001D01*
G01Y107178D01*
G02X3463196Y102177I-5001J0D01*
G01X3408172D01*
G01Y87287D01*
G01X3463196D01*
G02X3468197Y82286I0J-5001D01*
G01Y42154D01*
G02X3463196Y37153I-5001J0D01*
G01X3408169D01*
G02X3403170Y32327I-4998J175D01*
G01X3210384D01*
G37*
G01X3681247Y630898D03*
G01X3681247Y565899D03*
G01X3681247Y500901D03*
G01X3681247Y435902D03*
G36*
G01X3779340Y406161D02*
G02X3774338Y411163I0J5001D01*
G01Y656018D01*
G01Y656019D01*
G02X3779340Y661020I5001J0D01*
G01X3972126D01*
G02X3977124Y656194I0J-5001D01*
G01X4032151D01*
G02X4037152Y651193I0J-5001D01*
G01Y651192D01*
G01Y611061D01*
G02X4032151Y606059I-5001J0D01*
G01X3977127D01*
G01Y591170D01*
G01X4032151D01*
G02X4037152Y586169I0J-5001D01*
G01Y586168D01*
G01Y546037D01*
G02X4032151Y541035I-5001J0D01*
G01X3977127D01*
G01Y526146D01*
G01X4032151D01*
G02X4037152Y521145I0J-5001D01*
G01Y521144D01*
G01Y481013D01*
G02X4032151Y476011I-5001J0D01*
G01X3977127D01*
G01Y461122D01*
G01X4032151D01*
G02X4037152Y456121I0J-5001D01*
G01Y456120D01*
G01Y415989D01*
G02X4032151Y410987I-5001J0D01*
G01X3977124D01*
G02X3972126Y406161I-4998J175D01*
G01X3779340D01*
G37*
G01X3099592Y625363D03*
G01X3099592Y560365D03*
G01X3099592Y495366D03*
G01X3099592Y430367D03*
G36*
G01X3197684Y400627D02*
G02X3192683Y405628I0J5001D01*
G01Y650484D01*
G02X3197684Y655485I5001J0D01*
G01X3390470D01*
G02X3395469Y650659I0J-5001D01*
G01X3450496D01*
G02X3455497Y645658I0J-5001D01*
G01Y605526D01*
G02X3450496Y600525I-5001J0D01*
G01X3395472D01*
G01Y585635D01*
G01X3450496D01*
G02X3455497Y580634I0J-5001D01*
G01Y540502D01*
G02X3450496Y535501I-5001J0D01*
G01X3395472D01*
G01Y520611D01*
G01X3450496D01*
G02X3455497Y515610I0J-5001D01*
G01Y475478D01*
G02X3450496Y470477I-5001J0D01*
G01X3395472D01*
G01Y455587D01*
G01X3450496D01*
G02X3455497Y450586I0J-5001D01*
G01Y410454D01*
G02X3450496Y405453I-5001J0D01*
G01X3395469D01*
G02X3390470Y400627I-4998J175D01*
G01X3197684D01*
G37*
G54D15*
G01X2301245Y-83835D03*
G01X2428245Y-83835D03*
G01X2555245Y-83835D03*
G01X2682245Y-83835D03*
G01X2301245Y-663834D03*
G01X2428245Y-663834D03*
G01X2555245Y-663834D03*
G01X2682245Y-663834D03*
G54D16*
G01X2682245Y136266D03*
G01X2555245Y136266D03*
G01X2428245Y136266D03*
G01X2301245Y136266D03*
G01X2682245Y716265D03*
G01X2555245Y716265D03*
G01X2428245Y716265D03*
G01X2301245Y716265D03*
G54D17*
G01X4107045Y1577889D03*
G01X4407045Y1577889D03*
G36*
G01X4263936Y1114184D02*
G01X4259489Y1113976D01*
G01X4259255Y1113970D01*
G01X4254799D01*
G01X4254566Y1113976D01*
G01X4250118Y1114184D01*
G01X4249884Y1114201D01*
G01X4245449Y1114617D01*
G01X4245216Y1114645D01*
G01X4240804Y1115269D01*
G01X4240572Y1115308D01*
G01X4236198Y1116138D01*
G01X4235971Y1116187D01*
G01X4231637Y1117221D01*
G01X4231409Y1117281D01*
G01X4227130Y1118518D01*
G01X4227129D01*
G01X4226907Y1118588D01*
G01X4222690Y1120023D01*
G01X4222467Y1120105D01*
G01X4218325Y1121738D01*
G01X4218111Y1121828D01*
G01X4214047Y1123652D01*
G01X4213833Y1123754D01*
G01X4209861Y1125768D01*
G01X4209656Y1125878D01*
G01X4205780Y1128075D01*
G01X4205579Y1128195D01*
G01X4201812Y1130570D01*
G01X4201616Y1130700D01*
G01X4197964Y1133250D01*
G01X4197775Y1133389D01*
G01X4194247Y1136107D01*
G01X4194064Y1136255D01*
G01X4190668Y1139135D01*
G01X4190493Y1139291D01*
G01X4187234Y1142329D01*
G01X4187067Y1142492D01*
G01X4183955Y1145677D01*
G01X4183796Y1145848D01*
G01Y1145849D01*
G01X4180834Y1149178D01*
G01X4180682Y1149358D01*
G01X4177883Y1152820D01*
G01X4177739Y1153006D01*
G01Y1153007D01*
G01X4175105Y1156598D01*
G01X4174971Y1156789D01*
G01X4172508Y1160500D01*
G01X4172383Y1160698D01*
G01X4170095Y1164520D01*
G01X4169979Y1164725D01*
G01X4167873Y1168649D01*
G01X4167766Y1168861D01*
G01X4165848Y1172882D01*
G01X4165753Y1173092D01*
G01X4164024Y1177197D01*
G01X4163937Y1177416D01*
G01X4162403Y1181597D01*
G01X4162327Y1181820D01*
G01X4160991Y1186069D01*
G01X4160926Y1186294D01*
G01X4159791Y1190599D01*
G01X4159737Y1190825D01*
G01X4158802Y1195181D01*
G01Y1195182D01*
G01X4158758Y1195415D01*
G01X4158031Y1199809D01*
G01X4157999Y1200040D01*
G01X4157478Y1204465D01*
G01X4157456Y1204699D01*
G01X4157144Y1209141D01*
G01X4157133Y1209372D01*
G01X4157026Y1213825D01*
G01X4157025Y1213945D01*
G01Y1399365D01*
G01X4157026Y1399485D01*
G01X4157133Y1403937D01*
G01X4157144Y1404168D01*
G01X4157456Y1408611D01*
G01X4157478Y1408844D01*
G01X4157999Y1413269D01*
G01X4158031Y1413500D01*
G01X4158758Y1417894D01*
G01X4158802Y1418128D01*
G01X4159737Y1422484D01*
G01X4159791Y1422710D01*
G01X4160926Y1427015D01*
G01X4160991Y1427240D01*
G01X4162327Y1431490D01*
G01X4162403Y1431712D01*
G01X4163937Y1435893D01*
G01X4164024Y1436113D01*
G01X4165753Y1440217D01*
G01X4165848Y1440428D01*
G01X4167766Y1444449D01*
G01X4167873Y1444660D01*
G01X4169979Y1448585D01*
G01X4170095Y1448789D01*
G01X4172383Y1452612D01*
G01X4172508Y1452809D01*
G01X4174971Y1456520D01*
G01X4175105Y1456711D01*
G01Y1456712D01*
G01X4177739Y1460303D01*
G01X4177883Y1460490D01*
G01X4180682Y1463952D01*
G01X4180834Y1464131D01*
G01X4183796Y1467461D01*
G01X4183955Y1467632D01*
G01X4187067Y1470817D01*
G01X4187234Y1470981D01*
G01X4190493Y1474019D01*
G01X4190668Y1474174D01*
G01X4194064Y1477055D01*
G01X4194247Y1477203D01*
G01X4197775Y1479920D01*
G01X4197964Y1480059D01*
G01X4201616Y1482609D01*
G01X4201812Y1482739D01*
G01X4205579Y1485114D01*
G01X4205780Y1485234D01*
G01X4209656Y1487431D01*
G01X4209861Y1487541D01*
G01X4213833Y1489555D01*
G01X4214975Y1489969D01*
G01X4219029Y1490901D01*
G01Y1656651D01*
G01Y1656652D01*
G02X4224030Y1661653I5001J0D01*
G01X4290029D01*
G02X4295031Y1656652I0J-5001D01*
G01Y1656651D01*
G01Y1490900D01*
G01X4299080Y1489969D01*
G01X4300221Y1489555D01*
G01X4304193Y1487541D01*
G01X4304398Y1487431D01*
G01X4308274Y1485234D01*
G01X4308475Y1485114D01*
G01X4312242Y1482739D01*
G01X4312438Y1482609D01*
G01X4316090Y1480059D01*
G01X4316279Y1479920D01*
G01X4319807Y1477203D01*
G01X4319990Y1477055D01*
G01X4323386Y1474174D01*
G01X4323561Y1474019D01*
G01X4326820Y1470981D01*
G01X4326987Y1470817D01*
G01X4326988D01*
G01X4330099Y1467632D01*
G01X4330258Y1467461D01*
G01X4330259D01*
G01X4333220Y1464131D01*
G01X4333372Y1463952D01*
G01X4336171Y1460490D01*
G01X4336315Y1460303D01*
G01X4338949Y1456711D01*
G01X4339083Y1456520D01*
G01X4341546Y1452809D01*
G01X4341547D01*
G01X4341671Y1452612D01*
G01X4343960Y1448789D01*
G01X4344075Y1448585D01*
G01X4346181Y1444661D01*
G01Y1444660D01*
G01X4346288Y1444449D01*
G01X4348206Y1440428D01*
G01X4348301Y1440217D01*
G01X4350030Y1436113D01*
G01X4350117Y1435893D01*
G01X4351651Y1431712D01*
G01X4351727Y1431490D01*
G01X4353063Y1427240D01*
G01X4353128Y1427015D01*
G01X4354263Y1422710D01*
G01X4354317Y1422484D01*
G01X4355252Y1418128D01*
G01X4355296Y1417894D01*
G01X4356023Y1413500D01*
G01X4356055Y1413269D01*
G01X4356576Y1408844D01*
G01X4356598Y1408611D01*
G01X4356910Y1404168D01*
G01X4356921Y1403937D01*
G01X4357028Y1399485D01*
G01X4357029Y1399365D01*
G01Y1213945D01*
G01X4357028Y1213825D01*
G01X4356921Y1209372D01*
G01X4356910Y1209141D01*
G01X4356598Y1204699D01*
G01X4356576Y1204465D01*
G01X4356055Y1200040D01*
G01X4356023Y1199809D01*
G01X4355296Y1195415D01*
G01X4355252Y1195182D01*
G01X4354317Y1190825D01*
G01X4354263Y1190599D01*
G01X4353128Y1186294D01*
G01X4353063Y1186069D01*
G01X4351727Y1181820D01*
G01X4351651Y1181597D01*
G01X4350117Y1177416D01*
G01X4350030Y1177197D01*
G01X4348301Y1173092D01*
G01X4348206Y1172882D01*
G01X4346288Y1168861D01*
G01X4346181Y1168649D01*
G01X4344075Y1164725D01*
G01X4343960Y1164520D01*
G01X4341671Y1160698D01*
G01X4341547Y1160500D01*
G01X4341546D01*
G01X4339083Y1156789D01*
G01X4338949Y1156598D01*
G01X4336315Y1153006D01*
G01X4336171Y1152820D01*
G01X4333372Y1149358D01*
G01X4333220Y1149178D01*
G01X4330258Y1145848D01*
G01X4330099Y1145677D01*
G01X4326988Y1142492D01*
G01X4326987D01*
G01X4326820Y1142329D01*
G01X4323561Y1139291D01*
G01X4323386Y1139135D01*
G01X4319990Y1136255D01*
G01X4319807Y1136107D01*
G01X4316279Y1133389D01*
G01X4316090Y1133250D01*
G01X4312438Y1130700D01*
G01X4312242Y1130570D01*
G01X4308475Y1128195D01*
G01X4308274Y1128075D01*
G01X4304398Y1125878D01*
G01X4304193Y1125768D01*
G01X4300221Y1123754D01*
G01X4300007Y1123652D01*
G01X4295943Y1121828D01*
G01X4295729Y1121738D01*
G01X4291587Y1120105D01*
G01X4291364Y1120023D01*
G01X4287147Y1118588D01*
G01X4286925Y1118518D01*
G01X4282645Y1117281D01*
G01X4282417Y1117221D01*
G01X4278083Y1116187D01*
G01X4277856Y1116138D01*
G01X4273482Y1115308D01*
G01X4273250Y1115269D01*
G01X4268838Y1114645D01*
G01X4268605Y1114617D01*
G01X4264170Y1114201D01*
G01X4263936Y1114184D01*
G37*
G54D18*
G01X4478401Y-1469199D03*
G01X4478401Y-969200D03*
G54D20*
G01X5478399Y-669201D03*
G01X5478399Y-1769199D03*
G54D21*
G01X5553054Y1181661D03*
G01X5553054Y1086665D03*
G01X5553054Y991669D03*
G01X5323235Y991669D03*
G01X5323235Y1086665D03*
G01X5323235Y1181661D03*
G54D22*
G01X4003045Y-1106040D03*
G01X4003045Y-1572029D03*
G54D23*
G01X5566415Y1969366D03*
G01X5563875Y1499365D03*
G54D24*
G01X5488381Y237287D03*
G01X6119419Y-12700D03*
G01X5488381Y-262687D03*
G54D25*
G01X5346286Y-932635D03*
G01X5580804Y-932635D03*
G01X5346286Y-1339035D03*
G01X5580804Y-1339035D03*
G54D26*
G01X3623594Y2089965D03*
G01X3623594Y1962965D03*
G01X3623594Y1835965D03*
G01X3623594Y1708965D03*
G01X3087095Y2089965D03*
G01X3087095Y1962965D03*
G01X3087095Y1835965D03*
G01X3087095Y1708965D03*
G01X3636294Y1531165D03*
G01X3636294Y1404165D03*
G01X3636294Y1277165D03*
G01X3636294Y1150165D03*
G01X3099795Y1531165D03*
G01X3099795Y1404165D03*
G01X3099795Y1277165D03*
G01X3099795Y1150165D03*
G54D27*
G01X3773246Y2305865D03*
G54D28*
G01X3623244Y2305865D03*
G54D29*
G01X3029133Y2348956D03*
G01X3129132Y2348956D03*
G01X3229132Y2348956D03*
G01X3329132Y2348956D03*
G01X3429132Y2348956D03*
G01X3529132Y2348956D03*
G54D30*
G01X2918160Y2719974D03*
G01X3640130Y2719974D03*
G54D31*
G01X810209Y2146300D03*
G01X1247191Y2146300D03*
G54D32*
G01X4776546Y2305865D03*
G54D28*
G01X4626544Y2305865D03*
G54D29*
G01X4007033Y2348956D03*
G01X4107032Y2348956D03*
G01X4207032Y2348956D03*
G01X4307032Y2348956D03*
G01X4407032Y2348956D03*
G01X4507032Y2348956D03*
G54D30*
G01X3896060Y2719974D03*
G01X4618030Y2719974D03*
G54D33*
G01X1352745Y375465D03*
G01X582744Y375465D03*
G01X1352745Y-361135D03*
G01X582744Y-361135D03*
G54D34*
G01X829894Y668706D03*
G01X744906Y668706D03*
G01X829894Y753669D03*
G01X744906Y753694D03*
G01X45039Y2457506D03*
G01X-39949Y2457506D03*
G01X45039Y2542469D03*
G01X-39949Y2542494D03*
G01X42494Y1957506D03*
G01X-42494Y1957506D03*
G01X42494Y2042469D03*
G01X-42494Y2042494D03*
G01X42494Y1457506D03*
G01X-42494Y1457506D03*
G01X42494Y1542469D03*
G01X-42494Y1542494D03*
G01X42494Y957506D03*
G01X-42494Y957506D03*
G01X42494Y1042469D03*
G01X-42494Y1042494D03*
G01X42494Y457506D03*
G01X-42494Y457506D03*
G01X42494Y542469D03*
G01X-42494Y542494D03*
G01X42494Y-42494D03*
G01X-42494Y-42494D03*
G01X42494Y42469D03*
G01X-42494Y42494D03*
G01X42494Y-542494D03*
G01X-42494Y-542494D03*
G01X42494Y-457531D03*
G01X-42494Y-457506D03*
G01X42494Y-1042494D03*
G01X-42494Y-1042494D03*
G01X42494Y-957531D03*
G01X-42494Y-957506D03*
G01X42494Y-1542494D03*
G01X-42494Y-1542494D03*
G01X42494Y-1457531D03*
G01X-42494Y-1457506D03*
G01X45039Y-2042494D03*
G01X-39949Y-2042494D03*
G01X45039Y-1957531D03*
G01X-39949Y-1957506D03*
G54D28*
G01X5122500Y787400D03*
G01X5037500Y787400D03*
G54D35*
G01X4122318Y-127000D03*
G01X4208882Y-127000D03*
G01X4122318Y0D03*
G01X4208882Y0D03*
G01X4122318Y127000D03*
G01X4208882Y127000D03*
G01X4122318Y254000D03*
G01X4208882Y254000D03*
G01X4122318Y381000D03*
G01X4208882Y381000D03*
G01X4122318Y508000D03*
G01X4208882Y508000D03*
G54D27*
G01X2449245Y-831035D03*
G01X2534245Y-831035D03*
G54D36*
G01X2821945Y-810816D03*
G01X2821945Y-724253D03*
G01X2948945Y-810816D03*
G01X2948945Y-724253D03*
G54D28*
G01X2534245Y870765D03*
G01X2449245Y870765D03*
G54D37*
G01X2819400Y817982D03*
G01X2819400Y731418D03*
G01X2946400Y817982D03*
G01X2946400Y731418D03*
G54D38*
G01X3622045Y-716835D03*
G01X3622045Y-538835D03*
G54D39*
G01X4015745Y-716835D03*
G01X4015745Y-538835D03*
G01X4218945Y-716835D03*
G01X4218945Y-538835D03*
G01X3825245Y-716835D03*
G01X3825245Y-538835D03*
G01X3418845Y-716835D03*
G01X3418845Y-538835D03*
G01X3215645Y-716835D03*
G01X3215645Y-538835D03*
G54D40*
G01X4409445Y1758965D03*
G01X4409445Y1912965D03*
G54D41*
G01X4117345Y1758965D03*
G01X4117345Y1912965D03*
G54D39*
G01X5006345Y997665D03*
G01X5006345Y1175665D03*
G54D42*
G01X5184145Y967965D03*
G01X5184145Y1052965D03*
G01X5184145Y1171165D03*
G01X5184145Y1256165D03*
G54D39*
G01X5006345Y1823165D03*
G01X5006345Y2001165D03*
G54D43*
G01X5006245Y1645665D03*
G01X5006245Y1467665D03*
G54D42*
G01X5819145Y993365D03*
G01X5819145Y1078365D03*
G54D44*
G01X5017445Y-716735D03*
G01X4817445Y-716735D03*
G54D37*
G01X3914145Y1930047D03*
G01X3914145Y1843484D03*
G54D45*
G01X3793495Y1922915D03*
G01X3793495Y1837915D03*
G54D37*
G01X2860045Y1917347D03*
G01X2860045Y1830784D03*
G54D35*
G01X3792118Y1498600D03*
G01X3878682Y1498600D03*
G54D45*
G01X3806195Y1376815D03*
G01X3806195Y1291815D03*
G54D37*
G01X2860045Y1383947D03*
G01X2860045Y1297384D03*
G54D27*
G01X1392600Y2171700D03*
G01X1477600Y2171700D03*
G54D28*
G01X400107Y1764767D03*
G01X315107Y1764767D03*
G01X398100Y1651000D03*
G01X313100Y1651000D03*
G54D42*
G01X1485900Y1849800D03*
G01X1485900Y1934800D03*
G54D27*
G01X2256200Y1854200D03*
G01X2341200Y1854200D03*
G01X2256200Y1955800D03*
G01X2341200Y1955800D03*
G54D45*
G01X1104900Y29800D03*
G01X1104900Y-55200D03*
G54D46*
G01X350057Y2186319D03*
G01X284943Y2131681D03*
G01X540557Y1970419D03*
G01X475443Y1915781D03*
G54D28*
G01X626700Y762000D03*
G01X541700Y762000D03*
G54D27*
G01X-42500Y2349500D03*
G01X42500Y2349500D03*
G01X-42500Y1841500D03*
G01X42500Y1841500D03*
G01X-42500Y1346200D03*
G01X42500Y1346200D03*
G01X-44948Y848870D03*
G01X40052Y848870D03*
G01X-39955Y350065D03*
G01X45045Y350065D03*
G01X-44201Y-155690D03*
G01X40799Y-155690D03*
G01X-39955Y-653235D03*
G01X45045Y-653235D03*
G01X-46153Y-1158990D03*
G01X38847Y-1158990D03*
G01X-42500Y-1651000D03*
G01X42500Y-1651000D03*
G01X-42500Y-2159000D03*
G01X42500Y-2159000D03*
G54D47*
G01X2195936Y-831035D03*
G01X2304953Y-831035D03*
G54D36*
G01X5692145Y992584D03*
G01X5692145Y1079147D03*
G01X5692145Y1208484D03*
G01X5692145Y1295047D03*
G54D35*
G01X5420263Y-1072335D03*
G01X5506826Y-1072335D03*
G01X5420263Y-1199335D03*
G01X5506826Y-1199335D03*
G54D48*
G01X5506826Y-1478735D03*
G01X5420263Y-1478735D03*
G01X1478382Y2057400D03*
G01X1391818Y2057400D03*
G54D37*
G01X1384300Y1935582D03*
G01X1384300Y1849018D03*
G01X1219200Y30582D03*
G01X1219200Y-55982D03*
G54D36*
G01X1003300Y-55982D03*
G01X1003300Y30582D03*
G54D49*
G01X472321Y2049644D03*
G01X416679Y2115956D03*
G54D48*
G01X627482Y647700D03*
G01X540918Y647700D03*
G54D50*
G01X4993645Y-999233D03*
G54D51*
G01X4896134Y-882241D03*
G01X4961133Y-882241D03*
G01X5026131Y-882241D03*
G01X5091155Y-882241D03*
G01X4896134Y-1186228D03*
G01X4961133Y-1186228D03*
G01X5026131Y-1186228D03*
G01X5091155Y-1186228D03*
G54D52*
G01X4993645Y-1488336D03*
G54D53*
G01X5091155Y-1605328D03*
G01X5026157Y-1605328D03*
G01X4961158Y-1605328D03*
G01X4896134Y-1605328D03*
G01X5091155Y-1301341D03*
G01X5026157Y-1301341D03*
G01X4961158Y-1301341D03*
G01X4896134Y-1301341D03*
G54D34*
G01X42494Y-2542494D03*
G01X-42494Y-2542494D03*
G01X42494Y-2457531D03*
G01X-42494Y-2457506D03*
G54D27*
G01X-42500Y-2336800D03*
G01X42500Y-2336800D03*
G01X2484800Y1066800D03*
G01X2569800Y1066800D03*
G54D42*
G01X825500Y1837100D03*
G01X825500Y1922100D03*
G54D27*
G01X2484800Y1625600D03*
G01X2569800Y1625600D03*
G01X2484800Y1511300D03*
G01X2569800Y1511300D03*
G01X2484800Y1409700D03*
G01X2569800Y1409700D03*
G01X2484800Y1308100D03*
G01X2569800Y1308100D03*
G01X2484800Y1206500D03*
G01X2569800Y1206500D03*
G54D35*
G01X579018Y0D03*
G01X665582Y0D03*
G01X579018Y101600D03*
G01X665582Y101600D03*
G01X4325518Y0D03*
G01X4412082Y0D03*
G01X4325518Y-127000D03*
G01X4412082Y-127000D03*
G01X4325518Y127000D03*
G01X4412082Y127000D03*
G01X4325518Y254000D03*
G01X4412082Y254000D03*
G01X4325518Y381000D03*
G01X4412082Y381000D03*
G01X4325518Y508000D03*
G01X4412082Y508000D03*
G36*
G01X4699381Y-2198454D02*
G02X4694281Y-2193353I0J5100D01*
G01Y-1945353D01*
G02X4699381Y-1940253I5100J0D01*
G01X4892167D01*
G02X4897267Y-1945353I0J-5100D01*
G01Y-1947703D01*
G01X4927219D01*
G02X4932319Y-1952803I0J-5100D01*
G01Y-1992935D01*
G02X4927219Y-1998035I-5100J0D01*
G01X4897267D01*
G01Y-2012727D01*
G01X4927219D01*
G02X4932319Y-2017827I0J-5100D01*
G01Y-2057959D01*
G02X4927219Y-2063059I-5100J0D01*
G01X4897267D01*
G01Y-2077751D01*
G01X4927219D01*
G02X4932319Y-2082851I0J-5100D01*
G01Y-2122983D01*
G02X4927219Y-2128083I-5100J0D01*
G01X4897267D01*
G01Y-2142775D01*
G01X4927219D01*
G02X4932319Y-2147875I0J-5100D01*
G01Y-2188007D01*
G02X4927219Y-2193107I-5100J0D01*
G01X4897267D01*
G01Y-2193353D01*
G02X4892167Y-2198454I-5100J0D01*
G01X4699381D01*
G37*
G54D54*
G01X4615434Y-2167611D03*
G01X4615409Y-2102587D03*
G01X4615409Y-2037588D03*
G01X4615409Y-1972589D03*
G54D55*
G01X4286499Y-2223201D03*
G01X4381495Y-1993199D03*
G01X4476501Y-2223201D03*
G54D56*
G01X4740897Y-2425700D03*
G54D57*
G01X4580903Y-2425700D03*
G54D48*
G01X4704182Y-2540000D03*
G01X4617618Y-2540000D03*
G54D36*
G01X4851400Y-2532482D03*
G01X4851400Y-2445918D03*
G54D48*
G01X4462882Y-2425700D03*
G01X4376318Y-2425700D03*
G01X4462882Y-2540000D03*
G01X4376318Y-2540000D03*
G54D58*
G01X3632200Y-1133500D03*
G01X3632200Y-1533500D03*
G54D59*
G01X277099Y2997200D03*
G01X815101Y2997200D03*
G54D45*
G01X2146300Y766400D03*
G01X2146300Y681400D03*
G54D60*
G01X5575300Y597700D03*
G01X5575300Y443700D03*
G54D28*
G01X4750300Y-546100D03*
G01X4665300Y-546100D03*
G01X4974500Y-550500D03*
G01X4889500Y-550500D03*
G01X5186000Y-558800D03*
G01X5101000Y-558800D03*
G54D61*
G01X2270244Y1653784D03*
G01X2270244Y1603771D03*
G01X2270244Y1553784D03*
G01X2270244Y1503771D03*
G01X2270244Y1453784D03*
G01X2270244Y1403772D03*
G01X2270244Y1353784D03*
G01X2270244Y1303772D03*
G01X2270244Y1253785D03*
G01X2270244Y1203772D03*
G01X2270244Y1153785D03*
G01X2270244Y1103772D03*
G54D62*
G01X2195238Y1028766D03*
G01X2145225Y1028766D03*
G01X2095238Y1028766D03*
G01X2045226Y1028766D03*
G01X1995238Y1028766D03*
G01X1945226Y1028766D03*
G01X1895239Y1028766D03*
G01X1845226Y1028766D03*
G01X1795239Y1028766D03*
G01X1745226Y1028766D03*
G01X1695239Y1028766D03*
G01X1645226Y1028766D03*
G54D61*
G01X1570246Y1103772D03*
G01X1570246Y1153785D03*
G01X1570246Y1203772D03*
G01X1570246Y1253785D03*
G01X1570246Y1303772D03*
G01X1570246Y1353784D03*
G01X1570246Y1403772D03*
G01X1570246Y1453784D03*
G01X1570246Y1503771D03*
G01X1570246Y1553784D03*
G01X1570246Y1603771D03*
G01X1570246Y1653784D03*
G54D62*
G01X1645226Y1728765D03*
G01X1695239Y1728765D03*
G01X1745226Y1728765D03*
G01X1795239Y1728765D03*
G01X1845226Y1728765D03*
G01X1895239Y1728765D03*
G01X1945226Y1728765D03*
G01X1995238Y1728765D03*
G01X2045226Y1728765D03*
G01X2095238Y1728765D03*
G01X2145225Y1728765D03*
G01X2195238Y1728765D03*
G54D63*
G01X1920232Y1378778D03*
G54D64*
G01X613982Y1721599D03*
G01X663994Y1721599D03*
G01X713981Y1721599D03*
G01X763994Y1721599D03*
G01X813981Y1721599D03*
G01X863994Y1721599D03*
G01X913981Y1721599D03*
G01X963994Y1721599D03*
G01X1013981Y1721599D03*
G01X1063993Y1721599D03*
G01X1113981Y1721599D03*
G01X1163993Y1721599D03*
G54D65*
G01X1238999Y1646593D03*
G01X1238999Y1596581D03*
G01X1238999Y1546593D03*
G01X1238999Y1496581D03*
G01X1238999Y1446594D03*
G01X1238999Y1396581D03*
G01X1238999Y1346594D03*
G01X1238999Y1296581D03*
G01X1238999Y1246594D03*
G01X1238999Y1196581D03*
G01X1238999Y1146594D03*
G01X1238999Y1096582D03*
G54D64*
G01X1163993Y1021601D03*
G01X1113981Y1021601D03*
G01X1063993Y1021601D03*
G01X1013981Y1021601D03*
G01X963994Y1021601D03*
G01X913981Y1021601D03*
G01X863994Y1021601D03*
G01X813981Y1021601D03*
G01X763994Y1021601D03*
G01X713981Y1021601D03*
G01X663994Y1021601D03*
G01X613982Y1021601D03*
G54D65*
G01X539001Y1096582D03*
G01X539001Y1146594D03*
G01X539001Y1196581D03*
G01X539001Y1246594D03*
G01X539001Y1296581D03*
G01X539001Y1346594D03*
G01X539001Y1396581D03*
G01X539001Y1446594D03*
G01X539001Y1496581D03*
G01X539001Y1546593D03*
G01X539001Y1596581D03*
G01X539001Y1646593D03*
G54D66*
G01X888987Y1371587D03*
G04 Pad End*

M02*
