G04 Layer: TopSolderMaskLayer*
G04 EasyEDA Pro v2.1.49.1.de255bc8.674264, 2024-06-01 15:44:05*
G04 Gerber Generator version 0.3*
G04 Scale: 100 percent, Rotated: No, Reflected: No*
G04 Dimensions in millimeters*
G04 Leading zeros omitted, absolute positions, 3 integers and 5 decimals*
%FSLAX35Y35*%
%MOMM*%
%AMRoundRect*1,1,$1,$2,$3*1,1,$1,$4,$5*1,1,$1,0-$2,0-$3*1,1,$1,0-$4,0-$5*20,1,$1,$2,$3,$4,$5,0*20,1,$1,$4,$5,0-$2,0-$3,0*20,1,$1,0-$2,0-$3,0-$4,0-$5,0*20,1,$1,0-$4,0-$5,$2,$3,0*4,1,4,$2,$3,$4,$5,0-$2,0-$3,0-$4,0-$5,$2,$3,0*%
%AMOval*1,1,$1,$2,$3*1,1,$1,$4,$5*20,1,$1,$2,$3,$4,$5,0*%
%ADD10RoundRect,0.0911X0.38046X0.50545X0.38046X-0.50545*%
%ADD11Oval,0.46601X0.0X-0.689X0.0X0.689*%
%ADD12RoundRect,0.08184X0.3841X0.1841X0.3841X-0.1841*%
%ADD13Oval,0.802X0.0X-0.5X0.0X0.5*%
%ADD14O,0.802X1.802*%
%ADD15C,2.602*%
%ADD16C,1.902*%
%ADD17RoundRect,0.09462X-1.5027X-0.82771X-1.5027X0.82771*%
%ADD18RoundRect,0.09462X1.5027X0.82771X1.5027X-0.82771*%
%ADD19RoundRect,0.0945X1.50417X0.50417X1.50417X-0.50417*%
%ADD20RoundRect,0.09169X1.50417X0.50417X1.50417X-0.50417*%
%ADD21RoundRect,0.08891X0.35556X-0.88056X-0.35556X-0.88056*%
%ADD22RoundRect,0.09288X0.60357X-1.27858X-0.60357X-1.27858*%
%ADD23RoundRect,0.08875X0.30643X-0.30643X-0.30643X-0.30643*%
%ADD24RoundRect,0.08875X-0.30643X0.30643X0.30643X0.30643*%
%ADD25RoundRect,0.09403X0.67879X0.58379X0.67879X-0.58379*%
%ADD26RoundRect,0.08771X0.28977X-0.27695X-0.28977X-0.27695*%
%ADD27RoundRect,0.08875X-0.30643X-0.30643X-0.30643X0.30643*%
%ADD28RoundRect,0.08771X-0.28977X0.27695X0.28977X0.27695*%
%ADD29RoundRect,0.08771X-0.27695X-0.28977X-0.27695X0.28977*%
%ADD30RoundRect,0.08771X0.27695X0.28977X0.27695X-0.28977*%
%ADD31RoundRect,0.09169X-0.90417X-0.50417X-0.90417X0.50417*%
%ADD32RoundRect,0.08573X-0.60714X-0.25715X-0.60714X0.25715*%
%ADD33RoundRect,0.09164X-0.45518X-0.40518X-0.45518X0.40518*%
%ADD34RoundRect,0.08875X0.30643X0.30643X0.30643X-0.30643*%
G75*


G04 Pad Start*
G54D10*
G01X5476245Y-427594D03*
G01X5476245Y-193076D03*
G01X5196845Y-427594D03*
G01X5196845Y-193076D03*
G01X4902200Y-422059D03*
G01X4902200Y-187541D03*
G54D11*
G01X5400451Y599062D03*
G01X5335453Y599062D03*
G01X5270454Y599062D03*
G01X5205455Y599062D03*
G01X5140431Y599062D03*
G01X5075433Y599062D03*
G01X5010434Y599062D03*
G01X4945436Y599062D03*
G01X4880437Y599062D03*
G01X4815438Y599062D03*
G01X5400451Y24869D03*
G01X5335453Y24869D03*
G01X5270454Y24869D03*
G01X5205455Y24869D03*
G01X5140431Y24869D03*
G01X5075433Y24869D03*
G01X5010434Y24869D03*
G01X4945436Y24869D03*
G01X4880437Y24869D03*
G01X4815438Y24869D03*
G54D12*
G01X3683792Y435902D03*
G01X3683792Y500901D03*
G01X3683792Y565899D03*
G01X3683792Y630898D03*
G36*
G01X3979669Y410606D02*
G02X3974670Y405780I-4998J175D01*
G01X3781884D01*
G02X3776883Y410782I0J5001D01*
G01Y655637D01*
G01Y655638D01*
G02X3781884Y660639I5001J0D01*
G01X3974670D01*
G02X3979669Y655813I0J-5001D01*
G01X4034696D01*
G02X4039697Y650812I0J-5001D01*
G01Y650811D01*
G01Y610680D01*
G02X4034696Y605678I-5001J0D01*
G01X3979672D01*
G01Y590789D01*
G01X4034696D01*
G02X4039697Y585788I0J-5001D01*
G01Y585787D01*
G01Y545656D01*
G02X4034696Y540654I-5001J0D01*
G01X3979672D01*
G01Y525765D01*
G01X4034696D01*
G02X4039697Y520764I0J-5001D01*
G01Y520763D01*
G01Y480632D01*
G02X4034696Y475630I-5001J0D01*
G01X3979672D01*
G01Y460741D01*
G01X4034696D01*
G02X4039697Y455740I0J-5001D01*
G01Y455739D01*
G01Y415608D01*
G02X4034696Y410606I-5001J0D01*
G01X3979669D01*
G37*
G01X3109747Y435902D03*
G01X3109747Y500901D03*
G01X3109747Y565899D03*
G01X3109747Y630898D03*
G36*
G01X3405624Y410606D02*
G02X3400626Y405780I-4998J175D01*
G01X3207840D01*
G02X3202838Y410782I0J5001D01*
G01Y655637D01*
G01Y655638D01*
G02X3207840Y660639I5001J0D01*
G01X3400626D01*
G02X3405624Y655813I0J-5001D01*
G01X3460651D01*
G02X3465652Y650812I0J-5001D01*
G01Y650811D01*
G01Y610680D01*
G02X3460651Y605678I-5001J0D01*
G01X3405627D01*
G01Y590789D01*
G01X3460651D01*
G02X3465652Y585788I0J-5001D01*
G01Y585787D01*
G01Y545656D01*
G02X3460651Y540654I-5001J0D01*
G01X3405627D01*
G01Y525765D01*
G01X3460651D01*
G02X3465652Y520764I0J-5001D01*
G01Y520763D01*
G01Y480632D01*
G02X3460651Y475630I-5001J0D01*
G01X3405627D01*
G01Y460741D01*
G01X3460651D01*
G02X3465652Y455740I0J-5001D01*
G01Y455739D01*
G01Y415608D01*
G02X3460651Y410606I-5001J0D01*
G01X3405624D01*
G37*
G01X3683792Y62067D03*
G01X3683792Y127066D03*
G01X3683792Y192065D03*
G01X3683792Y257063D03*
G36*
G01X3979669Y36772D02*
G02X3974670Y31946I-4998J175D01*
G01X3781884D01*
G02X3776883Y36947I0J5001D01*
G01Y281803D01*
G02X3781884Y286804I5001J0D01*
G01X3974670D01*
G02X3979669Y281978I0J-5001D01*
G01X4034696D01*
G02X4039697Y276977I0J-5001D01*
G01Y236845D01*
G02X4034696Y231844I-5001J0D01*
G01X3979672D01*
G01Y216954D01*
G01X4034696D01*
G02X4039697Y211953I0J-5001D01*
G01Y171821D01*
G02X4034696Y166820I-5001J0D01*
G01X3979672D01*
G01Y151930D01*
G01X4034696D01*
G02X4039697Y146929I0J-5001D01*
G01Y106797D01*
G02X4034696Y101796I-5001J0D01*
G01X3979672D01*
G01Y86906D01*
G01X4034696D01*
G02X4039697Y81905I0J-5001D01*
G01Y41773D01*
G02X4034696Y36772I-5001J0D01*
G01X3979669D01*
G37*
G01X3112292Y62067D03*
G01X3112292Y127066D03*
G01X3112292Y192065D03*
G01X3112292Y257063D03*
G36*
G01X3408169Y36772D02*
G02X3403170Y31946I-4998J175D01*
G01X3210384D01*
G02X3205383Y36947I0J5001D01*
G01Y281803D01*
G02X3210384Y286804I5001J0D01*
G01X3403170D01*
G02X3408169Y281978I0J-5001D01*
G01X3463196D01*
G02X3468197Y276977I0J-5001D01*
G01Y236845D01*
G02X3463196Y231844I-5001J0D01*
G01X3408172D01*
G01Y216954D01*
G01X3463196D01*
G02X3468197Y211953I0J-5001D01*
G01Y171821D01*
G02X3463196Y166820I-5001J0D01*
G01X3408172D01*
G01Y151930D01*
G01X3463196D01*
G02X3468197Y146929I0J-5001D01*
G01Y106797D01*
G02X3463196Y101796I-5001J0D01*
G01X3408172D01*
G01Y86906D01*
G01X3463196D01*
G02X3468197Y81905I0J-5001D01*
G01Y41773D01*
G02X3463196Y36772I-5001J0D01*
G01X3408169D01*
G37*
G01X3683792Y-318933D03*
G01X3683792Y-253934D03*
G01X3683792Y-188935D03*
G01X3683792Y-123937D03*
G36*
G01X3979669Y-344228D02*
G02X3974670Y-349054I-4998J175D01*
G01X3781884D01*
G02X3776883Y-344053I0J5001D01*
G01Y-99197D01*
G02X3781884Y-94196I5001J0D01*
G01X3974670D01*
G02X3979669Y-99022I0J-5001D01*
G01X4034696D01*
G02X4039697Y-104023I0J-5001D01*
G01Y-144155D01*
G02X4034696Y-149156I-5001J0D01*
G01X3979672D01*
G01Y-164046D01*
G01X4034696D01*
G02X4039697Y-169047I0J-5001D01*
G01Y-209179D01*
G02X4034696Y-214180I-5001J0D01*
G01X3979672D01*
G01Y-229070D01*
G01X4034696D01*
G02X4039697Y-234071I0J-5001D01*
G01Y-274203D01*
G02X4034696Y-279204I-5001J0D01*
G01X3979672D01*
G01Y-294094D01*
G01X4034696D01*
G02X4039697Y-299095I0J-5001D01*
G01Y-339227D01*
G02X4034696Y-344228I-5001J0D01*
G01X3979669D01*
G37*
G01X3112292Y-318933D03*
G01X3112292Y-253934D03*
G01X3112292Y-188935D03*
G01X3112292Y-123937D03*
G36*
G01X3408169Y-344228D02*
G02X3403170Y-349054I-4998J175D01*
G01X3210384D01*
G02X3205383Y-344053I0J5001D01*
G01Y-99197D01*
G02X3210384Y-94196I5001J0D01*
G01X3403170D01*
G02X3408169Y-99022I0J-5001D01*
G01X3463196D01*
G02X3468197Y-104023I0J-5001D01*
G01Y-144155D01*
G02X3463196Y-149156I-5001J0D01*
G01X3408172D01*
G01Y-164046D01*
G01X3463196D01*
G02X3468197Y-169047I0J-5001D01*
G01Y-209179D01*
G02X3463196Y-214180I-5001J0D01*
G01X3408172D01*
G01Y-229070D01*
G01X3463196D01*
G02X3468197Y-234071I0J-5001D01*
G01Y-274203D01*
G02X3463196Y-279204I-5001J0D01*
G01X3408172D01*
G01Y-294094D01*
G01X3463196D01*
G02X3468197Y-299095I0J-5001D01*
G01Y-339227D01*
G02X3463196Y-344228I-5001J0D01*
G01X3408169D01*
G37*
G54D13*
G01X2301245Y136266D03*
G01X2428245Y136266D03*
G01X2555245Y136266D03*
G01X2682245Y136266D03*
G01X2301245Y716265D03*
G01X2428245Y716265D03*
G01X2555245Y716265D03*
G01X2682245Y716265D03*
G54D14*
G01X2682245Y-83835D03*
G01X2555245Y-83835D03*
G01X2428245Y-83835D03*
G01X2301245Y-83835D03*
G01X2682245Y-663834D03*
G01X2555245Y-663834D03*
G01X2428245Y-663834D03*
G01X2301245Y-663834D03*
G54D10*
G01X5476245Y1007506D03*
G01X5476245Y1242024D03*
G01X5196845Y1007506D03*
G01X5196845Y1242024D03*
G01X4917445Y1007506D03*
G01X4917445Y1242024D03*
G54D11*
G01X5393125Y2008487D03*
G01X5328127Y2008487D03*
G01X5263128Y2008487D03*
G01X5198130Y2008487D03*
G01X5133106Y2008487D03*
G01X5068107Y2008487D03*
G01X5003108Y2008487D03*
G01X4938110Y2008487D03*
G01X4873111Y2008487D03*
G01X4808113Y2008487D03*
G01X5393125Y1434294D03*
G01X5328127Y1434294D03*
G01X5263128Y1434294D03*
G01X5198130Y1434294D03*
G01X5133106Y1434294D03*
G01X5068107Y1434294D03*
G01X5003108Y1434294D03*
G01X4938110Y1434294D03*
G01X4873111Y1434294D03*
G01X4808113Y1434294D03*
G54D12*
G01X3683792Y1941667D03*
G01X3683792Y2006666D03*
G01X3683792Y2071665D03*
G01X3683792Y2136663D03*
G36*
G01X3979669Y1916372D02*
G02X3974670Y1911546I-4998J175D01*
G01X3781884D01*
G02X3776883Y1916547I0J5001D01*
G01Y2161403D01*
G02X3781884Y2166404I5001J0D01*
G01X3974670D01*
G02X3979669Y2161578I0J-5001D01*
G01X4034696D01*
G02X4039697Y2156577I0J-5001D01*
G01Y2116445D01*
G02X4034696Y2111444I-5001J0D01*
G01X3979672D01*
G01Y2096554D01*
G01X4034696D01*
G02X4039697Y2091553I0J-5001D01*
G01Y2051421D01*
G02X4034696Y2046420I-5001J0D01*
G01X3979672D01*
G01Y2031530D01*
G01X4034696D01*
G02X4039697Y2026529I0J-5001D01*
G01Y1986397D01*
G02X4034696Y1981396I-5001J0D01*
G01X3979672D01*
G01Y1966506D01*
G01X4034696D01*
G02X4039697Y1961505I0J-5001D01*
G01Y1921373D01*
G02X4034696Y1916372I-5001J0D01*
G01X3979669D01*
G37*
G01X3074192Y1941667D03*
G01X3074192Y2006666D03*
G01X3074192Y2071665D03*
G01X3074192Y2136663D03*
G36*
G01X3370069Y1916372D02*
G02X3365070Y1911546I-4998J175D01*
G01X3172284D01*
G02X3167283Y1916547I0J5001D01*
G01Y2161403D01*
G02X3172284Y2166404I5001J0D01*
G01X3365070D01*
G02X3370069Y2161578I0J-5001D01*
G01X3425096D01*
G02X3430097Y2156577I0J-5001D01*
G01Y2116445D01*
G02X3425096Y2111444I-5001J0D01*
G01X3370072D01*
G01Y2096554D01*
G01X3425096D01*
G02X3430097Y2091553I0J-5001D01*
G01Y2051421D01*
G02X3425096Y2046420I-5001J0D01*
G01X3370072D01*
G01Y2031530D01*
G01X3425096D01*
G02X3430097Y2026529I0J-5001D01*
G01Y1986397D01*
G02X3425096Y1981396I-5001J0D01*
G01X3370072D01*
G01Y1966506D01*
G01X3425096D01*
G02X3430097Y1961505I0J-5001D01*
G01Y1921373D01*
G02X3425096Y1916372I-5001J0D01*
G01X3370069D01*
G37*
G01X3683792Y1560667D03*
G01X3683792Y1625666D03*
G01X3683792Y1690665D03*
G01X3683792Y1755663D03*
G36*
G01X3979669Y1535372D02*
G02X3974670Y1530546I-4998J175D01*
G01X3781884D01*
G02X3776883Y1535547I0J5001D01*
G01Y1780403D01*
G02X3781884Y1785404I5001J0D01*
G01X3974670D01*
G02X3979669Y1780578I0J-5001D01*
G01X4034696D01*
G02X4039697Y1775577I0J-5001D01*
G01Y1735445D01*
G02X4034696Y1730444I-5001J0D01*
G01X3979672D01*
G01Y1715554D01*
G01X4034696D01*
G02X4039697Y1710553I0J-5001D01*
G01Y1670421D01*
G02X4034696Y1665420I-5001J0D01*
G01X3979672D01*
G01Y1650530D01*
G01X4034696D01*
G02X4039697Y1645529I0J-5001D01*
G01Y1605397D01*
G02X4034696Y1600396I-5001J0D01*
G01X3979672D01*
G01Y1585506D01*
G01X4034696D01*
G02X4039697Y1580505I0J-5001D01*
G01Y1540373D01*
G02X4034696Y1535372I-5001J0D01*
G01X3979669D01*
G37*
G01X3074192Y1560667D03*
G01X3074192Y1625666D03*
G01X3074192Y1690665D03*
G01X3074192Y1755663D03*
G36*
G01X3370069Y1535372D02*
G02X3365070Y1530546I-4998J175D01*
G01X3172284D01*
G02X3167283Y1535547I0J5001D01*
G01Y1780403D01*
G02X3172284Y1785404I5001J0D01*
G01X3365070D01*
G02X3370069Y1780578I0J-5001D01*
G01X3425096D01*
G02X3430097Y1775577I0J-5001D01*
G01Y1735445D01*
G02X3425096Y1730444I-5001J0D01*
G01X3370072D01*
G01Y1715554D01*
G01X3425096D01*
G02X3430097Y1710553I0J-5001D01*
G01Y1670421D01*
G02X3425096Y1665420I-5001J0D01*
G01X3370072D01*
G01Y1650530D01*
G01X3425096D01*
G02X3430097Y1645529I0J-5001D01*
G01Y1605397D01*
G02X3425096Y1600396I-5001J0D01*
G01X3370072D01*
G01Y1585506D01*
G01X3425096D01*
G02X3430097Y1580505I0J-5001D01*
G01Y1540373D01*
G02X3425096Y1535372I-5001J0D01*
G01X3370069D01*
G37*
G01X3683792Y1179667D03*
G01X3683792Y1244666D03*
G01X3683792Y1309665D03*
G01X3683792Y1374663D03*
G36*
G01X3979669Y1154372D02*
G02X3974670Y1149546I-4998J175D01*
G01X3781884D01*
G02X3776883Y1154547I0J5001D01*
G01Y1399403D01*
G02X3781884Y1404404I5001J0D01*
G01X3974670D01*
G02X3979669Y1399578I0J-5001D01*
G01X4034696D01*
G02X4039697Y1394577I0J-5001D01*
G01Y1354445D01*
G02X4034696Y1349444I-5001J0D01*
G01X3979672D01*
G01Y1334554D01*
G01X4034696D01*
G02X4039697Y1329553I0J-5001D01*
G01Y1289421D01*
G02X4034696Y1284420I-5001J0D01*
G01X3979672D01*
G01Y1269530D01*
G01X4034696D01*
G02X4039697Y1264529I0J-5001D01*
G01Y1224397D01*
G02X4034696Y1219396I-5001J0D01*
G01X3979672D01*
G01Y1204506D01*
G01X4034696D01*
G02X4039697Y1199505I0J-5001D01*
G01Y1159373D01*
G02X4034696Y1154372I-5001J0D01*
G01X3979669D01*
G37*
G01X3074192Y1179667D03*
G01X3074192Y1244666D03*
G01X3074192Y1309665D03*
G01X3074192Y1374663D03*
G36*
G01X3370069Y1154372D02*
G02X3365070Y1149546I-4998J175D01*
G01X3172284D01*
G02X3167283Y1154547I0J5001D01*
G01Y1399403D01*
G02X3172284Y1404404I5001J0D01*
G01X3365070D01*
G02X3370069Y1399578I0J-5001D01*
G01X3425096D01*
G02X3430097Y1394577I0J-5001D01*
G01Y1354445D01*
G02X3425096Y1349444I-5001J0D01*
G01X3370072D01*
G01Y1334554D01*
G01X3425096D01*
G02X3430097Y1329553I0J-5001D01*
G01Y1289421D01*
G02X3425096Y1284420I-5001J0D01*
G01X3370072D01*
G01Y1269530D01*
G01X3425096D01*
G02X3430097Y1264529I0J-5001D01*
G01Y1224397D01*
G02X3425096Y1219396I-5001J0D01*
G01X3370072D01*
G01Y1204506D01*
G01X3425096D01*
G02X3430097Y1199505I0J-5001D01*
G01Y1159373D01*
G02X3425096Y1154372I-5001J0D01*
G01X3370069D01*
G37*
G54D13*
G01X2313945Y1812666D03*
G01X2440945Y1812666D03*
G01X2567945Y1812666D03*
G01X2694945Y1812666D03*
G01X2313945Y2392665D03*
G01X2440945Y2392665D03*
G01X2567945Y2392665D03*
G01X2694945Y2392665D03*
G54D14*
G01X2694945Y1617965D03*
G01X2567945Y1617965D03*
G01X2440945Y1617965D03*
G01X2313945Y1617965D03*
G01X2694945Y1037966D03*
G01X2567945Y1037966D03*
G01X2440945Y1037966D03*
G01X2313945Y1037966D03*
G54D15*
G01X4478401Y-1469199D03*
G01X4478401Y-969200D03*
G54D16*
G01X5478399Y-669201D03*
G01X5478399Y-1769199D03*
G54D17*
G01X1557444Y-846729D03*
G54D18*
G01X1557444Y48265D03*
G54D20*
G01X1927446Y-399232D03*
G01X1927446Y-199233D03*
G01X1927446Y-599232D03*
G54D17*
G01X1557444Y308971D03*
G54D18*
G01X1557444Y1203965D03*
G54D20*
G01X1927446Y756468D03*
G01X1927446Y956467D03*
G01X1927446Y556468D03*
G54D17*
G01X1557444Y1451971D03*
G54D18*
G01X1557444Y2346965D03*
G54D20*
G01X1927446Y1899468D03*
G01X1927446Y2099467D03*
G01X1927446Y1699468D03*
G54D21*
G01X4305445Y2345007D03*
G01X4205445Y2345007D03*
G01X4105445Y2345007D03*
G01X4005445Y2345007D03*
G54D22*
G01X3894447Y2723924D03*
G01X4416443Y2723924D03*
G54D21*
G01X3529157Y2348956D03*
G01X3429157Y2348956D03*
G01X3329157Y2348956D03*
G01X3229158Y2348956D03*
G01X3129158Y2348956D03*
G01X3029158Y2348956D03*
G54D22*
G01X3640130Y2719974D03*
G01X2918160Y2719974D03*
G54D23*
G01X4948600Y774700D03*
G01X5033600Y774700D03*
G01X2309545Y870765D03*
G01X2394545Y870765D03*
G54D24*
G01X2534245Y-831035D03*
G01X2449245Y-831035D03*
G54D25*
G01X4015745Y-716835D03*
G01X4015745Y-538835D03*
G01X3818828Y-714923D03*
G01X3818828Y-536923D03*
G01X3622045Y-716835D03*
G01X3622045Y-538835D03*
G01X3418845Y-716835D03*
G01X3418845Y-538835D03*
G01X3215645Y-716835D03*
G01X3215645Y-538835D03*
G01X4218945Y-716835D03*
G01X4218945Y-538835D03*
G54D23*
G01X4925745Y2178865D03*
G01X5010745Y2178865D03*
G54D26*
G01X4236618Y1930400D03*
G01X4323182Y1930400D03*
G01X4236618Y1790700D03*
G01X4323182Y1790700D03*
G01X4239163Y1658165D03*
G01X4325726Y1658165D03*
G01X4236618Y1524000D03*
G01X4323182Y1524000D03*
G01X4236618Y1384300D03*
G01X4323182Y1384300D03*
G01X4236618Y1244600D03*
G01X4323182Y1244600D03*
G54D27*
G01X2148845Y2411865D03*
G01X2148845Y2326865D03*
G54D24*
G01X2673945Y870765D03*
G01X2588945Y870765D03*
G54D25*
G01X4001179Y816205D03*
G01X4001179Y994205D03*
G01X3799845Y819865D03*
G01X3799845Y997865D03*
G01X3596645Y819865D03*
G01X3596645Y997865D03*
G01X3393445Y819865D03*
G01X3393445Y997865D03*
G01X3190245Y819865D03*
G01X3190245Y997865D03*
G01X4203111Y818136D03*
G01X4203111Y996136D03*
G54D28*
G01X2293726Y-831035D03*
G01X2207163Y-831035D03*
G54D26*
G01X4236618Y635000D03*
G01X4323182Y635000D03*
G01X4236618Y508000D03*
G01X4323182Y508000D03*
G01X4236618Y381000D03*
G01X4323182Y381000D03*
G01X4236618Y254000D03*
G01X4323182Y254000D03*
G01X4223918Y127000D03*
G01X4310482Y127000D03*
G01X4223918Y0D03*
G01X4310482Y0D03*
G54D29*
G01X2819400Y817982D03*
G01X2819400Y731418D03*
G01X2946400Y817982D03*
G01X2946400Y731418D03*
G54D30*
G01X2821945Y-810816D03*
G01X2821945Y-724253D03*
G01X2948945Y-810816D03*
G01X2948945Y-724253D03*
G54D28*
G01X2674726Y2559865D03*
G01X2588163Y2559865D03*
G54D26*
G01X2588163Y2686865D03*
G01X2674726Y2686865D03*
G54D30*
G01X2819400Y934618D03*
G01X2819400Y1021182D03*
G01X2946400Y934618D03*
G01X2946400Y1021182D03*
G54D31*
G01X1133134Y-810278D03*
G54D32*
G01X853125Y-399255D03*
G01X853125Y-499255D03*
G01X853125Y-599255D03*
G01X853125Y-699254D03*
G01X853125Y-299255D03*
G01X853150Y-99205D03*
G01X853150Y-199205D03*
G54D31*
G01X1133160Y11819D03*
G01X1133134Y332722D03*
G54D32*
G01X853125Y743745D03*
G01X853125Y643745D03*
G01X853125Y543745D03*
G01X853125Y443746D03*
G01X853125Y843745D03*
G01X853150Y1043795D03*
G01X853150Y943795D03*
G54D31*
G01X1133160Y1154819D03*
G01X1133134Y1475722D03*
G54D32*
G01X853125Y1886745D03*
G01X853125Y1786745D03*
G01X853125Y1686745D03*
G01X853125Y1586746D03*
G01X853125Y1986745D03*
G01X853150Y2186795D03*
G01X853150Y2086795D03*
G54D31*
G01X1133160Y2297819D03*
G54D33*
G01X5574500Y598500D03*
G01X5574500Y444500D03*
G54D26*
G01X4427118Y635000D03*
G01X4513682Y635000D03*
G01X4427118Y381000D03*
G01X4513682Y381000D03*
G01X4427118Y127000D03*
G01X4513682Y127000D03*
G01X4427118Y0D03*
G01X4513682Y0D03*
G01X4427118Y254000D03*
G01X4513682Y254000D03*
G01X4427118Y508000D03*
G01X4513682Y508000D03*
G54D27*
G01X4749800Y-249600D03*
G01X4749800Y-334600D03*
G01X5054600Y-262300D03*
G01X5054600Y-347300D03*
G01X5334000Y-262300D03*
G01X5334000Y-347300D03*
G54D33*
G01X5575300Y2032800D03*
G01X5575300Y1878800D03*
G54D26*
G01X4452518Y1930400D03*
G01X4539082Y1930400D03*
G01X4452518Y1663700D03*
G01X4539082Y1663700D03*
G01X4450182Y1384300D03*
G01X4536745Y1384300D03*
G01X4452518Y1244600D03*
G01X4539082Y1244600D03*
G01X4452518Y1524000D03*
G01X4539082Y1524000D03*
G01X4455355Y1789358D03*
G01X4541919Y1789358D03*
G54D27*
G01X4775200Y1172800D03*
G01X4775200Y1087800D03*
G54D34*
G01X5067300Y1087800D03*
G01X5067300Y1172800D03*
G54D27*
G01X5334000Y1160100D03*
G01X5334000Y1075100D03*
G04 Pad End*

M02*
