G04 Layer: InnerLayer3*
G04 EasyEDA Pro v2.1.49.1.de255bc8.674264, 2024-06-01 15:44:05*
G04 Gerber Generator version 0.3*
G04 Scale: 100 percent, Rotated: No, Reflected: No*
G04 Dimensions in millimeters*
G04 Leading zeros omitted, absolute positions, 3 integers and 5 decimals*
%FSLAX35Y35*%
%MOMM*%
%ADD10C,2.49999*%
%ADD11C,1.8*%
%ADD12C,0.5*%
%ADD13C,0.4*%
%ADD14C,0.61001*%
G75*


G04 PlaneZone Start*
G36*
G01X802419Y-2649995D02*
G02X678073Y-2774340I-124346J0D01*
G01X10000D01*
G02X-164346Y-2599995I0J174346D01*
G01Y-1049227D01*
G03X-114300Y-1092054I50046J7827D01*
G03X-63646Y-1041400I0J50654D01*
G03X-114300Y-990746I-50654J0D01*
G03X-164346Y-1033573I0J-50654D01*
G01Y-553927D01*
G03X-114300Y-596754I50046J7827D01*
G03X-63646Y-546100I0J50654D01*
G03X-114300Y-495446I-50654J0D01*
G03X-164346Y-538273I0J-50654D01*
G01Y944673D01*
G03X-114300Y901846I50046J7827D01*
G03X-63646Y952500I0J50654D01*
G03X-114300Y1003154I-50654J0D01*
G03X-164346Y960327I0J-50654D01*
G01Y1947973D01*
G03X-114300Y1905146I50046J7827D01*
G03X-63646Y1955800I0J50654D01*
G03X-114300Y2006454I-50654J0D01*
G03X-164346Y1963627I0J-50654D01*
G01Y2599995D01*
G02X10000Y2774340I174346J0D01*
G01X71446D01*
G03X184891Y2845966I0J125654D01*
G01X907999D01*
G03X1021444Y2774340I113445J54029D01*
G01X2857526D01*
G03X2832246Y2730500I25374J-43840D01*
G03X2882900Y2679846I50654J0D01*
G03X2914650Y2691032I0J50654D01*
G03X2946400Y2679846I31750J39468D01*
G03X2997054Y2730500I0J50654D01*
G03X2971774Y2774340I-50654J0D01*
G01X3845347D01*
G01X6009988D01*
G02X6184334Y2599995I0J-174346D01*
G01Y1101021D01*
G01X5862455D01*
G03X5816600Y1130154I-45855J-21521D01*
G03X5770745Y1101021I0J-50654D01*
G01X4988405D01*
G03X4984804Y1100767I0J-25654D01*
G01X4983144D01*
G03X4974164Y1097048I0J-12700D01*
G01X4972991Y1095874D01*
G03X4970265Y1093508I15414J-20507D01*
G01X4922160Y1045403D01*
G03X4919793Y1042677I18140J-18140D01*
G01X4918620Y1041503D01*
G03X4914900Y1032523I8980J-8980D01*
G01Y1030864D01*
G03X4914646Y1027262I25400J-3601D01*
G01Y894366D01*
G01X4909534Y889254D01*
G01X4572000D01*
G01Y997575D01*
G03X4597254Y1041400I-25400J43825D01*
G03X4572000Y1085225I-50654J0D01*
G01Y1212967D01*
G03X4584736Y1244600I-32918J31633D01*
G03X4572000Y1276233I-45654J0D01*
G01Y1493165D01*
G03X4583986Y1524000I-33668J30835D01*
G03X4572000Y1554835I-45654J0D01*
G01Y1562347D01*
G03X4610100Y1541846I38100J25153D01*
G03X4655754Y1587500I0J45654D01*
G03X4610100Y1633154I-45654J0D01*
G03X4572000Y1612653I0J-45654D01*
G01Y1673312D01*
G01X4597906Y1699218D01*
G01X4813300D01*
G03X4822280Y1702938I0J12700D01*
G01X4847680Y1728338D01*
G03X4851400Y1737318I-8980J8980D01*
G01Y1858335D01*
G03X4873048Y1852876I21648J40195D01*
G03X4918702Y1898530I0J45654D01*
G03X4873048Y1944184I-45654J0D01*
G03X4851400Y1938725I0J-45654D01*
G01Y2400300D01*
G03X4847680Y2409280I-12700J0D01*
G01X4817985Y2438975D01*
G03X4809005Y2442695I-8980J-8980D01*
G01X4539184D01*
G03X4554154Y2476500I-30684J33805D01*
G03X4508500Y2522154I-45654J0D01*
G03X4462846Y2476500I0J-45654D01*
G03X4477816Y2442695I45654J0D01*
G01X4424884D01*
G03X4439854Y2476500I-30684J33805D01*
G03X4394200Y2522154I-45654J0D01*
G03X4349750Y2486915I0J-45654D01*
G03X4305300Y2522154I-44450J-10415D01*
G03X4273550Y2509306I0J-45654D01*
G03X4241800Y2522154I-31750J-32806D01*
G03X4210050Y2509306I0J-45654D01*
G03X4178300Y2522154I-31750J-32806D01*
G03X4140200Y2501653I0J-45654D01*
G03X4102100Y2522154I-38100J-25153D01*
G03X4056446Y2476500I0J-45654D01*
G03X4071416Y2442695I45654J0D01*
G01X3360175D01*
G03X3351194Y2438975I0J-12700D01*
G01X3273875Y2361656D01*
G01X2966823D01*
G01X2946490D01*
G01X2540369D01*
G03X2531366Y2357914I0J-12700D01*
G01X2301116Y2126492D01*
G01X1864850D01*
G01X1841500D01*
G01X1702029D01*
G03X1676400Y2133454I-25629J-43692D01*
G03X1650771Y2126492I0J-50654D01*
G01X1638529D01*
G03X1631391Y2129958I-25629J-43692D01*
G03X1658554Y2171700I-18491J41742D01*
G03X1612900Y2217354I-45654J0D01*
G03X1567246Y2171700I0J-45654D01*
G03X1594409Y2129958I45654J0D01*
G03X1587271Y2126492I18491J-47158D01*
G01X1273033D01*
G03X1277554Y2146300I-41133J19808D01*
G03X1231900Y2191954I-45654J0D01*
G03X1186246Y2146300I0J-45654D01*
G03X1190767Y2126492I45654J0D01*
G01X540739D01*
G03X532106Y2123106I0J-12700D01*
G01X334266Y1939714D01*
G03X330200Y1930400I8634J-9314D01*
G01Y1611136D01*
G03X317500Y1612754I-12700J-49036D01*
G03X266846Y1562100I0J-50654D01*
G03X317500Y1511446I50654J0D01*
G03X330200Y1513064I0J50654D01*
G01Y1339252D01*
G03X297246Y1295400I12700J-43852D01*
G03X330200Y1251548I45654J0D01*
G01Y1028700D01*
G03X333920Y1019720I12700J0D01*
G01X373834Y979805D01*
G03X382815Y976085I8980J8980D01*
G01X420915D01*
G01X464699D01*
G01X468910D01*
G03X462346Y952500I39090J-23585D01*
G03X470064Y927100I45654J0D01*
G03X462346Y901700I37936J-25400D01*
G03X508000Y856046I45654J0D01*
G03X539750Y868894I0J45654D01*
G03X571500Y856046I31750J32806D01*
G03X596938Y863790I0J45654D01*
G03X635000Y843346I38062J25210D01*
G03X680083Y881805I0J45654D01*
G03X685800Y881446I5717J45295D01*
G03X731454Y927100I0J45654D01*
G03X685800Y972754I-45654J0D01*
G03X640717Y934295I0J-45654D01*
G03X635000Y934654I-5717J-45295D01*
G03X609562Y926910I0J-45654D01*
G01X609436Y927100D01*
G03X617154Y952500I-37936J25400D01*
G03X610590Y976085I-45654J0D01*
G01X1077193D01*
G03X1059246Y939800I27707J-36285D01*
G03X1072094Y908050I45654J0D01*
G03X1059246Y876300I32806J-31750D01*
G03X1104900Y830646I45654J0D01*
G03X1150554Y876300I0J45654D01*
G03X1137706Y908050I-45654J0D01*
G03X1150554Y939800I-32806J31750D01*
G03X1132607Y976085I-45654J0D01*
G01X1444116D01*
G01X1444844Y975580D01*
G03X1430216Y955184I28356J-35780D01*
G03X1409700Y960054I-20516J-40784D01*
G03X1364046Y914400I0J-45654D01*
G03X1409700Y868746I45654J0D01*
G03X1452684Y899016I0J45654D01*
G03X1473200Y894146I20516J40784D01*
G03X1515143Y921771I0J45654D01*
G01X1672116Y764799D01*
G03X1681096Y761079I8980J8980D01*
G01X2198220D01*
G01Y-960976D01*
G01X711881D01*
G03X536228Y-1136630I0J-175654D01*
G01Y-1959977D01*
G03X592075Y-2088432I175654J0D01*
G01Y-2088433D01*
G01X762884Y-2247740D01*
G02X802419Y-2338674I-84811J-90934D01*
G01Y-2649995D01*
G37*
%LPC*%
G36*
G01X330276Y-2090354D02*
G03X368338Y-2069910I0J45654D01*
G03X406400Y-2090354I38062J25210D01*
G03X444500Y-2069853I0J45654D01*
G03X482600Y-2090354I38100J25153D01*
G03X528254Y-2044700I0J45654D01*
G03X507753Y-2006600I-45654J0D01*
G03X528254Y-1968500I-25153J38100D01*
G03X511415Y-1933089I-45654J0D01*
G03X528254Y-1897677I-28815J35411D01*
G03X507753Y-1859577I-45654J0D01*
G03X528254Y-1821477I-25153J38100D01*
G03X507753Y-1783377I-45654J0D01*
G03X528254Y-1745277I-25153J38100D01*
G03X512384Y-1710677I-45654J0D01*
G03X528254Y-1676077I-29784J34600D01*
G03X511613Y-1640827I-45654J0D01*
G03X528254Y-1605577I-29013J35250D01*
G03X503108Y-1564789I-45654J0D01*
G03X528254Y-1524000I-20508J40789D01*
G03X507753Y-1485900I-45654J0D01*
G03X528254Y-1447800I-25153J38100D01*
G03X507753Y-1409700I-45654J0D01*
G03X528254Y-1371600I-25153J38100D01*
G03X512384Y-1337000I-45654J0D01*
G03X528254Y-1302399I-29784J34600D01*
G03X511613Y-1267150I-45654J0D01*
G03X528254Y-1231900I-29013J35250D01*
G03X515406Y-1200150I-45654J0D01*
G03X528254Y-1168400I-32806J31750D01*
G03X507753Y-1130300I-45654J0D01*
G03X528254Y-1092200I-25153J38100D01*
G03X507753Y-1054100I-45654J0D01*
G03X528254Y-1016000I-25153J38100D01*
G03X512384Y-981400I-45654J0D01*
G03X528254Y-946799I-29784J34600D01*
G03X511613Y-911550I-45654J0D01*
G03X528254Y-876300I-29013J35250D01*
G03X482600Y-830646I-45654J0D01*
G03X444500Y-851147I0J-45654D01*
G03X406400Y-830646I-38100J-25153D01*
G03X368338Y-851090I0J-45654D01*
G03X330276Y-830646I-38062J-25210D01*
G03X292138Y-851205I0J-45654D01*
G03X254000Y-830646I-38138J-25095D01*
G03X208346Y-876300I0J-45654D01*
G03X224987Y-911550I45654J0D01*
G03X208346Y-946799I29013J-35250D01*
G03X224216Y-981400I45654J0D01*
G03X208346Y-1016000I29784J-34600D01*
G03X228847Y-1054100I45654J0D01*
G03X208346Y-1092200I25153J-38100D01*
G03X228847Y-1130300I45654J0D01*
G03X208346Y-1168400I25153J-38100D01*
G03X221194Y-1200150I45654J0D01*
G03X208346Y-1231900I32806J-31750D01*
G03X224987Y-1267150I45654J0D01*
G03X208346Y-1302399I29013J-35250D01*
G03X224216Y-1337000I45654J0D01*
G03X208346Y-1371600I29784J-34600D01*
G03X228847Y-1409700I45654J0D01*
G03X208346Y-1447800I25153J-38100D01*
G03X228847Y-1485900I45654J0D01*
G03X208346Y-1524000I25153J-38100D01*
G03X233492Y-1564789I45654J0D01*
G03X208346Y-1605577I20508J-40789D01*
G03X224987Y-1640827I45654J0D01*
G03X208346Y-1676077I29013J-35250D01*
G03X224216Y-1710677I45654J0D01*
G03X208346Y-1745277I29784J-34600D01*
G03X228847Y-1783377I45654J0D01*
G03X208346Y-1821477I25153J-38100D01*
G03X228847Y-1859577I45654J0D01*
G03X208346Y-1897677I25153J-38100D01*
G03X225185Y-1933089I45654J0D01*
G03X208346Y-1968500I28815J-35411D01*
G03X228847Y-2006600I45654J0D01*
G03X208346Y-2044700I25153J-38100D01*
G03X254000Y-2090354I45654J0D01*
G03X292138Y-2069795I0J45654D01*
G03X330276Y-2090354I38138J25095D01*
G37*
G36*
G01X5669270Y2235200D02*
G03X5714924Y2189546I45654J0D01*
G03X5753062Y2210105I0J45654D01*
G03X5791200Y2189546I38138J25095D01*
G03X5829300Y2210047I0J45654D01*
G03X5867400Y2189546I38100J25153D01*
G03X5905538Y2210105I0J45654D01*
G03X5943676Y2189546I38138J25095D01*
G03X5981738Y2209990I0J45654D01*
G03X6019800Y2189546I38062J25210D01*
G03X6057900Y2210047I0J45654D01*
G03X6096000Y2189546I38100J25153D01*
G03X6141654Y2235200I0J45654D01*
G03X6121153Y2273300I-45654J0D01*
G03X6141654Y2311400I-25153J38100D01*
G03X6121153Y2349500I-45654J0D01*
G03X6141654Y2387600I-25153J38100D01*
G03X6121153Y2425700I-45654J0D01*
G03X6141654Y2463800I-25153J38100D01*
G03X6121153Y2501900I-45654J0D01*
G03X6141654Y2540000I-25153J38100D01*
G03X6125784Y2574600I-45654J0D01*
G03X6141654Y2609201I-29784J34600D01*
G03X6125013Y2644450I-45654J0D01*
G03X6141654Y2679700I-29013J35250D01*
G03X6096000Y2725354I-45654J0D01*
G03X6057900Y2704853I0J-45654D01*
G03X6019800Y2725354I-38100J-25153D01*
G03X5981738Y2704910I0J-45654D01*
G03X5943676Y2725354I-38062J-25210D01*
G03X5905538Y2704795I0J-45654D01*
G03X5867400Y2725354I-38138J-25095D01*
G03X5829300Y2704853I0J-45654D01*
G03X5791200Y2725354I-38100J-25153D01*
G03X5753062Y2704795I0J-45654D01*
G03X5714924Y2725354I-38138J-25095D01*
G03X5669270Y2679700I0J-45654D01*
G03X5685911Y2644450I45654J0D01*
G03X5669270Y2609201I29013J-35250D01*
G03X5685140Y2574600I45654J0D01*
G03X5669270Y2540000I29784J-34600D01*
G03X5689771Y2501900I45654J0D01*
G03X5669270Y2463800I25153J-38100D01*
G03X5689771Y2425700I45654J0D01*
G03X5669270Y2387600I25153J-38100D01*
G03X5689771Y2349500I45654J0D01*
G03X5669270Y2311400I25153J-38100D01*
G03X5689771Y2273300I45654J0D01*
G03X5669270Y2235200I25153J-38100D01*
G37*
G36*
G01X5935970Y1358900D02*
G03X5981624Y1313246I45654J0D01*
G03X6019762Y1333805I0J45654D01*
G03X6057900Y1313246I38138J25095D01*
G03X6096000Y1333747I0J45654D01*
G03X6134100Y1313246I38100J25153D01*
G03X6179754Y1358900I0J45654D01*
G03X6159253Y1397000I-45654J0D01*
G03X6179754Y1435100I-25153J38100D01*
G03X6159253Y1473200I-45654J0D01*
G03X6179754Y1511300I-25153J38100D01*
G03X6159253Y1549400I-45654J0D01*
G03X6179754Y1587500I-25153J38100D01*
G03X6159253Y1625600I-45654J0D01*
G03X6179754Y1663700I-25153J38100D01*
G03X6163884Y1698300I-45654J0D01*
G03X6179754Y1732901I-29784J34600D01*
G03X6163113Y1768150I-45654J0D01*
G03X6179754Y1803400I-29013J35250D01*
G03X6134100Y1849054I-45654J0D01*
G03X6096000Y1828553I0J-45654D01*
G03X6057900Y1849054I-38100J-25153D01*
G03X6019762Y1828495I0J-45654D01*
G03X5981624Y1849054I-38138J-25095D01*
G03X5935970Y1803400I0J-45654D01*
G03X5952611Y1768150I45654J0D01*
G03X5935970Y1732901I29013J-35250D01*
G03X5951840Y1698300I45654J0D01*
G03X5935970Y1663700I29784J-34600D01*
G03X5956471Y1625600I45654J0D01*
G03X5935970Y1587500I25153J-38100D01*
G03X5956471Y1549400I45654J0D01*
G03X5935970Y1511300I25153J-38100D01*
G03X5956471Y1473200I45654J0D01*
G03X5935970Y1435100I25153J-38100D01*
G03X5956471Y1397000I45654J0D01*
G03X5935970Y1358900I25153J-38100D01*
G37*
G36*
G01X1488445Y482211D02*
G03X1534099Y527865I0J45654D01*
G03X1526381Y553265I-45654J0D01*
G03X1534099Y578665I-37936J25400D01*
G03X1526381Y604065I-45654J0D01*
G03X1530195Y610995I-37936J25400D01*
G03X1574800Y584346I44605J24005D01*
G03X1625454Y635000I0J50654D01*
G03X1608180Y673100I-50654J0D01*
G03X1625454Y711200I-33380J38100D01*
G03X1574800Y761854I-50654J0D01*
G03X1524146Y711200I0J-50654D01*
G03X1541420Y673100I50654J0D01*
G03X1527496Y653115I33380J-38100D01*
G03X1488445Y675119I-39051J-23649D01*
G03X1463045Y667401I0J-45654D01*
G03X1437645Y675119I-25400J-37936D01*
G03X1412245Y667401I0J-45654D01*
G03X1386845Y675119I-25400J-37936D01*
G03X1341191Y629465I0J-45654D01*
G03X1348909Y604065I45654J0D01*
G03X1341191Y578665I37936J-25400D01*
G03X1348909Y553265I45654J0D01*
G03X1341191Y527865I37936J-25400D01*
G03X1386845Y482211I45654J0D01*
G03X1412245Y489930I0J45654D01*
G03X1437645Y482211I25400J37936D01*
G03X1463045Y489930I0J45654D01*
G03X1488445Y482211I25400J37936D01*
G37*
G36*
G01X204345Y170000D02*
G03X339999Y34346I135654J0D01*
G03X475653Y170000I0J135654D01*
G03X339999Y305654I-135654J0D01*
G03X204345Y170000I0J-135654D01*
G37*
G36*
G01X425691Y2367735D02*
G03X561345Y2232081I135654J0D01*
G03X696999Y2367735I0J135654D01*
G03X561345Y2503389I-135654J0D01*
G03X425691Y2367735I0J-135654D01*
G37*
G36*
G01X204345Y-170000D02*
G03X339999Y-305654I135654J0D01*
G03X475653Y-170000I0J135654D01*
G03X339999Y-34346I-135654J0D01*
G03X204345Y-170000I0J-135654D01*
G37*
G36*
G01X425691Y-2367735D02*
G03X561345Y-2503389I135654J0D01*
G03X696999Y-2367735I0J135654D01*
G03X561345Y-2232081I-135654J0D01*
G03X425691Y-2367735I0J-135654D01*
G37*
G36*
G01X5158643Y2232081D02*
G03X5294298Y2367735I0J135654D01*
G03X5158643Y2503389I-135654J0D01*
G03X5022989Y2367735I0J-135654D01*
G03X5158643Y2232081I135654J0D01*
G37*
G36*
G01X1795846Y2336800D02*
G03X1841500Y2291146I45654J0D01*
G03X1884484Y2321416I0J45654D01*
G03X1905000Y2316546I20516J40784D01*
G03X1950654Y2362200I0J45654D01*
G03X1946952Y2380209I-45654J0D01*
G03X1981200Y2400547I-3852J45491D01*
G03X2019300Y2380046I38100J25153D01*
G03X2064954Y2425700I0J45654D01*
G03X2019300Y2471354I-45654J0D01*
G03X1981200Y2450853I0J-45654D01*
G03X1943100Y2471354I-38100J-25153D01*
G03X1898650Y2436115I0J-45654D01*
G03X1854200Y2471354I-44450J-10415D01*
G03X1809750Y2436115I0J-45654D01*
G03X1765300Y2471354I-44450J-10415D01*
G03X1719646Y2425700I0J-45654D01*
G03X1765300Y2380046I45654J0D01*
G03X1809750Y2415285I0J45654D01*
G03X1839677Y2382418I44450J10415D01*
G03X1795846Y2336800I1823J-45618D01*
G37*
G36*
G01X1104900Y2133746D02*
G03X1155554Y2184400I0J50654D01*
G03X1104900Y2235054I-50654J0D01*
G03X1073150Y2223868I0J-50654D01*
G03X1041400Y2235054I-31750J-39468D01*
G03X1003300Y2217780I0J-50654D01*
G03X994585Y2225660I-38100J-33380D01*
G03X1010854Y2260600I-29385J34940D01*
G03X990353Y2298700I-45654J0D01*
G03X1010854Y2336800I-25153J38100D01*
G03X965200Y2382454I-45654J0D01*
G03X919546Y2336800I0J-45654D01*
G03X940047Y2298700I45654J0D01*
G03X919546Y2260600I25153J-38100D01*
G03X935815Y2225660I45654J0D01*
G03X914546Y2184400I29385J-41260D01*
G03X965200Y2133746I50654J0D01*
G03X1003300Y2151020I0J50654D01*
G03X1041400Y2133746I38100J33380D01*
G03X1073150Y2144932I0J50654D01*
G03X1104900Y2133746I31750J39468D01*
G37*
G36*
G01X736600Y-164936D02*
G03X762000Y-172654I25400J37936D01*
G03X807654Y-127000I0J45654D01*
G03X799936Y-101600I-45654J0D01*
G03X807654Y-76200I-37936J25400D01*
G03X762000Y-30546I-45654J0D01*
G03X736600Y-38264I0J-45654D01*
G03X711200Y-30546I-25400J-37936D01*
G03X699638Y-32034I0J-45654D01*
G03X711054Y0I-39238J32034D01*
G03X660400Y50654I-50654J0D01*
G03X609746Y0I0J-50654D01*
G03X660400Y-50654I50654J0D01*
G03X674879Y-48541I0J50654D01*
G03X665546Y-76200I36321J-27659D01*
G03X673264Y-101600I45654J0D01*
G03X665546Y-127000I37936J-25400D01*
G03X711200Y-172654I45654J0D01*
G03X736600Y-164936I0J45654D01*
G37*
G36*
G01X5613400Y2603646D02*
G03X5664054Y2654300I0J50654D01*
G03X5652868Y2686050I-50654J0D01*
G03X5664054Y2717800I-39468J31750D01*
G03X5613400Y2768454I-50654J0D01*
G03X5581650Y2757268I0J-50654D01*
G03X5549900Y2768454I-31750J-39468D01*
G03X5518150Y2757268I0J-50654D01*
G03X5486400Y2768454I-31750J-39468D01*
G03X5435746Y2717800I0J-50654D01*
G03X5446932Y2686050I50654J0D01*
G03X5435746Y2654300I39468J-31750D01*
G03X5486400Y2603646I50654J0D01*
G03X5518150Y2614832I0J50654D01*
G03X5549900Y2603646I31750J39468D01*
G03X5581650Y2614832I0J50654D01*
G03X5613400Y2603646I31750J39468D01*
G37*
G36*
G01X5068107Y2075246D02*
G03X5113761Y2120900I0J45654D01*
G01X5113753Y2121740D01*
G03X5147765Y2143933I-8353J49960D01*
G03X5168900Y2138746I21135J40467D01*
G03X5174376Y2139076I0J45654D01*
G03X5174046Y2133600I45324J-5476D01*
G03X5219700Y2087946I45654J0D01*
G03X5265354Y2133600I0J45654D01*
G03X5219700Y2179254I-45654J0D01*
G03X5214224Y2178924I0J-45654D01*
G03X5214554Y2184400I-45324J5476D01*
G03X5168900Y2230054I-45654J0D01*
G03X5133827Y2213626I0J-45654D01*
G03X5105400Y2222354I-28427J-41926D01*
G03X5054746Y2171700I0J-50654D01*
G03X5055232Y2164701I50654J0D01*
G03X5022453Y2120900I12875J-43801D01*
G03X5068107Y2075246I45654J0D01*
G37*
G36*
G01X2020561Y-510698D02*
G03X2045961Y-502980I0J45654D01*
G03X2071361Y-510698I25400J37936D01*
G03X2096761Y-502980I0J45654D01*
G03X2122161Y-510698I25400J37936D01*
G03X2167815Y-465044I0J45654D01*
G03X2160097Y-439644I-45654J0D01*
G03X2167815Y-414244I-37936J25400D01*
G03X2160097Y-388844I-45654J0D01*
G03X2167815Y-363444I-37936J25400D01*
G03X2122161Y-317790I-45654J0D01*
G03X2096761Y-325508I0J-45654D01*
G03X2071361Y-317790I-25400J-37936D01*
G03X2045961Y-325508I0J-45654D01*
G03X2020561Y-317790I-25400J-37936D01*
G03X1974907Y-363444I0J-45654D01*
G03X1982626Y-388844I45654J0D01*
G03X1974907Y-414244I37936J-25400D01*
G03X1982626Y-439644I45654J0D01*
G03X1974907Y-465044I37936J-25400D01*
G03X2020561Y-510698I45654J0D01*
G37*
G36*
G01X1590045Y-526070D02*
G03X1615445Y-533789I25400J37936D01*
G03X1640845Y-526070I0J45654D01*
G03X1666245Y-533789I25400J37936D01*
G03X1711899Y-488135I0J45654D01*
G03X1704181Y-462735I-45654J0D01*
G03X1711899Y-437335I-37936J25400D01*
G03X1704181Y-411935I-45654J0D01*
G03X1711899Y-386535I-37936J25400D01*
G03X1666245Y-340881I-45654J0D01*
G03X1640845Y-348599I0J-45654D01*
G03X1615445Y-340881I-25400J-37936D01*
G03X1590045Y-348599I0J-45654D01*
G03X1564645Y-340881I-25400J-37936D01*
G03X1518991Y-386535I0J-45654D01*
G03X1526709Y-411935I45654J0D01*
G03X1518991Y-437335I37936J-25400D01*
G03X1526709Y-462735I45654J0D01*
G03X1518991Y-488135I37936J-25400D01*
G03X1564645Y-533789I45654J0D01*
G03X1590045Y-526070I0J45654D01*
G37*
G36*
G01X1803400Y-291936D02*
G03X1828800Y-299654I25400J37936D01*
G03X1874454Y-254000I0J45654D01*
G03X1866736Y-228600I-45654J0D01*
G03X1874454Y-203200I-37936J25400D01*
G03X1866736Y-177800I-45654J0D01*
G03X1874454Y-152400I-37936J25400D01*
G03X1828800Y-106746I-45654J0D01*
G03X1803400Y-114464I0J-45654D01*
G03X1778000Y-106746I-25400J-37936D01*
G03X1752600Y-114464I0J-45654D01*
G03X1727200Y-106746I-25400J-37936D01*
G03X1681546Y-152400I0J-45654D01*
G03X1689264Y-177800I45654J0D01*
G03X1681546Y-203200I37936J-25400D01*
G03X1689264Y-228600I45654J0D01*
G03X1681546Y-254000I37936J-25400D01*
G03X1727200Y-299654I45654J0D01*
G03X1752600Y-291936I0J45654D01*
G03X1778000Y-299654I25400J37936D01*
G03X1803400Y-291936I0J45654D01*
G37*
G36*
G01X4749800Y1287846D02*
G03X4795454Y1333500I0J45654D01*
G03X4749800Y1379154I-45654J0D01*
G03X4705350Y1343915I0J-45654D01*
G03X4693706Y1365250I-44450J-10415D01*
G03X4706554Y1397000I-32806J31750D01*
G03X4660900Y1442654I-45654J0D01*
G03X4615246Y1397000I0J-45654D01*
G03X4628094Y1365250I45654J0D01*
G03X4615246Y1333500I32806J-31750D01*
G03X4660900Y1287846I45654J0D01*
G03X4705350Y1323085I0J45654D01*
G03X4749800Y1287846I44450J10415D01*
G37*
G36*
G01X4737100Y901864D02*
G03X4762500Y894146I25400J37936D01*
G03X4787900Y901864I0J45654D01*
G03X4813300Y894146I25400J37936D01*
G03X4858954Y939800I0J45654D01*
G03X4851236Y965200I-45654J0D01*
G03X4858954Y990600I-37936J25400D01*
G03X4813300Y1036254I-45654J0D01*
G03X4787900Y1028536I0J-45654D01*
G03X4762500Y1036254I-25400J-37936D01*
G03X4737100Y1028536I0J-45654D01*
G03X4711700Y1036254I-25400J-37936D01*
G03X4666046Y990600I0J-45654D01*
G03X4673764Y965200I45654J0D01*
G03X4666046Y939800I37936J-25400D01*
G03X4711700Y894146I45654J0D01*
G03X4737100Y901864I0J45654D01*
G37*
G36*
G01X1133134Y46442D02*
G03X1183788Y97096I0J50654D01*
G03X1171898Y129702I-50654J0D01*
G03X1183788Y162309I-38764J32607D01*
G03X1164190Y202327I-50654J0D01*
G03X1183788Y242344I-31055J40017D01*
G03X1133134Y292998I-50654J0D01*
G03X1082480Y242344I0J-50654D01*
G03X1102079Y202327I50654J0D01*
G03X1082480Y162309I31055J-40017D01*
G03X1094371Y129702I50654J0D01*
G03X1082480Y97096I38764J-32607D01*
G03X1133134Y46442I50654J0D01*
G37*
G36*
G01X5171445Y1764911D02*
G03X5196845Y1772630I0J45654D01*
G03X5222245Y1764911I25400J37936D01*
G03X5267899Y1810565I0J45654D01*
G03X5263734Y1829615I-45654J0D01*
G03X5267899Y1848665I-41490J19050D01*
G03X5222245Y1894319I-45654J0D01*
G03X5196845Y1886601I0J-45654D01*
G03X5171445Y1894319I-25400J-37936D01*
G03X5146045Y1886601I0J-45654D01*
G03X5120645Y1894319I-25400J-37936D01*
G03X5074991Y1848665I0J-45654D01*
G03X5079155Y1829615I45654J0D01*
G03X5074991Y1810565I41490J-19050D01*
G03X5120645Y1764911I45654J0D01*
G03X5146045Y1772630I0J45654D01*
G03X5171445Y1764911I25400J37936D01*
G37*
G36*
G01X1276811Y-849041D02*
G03X1309418Y-860932I32607J38764D01*
G03X1339061Y-851353I0J50654D01*
G03X1368703Y-860932I29643J41075D01*
G03X1419357Y-810278I0J50654D01*
G03X1368703Y-759624I-50654J0D01*
G03X1339061Y-769203I0J-50654D01*
G03X1309418Y-759624I-29643J-41075D01*
G03X1276811Y-771514I0J-50654D01*
G03X1244205Y-759624I-32607J-38764D01*
G03X1193551Y-810278I0J-50654D01*
G03X1244205Y-860932I50654J0D01*
G03X1276811Y-849041I0J50654D01*
G37*
G36*
G01X5516946Y1248132D02*
G03X5562600Y1202478I45654J0D01*
G03X5608254Y1248132I0J45654D01*
G01X5608214Y1250042D01*
G03X5613400Y1249746I5186J45358D01*
G03X5659054Y1295400I0J45654D01*
G03X5613400Y1341054I-45654J0D01*
G03X5588000Y1333336I0J-45654D01*
G03X5562600Y1341054I-25400J-37936D01*
G03X5516946Y1295400I0J-45654D01*
G03X5523540Y1271766I45654J0D01*
G03X5516946Y1248132I39060J-23634D01*
G37*
G36*
G01X5222245Y1556711D02*
G03X5272899Y1607365I0J50654D01*
G03X5222245Y1658019I-50654J0D01*
G03X5184145Y1640745I0J-50654D01*
G03X5146045Y1658019I-38100J-33380D01*
G03X5095391Y1607365I0J-50654D01*
G03X5146045Y1556711I50654J0D01*
G03X5184145Y1573986I0J50654D01*
G03X5222245Y1556711I38100J33380D01*
G37*
G36*
G01X1193946Y635000D02*
G03X1244600Y584346I50654J0D01*
G03X1295254Y635000I0J50654D01*
G03X1277980Y673100I-50654J0D01*
G03X1295254Y711200I-33380J38100D01*
G03X1244600Y761854I-50654J0D01*
G03X1193946Y711200I0J-50654D01*
G03X1211220Y673100I50654J0D01*
G03X1193946Y635000I33380J-38100D01*
G37*
G36*
G01X1325946Y2413000D02*
G03X1371600Y2367346I45654J0D01*
G03X1417254Y2413000I0J45654D01*
G03X1416273Y2422414I-45654J0D01*
G03X1442654Y2463800I-19273J41386D01*
G03X1397000Y2509454I-45654J0D01*
G03X1351346Y2463800I0J-45654D01*
G03X1352327Y2454386I45654J0D01*
G03X1325946Y2413000I19273J-41386D01*
G37*
G36*
G01X1485900Y2248064D02*
G03X1511300Y2240346I25400J37936D01*
G03X1556954Y2286000I0J45654D01*
G03X1511300Y2331654I-45654J0D01*
G03X1485900Y2323936I0J-45654D01*
G03X1460500Y2331654I-25400J-37936D01*
G03X1414846Y2286000I0J-45654D01*
G03X1460500Y2240346I45654J0D01*
G03X1485900Y2248064I0J45654D01*
G37*
G36*
G01X5778500Y1257464D02*
G03X5803900Y1249746I25400J37936D01*
G03X5849554Y1295400I0J45654D01*
G03X5803900Y1341054I-45654J0D01*
G03X5778500Y1333336I0J-45654D01*
G03X5753100Y1341054I-25400J-37936D01*
G03X5707446Y1295400I0J-45654D01*
G03X5753100Y1249746I45654J0D01*
G03X5778500Y1257464I0J45654D01*
G37*
G36*
G01X-12554Y-1739900D02*
G03X38100Y-1790554I50654J0D01*
G03X88754Y-1739900I0J50654D01*
G03X38100Y-1689246I-50654J0D01*
G03X-12554Y-1739900I0J-50654D01*
G37*
G36*
G01X-106583Y-2093895D02*
G03X-55930Y-2043242I0J50654D01*
G03X-106583Y-1992588I-50654J0D01*
G03X-157237Y-2043242I0J-50654D01*
G03X-106583Y-2093895I50654J0D01*
G37*
G36*
G01X42500Y-2299454D02*
G03X93154Y-2248800I0J50654D01*
G03X42500Y-2198146I-50654J0D01*
G03X-8154Y-2248800I0J-50654D01*
G03X42500Y-2299454I50654J0D01*
G37*
G36*
G01X42494Y-2669201D02*
G03X93148Y-2618547I0J50654D01*
G03X42494Y-2567894I-50654J0D01*
G03X-8160Y-2618547I0J-50654D01*
G03X42494Y-2669201I50654J0D01*
G37*
G36*
G01X42494Y698646D02*
G03X93148Y749300I0J50654D01*
G03X42494Y799954I-50654J0D01*
G03X-8160Y749300I0J-50654D01*
G03X42494Y698646I50654J0D01*
G37*
G36*
G01X63646Y2044700D02*
G03X114300Y1994046I50654J0D01*
G03X164954Y2044700I0J50654D01*
G03X114300Y2095354I-50654J0D01*
G03X63646Y2044700I0J-50654D01*
G37*
G36*
G01X114300Y-507854D02*
G03X164954Y-457200I0J50654D01*
G03X114300Y-406546I-50654J0D01*
G03X63646Y-457200I0J-50654D01*
G03X114300Y-507854I50654J0D01*
G37*
G36*
G01X-152254Y1460500D02*
G03X-101600Y1409846I50654J0D01*
G03X-50946Y1460500I0J50654D01*
G03X-101600Y1511154I-50654J0D01*
G03X-152254Y1460500I0J-50654D01*
G37*
G36*
G01X63646Y546100D02*
G03X114300Y495446I50654J0D01*
G03X164954Y546100I0J50654D01*
G03X114300Y596754I-50654J0D01*
G03X63646Y546100I0J-50654D01*
G37*
G36*
G01X-8160Y1739900D02*
G03X42494Y1689246I50654J0D01*
G03X93148Y1739900I0J50654D01*
G03X42494Y1790554I-50654J0D01*
G03X-8160Y1739900I0J-50654D01*
G37*
G36*
G01X63646Y-1447800D02*
G03X114300Y-1498454I50654J0D01*
G03X164954Y-1447800I0J50654D01*
G03X114300Y-1397146I-50654J0D01*
G03X63646Y-1447800I0J-50654D01*
G37*
G36*
G01X114300Y1498746D02*
G03X164954Y1549400I0J50654D01*
G03X114300Y1600054I-50654J0D01*
G03X63646Y1549400I0J-50654D01*
G03X114300Y1498746I50654J0D01*
G37*
G36*
G01X-152254Y-1536700D02*
G03X-101600Y-1587354I50654J0D01*
G03X-50946Y-1536700I0J50654D01*
G03X-101600Y-1486046I-50654J0D01*
G03X-152254Y-1536700I0J-50654D01*
G37*
G36*
G01X114300Y990746D02*
G03X164954Y1041400I0J50654D01*
G03X114300Y1092054I-50654J0D01*
G03X63646Y1041400I0J-50654D01*
G03X114300Y990746I50654J0D01*
G37*
G36*
G01X-101600Y406546D02*
G03X-50946Y457200I0J50654D01*
G03X-101600Y507854I-50654J0D01*
G03X-152254Y457200I0J-50654D01*
G03X-101600Y406546I50654J0D01*
G37*
G36*
G01X-101600Y2413146D02*
G03X-50946Y2463800I0J50654D01*
G03X-101600Y2514454I-50654J0D01*
G03X-152254Y2463800I0J-50654D01*
G03X-101600Y2413146I50654J0D01*
G37*
G36*
G01X40799Y-304654D02*
G03X91453Y-254000I0J50654D01*
G03X40799Y-203346I-50654J0D01*
G03X-9855Y-254000I0J-50654D01*
G03X40799Y-304654I50654J0D01*
G37*
G36*
G01X114300Y2489346D02*
G03X164954Y2540000I0J50654D01*
G03X114300Y2590654I-50654J0D01*
G03X63646Y2540000I0J-50654D01*
G03X114300Y2489346I50654J0D01*
G37*
G36*
G01X45045Y-799954D02*
G03X95699Y-749300I0J50654D01*
G03X45045Y-698646I-50654J0D01*
G03X-5609Y-749300I0J-50654D01*
G03X45045Y-799954I50654J0D01*
G37*
G36*
G01X-8160Y1257300D02*
G03X42494Y1206646I50654J0D01*
G03X93148Y1257300I0J50654D01*
G03X42494Y1307954I-50654J0D01*
G03X-8160Y1257300I0J-50654D01*
G37*
G36*
G01X-8160Y266700D02*
G03X42494Y216046I50654J0D01*
G03X93148Y266700I0J50654D01*
G03X42494Y317354I-50654J0D01*
G03X-8160Y266700I0J-50654D01*
G37*
G36*
G01X-5615Y2260600D02*
G03X45039Y2209946I50654J0D01*
G03X95693Y2260600I0J50654D01*
G03X45039Y2311254I-50654J0D01*
G03X-5615Y2260600I0J-50654D01*
G37*
G36*
G01X-101600Y-101454D02*
G03X-50946Y-50800I0J50654D01*
G03X-101600Y-146I-50654J0D01*
G03X-152254Y-50800I0J-50654D01*
G03X-101600Y-101454I50654J0D01*
G37*
G36*
G01X63646Y50800D02*
G03X114300Y146I50654J0D01*
G03X164954Y50800I0J50654D01*
G03X114300Y101454I-50654J0D01*
G03X63646Y50800I0J-50654D01*
G37*
G36*
G01X-12554Y-1244600D02*
G03X38100Y-1295254I50654J0D01*
G03X88754Y-1244600I0J50654D01*
G03X38100Y-1193946I-50654J0D01*
G03X-12554Y-1244600I0J-50654D01*
G37*
G36*
G01X114300Y-1003154D02*
G03X164954Y-952500I0J50654D01*
G03X114300Y-901846I-50654J0D01*
G03X63646Y-952500I0J-50654D01*
G03X114300Y-1003154I50654J0D01*
G37*
G36*
G01X284943Y2081028D02*
G03X335597Y2131682I0J50654D01*
G03X284943Y2182335I-50654J0D01*
G03X234289Y2131682I0J-50654D01*
G03X284943Y2081028I50654J0D01*
G37*
G36*
G01X838200Y146D02*
G03X888854Y50800I0J50654D01*
G03X838200Y101454I-50654J0D01*
G03X787546Y50800I0J-50654D01*
G03X838200Y146I50654J0D01*
G37*
G36*
G01X800246Y2247900D02*
G03X850900Y2197246I50654J0D01*
G03X901554Y2247900I0J50654D01*
G03X850900Y2298554I-50654J0D01*
G03X800246Y2247900I0J-50654D01*
G37*
G36*
G01X1968646Y-901700D02*
G03X2019300Y-952354I50654J0D01*
G03X2069954Y-901700I0J50654D01*
G03X2019300Y-851046I-50654J0D01*
G03X1968646Y-901700I0J-50654D01*
G37*
G36*
G01X3329132Y2540146D02*
G03X3379786Y2590800I0J50654D01*
G03X3329132Y2641454I-50654J0D01*
G03X3278478Y2590800I0J-50654D01*
G03X3329132Y2540146I50654J0D01*
G37*
G36*
G01X939800Y292246D02*
G03X990454Y342900I0J50654D01*
G03X939800Y393554I-50654J0D01*
G03X889146Y342900I0J-50654D01*
G03X939800Y292246I50654J0D01*
G37*
G36*
G01X4673600Y1054246D02*
G03X4724254Y1104900I0J50654D01*
G03X4673600Y1155554I-50654J0D01*
G03X4622946Y1104900I0J-50654D01*
G03X4673600Y1054246I50654J0D01*
G37*
G36*
G01X582744Y324811D02*
G03X633398Y375465I0J50654D01*
G03X582744Y426119I-50654J0D01*
G03X532090Y375465I0J-50654D01*
G03X582744Y324811I50654J0D01*
G37*
G36*
G01X2184546Y2451100D02*
G03X2235200Y2400446I50654J0D01*
G03X2285854Y2451100I0J50654D01*
G03X2235200Y2501754I-50654J0D01*
G03X2184546Y2451100I0J-50654D01*
G37*
G36*
G01X698500Y-749154D02*
G03X749154Y-698500I0J50654D01*
G03X698500Y-647846I-50654J0D01*
G03X647846Y-698500I0J-50654D01*
G03X698500Y-749154I50654J0D01*
G37*
G36*
G01X4876946Y2184400D02*
G03X4927600Y2133746I50654J0D01*
G03X4978254Y2184400I0J50654D01*
G03X4927600Y2235054I-50654J0D01*
G03X4876946Y2184400I0J-50654D01*
G37*
G36*
G01X939946Y-266700D02*
G03X990600Y-317354I50654J0D01*
G03X1041254Y-266700I0J50654D01*
G03X990600Y-216046I-50654J0D01*
G03X939946Y-266700I0J-50654D01*
G37*
G36*
G01X558800Y152546D02*
G03X609454Y203200I0J50654D01*
G03X558800Y253854I-50654J0D01*
G03X508146Y203200I0J-50654D01*
G03X558800Y152546I50654J0D01*
G37*
G36*
G01X1714500Y444646D02*
G03X1765154Y495300I0J50654D01*
G03X1714500Y545954I-50654J0D01*
G03X1663846Y495300I0J-50654D01*
G03X1714500Y444646I50654J0D01*
G37*
G36*
G01X898127Y182175D02*
G03X948781Y232829I0J50654D01*
G03X898127Y283483I-50654J0D01*
G03X847473Y232829I0J-50654D01*
G03X898127Y182175I50654J0D01*
G37*
G36*
G01X1193800Y-406254D02*
G03X1244454Y-355600I0J50654D01*
G03X1193800Y-304946I-50654J0D01*
G03X1143146Y-355600I0J-50654D01*
G03X1193800Y-406254I50654J0D01*
G37*
G36*
G01X660400Y50946D02*
G03X711054Y101600I0J50654D01*
G03X660400Y152254I-50654J0D01*
G03X609746Y101600I0J-50654D01*
G03X660400Y50946I50654J0D01*
G37*
G36*
G01X584200Y-418954D02*
G03X634854Y-368300I0J50654D01*
G03X584200Y-317646I-50654J0D01*
G03X533546Y-368300I0J-50654D01*
G03X584200Y-418954I50654J0D01*
G37*
G36*
G01X2768600Y2590946D02*
G03X2819254Y2641600I0J50654D01*
G03X2768600Y2692254I-50654J0D01*
G03X2717946Y2641600I0J-50654D01*
G03X2768600Y2590946I50654J0D01*
G37*
G36*
G01X965200Y-647554D02*
G03X1015854Y-596900I0J50654D01*
G03X965200Y-546246I-50654J0D01*
G03X914546Y-596900I0J-50654D01*
G03X965200Y-647554I50654J0D01*
G37*
G36*
G01X355746Y825500D02*
G03X406400Y774846I50654J0D01*
G03X457054Y825500I0J50654D01*
G03X406400Y876154I-50654J0D01*
G03X355746Y825500I0J-50654D01*
G37*
G36*
G01X4864100Y1630746D02*
G03X4909754Y1676400I0J45654D01*
G03X4864100Y1722054I-45654J0D01*
G03X4818446Y1676400I0J-45654D01*
G03X4864100Y1630746I45654J0D01*
G37*
G36*
G01X2006600Y2545146D02*
G03X2052254Y2590800I0J45654D01*
G03X2006600Y2636454I-45654J0D01*
G03X1960946Y2590800I0J-45654D01*
G03X2006600Y2545146I45654J0D01*
G37*
G36*
G01X4866645Y1536311D02*
G03X4912299Y1581965I0J45654D01*
G03X4866645Y1627619I-45654J0D01*
G03X4820991Y1581965I0J-45654D01*
G03X4866645Y1536311I45654J0D01*
G37*
G36*
G01X4653346Y1625600D02*
G03X4699000Y1579946I45654J0D01*
G03X4744654Y1625600I0J45654D01*
G03X4699000Y1671254I-45654J0D01*
G03X4653346Y1625600I0J-45654D01*
G37*
G36*
G01X1905000Y2545146D02*
G03X1950654Y2590800I0J45654D01*
G03X1905000Y2636454I-45654J0D01*
G03X1859346Y2590800I0J-45654D01*
G03X1905000Y2545146I45654J0D01*
G37*
G36*
G01X393700Y411546D02*
G03X439354Y457200I0J45654D01*
G03X393700Y502854I-45654J0D01*
G03X348046Y457200I0J-45654D01*
G03X393700Y411546I45654J0D01*
G37*
G36*
G01X990554Y499838D02*
G03X1036207Y545492I0J45654D01*
G03X990554Y591146I-45654J0D01*
G03X944900Y545492I0J-45654D01*
G03X990554Y499838I45654J0D01*
G37*
G36*
G01X546100Y716346D02*
G03X591754Y762000I0J45654D01*
G03X546100Y807654I-45654J0D01*
G03X500446Y762000I0J-45654D01*
G03X546100Y716346I45654J0D01*
G37*
G36*
G01X1651000Y2443546D02*
G03X1696654Y2489200I0J45654D01*
G03X1651000Y2534854I-45654J0D01*
G03X1605346Y2489200I0J-45654D01*
G03X1651000Y2443546I45654J0D01*
G37*
G36*
G01X609102Y513146D02*
G03X654756Y558800I0J45654D01*
G03X609102Y604454I-45654J0D01*
G03X563448Y558800I0J-45654D01*
G03X609102Y513146I45654J0D01*
G37*
G36*
G01X901700Y2367346D02*
G03X947354Y2413000I0J45654D01*
G03X901700Y2458654I-45654J0D01*
G03X856046Y2413000I0J-45654D01*
G03X901700Y2367346I45654J0D01*
G37*
G36*
G01X1250475Y865377D02*
G03X1296129Y819723I45654J0D01*
G03X1341783Y865377I0J45654D01*
G03X1296129Y911031I-45654J0D01*
G03X1250475Y865377I0J-45654D01*
G37*
G36*
G01X5131524Y1280959D02*
G03X5177178Y1326613I0J45654D01*
G03X5131524Y1372266I-45654J0D01*
G03X5085870Y1326613I0J-45654D01*
G03X5131524Y1280959I45654J0D01*
G37*
G36*
G01X754446Y2463800D02*
G03X800100Y2418146I45654J0D01*
G03X845754Y2463800I0J45654D01*
G03X800100Y2509454I-45654J0D01*
G03X754446Y2463800I0J-45654D01*
G37*
G36*
G01X5393383Y2095111D02*
G03X5439037Y2140765I0J45654D01*
G03X5393383Y2186419I-45654J0D01*
G03X5347729Y2140765I0J-45654D01*
G03X5393383Y2095111I45654J0D01*
G37*
%LPD*%
G36*
G01X4693669Y-2222752D02*
G01X4673754Y-2205580D01*
G01Y-1046290D01*
G01X4673700Y-1044625D01*
G01Y-1041400D01*
G03X4670439Y-1032865I-12800J0D01*
G01X4668289Y-1030462D01*
G01X4667219Y-1029184D01*
G01X4667218D01*
G01X4628166Y-985538D01*
G03X4629055Y-969200I-149765J16337D01*
G03X4478754Y-818547I-150654J0D01*
G01X4464229Y-802313D01*
G01X4463079Y-801109D01*
G01X4460373Y-798084D01*
G03X4450834Y-793819I-9539J-8535D01*
G01X4446776D01*
G01X4445111Y-793765D01*
G01X3063245D01*
G01Y-286883D01*
G03X3086100Y-279236I-2545J45583D01*
G03X3111500Y-286954I25400J37936D01*
G03X3157154Y-241300I0J45654D01*
G03X3149290Y-215683I-45654J0D01*
G03X3157946Y-188935I-36998J26748D01*
G03X3112292Y-143281I-45654J0D01*
G03X3085355Y-152076I0J-45654D01*
G03X3063245Y-144917I-24655J-38424D01*
G01Y118909D01*
G03X3068254Y139700I-40645J20791D01*
G03X3063245Y160491I-45654J0D01*
G01Y169709D01*
G03X3068254Y190500I-40645J20791D01*
G03X3063245Y211291I-45654J0D01*
G01Y220509D01*
G03X3068254Y241300I-40645J20791D01*
G03X3063245Y262091I-45654J0D01*
G01Y271309D01*
G03X3068254Y292100I-40645J20791D01*
G03X3063245Y312891I-45654J0D01*
G01Y461809D01*
G03X3068254Y482600I-40645J20791D01*
G03X3063245Y503391I-45654J0D01*
G01Y525309D01*
G03X3068254Y546100I-40645J20791D01*
G03X3063245Y566891I-45654J0D01*
G01Y863894D01*
G01X3095516Y896165D01*
G01X3505388D01*
G03X3514369Y899885I0J12700D01*
G01X3568764Y954281D01*
G03X3587750Y963832I-12764J49019D01*
G03X3619500Y952646I31750J39468D01*
G03X3670154Y1003300I0J50654D01*
G03X3637163Y1050774I-50654J0D01*
G01Y2046462D01*
G01X3820366Y2229665D01*
G01X3845095D01*
G03X3840546Y2209800I41105J-19865D01*
G03X3886200Y2164146I45654J0D01*
G03X3917950Y2176994I0J45654D01*
G03X3949700Y2164146I31750J32806D01*
G03X3995354Y2209800I0J45654D01*
G03X3990805Y2229665I-45654J0D01*
G01X4099384D01*
G01X4144081Y2184969D01*
G01Y2166389D01*
G03X4140200Y2166554I-3881J-45489D01*
G03X4114800Y2158836I0J-45654D01*
G03X4089400Y2166554I-25400J-37936D01*
G03X4043746Y2120900I0J-45654D01*
G03X4051464Y2095500I45654J0D01*
G03X4043746Y2070100I37936J-25400D01*
G03X4051464Y2044700I45654J0D01*
G03X4043746Y2019300I37936J-25400D01*
G03X4089400Y1973646I45654J0D01*
G03X4114800Y1981364I0J45654D01*
G03X4140200Y1973646I25400J37936D01*
G03X4144081Y1973811I0J45654D01*
G01Y1049156D01*
G03X4114946Y1003300I21519J-45856D01*
G03X4144081Y957444I50654J0D01*
G01Y878642D01*
G01X4144281Y876397D01*
G01Y853937D01*
G03X4143627Y848181I25000J-5756D01*
G01Y720738D01*
G03X4119946Y680720I21973J-40018D01*
G03X4138231Y644180I45654J0D01*
G03X4132646Y622300I40069J-21880D01*
G03X4143627Y592601I45654J0D01*
G01Y474511D01*
G03X4127500Y477454I-16127J-42711D01*
G03X4081846Y431800I0J-45654D01*
G03X4127500Y386146I45654J0D01*
G03X4143627Y389089I0J45654D01*
G01Y289402D01*
G03X4114800Y299654I-28827J-35402D01*
G03X4069146Y254000I0J-45654D01*
G03X4114800Y208346I45654J0D01*
G03X4143627Y218598I0J45654D01*
G01Y162402D01*
G03X4114800Y172654I-28827J-35402D01*
G03X4069146Y127000I0J-45654D01*
G03X4114800Y81346I45654J0D01*
G03X4143627Y91598I0J45654D01*
G01Y-226404D01*
G03X4144281Y-232160I25654J0D01*
G01Y-232481D01*
G03X4147942Y-241320I12500J0D01*
G01X4150465Y-243843D01*
G01X4151141Y-244544D01*
G01Y-244545D01*
G01X4193724Y-287128D01*
G03X4196450Y-289494I18140J18140D01*
G01X4197623Y-290668D01*
G03X4206603Y-294387I8980J8980D01*
G01X4208263D01*
G03X4211864Y-294641I3601J25400D01*
G01X4406097D01*
G03X4408797Y-294784I2700J25511D01*
G01X4475925D01*
G03X4470546Y-317500I45275J-22716D01*
G03X4521200Y-368154I50654J0D01*
G03X4571854Y-317500I0J50654D01*
G01X4571823Y-315736D01*
G01X4584446Y-328359D01*
G01Y-426539D01*
G03X4584700Y-430141I25654J0D01*
G01Y-431800D01*
G03X4588420Y-440780I12700J0D01*
G01X4589593Y-441954D01*
G03X4591960Y-444680I20507J15414D01*
G01X4635520Y-488240D01*
G03X4638246Y-490607I18140J18140D01*
G01X4639220Y-491580D01*
G03X4648200Y-495300I8980J8980D01*
G01X4648785Y-495287D01*
G03X4653661Y-495754I4875J25186D01*
G01X4945995D01*
G01X4947161Y-496717D01*
G01X4990846Y-540401D01*
G01Y-2204576D01*
G01X4972669Y-2222752D01*
G01X4693669D01*
G37*
%LPC*%
G36*
G01X3522797Y-15283D02*
G03X3545593Y-21382I22797J39555D01*
G03X3570993Y-13664I0J45654D01*
G03X3596393Y-21382I25400J37936D01*
G03X3642047Y24272I0J45654D01*
G03X3634329Y49672I-45654J0D01*
G03X3642047Y75072I-37936J25400D01*
G03X3634329Y100472I-45654J0D01*
G03X3642047Y125872I-37936J25400D01*
G03X3613825Y168067I-45654J0D01*
G03X3642299Y210365I-17180J42298D01*
G03X3634581Y235765I-45654J0D01*
G03X3642299Y261165I-37936J25400D01*
G03X3635388Y285316I-45654J0D01*
G03X3639754Y304800I-41288J19484D01*
G03X3604515Y349250I-45654J0D01*
G03X3639754Y393700I-10415J44450D01*
G03X3632036Y419100I-45654J0D01*
G03X3639754Y444500I-37936J25400D01*
G03X3632036Y469900I-45654J0D01*
G03X3639754Y495300I-37936J25400D01*
G03X3612709Y536989I-45654J0D01*
G03X3642299Y579723I-16065J42734D01*
G03X3634929Y604594I-45654J0D01*
G03X3642299Y629465I-38285J24871D01*
G03X3635388Y653616I-45654J0D01*
G03X3639754Y673100I-41288J19484D01*
G03X3594100Y718754I-45654J0D01*
G03X3568700Y711036I0J-45654D01*
G03X3543300Y718754I-25400J-37936D01*
G03X3521650Y713294I0J-45654D01*
G03X3500000Y718754I-21650J-40194D01*
G03X3454346Y673100I0J-45654D01*
G03X3459897Y651283I45654J0D01*
G03X3454346Y629465I40103J-21817D01*
G03X3462064Y604065I45654J0D01*
G03X3454346Y578665I37936J-25400D01*
G03X3478081Y538617I45654J0D01*
G03X3446846Y495300I14419J-43317D01*
G03X3454564Y469900I45654J0D01*
G03X3446846Y444500I37936J-25400D01*
G03X3454564Y419100I45654J0D01*
G03X3446846Y393700I37936J-25400D01*
G03X3486568Y348433I45654J0D01*
G03X3454346Y304800I13433J-43633D01*
G03X3459897Y282983I45654J0D01*
G03X3454346Y261165I40103J-21817D01*
G03X3462064Y235765I45654J0D01*
G03X3454346Y210365I37936J-25400D01*
G03X3482694Y168119I45654J0D01*
G03X3454346Y125872I17306J-42247D01*
G03X3462064Y100472I45654J0D01*
G03X3454346Y75072I37936J-25400D01*
G03X3462064Y49672I45654J0D01*
G03X3454346Y24272I37936J-25400D01*
G03X3500000Y-21382I45654J0D01*
G03X3522797Y-15283I0J45654D01*
G37*
G36*
G01X3545845Y-401370D02*
G03X3571245Y-393652I0J45654D01*
G03X3596645Y-401370I25400J37936D01*
G03X3642299Y-355716I0J45654D01*
G03X3634581Y-330316I-45654J0D01*
G03X3642299Y-304916I-37936J25400D01*
G03X3634581Y-279516I-45654J0D01*
G03X3642299Y-254116I-37936J25400D01*
G03X3620391Y-215124I-45654J0D01*
G03X3639754Y-177800I-26291J37324D01*
G03X3632036Y-152400I-45654J0D01*
G03X3639754Y-127000I-37936J25400D01*
G03X3632036Y-101600I-45654J0D01*
G03X3639754Y-76200I-37936J25400D01*
G03X3594100Y-30546I-45654J0D01*
G03X3568700Y-38264I0J-45654D01*
G03X3543300Y-30546I-25400J-37936D01*
G03X3521650Y-36006I0J-45654D01*
G03X3500000Y-30546I-21650J-40194D01*
G03X3454346Y-76200I0J-45654D01*
G03X3462064Y-101600I45654J0D01*
G03X3454346Y-127000I37936J-25400D01*
G03X3462064Y-152400I45654J0D01*
G03X3454346Y-177800I37936J-25400D01*
G03X3474847Y-215900I45654J0D01*
G03X3454346Y-254000I25153J-38100D01*
G03X3462064Y-279400I45654J0D01*
G03X3454346Y-304800I37936J-25400D01*
G03X3462064Y-330200I45654J0D01*
G03X3454346Y-355600I37936J-25400D01*
G03X3500000Y-401254I45654J0D01*
G03X3522823Y-395140I0J45654D01*
G03X3545845Y-401370I23022J39424D01*
G37*
G36*
G01X3596645Y-589589D02*
G03X3634578Y-572504I0J50654D01*
G03X3671484Y-588464I36907J34695D01*
G03X3703234Y-577278I0J50654D01*
G03X3734984Y-588464I31750J39468D01*
G03X3768957Y-575382I0J50654D01*
G03X3797300Y-584054I28343J41982D01*
G03X3829050Y-572868I0J50654D01*
G03X3860800Y-584054I31750J39468D01*
G03X3911454Y-533400I0J50654D01*
G03X3860800Y-482746I-50654J0D01*
G03X3829050Y-493932I0J-50654D01*
G03X3797300Y-482746I-31750J-39468D01*
G03X3763327Y-495828I0J-50654D01*
G03X3734984Y-487156I-28343J-41982D01*
G03X3703234Y-498341I0J-50654D01*
G03X3671484Y-487156I-31750J-39468D01*
G03X3633552Y-504240I0J-50654D01*
G03X3596645Y-488281I-36907J-34695D01*
G03X3564293Y-499958I0J-50654D01*
G03X3531777Y-488144I-32516J-38840D01*
G03X3500027Y-499330I0J-50654D01*
G03X3468277Y-488144I-31750J-39468D01*
G03X3417623Y-538798I0J-50654D01*
G03X3468277Y-589452I50654J0D01*
G03X3500027Y-578266I0J50654D01*
G03X3531777Y-589452I31750J39468D01*
G03X3564129Y-577775I0J50654D01*
G03X3596645Y-589589I32516J38840D01*
G37*
G36*
G01X4737246Y-749300D02*
G03X4787900Y-799954I50654J0D01*
G03X4819650Y-788768I0J50654D01*
G03X4851400Y-799954I31750J39468D01*
G03X4902054Y-749300I0J50654D01*
G03X4890868Y-717550I-50654J0D01*
G03X4902054Y-685800I-39468J31750D01*
G03X4851400Y-635146I-50654J0D01*
G03X4819650Y-646332I0J-50654D01*
G03X4787900Y-635146I-31750J-39468D01*
G03X4737246Y-685800I0J-50654D01*
G03X4748432Y-717550I50654J0D01*
G03X4737246Y-749300I39468J-31750D01*
G37*
G36*
G01X4053845Y-589589D02*
G03X4104499Y-538935I0J50654D01*
G03X4053845Y-488281I-50654J0D01*
G03X4015745Y-505555I0J-50654D01*
G03X3977645Y-488281I-38100J-33380D01*
G03X3926991Y-538935I0J-50654D01*
G03X3977645Y-589589I50654J0D01*
G03X4015745Y-572314I0J50654D01*
G03X4053845Y-589589I38100J33380D01*
G37*
G36*
G01X4225256Y-578303D02*
G03X4257006Y-589489I31750J39468D01*
G03X4307660Y-538835I0J50654D01*
G03X4257006Y-488181I-50654J0D01*
G03X4225256Y-499366I0J-50654D01*
G03X4193506Y-488181I-31750J-39468D01*
G03X4142852Y-538835I0J-50654D01*
G03X4193506Y-589489I50654J0D01*
G03X4225256Y-578303I0J50654D01*
G37*
G36*
G01X3746500Y259146D02*
G03X3792154Y304800I0J45654D01*
G03X3753836Y349861I-45654J0D01*
G03X3792654Y395000I-6836J45139D01*
G03X3747000Y440654I-45654J0D01*
G03X3701346Y395000I0J-45654D01*
G03X3739664Y349939I45654J0D01*
G03X3700846Y304800I6836J-45139D01*
G03X3746500Y259146I45654J0D01*
G37*
G36*
G01X4470400Y-596754D02*
G03X4521054Y-546100I0J50654D01*
G03X4470400Y-495446I-50654J0D01*
G03X4419746Y-546100I0J-50654D01*
G03X4470400Y-596754I50654J0D01*
G37*
G36*
G01X4076700Y563946D02*
G03X4122354Y609600I0J45654D01*
G03X4076700Y655254I-45654J0D01*
G03X4031046Y609600I0J-45654D01*
G03X4076700Y563946I45654J0D01*
G37*
G36*
G01X3695700Y1579946D02*
G03X3741354Y1625600I0J45654D01*
G03X3695700Y1671254I-45654J0D01*
G03X3650046Y1625600I0J-45654D01*
G03X3695700Y1579946I45654J0D01*
G37*
G36*
G01X4038600Y271846D02*
G03X4084254Y317500I0J45654D01*
G03X4038600Y363154I-45654J0D01*
G03X3992946Y317500I0J-45654D01*
G03X4038600Y271846I45654J0D01*
G37*
%LPD*%
G36*
G01X4322159Y-2774340D02*
G02X4197814Y-2649995I0J124346D01*
G01Y-2005129D01*
G03X4022160Y-1829476I-175654J0D01*
G01X3466726D01*
G02X3342380Y-1705130I0J124346D01*
G01Y-1136630D01*
G03X3166726Y-960976I-175654J0D01*
G01X3063245D01*
G01Y-819419D01*
G01X4445111D01*
G01X4447244Y-821804D01*
G03X4327747Y-969200I31157J-147397D01*
G03X4478401Y-1119854I150654J0D01*
G03X4621439Y-1016493I0J150654D01*
G01X4648100Y-1046290D01*
G01Y-2211469D01*
G03X4652541Y-2221163I12800J0D01*
G01X4680534Y-2245300D01*
G03X4688893Y-2248406I8359J9694D01*
G01X4977994D01*
G03X4987045Y-2244657I0J12800D01*
G01X5012851Y-2218851D01*
G03X5016600Y-2209800I-9051J9051D01*
G01X5016500Y-2208204D01*
G01Y-535036D01*
G03X5012780Y-526056I-12700J0D01*
G01X4964628Y-477903D01*
G01X4962898Y-476456D01*
G01X4960203Y-473761D01*
G03X4951364Y-470100I-8839J-8839D01*
G01X4653661D01*
G01X4610100Y-426539D01*
G01Y-322993D01*
G03X4606380Y-314013I-12700J0D01*
G01X4565217Y-272850D01*
G03X4556237Y-269130I-8980J-8980D01*
G01X4536239D01*
G03X4521200Y-266846I-15039J-48370D01*
G03X4506161Y-269130I0J-50654D01*
G01X4408797D01*
G01X4406900Y-268987D01*
G01X4211864D01*
G01X4169281Y-226404D01*
G01Y413398D01*
G03X4173154Y431800I-41781J18402D01*
G03X4169281Y450202I-45654J0D01*
G01Y577546D01*
G03X4178300Y576646I9019J44754D01*
G03X4223954Y622300I0J45654D01*
G03X4205669Y658840I-45654J0D01*
G03X4211254Y680720I-40069J21880D01*
G03X4169281Y726225I-45654J0D01*
G01Y848181D01*
G01X4178148Y839314D01*
G03X4187129Y835594I8980J8980D01*
G01X4531294D01*
G03X4540274Y839314I0J12700D01*
G01X4564561Y863600D01*
G01X4914900D01*
G03X4923880Y867320I0J12700D01*
G01X4936580Y880020D01*
G03X4940300Y889000I-8980J8980D01*
G01Y1027262D01*
G01X4988405Y1075367D01*
G01X5766115D01*
G03X5816600Y1028846I50485J4133D01*
G03X5867085Y1075367I0J50654D01*
G01X6184334D01*
G01Y281420D01*
G01Y221420D01*
G01Y-218579D01*
G01Y-278579D01*
G01Y-574129D01*
G02X6149988Y-608475I-34346J0D01*
G01X5869988D01*
G03X5784334Y-694128I0J-85654D01*
G01Y-1679811D01*
G01Y-1767126D01*
G03X5869988Y-1852780I85654J0D01*
G01X6149988D01*
G02X6184334Y-1887126I0J-34346D01*
G01Y-2599995D01*
G02X6009988Y-2774340I-174346J0D01*
G01X4322159D01*
G37*
%LPC*%
G36*
G01X5593146Y-2654300D02*
G03X5638800Y-2699954I45654J0D01*
G03X5676900Y-2679453I0J45654D01*
G03X5715000Y-2699954I38100J25153D01*
G03X5759450Y-2664715I0J45654D01*
G03X5803900Y-2699954I44450J10415D01*
G03X5842038Y-2679395I0J45654D01*
G03X5880176Y-2699954I38138J25095D01*
G03X5918238Y-2679510I0J45654D01*
G03X5956300Y-2699954I38062J25210D01*
G03X5994400Y-2679453I0J45654D01*
G03X6032500Y-2699954I38100J25153D01*
G03X6078154Y-2654300I0J45654D01*
G03X6057653Y-2616200I-45654J0D01*
G03X6078154Y-2578100I-25153J38100D01*
G03X6057653Y-2540000I-45654J0D01*
G03X6078154Y-2501900I-25153J38100D01*
G03X6062284Y-2467300I-45654J0D01*
G03X6078154Y-2432699I-29784J34600D01*
G03X6061513Y-2397450I-45654J0D01*
G03X6078154Y-2362200I-29013J35250D01*
G03X6057653Y-2324100I-45654J0D01*
G03X6078154Y-2286000I-25153J38100D01*
G03X6057653Y-2247900I-45654J0D01*
G03X6078154Y-2209800I-25153J38100D01*
G03X6057653Y-2171700I-45654J0D01*
G03X6078154Y-2133600I-25153J38100D01*
G03X6062284Y-2099000I-45654J0D01*
G03X6078154Y-2064399I-29784J34600D01*
G03X6061513Y-2029150I-45654J0D01*
G03X6078154Y-1993900I-29013J35250D01*
G03X6032500Y-1948246I-45654J0D01*
G03X5994400Y-1968747I0J-45654D01*
G03X5956300Y-1948246I-38100J-25153D01*
G03X5918238Y-1968690I0J-45654D01*
G03X5880176Y-1948246I-38062J-25210D01*
G03X5842038Y-1968805I0J-45654D01*
G03X5803900Y-1948246I-38138J-25095D01*
G03X5759450Y-1983485I0J-45654D01*
G03X5715000Y-1948246I-44450J-10415D01*
G03X5676900Y-1968747I0J-45654D01*
G03X5638800Y-1948246I-38100J-25153D01*
G03X5593146Y-1993900I0J-45654D01*
G03X5609787Y-2029150I45654J0D01*
G03X5593146Y-2064399I29013J-35250D01*
G03X5609016Y-2099000I45654J0D01*
G03X5593146Y-2133600I29784J-34600D01*
G03X5613647Y-2171700I45654J0D01*
G03X5593146Y-2209800I25153J-38100D01*
G03X5613647Y-2247900I45654J0D01*
G03X5593146Y-2286000I25153J-38100D01*
G03X5613647Y-2324100I45654J0D01*
G03X5593146Y-2362200I25153J-38100D01*
G03X5609787Y-2397450I45654J0D01*
G03X5593146Y-2432699I29013J-35250D01*
G03X5609016Y-2467300I45654J0D01*
G03X5593146Y-2501900I29784J-34600D01*
G03X5613647Y-2540000I45654J0D01*
G03X5593146Y-2578100I25153J-38100D01*
G03X5613647Y-2616200I45654J0D01*
G03X5593146Y-2654300I25153J-38100D01*
G37*
G36*
G01X5935970Y444500D02*
G03X5981624Y398846I45654J0D01*
G03X6019762Y419405I0J45654D01*
G03X6057900Y398846I38138J25095D01*
G03X6096000Y419347I0J45654D01*
G03X6134100Y398846I38100J25153D01*
G03X6179754Y444500I0J45654D01*
G03X6159253Y482600I-45654J0D01*
G03X6179754Y520700I-25153J38100D01*
G03X6159253Y558800I-45654J0D01*
G03X6179754Y596900I-25153J38100D01*
G03X6159253Y635000I-45654J0D01*
G03X6179754Y673100I-25153J38100D01*
G03X6159253Y711200I-45654J0D01*
G03X6179754Y749300I-25153J38100D01*
G03X6163884Y783900I-45654J0D01*
G03X6179754Y818501I-29784J34600D01*
G03X6163113Y853750I-45654J0D01*
G03X6179754Y889000I-29013J35250D01*
G03X6134100Y934654I-45654J0D01*
G03X6096000Y914153I0J-45654D01*
G03X6057900Y934654I-38100J-25153D01*
G03X6019762Y914095I0J-45654D01*
G03X5981624Y934654I-38138J-25095D01*
G03X5935970Y889000I0J-45654D01*
G03X5952611Y853750I45654J0D01*
G03X5935970Y818501I29013J-35250D01*
G03X5951840Y783900I45654J0D01*
G03X5935970Y749300I29784J-34600D01*
G03X5956471Y711200I45654J0D01*
G03X5935970Y673100I25153J-38100D01*
G03X5956471Y635000I45654J0D01*
G03X5935970Y596900I25153J-38100D01*
G03X5956471Y558800I45654J0D01*
G03X5935970Y520700I25153J-38100D01*
G03X5956471Y482600I45654J0D01*
G03X5935970Y444500I25153J-38100D01*
G37*
G36*
G01X5935970Y-508000D02*
G03X5981624Y-553654I45654J0D01*
G03X6019762Y-533095I0J45654D01*
G03X6057900Y-553654I38138J25095D01*
G03X6096000Y-533153I0J45654D01*
G03X6134100Y-553654I38100J25153D01*
G03X6179754Y-508000I0J45654D01*
G03X6159253Y-469900I-45654J0D01*
G03X6179754Y-431800I-25153J38100D01*
G03X6159253Y-393700I-45654J0D01*
G03X6179754Y-355600I-25153J38100D01*
G03X6159253Y-317500I-45654J0D01*
G03X6179754Y-279400I-25153J38100D01*
G03X6163884Y-244800I-45654J0D01*
G03X6179754Y-210199I-29784J34600D01*
G03X6163113Y-174950I-45654J0D01*
G03X6179754Y-139700I-29013J35250D01*
G03X6134100Y-94046I-45654J0D01*
G03X6096000Y-114547I0J-45654D01*
G03X6057900Y-94046I-38100J-25153D01*
G03X6019762Y-114605I0J-45654D01*
G03X5981624Y-94046I-38138J-25095D01*
G03X5935970Y-139700I0J-45654D01*
G03X5952611Y-174950I45654J0D01*
G03X5935970Y-210199I29013J-35250D01*
G03X5951840Y-244800I45654J0D01*
G03X5935970Y-279400I29784J-34600D01*
G03X5956471Y-317500I45654J0D01*
G03X5935970Y-355600I25153J-38100D01*
G03X5956471Y-393700I45654J0D01*
G03X5935970Y-431800I25153J-38100D01*
G03X5956471Y-469900I45654J0D01*
G03X5935970Y-508000I25153J-38100D01*
G37*
G36*
G01X4478401Y-1619853D02*
G03X4629055Y-1469199I0J150654D01*
G03X4478401Y-1318546I-150654J0D01*
G03X4327747Y-1469199I0J-150654D01*
G03X4478401Y-1619853I150654J0D01*
G37*
G36*
G01X5016646Y-1790700D02*
G03X5067300Y-1841354I50654J0D01*
G03X5108122Y-1820690I0J50654D01*
G03X5145585Y-1837252I37463J34093D01*
G03X5196239Y-1786598I0J50654D01*
G03X5185054Y-1754848I-50654J0D01*
G03X5196239Y-1723098I-39468J31750D01*
G03X5185054Y-1691348I-50654J0D01*
G03X5196239Y-1659598I-39468J31750D01*
G03X5185054Y-1627848I-50654J0D01*
G03X5196239Y-1596098I-39468J31750D01*
G03X5185054Y-1564348I-50654J0D01*
G03X5196239Y-1532598I-39468J31750D01*
G03X5185054Y-1500848I-50654J0D01*
G03X5196239Y-1469098I-39468J31750D01*
G03X5185054Y-1437348I-50654J0D01*
G03X5196239Y-1405598I-39468J31750D01*
G03X5145585Y-1354944I-50654J0D01*
G03X5104763Y-1375607I0J-50654D01*
G03X5067300Y-1359046I-37463J-34093D01*
G03X5016646Y-1409700I0J-50654D01*
G03X5027832Y-1441450I50654J0D01*
G03X5016646Y-1473200I39468J-31750D01*
G03X5027832Y-1504950I50654J0D01*
G03X5016646Y-1536700I39468J-31750D01*
G03X5027832Y-1568450I50654J0D01*
G03X5016646Y-1600200I39468J-31750D01*
G03X5027832Y-1631950I50654J0D01*
G03X5016646Y-1663700I39468J-31750D01*
G03X5027832Y-1695450I50654J0D01*
G03X5016646Y-1727200I39468J-31750D01*
G03X5027832Y-1758950I50654J0D01*
G03X5016646Y-1790700I39468J-31750D01*
G37*
G36*
G01X5022989Y-2367735D02*
G03X5158643Y-2503389I135654J0D01*
G03X5294298Y-2367735I0J135654D01*
G03X5158643Y-2232081I-135654J0D01*
G03X5022989Y-2367735I0J-135654D01*
G37*
G36*
G01X3518046Y-1600200D02*
G03X3568700Y-1650854I50654J0D01*
G03X3600450Y-1639668I0J50654D01*
G03X3632200Y-1650854I31750J39468D01*
G03X3663950Y-1639668I0J50654D01*
G03X3695700Y-1650854I31750J39468D01*
G03X3746354Y-1600200I0J50654D01*
G03X3732595Y-1565493I-50654J0D01*
G03X3746354Y-1530787I-36895J34707D01*
G03X3732180Y-1495643I-50654J0D01*
G03X3746354Y-1460500I-36480J35143D01*
G03X3695700Y-1409846I-50654J0D01*
G03X3663950Y-1421032I0J-50654D01*
G03X3632200Y-1409846I-31750J-39468D01*
G03X3600450Y-1421032I0J-50654D01*
G03X3568700Y-1409846I-31750J-39468D01*
G03X3518046Y-1460500I0J-50654D01*
G03X3532220Y-1495643I50654J0D01*
G03X3518046Y-1530787I36480J-35143D01*
G03X3531805Y-1565493I50654J0D01*
G03X3518046Y-1600200I36895J-34707D01*
G37*
G36*
G01X5478399Y-784855D02*
G03X5594053Y-669201I0J115654D01*
G03X5478399Y-553547I-115654J0D01*
G03X5362745Y-669201I0J-115654D01*
G03X5478399Y-784855I115654J0D01*
G37*
G36*
G01X5362745Y-1769199D02*
G03X5478399Y-1884853I115654J0D01*
G03X5594053Y-1769199I0J115654D01*
G03X5478399Y-1653545I-115654J0D01*
G03X5362745Y-1769199I0J-115654D01*
G37*
G36*
G01X4533900Y-248854D02*
G03X4579554Y-203200I0J45654D01*
G03X4575852Y-185191I-45654J0D01*
G03X4617654Y-139700I-3852J45491D01*
G03X4572000Y-94046I-45654J0D01*
G03X4526382Y-137877I0J-45654D01*
G03X4483100Y-106746I-43282J-14523D01*
G03X4437446Y-152400I0J-45654D01*
G03X4483100Y-198054I45654J0D01*
G03X4488576Y-197724I0J45654D01*
G03X4488246Y-203200I45324J-5476D01*
G03X4533900Y-248854I45654J0D01*
G37*
G36*
G01X5080146Y-749300D02*
G03X5130800Y-799954I50654J0D01*
G03X5162550Y-788768I0J50654D01*
G03X5194300Y-799954I31750J39468D01*
G03X5244954Y-749300I0J50654D01*
G03X5233768Y-717550I-50654J0D01*
G03X5244954Y-685800I-39468J31750D01*
G03X5194300Y-635146I-50654J0D01*
G03X5162550Y-646332I0J-50654D01*
G03X5130800Y-635146I-31750J-39468D01*
G03X5080146Y-685800I0J-50654D01*
G03X5091332Y-717550I50654J0D01*
G03X5080146Y-749300I39468J-31750D01*
G37*
G36*
G01X4800600Y716346D02*
G03X4832350Y729194I0J45654D01*
G03X4864100Y716346I31750J32806D01*
G03X4909718Y760177I0J45654D01*
G03X4953000Y729046I43282J14523D01*
G03X4998654Y774700I0J45654D01*
G03X4953000Y820354I-45654J0D01*
G03X4907382Y776523I0J-45654D01*
G03X4864100Y807654I-43282J-14523D01*
G03X4832350Y794806I0J-45654D01*
G03X4800600Y807654I-31750J-32806D01*
G03X4754946Y762000I0J-45654D01*
G03X4800600Y716346I45654J0D01*
G37*
G36*
G01X4851400Y195646D02*
G03X4883150Y208494I0J45654D01*
G03X4914900Y195646I31750J32806D01*
G03X4959350Y230885I0J45654D01*
G03X5003800Y195646I44450J10415D01*
G03X5049454Y241300I0J45654D01*
G03X5003800Y286954I-45654J0D01*
G03X4959350Y251715I0J-45654D01*
G03X4914900Y286954I-44450J-10415D01*
G03X4883150Y274106I0J-45654D01*
G03X4851400Y286954I-31750J-32806D01*
G03X4805746Y241300I0J-45654D01*
G03X4851400Y195646I45654J0D01*
G37*
G36*
G01X4599538Y678246D02*
G03X4645192Y723900I0J45654D01*
G03X4644088Y733882I-45654J0D01*
G03X4664537Y729046I20449J40818D01*
G03X4710191Y774700I0J45654D01*
G03X4664537Y820354I-45654J0D01*
G03X4618883Y774700I0J-45654D01*
G03X4619988Y764718I45654J0D01*
G03X4599538Y769554I-20449J-40818D01*
G03X4553884Y723900I0J-45654D01*
G03X4599538Y678246I45654J0D01*
G37*
G36*
G01X4654550Y348194D02*
G03X4686300Y335346I31750J32806D01*
G03X4718050Y348194I0J45654D01*
G03X4749800Y335346I31750J32806D01*
G03X4795454Y381000I0J45654D01*
G03X4749800Y426654I-45654J0D01*
G03X4718050Y413806I0J-45654D01*
G03X4686300Y426654I-31750J-32806D01*
G03X4654550Y413806I0J-45654D01*
G03X4622800Y426654I-31750J-32806D01*
G03X4577146Y381000I0J-45654D01*
G03X4622800Y335346I45654J0D01*
G03X4654550Y348194I0J45654D01*
G37*
G36*
G01X4737100Y195646D02*
G03X4782754Y241300I0J45654D01*
G03X4737100Y286954I-45654J0D01*
G03X4705350Y274106I0J-45654D01*
G03X4673600Y286954I-31750J-32806D01*
G03X4627946Y241300I0J-45654D01*
G03X4673600Y195646I45654J0D01*
G03X4705350Y208494I0J45654D01*
G03X4737100Y195646I31750J32806D01*
G37*
G36*
G01X4940300Y335346D02*
G03X4985954Y381000I0J45654D01*
G03X4940300Y426654I-45654J0D01*
G03X4908550Y413806I0J-45654D01*
G03X4876800Y426654I-31750J-32806D01*
G03X4831146Y381000I0J-45654D01*
G03X4876800Y335346I45654J0D01*
G03X4908550Y348194I0J45654D01*
G03X4940300Y335346I31750J32806D01*
G37*
G36*
G01X5351846Y762000D02*
G03X5397500Y716346I45654J0D01*
G03X5429250Y729194I0J45654D01*
G03X5461000Y716346I31750J32806D01*
G03X5506654Y762000I0J45654D01*
G03X5461000Y807654I-45654J0D01*
G03X5429250Y794806I0J-45654D01*
G03X5397500Y807654I-31750J-32806D01*
G03X5351846Y762000I0J-45654D01*
G37*
G36*
G01X5257946Y-457200D02*
G03X5308600Y-507854I50654J0D01*
G03X5359254Y-457200I0J50654D01*
G03X5308600Y-406546I-50654J0D01*
G03X5257946Y-457200I0J-50654D01*
G37*
G36*
G01X5574500Y390846D02*
G03X5625154Y441500I0J50654D01*
G03X5574500Y492154I-50654J0D01*
G03X5523846Y441500I0J-50654D01*
G03X5574500Y390846I50654J0D01*
G37*
G36*
G01X5321300Y889146D02*
G03X5371954Y939800I0J50654D01*
G03X5321300Y990454I-50654J0D01*
G03X5270646Y939800I0J-50654D01*
G03X5321300Y889146I50654J0D01*
G37*
G36*
G01X5273191Y-1072335D02*
G03X5323845Y-1122989I50654J0D01*
G03X5374499Y-1072335I0J50654D01*
G03X5323845Y-1021681I-50654J0D01*
G03X5273191Y-1072335I0J-50654D01*
G37*
G36*
G01X5323845Y-1249989D02*
G03X5374499Y-1199335I0J50654D01*
G03X5323845Y-1148681I-50654J0D01*
G03X5273191Y-1199335I0J-50654D01*
G03X5323845Y-1249989I50654J0D01*
G37*
G36*
G01X5273045Y-157789D02*
G03X5323699Y-107135I0J50654D01*
G03X5273045Y-56481I-50654J0D01*
G03X5222391Y-107135I0J-50654D01*
G03X5273045Y-157789I50654J0D01*
G37*
G36*
G01X5158745Y-1351589D02*
G03X5209399Y-1300935I0J50654D01*
G03X5158745Y-1250281I-50654J0D01*
G03X5108091Y-1300935I0J-50654D01*
G03X5158745Y-1351589I50654J0D01*
G37*
G36*
G01X4648200Y-2463654D02*
G03X4698854Y-2413000I0J50654D01*
G03X4648200Y-2362346I-50654J0D01*
G03X4597546Y-2413000I0J-50654D01*
G03X4648200Y-2463654I50654J0D01*
G37*
G36*
G01X4330841Y-2311400D02*
G03X4381495Y-2362054I50654J0D01*
G03X4432149Y-2311400I0J50654D01*
G03X4381495Y-2260746I-50654J0D01*
G03X4330841Y-2311400I0J-50654D01*
G37*
G36*
G01X4457846Y-1968500D02*
G03X4508500Y-2019154I50654J0D01*
G03X4559154Y-1968500I0J50654D01*
G03X4508500Y-1917846I-50654J0D01*
G03X4457846Y-1968500I0J-50654D01*
G37*
G36*
G01X5118100Y-1993754D02*
G03X5168754Y-1943100I0J50654D01*
G03X5118100Y-1892446I-50654J0D01*
G03X5067446Y-1943100I0J-50654D01*
G03X5118100Y-1993754I50654J0D01*
G37*
G36*
G01X4376318Y-2692254D02*
G03X4426972Y-2641600I0J50654D01*
G03X4376318Y-2590946I-50654J0D01*
G03X4325664Y-2641600I0J-50654D01*
G03X4376318Y-2692254I50654J0D01*
G37*
G36*
G01X4927600Y-2514454D02*
G03X4978254Y-2463800I0J50654D01*
G03X4927600Y-2413146I-50654J0D01*
G03X4876946Y-2463800I0J-50654D01*
G03X4927600Y-2514454I50654J0D01*
G37*
G36*
G01X5016500Y-324974D02*
G03X5067154Y-274320I0J50654D01*
G03X5016500Y-223666I-50654J0D01*
G03X4965846Y-274320I0J-50654D01*
G03X5016500Y-324974I50654J0D01*
G37*
G36*
G01X4902200Y-355454D02*
G03X4952854Y-304800I0J50654D01*
G03X4902200Y-254146I-50654J0D01*
G03X4851546Y-304800I0J-50654D01*
G03X4902200Y-355454I50654J0D01*
G37*
G36*
G01X4468028Y381000D02*
G03X4513682Y335346I45654J0D01*
G03X4559336Y381000I0J45654D01*
G03X4513682Y426654I-45654J0D01*
G03X4468028Y381000I0J-45654D01*
G37*
G36*
G01X5021646Y330200D02*
G03X5067300Y284546I45654J0D01*
G03X5112954Y330200I0J45654D01*
G03X5067300Y375854I-45654J0D01*
G03X5021646Y330200I0J-45654D01*
G37*
G36*
G01X4513682Y208346D02*
G03X4559336Y254000I0J45654D01*
G03X4513682Y299654I-45654J0D01*
G03X4468028Y254000I0J-45654D01*
G03X4513682Y208346I45654J0D01*
G37*
G36*
G01X4512932Y462346D02*
G03X4558586Y508000I0J45654D01*
G03X4512932Y553654I-45654J0D01*
G03X4467278Y508000I0J-45654D01*
G03X4512932Y462346I45654J0D01*
G37*
G36*
G01X4462846Y711200D02*
G03X4508500Y665546I45654J0D01*
G03X4554154Y711200I0J45654D01*
G03X4508500Y756854I-45654J0D01*
G03X4462846Y711200I0J-45654D01*
G37*
G36*
G01X5071044Y787400D02*
G03X5116698Y741746I45654J0D01*
G03X5162352Y787400I0J45654D01*
G03X5116698Y833054I-45654J0D01*
G03X5071044Y787400I0J-45654D01*
G37*
G36*
G01X4467228Y-1D02*
G03X4512882Y-45655I45654J0D01*
G03X4558535Y-1I0J45654D01*
G03X4512882Y45653I-45654J0D01*
G03X4467228Y-1I0J-45654D01*
G37*
G36*
G01X4361246Y-203200D02*
G03X4406900Y-248854I45654J0D01*
G03X4452554Y-203200I0J45654D01*
G03X4406900Y-157546I-45654J0D01*
G03X4361246Y-203200I0J-45654D01*
G37*
G36*
G01X4664537Y-134554D02*
G03X4710191Y-88900I0J45654D01*
G03X4664537Y-43246I-45654J0D01*
G03X4618883Y-88900I0J-45654D01*
G03X4664537Y-134554I45654J0D01*
G37*
G36*
G01X5136352Y185192D02*
G03X5182006Y139538I45654J0D01*
G03X5227660Y185192I0J45654D01*
G03X5182006Y230846I-45654J0D01*
G03X5136352Y185192I0J-45654D01*
G37*
G36*
G01X5270500Y665546D02*
G03X5316154Y711200I0J45654D01*
G03X5270500Y756854I-45654J0D01*
G03X5224846Y711200I0J-45654D01*
G03X5270500Y665546I45654J0D01*
G37*
G36*
G01X5473700Y-20254D02*
G03X5519354Y25400I0J45654D01*
G03X5473700Y71054I-45654J0D01*
G03X5428046Y25400I0J-45654D01*
G03X5473700Y-20254I45654J0D01*
G37*
%LPD*%
G36*
G01X3037591Y-819419D02*
G01X3037591Y-960976D01*
G01X2223874D01*
G01Y761079D01*
G03X2223620Y764680I-25654J0D01*
G01Y767935D01*
G03X2225045Y773779I-11276J5844D01*
G03X2223620Y779623I-12700J0D01*
G01Y878332D01*
G03X2230054Y901700I-39220J23368D01*
G03X2223620Y925068I-45654J0D01*
G01Y1349957D01*
G01X2290528Y1416865D01*
G01X2310389D01*
G03X2308471Y1403772I43736J-13094D01*
G03X2354125Y1358118I45654J0D01*
G03X2399779Y1403772I0J45654D01*
G03X2397861Y1416865I-45654J0D01*
G01X2439712D01*
G03X2439146Y1409700I45088J-7165D01*
G03X2484800Y1364046I45654J0D01*
G03X2530454Y1409700I0J45654D01*
G03X2529888Y1416865I-45654J0D01*
G01X2673103D01*
G03X2659446Y1384300I31997J-32565D01*
G03X2676539Y1348683I45654J0D01*
G03X2661991Y1315265I31105J-33418D01*
G03X2707645Y1269611I45654J0D01*
G03X2753299Y1315265I0J45654D01*
G03X2736205Y1350882I-45654J0D01*
G03X2750754Y1384300I-31105J33418D01*
G03X2737097Y1416865I-45654J0D01*
G01X2784092D01*
G03X2763591Y1378765I25153J-38100D01*
G03X2784092Y1340665I45654J0D01*
G03X2763591Y1302565I25153J-38100D01*
G03X2809245Y1256911I45654J0D01*
G03X2854899Y1302565I0J45654D01*
G03X2834398Y1340665I-45654J0D01*
G03X2854899Y1378765I-25153J38100D01*
G03X2834398Y1416865I-45654J0D01*
G01X2991372D01*
G01X3036905Y1371333D01*
G01Y1367187D01*
G03X2999745Y1386319I-37160J-26522D01*
G03X2990331Y1385338I0J-45654D01*
G03X2948945Y1411719I-41386J-19273D01*
G03X2903291Y1366065I0J-45654D01*
G03X2911009Y1340665I45654J0D01*
G03X2903291Y1315265I37936J-25400D01*
G03X2948945Y1269611I45654J0D01*
G03X2990331Y1295992I0J45654D01*
G03X2999745Y1295011I9414J44673D01*
G03X3036905Y1314144I0J45654D01*
G01Y589455D01*
G03X3022600Y591754I-14305J-43355D01*
G03X2990850Y578906I0J-45654D01*
G03X2959100Y591754I-31750J-32806D01*
G03X2913446Y546100I0J-45654D01*
G03X2926294Y514350I45654J0D01*
G03X2913446Y482600I32806J-31750D01*
G03X2959100Y436946I45654J0D01*
G03X2990850Y449794I0J45654D01*
G03X3022600Y436946I31750J32806D01*
G03X3037591Y439477I0J45654D01*
G01Y335223D01*
G03X3022600Y337754I-14991J-43123D01*
G03X2997200Y330036I0J-45654D01*
G03X2971800Y337754I-25400J-37936D01*
G03X2926146Y292100I0J-45654D01*
G03X2933864Y266700I45654J0D01*
G03X2926146Y241300I37936J-25400D01*
G03X2933864Y215900I45654J0D01*
G03X2926146Y190500I37936J-25400D01*
G03X2971800Y144846I45654J0D01*
G03X2977276Y145176I0J45654D01*
G03X2976946Y139700I45324J-5476D01*
G03X3022600Y94046I45654J0D01*
G03X3037591Y96577I0J45654D01*
G01Y-151127D01*
G03X3035300Y-152564I23109J-39373D01*
G03X3009900Y-144846I-25400J-37936D01*
G03X2984500Y-152564I0J-45654D01*
G03X2959100Y-144846I-25400J-37936D01*
G03X2913505Y-188171I0J-45654D01*
G03X2897898Y-170635I-40761J-20563D01*
G03X2918399Y-132535I-25153J38100D01*
G03X2910681Y-107135I-45654J0D01*
G03X2918399Y-81735I-37936J25400D01*
G03X2910681Y-56335I-45654J0D01*
G03X2918399Y-30935I-37936J25400D01*
G03X2872745Y14719I-45654J0D01*
G03X2847345Y7001I0J-45654D01*
G03X2821945Y14719I-25400J-37936D01*
G03X2796545Y7001I0J-45654D01*
G03X2771145Y14719I-25400J-37936D01*
G03X2725491Y-30935I0J-45654D01*
G03X2733209Y-56335I45654J0D01*
G03X2725491Y-81735I37936J-25400D01*
G03X2733209Y-107135I45654J0D01*
G03X2725491Y-132535I37936J-25400D01*
G03X2745992Y-170635I45654J0D01*
G03X2725491Y-208735I25153J-38100D01*
G03X2733209Y-234135I45654J0D01*
G03X2725491Y-259535I37936J-25400D01*
G03X2733209Y-284935I45654J0D01*
G03X2725491Y-310335I37936J-25400D01*
G03X2771145Y-355989I45654J0D01*
G03X2796545Y-348270I0J45654D01*
G03X2821945Y-355989I25400J37936D01*
G03X2847345Y-348270I0J45654D01*
G03X2872745Y-355989I25400J37936D01*
G03X2918339Y-312663I0J45654D01*
G03X2959100Y-337754I40761J20563D01*
G03X2984500Y-330036I0J45654D01*
G03X3009900Y-337754I25400J37936D01*
G03X3037591Y-328397I0J45654D01*
G01Y-793819D01*
G03X3037845Y-797421I25654J0D01*
G01Y-815818D01*
G03X3037591Y-819419I25400J-3601D01*
G37*
%LPC*%
G36*
G01X2872491Y36072D02*
G03X2918145Y81726I0J45654D01*
G03X2910427Y107126I-45654J0D01*
G03X2918145Y132526I-37936J25400D01*
G03X2910427Y157926I-45654J0D01*
G03X2918145Y183326I-37936J25400D01*
G03X2896482Y222168I-45654J0D01*
G03X2918399Y261165I-23738J38998D01*
G03X2910681Y286565I-45654J0D01*
G03X2918399Y311965I-37936J25400D01*
G03X2910681Y337365I-45654J0D01*
G03X2918399Y362765I-37936J25400D01*
G03X2872745Y408419I-45654J0D01*
G03X2847345Y400701I0J-45654D01*
G03X2821945Y408419I-25400J-37936D01*
G03X2796545Y400701I0J-45654D01*
G03X2771145Y408419I-25400J-37936D01*
G03X2725491Y362765I0J-45654D01*
G03X2733209Y337365I45654J0D01*
G03X2725491Y311965I37936J-25400D01*
G03X2733209Y286565I45654J0D01*
G03X2725491Y261165I37936J-25400D01*
G03X2747153Y222324I45654J0D01*
G03X2725237Y183326I23738J-38998D01*
G03X2732955Y157926I45654J0D01*
G03X2725237Y132526I37936J-25400D01*
G03X2732955Y107126I45654J0D01*
G03X2725237Y81726I37936J-25400D01*
G03X2770891Y36072I45654J0D01*
G03X2796291Y43790I0J45654D01*
G03X2821691Y36072I25400J37936D01*
G03X2847091Y43790I0J45654D01*
G03X2872491Y36072I25400J37936D01*
G37*
G36*
G01X2839791Y1162865D02*
G03X2885445Y1117211I45654J0D01*
G03X2917195Y1130060I0J45654D01*
G03X2948945Y1117211I31750J32806D01*
G03X2994599Y1162865I0J45654D01*
G03X2986881Y1188265I-45654J0D01*
G03X2994599Y1213665I-37936J25400D01*
G03X2948945Y1259319I-45654J0D01*
G03X2917195Y1246471I0J-45654D01*
G03X2885445Y1259319I-31750J-32806D01*
G03X2839791Y1213665I0J-45654D01*
G03X2847509Y1188265I45654J0D01*
G03X2839791Y1162865I37936J-25400D01*
G37*
G36*
G01X2885214Y903830D02*
G03X2935868Y954484I0J50654D01*
G03X2924164Y986868I-50654J0D01*
G03X2946254Y1028700I-28564J41832D01*
G03X2895600Y1079354I-50654J0D01*
G03X2844946Y1028700I0J-50654D01*
G03X2856650Y996316I50654J0D01*
G03X2834560Y954484I28564J-41832D01*
G03X2885214Y903830I50654J0D01*
G37*
G36*
G01X2400446Y-901700D02*
G03X2451100Y-952354I50654J0D01*
G03X2495550Y-925990I0J50654D01*
G03X2540000Y-952354I44450J24290D01*
G03X2590654Y-901700I0J50654D01*
G03X2540000Y-851046I-50654J0D01*
G03X2495550Y-877410I0J-50654D01*
G03X2451100Y-851046I-44450J-24290D01*
G03X2400446Y-901700I0J-50654D01*
G37*
G36*
G01X2848431Y-728997D02*
G03X2899085Y-779651I50654J0D01*
G03X2949739Y-728997I0J50654D01*
G03X2899085Y-678343I-50654J0D01*
G03X2848431Y-728997I0J-50654D01*
G37*
G36*
G01X2590946Y533400D02*
G03X2641600Y482746I50654J0D01*
G03X2692254Y533400I0J50654D01*
G03X2641600Y584054I-50654J0D01*
G03X2590946Y533400I0J-50654D01*
G37*
G36*
G01X2448404Y820111D02*
G03X2499058Y870765I0J50654D01*
G03X2448404Y921419I-50654J0D01*
G03X2397750Y870765I0J-50654D01*
G03X2448404Y820111I50654J0D01*
G37*
G36*
G01X2484800Y1262446D02*
G03X2530454Y1308100I0J45654D01*
G03X2484800Y1353754I-45654J0D01*
G03X2439146Y1308100I0J-45654D01*
G03X2484800Y1262446I45654J0D01*
G37*
G36*
G01X2316546Y1257300D02*
G03X2362200Y1211646I45654J0D01*
G03X2407854Y1257300I0J45654D01*
G03X2362200Y1302954I-45654J0D01*
G03X2316546Y1257300I0J-45654D01*
G37*
G36*
G01X2900746Y-889000D02*
G03X2946400Y-934654I45654J0D01*
G03X2992054Y-889000I0J45654D01*
G03X2946400Y-843346I-45654J0D01*
G03X2900746Y-889000I0J-45654D01*
G37*
G36*
G01X2743200Y-883854D02*
G03X2788854Y-838200I0J45654D01*
G03X2743200Y-792546I-45654J0D01*
G03X2697546Y-838200I0J-45654D01*
G03X2743200Y-883854I45654J0D01*
G37*
%LPD*%
G36*
G01X1686462Y786733D02*
G01X1668627Y804568D01*
G03X1689100Y800246I20473J46332D01*
G03X1727200Y817520I0J50654D01*
G03X1765300Y800246I38100J33380D01*
G03X1815954Y850900I0J50654D01*
G03X1765300Y901554I-50654J0D01*
G03X1727200Y884280I0J-50654D01*
G03X1689100Y901554I-38100J-33380D01*
G03X1638446Y850900I0J-50654D01*
G03X1642768Y830427I50654J0D01*
G01X1514972Y958223D01*
G03X1498882Y977546I-41772J-18423D01*
G03X1507224Y986168I-28356J35780D01*
G03X1540441Y971833I33217J31320D01*
G03X1586095Y1017487I0J45654D01*
G03X1540441Y1063141I-45654J0D01*
G03X1503743Y1044645I0J-45654D01*
G03X1470526Y1058980I-33217J-31320D01*
G03X1424872Y1013326I0J-45654D01*
G03X1426366Y1001739I45654J0D01*
G01X464699D01*
G01X420915D01*
G01X388180D01*
G01X355854Y1034066D01*
G01Y1251622D01*
G03X387350Y1284985I-12954J43778D01*
G03X431800Y1249746I44450J10415D01*
G03X477454Y1295400I0J45654D01*
G03X431800Y1341054I-45654J0D01*
G03X387350Y1305815I0J-45654D01*
G03X355854Y1339178I-44450J-10415D01*
G01Y1529012D01*
G03X368154Y1562100I-38354J33088D01*
G03X355854Y1595188I-50654J0D01*
G01Y1924745D01*
G01X545820Y2100838D01*
G01X917867D01*
G03X914546Y2082800I47333J-18038D01*
G03X965200Y2032146I50654J0D01*
G03X996970Y2043348I0J50654D01*
G03X1030062Y2031044I33092J38351D01*
G03X1061454Y2041945I0J50654D01*
G03X1093398Y2030603I31944J39312D01*
G03X1144052Y2081257I0J50654D01*
G03X1140114Y2100838I-50654J0D01*
G01X1227717D01*
G03X1231900Y2100646I4183J45462D01*
G03X1236083Y2100838I0J45654D01*
G01X1565567D01*
G03X1562246Y2082800I47333J-18038D01*
G03X1573432Y2051050I50654J0D01*
G03X1562246Y2019300I39468J-31750D01*
G03X1573432Y1987550I50654J0D01*
G03X1562246Y1955800I39468J-31750D01*
G03X1573432Y1924050I50654J0D01*
G03X1562246Y1892300I39468J-31750D01*
G03X1612900Y1841646I50654J0D01*
G03X1644650Y1852832I0J50654D01*
G03X1676400Y1841646I31750J39468D01*
G03X1727054Y1892300I0J50654D01*
G03X1715868Y1924050I-50654J0D01*
G03X1727054Y1955800I-39468J31750D01*
G03X1715868Y1987550I-50654J0D01*
G03X1727054Y2019300I-39468J31750D01*
G03X1715868Y2051050I-50654J0D01*
G03X1727054Y2082800I-39468J31750D01*
G03X1723733Y2100838I-50654J0D01*
G01X1841500D01*
G01X1864850D01*
G01X2301116D01*
G03X2304717Y2101092I0J25654D01*
G01X2306395D01*
G03X2315398Y2104835I0J12700D01*
G01X2316582Y2106024D01*
G03X2319302Y2108398I-15466J20468D01*
G01X2545754Y2336002D01*
G01X2946490D01*
G01X2966823D01*
G01X3273875D01*
G03X3277476Y2336256I0J25654D01*
G01X3279136D01*
G03X3288116Y2339976I0J12700D01*
G01X3289290Y2341150D01*
G03X3292016Y2343516I-15414J20507D01*
G01X3365540Y2417041D01*
G01X4376774D01*
G01X4403271D01*
G01X4588704D01*
G03X4574691Y2382065I36640J-34976D01*
G03X4625345Y2331411I50654J0D01*
G03X4675999Y2382065I0J50654D01*
G03X4661985Y2417041I-50654J0D01*
G01X4803639D01*
G01X4825746Y2394934D01*
G01Y1742684D01*
G01X4807934Y1724872D01*
G01X4597906D01*
G03X4594305Y1724618I0J-25654D01*
G01X4592646D01*
G03X4583665Y1720898I0J-12700D01*
G01X4582492Y1719725D01*
G03X4579766Y1717358I15414J-20507D01*
G01X4553860Y1691452D01*
G03X4551493Y1688726I18140J-18140D01*
G01X4550320Y1687553D01*
G03X4546600Y1678572I8980J-8980D01*
G01Y1676913D01*
G03X4546346Y1673312I25400J-3601D01*
G01Y1568945D01*
G03X4538332Y1569654I-8014J-44945D01*
G03X4492678Y1524000I0J-45654D01*
G03X4538332Y1478346I45654J0D01*
G03X4546346Y1479055I0J45654D01*
G01Y1289672D01*
G03X4539082Y1290254I-7264J-45072D01*
G03X4493428Y1244600I0J-45654D01*
G03X4539082Y1198946I45654J0D01*
G03X4546346Y1199528I0J45654D01*
G01Y1092053D01*
G03X4495946Y1041400I254J-50653D01*
G03X4546346Y990747I50654J0D01*
G01Y889000D01*
G03X4546600Y885399I25654J0D01*
G01Y881918D01*
G01X4546420Y881740D01*
G01X4525928Y861248D01*
G01X4192494D01*
G01X4187421Y866322D01*
G03X4184695Y868688I-18140J-18140D01*
G01X4169735Y883648D01*
G01Y952815D01*
G03X4197000Y963552I-4135J50485D01*
G03X4232106Y949413I35107J36515D01*
G03X4282760Y1000067I0J50654D01*
G03X4232106Y1050721I-50654J0D01*
G03X4200707Y1039815I0J-50654D01*
G03X4169735Y1053785I-35107J-36515D01*
G01Y1984487D01*
G03X4185854Y2019300I-29535J34813D01*
G03X4178136Y2044700I-45654J0D01*
G03X4185854Y2070100I-37936J25400D01*
G03X4178136Y2095500I-45654J0D01*
G03X4185854Y2120900I-37936J25400D01*
G03X4169735Y2155713I-45654J0D01*
G01Y2184969D01*
G03X4169481Y2188570I-25654J0D01*
G01Y2190229D01*
G03X4165761Y2199210I-12700J0D01*
G01X4164588Y2200383D01*
G03X4162221Y2203109I-20507J-15414D01*
G01X4117524Y2247805D01*
G03X4114798Y2250172I-18140J-18140D01*
G01X4113625Y2251346D01*
G03X4104645Y2255065I-8980J-8980D01*
G01X4102985D01*
G03X4099384Y2255319I-3601J-25400D01*
G01X3953203D01*
G03X3949700Y2255454I-3503J-45519D01*
G03X3946197Y2255319I0J-45654D01*
G01X3889703D01*
G03X3886200Y2255454I-3503J-45519D01*
G03X3882697Y2255319I0J-45654D01*
G01X3820366D01*
G03X3816765Y2255065I0J-25654D01*
G01X3815106D01*
G03X3806126Y2251346I0J-12700D01*
G01X3804952Y2250172D01*
G03X3802226Y2247805I15414J-20507D01*
G01X3619023Y2064603D01*
G03X3616657Y2061877I18140J-18140D01*
G01X3615483Y2060703D01*
G03X3611763Y2051723I8980J-8980D01*
G01Y2050584D01*
G01Y2050064D01*
G03X3611509Y2046462I25400J-3601D01*
G01Y1571018D01*
G03X3581400Y1582354I-30109J-34318D01*
G03X3535746Y1536700I0J-45654D01*
G03X3581400Y1491046I45654J0D01*
G03X3611509Y1502382I0J45654D01*
G01Y1445863D01*
G03X3568700Y1475654I-42809J-15863D01*
G03X3523046Y1430000I0J-45654D01*
G03X3568700Y1384346I45654J0D01*
G03X3611509Y1414137I0J45654D01*
G01Y1053320D01*
G03X3587750Y1042768I7991J-50020D01*
G03X3556000Y1053954I-31750J-39468D01*
G03X3517900Y1036680I0J-50654D01*
G03X3479800Y1053954I-38100J-33380D01*
G03X3448050Y1042768I0J-50654D01*
G03X3416300Y1053954I-31750J-39468D01*
G03X3384550Y1042768I0J-50654D01*
G03X3352800Y1053954I-31750J-39468D01*
G03X3320828Y1042589I0J-50654D01*
G03X3288855Y1053954I-31972J-39289D01*
G03X3251756Y1037789I0J-50654D01*
G03X3214657Y1053954I-37099J-34489D01*
G03X3182129Y1042129I0J-50654D01*
G03X3149600Y1053954I-32529J-38829D01*
G03X3098946Y1003300I0J-50654D01*
G03X3149600Y952646I50654J0D01*
G03X3182129Y964471I0J50654D01*
G03X3214657Y952646I32529J38829D01*
G03X3251756Y968811I0J50654D01*
G03X3288855Y952646I37099J34489D01*
G03X3320828Y964011I0J50654D01*
G03X3352800Y952646I31972J39289D01*
G03X3384550Y963832I0J50654D01*
G03X3416300Y952646I31750J39468D01*
G03X3448050Y963832I0J50654D01*
G03X3479800Y952646I31750J39468D01*
G03X3517900Y969920I0J50654D01*
G03X3535281Y957077I38100J33380D01*
G01X3500023Y921819D01*
G01X3095516D01*
G03X3091915Y921565I0J-25654D01*
G01X3090255D01*
G03X3081275Y917846I0J-12700D01*
G01X3080102Y916672D01*
G03X3077376Y914305I15414J-20507D01*
G01X3062559Y899489D01*
G01Y1371333D01*
G03X3062305Y1374934I-25654J0D01*
G01Y1376593D01*
G01Y1377826D01*
G03X3055371Y1389141I-12700J0D01*
G01X3055045Y1389473D01*
G01X3009512Y1435005D01*
G03X3006786Y1437372I-18140J-18140D01*
G01X3005613Y1438546D01*
G03X2996633Y1442265I-8980J-8980D01*
G01X2994973D01*
G03X2991372Y1442519I-3601J-25400D01*
G01X2516536D01*
G03X2484800Y1455354I-31736J-32819D01*
G03X2453064Y1442519I0J-45654D01*
G01X2408708D01*
G03X2420554Y1473200I-33808J30681D01*
G03X2374900Y1518854I-45654J0D01*
G03X2329246Y1473200I0J-45654D01*
G03X2337906Y1446447I45654J0D01*
G03X2329982Y1442519I16219J-42676D01*
G01X2290528D01*
G03X2286927Y1442265I0J-25654D01*
G01X2285268D01*
G03X2276288Y1438546I0J-12700D01*
G01X2275114Y1437372D01*
G03X2272388Y1435005I15414J-20507D01*
G01X2205480Y1368097D01*
G03X2203114Y1365371I18140J-18140D01*
G01X2201940Y1364198D01*
G03X2198220Y1355218I8980J-8980D01*
G01X2198249Y1354363D01*
G01X2198220Y1353559D01*
G03X2197966Y1349957I25400J-3602D01*
G01Y945292D01*
G03X2184400Y947354I-13566J-43592D01*
G03X2152650Y934506I0J-45654D01*
G03X2120900Y947354I-31750J-32806D01*
G03X2075246Y901700I0J-45654D01*
G03X2075455Y897341I45654J0D01*
G03X2044700Y909254I-30755J-33741D01*
G03X1999046Y863600I0J-45654D01*
G03X2044700Y817946I45654J0D01*
G03X2090354Y863600I0J45654D01*
G03X2090145Y867959I-45654J0D01*
G03X2120900Y856046I30755J33741D01*
G03X2152650Y868894I0J45654D01*
G03X2184400Y856046I31750J32806D01*
G03X2197966Y858108I0J45654D01*
G01Y786733D01*
G01X1686462D01*
G37*
%LPC*%
G36*
G01X1764078Y1278753D02*
G03X1820232Y1222599I56154J0D01*
G03X1870239Y1253205I0J56154D01*
G03X1920232Y1222624I49993J25573D01*
G03X1970245Y1253243I0J56154D01*
G03X2020257Y1222624I50013J25535D01*
G03X2076412Y1278778I0J56154D01*
G03X2045817Y1328778I-56154J0D01*
G03X2076412Y1378778I-25560J50000D01*
G03X2045817Y1428778I-56154J0D01*
G03X2076412Y1478778I-25560J50000D01*
G03X2020257Y1534932I-56154J0D01*
G03X1970245Y1504313I0J-56154D01*
G03X1920232Y1534932I-50013J-25535D01*
G03X1870226Y1504325I0J-56154D01*
G03X1820232Y1534907I-49993J-25573D01*
G03X1764078Y1478752I0J-56154D01*
G03X1794647Y1428765I56154J0D01*
G03X1764078Y1378778I25585J-49987D01*
G03X1794697Y1328765I56154J0D01*
G03X1764078Y1278753I25535J-50013D01*
G37*
G36*
G01X732859Y1271588D02*
G03X789013Y1215433I56154J0D01*
G03X839000Y1246003I0J56154D01*
G03X888987Y1215433I49987J25585D01*
G03X939000Y1246052I0J56154D01*
G03X989013Y1215433I50013J25535D01*
G03X1045167Y1271588I0J56154D01*
G03X1014560Y1321594I-56154J0D01*
G03X1045141Y1371587I-25573J49993D01*
G03X1014522Y1421600I-56154J0D01*
G03X1045141Y1471613I-25535J50013D01*
G03X988987Y1527767I-56154J0D01*
G03X938987Y1497173I0J-56154D01*
G03X888987Y1527767I-50000J-25560D01*
G03X838987Y1497173I0J-56154D01*
G03X788988Y1527767I-50000J-25560D01*
G03X732833Y1471613I0J-56154D01*
G03X763452Y1421600I56154J0D01*
G03X732833Y1371587I25535J-50013D01*
G03X763440Y1321581I56154J0D01*
G03X732859Y1271588I25573J-49993D01*
G37*
G36*
G01X2936391Y1594665D02*
G03X2987045Y1544011I50654J0D01*
G03X3037699Y1594665I0J50654D01*
G03X2998115Y1644095I-50654J0D01*
G03X3009754Y1676400I-39015J32305D01*
G03X2996371Y1710703I-50654J0D01*
G03X3007066Y1741833I-39959J31130D01*
G03X2956412Y1792487I-50654J0D01*
G03X2926074Y1782396I0J-50654D01*
G03X2895735Y1792487I-30338J-40564D01*
G03X2867630Y1783974I0J-50654D01*
G03X2839524Y1792487I-28106J-42141D01*
G03X2812516Y1784686I0J-50654D01*
G03X2785509Y1792487I-27008J-42853D01*
G03X2734855Y1741833I0J-50654D01*
G03X2747663Y1708165I50654J0D01*
G03X2734855Y1674498I37846J-33668D01*
G03X2785509Y1623844I50654J0D01*
G03X2812626Y1631714I0J50654D01*
G03X2839744Y1623844I27118J42784D01*
G03X2868508Y1632803I0J50654D01*
G03X2897272Y1623844I28764J41695D01*
G03X2929420Y1635352I0J50654D01*
G03X2948030Y1626971I29680J41048D01*
G03X2936391Y1594665I39015J-32305D01*
G37*
G36*
G01X2946400Y1986346D02*
G03X2992054Y2032000I0J45654D01*
G03X2984336Y2057400I-45654J0D01*
G03X2992054Y2082800I-37936J25400D01*
G03X2984336Y2108200I-45654J0D01*
G03X2992054Y2133600I-37936J25400D01*
G03X2991724Y2139076I-45654J0D01*
G03X2997200Y2138746I5476J45324D01*
G03X3022600Y2146464I0J45654D01*
G03X3048000Y2138746I25400J37936D01*
G03X3073400Y2146464I0J45654D01*
G03X3098800Y2138746I25400J37936D01*
G03X3144454Y2184400I0J45654D01*
G03X3098800Y2230054I-45654J0D01*
G03X3073400Y2222336I0J-45654D01*
G03X3048000Y2230054I-25400J-37936D01*
G03X3022600Y2222336I0J-45654D01*
G03X2997200Y2230054I-25400J-37936D01*
G03X2971800Y2222336I0J-45654D01*
G03X2946400Y2230054I-25400J-37936D01*
G03X2900746Y2184400I0J-45654D01*
G03X2908464Y2159000I45654J0D01*
G03X2900746Y2133600I37936J-25400D01*
G03X2908464Y2108200I45654J0D01*
G03X2900746Y2082800I37936J-25400D01*
G03X2908464Y2057400I45654J0D01*
G03X2900746Y2032000I37936J-25400D01*
G03X2946400Y1986346I45654J0D01*
G37*
G36*
G01X4254646Y2120900D02*
G03X4305300Y2070246I50654J0D01*
G03X4355954Y2120900I0J50654D01*
G03X4349125Y2146300I-50654J0D01*
G03X4355438Y2164491I-43825J25400D01*
G03X4394200Y2146446I38762J32609D01*
G03X4425950Y2157632I0J50654D01*
G03X4457700Y2146446I31750J39468D01*
G03X4508354Y2197100I0J50654D01*
G03X4457700Y2247754I-50654J0D01*
G03X4425950Y2236568I0J-50654D01*
G03X4394200Y2247754I-31750J-39468D01*
G03X4344062Y2204309I0J-50654D01*
G03X4305300Y2222354I-38762J-32609D01*
G03X4254646Y2171700I0J-50654D01*
G03X4261475Y2146300I50654J0D01*
G03X4254646Y2120900I43825J-25400D01*
G37*
G36*
G01X3347791Y1251765D02*
G03X3393445Y1206111I45654J0D01*
G03X3418845Y1213830I0J45654D01*
G03X3444245Y1206111I25400J37936D01*
G03X3469645Y1213830I0J45654D01*
G03X3495045Y1206111I25400J37936D01*
G03X3540699Y1251765I0J45654D01*
G03X3532981Y1277165I-45654J0D01*
G03X3540699Y1302565I-37936J25400D01*
G03X3532981Y1327965I-45654J0D01*
G03X3540699Y1353365I-37936J25400D01*
G03X3495045Y1399019I-45654J0D01*
G03X3469645Y1391301I0J-45654D01*
G03X3444245Y1399019I-25400J-37936D01*
G03X3418845Y1391301I0J-45654D01*
G03X3393445Y1399019I-25400J-37936D01*
G03X3347791Y1353365I0J-45654D01*
G03X3355509Y1327965I45654J0D01*
G03X3347791Y1302565I37936J-25400D01*
G03X3355509Y1277165I45654J0D01*
G03X3347791Y1251765I37936J-25400D01*
G37*
G36*
G01X1021717Y1808905D02*
G03X1066800Y1770446I45083J7195D01*
G03X1108901Y1798443I0J45654D01*
G03X1143000Y1783146I34099J30357D01*
G03X1188654Y1828800I0J45654D01*
G03X1143000Y1874454I-45654J0D01*
G03X1100899Y1846457I0J-45654D01*
G03X1066800Y1861754I-34099J-30357D01*
G03X1061083Y1861395I0J-45654D01*
G03X1016000Y1899854I-45083J-7195D01*
G03X970917Y1861395I0J-45654D01*
G03X965200Y1861754I-5717J-45295D01*
G03X919546Y1816100I0J-45654D01*
G03X965200Y1770446I45654J0D01*
G03X1010283Y1808905I0J45654D01*
G03X1016000Y1808546I5717J45295D01*
G03X1021717Y1808905I0J45654D01*
G37*
G36*
G01X3469828Y1897528D02*
G03X3520445Y1848811I50617J1938D01*
G03X3571099Y1899465I0J50654D01*
G03X3520445Y1950119I-50654J0D01*
G03X3512309Y1949462I0J-50654D01*
G03X3467100Y1988754I-45209J-6362D01*
G03X3421446Y1943100I0J-45654D01*
G03X3467100Y1897446I45654J0D01*
G03X3469828Y1897528I0J45654D01*
G37*
G36*
G01X3467100Y2164146D02*
G03X3512754Y2209800I0J45654D01*
G03X3467100Y2255454I-45654J0D01*
G03X3435350Y2242606I0J-45654D01*
G03X3403600Y2255454I-31750J-32806D01*
G03X3366379Y2236236I0J-45654D01*
G03X3329157Y2255454I-37221J-26436D01*
G03X3283503Y2209800I0J-45654D01*
G03X3329157Y2164146I45654J0D01*
G03X3366379Y2183364I0J45654D01*
G03X3403600Y2164146I37221J26436D01*
G03X3435350Y2176994I0J45654D01*
G03X3467100Y2164146I31750J32806D01*
G37*
G36*
G01X3467100Y1427546D02*
G03X3512754Y1473200I0J45654D01*
G03X3499906Y1504950I-45654J0D01*
G03X3512754Y1536700I-32806J31750D01*
G03X3467100Y1582354I-45654J0D01*
G03X3421446Y1536700I0J-45654D01*
G03X3434294Y1504950I45654J0D01*
G03X3421446Y1473200I32806J-31750D01*
G03X3467100Y1427546I45654J0D01*
G37*
G36*
G01X1333500Y1198946D02*
G03X1379154Y1244600I0J45654D01*
G03X1366306Y1276350I-45654J0D01*
G03X1379154Y1308100I-32806J31750D01*
G03X1333500Y1353754I-45654J0D01*
G03X1287846Y1308100I0J-45654D01*
G03X1300694Y1276350I45654J0D01*
G03X1287846Y1244600I32806J-31750D01*
G03X1333500Y1198946I45654J0D01*
G37*
G36*
G01X2654300Y2006746D02*
G03X2704954Y2057400I0J50654D01*
G03X2654300Y2108054I-50654J0D01*
G03X2603646Y2057400I0J-50654D01*
G03X2654300Y2006746I50654J0D01*
G37*
G36*
G01X2540000Y2057546D02*
G03X2590654Y2108200I0J50654D01*
G03X2540000Y2158854I-50654J0D01*
G03X2489346Y2108200I0J-50654D01*
G03X2540000Y2057546I50654J0D01*
G37*
G36*
G01X3572590Y2305865D02*
G03X3623244Y2255211I50654J0D01*
G03X3673898Y2305865I0J50654D01*
G03X3623244Y2356519I-50654J0D01*
G03X3572590Y2305865I0J-50654D01*
G37*
G36*
G01X749300Y1981346D02*
G03X799954Y2032000I0J50654D01*
G03X749300Y2082654I-50654J0D01*
G03X698646Y2032000I0J-50654D01*
G03X749300Y1981346I50654J0D01*
G37*
G36*
G01X2783845Y1925011D02*
G03X2834499Y1975665I0J50654D01*
G03X2783845Y2026319I-50654J0D01*
G03X2733191Y1975665I0J-50654D01*
G03X2783845Y1925011I50654J0D01*
G37*
G36*
G01X419246Y1917700D02*
G03X469900Y1867046I50654J0D01*
G03X520554Y1917700I0J50654D01*
G03X469900Y1968354I-50654J0D01*
G03X419246Y1917700I0J-50654D01*
G37*
G36*
G01X3167446Y2209800D02*
G03X3213100Y2164146I45654J0D01*
G03X3258754Y2209800I0J45654D01*
G03X3213100Y2255454I-45654J0D01*
G03X3167446Y2209800I0J-45654D01*
G37*
G36*
G01X4610100Y1770446D02*
G03X4655754Y1816100I0J45654D01*
G03X4610100Y1861754I-45654J0D01*
G03X4564446Y1816100I0J-45654D01*
G03X4610100Y1770446I45654J0D01*
G37*
G36*
G01X3467100Y1770446D02*
G03X3512754Y1816100I0J45654D01*
G03X3467100Y1861754I-45654J0D01*
G03X3421446Y1816100I0J-45654D01*
G03X3467100Y1770446I45654J0D01*
G37*
G36*
G01X4762500Y1980811D02*
G03X4808154Y2026465I0J45654D01*
G03X4762500Y2072119I-45654J0D01*
G03X4716846Y2026465I0J-45654D01*
G03X4762500Y1980811I45654J0D01*
G37*
G36*
G01X2527300Y1960946D02*
G03X2572954Y2006600I0J45654D01*
G03X2527300Y2052254I-45654J0D01*
G03X2481646Y2006600I0J-45654D01*
G03X2527300Y1960946I45654J0D01*
G37*
G36*
G01X1859346Y850900D02*
G03X1905000Y805246I45654J0D01*
G03X1950654Y850900I0J45654D01*
G03X1905000Y896554I-45654J0D01*
G03X1859346Y850900I0J-45654D01*
G37*
G36*
G01X944946Y1981200D02*
G03X990600Y1935546I45654J0D01*
G03X1036254Y1981200I0J45654D01*
G03X990600Y2026854I-45654J0D01*
G03X944946Y1981200I0J-45654D01*
G37*
G36*
G01X1092200Y1935546D02*
G03X1137854Y1981200I0J45654D01*
G03X1092200Y2026854I-45654J0D01*
G03X1046546Y1981200I0J-45654D01*
G03X1092200Y1935546I45654J0D01*
G37*
G36*
G01X1485900Y1804146D02*
G03X1531554Y1849800I0J45654D01*
G03X1485900Y1895454I-45654J0D01*
G03X1440246Y1849800I0J-45654D01*
G03X1485900Y1804146I45654J0D01*
G37*
G36*
G01X1371600Y1719646D02*
G03X1417254Y1765300I0J45654D01*
G03X1371600Y1810954I-45654J0D01*
G03X1325946Y1765300I0J-45654D01*
G03X1371600Y1719646I45654J0D01*
G37*
G36*
G01X1414846Y1600200D02*
G03X1460500Y1554546I45654J0D01*
G03X1506154Y1600200I0J45654D01*
G03X1460500Y1645854I-45654J0D01*
G03X1414846Y1600200I0J-45654D01*
G37*
G36*
G01X1300546Y1511300D02*
G03X1346200Y1465646I45654J0D01*
G03X1391854Y1511300I0J45654D01*
G03X1346200Y1556954I-45654J0D01*
G03X1300546Y1511300I0J-45654D01*
G37*
G36*
G01X444500Y1148146D02*
G03X490154Y1193800I0J45654D01*
G03X444500Y1239454I-45654J0D01*
G03X398846Y1193800I0J-45654D01*
G03X444500Y1148146I45654J0D01*
G37*
G36*
G01X1333500Y1071946D02*
G03X1379154Y1117600I0J45654D01*
G03X1333500Y1163254I-45654J0D01*
G03X1287846Y1117600I0J-45654D01*
G03X1333500Y1071946I45654J0D01*
G37*
G36*
G01X1485900Y1287846D02*
G03X1531554Y1333500I0J45654D01*
G03X1485900Y1379154I-45654J0D01*
G03X1440246Y1333500I0J-45654D01*
G03X1485900Y1287846I45654J0D01*
G37*
%LPD*%
G36*
G01X5778747Y-2616200D02*
G03X5759450Y-2643885I25153J-38100D01*
G03X5740153Y-2616200I-44450J-10415D01*
G03X5759450Y-2588515I-25153J38100D01*
G03X5778747Y-2616200I44450J10415D01*
G37*
G36*
G01X5759450Y-2567685D02*
G03X5740153Y-2540000I-44450J-10415D01*
G03X5759450Y-2512315I-25153J38100D01*
G03X5778747Y-2540000I44450J10415D01*
G03X5759450Y-2567685I25153J-38100D01*
G37*
G36*
G01X5778747Y-2324100D02*
G03X5759450Y-2351785I25153J-38100D01*
G03X5740153Y-2324100I-44450J-10415D01*
G03X5759450Y-2296415I-25153J38100D01*
G03X5778747Y-2324100I44450J10415D01*
G37*
G36*
G01X5778747Y-2247900D02*
G03X5759450Y-2275585I25153J-38100D01*
G03X5740153Y-2247900I-44450J-10415D01*
G03X5759450Y-2220215I-25153J38100D01*
G03X5778747Y-2247900I44450J10415D01*
G37*
G36*
G01X5778747Y-2171700D02*
G03X5759450Y-2199385I25153J-38100D01*
G03X5740153Y-2171700I-44450J-10415D01*
G03X5759450Y-2144015I-25153J38100D01*
G03X5778747Y-2171700I44450J10415D01*
G37*
G36*
G01X5774887Y-2397450D02*
G03X5759450Y-2422284I29013J-35250D01*
G03X5744013Y-2397450I-44450J-10415D01*
G03X5759450Y-2372615I-29013J35250D01*
G03X5774887Y-2397450I44450J10415D01*
G37*
G36*
G01X5759450Y-2053984D02*
G03X5744013Y-2029150I-44450J-10415D01*
G03X5759450Y-2004315I-29013J35250D01*
G03X5774887Y-2029150I44450J10415D01*
G03X5759450Y-2053984I29013J-35250D01*
G37*
G36*
G01X1970245Y1304313D02*
G03X1945792Y1328778I-50013J-25535D01*
G03X1970245Y1353243I-25560J50000D01*
G03X1994697Y1328778I50013J25535D01*
G03X1970245Y1304313I25560J-50000D01*
G37*
G36*
G01X1994697Y1428778D02*
G03X1970245Y1404313I25560J-50000D01*
G03X1945792Y1428778I-50013J-25535D01*
G03X1970245Y1453243I-25560J50000D01*
G03X1994697Y1428778I50013J25535D01*
G37*
G36*
G01X863452Y1421600D02*
G03X838987Y1397147I25535J-50013D01*
G03X814523Y1421600I-50000J-25560D01*
G03X838987Y1446052I-25535J50013D01*
G03X863452Y1421600I50000J25560D01*
G37*
G36*
G01X938987Y1397147D02*
G03X914523Y1421600I-50000J-25560D01*
G03X938987Y1446052I-25535J50013D01*
G03X963452Y1421600I50000J25560D01*
G03X938987Y1397147I25535J-50013D01*
G37*
G36*
G01X939000Y1297123D02*
G03X914547Y1321587I-50013J-25535D01*
G03X938987Y1346027I-25560J50000D01*
G03X963440Y1321581I50000J25560D01*
G03X939000Y1297123I25573J-49993D01*
G37*
G36*
G01X1870226Y1304326D02*
G03X1845768Y1328765I-49993J-25573D01*
G03X1870232Y1353218I-25535J50013D01*
G03X1894672Y1328778I50000J25560D01*
G03X1870226Y1304326I25560J-50000D01*
G37*
G36*
G01X1894672Y1428778D02*
G03X1870232Y1404338I25560J-50000D01*
G03X1845817Y1428765I-50000J-25560D01*
G03X1870239Y1453205I-25585J49987D01*
G03X1894672Y1428778I49993J25573D01*
G37*
G36*
G01X839000Y1297172D02*
G03X814560Y1321594I-49987J-25585D01*
G03X838987Y1346027I-25573J49993D01*
G03X863427Y1321587I50000J25560D01*
G03X839000Y1297172I25560J-50000D01*
G37*
G36*
G01X5774116Y-2467300D02*
G03X5759450Y-2491485I29784J-34600D01*
G03X5744784Y-2467300I-44450J-10415D01*
G03X5759450Y-2443115I-29784J34600D01*
G03X5774116Y-2467300I44450J10415D01*
G37*
G36*
G01X5759450Y-2123185D02*
G03X5744784Y-2099000I-44450J-10415D01*
G03X5759450Y-2074815I-29784J34600D01*
G03X5774116Y-2099000I44450J10415D01*
G03X5759450Y-2123185I29784J-34600D01*
G37*
G36*
G01X292138Y-1580482D02*
G03X274508Y-1564789I-38138J-25095D01*
G03X292138Y-1549095I-20508J40789D01*
G03X309768Y-1564789I38138J25095D01*
G03X292138Y-1580482I20508J-40789D01*
G37*
G36*
G01X444500Y-1580424D02*
G03X426908Y-1564789I-38100J-25153D01*
G03X444500Y-1549153I-20508J40789D01*
G03X462092Y-1564789I38100J25153D01*
G03X444500Y-1580424I20508J-40789D01*
G37*
G36*
G01X368338Y-1580367D02*
G03X350784Y-1564789I-38062J-25210D01*
G03X368338Y-1549210I-20508J40789D01*
G03X385892Y-1564789I38062J25210D01*
G03X368338Y-1580367I20508J-40789D01*
G37*
G36*
G01X2913505Y-289771D02*
G03X2910681Y-284935I-40761J-20563D01*
G03X2918339Y-261863I-37936J25400D01*
G03X2921164Y-266700I40761J20563D01*
G03X2913505Y-289771I37936J-25400D01*
G37*
G36*
G01X2913505Y-238971D02*
G03X2910681Y-234135I-40761J-20563D01*
G03X2918339Y-211063I-37936J25400D01*
G03X2921164Y-215900I40761J20563D01*
G03X2913505Y-238971I37936J-25400D01*
G37*
G36*
G01X305123Y-2006600D02*
G03X292138Y-2019605I25153J-38100D01*
G03X279153Y-2006600I-38138J-25095D01*
G03X292138Y-1993595I-25153J38100D01*
G03X305123Y-2006600I38138J25095D01*
G37*
G36*
G01X292138Y-1872582D02*
G03X279153Y-1859577I-38138J-25095D01*
G03X292138Y-1846573I-25153J38100D01*
G03X305123Y-1859577I38138J25095D01*
G03X292138Y-1872582I25153J-38100D01*
G37*
G36*
G01X292138Y-1796382D02*
G03X279153Y-1783377I-38138J-25095D01*
G03X292138Y-1770373I-25153J38100D01*
G03X305123Y-1783377I38138J25095D01*
G03X292138Y-1796382I25153J-38100D01*
G37*
G36*
G01X305123Y-1485900D02*
G03X292138Y-1498905I25153J-38100D01*
G03X279153Y-1485900I-38138J-25095D01*
G03X292138Y-1472895I-25153J38100D01*
G03X305123Y-1485900I38138J25095D01*
G37*
G36*
G01X305123Y-1409700D02*
G03X292138Y-1422705I25153J-38100D01*
G03X279153Y-1409700I-38138J-25095D01*
G03X292138Y-1396695I-25153J38100D01*
G03X305123Y-1409700I38138J25095D01*
G37*
G36*
G01X305123Y-1130300D02*
G03X292138Y-1143305I25153J-38100D01*
G03X279153Y-1130300I-38138J-25095D01*
G03X292138Y-1117295I-25153J38100D01*
G03X305123Y-1130300I38138J25095D01*
G37*
G36*
G01X305123Y-1054100D02*
G03X292138Y-1067105I25153J-38100D01*
G03X279153Y-1054100I-38138J-25095D01*
G03X292138Y-1041095I-25153J38100D01*
G03X305123Y-1054100I38138J25095D01*
G37*
G36*
G01X6019762Y-482905D02*
G03X6006777Y-469900I-38138J-25095D01*
G03X6019762Y-456895I-25153J38100D01*
G03X6032747Y-469900I38138J25095D01*
G03X6019762Y-482905I25153J-38100D01*
G37*
G36*
G01X6019762Y-406705D02*
G03X6006777Y-393700I-38138J-25095D01*
G03X6019762Y-380695I-25153J38100D01*
G03X6032747Y-393700I38138J25095D01*
G03X6019762Y-406705I25153J-38100D01*
G37*
G36*
G01X6019762Y-330505D02*
G03X6006777Y-317500I-38138J-25095D01*
G03X6019762Y-304495I-25153J38100D01*
G03X6032747Y-317500I38138J25095D01*
G03X6019762Y-330505I25153J-38100D01*
G37*
G36*
G01X6019762Y469595D02*
G03X6006777Y482600I-38138J-25095D01*
G03X6019762Y495605I-25153J38100D01*
G03X6032747Y482600I38138J25095D01*
G03X6019762Y469595I25153J-38100D01*
G37*
G36*
G01X6019762Y545795D02*
G03X6006777Y558800I-38138J-25095D01*
G03X6019762Y571805I-25153J38100D01*
G03X6032747Y558800I38138J25095D01*
G03X6019762Y545795I25153J-38100D01*
G37*
G36*
G01X6019762Y621995D02*
G03X6006777Y635000I-38138J-25095D01*
G03X6019762Y648005I-25153J38100D01*
G03X6032747Y635000I38138J25095D01*
G03X6019762Y621995I25153J-38100D01*
G37*
G36*
G01X6019762Y698195D02*
G03X6006777Y711200I-38138J-25095D01*
G03X6019762Y724205I-25153J38100D01*
G03X6032747Y711200I38138J25095D01*
G03X6019762Y698195I25153J-38100D01*
G37*
G36*
G01X6019762Y1383995D02*
G03X6006777Y1397000I-38138J-25095D01*
G03X6019762Y1410005I-25153J38100D01*
G03X6032747Y1397000I38138J25095D01*
G03X6019762Y1383995I25153J-38100D01*
G37*
G36*
G01X6019762Y1460195D02*
G03X6006777Y1473200I-38138J-25095D01*
G03X6019762Y1486205I-25153J38100D01*
G03X6032747Y1473200I38138J25095D01*
G03X6019762Y1460195I25153J-38100D01*
G37*
G36*
G01X6019762Y1536395D02*
G03X6006777Y1549400I-38138J-25095D01*
G03X6019762Y1562405I-25153J38100D01*
G03X6032747Y1549400I38138J25095D01*
G03X6019762Y1536395I25153J-38100D01*
G37*
G36*
G01X6019762Y1612595D02*
G03X6006777Y1625600I-38138J-25095D01*
G03X6019762Y1638605I-25153J38100D01*
G03X6032747Y1625600I38138J25095D01*
G03X6019762Y1612595I25153J-38100D01*
G37*
G36*
G01X5766047Y2273300D02*
G03X5753062Y2260295I25153J-38100D01*
G03X5740077Y2273300I-38138J-25095D01*
G03X5753062Y2286305I-25153J38100D01*
G03X5766047Y2273300I38138J25095D01*
G37*
G36*
G01X5753062Y2336495D02*
G03X5740077Y2349500I-38138J-25095D01*
G03X5753062Y2362505I-25153J38100D01*
G03X5766047Y2349500I38138J25095D01*
G03X5753062Y2336495I25153J-38100D01*
G37*
G36*
G01X5753062Y2488895D02*
G03X5740077Y2501900I-38138J-25095D01*
G03X5753062Y2514905I-25153J38100D01*
G03X5766047Y2501900I38138J25095D01*
G03X5753062Y2488895I25153J-38100D01*
G37*
G36*
G01X5842038Y-2629205D02*
G03X5829053Y-2616200I-38138J-25095D01*
G03X5842038Y-2603195I-25153J38100D01*
G03X5855023Y-2616200I38138J25095D01*
G03X5842038Y-2629205I25153J-38100D01*
G37*
G36*
G01X5842038Y-2553005D02*
G03X5829053Y-2540000I-38138J-25095D01*
G03X5842038Y-2526995I-25153J38100D01*
G03X5855023Y-2540000I38138J25095D01*
G03X5842038Y-2553005I25153J-38100D01*
G37*
G36*
G01X5855023Y-2324100D02*
G03X5842038Y-2337105I25153J-38100D01*
G03X5829053Y-2324100I-38138J-25095D01*
G03X5842038Y-2311095I-25153J38100D01*
G03X5855023Y-2324100I38138J25095D01*
G37*
G36*
G01X5842038Y-2260905D02*
G03X5829053Y-2247900I-38138J-25095D01*
G03X5842038Y-2234895I-25153J38100D01*
G03X5855023Y-2247900I38138J25095D01*
G03X5842038Y-2260905I25153J-38100D01*
G37*
G36*
G01X5918523Y2273300D02*
G03X5905538Y2260295I25153J-38100D01*
G03X5892553Y2273300I-38138J-25095D01*
G03X5905538Y2286305I-25153J38100D01*
G03X5918523Y2273300I38138J25095D01*
G37*
G36*
G01X5905538Y2336495D02*
G03X5892553Y2349500I-38138J-25095D01*
G03X5905538Y2362505I-25153J38100D01*
G03X5918523Y2349500I38138J25095D01*
G03X5905538Y2336495I25153J-38100D01*
G37*
G36*
G01X5766047Y2425700D02*
G03X5753062Y2412695I25153J-38100D01*
G03X5740077Y2425700I-38138J-25095D01*
G03X5753062Y2438705I-25153J38100D01*
G03X5766047Y2425700I38138J25095D01*
G37*
G36*
G01X5855023Y-2171700D02*
G03X5842038Y-2184705I25153J-38100D01*
G03X5829053Y-2171700I-38138J-25095D01*
G03X5842038Y-2158695I-25153J38100D01*
G03X5855023Y-2171700I38138J25095D01*
G37*
G36*
G01X5918523Y2425700D02*
G03X5905538Y2412695I25153J-38100D01*
G03X5892553Y2425700I-38138J-25095D01*
G03X5905538Y2438705I-25153J38100D01*
G03X5918523Y2425700I38138J25095D01*
G37*
G36*
G01X5918523Y2501900D02*
G03X5905538Y2488895I25153J-38100D01*
G03X5892553Y2501900I-38138J-25095D01*
G03X5905538Y2514905I-25153J38100D01*
G03X5918523Y2501900I38138J25095D01*
G37*
G36*
G01X5689847Y-2616200D02*
G03X5676900Y-2629147I25153J-38100D01*
G03X5663953Y-2616200I-38100J-25153D01*
G03X5676900Y-2603253I-25153J38100D01*
G03X5689847Y-2616200I38100J25153D01*
G37*
G36*
G01X5994400Y-2629147D02*
G03X5981453Y-2616200I-38100J-25153D01*
G03X5994400Y-2603253I-25153J38100D01*
G03X6007347Y-2616200I38100J25153D01*
G03X5994400Y-2629147I25153J-38100D01*
G37*
G36*
G01X5676900Y-2552947D02*
G03X5663953Y-2540000I-38100J-25153D01*
G03X5676900Y-2527053I-25153J38100D01*
G03X5689847Y-2540000I38100J25153D01*
G03X5676900Y-2552947I25153J-38100D01*
G37*
G36*
G01X6007347Y-2540000D02*
G03X5994400Y-2552947I25153J-38100D01*
G03X5981453Y-2540000I-38100J-25153D01*
G03X5994400Y-2527053I-25153J38100D01*
G03X6007347Y-2540000I38100J25153D01*
G37*
G36*
G01X5676900Y-2337047D02*
G03X5663953Y-2324100I-38100J-25153D01*
G03X5676900Y-2311153I-25153J38100D01*
G03X5689847Y-2324100I38100J25153D01*
G03X5676900Y-2337047I25153J-38100D01*
G37*
G36*
G01X6007347Y-2324100D02*
G03X5994400Y-2337047I25153J-38100D01*
G03X5981453Y-2324100I-38100J-25153D01*
G03X5994400Y-2311153I-25153J38100D01*
G03X6007347Y-2324100I38100J25153D01*
G37*
G36*
G01X6007347Y-2247900D02*
G03X5994400Y-2260847I25153J-38100D01*
G03X5981453Y-2247900I-38100J-25153D01*
G03X5994400Y-2234953I-25153J38100D01*
G03X6007347Y-2247900I38100J25153D01*
G37*
G36*
G01X5676900Y-2260847D02*
G03X5663953Y-2247900I-38100J-25153D01*
G03X5676900Y-2234953I-25153J38100D01*
G03X5689847Y-2247900I38100J25153D01*
G03X5676900Y-2260847I25153J-38100D01*
G37*
G36*
G01X5676900Y-2184647D02*
G03X5663953Y-2171700I-38100J-25153D01*
G03X5676900Y-2158753I-25153J38100D01*
G03X5689847Y-2171700I38100J25153D01*
G03X5676900Y-2184647I25153J-38100D01*
G37*
G36*
G01X5994400Y-2184647D02*
G03X5981453Y-2171700I-38100J-25153D01*
G03X5994400Y-2158753I-25153J38100D01*
G03X6007347Y-2171700I38100J25153D01*
G03X5994400Y-2184647I25153J-38100D01*
G37*
G36*
G01X6108947Y-469900D02*
G03X6096000Y-482847I25153J-38100D01*
G03X6083053Y-469900I-38100J-25153D01*
G03X6096000Y-456953I-25153J38100D01*
G03X6108947Y-469900I38100J25153D01*
G37*
G36*
G01X6108947Y-393700D02*
G03X6096000Y-406647I25153J-38100D01*
G03X6083053Y-393700I-38100J-25153D01*
G03X6096000Y-380753I-25153J38100D01*
G03X6108947Y-393700I38100J25153D01*
G37*
G36*
G01X6108947Y-317500D02*
G03X6096000Y-330447I25153J-38100D01*
G03X6083053Y-317500I-38100J-25153D01*
G03X6096000Y-304553I-25153J38100D01*
G03X6108947Y-317500I38100J25153D01*
G37*
G36*
G01X457447Y-2006600D02*
G03X444500Y-2019547I25153J-38100D01*
G03X431553Y-2006600I-38100J-25153D01*
G03X444500Y-1993653I-25153J38100D01*
G03X457447Y-2006600I38100J25153D01*
G37*
G36*
G01X444500Y-1872524D02*
G03X431553Y-1859577I-38100J-25153D01*
G03X444500Y-1846630I-25153J38100D01*
G03X457447Y-1859577I38100J25153D01*
G03X444500Y-1872524I25153J-38100D01*
G37*
G36*
G01X444500Y-1796324D02*
G03X431553Y-1783377I-38100J-25153D01*
G03X444500Y-1770430I-25153J38100D01*
G03X457447Y-1783377I38100J25153D01*
G03X444500Y-1796324I25153J-38100D01*
G37*
G36*
G01X444500Y-1498847D02*
G03X431553Y-1485900I-38100J-25153D01*
G03X444500Y-1472953I-25153J38100D01*
G03X457447Y-1485900I38100J25153D01*
G03X444500Y-1498847I25153J-38100D01*
G37*
G36*
G01X457447Y-1409700D02*
G03X444500Y-1422647I25153J-38100D01*
G03X431553Y-1409700I-38100J-25153D01*
G03X444500Y-1396753I-25153J38100D01*
G03X457447Y-1409700I38100J25153D01*
G37*
G36*
G01X457447Y-1130300D02*
G03X444500Y-1143247I25153J-38100D01*
G03X431553Y-1130300I-38100J-25153D01*
G03X444500Y-1117353I-25153J38100D01*
G03X457447Y-1130300I38100J25153D01*
G37*
G36*
G01X457447Y-1054100D02*
G03X444500Y-1067047I25153J-38100D01*
G03X431553Y-1054100I-38100J-25153D01*
G03X444500Y-1041153I-25153J38100D01*
G03X457447Y-1054100I38100J25153D01*
G37*
G36*
G01X6108947Y482600D02*
G03X6096000Y469653I25153J-38100D01*
G03X6083053Y482600I-38100J-25153D01*
G03X6096000Y495547I-25153J38100D01*
G03X6108947Y482600I38100J25153D01*
G37*
G36*
G01X6096000Y545853D02*
G03X6083053Y558800I-38100J-25153D01*
G03X6096000Y571747I-25153J38100D01*
G03X6108947Y558800I38100J25153D01*
G03X6096000Y545853I25153J-38100D01*
G37*
G36*
G01X6108947Y635000D02*
G03X6096000Y622053I25153J-38100D01*
G03X6083053Y635000I-38100J-25153D01*
G03X6096000Y647947I-25153J38100D01*
G03X6108947Y635000I38100J25153D01*
G37*
G36*
G01X6096000Y698253D02*
G03X6083053Y711200I-38100J-25153D01*
G03X6096000Y724147I-25153J38100D01*
G03X6108947Y711200I38100J25153D01*
G03X6096000Y698253I25153J-38100D01*
G37*
G36*
G01X6108947Y1397000D02*
G03X6096000Y1384053I25153J-38100D01*
G03X6083053Y1397000I-38100J-25153D01*
G03X6096000Y1409947I-25153J38100D01*
G03X6108947Y1397000I38100J25153D01*
G37*
G36*
G01X6096000Y1460253D02*
G03X6083053Y1473200I-38100J-25153D01*
G03X6096000Y1486147I-25153J38100D01*
G03X6108947Y1473200I38100J25153D01*
G03X6096000Y1460253I25153J-38100D01*
G37*
G36*
G01X6096000Y1536453D02*
G03X6083053Y1549400I-38100J-25153D01*
G03X6096000Y1562347I-25153J38100D01*
G03X6108947Y1549400I38100J25153D01*
G03X6096000Y1536453I25153J-38100D01*
G37*
G36*
G01X6108947Y1625600D02*
G03X6096000Y1612653I25153J-38100D01*
G03X6083053Y1625600I-38100J-25153D01*
G03X6096000Y1638547I-25153J38100D01*
G03X6108947Y1625600I38100J25153D01*
G37*
G36*
G01X5829300Y2260353D02*
G03X5816353Y2273300I-38100J-25153D01*
G03X5829300Y2286247I-25153J38100D01*
G03X5842247Y2273300I38100J25153D01*
G03X5829300Y2260353I25153J-38100D01*
G37*
G36*
G01X6070847Y2273300D02*
G03X6057900Y2260353I25153J-38100D01*
G03X6044953Y2273300I-38100J-25153D01*
G03X6057900Y2286247I-25153J38100D01*
G03X6070847Y2273300I38100J25153D01*
G37*
G36*
G01X6070847Y2349500D02*
G03X6057900Y2336553I25153J-38100D01*
G03X6044953Y2349500I-38100J-25153D01*
G03X6057900Y2362447I-25153J38100D01*
G03X6070847Y2349500I38100J25153D01*
G37*
G36*
G01X5829300Y2336553D02*
G03X5816353Y2349500I-38100J-25153D01*
G03X5829300Y2362447I-25153J38100D01*
G03X5842247Y2349500I38100J25153D01*
G03X5829300Y2336553I25153J-38100D01*
G37*
G36*
G01X6057900Y2412753D02*
G03X6044953Y2425700I-38100J-25153D01*
G03X6057900Y2438647I-25153J38100D01*
G03X6070847Y2425700I38100J25153D01*
G03X6057900Y2412753I25153J-38100D01*
G37*
G36*
G01X5842247Y2425700D02*
G03X5829300Y2412753I25153J-38100D01*
G03X5816353Y2425700I-38100J-25153D01*
G03X5829300Y2438647I-25153J38100D01*
G03X5842247Y2425700I38100J25153D01*
G37*
G36*
G01X5842247Y2501900D02*
G03X5829300Y2488953I25153J-38100D01*
G03X5816353Y2501900I-38100J-25153D01*
G03X5829300Y2514847I-25153J38100D01*
G03X5842247Y2501900I38100J25153D01*
G37*
G36*
G01X6057900Y2488953D02*
G03X6044953Y2501900I-38100J-25153D01*
G03X6057900Y2514847I-25153J38100D01*
G03X6070847Y2501900I38100J25153D01*
G03X6057900Y2488953I25153J-38100D01*
G37*
G36*
G01X5918238Y-2629090D02*
G03X5905329Y-2616200I-38062J-25210D01*
G03X5918238Y-2603310I-25153J38100D01*
G03X5931147Y-2616200I38062J25210D01*
G03X5918238Y-2629090I25153J-38100D01*
G37*
G36*
G01X5931147Y-2540000D02*
G03X5918238Y-2552890I25153J-38100D01*
G03X5905329Y-2540000I-38062J-25210D01*
G03X5918238Y-2527110I-25153J38100D01*
G03X5931147Y-2540000I38062J25210D01*
G37*
G36*
G01X5918238Y-2336990D02*
G03X5905329Y-2324100I-38062J-25210D01*
G03X5918238Y-2311210I-25153J38100D01*
G03X5931147Y-2324100I38062J25210D01*
G03X5918238Y-2336990I25153J-38100D01*
G37*
G36*
G01X5918238Y-2260790D02*
G03X5905329Y-2247900I-38062J-25210D01*
G03X5918238Y-2235010I-25153J38100D01*
G03X5931147Y-2247900I38062J25210D01*
G03X5918238Y-2260790I25153J-38100D01*
G37*
G36*
G01X5918238Y-2184590D02*
G03X5905329Y-2171700I-38062J-25210D01*
G03X5918238Y-2158810I-25153J38100D01*
G03X5931147Y-2171700I38062J25210D01*
G03X5918238Y-2184590I25153J-38100D01*
G37*
G36*
G01X5981738Y2260410D02*
G03X5968829Y2273300I-38062J-25210D01*
G03X5981738Y2286190I-25153J38100D01*
G03X5994647Y2273300I38062J25210D01*
G03X5981738Y2260410I25153J-38100D01*
G37*
G36*
G01X5994647Y2349500D02*
G03X5981738Y2336610I25153J-38100D01*
G03X5968829Y2349500I-38062J-25210D01*
G03X5981738Y2362390I-25153J38100D01*
G03X5994647Y2349500I38062J25210D01*
G37*
G36*
G01X5994647Y2425700D02*
G03X5981738Y2412810I25153J-38100D01*
G03X5968829Y2425700I-38062J-25210D01*
G03X5981738Y2438590I-25153J38100D01*
G03X5994647Y2425700I38062J25210D01*
G37*
G36*
G01X5981738Y2489010D02*
G03X5968829Y2501900I-38062J-25210D01*
G03X5981738Y2514790I-25153J38100D01*
G03X5994647Y2501900I38062J25210D01*
G03X5981738Y2489010I25153J-38100D01*
G37*
G36*
G01X368338Y-2019490D02*
G03X355429Y-2006600I-38062J-25210D01*
G03X368338Y-1993710I-25153J38100D01*
G03X381247Y-2006600I38062J25210D01*
G03X368338Y-2019490I25153J-38100D01*
G37*
G36*
G01X368338Y-1872467D02*
G03X355429Y-1859577I-38062J-25210D01*
G03X368338Y-1846688I-25153J38100D01*
G03X381247Y-1859577I38062J25210D01*
G03X368338Y-1872467I25153J-38100D01*
G37*
G36*
G01X381247Y-1783377D02*
G03X368338Y-1796267I25153J-38100D01*
G03X355429Y-1783377I-38062J-25210D01*
G03X368338Y-1770488I-25153J38100D01*
G03X381247Y-1783377I38062J25210D01*
G37*
G36*
G01X381247Y-1485900D02*
G03X368338Y-1498790I25153J-38100D01*
G03X355429Y-1485900I-38062J-25210D01*
G03X368338Y-1473010I-25153J38100D01*
G03X381247Y-1485900I38062J25210D01*
G37*
G36*
G01X381247Y-1409700D02*
G03X368338Y-1422590I25153J-38100D01*
G03X355429Y-1409700I-38062J-25210D01*
G03X368338Y-1396810I-25153J38100D01*
G03X381247Y-1409700I38062J25210D01*
G37*
G36*
G01X381247Y-1130300D02*
G03X368338Y-1143190I25153J-38100D01*
G03X355429Y-1130300I-38062J-25210D01*
G03X368338Y-1117410I-25153J38100D01*
G03X381247Y-1130300I38062J25210D01*
G37*
G36*
G01X381247Y-1054100D02*
G03X368338Y-1066990I25153J-38100D01*
G03X355429Y-1054100I-38062J-25210D01*
G03X368338Y-1041210I-25153J38100D01*
G03X381247Y-1054100I38062J25210D01*
G37*
G36*
G01X4349750Y2466085D02*
G03X4363516Y2442695I44450J10415D01*
G01X4335984D01*
G03X4349750Y2466085I-30684J33805D01*
G37*
G36*
G01X292138Y-1943405D02*
G03X282815Y-1933089I-38138J-25095D01*
G03X292138Y-1922773I-28815J35411D01*
G03X301461Y-1933089I38138J25095D01*
G03X292138Y-1943405I28815J-35411D01*
G37*
G36*
G01X453785Y-1933089D02*
G03X444500Y-1943347I28815J-35411D01*
G03X435215Y-1933089I-38100J-25153D01*
G03X444500Y-1922830I-28815J35411D01*
G03X453785Y-1933089I38100J25153D01*
G37*
G36*
G01X368338Y-1943290D02*
G03X359091Y-1933089I-38062J-25210D01*
G03X368338Y-1922888I-28815J35411D01*
G03X377585Y-1933089I38062J25210D01*
G03X368338Y-1943290I28815J-35411D01*
G37*
G36*
G01X301263Y-1640827D02*
G03X292138Y-1650981I29013J-35250D01*
G03X283013Y-1640827I-38138J-25095D01*
G03X292138Y-1630673I-29013J35250D01*
G03X301263Y-1640827I38138J25095D01*
G37*
G36*
G01X301263Y-1267150D02*
G03X292138Y-1277304I29013J-35250D01*
G03X283013Y-1267150I-38138J-25095D01*
G03X292138Y-1256995I-29013J35250D01*
G03X301263Y-1267150I38138J25095D01*
G37*
G36*
G01X301263Y-911550D02*
G03X292138Y-921704I29013J-35250D01*
G03X283013Y-911550I-38138J-25095D01*
G03X292138Y-901395I-29013J35250D01*
G03X301263Y-911550I38138J25095D01*
G37*
G36*
G01X6019762Y-185104D02*
G03X6010637Y-174950I-38138J-25095D01*
G03X6019762Y-164795I-29013J35250D01*
G03X6028887Y-174950I38138J25095D01*
G03X6019762Y-185104I29013J-35250D01*
G37*
G36*
G01X6019762Y843596D02*
G03X6010637Y853750I-38138J-25095D01*
G03X6019762Y863905I-29013J35250D01*
G03X6028887Y853750I38138J25095D01*
G03X6019762Y843596I29013J-35250D01*
G37*
G36*
G01X6019762Y1757996D02*
G03X6010637Y1768150I-38138J-25095D01*
G03X6019762Y1778305I-29013J35250D01*
G03X6028887Y1768150I38138J25095D01*
G03X6019762Y1757996I29013J-35250D01*
G37*
G36*
G01X5762187Y2644450D02*
G03X5753062Y2634296I29013J-35250D01*
G03X5743937Y2644450I-38138J-25095D01*
G03X5753062Y2654605I-29013J35250D01*
G03X5762187Y2644450I38138J25095D01*
G37*
G36*
G01X5842038Y-2407604D02*
G03X5832913Y-2397450I-38138J-25095D01*
G03X5842038Y-2387295I-29013J35250D01*
G03X5851163Y-2397450I38138J25095D01*
G03X5842038Y-2407604I29013J-35250D01*
G37*
G36*
G01X5851163Y-2029150D02*
G03X5842038Y-2039304I29013J-35250D01*
G03X5832913Y-2029150I-38138J-25095D01*
G03X5842038Y-2018995I-29013J35250D01*
G03X5851163Y-2029150I38138J25095D01*
G37*
G36*
G01X5905538Y2634296D02*
G03X5896413Y2644450I-38138J-25095D01*
G03X5905538Y2654605I-29013J35250D01*
G03X5914663Y2644450I38138J25095D01*
G03X5905538Y2634296I29013J-35250D01*
G37*
G36*
G01X444500Y-1650924D02*
G03X435413Y-1640827I-38100J-25153D01*
G03X444500Y-1630730I-29013J35250D01*
G03X453587Y-1640827I38100J25153D01*
G03X444500Y-1650924I29013J-35250D01*
G37*
G36*
G01X5676900Y-2407546D02*
G03X5667813Y-2397450I-38100J-25153D01*
G03X5676900Y-2387353I-29013J35250D01*
G03X5685987Y-2397450I38100J25153D01*
G03X5676900Y-2407546I29013J-35250D01*
G37*
G36*
G01X5994400Y-2407546D02*
G03X5985313Y-2397450I-38100J-25153D01*
G03X5994400Y-2387353I-29013J35250D01*
G03X6003487Y-2397450I38100J25153D01*
G03X5994400Y-2407546I29013J-35250D01*
G37*
G36*
G01X5994400Y-2039246D02*
G03X5985313Y-2029150I-38100J-25153D01*
G03X5994400Y-2019053I-29013J35250D01*
G03X6003487Y-2029150I38100J25153D01*
G03X5994400Y-2039246I29013J-35250D01*
G37*
G36*
G01X5685987Y-2029150D02*
G03X5676900Y-2039246I29013J-35250D01*
G03X5667813Y-2029150I-38100J-25153D01*
G03X5676900Y-2019053I-29013J35250D01*
G03X5685987Y-2029150I38100J25153D01*
G37*
G36*
G01X6096000Y-185046D02*
G03X6086913Y-174950I-38100J-25153D01*
G03X6096000Y-164853I-29013J35250D01*
G03X6105087Y-174950I38100J25153D01*
G03X6096000Y-185046I29013J-35250D01*
G37*
G36*
G01X6096000Y843654D02*
G03X6086913Y853750I-38100J-25153D01*
G03X6096000Y863847I-29013J35250D01*
G03X6105087Y853750I38100J25153D01*
G03X6096000Y843654I29013J-35250D01*
G37*
G36*
G01X453587Y-1267150D02*
G03X444500Y-1277246I29013J-35250D01*
G03X435413Y-1267150I-38100J-25153D01*
G03X444500Y-1257053I-29013J35250D01*
G03X453587Y-1267150I38100J25153D01*
G37*
G36*
G01X453587Y-911550D02*
G03X444500Y-921646I29013J-35250D01*
G03X435413Y-911550I-38100J-25153D01*
G03X444500Y-901453I-29013J35250D01*
G03X453587Y-911550I38100J25153D01*
G37*
G36*
G01X6096000Y1758054D02*
G03X6086913Y1768150I-38100J-25153D01*
G03X6096000Y1778247I-29013J35250D01*
G03X6105087Y1768150I38100J25153D01*
G03X6096000Y1758054I29013J-35250D01*
G37*
G36*
G01X5829300Y2634354D02*
G03X5820213Y2644450I-38100J-25153D01*
G03X5829300Y2654547I-29013J35250D01*
G03X5838387Y2644450I38100J25153D01*
G03X5829300Y2634354I29013J-35250D01*
G37*
G36*
G01X6066987Y2644450D02*
G03X6057900Y2634354I29013J-35250D01*
G03X6048813Y2644450I-38100J-25153D01*
G03X6057900Y2654547I-29013J35250D01*
G03X6066987Y2644450I38100J25153D01*
G37*
G36*
G01X5927287Y-2397450D02*
G03X5918238Y-2407489I29013J-35250D01*
G03X5909189Y-2397450I-38062J-25210D01*
G03X5918238Y-2387410I-29013J35250D01*
G03X5927287Y-2397450I38062J25210D01*
G37*
G36*
G01X5927287Y-2029150D02*
G03X5918238Y-2039189I29013J-35250D01*
G03X5909189Y-2029150I-38062J-25210D01*
G03X5918238Y-2019110I-29013J35250D01*
G03X5927287Y-2029150I38062J25210D01*
G37*
G36*
G01X5981738Y2634411D02*
G03X5972689Y2644450I-38062J-25210D01*
G03X5981738Y2654490I-29013J35250D01*
G03X5990787Y2644450I38062J25210D01*
G03X5981738Y2634411I29013J-35250D01*
G37*
G36*
G01X377387Y-1640827D02*
G03X368338Y-1650866I29013J-35250D01*
G03X359289Y-1640827I-38062J-25210D01*
G03X368338Y-1630788I-29013J35250D01*
G03X377387Y-1640827I38062J25210D01*
G37*
G36*
G01X377387Y-1267150D02*
G03X368338Y-1277189I29013J-35250D01*
G03X359289Y-1267150I-38062J-25210D01*
G03X368338Y-1257110I-29013J35250D01*
G03X377387Y-1267150I38062J25210D01*
G37*
G36*
G01X377387Y-911550D02*
G03X368338Y-921589I29013J-35250D01*
G03X359289Y-911550I-38062J-25210D01*
G03X368338Y-901510I-29013J35250D01*
G03X377387Y-911550I38062J25210D01*
G37*
G36*
G01X292138Y-1720182D02*
G03X283784Y-1710677I-38138J-25095D01*
G03X292138Y-1701172I-29784J34600D01*
G03X300492Y-1710677I38138J25095D01*
G03X292138Y-1720182I29784J-34600D01*
G37*
G36*
G01X300492Y-1337000D02*
G03X292138Y-1346505I29784J-34600D01*
G03X283784Y-1337000I-38138J-25095D01*
G03X292138Y-1327495I-29784J34600D01*
G03X300492Y-1337000I38138J25095D01*
G37*
G36*
G01X300492Y-981400D02*
G03X292138Y-990905I29784J-34600D01*
G03X283784Y-981400I-38138J-25095D01*
G03X292138Y-971895I-29784J34600D01*
G03X300492Y-981400I38138J25095D01*
G37*
G36*
G01X6019762Y-254305D02*
G03X6011408Y-244800I-38138J-25095D01*
G03X6019762Y-235295I-29784J34600D01*
G03X6028116Y-244800I38138J25095D01*
G03X6019762Y-254305I29784J-34600D01*
G37*
G36*
G01X6019762Y774395D02*
G03X6011408Y783900I-38138J-25095D01*
G03X6019762Y793405I-29784J34600D01*
G03X6028116Y783900I38138J25095D01*
G03X6019762Y774395I29784J-34600D01*
G37*
G36*
G01X6019762Y1688795D02*
G03X6011408Y1698300I-38138J-25095D01*
G03X6019762Y1707805I-29784J34600D01*
G03X6028116Y1698300I38138J25095D01*
G03X6019762Y1688795I29784J-34600D01*
G37*
G36*
G01X5753062Y2565095D02*
G03X5744708Y2574600I-38138J-25095D01*
G03X5753062Y2584105I-29784J34600D01*
G03X5761416Y2574600I38138J25095D01*
G03X5753062Y2565095I29784J-34600D01*
G37*
G36*
G01X5850392Y-2467300D02*
G03X5842038Y-2476805I29784J-34600D01*
G03X5833684Y-2467300I-38138J-25095D01*
G03X5842038Y-2457795I-29784J34600D01*
G03X5850392Y-2467300I38138J25095D01*
G37*
G36*
G01X5842038Y-2108505D02*
G03X5833684Y-2099000I-38138J-25095D01*
G03X5842038Y-2089495I-29784J34600D01*
G03X5850392Y-2099000I38138J25095D01*
G03X5842038Y-2108505I29784J-34600D01*
G37*
G36*
G01X5905538Y2565095D02*
G03X5897184Y2574600I-38138J-25095D01*
G03X5905538Y2584105I-29784J34600D01*
G03X5913892Y2574600I38138J25095D01*
G03X5905538Y2565095I29784J-34600D01*
G37*
G36*
G01X6002716Y-2467300D02*
G03X5994400Y-2476747I29784J-34600D01*
G03X5986084Y-2467300I-38100J-25153D01*
G03X5994400Y-2457852I-29784J34600D01*
G03X6002716Y-2467300I38100J25153D01*
G37*
G36*
G01X5685216Y-2467300D02*
G03X5676900Y-2476747I29784J-34600D01*
G03X5668584Y-2467300I-38100J-25153D01*
G03X5676900Y-2457852I-29784J34600D01*
G03X5685216Y-2467300I38100J25153D01*
G37*
G36*
G01X5685216Y-2099000D02*
G03X5676900Y-2108447I29784J-34600D01*
G03X5668584Y-2099000I-38100J-25153D01*
G03X5676900Y-2089552I-29784J34600D01*
G03X5685216Y-2099000I38100J25153D01*
G37*
G36*
G01X5994400Y-2108447D02*
G03X5986084Y-2099000I-38100J-25153D01*
G03X5994400Y-2089552I-29784J34600D01*
G03X6002716Y-2099000I38100J25153D01*
G03X5994400Y-2108447I29784J-34600D01*
G37*
G36*
G01X6104316Y-244800D02*
G03X6096000Y-254247I29784J-34600D01*
G03X6087684Y-244800I-38100J-25153D01*
G03X6096000Y-235352I-29784J34600D01*
G03X6104316Y-244800I38100J25153D01*
G37*
G36*
G01X6096000Y774453D02*
G03X6087684Y783900I-38100J-25153D01*
G03X6096000Y793348I-29784J34600D01*
G03X6104316Y783900I38100J25153D01*
G03X6096000Y774453I29784J-34600D01*
G37*
G36*
G01X452816Y-1710677D02*
G03X444500Y-1720124I29784J-34600D01*
G03X436184Y-1710677I-38100J-25153D01*
G03X444500Y-1701230I-29784J34600D01*
G03X452816Y-1710677I38100J25153D01*
G37*
G36*
G01X444500Y-1346447D02*
G03X436184Y-1337000I-38100J-25153D01*
G03X444500Y-1327552I-29784J34600D01*
G03X452816Y-1337000I38100J25153D01*
G03X444500Y-1346447I29784J-34600D01*
G37*
G36*
G01X452816Y-981400D02*
G03X444500Y-990847I29784J-34600D01*
G03X436184Y-981400I-38100J-25153D01*
G03X444500Y-971952I-29784J34600D01*
G03X452816Y-981400I38100J25153D01*
G37*
G36*
G01X6104316Y1698300D02*
G03X6096000Y1688853I29784J-34600D01*
G03X6087684Y1698300I-38100J-25153D01*
G03X6096000Y1707748I-29784J34600D01*
G03X6104316Y1698300I38100J25153D01*
G37*
G36*
G01X6066216Y2574600D02*
G03X6057900Y2565153I29784J-34600D01*
G03X6049584Y2574600I-38100J-25153D01*
G03X6057900Y2584048I-29784J34600D01*
G03X6066216Y2574600I38100J25153D01*
G37*
G36*
G01X5829300Y2565153D02*
G03X5820984Y2574600I-38100J-25153D01*
G03X5829300Y2584048I-29784J34600D01*
G03X5837616Y2574600I38100J25153D01*
G03X5829300Y2565153I29784J-34600D01*
G37*
G36*
G01X5918238Y-2476690D02*
G03X5909960Y-2467300I-38062J-25210D01*
G03X5918238Y-2457910I-29784J34600D01*
G03X5926516Y-2467300I38062J25210D01*
G03X5918238Y-2476690I29784J-34600D01*
G37*
G36*
G01X5918238Y-2108390D02*
G03X5909960Y-2099000I-38062J-25210D01*
G03X5918238Y-2089610I-29784J34600D01*
G03X5926516Y-2099000I38062J25210D01*
G03X5918238Y-2108390I29784J-34600D01*
G37*
G36*
G01X5990016Y2574600D02*
G03X5981738Y2565210I29784J-34600D01*
G03X5973460Y2574600I-38062J-25210D01*
G03X5981738Y2583990I-29784J34600D01*
G03X5990016Y2574600I38062J25210D01*
G37*
G36*
G01X368338Y-1720067D02*
G03X360060Y-1710677I-38062J-25210D01*
G03X368338Y-1701287I-29784J34600D01*
G03X376616Y-1710677I38062J25210D01*
G03X368338Y-1720067I29784J-34600D01*
G37*
G36*
G01X368338Y-1346390D02*
G03X360060Y-1337000I-38062J-25210D01*
G03X368338Y-1327610I-29784J34600D01*
G03X376616Y-1337000I38062J25210D01*
G03X368338Y-1346390I29784J-34600D01*
G37*
G36*
G01X368338Y-990790D02*
G03X360060Y-981400I-38062J-25210D01*
G03X368338Y-972010I-29784J34600D01*
G03X376616Y-981400I38062J25210D01*
G03X368338Y-990790I29784J-34600D01*
G37*
G36*
G01X297470Y-1200150D02*
G03X292138Y-1206805I32806J-31750D01*
G03X286806Y-1200150I-38138J-25095D01*
G03X292138Y-1193495I-32806J31750D01*
G03X297470Y-1200150I38138J25095D01*
G37*
G36*
G01X444500Y-1206747D02*
G03X439206Y-1200150I-38100J-25153D01*
G03X444500Y-1193553I-32806J31750D01*
G03X449794Y-1200150I38100J25153D01*
G03X444500Y-1206747I32806J-31750D01*
G37*
G36*
G01X373594Y-1200150D02*
G03X368338Y-1206690I32806J-31750D01*
G03X363082Y-1200150I-38062J-25210D01*
G03X368338Y-1193610I-32806J31750D01*
G03X373594Y-1200150I38062J25210D01*
G37*
G36*
G01X3568700Y342736D02*
G03X3553715Y349250I-25400J-37936D01*
G03X3568700Y355764I-10415J44450D01*
G03X3583685Y349250I25400J37936D01*
G03X3568700Y342736I10415J-44450D01*
G37*
G36*
G01X3578035Y538034D02*
G03X3568700Y533236I16065J-42734D01*
G03X3553715Y539750I-25400J-37936D01*
G03X3566880Y545107I-10415J44450D01*
G03X3578035Y538034I29765J34617D01*
G37*
G36*
G01X3532885Y349250D02*
G03X3521650Y344994I10415J-44450D01*
G03X3505933Y350067I-21650J-40194D01*
G03X3517900Y355764I-13433J43633D01*
G03X3532885Y349250I25400J37936D01*
G37*
G36*
G01X4140200Y2451347D02*
G03X4147616Y2442695I38100J25153D01*
G01X4132784D01*
G03X4140200Y2451347I-30684J33805D01*
G37*
G36*
G01X3579213Y168170D02*
G03X3570993Y163808I17180J-42298D01*
G03X3563025Y168067I-25400J-37936D01*
G03X3571245Y172430I-17180J42298D01*
G03X3579213Y168170I25400J37936D01*
G37*
G36*
G01X3532885Y539750D02*
G03X3517900Y533236I10415J-44450D01*
G03X3514419Y535348I-25400J-37936D01*
G03X3526734Y541658I-14419J43317D01*
G03X3532885Y539750I16566J42542D01*
G37*
G36*
G01X1901148Y2407691D02*
G03X1895812Y2406920I3852J-45491D01*
G03X1898650Y2415285I-41612J18780D01*
G03X1901148Y2407691I44450J10415D01*
G37*
G36*
G01X3528413Y168170D02*
G03X3522797Y165427I17180J-42298D01*
G03X3517307Y168119I-22796J-39555D01*
G03X3522922Y170883I-17306J42247D01*
G03X3528413Y168170I22922J39482D01*
G37*
G36*
G01X2921026Y2774340D02*
G03X2914650Y2769968I25374J-43840D01*
G03X2908274Y2774340I-31750J-39468D01*
G01X2921026D01*
G37*
G36*
G01X4530048Y-157709D02*
G01X4528424Y-157876D01*
G03X4528718Y-154223I-45324J5476D01*
G03X4530048Y-157709I43282J14523D01*
G37*
G36*
G01X1862016Y2377584D02*
G03X1856023Y2380082I-20516J-40784D01*
G03X1863388Y2380980I-1823J45618D01*
G03X1862016Y2377584I41612J-18780D01*
G37*
G36*
G01X2797953Y222324D02*
G01X2796291Y221262D01*
G01X2794882Y222168D01*
G01X2796545Y223230D01*
G01X2797953Y222324D01*
G37*
G36*
G01X2847091Y221262D02*
G01X2845682Y222168D01*
G01X2847345Y223230D01*
G01X2848753Y222324D01*
G01X2847091Y221262D01*
G37*
G36*
G01X4208984Y2442695D02*
G01X4210050Y2443694D01*
G01X4211116Y2442695D01*
G01X4208984D01*
G37*
G36*
G01X4272484Y2442695D02*
G01X4273550Y2443694D01*
G01X4274616Y2442695D01*
G01X4272484D01*
G37*
G36*
G01X2847592Y-170635D02*
G01X2847345Y-170799D01*
G01X2847098Y-170635D01*
G01X2847345Y-170470D01*
G01X2847592Y-170635D01*
G37*
G36*
G01X2796792Y-170635D02*
G01X2796545Y-170799D01*
G01X2796298Y-170635D01*
G01X2796545Y-170470D01*
G01X2796792Y-170635D01*
G37*
G04 PlaneZone End*

G04 Pad Start*
G54D10*
G01X4478401Y-1469199D03*
G01X4478401Y-969200D03*
G54D11*
G01X5478399Y-669201D03*
G01X5478399Y-1769199D03*
G04 Pad End*

G04 Via Start*
G54D12*
G01X5857347Y192521D03*
G01X5793745Y192521D03*
G01X5655778Y192521D03*
G01X5727700Y190500D03*
G54D13*
G01X5803900Y1295400D03*
G01X5753100Y1295400D03*
G54D12*
G01X5829300Y1701800D03*
G01X5448300Y1701800D03*
G01X5600700Y1701800D03*
G01X5372100Y1701800D03*
G01X5857347Y271482D03*
G01X5793745Y271482D03*
G01X5654461Y271482D03*
G01X5816600Y1079500D03*
G01X5321300Y939800D03*
G54D13*
G01X5222245Y1848665D03*
G01X5222245Y1810565D03*
G54D12*
G01X5257800Y1727200D03*
G01X5676900Y1701800D03*
G01X5753100Y1701800D03*
G01X5524500Y1701800D03*
G54D13*
G01X1381191Y1937873D03*
G01X1511300Y2286000D03*
G01X1460500Y2286000D03*
G54D12*
G01X5273045Y-107135D03*
G54D13*
G01X3022600Y546100D03*
G01X2959100Y546100D03*
G01X3022600Y482600D03*
G01X2959100Y482600D03*
G54D12*
G01X2641600Y533400D03*
G54D13*
G01X2362200Y1257300D03*
G01X2374900Y1473200D03*
G01X2484800Y1308100D03*
G01X2044700Y863600D03*
G01X1905000Y850900D03*
G01X2484800Y1409700D03*
G01X2354125Y1403772D03*
G01X1346200Y1511300D03*
G01X2071361Y-363444D03*
G01X2122161Y-363444D03*
G01X2020561Y-363444D03*
G01X2071361Y-414244D03*
G01X2122161Y-414244D03*
G01X2020561Y-414244D03*
G54D12*
G01X2540000Y2108200D03*
G54D13*
G01X2527300Y2006600D03*
G01X1485900Y1849800D03*
G54D12*
G01X1676400Y1892300D03*
G01X1612900Y1892300D03*
G54D13*
G01X1460500Y1600200D03*
G01X1498600Y1701800D03*
G01X1651000Y2489200D03*
G01X1397000Y2463800D03*
G01X1854200Y2425700D03*
G01X1765300Y2425700D03*
G01X1371600Y2413000D03*
G54D12*
G01X1676400Y2082800D03*
G01X1612900Y2082800D03*
G54D13*
G01X1841500Y2336800D03*
G01X1371600Y1765300D03*
G54D12*
G01X1676400Y2019300D03*
G01X1612900Y2019300D03*
G01X1676400Y1955800D03*
G01X1612900Y1955800D03*
G54D13*
G01X1612900Y2171700D03*
G54D12*
G01X-42500Y2261332D03*
G01X2997200Y2298700D03*
G54D13*
G01X3098800Y2184400D03*
G01X2997200Y2184400D03*
G01X3048000Y2184400D03*
G01X2946400Y2184400D03*
G54D12*
G01X3966349Y-285125D03*
G01X3890149Y-285125D03*
G01X3813949Y-285125D03*
G01X3890149Y159324D03*
G01X3813949Y159324D03*
G54D13*
G01X4114800Y254000D03*
G54D12*
G01X3966349Y95824D03*
G01X3890149Y95824D03*
G01X3813949Y95824D03*
G01X3966349Y-158125D03*
G01X3890149Y-158125D03*
G01X3813949Y-158125D03*
G01X3966349Y-221625D03*
G01X3890149Y-221625D03*
G01X3813949Y-221625D03*
G54D13*
G01X3962400Y1193800D03*
G01X3911600Y1193800D03*
G01X3860800Y1193800D03*
G01X3810000Y1193800D03*
G54D12*
G01X3964945Y591365D03*
G01X3888745Y591365D03*
G01X3812545Y591365D03*
G01X3888745Y527865D03*
G01X3812545Y527865D03*
G54D13*
G01X4178300Y622300D03*
G01X3962400Y1308100D03*
G01X3962400Y1257300D03*
G01X3911600Y1257300D03*
G54D12*
G01X965200Y-596900D03*
G01X2987045Y1594665D03*
G54D13*
G01X2821945Y-208735D03*
G01X2872745Y-208735D03*
G01X2771145Y-208735D03*
G01X3111500Y-241300D03*
G01X3009900Y-241300D03*
G01X3060700Y-241300D03*
G01X2959100Y-241300D03*
G01X2821945Y-259535D03*
G01X2872745Y-259535D03*
G01X2771145Y-259535D03*
G01X3009900Y-292100D03*
G01X2959100Y-292100D03*
G01X2821945Y-310335D03*
G01X2872745Y-310335D03*
G01X2771145Y-310335D03*
G54D12*
G01X2899085Y-728997D03*
G01X2783845Y1975665D03*
G54D13*
G01X2821945Y311965D03*
G01X2872745Y311965D03*
G01X2771145Y311965D03*
G01X3022600Y292100D03*
G01X2971800Y292100D03*
G01X2821945Y261165D03*
G01X2872745Y261165D03*
G01X2771145Y261165D03*
G01X3022600Y241300D03*
G01X2971800Y241300D03*
G54D12*
G01X2956412Y1741833D03*
G01X2839524Y1741833D03*
G01X2895735Y1741833D03*
G01X2785509Y1741833D03*
G01X2959100Y1676400D03*
G01X2839744Y1674498D03*
G01X2897272Y1674498D03*
G01X2785509Y1674498D03*
G54D13*
G01X2948945Y1162865D03*
G01X2885445Y1162865D03*
G01X2705100Y1384300D03*
G01X2809245Y1378765D03*
G01X2948945Y1366065D03*
G54D12*
G01X2743200Y-774700D03*
G01X2819400Y2133600D03*
G54D13*
G01X2946400Y2133600D03*
G01X2946400Y2082800D03*
G54D12*
G01X2654300Y2057400D03*
G54D13*
G01X2946400Y2032000D03*
G54D12*
G01X2885214Y954484D03*
G01X2694945Y936145D03*
G54D13*
G01X2806700Y1219200D03*
G01X2948945Y1213665D03*
G01X2885445Y1213665D03*
G54D12*
G01X2946400Y2730500D03*
G01X2882900Y2730500D03*
G54D13*
G01X3022600Y190500D03*
G01X2971800Y190500D03*
G01X2821691Y183326D03*
G01X2872491Y183326D03*
G01X2770891Y183326D03*
G01X3112292Y-188935D03*
G01X3009900Y-190500D03*
G01X3060700Y-190500D03*
G01X2959100Y-190500D03*
G54D12*
G01X2895600Y1028700D03*
G54D13*
G01X3022600Y139700D03*
G01X2821691Y132526D03*
G01X2872491Y132526D03*
G01X2770891Y132526D03*
G01X2821691Y81726D03*
G01X2872491Y81726D03*
G01X2770891Y81726D03*
G01X2821945Y-81735D03*
G01X2872745Y-81735D03*
G01X2771145Y-81735D03*
G01X2821945Y-132535D03*
G01X2872745Y-132535D03*
G01X2771145Y-132535D03*
G01X2809245Y1302565D03*
G01X2999745Y1340665D03*
G01X2707645Y1315265D03*
G01X2948945Y1315265D03*
G54D12*
G01X2768600Y2641600D03*
G54D13*
G01X2821945Y362765D03*
G01X2872745Y362765D03*
G01X2771145Y362765D03*
G01X2743200Y-838200D03*
G01X2946400Y-889000D03*
G01X2821945Y-30935D03*
G01X2872745Y-30935D03*
G01X2771145Y-30935D03*
G01X2006600Y2590800D03*
G01X1905000Y2590800D03*
G54D12*
G01X2235200Y2451100D03*
G01X-38100Y2616200D03*
G01X3329132Y2590800D03*
G54D13*
G01X1841500Y850900D03*
G54D12*
G01X1765300Y850900D03*
G01X1689100Y850900D03*
G54D13*
G01X1666245Y-437335D03*
G01X1615445Y-437335D03*
G01X1564645Y-437335D03*
G01X1666245Y-488135D03*
G01X1615445Y-488135D03*
G01X1564645Y-488135D03*
G01X1666245Y-386535D03*
G01X1615445Y-386535D03*
G01X1564645Y-386535D03*
G01X1540441Y1017487D03*
G01X1470526Y1013326D03*
G01X1778000Y-152400D03*
G01X1828800Y-152400D03*
G01X1727200Y-152400D03*
G01X1333500Y1117600D03*
G01X1333500Y1371600D03*
G01X1485900Y1333500D03*
G01X1333500Y1308100D03*
G01X1333500Y1244600D03*
G01X1778000Y-203200D03*
G01X1828800Y-203200D03*
G01X1727200Y-203200D03*
G01X1778000Y-254000D03*
G01X1828800Y-254000D03*
G01X1727200Y-254000D03*
G01X1473200Y939800D03*
G01X1409700Y914400D03*
G01X1296129Y865377D03*
G01X1386845Y629465D03*
G01X1488445Y578665D03*
G01X1437645Y578665D03*
G01X1386845Y578665D03*
G54D12*
G01X1368703Y-810278D03*
G01X1309418Y-810278D03*
G01X1574800Y711200D03*
G01X1574800Y635000D03*
G54D13*
G01X1488445Y629465D03*
G01X1437645Y629465D03*
G01X1488445Y527865D03*
G01X1437645Y527865D03*
G01X1386845Y527865D03*
G54D12*
G01X2301245Y-907235D03*
G01X3966349Y159324D03*
G01X3977645Y-538935D03*
G01X3797300Y-533400D03*
G01X3860800Y-533400D03*
G01X4053845Y-538935D03*
G01X4193545Y-996135D03*
G01X4193545Y-1072435D03*
G01X4193545Y-1161235D03*
G01X4193545Y-856435D03*
G01X4117345Y-856435D03*
G01X4193545Y-919935D03*
G01X4117345Y-919935D03*
G54D13*
G01X5393383Y2140765D03*
G01X5219700Y2133600D03*
G01X4178300Y2476500D03*
G01X4102100Y2476500D03*
G01X4076700Y609600D03*
G54D12*
G01X3888745Y464365D03*
G01X3812545Y464365D03*
G54D13*
G01X3747000Y395000D03*
G54D12*
G01X3773246Y2305865D03*
G01X3939545Y1721665D03*
G01X3876045Y1721665D03*
G01X3812545Y1721665D03*
G01X3964945Y223065D03*
G01X3890149Y222824D03*
G01X3813949Y222824D03*
G54D13*
G01X4038600Y317500D03*
G01X3746500Y304800D03*
G54D12*
G01X4165600Y1003300D03*
G01X3939545Y1658165D03*
G01X3876045Y1658165D03*
G01X3812545Y1658165D03*
G01X3939545Y1594665D03*
G01X3876045Y1594665D03*
G01X3812545Y1594665D03*
G54D13*
G01X4140200Y2070100D03*
G01X4089400Y2070100D03*
G54D12*
G01X3939545Y2064565D03*
G01X3876045Y2064565D03*
G01X3812545Y2064565D03*
G54D13*
G01X4140200Y2019300D03*
G01X4089400Y2019300D03*
G54D12*
G01X3939545Y2001065D03*
G01X3876045Y2001065D03*
G01X3812545Y2001065D03*
G54D13*
G01X3886200Y2209800D03*
G54D12*
G01X3939545Y2128065D03*
G01X3876045Y2128065D03*
G01X3812545Y2128065D03*
G54D13*
G01X4140200Y2120900D03*
G01X4089400Y2120900D03*
G01X3962400Y1371600D03*
G01X3467100Y2209800D03*
G54D12*
G01X1193800Y-355600D03*
G01X-114300Y1955800D03*
G01X-42500Y1739115D03*
G01X-101600Y2463800D03*
G01X-44948Y749962D03*
G01X-101600Y-50800D03*
G01X-114300Y952500D03*
G01X-101600Y457200D03*
G01X-101600Y-1536700D03*
G01X2298700Y508000D03*
G54D13*
G01X2071361Y-465044D03*
G01X2122161Y-465044D03*
G01X2020561Y-465044D03*
G54D12*
G01X2540000Y-901700D03*
G01X2120900Y-901700D03*
G01X2451100Y-901700D03*
G01X2019300Y-901700D03*
G54D13*
G01X3596393Y24272D03*
G01X3545593Y24272D03*
G01X3500000Y24272D03*
G01X3594100Y673100D03*
G01X3543300Y673100D03*
G01X3500000Y673100D03*
G01X3594100Y393700D03*
G01X3543300Y393700D03*
G01X3492500Y393700D03*
G54D12*
G01X3964945Y-856435D03*
G01X4041145Y-856435D03*
G01X3888745Y-856435D03*
G01X4041145Y-919935D03*
G01X3623244Y2305865D03*
G01X3596645Y-538935D03*
G54D13*
G01X3596645Y210365D03*
G01X3545845Y210365D03*
G01X3500000Y210365D03*
G01X3594100Y-127000D03*
G01X3543300Y-127000D03*
G01X3500000Y-127000D03*
G01X3594100Y-177800D03*
G01X3543300Y-177800D03*
G01X3500000Y-177800D03*
G01X3596393Y75072D03*
G01X3545593Y75072D03*
G01X3500000Y75072D03*
G54D12*
G01X3253745Y-716735D03*
G01X3190245Y-716735D03*
G01X3416300Y1003300D03*
G01X3479800Y1003300D03*
G01X3556000Y1003300D03*
G01X3619500Y1003300D03*
G01X3352800Y1003300D03*
G01X3149600Y1003300D03*
G54D13*
G01X3594100Y495300D03*
G01X3543300Y495300D03*
G01X3492500Y495300D03*
G01X3594100Y444500D03*
G01X3543300Y444500D03*
G01X3492500Y444500D03*
G01X3594100Y-76200D03*
G01X3543300Y-76200D03*
G01X3500000Y-76200D03*
G01X3594100Y304800D03*
G01X3543300Y304800D03*
G01X3500000Y304800D03*
G01X3596645Y261165D03*
G01X3545845Y261165D03*
G01X3500000Y261165D03*
G01X3500000Y-304800D03*
G01X3596645Y-304916D03*
G01X3545845Y-304916D03*
G01X3500000Y-355600D03*
G01X3596645Y-355716D03*
G01X3545845Y-355716D03*
G01X3500000Y-254000D03*
G01X3596645Y-254116D03*
G01X3545845Y-254116D03*
G54D12*
G01X3520445Y1899465D03*
G54D13*
G01X3467100Y1816100D03*
G01X3467100Y1943100D03*
G01X3596645Y629465D03*
G01X3545845Y629465D03*
G01X3500000Y629465D03*
G01X3543300Y584200D03*
G01X3596645Y579723D03*
G01X3500000Y578665D03*
G01X3596393Y125872D03*
G01X3545593Y125872D03*
G01X3500000Y125872D03*
G01X3495045Y1353365D03*
G01X3444245Y1353365D03*
G01X3393445Y1353365D03*
G01X3495045Y1302565D03*
G01X3444245Y1302565D03*
G01X3393445Y1302565D03*
G01X3495045Y1251765D03*
G01X3444245Y1251765D03*
G01X3393445Y1251765D03*
G01X3695700Y1625600D03*
G01X3581400Y1536700D03*
G01X3467100Y1536700D03*
G01X3467100Y1473200D03*
G01X3568700Y1430000D03*
G01X3403600Y2209800D03*
G01X3329157Y2209800D03*
G01X3213100Y2209800D03*
G01X965200Y2260600D03*
G54D12*
G01X850900Y2247900D03*
G01X1244205Y-810278D03*
G01X939800Y342900D03*
G01X838200Y50800D03*
G01X1133134Y242344D03*
G01X898127Y232829D03*
G01X990600Y-266700D03*
G01X1244600Y711200D03*
G01X1133134Y162309D03*
G01X1133134Y97096D03*
G54D13*
G01X990554Y545492D03*
G01X1104900Y939800D03*
G54D12*
G01X889000Y927100D03*
G54D13*
G01X1104900Y876300D03*
G54D12*
G01X965200Y2082800D03*
G01X1030062Y2081698D03*
G01X1093398Y2081257D03*
G54D13*
G01X901700Y2413000D03*
G01X965200Y2336800D03*
G01X1092200Y1981200D03*
G01X990600Y1981200D03*
G01X1016000Y1854200D03*
G01X1143000Y1828800D03*
G01X1066800Y1816100D03*
G01X965200Y1816100D03*
G54D12*
G01X1041400Y2184400D03*
G01X1104900Y2184400D03*
G01X965200Y2184400D03*
G54D13*
G01X1231900Y2146300D03*
G54D12*
G01X114300Y-1447800D03*
G01X-114300Y-546100D03*
G01X-114300Y-1041400D03*
G01X4851400Y-685800D03*
G01X4787900Y-685800D03*
G01X4851400Y-749300D03*
G01X4787900Y-749300D03*
G54D13*
G01X4305300Y2476500D03*
G01X4241800Y2476500D03*
G01X4508500Y2476500D03*
G01X4394200Y2476500D03*
G01X5171445Y1848665D03*
G01X5120645Y1848665D03*
G54D12*
G01X5041900Y1816100D03*
G01X4978400Y1816100D03*
G54D13*
G01X5171445Y1810565D03*
G01X5120645Y1810565D03*
G54D12*
G01X5194300Y1727200D03*
G01X5130800Y1727200D03*
G01X5146045Y1607365D03*
G54D13*
G01X5397500Y762000D03*
G54D12*
G01X5105400Y2171700D03*
G54D13*
G01X5068107Y2120900D03*
G01X5461000Y762000D03*
G01X5168900Y2184400D03*
G54D12*
G01X4927600Y2184400D03*
G01X4777745Y2382065D03*
G01X4625345Y2382065D03*
G01X5194300Y-749300D03*
G01X5130800Y-749300D03*
G01X5194300Y-685800D03*
G01X5130800Y-685800D03*
G01X5323845Y-1199335D03*
G01X4927600Y-2463800D03*
G01X4648200Y-2413000D03*
G01X5067300Y-1663700D03*
G01X5067300Y-1790700D03*
G01X5067300Y-1727200D03*
G01X4508500Y-1968500D03*
G01X5323845Y-1072335D03*
G01X4851400Y-1968500D03*
G01X4787900Y-1968500D03*
G01X4724400Y-1968500D03*
G01X4851400Y-2032000D03*
G01X4787900Y-2032000D03*
G01X4724400Y-2032000D03*
G01X4851400Y-2095500D03*
G01X4787900Y-2095500D03*
G01X4724400Y-2095500D03*
G01X4851400Y-2159000D03*
G01X4787900Y-2159000D03*
G01X4724400Y-2159000D03*
G01X5158745Y-1300935D03*
G01X284943Y2131682D03*
G01X42494Y266700D03*
G54D13*
G01X571500Y952500D03*
G01X508000Y952500D03*
G54D12*
G01X762000Y939800D03*
G01X825500Y927100D03*
G54D13*
G01X685800Y927100D03*
G01X571500Y901700D03*
G01X508000Y901700D03*
G01X393700Y457200D03*
G01X444500Y1193800D03*
G54D12*
G01X622300Y2057400D03*
G01X114300Y2044700D03*
G54D13*
G01X406400Y1041400D03*
G54D12*
G01X114300Y1041400D03*
G54D13*
G01X609102Y558800D03*
G54D12*
G01X114300Y546100D03*
G01X584200Y-368300D03*
G01X317500Y1562100D03*
G54D13*
G01X626700Y762000D03*
G01X546100Y762000D03*
G54D12*
G01X45039Y2260600D03*
G01X698500Y2159000D03*
G01X698500Y-698500D03*
G01X45045Y-749300D03*
G01X114300Y-952500D03*
G01X42494Y749300D03*
G01X660400Y0D03*
G01X444500Y1549400D03*
G01X114300Y1549400D03*
G01X114300Y-457200D03*
G01X558800Y203200D03*
G01X660400Y101600D03*
G54D13*
G01X762000Y-190500D03*
G01X711200Y-190500D03*
G01X762000Y-241300D03*
G01X711200Y-241300D03*
G54D12*
G01X40799Y-254000D03*
G01X582744Y375465D03*
G54D13*
G01X762000Y-76200D03*
G01X711200Y-76200D03*
G01X762000Y-127000D03*
G01X711200Y-127000D03*
G54D12*
G01X749300Y2032000D03*
G01X469900Y1917700D03*
G54D13*
G01X635000Y889000D03*
G54D12*
G01X749300Y887311D03*
G01X406400Y825500D03*
G01X42494Y1739900D03*
G01X42500Y-2248800D03*
G01X444500Y1397000D03*
G54D13*
G01X800100Y2463800D03*
G01X431800Y1295400D03*
G01X342900Y1295400D03*
G54D12*
G01X42494Y1257300D03*
G01X114300Y50800D03*
G01X38100Y-1244600D03*
G01X38100Y-1739900D03*
G01X114300Y2540000D03*
G01X42494Y-2618547D03*
G01X-42500Y-2250612D03*
G01X-39949Y-1738521D03*
G01X-106583Y-2043242D03*
G01X-39955Y266632D03*
G01X-101600Y1460500D03*
G01X-42500Y1256854D03*
G01X-42494Y-253552D03*
G01X-42494Y-1244995D03*
G54D13*
G01X2019300Y2425700D03*
G01X1943100Y2425700D03*
G01X1905000Y2362200D03*
G54D12*
G01X2448404Y870765D03*
G54D13*
G01X2184400Y901700D03*
G01X2120900Y901700D03*
G54D12*
G01X5067300Y-1600200D03*
G01X5067300Y-1409700D03*
G01X5067300Y-1473200D03*
G01X5067300Y-1536700D03*
G01X4673600Y1104900D03*
G01X4457700Y2197100D03*
G01X4394200Y2197100D03*
G01X4305300Y2171700D03*
G01X4229100Y2146300D03*
G01X4305300Y2120900D03*
G01X4229100Y2095500D03*
G01X4381495Y-2311400D03*
G54D13*
G01X4368800Y1041400D03*
G01X4318000Y1041400D03*
G01X4762500Y990600D03*
G01X4813300Y990600D03*
G01X4711700Y990600D03*
G01X4368800Y990600D03*
G01X4318000Y990600D03*
G01X4762500Y939800D03*
G01X4813300Y939800D03*
G01X4711700Y939800D03*
G01X4368800Y939800D03*
G01X4318000Y939800D03*
G01X4873048Y1898530D03*
G54D12*
G01X4376318Y-2641600D03*
G01X-39955Y-751383D03*
G01X3964945Y-919935D03*
G01X3888745Y-919935D03*
G01X5722309Y271482D03*
G01X3958260Y533210D03*
G01X3962400Y469900D03*
G54D13*
G01X4114800Y127000D03*
G01X4512882Y-1D03*
G01X4127500Y431800D03*
G01X4512932Y508000D03*
G01X4513682Y254000D03*
G01X5270500Y711200D03*
G01X5029200Y787400D03*
G01X4737100Y241300D03*
G01X4686300Y381000D03*
G01X4851400Y241300D03*
G01X4572000Y-139700D03*
G01X4622800Y381000D03*
G01X5067300Y330200D03*
G01X5182006Y185192D03*
G01X5003800Y241300D03*
G01X4876800Y381000D03*
G01X4749800Y381000D03*
G54D12*
G01X4663445Y-414894D03*
G01X4901435Y-422839D03*
G01X5476245Y-427594D03*
G01X5067300Y-431800D03*
G01X5295900Y-546100D03*
G01X5308600Y-457200D03*
G01X4902200Y-304800D03*
G01X5016500Y-274320D03*
G01X4470400Y-546100D03*
G01X4521200Y-317500D03*
G54D13*
G01X4664537Y-88900D03*
G01X4533900Y-203200D03*
G01X4406900Y-203200D03*
G01X4483100Y-152400D03*
G01X5473700Y25400D03*
G01X4940300Y381000D03*
G01X4513682Y381000D03*
G01X4914900Y241300D03*
G01X4673600Y241300D03*
G54D12*
G01X3390211Y-703935D03*
G01X3453711Y-703935D03*
G01X3590682Y-703935D03*
G01X3654182Y-703935D03*
G01X3793773Y-704035D03*
G01X3857273Y-704035D03*
G01X3989004Y-704035D03*
G01X4052504Y-704035D03*
G01X4180745Y-703835D03*
G01X4244245Y-703835D03*
G01X4193506Y-538835D03*
G01X4257006Y-538835D03*
G01X3468277Y-538798D03*
G01X3531777Y-538798D03*
G01X3671484Y-537810D03*
G01X3734984Y-537810D03*
G01X4584700Y-2336800D03*
G01X4648200Y-2336800D03*
G01X4711700Y-2336800D03*
G01X4775200Y-2336800D03*
G01X4775200Y-2273300D03*
G01X4711700Y-2273300D03*
G01X4648200Y-2273300D03*
G01X4584700Y-2273300D03*
G01X4838700Y-2336800D03*
G01X4838700Y-2273300D03*
G54D13*
G01X4953000Y774700D03*
G01X4800600Y762000D03*
G01X4664537Y774700D03*
G01X4864100Y762000D03*
G01X4599538Y723900D03*
G01X4508500Y711200D03*
G01X4165600Y680720D03*
G01X5116698Y787400D03*
G54D12*
G01X5222245Y1607365D03*
G54D13*
G01X4866645Y1581965D03*
G01X5613400Y1295400D03*
G01X5562600Y1295400D03*
G01X5562600Y1248132D03*
G01X5131524Y1326613D03*
G54D12*
G01X5574500Y441500D03*
G01X5574500Y598500D03*
G54D13*
G01X4762500Y2026465D03*
G01X4864100Y1676400D03*
G01X4699000Y1625600D03*
G01X4749800Y1333500D03*
G01X4660900Y1397000D03*
G01X4610100Y1587500D03*
G01X4660900Y1333500D03*
G01X4610100Y1816100D03*
G01X4538332Y1524000D03*
G01X4539082Y1244600D03*
G54D12*
G01X1714500Y495300D03*
G01X4546600Y1041400D03*
G01X5005612Y996987D03*
G01X5930900Y1143000D03*
G01X3568700Y-1460500D03*
G01X3632200Y-1460500D03*
G01X3695700Y-1460500D03*
G01X3632200Y-1530787D03*
G01X3695700Y-1530787D03*
G01X3568700Y-1530787D03*
G01X3632200Y-1600200D03*
G01X3695700Y-1600200D03*
G01X3568700Y-1600200D03*
G01X1244600Y635000D03*
G54D13*
G01X254000Y-876300D03*
G01X330276Y-876300D03*
G01X406400Y-876300D03*
G01X482600Y-876300D03*
G01X254000Y-946799D03*
G01X330276Y-946799D03*
G01X406400Y-946799D03*
G01X482600Y-946799D03*
G01X254000Y-1016000D03*
G01X482600Y-1016000D03*
G01X330276Y-1016000D03*
G01X406400Y-1016000D03*
G01X254000Y-1092200D03*
G01X482600Y-1092200D03*
G01X330276Y-1092200D03*
G01X406400Y-1092200D03*
G01X254000Y-1168400D03*
G01X482600Y-1168400D03*
G01X330276Y-1168400D03*
G01X406400Y-1168400D03*
G01X254000Y-1231900D03*
G01X254000Y-1371600D03*
G01X254000Y-1302399D03*
G01X254000Y-1447800D03*
G01X254000Y-1524000D03*
G01X330276Y-1231900D03*
G01X406400Y-1231900D03*
G01X482600Y-1371600D03*
G01X330276Y-1371600D03*
G01X406400Y-1371600D03*
G01X482600Y-1302399D03*
G01X330276Y-1302399D03*
G01X406400Y-1302399D03*
G01X482600Y-1447800D03*
G01X330276Y-1447800D03*
G01X406400Y-1447800D03*
G01X482600Y-1524000D03*
G01X330276Y-1524000D03*
G01X406400Y-1524000D03*
G01X482600Y-1231900D03*
G01X5638800Y-1993900D03*
G01X5715000Y-2133600D03*
G01X5638800Y-2133600D03*
G01X5715000Y-2064399D03*
G01X5638800Y-2064399D03*
G01X5715000Y-2209800D03*
G01X5638800Y-2209800D03*
G01X5715000Y-2286000D03*
G01X5638800Y-2286000D03*
G01X5715000Y-1993900D03*
G01X5803900Y-1993900D03*
G01X5803900Y-2133600D03*
G01X5803900Y-2064399D03*
G01X5803900Y-2209800D03*
G01X5803900Y-2286000D03*
G01X5880176Y-1993900D03*
G01X5956300Y-1993900D03*
G01X6032500Y-2133600D03*
G01X5880176Y-2133600D03*
G01X5956300Y-2133600D03*
G01X6032500Y-2064399D03*
G01X5880176Y-2064399D03*
G01X5956300Y-2064399D03*
G01X6032500Y-2209800D03*
G01X5880176Y-2209800D03*
G01X5956300Y-2209800D03*
G01X6032500Y-2286000D03*
G01X5880176Y-2286000D03*
G01X5956300Y-2286000D03*
G01X6032500Y-1993900D03*
G01X5638800Y-2362200D03*
G01X5715000Y-2501900D03*
G01X5638800Y-2501900D03*
G01X5715000Y-2432699D03*
G01X5638800Y-2432699D03*
G01X5715000Y-2578100D03*
G01X5638800Y-2578100D03*
G01X5715000Y-2654300D03*
G01X5638800Y-2654300D03*
G01X5715000Y-2362200D03*
G01X5803900Y-2362200D03*
G01X5803900Y-2501900D03*
G01X5803900Y-2432699D03*
G01X5803900Y-2578100D03*
G01X5803900Y-2654300D03*
G01X5880176Y-2362200D03*
G01X5956300Y-2362200D03*
G01X6032500Y-2501900D03*
G01X5880176Y-2501900D03*
G01X5956300Y-2501900D03*
G01X6032500Y-2432699D03*
G01X5880176Y-2432699D03*
G01X5956300Y-2432699D03*
G01X6032500Y-2578100D03*
G01X5880176Y-2578100D03*
G01X5956300Y-2578100D03*
G01X6032500Y-2654300D03*
G01X5880176Y-2654300D03*
G01X5956300Y-2654300D03*
G01X6032500Y-2362200D03*
G01X5867400Y2679700D03*
G01X5867400Y2540000D03*
G01X5867400Y2609201D03*
G01X5867400Y2463800D03*
G01X5867400Y2387600D03*
G01X5943676Y2679700D03*
G01X6019800Y2679700D03*
G01X6096000Y2540000D03*
G01X5943676Y2540000D03*
G01X6019800Y2540000D03*
G01X6096000Y2609201D03*
G01X5943676Y2609201D03*
G01X6019800Y2609201D03*
G01X6096000Y2463800D03*
G01X5943676Y2463800D03*
G01X6019800Y2463800D03*
G01X6096000Y2387600D03*
G01X5943676Y2387600D03*
G01X6019800Y2387600D03*
G01X6096000Y2679700D03*
G01X5714924Y2463800D03*
G01X5714924Y2387600D03*
G01X5791200Y2463800D03*
G01X5791200Y2387600D03*
G01X5714924Y2679700D03*
G01X5714924Y2540000D03*
G01X5714924Y2609201D03*
G01X5791200Y2679700D03*
G01X5791200Y2540000D03*
G01X5791200Y2609201D03*
G01X6096000Y2311400D03*
G01X5867400Y2311400D03*
G01X5867400Y2235200D03*
G01X5943676Y2311400D03*
G01X6019800Y2311400D03*
G01X6096000Y2235200D03*
G01X5943676Y2235200D03*
G01X6019800Y2235200D03*
G01X5714924Y2311400D03*
G01X5714924Y2235200D03*
G01X5791200Y2311400D03*
G01X5791200Y2235200D03*
G01X6134100Y1358900D03*
G01X5981624Y1358900D03*
G01X6057900Y1358900D03*
G01X5981624Y1663700D03*
G01X5981624Y1732901D03*
G01X6057900Y1663700D03*
G01X6057900Y1732901D03*
G01X6134100Y1803400D03*
G01X6134100Y1663700D03*
G01X6134100Y1732901D03*
G01X5981624Y1803400D03*
G01X6057900Y1803400D03*
G01X6134100Y1587500D03*
G01X6134100Y1511300D03*
G01X5981624Y1587500D03*
G01X5981624Y1511300D03*
G01X6057900Y1587500D03*
G01X6057900Y1511300D03*
G01X6134100Y1435100D03*
G01X5981624Y1435100D03*
G01X6057900Y1435100D03*
G01X6134100Y444500D03*
G01X5981624Y444500D03*
G01X6057900Y444500D03*
G01X5981624Y749300D03*
G01X5981624Y818501D03*
G01X6057900Y749300D03*
G01X6057900Y818501D03*
G01X6134100Y889000D03*
G01X6134100Y749300D03*
G01X6134100Y818501D03*
G01X5981624Y889000D03*
G01X6057900Y889000D03*
G01X6134100Y673100D03*
G01X6134100Y596900D03*
G01X5981624Y673100D03*
G01X5981624Y596900D03*
G01X6057900Y673100D03*
G01X6057900Y596900D03*
G01X6134100Y520700D03*
G01X5981624Y520700D03*
G01X6057900Y520700D03*
G01X5981624Y-279400D03*
G01X5981624Y-210199D03*
G01X6057900Y-279400D03*
G01X6057900Y-210199D03*
G01X6134100Y-139700D03*
G01X6134100Y-279400D03*
G01X6134100Y-210199D03*
G01X5981624Y-139700D03*
G01X6057900Y-139700D03*
G01X6134100Y-355600D03*
G01X6134100Y-431800D03*
G01X5981624Y-355600D03*
G01X5981624Y-431800D03*
G01X6057900Y-355600D03*
G01X6057900Y-431800D03*
G01X6134100Y-508000D03*
G01X5981624Y-508000D03*
G01X6057900Y-508000D03*
G01X254000Y-1605577D03*
G01X254000Y-1745277D03*
G01X254000Y-1676077D03*
G01X254000Y-1821477D03*
G01X254000Y-1897677D03*
G01X330276Y-1605577D03*
G01X406400Y-1605577D03*
G01X482600Y-1745277D03*
G01X330276Y-1745277D03*
G01X406400Y-1745277D03*
G01X482600Y-1676077D03*
G01X330276Y-1676077D03*
G01X406400Y-1676077D03*
G01X482600Y-1821477D03*
G01X330276Y-1821477D03*
G01X406400Y-1821477D03*
G01X482600Y-1897677D03*
G01X330276Y-1897677D03*
G01X406400Y-1897677D03*
G01X482600Y-1605577D03*
G01X254000Y-1968500D03*
G01X254000Y-2044700D03*
G01X482600Y-1968500D03*
G01X330276Y-1968500D03*
G01X406400Y-1968500D03*
G01X482600Y-2044700D03*
G01X330276Y-2044700D03*
G01X406400Y-2044700D03*
G54D12*
G01X5118100Y-1943100D03*
G01X3214657Y1003300D03*
G01X3288855Y1003300D03*
G01X4232106Y1000067D03*
G01X5145585Y-1786598D03*
G01X5145585Y-1723098D03*
G01X5145585Y-1659598D03*
G01X5145585Y-1596098D03*
G01X5145585Y-1532598D03*
G01X5145585Y-1469098D03*
G01X5145585Y-1405598D03*
G54D14*
G01X2020257Y1378778D03*
G01X1820232Y1378778D03*
G01X1820232Y1478752D03*
G01X1820232Y1278753D03*
G01X1920232Y1278778D03*
G01X2020257Y1478778D03*
G01X2020257Y1278778D03*
G01X1920232Y1478778D03*
G01X1920232Y1378778D03*
G01X888987Y1471613D03*
G01X888987Y1271588D03*
G01X789013Y1271588D03*
G01X989013Y1271588D03*
G01X988987Y1371587D03*
G01X788988Y1471613D03*
G01X988987Y1471613D03*
G01X788988Y1371587D03*
G01X888987Y1371587D03*
G54D12*
G01X5549900Y2717800D03*
G01X5613400Y2717800D03*
G01X5613400Y2654300D03*
G01X5549900Y2654300D03*
G01X5486400Y2717800D03*
G01X5486400Y2654300D03*
G54D13*
G01X3949700Y2209800D03*
G04 Via End*

M02*
