G04 Layer: TopAssemblyLayer*
G04 EasyEDA Pro v2.1.49.1.de255bc8.674264, 2024-06-01 15:44:05*
G04 Gerber Generator version 0.3*
G04 Scale: 100 percent, Rotated: No, Reflected: No*
G04 Dimensions in millimeters*
G04 Leading zeros omitted, absolute positions, 3 integers and 5 decimals*
%FSLAX35Y35*%
%MOMM*%
%ADD10C,0.1*%
G75*


G04 PolygonModel Start*
G54D10*
G01X5540905Y-425817D02*
G01X5530905Y-425817D01*
G01X5610904Y-275817D02*
G01X5800904Y-275817D01*
G01X5610904Y-215817D02*
G01X5800904Y-215817D01*
G01X5540905Y369182D02*
G02X5530905Y379182I0J10000D01*
G01X5540905Y434182D02*
G01X5530905Y434182D01*
G01X5530905Y379182D02*
G01X5530905Y459182D01*
G01X5540905Y459182D02*
G01X5540905Y379182D01*
G01X5800904Y224182D02*
G01X5800904Y284182D01*
G01X5610904Y224182D02*
G01X5800904Y224182D01*
G01X5610904Y284182D02*
G01X5800904Y284182D01*
G01X5610904Y34183D02*
G01X5621132Y34183D01*
G01X5681962Y224182D02*
G01X5681962Y284182D01*
G01X5688780Y224182D02*
G01X5688780Y284182D01*
G01X5631360Y224182D02*
G01X5631360Y284182D01*
G01X5621132Y34183D02*
G01X5621132Y-25817D01*
G01X5610904Y459182D02*
G01X5610904Y-360817D01*
G01X160000Y2600997D02*
G01X160000Y-2600997D01*
G01X190000Y-2600997D02*
G01X190000Y2600997D01*
G01X1557562Y2800994D02*
G01X1557562Y2799994D01*
G01X1556022Y2800994D02*
G01X1556022Y2799994D01*
G01X1548324Y2800994D02*
G01X1548324Y2799994D01*
G01X1605767Y2800994D02*
G01X1545178Y2800994D01*
G01X1545178Y2800994D02*
G01X1545178Y2799994D01*
G01X1641590Y2800994D02*
G01X1641590Y2799994D01*
G01X1640291Y2800994D02*
G01X1640291Y2799994D01*
G01X1645177Y2800994D02*
G01X1636704Y2800994D01*
G01X1645177Y2800994D02*
G01X1645177Y2799994D01*
G01X1636704Y2800994D02*
G01X1636704Y2799994D01*
G01X5800904Y-275817D02*
G01X5800904Y-215817D01*
G01X8496Y-2769988D02*
G01X10000Y-2799994D01*
G01X8496Y-2769988D02*
G02X-160000Y-2599995I1504J169993D01*
G01X10000Y-2799994D02*
G02X-190000Y-2599995I0J200000D01*
G01X160000Y-2600997D02*
G02X8496Y-2769988I-170000J0D01*
G01X190000Y-2600997D02*
G02X10000Y-2799994I-200000J0D01*
G01X160000Y-2600997D02*
G01X190000Y-2600997D01*
G01X3723645Y2799994D02*
G01X2890430Y2799994D01*
G01X5520905Y184182D02*
G01X5520905Y-175817D01*
G01X5520905Y-175817D02*
G01X5520905Y184182D01*
G01X5340905Y184182D02*
G01X5340905Y-175817D01*
G01X5340905Y-175817D02*
G01X5340905Y184182D01*
G01X3720528Y2696595D02*
G01X3720428Y2696595D01*
G01X4678370Y2656004D02*
G01X4678270Y2656004D01*
G01X4678370Y2640611D02*
G01X4678270Y2640611D01*
G01X4678370Y2643547D02*
G01X4678270Y2643547D01*
G01X4678370Y2648930D02*
G01X4678270Y2648930D01*
G01X1600949Y2800994D02*
G01X1600949Y2799994D01*
G01X1577645Y2800994D02*
G01X1577645Y2799994D01*
G01X1581260Y2800994D02*
G01X1581260Y2799994D01*
G01X1587887Y2800994D02*
G01X1587887Y2799994D01*
G01X1602309Y2800994D02*
G01X1602309Y2799994D01*
G01X1595598Y2800994D02*
G01X1595598Y2799994D01*
G01X1619412Y2800994D02*
G01X1619412Y2799994D01*
G01X1629799Y2800994D02*
G01X1629799Y2799994D01*
G01X1636182Y2800994D02*
G01X1624913Y2800994D01*
G01X1628500Y2800994D02*
G01X1628500Y2799994D01*
G01X1624913Y2800994D02*
G01X1624913Y2799994D01*
G01X1633386Y2800994D02*
G01X1633386Y2799994D01*
G01X1622971Y2800994D02*
G01X1622971Y2799994D01*
G01X1634762Y2800994D02*
G01X1634762Y2799994D01*
G01X1605767Y2800994D02*
G01X1605767Y2799994D01*
G01X1624391Y2800994D02*
G01X1615267Y2800994D01*
G01X1616725Y2800994D02*
G01X1616725Y2799994D01*
G01X1607998Y2800994D02*
G01X1607998Y2799994D01*
G01X1609556Y2800994D02*
G01X1605767Y2800994D01*
G01X1614733Y2800994D02*
G01X1614733Y2799994D01*
G01X1614733Y2800994D02*
G01X1609883Y2800994D01*
G01X1609883Y2800994D02*
G01X1609883Y2799994D01*
G01X1568541Y2800994D02*
G01X1568541Y2799994D01*
G01X1560507Y2800994D02*
G01X1560507Y2799994D01*
G01X5282141Y-208357D02*
G01X5289660Y-215876D01*
G01X5250905Y-450816D02*
G01X5250905Y369182D01*
G01X5179848Y-25817D02*
G01X5179848Y34183D01*
G01X5250905Y224182D02*
G01X5240677Y224182D01*
G01X5270100Y-250813D02*
G01X5268270Y-250813D01*
G01X5297082Y-204019D02*
G01X5300071Y-201031D01*
G01X5303012Y-240249D02*
G01X5301466Y-240249D01*
G01X5301466Y-240249D02*
G01X5301466Y-234707D01*
G01X5279881Y-242402D02*
G01X5281732Y-247060D01*
G01X5289660Y-215876D02*
G01X5297179Y-208936D01*
G01X5303059Y-209514D02*
G01X5298721Y-218286D01*
G01X5240677Y-215817D02*
G01X5240677Y-275817D01*
G01X5250905Y-215817D02*
G01X5240677Y-215817D01*
G01X5298721Y-218286D02*
G01X5289563Y-221853D01*
G01X5230450Y-25817D02*
G01X5230450Y34183D01*
G01X5509905Y174667D02*
G01X5351905Y174667D01*
G01X5519905Y24667D02*
G02X5509905Y14667I-10000J0D01*
G01X5509905Y164667D02*
G01X5509905Y14667D01*
G01X5296407Y-172208D02*
G01X5287539Y-166424D01*
G01X5303638Y-181173D02*
G01X5296118Y-181173D01*
G01X5290045Y-181269D02*
G01X5296407Y-172208D01*
G01X5360905Y-425817D02*
G01X5350905Y-425817D01*
G01X5360905Y-450816D02*
G01X5360905Y-370817D01*
G01X5300378Y-258497D02*
G01X5298777Y-257929D01*
G01X5250905Y-25817D02*
G01X5060906Y-25817D01*
G01X5276742Y-164881D02*
G01X5287732Y-160351D01*
G01X5610904Y-450816D02*
G01X5530905Y-450816D01*
G01X5610904Y-422838D02*
G01X5540905Y-422838D01*
G01X5530905Y-450816D02*
G01X5530905Y-370817D01*
G01X5540905Y-370817D02*
G01X5540905Y-450816D01*
G01X5530905Y-450816D02*
G01X5360905Y-450816D01*
G01X5530905Y-421236D02*
G01X5360905Y-421236D01*
G01X5268066Y-182426D02*
G01X5272308Y-178184D01*
G01X5272115Y-175967D02*
G01X5276742Y-164881D01*
G01X5277899Y-176064D02*
G01X5279345Y-181173D01*
G01X5272308Y-178184D02*
G01X5272115Y-175967D01*
G01X5287539Y-166424D02*
G01X5277899Y-176064D01*
G01X5298239Y-164399D02*
G01X5302866Y-172111D01*
G01X5287732Y-160351D02*
G01X5298239Y-164399D01*
G01X5296118Y-181173D02*
G01X5303638Y-181173D01*
G01X5302866Y-172111D02*
G01X5309421Y-181269D01*
G01X5279345Y-181173D02*
G01X5270091Y-194090D01*
G01X5264307Y-193994D02*
G01X5268066Y-182426D01*
G01X5299782Y-190909D02*
G01X5298817Y-190909D01*
G01X5293323Y-188499D02*
G01X5290045Y-181269D01*
G01X5309421Y-181269D02*
G01X5299782Y-190909D01*
G01X5610904Y-450816D02*
G01X5610904Y-360817D01*
G01X5688780Y-275817D02*
G01X5688780Y-215817D01*
G01X5631360Y-275817D02*
G01X5631360Y-215817D01*
G01X5681962Y-275817D02*
G01X5681962Y-215817D01*
G01X5520905Y-175817D02*
G01X5340905Y-175817D01*
G01X-160000Y-2599995D02*
G01X-160000Y2599995D01*
G01X-190000Y2599995D02*
G01X-190000Y-2599995D01*
G01X751236Y-284849D02*
G01X751236Y-434849D01*
G01X686237Y-534849D02*
G02X661237Y-509849I0J25000D01*
G01X661237Y-209849D02*
G02X686237Y-184849I25000J0D01*
G01X766236Y-449849D02*
G01X766236Y-269849D01*
G01X766236Y-269849D02*
G01X751236Y-284849D01*
G01X716237Y-269849D02*
G01X716237Y-449849D01*
G01X656129Y520492D02*
G02X681129Y545492I25000J0D01*
G01X681129Y195493D02*
G02X656129Y220493I0J25000D01*
G01X-190000Y-2599995D02*
G01X-160000Y-2599995D01*
G01X-190000Y2599995D02*
G01X-160000Y2599995D01*
G01X836236Y-284849D02*
G01X836236Y-434849D01*
G01X766236Y-449849D02*
G01X751236Y-434849D01*
G01X1121236Y-419849D02*
G01X836236Y-419849D01*
G01X1106236Y-434849D02*
G01X836236Y-434849D01*
G01X1256235Y-534849D02*
G01X686237Y-534849D01*
G01X1123236Y-436849D02*
G01X819236Y-436849D01*
G01X1116128Y310493D02*
G01X831129Y310493D01*
G01X1118128Y293493D02*
G01X814129Y293493D01*
G01X1101128Y295493D02*
G01X831129Y295493D01*
G01X831129Y430493D02*
G01X1116128Y430493D01*
G01X1101128Y445493D02*
G01X831129Y445493D01*
G01X1118128Y447493D02*
G01X814129Y447493D01*
G01X1106236Y-284849D02*
G01X836236Y-284849D01*
G01X819236Y-436849D02*
G01X819236Y-282849D01*
G01X1123236Y-282849D02*
G01X819236Y-282849D01*
G01X1251128Y545492D02*
G01X681129Y545492D01*
G01X1251128Y195493D02*
G01X681129Y195493D01*
G01X1121236Y-299849D02*
G01X836236Y-299849D01*
G01X1101128Y445493D02*
G02X1116128Y430493I0J-15000D01*
G01X1101128Y445493D02*
G01X1101128Y295493D01*
G01X1118128Y293493D02*
G01X1118128Y447493D01*
G01X1171128Y460493D02*
G01X1186128Y445493D01*
G01X1171128Y280493D02*
G01X1171128Y460493D01*
G01X1171128Y460493D02*
G01X1221128Y460493D01*
G01X1186128Y445493D02*
G01X1186128Y295493D01*
G01X1206128Y445493D02*
G01X1186128Y445493D01*
G01X1206128Y295493D02*
G01X1206128Y445493D01*
G01X1206128Y445493D02*
G01X1221128Y460493D01*
G01X1256235Y-184849D02*
G01X686237Y-184849D01*
G01X10000Y2799994D02*
G02X190000Y2600997I-20000J-198997D01*
G01X160000Y2600997D02*
G01X190000Y2600997D01*
G01X8496Y2769988D02*
G02X160000Y2600997I-18496J-168991D01*
G01X-190000Y2599995D02*
G02X10000Y2799994I200000J0D01*
G01X-160000Y2599995D02*
G02X8496Y2769988I169999J0D01*
G01X10000Y2799994D02*
G01X8496Y2769988D01*
G01X1514991Y2798994D02*
G01X1514991Y2799994D01*
G01X2014990Y2799994D02*
G01X2014990Y2798994D01*
G01X716237Y-449849D02*
G01X766236Y-449849D01*
G01X836236Y-419849D02*
G01X821236Y-419849D01*
G01X731237Y-284849D02*
G01X751236Y-284849D01*
G01X731237Y-434849D02*
G01X731237Y-284849D01*
G01X836236Y-299849D02*
G01X821236Y-299849D01*
G01X821236Y-299849D02*
G01X821236Y-419849D01*
G01X289999Y-299999D02*
G01X389999Y-299999D01*
G01X1121236Y-299849D02*
G01X1121236Y-419849D01*
G01X1186128Y295493D02*
G01X1206128Y295493D01*
G01X1322312Y420493D02*
G01X1322312Y320493D01*
G01X1345406Y420493D02*
G01X1345406Y320493D01*
G01X1322312Y420493D02*
G01X1276846Y420493D01*
G01X1322312Y320493D02*
G01X1276846Y320493D01*
G01X5540905Y369182D02*
G01X5610904Y369182D01*
G01X5540905Y431203D02*
G01X5610904Y431203D01*
G01X5540905Y379182D02*
G01X5610904Y379182D01*
G01X5610904Y459182D02*
G01X5530905Y459182D01*
G01X5360905Y379182D02*
G02X5350905Y369182I-10000J0D01*
G01X5360905Y434182D02*
G01X5350905Y434182D01*
G01X5350905Y379182D02*
G01X5350905Y459182D01*
G01X5250905Y459182D02*
G01X5250905Y369182D01*
G01X5360905Y429601D02*
G01X5530905Y429601D01*
G01X5360905Y459182D02*
G01X5530905Y459182D01*
G01X5509905Y174667D02*
G02X5519905Y164667I0J-10000D01*
G01X5509905Y174667D02*
G01X5509905Y164667D01*
G01X5341905Y164667D02*
G01X5519905Y164667D01*
G01X5360905Y379182D02*
G01X5360905Y459182D01*
G01X5340905Y184182D02*
G01X5520905Y184182D01*
G01X5360905Y459182D02*
G01X5250905Y459182D01*
G01X5250905Y379182D02*
G01X5350905Y379182D01*
G01X5250905Y369182D02*
G01X5350905Y369182D01*
G01X5250905Y431203D02*
G01X5350905Y431203D01*
G01X5060906Y-25817D02*
G01X5060906Y34183D01*
G01X5250905Y34183D02*
G01X5060906Y34183D01*
G01X5250905Y284182D02*
G01X5240677Y284182D01*
G01X5240677Y284182D02*
G01X5240677Y224182D01*
G01X5351905Y14667D02*
G01X5351905Y164667D01*
G01X5351905Y174667D02*
G01X5351905Y164667D01*
G01X5341905Y164667D02*
G02X5351905Y174667I10000J0D01*
G01X5341905Y24667D02*
G01X5519905Y24667D01*
G01X5351905Y14667D02*
G02X5341905Y24667I0J10000D01*
G01X5173030Y-25817D02*
G01X5173030Y34183D01*
G01X5610904Y-25817D02*
G01X5621132Y-25817D01*
G01X5351905Y14667D02*
G01X5509905Y14667D01*
G01X4678370Y2625719D02*
G01X4678270Y2625719D01*
G01X4678370Y2609973D02*
G01X4678270Y2609973D01*
G01X4678370Y2615395D02*
G01X4678270Y2615395D01*
G01X4678370Y2617360D02*
G01X4678270Y2617360D01*
G01X4678370Y2652991D02*
G01X4678270Y2652991D01*
G01X4678370Y2684935D02*
G01X4678270Y2684935D01*
G01X4678370Y2677279D02*
G01X4678270Y2677279D01*
G01X4678370Y2677428D02*
G01X4678370Y2683098D01*
G01X4678370Y2683098D02*
G01X4678270Y2683098D01*
G01X4678370Y2622782D02*
G01X4678270Y2622782D01*
G01X4678370Y2725847D02*
G01X4678270Y2725847D01*
G01X4678370Y2737993D02*
G01X4678270Y2737993D01*
G01X4678370Y2712081D02*
G01X4678270Y2712081D01*
G01X4678370Y2742447D02*
G01X4678270Y2742447D01*
G01X4678370Y2706615D02*
G01X4678270Y2706615D01*
G01X4678370Y2744775D02*
G01X4678270Y2744775D01*
G01X4678370Y2756415D02*
G01X4678270Y2756415D01*
G01X4678370Y2761172D02*
G01X4678270Y2761172D01*
G01X4678370Y2696595D02*
G01X4678270Y2696595D01*
G01X4678370Y2663337D02*
G01X4678270Y2663337D01*
G01X4678370Y2666186D02*
G01X4678270Y2666186D01*
G01X4678370Y2669560D02*
G01X4678270Y2669560D01*
G01X4678370Y2674789D02*
G01X4678270Y2674789D01*
G01X3848272Y2429995D02*
G01X4678270Y2429995D01*
G01X4103271Y2429995D02*
G01X4103271Y2304995D01*
G01X4123271Y2429995D02*
G01X4123271Y2304995D01*
G01X4023271Y2429995D02*
G01X4023271Y2304995D01*
G01X4403271Y2429995D02*
G01X4403271Y2304995D01*
G01X4423271Y2429995D02*
G01X4423271Y2304995D01*
G01X4303271Y2429995D02*
G01X4303271Y2304995D01*
G01X4323271Y2429995D02*
G01X4323271Y2304995D01*
G01X4325771Y2429995D02*
G01X4325771Y2397316D01*
G01X4300771Y2397316D02*
G01X4300771Y2429995D01*
G01X4678370Y2627801D02*
G01X4678270Y2627801D01*
G01X4678370Y2633223D02*
G01X4678270Y2633223D01*
G01X4678370Y2635188D02*
G01X4678270Y2635188D01*
G01X3145429Y2429995D02*
G01X3145429Y2411043D01*
G01X3165429Y2429995D02*
G01X3165429Y2411043D01*
G01X3165429Y2362955D02*
G01X3145429Y2362955D01*
G01X3065429Y2304995D02*
G01X3045429Y2304995D01*
G01X3020029Y2307695D02*
G01X3040029Y2307695D01*
G01X3065429Y2294995D02*
G01X3065429Y2304995D01*
G01X3045429Y2304995D02*
G01X3045429Y2294995D01*
G01X4003271Y2429995D02*
G01X4003271Y2304995D01*
G01X3065429Y2411043D02*
G01X3065429Y2304995D01*
G01X3045429Y2411043D02*
G01X3045429Y2304995D01*
G01X2919430Y2384231D02*
G01X2944429Y2384231D01*
G01X2890430Y2429995D02*
G01X3720428Y2429995D01*
G01X3902272Y2429995D02*
G01X3902272Y2368995D01*
G01X1281235Y-509849D02*
G02X1256235Y-534849I-25000J0D01*
G01X1281235Y-209849D02*
G01X1281235Y-509849D01*
G01X2024990Y2600995D02*
G01X1514991Y2599995D01*
G01X2014990Y2600995D02*
G01X2014990Y2599995D01*
G01X5281732Y-247060D02*
G01X5280941Y-250813D01*
G01X5250905Y-275817D02*
G01X5240677Y-275817D01*
G01X5269319Y-207104D02*
G01X5264333Y-194289D01*
G01X5264307Y-193994D01*
G01X5267945Y-253527D02*
G01X5281503Y-253527D01*
G01X5269296Y-247618D02*
G01X5270100Y-250813D01*
G01X5270800Y-243923D02*
G01X5269296Y-247618D01*
G01X5610904Y-360817D02*
G01X5540905Y-360817D01*
G01X5610904Y-370817D02*
G01X5540905Y-370817D01*
G01X5530905Y-370817D02*
G02X5540905Y-360817I10000J0D01*
G01X5350905Y-370817D02*
G01X5250905Y-370817D01*
G01X5350905Y-360817D02*
G01X5250905Y-360817D01*
G01X5350905Y-360817D02*
G02X5360905Y-370817I0J-10000D01*
G01X5303012Y-302416D02*
G01X5303012Y-304350D01*
G01X5292136Y-298444D02*
G01X5291187Y-298233D01*
G01X5299304Y-295388D02*
G01X5299304Y-301033D01*
G01X5299304Y-301033D02*
G01X5303012Y-302416D01*
G01X5297772Y-300493D02*
G01X5292136Y-298444D01*
G01X5291187Y-298233D02*
G01X5291187Y-298191D01*
G01X5291187Y-298191D02*
G01X5292136Y-297970D01*
G01X5289454Y-297315D02*
G01X5303012Y-292151D01*
G01X5296108Y-289558D02*
G01X5292289Y-288071D01*
G01X5291249Y-289353D02*
G01X5289454Y-284228D01*
G01X5303012Y-294085D02*
G01X5299304Y-295388D01*
G01X5301113Y-289353D02*
G01X5296060Y-291398D01*
G01X5300052Y-288109D02*
G01X5296108Y-289558D01*
G01X5250905Y-450816D02*
G01X5360905Y-450816D01*
G01X5350905Y-422838D02*
G01X5250905Y-422838D01*
G01X5350905Y-450816D02*
G01X5350905Y-370817D01*
G01X821236Y-299849D02*
G02X836236Y-284849I15000J0D01*
G01X836236Y-434849D02*
G02X821236Y-419849I0J15000D01*
G01X751236Y-434849D02*
G01X731237Y-434849D01*
G01X731237Y-434849D02*
G01X716237Y-449849D01*
G01X1171128Y280493D02*
G01X1186128Y295493D01*
G01X1116128Y310493D02*
G02X1101128Y295493I-15000J0D01*
G01X489999Y-200000D02*
G01X489999Y200000D01*
G01X506130Y420493D02*
G01X506130Y320493D01*
G01X609945Y420493D02*
G01X609945Y320493D01*
G01X655411Y320493D02*
G01X506130Y320493D01*
G01X586851Y420493D02*
G01X586851Y320493D01*
G01X563035Y420493D02*
G01X563035Y320493D01*
G01X656129Y520492D02*
G01X656129Y220493D01*
G01X656129Y520492D02*
G01X656129Y220493D01*
G01X655411Y420493D02*
G01X506130Y420493D01*
G01X660519Y-309849D02*
G01X511237Y-309849D01*
G01X591958Y-309849D02*
G01X591958Y-409849D01*
G01X568143Y-309849D02*
G01X568143Y-409849D01*
G01X511237Y-309849D02*
G01X511237Y-409849D01*
G01X661237Y-209849D02*
G01X661237Y-509849D01*
G01X661237Y-209849D02*
G01X661237Y-509849D01*
G01X615052Y-309849D02*
G01X615052Y-409849D01*
G01X660519Y-409849D02*
G01X511237Y-409849D01*
G01X489999Y-200000D02*
G02X389999Y-299999I-100000J0D01*
G01X389999Y299999D02*
G02X489999Y200000I0J-100000D01*
G01X3720528Y2617360D02*
G01X3720428Y2617360D01*
G01X3720528Y2609973D02*
G01X3720428Y2609973D01*
G01X4676145Y2799994D02*
G01X3848272Y2799994D01*
G01X2919430Y2429995D02*
G01X2919430Y2368995D01*
G01X3720528Y2725847D02*
G01X3720428Y2725847D01*
G01X3720528Y2737993D02*
G01X3720428Y2737993D01*
G01X3720528Y2712081D02*
G01X3720428Y2712081D01*
G01X3720528Y2742447D02*
G01X3720428Y2742447D01*
G01X3720528Y2706615D02*
G01X3720428Y2706615D01*
G01X3720528Y2744775D02*
G01X3720428Y2744775D01*
G01X3720528Y2756415D02*
G01X3720428Y2756415D01*
G01X3720528Y2761172D02*
G01X3720428Y2761172D01*
G01X3720528Y2615395D02*
G01X3720428Y2615395D01*
G01X3848272Y2799994D02*
G01X3848272Y2429995D01*
G01X3720428Y2429995D02*
G01X3720428Y2799994D01*
G01X3720428Y2429995D02*
G01X3720428Y2799994D01*
G01X2890430Y2799994D02*
G01X2890430Y2429995D01*
G01X2944429Y2388843D02*
G01X2919430Y2388843D01*
G01X2944429Y2374383D02*
G01X2919430Y2374383D01*
G01X2919430Y2368995D02*
G01X2944429Y2368995D01*
G01X2944429Y2429995D02*
G01X2944429Y2368995D01*
G01X3042929Y2397316D02*
G01X3032929Y2379995D01*
G01X3045429Y2392995D02*
G01X3065429Y2392995D01*
G01X3045429Y2388071D02*
G01X3065429Y2388071D01*
G01X3077929Y2379995D02*
G01X3067929Y2397316D01*
G01X3720428Y2429995D02*
G01X3720428Y2799994D01*
G01X3720428Y2429995D02*
G01X3720428Y2799994D01*
G01X3720428Y2429995D02*
G01X3720428Y2799994D01*
G01X3720428Y2799994D02*
G01X3720428Y2429995D01*
G01X4649270Y2429995D02*
G01X4649270Y2368995D01*
G01X4624270Y2429995D02*
G01X4624270Y2368995D01*
G01X4523270Y2411043D02*
G01X4523270Y2304995D01*
G01X4503270Y2411043D02*
G01X4503270Y2304995D01*
G01X4503270Y2355683D02*
G01X4523270Y2355683D01*
G01X4503270Y2294995D02*
G01X4523270Y2294995D01*
G01X4523270Y2304995D02*
G01X4503270Y2304995D01*
G01X4523270Y2294995D02*
G01X4523270Y2304995D01*
G01X4503270Y2304995D02*
G01X4503270Y2294995D01*
G01X4423271Y2294995D02*
G01X4423271Y2304995D01*
G01X4403271Y2294995D02*
G01X4423271Y2294995D01*
G01X4525770Y2429995D02*
G01X4525770Y2397316D01*
G01X4523270Y2429995D02*
G01X4523270Y2411043D01*
G01X4503270Y2429995D02*
G01X4503270Y2411043D01*
G01X4400771Y2397316D02*
G01X4400771Y2429995D01*
G01X4500771Y2397316D02*
G01X4500771Y2429995D01*
G01X4425771Y2429995D02*
G01X4425771Y2397316D01*
G01X4003271Y2411043D02*
G01X4023271Y2411043D01*
G01X4503270Y2414947D02*
G01X4523270Y2414947D01*
G01X4503270Y2411043D02*
G01X4523270Y2411043D01*
G01X4403271Y2411043D02*
G01X4423271Y2411043D01*
G01X4403271Y2414947D02*
G01X4423271Y2414947D01*
G01X4003271Y2414947D02*
G01X4023271Y2414947D01*
G01X4103271Y2414947D02*
G01X4123271Y2414947D01*
G01X4103271Y2411043D02*
G01X4123271Y2411043D01*
G01X4624270Y2379995D02*
G01X4535770Y2379995D01*
G01X4624270Y2388843D02*
G01X4649270Y2388843D01*
G01X4649270Y2384231D02*
G01X4624270Y2384231D01*
G01X4624270Y2374383D02*
G01X4649270Y2374383D01*
G01X4649270Y2368995D02*
G01X4624270Y2368995D01*
G01X3990772Y2379995D02*
G01X3902272Y2379995D01*
G01X3902272Y2388843D02*
G01X3877272Y2388843D01*
G01X3877272Y2384231D02*
G01X3902272Y2384231D01*
G01X4000772Y2397316D02*
G01X3990772Y2379995D01*
G01X4103271Y2392995D02*
G01X4123271Y2392995D01*
G01X4103271Y2388071D02*
G01X4123271Y2388071D01*
G01X4535770Y2379995D02*
G01X4525770Y2397316D01*
G01X4400771Y2397316D02*
G01X4390771Y2379995D01*
G01X4403271Y2392995D02*
G01X4423271Y2392995D01*
G01X4403271Y2388071D02*
G01X4423271Y2388071D01*
G01X4490771Y2379995D02*
G01X4435771Y2379995D01*
G01X4500771Y2397316D02*
G01X4490771Y2379995D01*
G01X4435771Y2379995D02*
G01X4425771Y2397316D01*
G01X4300771Y2397316D02*
G01X4290771Y2379995D01*
G01X4335771Y2379995D02*
G01X4325771Y2397316D01*
G01X3902272Y2374383D02*
G01X3877272Y2374383D01*
G01X3877272Y2368995D02*
G01X3902272Y2368995D01*
G01X4678270Y2429995D02*
G01X4678270Y2799994D01*
G01X4678270Y2429995D02*
G01X4678270Y2799994D01*
G01X4678270Y2429995D02*
G01X4678270Y2799994D01*
G01X4678270Y2429995D02*
G01X4678270Y2799994D01*
G01X4678270Y2799994D02*
G01X4678270Y2429995D01*
G01X3545428Y2304995D02*
G01X3545428Y2294995D01*
G01X3520028Y2307695D02*
G01X3540028Y2307695D01*
G01X3565428Y2294995D02*
G01X3565428Y2304995D01*
G01X3666428Y2379995D02*
G01X3577928Y2379995D01*
G01X3877272Y2429995D02*
G01X3877272Y2368995D01*
G01X3242929Y2397316D02*
G01X3242929Y2429995D01*
G01X3242929Y2397316D02*
G01X3232929Y2379995D01*
G01X3232929Y2379995D02*
G01X3177929Y2379995D01*
G01X3265429Y2429995D02*
G01X3265429Y2304995D01*
G01X3245429Y2429995D02*
G01X3245429Y2304995D01*
G01X3345429Y2429995D02*
G01X3345429Y2304995D01*
G01X3265429Y2304995D02*
G01X3245429Y2304995D01*
G01X3245429Y2355683D02*
G01X3265429Y2355683D01*
G01X3342929Y2397316D02*
G01X3342929Y2429995D01*
G01X3267929Y2429995D02*
G01X3267929Y2397316D01*
G01X3345429Y2414947D02*
G01X3365429Y2414947D01*
G01X3345429Y2411043D02*
G01X3365429Y2411043D01*
G01X3365429Y2362955D02*
G01X3345429Y2362955D01*
G01X3445428Y2429995D02*
G01X3445428Y2304995D01*
G01X3465428Y2429995D02*
G01X3465428Y2304995D01*
G01X3365429Y2429995D02*
G01X3365429Y2304995D01*
G01X3365429Y2304995D02*
G01X3345429Y2304995D01*
G01X3320029Y2307695D02*
G01X3340029Y2307695D01*
G01X3345429Y2304995D02*
G01X3345429Y2294995D01*
G01X3365429Y2294995D02*
G01X3365429Y2304995D01*
G01X3245429Y2414947D02*
G01X3265429Y2414947D01*
G01X3245429Y2411043D02*
G01X3265429Y2411043D01*
G01X3565428Y2411043D02*
G01X3565428Y2304995D01*
G01X3565428Y2304995D02*
G01X3545428Y2304995D01*
G01X3345429Y2355683D02*
G01X3365429Y2355683D01*
G01X3445428Y2392995D02*
G01X3465428Y2392995D01*
G01X3445428Y2388071D02*
G01X3465428Y2388071D01*
G01X3465428Y2362955D02*
G01X3445428Y2362955D01*
G01X3445428Y2355683D02*
G01X3465428Y2355683D01*
G01X3445428Y2414947D02*
G01X3465428Y2414947D01*
G01X3445428Y2411043D02*
G01X3465428Y2411043D01*
G01X3442928Y2397316D02*
G01X3432928Y2379995D01*
G01X3377928Y2379995D02*
G01X3367928Y2397316D01*
G01X3432928Y2379995D02*
G01X3377928Y2379995D01*
G01X3465428Y2294995D02*
G01X3465428Y2304995D01*
G01X4123271Y2362955D02*
G01X4103271Y2362955D01*
G01X4103271Y2355683D02*
G01X4123271Y2355683D01*
G01X4023271Y2362955D02*
G01X4003271Y2362955D01*
G01X4003271Y2355683D02*
G01X4023271Y2355683D01*
G01X4023271Y2304995D02*
G01X4003271Y2304995D01*
G01X4023271Y2294995D02*
G01X4023271Y2304995D01*
G01X4123271Y2304995D02*
G01X4103271Y2304995D01*
G01X4103271Y2294995D02*
G01X4123271Y2294995D01*
G01X4123271Y2294995D02*
G01X4123271Y2304995D01*
G01X4103271Y2304995D02*
G01X4103271Y2294995D01*
G01X4003271Y2294995D02*
G01X4023271Y2294995D01*
G01X4003271Y2304995D02*
G01X4003271Y2294995D01*
G01X3145429Y2355683D02*
G01X3165429Y2355683D01*
G01X3145429Y2392995D02*
G01X3165429Y2392995D01*
G01X3145429Y2388071D02*
G01X3165429Y2388071D01*
G01X3165429Y2304995D02*
G01X3145429Y2304995D01*
G01X3120029Y2307695D02*
G01X3140029Y2307695D01*
G01X3145429Y2304995D02*
G01X3145429Y2294995D01*
G01X3145429Y2411043D02*
G01X3145429Y2304995D01*
G01X3165429Y2411043D02*
G01X3165429Y2304995D01*
G01X3177929Y2379995D02*
G01X3167929Y2397316D01*
G01X3145429Y2414947D02*
G01X3165429Y2414947D01*
G01X3145429Y2411043D02*
G01X3165429Y2411043D01*
G01X3165429Y2294995D02*
G01X3165429Y2304995D01*
G01X3220029Y2307695D02*
G01X3240029Y2307695D01*
G01X3265429Y2294995D02*
G01X3265429Y2304995D01*
G01X3245429Y2304995D02*
G01X3245429Y2294995D01*
G01X4000772Y2397316D02*
G01X4000772Y2429995D01*
G01X4035771Y2379995D02*
G01X4025771Y2397316D01*
G01X4090771Y2379995D02*
G01X4035771Y2379995D01*
G01X4100771Y2397316D02*
G01X4090771Y2379995D01*
G01X4003271Y2388071D02*
G01X4023271Y2388071D01*
G01X4003271Y2392995D02*
G01X4023271Y2392995D01*
G01X4235771Y2379995D02*
G01X4225771Y2397316D01*
G01X4290771Y2379995D02*
G01X4235771Y2379995D01*
G01X4135771Y2379995D02*
G01X4125771Y2397316D01*
G01X4190771Y2379995D02*
G01X4135771Y2379995D01*
G01X4200771Y2397316D02*
G01X4190771Y2379995D01*
G01X4025771Y2429995D02*
G01X4025771Y2397316D01*
G01X4100771Y2397316D02*
G01X4100771Y2429995D01*
G01X4225771Y2429995D02*
G01X4225771Y2397316D01*
G01X4223271Y2429995D02*
G01X4223271Y2411043D01*
G01X4203271Y2429995D02*
G01X4203271Y2411043D01*
G01X4200771Y2397316D02*
G01X4200771Y2429995D01*
G01X4125771Y2429995D02*
G01X4125771Y2397316D01*
G01X3542928Y2397316D02*
G01X3532928Y2379995D01*
G01X3477928Y2379995D02*
G01X3467928Y2397316D01*
G01X3577928Y2379995D02*
G01X3567928Y2397316D01*
G01X3167929Y2429995D02*
G01X3167929Y2397316D01*
G01X3467928Y2429995D02*
G01X3467928Y2397316D01*
G01X3442928Y2397316D02*
G01X3442928Y2429995D01*
G01X3367928Y2429995D02*
G01X3367928Y2397316D01*
G01X3142929Y2397316D02*
G01X3132929Y2379995D01*
G01X3142929Y2397316D02*
G01X3142929Y2429995D01*
G01X3067929Y2429995D02*
G01X3067929Y2397316D01*
G01X3042929Y2397316D02*
G01X3042929Y2429995D01*
G01X3045429Y2429995D02*
G01X3045429Y2411043D01*
G01X3045429Y2411043D02*
G01X3065429Y2411043D01*
G01X3045429Y2414947D02*
G01X3065429Y2414947D01*
G01X3065429Y2429995D02*
G01X3065429Y2411043D01*
G01X3565428Y2362955D02*
G01X3545428Y2362955D01*
G01X3545428Y2355683D02*
G01X3565428Y2355683D01*
G01X3032929Y2379995D02*
G01X2944429Y2379995D01*
G01X3132929Y2379995D02*
G01X3077929Y2379995D01*
G01X3666428Y2388843D02*
G01X3691428Y2388843D01*
G01X3691428Y2384231D02*
G01X3666428Y2384231D01*
G01X3532928Y2379995D02*
G01X3477928Y2379995D01*
G01X3265429Y2362955D02*
G01X3245429Y2362955D01*
G01X3065429Y2362955D02*
G01X3045429Y2362955D01*
G01X3045429Y2355683D02*
G01X3065429Y2355683D01*
G01X971236Y-299849D02*
G01X971236Y-419849D01*
G01X1106236Y-284849D02*
G02X1121236Y-299849I0J-15000D01*
G01X1106236Y-434849D02*
G01X1106236Y-299849D01*
G01X1106236Y-284849D02*
G01X1106236Y-299849D01*
G01X971236Y-299849D02*
G01X971236Y-184849D01*
G01X966129Y195493D02*
G01X966129Y310493D01*
G01X1121236Y-419849D02*
G02X1106236Y-434849I-15000J0D01*
G01X971236Y-534849D02*
G01X971236Y-419849D01*
G01X1116128Y430493D02*
G01X1116128Y310493D01*
G01X966129Y430493D02*
G01X966129Y310493D01*
G01X966129Y430493D02*
G01X966129Y545492D01*
G01X1123236Y-436849D02*
G01X1123236Y-282849D01*
G01X1804087Y2693842D02*
G01X1794503Y2704494D01*
G01X1794503Y2695357D02*
G01X1794636Y2695357D01*
G01X1788405Y2688964D02*
G01X1794503Y2688964D01*
G01X1794503Y2688964D02*
G01X1794503Y2695357D01*
G01X1794636Y2695357D02*
G01X1806317Y2688355D01*
G01X1806317Y2688355D02*
G01X1818161Y2701072D01*
G01X1818283Y2702846D01*
G01X1812186Y2704561D02*
G01X1804087Y2693842D01*
G01X1514991Y2599995D02*
G01X1514991Y2600995D01*
G01X1554991Y2600995D02*
G01X1504991Y2600995D01*
G01X1504991Y2798994D02*
G01X1554991Y2798994D01*
G01X1504991Y2600995D02*
G01X1504991Y2798994D01*
G01X1554991Y2798994D02*
G01X1554991Y2600995D01*
G01X1840958Y2693842D02*
G01X1834137Y2698225D01*
G01X1776820Y2724330D02*
G01X1770722Y2724330D01*
G01X1760356Y2701702D02*
G01X1760356Y2724330D01*
G01X1770722Y2724330D02*
G01X1770722Y2688964D01*
G01X1776820Y2688964D02*
G01X1776820Y2724330D01*
G01X1794503Y2724330D02*
G01X1788405Y2724330D01*
G01X1731698Y2714764D02*
G01X1743607Y2703370D01*
G01X1837224Y2724940D02*
G01X1827429Y2723110D01*
G01X1836938Y2708591D02*
G01X1827429Y2698501D01*
G01X1719131Y2709200D02*
G01X1728039Y2724330D01*
G01X1720722Y2724330D02*
G01X1712605Y2710258D01*
G01X1738405Y2714059D02*
G01X1744903Y2719452D01*
G01X1754259Y2724330D02*
G01X1754259Y2718232D01*
G01X1754259Y2718232D02*
G01X1754097Y2718232D01*
G01X1728039Y2724330D02*
G01X1720722Y2724330D01*
G01X1760356Y2724330D02*
G01X1754259Y2724330D01*
G01X1746018Y2707800D02*
G01X1738405Y2714059D01*
G01X1744903Y2719452D02*
G01X1754259Y2709886D01*
G01X1818283Y2724330D02*
G01X1812186Y2724330D01*
G01X1827429Y2723110D02*
G01X1827429Y2716403D01*
G01X1827429Y2716403D02*
G01X1837719Y2719452D01*
G01X1572582Y2699995D02*
G02X1641096Y2699995I34257J0D01*
G01X1845112Y2714850D02*
G01X1836938Y2708591D01*
G01X1873619Y2719452D02*
G01X1882917Y2708981D01*
G01X1882784Y2718232D02*
G01X1871799Y2724940D01*
G01X1851820Y2714479D02*
G01X1838885Y2724796D01*
G01X1837224Y2724940D01*
G01X1871799Y2724940D02*
G01X1859251Y2711870D01*
G01X1859137Y2710001D01*
G01X1882917Y2718232D02*
G01X1882784Y2718232D01*
G01X1837719Y2719452D02*
G01X1845112Y2714850D01*
G01X1841616Y2704056D02*
G01X1851820Y2714479D01*
G01X1865234Y2708857D02*
G01X1873619Y2719452D01*
G01X1827429Y2698501D02*
G01X1840270Y2688476D01*
G01X1841463Y2688355D01*
G01X1834137Y2698225D02*
G01X1841616Y2704056D01*
G01X1794503Y2704494D02*
G01X1794503Y2724330D01*
G01X1788405Y2724330D02*
G01X1788405Y2688964D01*
G01X1812186Y2724330D02*
G01X1812186Y2704561D01*
G01X1818283Y2702846D02*
G01X1818283Y2724330D01*
G01X1841463Y2688355D02*
G01X1849990Y2690184D01*
G01X1849990Y2690184D02*
G01X1849990Y2696281D01*
G01X1849990Y2696281D02*
G01X1840958Y2693842D01*
G01X1859137Y2710001D02*
G01X1859137Y2688964D01*
G01X1859137Y2688964D02*
G01X1865234Y2688964D01*
G01X1865234Y2688964D02*
G01X1865234Y2708857D01*
G01X1918512Y2688355D02*
G01X1930356Y2701072D01*
G01X1930478Y2702846D01*
G01X1906698Y2724330D02*
G01X1900600Y2724330D01*
G01X1930478Y2724330D02*
G01X1924380Y2724330D01*
G01X1906831Y2695357D02*
G01X1918512Y2688355D01*
G01X1916282Y2693842D02*
G01X1906698Y2704494D01*
G01X1900600Y2688964D02*
G01X1906698Y2688964D01*
G01X1906698Y2688964D02*
G01X1906698Y2695357D01*
G01X1924380Y2704561D02*
G01X1916282Y2693842D01*
G01X1906698Y2695357D02*
G01X1906831Y2695357D01*
G01X1900600Y2724330D02*
G01X1900600Y2688964D01*
G01X1698771Y2702988D02*
G01X1698771Y2724330D01*
G01X1692064Y2724330D02*
G01X1692064Y2674330D01*
G01X1698771Y2724330D02*
G01X1692064Y2724330D01*
G01X2024990Y2798994D02*
G01X2024990Y2600995D01*
G01X1974990Y2600995D02*
G01X1974990Y2798994D01*
G01X1754097Y2718232D02*
G01X1743093Y2724940D01*
G01X1743093Y2724940D02*
G01X1731698Y2714764D01*
G01X1930478Y2702846D02*
G01X1930478Y2724330D01*
G01X1906698Y2704494D02*
G01X1906698Y2724330D01*
G01X1924380Y2724330D02*
G01X1924380Y2704561D01*
G01X1882917Y2724330D02*
G01X1882917Y2718232D01*
G01X1889015Y2724330D02*
G01X1882917Y2724330D01*
G01X1889015Y2688964D02*
G01X1889015Y2724330D01*
G01X1882917Y2708981D02*
G01X1882917Y2688964D01*
G01X1882917Y2688964D02*
G01X1889015Y2688964D01*
G01X5281503Y-285437D02*
G01X5281503Y-287371D01*
G01X5281503Y-263380D02*
G01X5281503Y-267110D01*
G01X5281503Y-253527D02*
G01X5281503Y-260819D01*
G01X5269504Y-265131D02*
G01X5279957Y-265131D01*
G01X5267945Y-263380D02*
G01X5281503Y-263380D01*
G01X5268270Y-250813D02*
G01X5267716Y-247600D01*
G01X5273843Y-255277D02*
G01X5269504Y-255277D01*
G01X5267945Y-280335D02*
G01X5281503Y-275171D01*
G01X5267945Y-282207D02*
G01X5267945Y-280335D01*
G01X5281503Y-287371D02*
G01X5267945Y-282207D01*
G01X5270627Y-281465D02*
G01X5269678Y-281254D01*
G01X5269678Y-281254D02*
G01X5269678Y-281212D01*
G01X5269678Y-281212D02*
G01X5270627Y-280991D01*
G01X5270780Y-271092D02*
G01X5269504Y-267179D01*
G01X5269740Y-272374D02*
G01X5267945Y-267248D01*
G01X5267945Y-260511D02*
G01X5267945Y-253527D01*
G01X5269504Y-260511D02*
G01X5267945Y-260511D01*
G01X5269504Y-255277D02*
G01X5269504Y-260511D01*
G01X5267945Y-267248D02*
G01X5267945Y-263380D01*
G01X5269504Y-267179D02*
G01X5269504Y-265131D01*
G01X5303012Y-249656D02*
G01X5296780Y-249656D01*
G01X5303012Y-247957D02*
G01X5303012Y-249656D01*
G01X5301515Y-247957D02*
G01X5303012Y-247957D01*
G01X5303012Y-292151D02*
G01X5303012Y-294085D01*
G01X5292136Y-297970D02*
G01X5297772Y-295942D01*
G01X5297772Y-295942D02*
G01X5297772Y-300493D01*
G01X5289454Y-299186D02*
G01X5289454Y-297315D01*
G01X5303012Y-304350D02*
G01X5289454Y-299186D01*
G01X5303241Y-244946D02*
G01X5301515Y-247912D01*
G01X5292289Y-288071D02*
G01X5291013Y-284158D01*
G01X5303012Y-284089D02*
G01X5301113Y-289353D01*
G01X5301466Y-284078D02*
G01X5300052Y-288109D01*
G01X5304475Y-264282D02*
G01X5293329Y-268676D01*
G01X5300420Y-241875D02*
G01X5302478Y-242707D01*
G01X5297259Y-245088D02*
G01X5300420Y-241875D01*
G01X5302672Y-251957D02*
G01X5303241Y-254584D01*
G01X5300919Y-251957D02*
G01X5302672Y-251957D01*
G01X5302478Y-242707D02*
G01X5303241Y-244946D01*
G01X5298756Y-254539D02*
G01X5299622Y-256317D01*
G01X5297522Y-255738D02*
G01X5296690Y-254088D01*
G01X5301855Y-254751D02*
G01X5300919Y-251957D01*
G01X5302471Y-257405D02*
G01X5300378Y-258497D01*
G01X5267716Y-247600D02*
G01X5269712Y-242620D01*
G01X5289563Y-221853D02*
G01X5276935Y-212310D01*
G01X5297179Y-208936D02*
G01X5297179Y-204598D01*
G01X5282141Y-207586D02*
G01X5282141Y-208357D01*
G01X5270091Y-194090D02*
G01X5279013Y-206802D01*
G01X5282141Y-207586D01*
G01X5286575Y-201416D02*
G01X5293323Y-188499D01*
G01X5300071Y-201031D02*
G01X5303059Y-203827D01*
G01X5303059Y-203827D02*
G01X5303059Y-209514D01*
G01X5291684Y-204405D02*
G01X5286575Y-201416D01*
G01X5297179Y-204598D02*
G01X5297082Y-204019D01*
G01X5298817Y-190909D02*
G01X5291684Y-204405D01*
G01X5276935Y-212310D02*
G01X5269319Y-207104D01*
G01X5279957Y-234707D02*
G01X5267945Y-234707D01*
G01X5267945Y-234707D02*
G01X5267945Y-232957D01*
G01X5267945Y-232957D02*
G01X5281503Y-232957D01*
G01X5274876Y-242499D02*
G01X5270800Y-243923D01*
G01X5269712Y-242620D02*
G01X5274980Y-240662D01*
G01X190000Y-399999D02*
G02X289999Y-299999I100000J0D01*
G01X766236Y-269849D02*
G01X716237Y-269849D01*
G01X731237Y-284849D02*
G01X716237Y-269849D01*
G01X289999Y299999D02*
G02X190000Y399999I0J100000D01*
G01X389999Y299999D02*
G01X289999Y299999D01*
G01X726129Y295493D02*
G01X711129Y280493D01*
G01X726129Y445493D02*
G01X746129Y445493D01*
G01X761129Y460493D02*
G01X711129Y460493D01*
G01X746129Y295493D02*
G01X726129Y295493D01*
G01X726129Y295493D02*
G01X726129Y445493D01*
G01X726129Y445493D02*
G01X711129Y460493D01*
G01X761129Y280493D02*
G01X746129Y295493D01*
G01X831129Y310493D02*
G01X816129Y310493D01*
G01X831129Y295493D02*
G02X816129Y310493I0J15000D01*
G01X761129Y460493D02*
G01X746129Y445493D01*
G01X831129Y445493D02*
G01X831129Y295493D01*
G01X831129Y430493D02*
G01X816129Y430493D01*
G01X816129Y430493D02*
G01X816129Y310493D01*
G01X816129Y430493D02*
G02X831129Y445493I15000J0D01*
G01X814129Y293493D02*
G01X814129Y447493D01*
G01X746129Y445493D02*
G01X746129Y295493D01*
G01X711129Y280493D02*
G01X761129Y280493D01*
G01X711129Y460493D02*
G01X711129Y280493D01*
G01X761129Y280493D02*
G01X761129Y460493D01*
G01X4423271Y2304995D02*
G01X4403271Y2304995D01*
G01X4223271Y2304995D02*
G01X4203271Y2304995D01*
G01X4423271Y2362955D02*
G01X4403271Y2362955D01*
G01X4403271Y2355683D02*
G01X4423271Y2355683D01*
G01X4203271Y2414947D02*
G01X4223271Y2414947D01*
G01X4203271Y2411043D02*
G01X4223271Y2411043D01*
G01X4203271Y2392995D02*
G01X4223271Y2392995D01*
G01X4203271Y2388071D02*
G01X4223271Y2388071D01*
G01X4203271Y2411043D02*
G01X4203271Y2304995D01*
G01X4223271Y2411043D02*
G01X4223271Y2304995D01*
G01X4223271Y2362955D02*
G01X4203271Y2362955D01*
G01X4203271Y2355683D02*
G01X4223271Y2355683D01*
G01X4503270Y2392995D02*
G01X4523270Y2392995D01*
G01X4503270Y2388071D02*
G01X4523270Y2388071D01*
G01X4523270Y2362955D02*
G01X4503270Y2362955D01*
G01X4303271Y2294995D02*
G01X4323271Y2294995D01*
G01X4303271Y2304995D02*
G01X4303271Y2294995D01*
G01X4203271Y2304995D02*
G01X4203271Y2294995D01*
G01X4223271Y2294995D02*
G01X4223271Y2304995D01*
G01X4203271Y2294995D02*
G01X4223271Y2294995D01*
G01X4403271Y2304995D02*
G01X4403271Y2294995D01*
G01X4323271Y2294995D02*
G01X4323271Y2304995D01*
G01X3545428Y2414947D02*
G01X3565428Y2414947D01*
G01X3545428Y2411043D02*
G01X3565428Y2411043D01*
G01X3545428Y2392995D02*
G01X3565428Y2392995D01*
G01X3545428Y2388071D02*
G01X3565428Y2388071D01*
G01X3567928Y2429995D02*
G01X3567928Y2397316D01*
G01X3565428Y2429995D02*
G01X3565428Y2411043D01*
G01X3545428Y2429995D02*
G01X3545428Y2411043D01*
G01X3542928Y2397316D02*
G01X3542928Y2429995D01*
G01X3666428Y2374383D02*
G01X3691428Y2374383D01*
G01X3666428Y2429995D02*
G01X3666428Y2368995D01*
G01X3691428Y2429995D02*
G01X3691428Y2368995D01*
G01X3691428Y2368995D02*
G01X3666428Y2368995D01*
G01X3720528Y2648930D02*
G01X3720428Y2648930D01*
G01X3720528Y2652991D02*
G01X3720428Y2652991D01*
G01X3720528Y2656004D02*
G01X3720428Y2656004D01*
G01X3720528Y2677279D02*
G01X3720428Y2677279D01*
G01X3720528Y2677428D02*
G01X3720528Y2683098D01*
G01X3720528Y2663337D02*
G01X3720428Y2663337D01*
G01X3720528Y2666186D02*
G01X3720428Y2666186D01*
G01X3720528Y2669560D02*
G01X3720428Y2669560D01*
G01X3720528Y2674789D02*
G01X3720428Y2674789D01*
G01X3720528Y2683098D02*
G01X3720428Y2683098D01*
G01X3720528Y2684935D02*
G01X3720428Y2684935D01*
G01X3720528Y2625719D02*
G01X3720428Y2625719D01*
G01X3720528Y2627801D02*
G01X3720428Y2627801D01*
G01X3720528Y2633223D02*
G01X3720428Y2633223D01*
G01X3720528Y2635188D02*
G01X3720428Y2635188D01*
G01X3720528Y2640611D02*
G01X3720428Y2640611D01*
G01X3720528Y2643547D02*
G01X3720428Y2643547D01*
G01X3720528Y2622782D02*
G01X3720428Y2622782D01*
G01X3545428Y2411043D02*
G01X3545428Y2304995D01*
G01X3465428Y2304995D02*
G01X3445428Y2304995D01*
G01X3420028Y2307695D02*
G01X3440028Y2307695D01*
G01X3445428Y2304995D02*
G01X3445428Y2294995D01*
G01X3345429Y2392995D02*
G01X3365429Y2392995D01*
G01X3345429Y2388071D02*
G01X3365429Y2388071D01*
G01X3342929Y2397316D02*
G01X3332929Y2379995D01*
G01X3277929Y2379995D02*
G01X3267929Y2397316D01*
G01X3245429Y2392995D02*
G01X3265429Y2392995D01*
G01X3245429Y2388071D02*
G01X3265429Y2388071D01*
G01X3332929Y2379995D02*
G01X3277929Y2379995D01*
G01X1251128Y545492D02*
G02X1276128Y520492I0J-25000D01*
G01X1211236Y-284849D02*
G01X1226236Y-269849D01*
G01X1327419Y-309849D02*
G01X1327419Y-409849D01*
G01X1226236Y-269849D02*
G01X1226236Y-449849D01*
G01X1256235Y-184849D02*
G02X1281235Y-209849I0J-25000D01*
G01X1176236Y-269849D02*
G01X1226236Y-269849D01*
G01X1276128Y220493D02*
G02X1251128Y195493I-25000J0D01*
G01X1206128Y295493D02*
G01X1221128Y280493D01*
G01X1276846Y320493D02*
G01X1426128Y320493D01*
G01X1276846Y420493D02*
G01X1426128Y420493D01*
G01X1221128Y280493D02*
G01X1171128Y280493D01*
G01X1191236Y-284849D02*
G01X1191236Y-434849D01*
G01X1211236Y-434849D02*
G01X1211236Y-284849D01*
G01X1176236Y-269849D02*
G01X1191236Y-284849D01*
G01X1176236Y-449849D02*
G01X1176236Y-269849D01*
G01X1176236Y-449849D02*
G01X1191236Y-434849D01*
G01X1191236Y-434849D02*
G01X1211236Y-434849D01*
G01X1211236Y-284849D02*
G01X1191236Y-284849D01*
G01X1226236Y-449849D02*
G01X1176236Y-449849D01*
G01X1211236Y-434849D02*
G01X1226236Y-449849D01*
G01X1276128Y520492D02*
G01X1276128Y220493D01*
G01X1221128Y460493D02*
G01X1221128Y280493D01*
G01X1641096Y2699995D02*
G02X1572582Y2699995I-34257J0D01*
G01X1712605Y2710258D02*
G01X1703316Y2702988D01*
G01X1703316Y2702988D02*
G01X1698771Y2702988D01*
G01X1692064Y2674330D02*
G01X1707146Y2674330D01*
G01X1711710Y2700950D02*
G01X1711710Y2701112D01*
G01X1711710Y2701112D02*
G01X1719131Y2709200D01*
G01X1698771Y2679818D02*
G01X1698771Y2697501D01*
G01X1698771Y2697501D02*
G01X1706174Y2697501D01*
G01X1706174Y2697501D02*
G01X1715844Y2688126D01*
G01X1715844Y2688126D02*
G01X1706269Y2679818D01*
G01X1706269Y2679818D02*
G01X1698771Y2679818D01*
G01X1754259Y2706676D02*
G01X1746018Y2707800D01*
G01X1754259Y2709886D02*
G01X1754259Y2706676D01*
G01X1770722Y2688964D02*
G01X1776820Y2688964D01*
G01X1778039Y2676493D02*
G01X1774028Y2680428D01*
G01X1707146Y2674330D02*
G01X1719872Y2679255D01*
G01X1722552Y2687573D01*
G01X1722552Y2687573D02*
G01X1713161Y2700390D01*
G01X1711710Y2700950D01*
G01X1774028Y2672501D02*
G01X1778039Y2676493D01*
G01X1770113Y2676493D02*
G01X1774028Y2672501D01*
G01X1774028Y2680428D02*
G01X1770113Y2676493D01*
G01X1735356Y2692013D02*
G01X1747551Y2688355D01*
G01X1747551Y2688355D02*
G01X1760264Y2699981D01*
G01X1760356Y2701702D01*
G01X1747047Y2693842D02*
G01X1735356Y2698110D01*
G01X1735356Y2698110D02*
G01X1735356Y2692013D01*
G01X1743607Y2703370D02*
G01X1754259Y2701912D01*
G01X1754259Y2701912D02*
G01X1747047Y2693842D01*
G01X5293107Y-255738D02*
G01X5293876Y-253056D01*
G01X5293537Y-258033D02*
G01X5293107Y-255738D01*
G01X5296690Y-254088D02*
G01X5295789Y-253718D01*
G01X5295789Y-253718D02*
G01X5294846Y-254234D01*
G01X5293329Y-261280D02*
G01X5293329Y-259381D01*
G01X5300544Y-256754D02*
G01X5301855Y-254751D01*
G01X5299622Y-256317D02*
G01X5300544Y-256754D01*
G01X5293329Y-268676D02*
G01X5293329Y-266916D01*
G01X5279957Y-260819D02*
G01X5279957Y-255277D01*
G01X5281503Y-260819D02*
G01X5279957Y-260819D01*
G01X5281503Y-275171D02*
G01X5281503Y-277105D01*
G01X5277795Y-284054D02*
G01X5281503Y-285437D01*
G01X5277795Y-278408D02*
G01X5277795Y-284054D01*
G01X5278543Y-271130D02*
G01X5274599Y-272579D01*
G01X5274599Y-272579D02*
G01X5270780Y-271092D01*
G01X5274551Y-274419D02*
G01X5269740Y-272374D01*
G01X5279604Y-272374D02*
G01X5274551Y-274419D01*
G01X5281503Y-267110D02*
G01X5279604Y-272374D01*
G01X5279957Y-265131D02*
G01X5279957Y-267099D01*
G01X5279957Y-267099D02*
G01X5278543Y-271130D01*
G01X5279957Y-255277D02*
G01X5275396Y-255277D01*
G01X5273843Y-260126D02*
G01X5273843Y-255277D01*
G01X5275396Y-255277D02*
G01X5275396Y-260126D01*
G01X5276263Y-283514D02*
G01X5270627Y-281465D01*
G01X5270627Y-280991D02*
G01X5276263Y-278963D01*
G01X5276263Y-278963D02*
G01X5276263Y-283514D01*
G01X5281503Y-277105D02*
G01X5277795Y-278408D01*
G01X5289454Y-280360D02*
G01X5303012Y-280360D01*
G01X5296060Y-291398D02*
G01X5291249Y-289353D01*
G01X5296905Y-277105D02*
G01X5295353Y-277105D01*
G01X5295353Y-277105D02*
G01X5295353Y-272257D01*
G01X5295353Y-272257D02*
G01X5291013Y-272257D01*
G01X5291013Y-272257D02*
G01X5291013Y-277490D01*
G01X5289454Y-277490D02*
G01X5289454Y-270506D01*
G01X5291013Y-277490D02*
G01X5289454Y-277490D01*
G01X5289454Y-284228D02*
G01X5289454Y-280360D01*
G01X5301466Y-282110D02*
G01X5301466Y-284078D01*
G01X5289454Y-270506D02*
G01X5303012Y-270506D01*
G01X5291013Y-282110D02*
G01X5301466Y-282110D01*
G01X5291013Y-284158D02*
G01X5291013Y-282110D01*
G01X5303012Y-280360D02*
G01X5303012Y-284089D01*
G01X5301466Y-272257D02*
G01X5296905Y-272257D01*
G01X5293329Y-266916D02*
G01X5300621Y-264271D01*
G01X5301404Y-264018D02*
G01X5300607Y-263810D01*
G01X5301404Y-264063D02*
G01X5301404Y-264018D01*
G01X5300621Y-264271D02*
G01X5301404Y-264063D01*
G01X5300607Y-263810D02*
G01X5293329Y-261280D01*
G01X5293329Y-259381D02*
G01X5302991Y-263180D01*
G01X5293107Y-246155D02*
G01X5294008Y-242821D01*
G01X5298153Y-247957D02*
G01X5298458Y-245691D01*
G01X5299082Y-247957D02*
G01X5298153Y-247957D01*
G01X5301411Y-244089D02*
G01X5301847Y-245386D01*
G01X5301847Y-245386D02*
G01X5301057Y-247230D01*
G01X5301057Y-247230D02*
G01X5299082Y-247957D01*
G01X5296857Y-247957D02*
G01X5297259Y-245088D01*
G01X5294486Y-245996D02*
G01X5296857Y-247957D01*
G01X5295657Y-242821D02*
G01X5294486Y-245996D01*
G01X5294008Y-242821D02*
G01X5295657Y-242821D01*
G01X5298458Y-245691D02*
G01X5299054Y-244048D01*
G01X5299054Y-244048D02*
G01X5300281Y-243597D01*
G01X5300281Y-243597D02*
G01X5301411Y-244089D01*
G01X5295942Y-251967D02*
G01X5297474Y-252449D01*
G01X5296780Y-249656D02*
G01X5293107Y-246155D01*
G01X5301515Y-247912D02*
G01X5301515Y-247957D01*
G01X5303012Y-277798D02*
G01X5301466Y-277798D01*
G01X5303012Y-270506D02*
G01X5303012Y-277798D01*
G01X5301466Y-277798D02*
G01X5301466Y-272257D01*
G01X5307573Y-260826D02*
G01X5304475Y-264282D01*
G01X5302991Y-263180D02*
G01X5304752Y-262434D01*
G01X5304752Y-262434D02*
G01X5306117Y-260694D01*
G01X5305923Y-259731D02*
G01X5307434Y-259731D01*
G01X5306117Y-260694D02*
G01X5305923Y-259731D01*
G01X5303241Y-254584D02*
G01X5302471Y-257405D01*
G01X5296905Y-272257D02*
G01X5296905Y-277105D01*
G01X5307434Y-259731D02*
G01X5307573Y-260826D01*
G01X5294846Y-254234D02*
G01X5294486Y-255572D01*
G01X5294486Y-255572D02*
G01X5295186Y-258033D01*
G01X5295186Y-258033D02*
G01X5293537Y-258033D01*
G01X5293876Y-253056D02*
G01X5295942Y-251967D01*
G01X5297474Y-252449D02*
G01X5298756Y-254539D01*
G01X5298777Y-257929D02*
G01X5297522Y-255738D01*
G01X5275396Y-260126D02*
G01X5273843Y-260126D01*
G01X5289454Y-232957D02*
G01X5303012Y-232957D01*
G01X5303012Y-232957D02*
G01X5303012Y-240249D01*
G01X5301466Y-234707D02*
G01X5296905Y-234707D01*
G01X5289454Y-239941D02*
G01X5289454Y-232957D01*
G01X5291013Y-239941D02*
G01X5289454Y-239941D01*
G01X5295353Y-239556D02*
G01X5295353Y-234707D01*
G01X5296905Y-239556D02*
G01X5295353Y-239556D01*
G01X5291013Y-234707D02*
G01X5291013Y-239941D01*
G01X5295353Y-234707D02*
G01X5291013Y-234707D01*
G01X5296905Y-234707D02*
G01X5296905Y-239556D01*
G01X5279957Y-240107D02*
G01X5279957Y-234707D01*
G01X5281503Y-240107D02*
G01X5279957Y-240107D01*
G01X5281503Y-232957D02*
G01X5281503Y-240107D01*
G01X5278744Y-243830D02*
G01X5274876Y-242499D01*
G01X5274980Y-240662D02*
G01X5279881Y-242402D01*
G01X5280941Y-250813D02*
G01X5279264Y-250813D01*
G01X5279264Y-250813D02*
G01X5280172Y-247313D01*
G01X5280172Y-247313D02*
G01X5278744Y-243830D01*
G01X4390771Y2379995D02*
G01X4335771Y2379995D01*
G01X4323271Y2362955D02*
G01X4303271Y2362955D01*
G01X4303271Y2355683D02*
G01X4323271Y2355683D01*
G01X4323271Y2304995D02*
G01X4303271Y2304995D01*
G01X4303271Y2392995D02*
G01X4323271Y2392995D01*
G01X4303271Y2411043D02*
G01X4323271Y2411043D01*
G01X4303271Y2388071D02*
G01X4323271Y2388071D01*
G01X4303271Y2414947D02*
G01X4323271Y2414947D01*
G01X1350514Y-309849D02*
G01X1350514Y-409849D01*
G01X1374329Y-309849D02*
G01X1374329Y-409849D01*
G01X1431235Y-309849D02*
G01X1431235Y-409849D01*
G01X1281953Y-409849D02*
G01X1431235Y-409849D01*
G01X1281953Y-309849D02*
G01X1431235Y-309849D01*
G01X1369222Y420493D02*
G01X1369222Y320493D01*
G01X1426128Y420493D02*
G01X1426128Y320493D01*
G04 PolygonModel End*

G04 Circle Start*
G01X-84962Y0D02*
G03X84962Y0I84962J0D01*
G03X-84962I-84962J0D01*
G01X269999Y-170000D02*
G03X409999Y-170000I70000J0D01*
G03X269999I-70000J0D01*
G01X269999Y170000D02*
G03X409999Y170000I70000J0D01*
G03X269999I-70000J0D01*
G04 Circle End*

M02*
