G04 Layer: BottomLayer*
G04 EasyEDA Pro v2.1.49.1.de255bc8.674264, 2024-06-01 15:44:05*
G04 Gerber Generator version 0.3*
G04 Scale: 100 percent, Rotated: No, Reflected: No*
G04 Dimensions in millimeters*
G04 Leading zeros omitted, absolute positions, 3 integers and 5 decimals*
%FSLAX35Y35*%
%MOMM*%
%AMPolygonMacro1*4,1,22,0.6638,-1.22428,0.6638,-1.17602,1.26406,-1.17602,1.26406,-0.7747,0.6638,-0.7747,0.6638,-0.52578,1.26406,-0.52578,1.26406,-0.12446,0.6638,-0.12446,0.6638,0.12446,1.26406,0.12446,1.26406,0.52578,0.6638,0.52578,0.6638,0.7747,1.26406,0.7747,0.6638,0.7747,1.26406,0.7747,1.26406,1.17602,0.6638,1.17602,0.6638,1.22428,-1.26406,1.22428,-1.26406,-1.22428,0.6638,-1.22428,0*%
%AMOval*1,1,$1,$2,$3*1,1,$1,$4,$5*20,1,$1,$2,$3,$4,$5,0*%
%AMRect*21,1,$1,$2,0,0,$3*%
%AMPolygonMacro2*4,1,22,0.78867,-1.24,0.78867,-1.18654,1.13919,-1.18654,1.13919,-0.78522,0.78867,-0.78522,0.78867,-0.5363,1.13919,-0.5363,1.13919,-0.13498,0.78867,-0.13498,0.78867,0.11394,1.13919,0.11394,1.13919,0.51526,0.78867,0.51526,0.78867,0.76418,1.13919,0.76418,0.78867,0.76418,1.13919,0.76418,1.13919,1.1655,0.78867,1.1655,0.78867,1.24,-1.13919,1.24,-1.13919,-1.24,0.78867,-1.24,0*%
%ADD10C,0.254*%
%ADD11C,0.6096*%
%ADD12R,0.75001X1.0*%
%ADD13R,0.75001X1.0*%
%ADD14O,0.36401X1.74201*%
%ADD15R,0.75001X0.35001*%
%ADD16PolygonMacro1*%
%ADD17Oval,0.7055X0.0X-0.5X0.0X0.5*%
%ADD18Oval,0.7X0.0X-0.5X0.0X0.5*%
%ADD19O,0.7X1.7*%
%ADD20R,0.67201X1.575*%
%ADD21C,2.49999*%
%ADD22C,1.8*%
%ADD23R,1.07201X0.532*%
%ADD24R,2.91061X2.91*%
%ADD25R,5.69999X2.49999*%
%ADD26R,2.79999X1.4*%
%ADD27R,1.0X0.75001*%
%ADD28O,1.865X0.63*%
%ADD29R,0.6X0.6*%
%ADD30R,0.6X0.6*%
%ADD31R,0.7X1.75001*%
%ADD32R,1.2X2.55001*%
%ADD33R,1.23X1.35999*%
%ADD34R,0.6X0.6*%
%ADD35R,1.8X1.524*%
%ADD36R,0.45001X0.45001*%
%ADD37R,0.56566X0.54*%
%ADD38R,0.54X0.56566*%
%ADD39R,0.54X0.56566*%
%ADD40R,1.35X1.16*%
%ADD41R,1.35X1.16*%
%ADD42R,0.9X0.8*%
%ADD43R,0.9X0.8*%
%ADD44R,0.6X0.6*%
%ADD45R,1.35X1.16*%
%ADD46R,1.13254X1.37701*%
%ADD47R,0.6X0.6*%
%ADD48Rect,0.6X0.6X40.0*%
%ADD49R,0.79009X0.54*%
%ADD50R,0.56566X0.54*%
%ADD51Rect,0.56566X0.54X-50.0*%
%ADD52R,2.59999X2.05001*%
%ADD53R,0.4X0.6*%
%ADD54R,2.59999X2.05001*%
%ADD55R,0.4X0.6*%
%ADD56PolygonMacro2*%
%ADD57R,0.55001X0.35001*%
%ADD58R,0.8X1.0*%
%ADD59R,1.8X2.0*%
%ADD60R,1.5X2.2*%
%ADD61R,0.9X0.8*%
%ADD62R,0.8X0.28001*%
%ADD63R,0.28001X0.8*%
%ADD64R,5.39999X5.39999*%
%ADD65R,0.28001X0.8*%
%ADD66R,0.8X0.28001*%
%ADD67R,5.39999X5.39999*%
%ADD68C,0.5*%
%ADD69C,0.4*%
%ADD70C,0.61001*%
%ADD71C,0.25*%
%ADD72C,0.6*%
%ADD73C,0.127*%
%ADD74C,0.2*%
%ADD75C,1.2*%
%ADD76C,0.508*%
%ADD77C,0.2032*%
%ADD78C,0.15*%
%ADD79C,0.381*%
%ADD80C,0.1524*%
%ADD81C,0.1275*%
%ADD82C,0.256*%
%ADD83C,0.9*%
%ADD84C,0.635*%
%ADD85C,0.4318*%
%ADD86C,0.3*%
G75*


G04 PolygonModel Start*
G54D10*
G01X2540000Y2108200D02*
G01X2565400Y2133600D01*
G01X2685410D01*
G01X2729044Y2089965D01*
G01Y2055944D01*
G01X2705100Y2032000D01*
G36*
G01X4879345Y-1272938D02*
G01X4889448Y-1262835D01*
G01X4930145D01*
G01X4942845Y-1250135D01*
G01Y-1212035D01*
G01X5044246Y-1202816D01*
G01X5045571Y-1302857D01*
G01X4879110D01*
G01X4879345Y-1302621D01*
G01Y-1272938D01*
G37*
G36*
G01X536649Y1930691D02*
G01X568116Y1899224D01*
G01X608375D01*
G01Y1941920D01*
G01X579877Y1970418D01*
G01X540557D01*
G01Y1934598D01*
G01X536649Y1930691D01*
G37*
G36*
G01X3860800Y-1244600D02*
G01X3860800Y-838200D01*
G01X3873500Y-825500D01*
G01X4219075D01*
G01X4229100Y-835525D01*
G01Y-1168400D01*
G01X4140200Y-1244600D01*
G01X3860800D01*
G37*
G36*
G01X3860800Y-1435100D02*
G01X3860800Y-1295400D01*
G01X3873500Y-1282700D01*
G01X4191000D01*
G01X4279900Y-1193800D01*
G01Y-838200D01*
G01X4292600Y-825500D01*
G01X4657910D01*
G01X4676145Y-843735D01*
G01Y-996135D01*
G01X4599945Y-1072335D01*
G01Y-1115055D01*
G01X4152900Y-1562100D01*
G01Y-1714500D01*
G01X3873500Y-1435100D01*
G01X3860800D01*
G37*
G36*
G01X4292600Y-1689100D02*
G01X4292600Y-1460500D01*
G01X4622800Y-1130300D01*
G01Y-1079500D01*
G01X4699000Y-1003300D01*
G01Y-863600D01*
G01X4718865Y-843735D01*
G01X5123635D01*
G01X5130800Y-850900D01*
G01Y-1104900D01*
G01X4876800D01*
G01X4638045Y-1343655D01*
G01Y-1686555D01*
G01X4610100Y-1714500D01*
G01X4318000D01*
G01X4292600Y-1689100D01*
G37*
G36*
G01X4858430Y-1797730D02*
G01X4876800Y-1816100D01*
G01X5181600D01*
G01X5194381Y-1803319D01*
G01X5196924Y-1399624D01*
G01X5181600Y-1384300D01*
G01X4870690D01*
G01X4858430Y-1396560D01*
G01Y-1797730D01*
G37*
G36*
G01X4962946Y-647733D02*
G01X5308567Y-647733D01*
G01X5422900Y-533400D01*
G01X5588691D01*
G01X5615039Y-559747D01*
G01Y-773061D01*
G01X5588000Y-800100D01*
G01X4970945D01*
G01X4961335Y-790489D01*
G01Y-772845D01*
G01X5017445Y-716735D01*
G01X4962946Y-662236D01*
G01Y-647733D01*
G37*
G36*
G01X5374645Y300695D02*
G01X5896905Y300695D01*
G01X5905500Y292100D01*
G01Y174975D01*
G01X5892290Y163550D01*
G01X5535507D01*
G01X5529465Y169592D01*
G01X5505748D01*
G01X5374645Y300695D01*
G37*
G36*
G01X4940300Y1790700D02*
G01X4940300Y1663700D01*
G01X5842000D01*
G01X5854700Y1676400D01*
G01Y1739900D01*
G01X5823675Y1770925D01*
G01X5015360D01*
G01X4990700Y1746265D01*
G01X4984735D01*
G01X4940300Y1790700D01*
G37*
G36*
G01X4945186Y2064565D02*
G01X5237935Y2064565D01*
G01X5245100Y2057400D01*
G01Y1803400D01*
G01X5232400Y1790700D01*
G01X5103060D01*
G01X5096705Y1797055D01*
G01Y1928425D01*
G01X5083740Y1941390D01*
G01X5068361D01*
G01X4945186Y2064565D01*
G37*
G36*
G01X1701800Y-127000D02*
G01X1701800Y-279400D01*
G01X1714500Y-292100D01*
G01X2064500D01*
G01X2087325Y-269276D01*
G01Y21557D01*
G01X2111033Y45265D01*
G01X2456602D01*
G01X2462137Y50800D01*
G01X2476500Y63500D01*
G01Y207370D01*
G01X2457605Y226266D01*
G01X1935098D01*
G01X1911647Y202815D01*
G01Y-94953D01*
G01X1892300Y-114300D01*
G01X1714500D01*
G01X1701800Y-127000D01*
G37*
G36*
G01X1968500Y-317500D02*
G01X1955800Y-330200D01*
G01Y-483088D01*
G01X1973547Y-500835D01*
G01X2229665D01*
G01X2265687Y-464813D01*
G01Y-178834D01*
G01X2453574Y-177866D01*
G01X2470305Y-161135D01*
G01Y11342D01*
G01X2456246Y25400D01*
G01X2120900D01*
G01X2108200Y12700D01*
G01Y-292100D01*
G01X2082800Y-317500D01*
G01X1968500D01*
G37*
G36*
G01X2520032Y-310232D02*
G01X2540000Y-330200D01*
G01X2879580D01*
G01X2898145Y-311635D01*
G01Y-193045D01*
G01X2895600Y-190500D01*
G01X2743200D01*
G01X2717800Y-165100D01*
G01Y-8400D01*
G01X2702235Y7165D01*
G01X2545106D01*
G01X2520032Y-17909D01*
G01Y-310232D01*
G37*
G36*
G01X2531624Y213547D02*
G01X2519778Y201701D01*
G01Y59256D01*
G01X2535737Y43298D01*
G01X2885598D01*
G01X2898298Y55998D01*
G01Y203430D01*
G01X2888181Y213547D01*
G01X2531624D01*
G37*
G36*
G01X2946127Y-165100D02*
G01X3153720Y-165100D01*
G01X3162300Y-173680D01*
G01Y-330746D01*
G01X3146412Y-346634D01*
G01X2948980D01*
G01X2933979Y-331633D01*
G01Y-190779D01*
G01X2933694Y-177533D01*
G01X2946127Y-165100D01*
G37*
G36*
G01X2947345Y46865D02*
G01X3151388Y46865D01*
G01X3158082Y53558D01*
G01Y207418D01*
G01X3149600Y215900D01*
G01X3056675D01*
G01X3050545Y222030D01*
G01Y302255D01*
G01X3035300Y317500D01*
G01X2946400D01*
G01X2933700Y304800D01*
G01Y60510D01*
G01X2947345Y46865D01*
G37*
G36*
G01X3060700Y584200D02*
G01X3124200Y584200D01*
G01X3136900Y571500D01*
G01Y398321D01*
G01X3126745Y388165D01*
G01X2948302D01*
G01X2938913Y397554D01*
G01Y589413D01*
G01X2946400Y596900D01*
G01X3048000D01*
G01X3060700Y584200D01*
G37*
G36*
G01X3352145Y692879D02*
G01X3610079Y692879D01*
G01X3622096Y680862D01*
G01Y579723D01*
G01X3725577D01*
G01X3733800Y571500D01*
G01Y431800D01*
G01X3708400Y406400D01*
G01X3644900D01*
G01X3632200Y419100D01*
G01Y508000D01*
G01X3606800Y533400D01*
G01X3344406D01*
G01X3337540Y540265D01*
G01Y678990D01*
G01X3352145Y692879D01*
G37*
G36*
G01X3647758Y579723D02*
G01X3619500Y600336D01*
G01Y582319D01*
G01X3622096Y579723D01*
G01X3647758D01*
G37*
G36*
G01X3352145Y324579D02*
G01X3610079Y324579D01*
G01X3622779Y311879D01*
G01Y224123D01*
G01X3712877D01*
G01X3733800Y203200D01*
G01Y50800D01*
G01X3721100Y38100D01*
G01X3644900D01*
G01X3632200Y50800D01*
G01Y152400D01*
G01X3619500Y165100D01*
G01X3344406D01*
G01X3337540Y171965D01*
G01Y310690D01*
G01X3352145Y324579D01*
G37*
G36*
G01X3352145Y-56421D02*
G01X3610079Y-56421D01*
G01X3622096Y-68438D01*
G01Y-169577D01*
G01X3725577D01*
G01X3733800Y-177800D01*
G01Y-330200D01*
G01X3721100Y-342900D01*
G01X3644900D01*
G01X3632200Y-330200D01*
G01Y-228600D01*
G01X3619500Y-215900D01*
G01X3344406D01*
G01X3337540Y-209035D01*
G01Y-70310D01*
G01X3352145Y-56421D01*
G37*
G36*
G01X3649957Y205594D02*
G01X3621699Y226206D01*
G01Y208189D01*
G01X3624294Y205594D01*
G01X3649957D01*
G37*
G36*
G01X3649957Y-175406D02*
G01X3621699Y-154794D01*
G01Y-172811D01*
G01X3624294Y-175406D01*
G01X3649957D01*
G37*
G36*
G01X3645174Y213817D02*
G01X3616916Y234430D01*
G01Y216413D01*
G01X3619511Y213817D01*
G01X3645174D01*
G37*
G36*
G01X5508760Y1169441D02*
G01X5601741Y1169441D01*
G01X5613400Y1181100D01*
G01Y1244600D01*
G01X5626100Y1257300D01*
G01X5816600D01*
G01X5829300Y1270000D01*
G01Y1320800D01*
G01X5816600Y1333500D01*
G01X5524500D01*
G01X5511800Y1320800D01*
G01Y1172481D01*
G01X5508760Y1169441D01*
G37*
G36*
G01X4686300Y927100D02*
G01X4686300Y1003300D01*
G01X4699000Y1016000D01*
G01X4826000D01*
G01X4838700Y1003300D01*
G01Y927100D01*
G01X4826000Y914400D01*
G01X4699000D01*
G01X4686300Y927100D01*
G37*
G36*
G01X4313026Y1069464D02*
G01X4378478Y1069822D01*
G01X4394200Y1054100D01*
G01Y927100D01*
G01X4381500Y914400D01*
G01X4305300D01*
G01X4292600Y927100D01*
G01Y1041400D01*
G01X4293472Y1059046D01*
G01X4313026Y1069464D01*
G37*
G36*
G01X4064000Y2133600D02*
G01X4076700Y2146300D01*
G01X4152900D01*
G01X4165600Y2133600D01*
G01Y2006600D01*
G01X4152900Y1993900D01*
G01X4076700D01*
G01X4064000Y2006600D01*
G01Y2133600D01*
G37*
G36*
G01X4199688Y2163012D02*
G01X4199688Y2074112D01*
G01X4203700Y2070100D01*
G01X4249120D01*
G01X4251810Y2072790D01*
G01Y2161690D01*
G01X4241800Y2171700D01*
G01X4205141D01*
G01X4198071Y2164629D01*
G01X4199688Y2163012D01*
G37*
G36*
G01X4559300Y-2019300D02*
G01X4565406Y-2013194D01*
G01Y-2011232D01*
G01X4665532D01*
G01X4673600Y-2019300D01*
G01Y-2209800D01*
G01X4686300Y-2222500D01*
G01X4870450D01*
G01X4883150Y-2235200D01*
G01Y-2349500D01*
G01X4870450Y-2362200D01*
G01X4572000D01*
G01X4559300Y-2349500D01*
G01Y-2019300D01*
G37*
G36*
G01X3530600Y-1028700D02*
G01X3530600Y-1397000D01*
G01X3543300Y-1409700D01*
G01X3894082D01*
G01Y-1303282D01*
G01X3873500Y-1282700D01*
G01X3759200D01*
G01X3746500Y-1270000D01*
G01Y-1028700D01*
G01X3733800Y-1016000D01*
G01X3543300D01*
G01X3530600Y-1028700D01*
G37*
G36*
G01X4610100Y2730500D02*
G01X4635500Y2755900D01*
G01X5626100D01*
G01X5654976Y2727024D01*
G01Y2632376D01*
G01X5626100Y2603500D01*
G01X4673600D01*
G01X4660900Y2616200D01*
G01Y2679700D01*
G01X4610100Y2730500D01*
G37*
G04 PolygonModel End*

G04 Rect Start*
G36*
G01X5273045Y1874065D02*
G01X5273045Y1734365D01*
G01X5852165D01*
G01Y1874065D01*
G01X5273045D01*
G37*
G36*
G01X4283456Y2184400D02*
G01X4283456Y2095462D01*
G01X4330700D01*
G01Y2184400D01*
G01X4283456D01*
G37*
G04 Rect End*

G04 Pad Start*
G54D11*
G01X4229100Y-1765300D03*
G01X4635500Y-1765300D03*
G01X5270500Y-800100D03*
G01X5969000Y2108200D03*
G01X4089400Y901700D03*
G01X5562600Y850900D03*
G54D12*
G01X4663445Y-414894D03*
G01X4663445Y-180376D03*
G54D13*
G01X4879345Y-414894D03*
G01X4879345Y-180376D03*
G01X5080000Y-422059D03*
G01X5080000Y-187541D03*
G54D14*
G01X4599538Y599062D03*
G01X4664537Y599062D03*
G01X4729536Y599062D03*
G01X4794534Y599062D03*
G01X4859558Y599062D03*
G01X4924557Y599062D03*
G01X4989555Y599062D03*
G01X5054554Y599062D03*
G01X5119553Y599062D03*
G01X5184551Y599062D03*
G01X4599538Y24869D03*
G01X4664537Y24869D03*
G01X4729536Y24869D03*
G01X4794534Y24869D03*
G01X4859558Y24869D03*
G01X4924557Y24869D03*
G01X4989555Y24869D03*
G01X5054554Y24869D03*
G01X5119553Y24869D03*
G01X5184551Y24869D03*
G54D15*
G01X3683792Y-123937D03*
G01X3683792Y-188935D03*
G01X3683792Y-253934D03*
G01X3683792Y-318933D03*
G54D16*
G01X3908290Y-221244D03*
G54D15*
G01X3112292Y-123937D03*
G01X3112292Y-188935D03*
G01X3112292Y-253934D03*
G01X3112292Y-318933D03*
G54D16*
G01X3336790Y-221244D03*
G54D15*
G01X3683792Y257063D03*
G01X3683792Y192065D03*
G01X3683792Y127066D03*
G01X3683792Y62067D03*
G54D16*
G01X3908290Y159756D03*
G54D15*
G01X3112292Y257063D03*
G01X3112292Y192065D03*
G01X3112292Y127066D03*
G01X3112292Y62067D03*
G54D16*
G01X3336790Y159756D03*
G54D15*
G01X3681247Y630898D03*
G01X3681247Y565899D03*
G01X3681247Y500901D03*
G01X3681247Y435902D03*
G54D16*
G01X3905745Y533591D03*
G54D15*
G01X3099592Y625363D03*
G01X3099592Y560365D03*
G01X3099592Y495366D03*
G01X3099592Y430367D03*
G54D16*
G01X3324090Y528056D03*
G54D18*
G01X2301245Y-83835D03*
G01X2428245Y-83835D03*
G01X2555245Y-83835D03*
G01X2682245Y-83835D03*
G01X2301245Y-663834D03*
G01X2428245Y-663834D03*
G01X2555245Y-663834D03*
G01X2682245Y-663834D03*
G54D19*
G01X2682245Y136266D03*
G01X2555245Y136266D03*
G01X2428245Y136266D03*
G01X2301245Y136266D03*
G01X2682245Y716265D03*
G01X2555245Y716265D03*
G01X2428245Y716265D03*
G01X2301245Y716265D03*
G54D20*
G01X4107045Y1577889D03*
G01X4407045Y1577889D03*
G36*
G01X4352028Y1213945D02*
G01X4352028Y1399365D01*
G01X4351921Y1403817D01*
G01X4351609Y1408260D01*
G01X4351088Y1412685D01*
G01X4350362Y1417079D01*
G01X4349427Y1421435D01*
G01X4348292Y1425740D01*
G01X4346956Y1429990D01*
G01X4345422Y1434170D01*
G01X4343692Y1438275D01*
G01X4341774Y1442296D01*
G01X4339668Y1446220D01*
G01X4337380Y1450043D01*
G01X4334916Y1453754D01*
G01X4332282Y1457345D01*
G01X4329483Y1460807D01*
G01X4326521Y1464137D01*
G01X4323410Y1467322D01*
G01X4320151Y1470360D01*
G01X4316755Y1473241D01*
G01X4313227Y1475958D01*
G01X4309575Y1478509D01*
G01X4305808Y1480884D01*
G01X4301932Y1483081D01*
G01X4297959Y1485095D01*
G01X4290029Y1486919D01*
G01Y1656652D01*
G01X4224030D01*
G01Y1486919D01*
G01X4216095Y1485095D01*
G01X4212122Y1483081D01*
G01X4208246Y1480884D01*
G01X4204480Y1478509D01*
G01X4200827Y1475958D01*
G01X4197299Y1473241D01*
G01X4193903Y1470360D01*
G01X4190644Y1467322D01*
G01X4187533Y1464137D01*
G01X4184571Y1460807D01*
G01X4181772Y1457345D01*
G01X4179138Y1453754D01*
G01X4176674Y1450043D01*
G01X4174386Y1446220D01*
G01X4172280Y1442296D01*
G01X4170362Y1438275D01*
G01X4168633Y1434170D01*
G01X4167098Y1429990D01*
G01X4165762Y1425740D01*
G01X4164627Y1421435D01*
G01X4163692Y1417079D01*
G01X4162966Y1412685D01*
G01X4162445Y1408260D01*
G01X4162133Y1403817D01*
G01X4162026Y1399365D01*
G01Y1213945D01*
G01X4162133Y1209492D01*
G01X4162445Y1205050D01*
G01X4162966Y1200625D01*
G01X4163692Y1196231D01*
G01X4164627Y1191875D01*
G01X4165762Y1187569D01*
G01X4167098Y1183320D01*
G01X4168633Y1179139D01*
G01X4170362Y1175034D01*
G01X4172280Y1171014D01*
G01X4174386Y1167089D01*
G01X4176674Y1163267D01*
G01X4179138Y1159556D01*
G01X4181772Y1155964D01*
G01X4184571Y1152502D01*
G01X4187533Y1149172D01*
G01X4190644Y1145987D01*
G01X4193903Y1142949D01*
G01X4197299Y1140069D01*
G01X4200827Y1137351D01*
G01X4204480Y1134801D01*
G01X4208246Y1132426D01*
G01X4212122Y1130229D01*
G01X4216095Y1128215D01*
G01X4220159Y1126391D01*
G01X4224302Y1124758D01*
G01X4228518Y1123323D01*
G01X4232798Y1122086D01*
G01X4237131Y1121052D01*
G01X4241505Y1120221D01*
G01X4245917Y1119596D01*
G01X4250352Y1119180D01*
G01X4254799Y1118972D01*
G01X4259255D01*
G01X4263702Y1119180D01*
G01X4268137Y1119596D01*
G01X4272549Y1120221D01*
G01X4276923Y1121052D01*
G01X4281256Y1122086D01*
G01X4285536Y1123323D01*
G01X4289752Y1124758D01*
G01X4293895Y1126391D01*
G01X4297959Y1128215D01*
G01X4301932Y1130229D01*
G01X4305808Y1132426D01*
G01X4309575Y1134801D01*
G01X4313227Y1137351D01*
G01X4316755Y1140069D01*
G01X4320151Y1142949D01*
G01X4323410Y1145987D01*
G01X4326521Y1149172D01*
G01X4329483Y1152502D01*
G01X4332282Y1155964D01*
G01X4334916Y1159556D01*
G01X4337380Y1163267D01*
G01X4339668Y1167089D01*
G01X4341774Y1171014D01*
G01X4343692Y1175034D01*
G01X4345422Y1179139D01*
G01X4346956Y1183320D01*
G01X4348292Y1187569D01*
G01X4349427Y1191875D01*
G01X4350362Y1196231D01*
G01X4351088Y1200625D01*
G01X4351609Y1205050D01*
G01X4351921Y1209492D01*
G01X4352028Y1213945D01*
G37*
G54D21*
G01X4478401Y-1469199D03*
G01X4478401Y-969200D03*
G54D22*
G01X5478399Y-669201D03*
G01X5478399Y-1769199D03*
G54D23*
G01X5553054Y1181661D03*
G01X5553054Y1086665D03*
G01X5553054Y991669D03*
G01X5323235Y991669D03*
G01X5323235Y1086665D03*
G01X5323235Y1181661D03*
G54D24*
G01X4003045Y-1106040D03*
G01X4003045Y-1572029D03*
G54D25*
G01X5566415Y1969366D03*
G01X5563875Y1499365D03*
G54D26*
G01X5488381Y237287D03*
G01X6119419Y-12700D03*
G01X5488381Y-262687D03*
G54D27*
G01X5346286Y-932635D03*
G01X5580804Y-932635D03*
G01X5346286Y-1339035D03*
G01X5580804Y-1339035D03*
G54D28*
G01X3623594Y2089965D03*
G01X3623594Y1962965D03*
G01X3623594Y1835965D03*
G01X3623594Y1708965D03*
G01X3087095Y2089965D03*
G01X3087095Y1962965D03*
G01X3087095Y1835965D03*
G01X3087095Y1708965D03*
G01X3636294Y1531165D03*
G01X3636294Y1404165D03*
G01X3636294Y1277165D03*
G01X3636294Y1150165D03*
G01X3099795Y1531165D03*
G01X3099795Y1404165D03*
G01X3099795Y1277165D03*
G01X3099795Y1150165D03*
G54D29*
G01X3773246Y2305865D03*
G54D30*
G01X3623244Y2305865D03*
G54D31*
G01X3029133Y2348956D03*
G01X3129132Y2348956D03*
G01X3229132Y2348956D03*
G01X3329132Y2348956D03*
G01X3429132Y2348956D03*
G01X3529132Y2348956D03*
G54D32*
G01X2918160Y2719974D03*
G01X3640130Y2719974D03*
G54D33*
G01X810209Y2146300D03*
G01X1247191Y2146300D03*
G54D34*
G01X4776546Y2305865D03*
G54D30*
G01X4626544Y2305865D03*
G54D31*
G01X4007033Y2348956D03*
G01X4107032Y2348956D03*
G01X4207032Y2348956D03*
G01X4307032Y2348956D03*
G01X4407032Y2348956D03*
G01X4507032Y2348956D03*
G54D32*
G01X3896060Y2719974D03*
G01X4618030Y2719974D03*
G54D35*
G01X1352745Y375465D03*
G01X582744Y375465D03*
G01X1352745Y-361135D03*
G01X582744Y-361135D03*
G54D36*
G01X829894Y668706D03*
G01X744906Y668706D03*
G01X829894Y753669D03*
G01X744906Y753694D03*
G01X45039Y2457506D03*
G01X-39949Y2457506D03*
G01X45039Y2542469D03*
G01X-39949Y2542494D03*
G01X42494Y1957506D03*
G01X-42494Y1957506D03*
G01X42494Y2042469D03*
G01X-42494Y2042494D03*
G01X42494Y1457506D03*
G01X-42494Y1457506D03*
G01X42494Y1542469D03*
G01X-42494Y1542494D03*
G01X42494Y957506D03*
G01X-42494Y957506D03*
G01X42494Y1042469D03*
G01X-42494Y1042494D03*
G01X42494Y457506D03*
G01X-42494Y457506D03*
G01X42494Y542469D03*
G01X-42494Y542494D03*
G01X42494Y-42494D03*
G01X-42494Y-42494D03*
G01X42494Y42469D03*
G01X-42494Y42494D03*
G01X42494Y-542494D03*
G01X-42494Y-542494D03*
G01X42494Y-457531D03*
G01X-42494Y-457506D03*
G01X42494Y-1042494D03*
G01X-42494Y-1042494D03*
G01X42494Y-957531D03*
G01X-42494Y-957506D03*
G01X42494Y-1542494D03*
G01X-42494Y-1542494D03*
G01X42494Y-1457531D03*
G01X-42494Y-1457506D03*
G01X45039Y-2042494D03*
G01X-39949Y-2042494D03*
G01X45039Y-1957531D03*
G01X-39949Y-1957506D03*
G54D30*
G01X5122500Y787400D03*
G01X5037500Y787400D03*
G54D37*
G01X4122318Y-127000D03*
G01X4208882Y-127000D03*
G01X4122318Y0D03*
G01X4208882Y0D03*
G01X4122318Y127000D03*
G01X4208882Y127000D03*
G01X4122318Y254000D03*
G01X4208882Y254000D03*
G01X4122318Y381000D03*
G01X4208882Y381000D03*
G01X4122318Y508000D03*
G01X4208882Y508000D03*
G54D29*
G01X2449245Y-831035D03*
G01X2534245Y-831035D03*
G54D38*
G01X2821945Y-810816D03*
G01X2821945Y-724253D03*
G01X2948945Y-810816D03*
G01X2948945Y-724253D03*
G54D30*
G01X2534245Y870765D03*
G01X2449245Y870765D03*
G54D39*
G01X2819400Y817982D03*
G01X2819400Y731418D03*
G01X2946400Y817982D03*
G01X2946400Y731418D03*
G54D40*
G01X3622045Y-716835D03*
G01X3622045Y-538835D03*
G54D41*
G01X4015745Y-716835D03*
G01X4015745Y-538835D03*
G01X4218945Y-716835D03*
G01X4218945Y-538835D03*
G01X3825245Y-716835D03*
G01X3825245Y-538835D03*
G01X3418845Y-716835D03*
G01X3418845Y-538835D03*
G01X3215645Y-716835D03*
G01X3215645Y-538835D03*
G54D42*
G01X4409445Y1758965D03*
G01X4409445Y1912965D03*
G54D43*
G01X4117345Y1758965D03*
G01X4117345Y1912965D03*
G54D41*
G01X5006345Y997665D03*
G01X5006345Y1175665D03*
G54D44*
G01X5184145Y967965D03*
G01X5184145Y1052965D03*
G01X5184145Y1171165D03*
G01X5184145Y1256165D03*
G54D41*
G01X5006345Y1823165D03*
G01X5006345Y2001165D03*
G54D45*
G01X5006245Y1645665D03*
G01X5006245Y1467665D03*
G54D44*
G01X5819145Y993365D03*
G01X5819145Y1078365D03*
G54D46*
G01X5017445Y-716735D03*
G01X4817445Y-716735D03*
G54D39*
G01X3914145Y1930047D03*
G01X3914145Y1843484D03*
G54D47*
G01X3793495Y1922915D03*
G01X3793495Y1837915D03*
G54D39*
G01X2860045Y1917347D03*
G01X2860045Y1830784D03*
G54D37*
G01X3792118Y1498600D03*
G01X3878682Y1498600D03*
G54D47*
G01X3806195Y1376815D03*
G01X3806195Y1291815D03*
G54D39*
G01X2860045Y1383947D03*
G01X2860045Y1297384D03*
G54D29*
G01X1392600Y2171700D03*
G01X1477600Y2171700D03*
G54D30*
G01X400107Y1764767D03*
G01X315107Y1764767D03*
G01X398100Y1651000D03*
G01X313100Y1651000D03*
G54D44*
G01X1485900Y1849800D03*
G01X1485900Y1934800D03*
G54D29*
G01X2256200Y1854200D03*
G01X2341200Y1854200D03*
G01X2256200Y1955800D03*
G01X2341200Y1955800D03*
G54D47*
G01X1104900Y29800D03*
G01X1104900Y-55200D03*
G54D48*
G01X350057Y2186319D03*
G01X284943Y2131681D03*
G01X540557Y1970419D03*
G01X475443Y1915781D03*
G54D30*
G01X626700Y762000D03*
G01X541700Y762000D03*
G54D29*
G01X-42500Y2349500D03*
G01X42500Y2349500D03*
G01X-42500Y1841500D03*
G01X42500Y1841500D03*
G01X-42500Y1346200D03*
G01X42500Y1346200D03*
G01X-44948Y848870D03*
G01X40052Y848870D03*
G01X-39955Y350065D03*
G01X45045Y350065D03*
G01X-44201Y-155690D03*
G01X40799Y-155690D03*
G01X-39955Y-653235D03*
G01X45045Y-653235D03*
G01X-46153Y-1158990D03*
G01X38847Y-1158990D03*
G01X-42500Y-1651000D03*
G01X42500Y-1651000D03*
G01X-42500Y-2159000D03*
G01X42500Y-2159000D03*
G54D49*
G01X2195936Y-831035D03*
G01X2304953Y-831035D03*
G54D38*
G01X5692145Y992584D03*
G01X5692145Y1079147D03*
G01X5692145Y1208484D03*
G01X5692145Y1295047D03*
G54D37*
G01X5420263Y-1072335D03*
G01X5506826Y-1072335D03*
G01X5420263Y-1199335D03*
G01X5506826Y-1199335D03*
G54D50*
G01X5506826Y-1478735D03*
G01X5420263Y-1478735D03*
G01X1478382Y2057400D03*
G01X1391818Y2057400D03*
G54D39*
G01X1384300Y1935582D03*
G01X1384300Y1849018D03*
G01X1219200Y30582D03*
G01X1219200Y-55982D03*
G54D38*
G01X1003300Y-55982D03*
G01X1003300Y30582D03*
G54D51*
G01X472321Y2049644D03*
G01X416679Y2115956D03*
G54D50*
G01X627482Y647700D03*
G01X540918Y647700D03*
G54D52*
G01X4993645Y-999233D03*
G54D53*
G01X4896134Y-882241D03*
G01X4961133Y-882241D03*
G01X5026131Y-882241D03*
G01X5091155Y-882241D03*
G01X4896134Y-1186228D03*
G01X4961133Y-1186228D03*
G01X5026131Y-1186228D03*
G01X5091155Y-1186228D03*
G54D54*
G01X4993645Y-1488336D03*
G54D55*
G01X5091155Y-1605328D03*
G01X5026157Y-1605328D03*
G01X4961158Y-1605328D03*
G01X4896134Y-1605328D03*
G01X5091155Y-1301341D03*
G01X5026157Y-1301341D03*
G01X4961158Y-1301341D03*
G01X4896134Y-1301341D03*
G54D36*
G01X42494Y-2542494D03*
G01X-42494Y-2542494D03*
G01X42494Y-2457531D03*
G01X-42494Y-2457506D03*
G54D29*
G01X-42500Y-2336800D03*
G01X42500Y-2336800D03*
G01X2484800Y1066800D03*
G01X2569800Y1066800D03*
G54D44*
G01X825500Y1837100D03*
G01X825500Y1922100D03*
G54D29*
G01X2484800Y1625600D03*
G01X2569800Y1625600D03*
G01X2484800Y1511300D03*
G01X2569800Y1511300D03*
G01X2484800Y1409700D03*
G01X2569800Y1409700D03*
G01X2484800Y1308100D03*
G01X2569800Y1308100D03*
G01X2484800Y1206500D03*
G01X2569800Y1206500D03*
G54D37*
G01X579018Y0D03*
G01X665582Y0D03*
G01X579018Y101600D03*
G01X665582Y101600D03*
G01X4325518Y0D03*
G01X4412082Y0D03*
G01X4325518Y-127000D03*
G01X4412082Y-127000D03*
G01X4325518Y127000D03*
G01X4412082Y127000D03*
G01X4325518Y254000D03*
G01X4412082Y254000D03*
G01X4325518Y381000D03*
G01X4412082Y381000D03*
G01X4325518Y508000D03*
G01X4412082Y508000D03*
G54D56*
G01X4813300Y-2069353D03*
G54D57*
G01X4615434Y-2167611D03*
G01X4615409Y-2102587D03*
G01X4615409Y-2037588D03*
G01X4615409Y-1972589D03*
G54D58*
G01X4286499Y-2223201D03*
G01X4381495Y-1993199D03*
G01X4476501Y-2223201D03*
G54D29*
G01X4740897Y-2425700D03*
G54D30*
G01X4580903Y-2425700D03*
G54D50*
G01X4704182Y-2540000D03*
G01X4617618Y-2540000D03*
G54D38*
G01X4851400Y-2532482D03*
G01X4851400Y-2445918D03*
G54D50*
G01X4462882Y-2425700D03*
G01X4376318Y-2425700D03*
G01X4462882Y-2540000D03*
G01X4376318Y-2540000D03*
G54D59*
G01X3632200Y-1133500D03*
G01X3632200Y-1533500D03*
G54D60*
G01X277099Y2997200D03*
G01X815101Y2997200D03*
G54D47*
G01X2146300Y766400D03*
G01X2146300Y681400D03*
G54D61*
G01X5575300Y597700D03*
G01X5575300Y443700D03*
G54D30*
G01X4750300Y-546100D03*
G01X4665300Y-546100D03*
G01X4974500Y-550500D03*
G01X4889500Y-550500D03*
G01X5186000Y-558800D03*
G01X5101000Y-558800D03*
G54D62*
G01X2270244Y1653784D03*
G01X2270244Y1603771D03*
G01X2270244Y1553784D03*
G01X2270244Y1503771D03*
G01X2270244Y1453784D03*
G01X2270244Y1403772D03*
G01X2270244Y1353784D03*
G01X2270244Y1303772D03*
G01X2270244Y1253785D03*
G01X2270244Y1203772D03*
G01X2270244Y1153785D03*
G01X2270244Y1103772D03*
G54D63*
G01X2195238Y1028766D03*
G01X2145225Y1028766D03*
G01X2095238Y1028766D03*
G01X2045226Y1028766D03*
G01X1995238Y1028766D03*
G01X1945226Y1028766D03*
G01X1895239Y1028766D03*
G01X1845226Y1028766D03*
G01X1795239Y1028766D03*
G01X1745226Y1028766D03*
G01X1695239Y1028766D03*
G01X1645226Y1028766D03*
G54D62*
G01X1570246Y1103772D03*
G01X1570246Y1153785D03*
G01X1570246Y1203772D03*
G01X1570246Y1253785D03*
G01X1570246Y1303772D03*
G01X1570246Y1353784D03*
G01X1570246Y1403772D03*
G01X1570246Y1453784D03*
G01X1570246Y1503771D03*
G01X1570246Y1553784D03*
G01X1570246Y1603771D03*
G01X1570246Y1653784D03*
G54D63*
G01X1645226Y1728765D03*
G01X1695239Y1728765D03*
G01X1745226Y1728765D03*
G01X1795239Y1728765D03*
G01X1845226Y1728765D03*
G01X1895239Y1728765D03*
G01X1945226Y1728765D03*
G01X1995238Y1728765D03*
G01X2045226Y1728765D03*
G01X2095238Y1728765D03*
G01X2145225Y1728765D03*
G01X2195238Y1728765D03*
G54D64*
G01X1920232Y1378778D03*
G54D65*
G01X613982Y1721599D03*
G01X663994Y1721599D03*
G01X713981Y1721599D03*
G01X763994Y1721599D03*
G01X813981Y1721599D03*
G01X863994Y1721599D03*
G01X913981Y1721599D03*
G01X963994Y1721599D03*
G01X1013981Y1721599D03*
G01X1063993Y1721599D03*
G01X1113981Y1721599D03*
G01X1163993Y1721599D03*
G54D66*
G01X1238999Y1646593D03*
G01X1238999Y1596581D03*
G01X1238999Y1546593D03*
G01X1238999Y1496581D03*
G01X1238999Y1446594D03*
G01X1238999Y1396581D03*
G01X1238999Y1346594D03*
G01X1238999Y1296581D03*
G01X1238999Y1246594D03*
G01X1238999Y1196581D03*
G01X1238999Y1146594D03*
G01X1238999Y1096582D03*
G54D65*
G01X1163993Y1021601D03*
G01X1113981Y1021601D03*
G01X1063993Y1021601D03*
G01X1013981Y1021601D03*
G01X963994Y1021601D03*
G01X913981Y1021601D03*
G01X863994Y1021601D03*
G01X813981Y1021601D03*
G01X763994Y1021601D03*
G01X713981Y1021601D03*
G01X663994Y1021601D03*
G01X613982Y1021601D03*
G54D66*
G01X539001Y1096582D03*
G01X539001Y1146594D03*
G01X539001Y1196581D03*
G01X539001Y1246594D03*
G01X539001Y1296581D03*
G01X539001Y1346594D03*
G01X539001Y1396581D03*
G01X539001Y1446594D03*
G01X539001Y1496581D03*
G01X539001Y1546593D03*
G01X539001Y1596581D03*
G01X539001Y1646593D03*
G54D67*
G01X888987Y1371587D03*
G04 Pad End*

G04 Via Start*
G54D68*
G01X5857347Y192521D03*
G01X5793745Y192521D03*
G01X5655778Y192521D03*
G01X5727700Y190500D03*
G54D69*
G01X5803900Y1295400D03*
G01X5753100Y1295400D03*
G54D68*
G01X5829300Y1701800D03*
G01X5448300Y1701800D03*
G01X5600700Y1701800D03*
G01X5372100Y1701800D03*
G01X5857347Y271482D03*
G01X5793745Y271482D03*
G01X5654461Y271482D03*
G01X5816600Y1079500D03*
G01X5321300Y939800D03*
G54D69*
G01X5222245Y1848665D03*
G01X5222245Y1810565D03*
G54D68*
G01X5257800Y1727200D03*
G01X5676900Y1701800D03*
G01X5753100Y1701800D03*
G01X5524500Y1701800D03*
G54D69*
G01X1381191Y1937873D03*
G01X1511300Y2286000D03*
G01X1460500Y2286000D03*
G54D68*
G01X5273045Y-107135D03*
G54D69*
G01X3022600Y546100D03*
G01X2959100Y546100D03*
G01X3022600Y482600D03*
G01X2959100Y482600D03*
G54D68*
G01X2641600Y533400D03*
G54D69*
G01X2362200Y1257300D03*
G01X2374900Y1473200D03*
G01X2484800Y1308100D03*
G01X2044700Y863600D03*
G01X1905000Y850900D03*
G01X2484800Y1409700D03*
G01X2354125Y1403772D03*
G01X1346200Y1511300D03*
G01X2071361Y-363444D03*
G01X2122161Y-363444D03*
G01X2020561Y-363444D03*
G01X2071361Y-414244D03*
G01X2122161Y-414244D03*
G01X2020561Y-414244D03*
G54D68*
G01X2540000Y2108200D03*
G54D69*
G01X2527300Y2006600D03*
G01X1485900Y1849800D03*
G54D68*
G01X1676400Y1892300D03*
G01X1612900Y1892300D03*
G54D69*
G01X1460500Y1600200D03*
G01X1498600Y1701800D03*
G01X1651000Y2489200D03*
G01X1397000Y2463800D03*
G01X1854200Y2425700D03*
G01X1765300Y2425700D03*
G01X1371600Y2413000D03*
G54D68*
G01X1676400Y2082800D03*
G01X1612900Y2082800D03*
G54D69*
G01X1841500Y2336800D03*
G01X1371600Y1765300D03*
G54D68*
G01X1676400Y2019300D03*
G01X1612900Y2019300D03*
G01X1676400Y1955800D03*
G01X1612900Y1955800D03*
G54D69*
G01X1612900Y2171700D03*
G54D68*
G01X-42500Y2261332D03*
G01X2997200Y2298700D03*
G54D69*
G01X3098800Y2184400D03*
G01X2997200Y2184400D03*
G01X3048000Y2184400D03*
G01X2946400Y2184400D03*
G54D68*
G01X3966349Y-285125D03*
G01X3890149Y-285125D03*
G01X3813949Y-285125D03*
G01X3890149Y159324D03*
G01X3813949Y159324D03*
G54D69*
G01X4114800Y254000D03*
G54D68*
G01X3966349Y95824D03*
G01X3890149Y95824D03*
G01X3813949Y95824D03*
G01X3966349Y-158125D03*
G01X3890149Y-158125D03*
G01X3813949Y-158125D03*
G01X3966349Y-221625D03*
G01X3890149Y-221625D03*
G01X3813949Y-221625D03*
G54D69*
G01X3962400Y1193800D03*
G01X3911600Y1193800D03*
G01X3860800Y1193800D03*
G01X3810000Y1193800D03*
G54D68*
G01X3964945Y591365D03*
G01X3888745Y591365D03*
G01X3812545Y591365D03*
G01X3888745Y527865D03*
G01X3812545Y527865D03*
G54D69*
G01X4178300Y622300D03*
G01X3962400Y1308100D03*
G01X3962400Y1257300D03*
G01X3911600Y1257300D03*
G54D68*
G01X965200Y-596900D03*
G01X2987045Y1594665D03*
G54D69*
G01X2821945Y-208735D03*
G01X2872745Y-208735D03*
G01X2771145Y-208735D03*
G01X3111500Y-241300D03*
G01X3009900Y-241300D03*
G01X3060700Y-241300D03*
G01X2959100Y-241300D03*
G01X2821945Y-259535D03*
G01X2872745Y-259535D03*
G01X2771145Y-259535D03*
G01X3009900Y-292100D03*
G01X2959100Y-292100D03*
G01X2821945Y-310335D03*
G01X2872745Y-310335D03*
G01X2771145Y-310335D03*
G54D68*
G01X2899085Y-728997D03*
G01X2783845Y1975665D03*
G54D69*
G01X2821945Y311965D03*
G01X2872745Y311965D03*
G01X2771145Y311965D03*
G01X3022600Y292100D03*
G01X2971800Y292100D03*
G01X2821945Y261165D03*
G01X2872745Y261165D03*
G01X2771145Y261165D03*
G01X3022600Y241300D03*
G01X2971800Y241300D03*
G54D68*
G01X2956412Y1741833D03*
G01X2839524Y1741833D03*
G01X2895735Y1741833D03*
G01X2785509Y1741833D03*
G01X2959100Y1676400D03*
G01X2839744Y1674498D03*
G01X2897272Y1674498D03*
G01X2785509Y1674498D03*
G54D69*
G01X2948945Y1162865D03*
G01X2885445Y1162865D03*
G01X2705100Y1384300D03*
G01X2809245Y1378765D03*
G01X2948945Y1366065D03*
G54D68*
G01X2743200Y-774700D03*
G01X2819400Y2133600D03*
G54D69*
G01X2946400Y2133600D03*
G01X2946400Y2082800D03*
G54D68*
G01X2654300Y2057400D03*
G54D69*
G01X2946400Y2032000D03*
G54D68*
G01X2885214Y954484D03*
G01X2694945Y936145D03*
G54D69*
G01X2806700Y1219200D03*
G01X2948945Y1213665D03*
G01X2885445Y1213665D03*
G54D68*
G01X2946400Y2730500D03*
G01X2882900Y2730500D03*
G54D69*
G01X3022600Y190500D03*
G01X2971800Y190500D03*
G01X2821691Y183326D03*
G01X2872491Y183326D03*
G01X2770891Y183326D03*
G01X3112292Y-188935D03*
G01X3009900Y-190500D03*
G01X3060700Y-190500D03*
G01X2959100Y-190500D03*
G54D68*
G01X2895600Y1028700D03*
G54D69*
G01X3022600Y139700D03*
G01X2821691Y132526D03*
G01X2872491Y132526D03*
G01X2770891Y132526D03*
G01X2821691Y81726D03*
G01X2872491Y81726D03*
G01X2770891Y81726D03*
G01X2821945Y-81735D03*
G01X2872745Y-81735D03*
G01X2771145Y-81735D03*
G01X2821945Y-132535D03*
G01X2872745Y-132535D03*
G01X2771145Y-132535D03*
G01X2809245Y1302565D03*
G01X2999745Y1340665D03*
G01X2707645Y1315265D03*
G01X2948945Y1315265D03*
G54D68*
G01X2768600Y2641600D03*
G54D69*
G01X2821945Y362765D03*
G01X2872745Y362765D03*
G01X2771145Y362765D03*
G01X2743200Y-838200D03*
G01X2946400Y-889000D03*
G01X2821945Y-30935D03*
G01X2872745Y-30935D03*
G01X2771145Y-30935D03*
G01X2006600Y2590800D03*
G01X1905000Y2590800D03*
G54D68*
G01X2235200Y2451100D03*
G01X-38100Y2616200D03*
G01X3329132Y2590800D03*
G54D69*
G01X1841500Y850900D03*
G54D68*
G01X1765300Y850900D03*
G01X1689100Y850900D03*
G54D69*
G01X1666245Y-437335D03*
G01X1615445Y-437335D03*
G01X1564645Y-437335D03*
G01X1666245Y-488135D03*
G01X1615445Y-488135D03*
G01X1564645Y-488135D03*
G01X1666245Y-386535D03*
G01X1615445Y-386535D03*
G01X1564645Y-386535D03*
G01X1540441Y1017487D03*
G01X1470526Y1013326D03*
G01X1778000Y-152400D03*
G01X1828800Y-152400D03*
G01X1727200Y-152400D03*
G01X1333500Y1117600D03*
G01X1333500Y1371600D03*
G01X1485900Y1333500D03*
G01X1333500Y1308100D03*
G01X1333500Y1244600D03*
G01X1778000Y-203200D03*
G01X1828800Y-203200D03*
G01X1727200Y-203200D03*
G01X1778000Y-254000D03*
G01X1828800Y-254000D03*
G01X1727200Y-254000D03*
G01X1473200Y939800D03*
G01X1409700Y914400D03*
G01X1296129Y865377D03*
G01X1386845Y629465D03*
G01X1488445Y578665D03*
G01X1437645Y578665D03*
G01X1386845Y578665D03*
G54D68*
G01X1368703Y-810278D03*
G01X1309418Y-810278D03*
G01X1574800Y711200D03*
G01X1574800Y635000D03*
G54D69*
G01X1488445Y629465D03*
G01X1437645Y629465D03*
G01X1488445Y527865D03*
G01X1437645Y527865D03*
G01X1386845Y527865D03*
G54D68*
G01X2301245Y-907235D03*
G01X3966349Y159324D03*
G01X3977645Y-538935D03*
G01X3797300Y-533400D03*
G01X3860800Y-533400D03*
G01X4053845Y-538935D03*
G01X4193545Y-996135D03*
G01X4193545Y-1072435D03*
G01X4193545Y-1161235D03*
G01X4193545Y-856435D03*
G01X4117345Y-856435D03*
G01X4193545Y-919935D03*
G01X4117345Y-919935D03*
G54D69*
G01X5393383Y2140765D03*
G01X5219700Y2133600D03*
G01X4178300Y2476500D03*
G01X4102100Y2476500D03*
G01X4076700Y609600D03*
G54D68*
G01X3888745Y464365D03*
G01X3812545Y464365D03*
G54D69*
G01X3747000Y395000D03*
G54D68*
G01X3773246Y2305865D03*
G01X3939545Y1721665D03*
G01X3876045Y1721665D03*
G01X3812545Y1721665D03*
G01X3964945Y223065D03*
G01X3890149Y222824D03*
G01X3813949Y222824D03*
G54D69*
G01X4038600Y317500D03*
G01X3746500Y304800D03*
G54D68*
G01X4165600Y1003300D03*
G01X3939545Y1658165D03*
G01X3876045Y1658165D03*
G01X3812545Y1658165D03*
G01X3939545Y1594665D03*
G01X3876045Y1594665D03*
G01X3812545Y1594665D03*
G54D69*
G01X4140200Y2070100D03*
G01X4089400Y2070100D03*
G54D68*
G01X3939545Y2064565D03*
G01X3876045Y2064565D03*
G01X3812545Y2064565D03*
G54D69*
G01X4140200Y2019300D03*
G01X4089400Y2019300D03*
G54D68*
G01X3939545Y2001065D03*
G01X3876045Y2001065D03*
G01X3812545Y2001065D03*
G54D69*
G01X3886200Y2209800D03*
G54D68*
G01X3939545Y2128065D03*
G01X3876045Y2128065D03*
G01X3812545Y2128065D03*
G54D69*
G01X4140200Y2120900D03*
G01X4089400Y2120900D03*
G01X3962400Y1371600D03*
G01X3467100Y2209800D03*
G54D68*
G01X1193800Y-355600D03*
G01X-114300Y1955800D03*
G01X-42500Y1739115D03*
G01X-101600Y2463800D03*
G01X-44948Y749962D03*
G01X-101600Y-50800D03*
G01X-114300Y952500D03*
G01X-101600Y457200D03*
G01X-101600Y-1536700D03*
G01X2298700Y508000D03*
G54D69*
G01X2071361Y-465044D03*
G01X2122161Y-465044D03*
G01X2020561Y-465044D03*
G54D68*
G01X2540000Y-901700D03*
G01X2120900Y-901700D03*
G01X2451100Y-901700D03*
G01X2019300Y-901700D03*
G54D69*
G01X3596393Y24272D03*
G01X3545593Y24272D03*
G01X3500000Y24272D03*
G01X3594100Y673100D03*
G01X3543300Y673100D03*
G01X3500000Y673100D03*
G01X3594100Y393700D03*
G01X3543300Y393700D03*
G01X3492500Y393700D03*
G54D68*
G01X3964945Y-856435D03*
G01X4041145Y-856435D03*
G01X3888745Y-856435D03*
G01X4041145Y-919935D03*
G01X3623244Y2305865D03*
G01X3596645Y-538935D03*
G54D69*
G01X3596645Y210365D03*
G01X3545845Y210365D03*
G01X3500000Y210365D03*
G01X3594100Y-127000D03*
G01X3543300Y-127000D03*
G01X3500000Y-127000D03*
G01X3594100Y-177800D03*
G01X3543300Y-177800D03*
G01X3500000Y-177800D03*
G01X3596393Y75072D03*
G01X3545593Y75072D03*
G01X3500000Y75072D03*
G54D68*
G01X3253745Y-716735D03*
G01X3190245Y-716735D03*
G01X3416300Y1003300D03*
G01X3479800Y1003300D03*
G01X3556000Y1003300D03*
G01X3619500Y1003300D03*
G01X3352800Y1003300D03*
G01X3149600Y1003300D03*
G54D69*
G01X3594100Y495300D03*
G01X3543300Y495300D03*
G01X3492500Y495300D03*
G01X3594100Y444500D03*
G01X3543300Y444500D03*
G01X3492500Y444500D03*
G01X3594100Y-76200D03*
G01X3543300Y-76200D03*
G01X3500000Y-76200D03*
G01X3594100Y304800D03*
G01X3543300Y304800D03*
G01X3500000Y304800D03*
G01X3596645Y261165D03*
G01X3545845Y261165D03*
G01X3500000Y261165D03*
G01X3500000Y-304800D03*
G01X3596645Y-304916D03*
G01X3545845Y-304916D03*
G01X3500000Y-355600D03*
G01X3596645Y-355716D03*
G01X3545845Y-355716D03*
G01X3500000Y-254000D03*
G01X3596645Y-254116D03*
G01X3545845Y-254116D03*
G54D68*
G01X3520445Y1899465D03*
G54D69*
G01X3467100Y1816100D03*
G01X3467100Y1943100D03*
G01X3596645Y629465D03*
G01X3545845Y629465D03*
G01X3500000Y629465D03*
G01X3543300Y584200D03*
G01X3596645Y579723D03*
G01X3500000Y578665D03*
G01X3596393Y125872D03*
G01X3545593Y125872D03*
G01X3500000Y125872D03*
G01X3495045Y1353365D03*
G01X3444245Y1353365D03*
G01X3393445Y1353365D03*
G01X3495045Y1302565D03*
G01X3444245Y1302565D03*
G01X3393445Y1302565D03*
G01X3495045Y1251765D03*
G01X3444245Y1251765D03*
G01X3393445Y1251765D03*
G01X3695700Y1625600D03*
G01X3581400Y1536700D03*
G01X3467100Y1536700D03*
G01X3467100Y1473200D03*
G01X3568700Y1430000D03*
G01X3403600Y2209800D03*
G01X3329157Y2209800D03*
G01X3213100Y2209800D03*
G01X965200Y2260600D03*
G54D68*
G01X850900Y2247900D03*
G01X1244205Y-810278D03*
G01X939800Y342900D03*
G01X838200Y50800D03*
G01X1133134Y242344D03*
G01X898127Y232829D03*
G01X990600Y-266700D03*
G01X1244600Y711200D03*
G01X1133134Y162309D03*
G01X1133134Y97096D03*
G54D69*
G01X990554Y545492D03*
G01X1104900Y939800D03*
G54D68*
G01X889000Y927100D03*
G54D69*
G01X1104900Y876300D03*
G54D68*
G01X965200Y2082800D03*
G01X1030062Y2081698D03*
G01X1093398Y2081257D03*
G54D69*
G01X901700Y2413000D03*
G01X965200Y2336800D03*
G01X1092200Y1981200D03*
G01X990600Y1981200D03*
G01X1016000Y1854200D03*
G01X1143000Y1828800D03*
G01X1066800Y1816100D03*
G01X965200Y1816100D03*
G54D68*
G01X1041400Y2184400D03*
G01X1104900Y2184400D03*
G01X965200Y2184400D03*
G54D69*
G01X1231900Y2146300D03*
G54D68*
G01X114300Y-1447800D03*
G01X-114300Y-546100D03*
G01X-114300Y-1041400D03*
G01X4851400Y-685800D03*
G01X4787900Y-685800D03*
G01X4851400Y-749300D03*
G01X4787900Y-749300D03*
G54D69*
G01X4305300Y2476500D03*
G01X4241800Y2476500D03*
G01X4508500Y2476500D03*
G01X4394200Y2476500D03*
G01X5171445Y1848665D03*
G01X5120645Y1848665D03*
G54D68*
G01X5041900Y1816100D03*
G01X4978400Y1816100D03*
G54D69*
G01X5171445Y1810565D03*
G01X5120645Y1810565D03*
G54D68*
G01X5194300Y1727200D03*
G01X5130800Y1727200D03*
G01X5146045Y1607365D03*
G54D69*
G01X5397500Y762000D03*
G54D68*
G01X5105400Y2171700D03*
G54D69*
G01X5068107Y2120900D03*
G01X5461000Y762000D03*
G01X5168900Y2184400D03*
G54D68*
G01X4927600Y2184400D03*
G01X4777745Y2382065D03*
G01X4625345Y2382065D03*
G01X5194300Y-749300D03*
G01X5130800Y-749300D03*
G01X5194300Y-685800D03*
G01X5130800Y-685800D03*
G01X5323845Y-1199335D03*
G01X4927600Y-2463800D03*
G01X4648200Y-2413000D03*
G01X5067300Y-1663700D03*
G01X5067300Y-1790700D03*
G01X5067300Y-1727200D03*
G01X4508500Y-1968500D03*
G01X5323845Y-1072335D03*
G01X4851400Y-1968500D03*
G01X4787900Y-1968500D03*
G01X4724400Y-1968500D03*
G01X4851400Y-2032000D03*
G01X4787900Y-2032000D03*
G01X4724400Y-2032000D03*
G01X4851400Y-2095500D03*
G01X4787900Y-2095500D03*
G01X4724400Y-2095500D03*
G01X4851400Y-2159000D03*
G01X4787900Y-2159000D03*
G01X4724400Y-2159000D03*
G01X5158745Y-1300935D03*
G01X284943Y2131682D03*
G01X42494Y266700D03*
G54D69*
G01X571500Y952500D03*
G01X508000Y952500D03*
G54D68*
G01X762000Y939800D03*
G01X825500Y927100D03*
G54D69*
G01X685800Y927100D03*
G01X571500Y901700D03*
G01X508000Y901700D03*
G01X393700Y457200D03*
G01X444500Y1193800D03*
G54D68*
G01X622300Y2057400D03*
G01X114300Y2044700D03*
G54D69*
G01X406400Y1041400D03*
G54D68*
G01X114300Y1041400D03*
G54D69*
G01X609102Y558800D03*
G54D68*
G01X114300Y546100D03*
G01X584200Y-368300D03*
G01X317500Y1562100D03*
G54D69*
G01X626700Y762000D03*
G01X546100Y762000D03*
G54D68*
G01X45039Y2260600D03*
G01X698500Y2159000D03*
G01X698500Y-698500D03*
G01X45045Y-749300D03*
G01X114300Y-952500D03*
G01X42494Y749300D03*
G01X660400Y0D03*
G01X444500Y1549400D03*
G01X114300Y1549400D03*
G01X114300Y-457200D03*
G01X558800Y203200D03*
G01X660400Y101600D03*
G54D69*
G01X762000Y-190500D03*
G01X711200Y-190500D03*
G01X762000Y-241300D03*
G01X711200Y-241300D03*
G54D68*
G01X40799Y-254000D03*
G01X582744Y375465D03*
G54D69*
G01X762000Y-76200D03*
G01X711200Y-76200D03*
G01X762000Y-127000D03*
G01X711200Y-127000D03*
G54D68*
G01X749300Y2032000D03*
G01X469900Y1917700D03*
G54D69*
G01X635000Y889000D03*
G54D68*
G01X749300Y887311D03*
G01X406400Y825500D03*
G01X42494Y1739900D03*
G01X42500Y-2248800D03*
G01X444500Y1397000D03*
G54D69*
G01X800100Y2463800D03*
G01X431800Y1295400D03*
G01X342900Y1295400D03*
G54D68*
G01X42494Y1257300D03*
G01X114300Y50800D03*
G01X38100Y-1244600D03*
G01X38100Y-1739900D03*
G01X114300Y2540000D03*
G01X42494Y-2618547D03*
G01X-42500Y-2250612D03*
G01X-39949Y-1738521D03*
G01X-106583Y-2043242D03*
G01X-39955Y266632D03*
G01X-101600Y1460500D03*
G01X-42500Y1256854D03*
G01X-42494Y-253552D03*
G01X-42494Y-1244995D03*
G54D69*
G01X2019300Y2425700D03*
G01X1943100Y2425700D03*
G01X1905000Y2362200D03*
G54D68*
G01X2448404Y870765D03*
G54D69*
G01X2184400Y901700D03*
G01X2120900Y901700D03*
G54D68*
G01X5067300Y-1600200D03*
G01X5067300Y-1409700D03*
G01X5067300Y-1473200D03*
G01X5067300Y-1536700D03*
G01X4673600Y1104900D03*
G01X4457700Y2197100D03*
G01X4394200Y2197100D03*
G01X4305300Y2171700D03*
G01X4229100Y2146300D03*
G01X4305300Y2120900D03*
G01X4229100Y2095500D03*
G01X4381495Y-2311400D03*
G54D69*
G01X4368800Y1041400D03*
G01X4318000Y1041400D03*
G01X4762500Y990600D03*
G01X4813300Y990600D03*
G01X4711700Y990600D03*
G01X4368800Y990600D03*
G01X4318000Y990600D03*
G01X4762500Y939800D03*
G01X4813300Y939800D03*
G01X4711700Y939800D03*
G01X4368800Y939800D03*
G01X4318000Y939800D03*
G01X4873048Y1898530D03*
G54D68*
G01X4376318Y-2641600D03*
G01X-39955Y-751383D03*
G01X3964945Y-919935D03*
G01X3888745Y-919935D03*
G01X5722309Y271482D03*
G01X3958260Y533210D03*
G01X3962400Y469900D03*
G54D69*
G01X4114800Y127000D03*
G01X4512882Y-1D03*
G01X4127500Y431800D03*
G01X4512932Y508000D03*
G01X4513682Y254000D03*
G01X5270500Y711200D03*
G01X5029200Y787400D03*
G01X4737100Y241300D03*
G01X4686300Y381000D03*
G01X4851400Y241300D03*
G01X4572000Y-139700D03*
G01X4622800Y381000D03*
G01X5067300Y330200D03*
G01X5182006Y185192D03*
G01X5003800Y241300D03*
G01X4876800Y381000D03*
G01X4749800Y381000D03*
G54D68*
G01X4663445Y-414894D03*
G01X4901435Y-422839D03*
G01X5476245Y-427594D03*
G01X5067300Y-431800D03*
G01X5295900Y-546100D03*
G01X5308600Y-457200D03*
G01X4902200Y-304800D03*
G01X5016500Y-274320D03*
G01X4470400Y-546100D03*
G01X4521200Y-317500D03*
G54D69*
G01X4664537Y-88900D03*
G01X4533900Y-203200D03*
G01X4406900Y-203200D03*
G01X4483100Y-152400D03*
G01X5473700Y25400D03*
G01X4940300Y381000D03*
G01X4513682Y381000D03*
G01X4914900Y241300D03*
G01X4673600Y241300D03*
G54D68*
G01X3390211Y-703935D03*
G01X3453711Y-703935D03*
G01X3590682Y-703935D03*
G01X3654182Y-703935D03*
G01X3793773Y-704035D03*
G01X3857273Y-704035D03*
G01X3989004Y-704035D03*
G01X4052504Y-704035D03*
G01X4180745Y-703835D03*
G01X4244245Y-703835D03*
G01X4193506Y-538835D03*
G01X4257006Y-538835D03*
G01X3468277Y-538798D03*
G01X3531777Y-538798D03*
G01X3671484Y-537810D03*
G01X3734984Y-537810D03*
G01X4584700Y-2336800D03*
G01X4648200Y-2336800D03*
G01X4711700Y-2336800D03*
G01X4775200Y-2336800D03*
G01X4775200Y-2273300D03*
G01X4711700Y-2273300D03*
G01X4648200Y-2273300D03*
G01X4584700Y-2273300D03*
G01X4838700Y-2336800D03*
G01X4838700Y-2273300D03*
G54D69*
G01X4953000Y774700D03*
G01X4800600Y762000D03*
G01X4664537Y774700D03*
G01X4864100Y762000D03*
G01X4599538Y723900D03*
G01X4508500Y711200D03*
G01X4165600Y680720D03*
G01X5116698Y787400D03*
G54D68*
G01X5222245Y1607365D03*
G54D69*
G01X4866645Y1581965D03*
G01X5613400Y1295400D03*
G01X5562600Y1295400D03*
G01X5562600Y1248132D03*
G01X5131524Y1326613D03*
G54D68*
G01X5574500Y441500D03*
G01X5574500Y598500D03*
G54D69*
G01X4762500Y2026465D03*
G01X4864100Y1676400D03*
G01X4699000Y1625600D03*
G01X4749800Y1333500D03*
G01X4660900Y1397000D03*
G01X4610100Y1587500D03*
G01X4660900Y1333500D03*
G01X4610100Y1816100D03*
G01X4538332Y1524000D03*
G01X4539082Y1244600D03*
G54D68*
G01X1714500Y495300D03*
G01X4546600Y1041400D03*
G01X5005612Y996987D03*
G01X5930900Y1143000D03*
G01X3568700Y-1460500D03*
G01X3632200Y-1460500D03*
G01X3695700Y-1460500D03*
G01X3632200Y-1530787D03*
G01X3695700Y-1530787D03*
G01X3568700Y-1530787D03*
G01X3632200Y-1600200D03*
G01X3695700Y-1600200D03*
G01X3568700Y-1600200D03*
G01X1244600Y635000D03*
G54D69*
G01X254000Y-876300D03*
G01X330276Y-876300D03*
G01X406400Y-876300D03*
G01X482600Y-876300D03*
G01X254000Y-946799D03*
G01X330276Y-946799D03*
G01X406400Y-946799D03*
G01X482600Y-946799D03*
G01X254000Y-1016000D03*
G01X482600Y-1016000D03*
G01X330276Y-1016000D03*
G01X406400Y-1016000D03*
G01X254000Y-1092200D03*
G01X482600Y-1092200D03*
G01X330276Y-1092200D03*
G01X406400Y-1092200D03*
G01X254000Y-1168400D03*
G01X482600Y-1168400D03*
G01X330276Y-1168400D03*
G01X406400Y-1168400D03*
G01X254000Y-1231900D03*
G01X254000Y-1371600D03*
G01X254000Y-1302399D03*
G01X254000Y-1447800D03*
G01X254000Y-1524000D03*
G01X330276Y-1231900D03*
G01X406400Y-1231900D03*
G01X482600Y-1371600D03*
G01X330276Y-1371600D03*
G01X406400Y-1371600D03*
G01X482600Y-1302399D03*
G01X330276Y-1302399D03*
G01X406400Y-1302399D03*
G01X482600Y-1447800D03*
G01X330276Y-1447800D03*
G01X406400Y-1447800D03*
G01X482600Y-1524000D03*
G01X330276Y-1524000D03*
G01X406400Y-1524000D03*
G01X482600Y-1231900D03*
G01X5638800Y-1993900D03*
G01X5715000Y-2133600D03*
G01X5638800Y-2133600D03*
G01X5715000Y-2064399D03*
G01X5638800Y-2064399D03*
G01X5715000Y-2209800D03*
G01X5638800Y-2209800D03*
G01X5715000Y-2286000D03*
G01X5638800Y-2286000D03*
G01X5715000Y-1993900D03*
G01X5803900Y-1993900D03*
G01X5803900Y-2133600D03*
G01X5803900Y-2064399D03*
G01X5803900Y-2209800D03*
G01X5803900Y-2286000D03*
G01X5880176Y-1993900D03*
G01X5956300Y-1993900D03*
G01X6032500Y-2133600D03*
G01X5880176Y-2133600D03*
G01X5956300Y-2133600D03*
G01X6032500Y-2064399D03*
G01X5880176Y-2064399D03*
G01X5956300Y-2064399D03*
G01X6032500Y-2209800D03*
G01X5880176Y-2209800D03*
G01X5956300Y-2209800D03*
G01X6032500Y-2286000D03*
G01X5880176Y-2286000D03*
G01X5956300Y-2286000D03*
G01X6032500Y-1993900D03*
G01X5638800Y-2362200D03*
G01X5715000Y-2501900D03*
G01X5638800Y-2501900D03*
G01X5715000Y-2432699D03*
G01X5638800Y-2432699D03*
G01X5715000Y-2578100D03*
G01X5638800Y-2578100D03*
G01X5715000Y-2654300D03*
G01X5638800Y-2654300D03*
G01X5715000Y-2362200D03*
G01X5803900Y-2362200D03*
G01X5803900Y-2501900D03*
G01X5803900Y-2432699D03*
G01X5803900Y-2578100D03*
G01X5803900Y-2654300D03*
G01X5880176Y-2362200D03*
G01X5956300Y-2362200D03*
G01X6032500Y-2501900D03*
G01X5880176Y-2501900D03*
G01X5956300Y-2501900D03*
G01X6032500Y-2432699D03*
G01X5880176Y-2432699D03*
G01X5956300Y-2432699D03*
G01X6032500Y-2578100D03*
G01X5880176Y-2578100D03*
G01X5956300Y-2578100D03*
G01X6032500Y-2654300D03*
G01X5880176Y-2654300D03*
G01X5956300Y-2654300D03*
G01X6032500Y-2362200D03*
G01X5867400Y2679700D03*
G01X5867400Y2540000D03*
G01X5867400Y2609201D03*
G01X5867400Y2463800D03*
G01X5867400Y2387600D03*
G01X5943676Y2679700D03*
G01X6019800Y2679700D03*
G01X6096000Y2540000D03*
G01X5943676Y2540000D03*
G01X6019800Y2540000D03*
G01X6096000Y2609201D03*
G01X5943676Y2609201D03*
G01X6019800Y2609201D03*
G01X6096000Y2463800D03*
G01X5943676Y2463800D03*
G01X6019800Y2463800D03*
G01X6096000Y2387600D03*
G01X5943676Y2387600D03*
G01X6019800Y2387600D03*
G01X6096000Y2679700D03*
G01X5714924Y2463800D03*
G01X5714924Y2387600D03*
G01X5791200Y2463800D03*
G01X5791200Y2387600D03*
G01X5714924Y2679700D03*
G01X5714924Y2540000D03*
G01X5714924Y2609201D03*
G01X5791200Y2679700D03*
G01X5791200Y2540000D03*
G01X5791200Y2609201D03*
G01X6096000Y2311400D03*
G01X5867400Y2311400D03*
G01X5867400Y2235200D03*
G01X5943676Y2311400D03*
G01X6019800Y2311400D03*
G01X6096000Y2235200D03*
G01X5943676Y2235200D03*
G01X6019800Y2235200D03*
G01X5714924Y2311400D03*
G01X5714924Y2235200D03*
G01X5791200Y2311400D03*
G01X5791200Y2235200D03*
G01X6134100Y1358900D03*
G01X5981624Y1358900D03*
G01X6057900Y1358900D03*
G01X5981624Y1663700D03*
G01X5981624Y1732901D03*
G01X6057900Y1663700D03*
G01X6057900Y1732901D03*
G01X6134100Y1803400D03*
G01X6134100Y1663700D03*
G01X6134100Y1732901D03*
G01X5981624Y1803400D03*
G01X6057900Y1803400D03*
G01X6134100Y1587500D03*
G01X6134100Y1511300D03*
G01X5981624Y1587500D03*
G01X5981624Y1511300D03*
G01X6057900Y1587500D03*
G01X6057900Y1511300D03*
G01X6134100Y1435100D03*
G01X5981624Y1435100D03*
G01X6057900Y1435100D03*
G01X6134100Y444500D03*
G01X5981624Y444500D03*
G01X6057900Y444500D03*
G01X5981624Y749300D03*
G01X5981624Y818501D03*
G01X6057900Y749300D03*
G01X6057900Y818501D03*
G01X6134100Y889000D03*
G01X6134100Y749300D03*
G01X6134100Y818501D03*
G01X5981624Y889000D03*
G01X6057900Y889000D03*
G01X6134100Y673100D03*
G01X6134100Y596900D03*
G01X5981624Y673100D03*
G01X5981624Y596900D03*
G01X6057900Y673100D03*
G01X6057900Y596900D03*
G01X6134100Y520700D03*
G01X5981624Y520700D03*
G01X6057900Y520700D03*
G01X5981624Y-279400D03*
G01X5981624Y-210199D03*
G01X6057900Y-279400D03*
G01X6057900Y-210199D03*
G01X6134100Y-139700D03*
G01X6134100Y-279400D03*
G01X6134100Y-210199D03*
G01X5981624Y-139700D03*
G01X6057900Y-139700D03*
G01X6134100Y-355600D03*
G01X6134100Y-431800D03*
G01X5981624Y-355600D03*
G01X5981624Y-431800D03*
G01X6057900Y-355600D03*
G01X6057900Y-431800D03*
G01X6134100Y-508000D03*
G01X5981624Y-508000D03*
G01X6057900Y-508000D03*
G01X254000Y-1605577D03*
G01X254000Y-1745277D03*
G01X254000Y-1676077D03*
G01X254000Y-1821477D03*
G01X254000Y-1897677D03*
G01X330276Y-1605577D03*
G01X406400Y-1605577D03*
G01X482600Y-1745277D03*
G01X330276Y-1745277D03*
G01X406400Y-1745277D03*
G01X482600Y-1676077D03*
G01X330276Y-1676077D03*
G01X406400Y-1676077D03*
G01X482600Y-1821477D03*
G01X330276Y-1821477D03*
G01X406400Y-1821477D03*
G01X482600Y-1897677D03*
G01X330276Y-1897677D03*
G01X406400Y-1897677D03*
G01X482600Y-1605577D03*
G01X254000Y-1968500D03*
G01X254000Y-2044700D03*
G01X482600Y-1968500D03*
G01X330276Y-1968500D03*
G01X406400Y-1968500D03*
G01X482600Y-2044700D03*
G01X330276Y-2044700D03*
G01X406400Y-2044700D03*
G54D68*
G01X5118100Y-1943100D03*
G01X3214657Y1003300D03*
G01X3288855Y1003300D03*
G01X4232106Y1000067D03*
G01X5145585Y-1786598D03*
G01X5145585Y-1723098D03*
G01X5145585Y-1659598D03*
G01X5145585Y-1596098D03*
G01X5145585Y-1532598D03*
G01X5145585Y-1469098D03*
G01X5145585Y-1405598D03*
G54D70*
G01X2020257Y1378778D03*
G01X1820232Y1378778D03*
G01X1820232Y1478752D03*
G01X1820232Y1278753D03*
G01X1920232Y1278778D03*
G01X2020257Y1478778D03*
G01X2020257Y1278778D03*
G01X1920232Y1478778D03*
G01X1920232Y1378778D03*
G01X888987Y1471613D03*
G01X888987Y1271588D03*
G01X789013Y1271588D03*
G01X989013Y1271588D03*
G01X988987Y1371587D03*
G01X788988Y1471613D03*
G01X988987Y1471613D03*
G01X788988Y1371587D03*
G01X888987Y1371587D03*
G54D68*
G01X5549900Y2717800D03*
G01X5613400Y2717800D03*
G01X5613400Y2654300D03*
G01X5549900Y2654300D03*
G01X5486400Y2717800D03*
G01X5486400Y2654300D03*
G54D69*
G01X3949700Y2209800D03*
G04 Via End*

G04 Track Start*
G54D71*
G01X5506826Y-1072335D02*
G01X5506826Y-1199335D01*
G01X5580804Y-932635D02*
G01X5488945Y-932635D01*
G01X5420263Y-1001316D02*
G01X5420263Y-1072335D01*
G01X5420263Y-1001316D02*
G01X5488945Y-932635D01*
G01X5501645Y-1339035D02*
G01X5438145Y-1275535D01*
G01Y-1217216D01*
G01X5420263Y-1199335D01*
G01X5501645Y-1339035D02*
G01X5590545Y-1339035D01*
G01X5506826Y-1478735D02*
G01X5570326Y-1478735D01*
G01X5590545Y-1458516D01*
G01Y-1339035D01*
G01X5420263Y-1478735D02*
G01X5387345Y-1478735D01*
G01X5349245Y-1440635D01*
G01Y-1341994D01*
G01X5420263Y-1199335D02*
G01X5323845Y-1199335D01*
G01X5158745Y-1300935D02*
G01X5091562Y-1300935D01*
G01X5091155Y-1301341D01*
G54D72*
G01X5346286Y-932635D02*
G01X5209545Y-1069376D01*
G01X5346286Y-1339035D02*
G01X5333586Y-1339035D01*
G01X5209545Y-1214994D01*
G01X4896134Y-1301341D02*
G01X4961158Y-1301341D01*
G01X5006345D01*
G01X5209545Y-1179140D02*
G01X4968221Y-1179140D01*
G01X5209545Y-1214994D02*
G01X5209545Y-1179140D01*
G01Y-1069376D01*
G54D10*
G01X2534245Y-818335D02*
G01X2644145Y-818335D01*
G01X2682245Y-780235D01*
G01Y-663834D01*
G01X2821945Y-810816D02*
G01X2948945Y-810816D01*
G01X2743200Y-838200D02*
G01X2794561Y-838200D01*
G54D73*
G01X3099592Y665813D02*
G01X3099592Y625363D01*
G01X4076700Y657410D02*
G01X4053845Y680265D01*
G01X4076700Y609600D02*
G01X4076700Y657410D01*
G01X3683792Y625363D02*
G01X3683792Y663463D01*
G01X3700594Y680265D01*
G01X4053845D01*
G01X3112292Y257063D02*
G01X3112292Y322913D01*
G01X3114045Y-122184D02*
G01X3112292Y-123937D01*
G54D74*
G01X4599538Y-91069D02*
G01X4599538Y24869D01*
G01X4663445Y-154976D02*
G01X4599538Y-91069D01*
G01X4663445Y-170635D02*
G01X4663445Y-154976D01*
G01X4574545Y-259535D02*
G01X4663445Y-170635D01*
G54D10*
G01X4794534Y24869D02*
G01X4794534Y-73124D01*
G01X4876386Y-154976D02*
G01X4892045Y-154976D01*
G01X4794534Y-73124D02*
G01X4876386Y-154976D01*
G01X4924557Y-63447D02*
G01X4924557Y24869D01*
G01X4874945Y-547235D02*
G01X4874945Y-564335D01*
G01X4879345Y-180376D02*
G01X4803145Y-256576D01*
G01Y-475435D01*
G01X4989555Y24869D02*
G01X4989555Y-64945D01*
G01X5104986Y-180376D02*
G01X5107945Y-180376D01*
G01X4989555Y-64945D02*
G01X5104986Y-180376D01*
G01X3583945Y-424635D02*
G01X3545845Y-386535D01*
G01X4965590Y-558690D02*
G01X4960165Y-564335D01*
G01X5323845Y-1072335D02*
G01X5420263Y-1072335D01*
G54D73*
G01X3683792Y257063D02*
G01X3683792Y295163D01*
G01X3693429Y304800D02*
G01X3683792Y295163D01*
G01X3746500Y304800D02*
G01X3693429Y304800D01*
G01X3152145Y718365D02*
G01X3099592Y665813D01*
G54D10*
G01X2540000Y-901700D02*
G01X2540000Y-824090D01*
G01X2534245Y-818335D01*
G01X2301245Y-907235D02*
G01X2304953Y-903526D01*
G01Y-825751D01*
G01Y-667542D01*
G01X2301245Y-663834D01*
G01X2304953Y-825751D02*
G01X2441828Y-825751D01*
G01X2449245Y-818335D01*
G01X2120900Y-901700D02*
G01X2125271Y-901700D01*
G01X5690161Y990600D02*
G01X5692145Y992584D01*
G01X5321300Y939800D02*
G01X5321300Y989734D01*
G54D72*
G01X5184145Y967965D02*
G01X5036045Y967965D01*
G54D68*
G01X5184145Y1052965D02*
G01X5138545Y1052965D01*
G01X5015845Y1175665D02*
G01X5006345Y1175665D01*
G01X5138545Y1052965D02*
G01X5015845Y1175665D01*
G01X5184145Y1171165D02*
G01X5312739Y1171165D01*
G01X5323235Y1181661D01*
G54D69*
G01X5488945Y1086665D02*
G01X5553054Y1086665D01*
G54D10*
G01X5565145Y1193752D02*
G01X5553054Y1181661D01*
G01X5562953Y1295047D02*
G01X5692145Y1295047D01*
G01X5565145Y1292855D02*
G01X5565145Y1193752D01*
G54D75*
G01X5006245Y1467665D02*
G01X5006245Y1175765D01*
G54D72*
G01X5438145Y1137465D02*
G01X5488945Y1086665D01*
G01X5438145Y1256165D02*
G01X5438145Y1137465D01*
G54D69*
G01X5438145Y1256165D02*
G01X5184145Y1256165D01*
G54D72*
G01X5563875Y1499365D02*
G01X5487675Y1499365D01*
G01X5438145Y1449835D01*
G01Y1256165D01*
G54D68*
G01X4407045Y1577889D02*
G01X4407045Y1756565D01*
G01X4409445Y1758965D01*
G01X4118145Y1759765D02*
G01X4117345Y1758965D01*
G01X4098422Y1569265D02*
G01X4107045Y1577889D01*
G01X4257032Y1708978D02*
G01X4206245Y1759765D01*
G01X4257032Y1306642D02*
G01X4257032Y1708978D01*
G54D76*
G01X4625345Y2382065D02*
G01X4625345Y2307064D01*
G01X4626544Y2305865D01*
G01X4777745Y2382065D02*
G01X4777745Y2307064D01*
G01X4776546Y2305865D01*
G54D73*
G01X4790445Y594972D02*
G01X4794534Y599062D01*
G54D10*
G01X5562600Y1295400D02*
G01X5562953Y1295047D01*
G01X3636294Y1404165D02*
G01X3778845Y1404165D01*
G01X3806195Y1376815D01*
G01X3806195Y1291815D02*
G01X3650944Y1291815D01*
G01X3636294Y1277165D01*
G01X2860045Y1383947D02*
G01X2898145Y1422047D01*
G54D73*
G01X2860045Y1843154D02*
G01X2860045Y1830784D01*
G01X3087095Y1835965D02*
G01X3055547Y1867514D01*
G01X2884405D01*
G01X2860045Y1843154D01*
G01X3087095Y1962965D02*
G01X3028777Y1904647D01*
G01X2872745D01*
G01X2860045Y1917347D01*
G01X3136645Y1913416D02*
G01X3087095Y1962965D01*
G01X3136645Y1885515D02*
G01X3087095Y1835965D01*
G01X3266445Y1913416D02*
G01X3136645Y1913416D01*
G01X3278001Y1885515D02*
G01X3136645Y1885515D01*
G01X2854863Y1378765D02*
G01X2860045Y1383947D01*
G01X2809245Y1378765D02*
G01X2854863Y1378765D01*
G01X2854863Y1302565D02*
G01X2860045Y1297384D01*
G01X2809245Y1302565D02*
G01X2854863Y1302565D01*
G01X2821615Y1917347D02*
G01X2860045Y1917347D01*
G01X2792283Y1888016D02*
G01X2821615Y1917347D01*
G01X2821615Y1830784D02*
G01X2860045Y1830784D01*
G01X2792283Y1860115D02*
G01X2821615Y1830784D01*
G54D77*
G01X3623594Y1835965D02*
G01X3804245Y1835965D01*
G01X3806195Y1837915D01*
G54D68*
G01X3652830Y2732674D02*
G01X3883360Y2732674D01*
G01X3896060Y2719974D02*
G01X3908760Y2732674D01*
G01X3883360Y2732674D02*
G01X3896060Y2719974D01*
G01X3640130Y2719974D02*
G01X3652830Y2732674D01*
G01X3629604Y2730500D02*
G01X3640130Y2719974D01*
G01X4605330Y2732674D02*
G01X4607504Y2730500D01*
G54D69*
G01X4007033Y2348956D02*
G01X4007033Y2228667D01*
G01X4051300Y2184400D01*
G54D68*
G01X4117345Y1912965D02*
G01X4409445Y1912965D01*
G54D69*
G01X4117345Y1912965D02*
G01X4117345Y2057400D01*
G01X4229100Y2146300D02*
G01X4216400Y2146300D01*
G01X4178300Y2184400D01*
G01X4051300D01*
G54D73*
G01X4394200Y2476500D02*
G01X4394200Y2361788D01*
G01X4508500Y2476500D02*
G01X4508500Y2350425D01*
G01X4107032Y2471568D02*
G01X4107032Y2348956D01*
G01X4102100Y2476500D02*
G01X4107032Y2471568D01*
G01X4207032Y2447768D02*
G01X4207032Y2348956D01*
G01X4178300Y2476500D02*
G01X4207032Y2447768D01*
G01X4508500Y2350425D02*
G01X4507032Y2348956D01*
G01X4394200Y2361788D02*
G01X4406900Y2349088D01*
G54D10*
G01X393700Y1758360D02*
G01X400107Y1764767D01*
G01X613982Y1721599D02*
G01X561981Y1773600D01*
G01X431800D01*
G01X315107Y1764767D02*
G01X315107Y1653007D01*
G01X308700Y1646600D01*
G54D73*
G01X2683388Y1888016D02*
G01X2792283Y1888016D01*
G54D77*
G01X2534245Y870765D02*
G01X2647135Y870765D01*
G01X2679700Y838200D01*
G01Y718810D01*
G01X2682245Y716265D01*
G01X2298700Y718810D02*
G01X2301245Y716265D01*
G01X2555245Y716265D02*
G01X2555245Y619755D01*
G01X2590800Y584200D01*
G01X2819400Y817982D02*
G01X2946400Y817982D01*
G01X2647135Y870765D02*
G01X2694945Y918576D01*
G01Y936145D01*
G54D73*
G01X539001Y1196581D02*
G01X447281Y1196581D01*
G01X444500Y1193800D01*
G54D77*
G01X2819400Y685800D02*
G01X2819400Y731418D01*
G54D10*
G01X810209Y2146300D02*
G01X812800Y2143709D01*
G01Y1922100D01*
G54D73*
G01X1063993Y1721599D02*
G01X1063993Y1816100D01*
G01X1113981Y1721599D02*
G01X1113981Y1799781D01*
G01X1143000Y1828800D01*
G01X1352745Y-361135D02*
G01X1347211Y-355600D01*
G01X1219200D01*
G01X1352745Y375465D02*
G01X1320180Y342900D01*
G01X939800D01*
G01X3319745Y1952765D02*
G01X3319745Y1927259D01*
G01X3278001Y1885515D01*
G01X3529132Y2643068D02*
G01X3529132Y2348956D01*
G54D76*
G01X3329132Y2348956D02*
G01X3329132Y2590800D01*
G54D73*
G01X3492500Y2679700D02*
G01X3529132Y2643068D01*
G01X3429132Y2628768D02*
G01X3429132Y2348956D01*
G01X3403600Y2654300D02*
G01X3429132Y2628768D01*
G01X3060700Y2654300D02*
G01X3403600Y2654300D01*
G01X3048000Y2641600D02*
G01X3060700Y2654300D01*
G01X3048000Y2560949D02*
G01X3048000Y2641600D01*
G01X663994Y1021601D02*
G01X663994Y970171D01*
G01X635000Y941177D02*
G01X663994Y970171D01*
G01X635000Y889000D02*
G01X635000Y941177D01*
G01X685800Y927100D02*
G01X713981Y955281D01*
G01Y1021601D01*
G01X626700Y762000D02*
G01X736600Y762000D01*
G01X744906Y753694D01*
G01X627482Y647700D02*
G01X723900Y647700D01*
G01X744906Y668706D01*
G54D10*
G01X5818010Y1079500D02*
G01X5818363Y1079500D01*
G01X5818010Y1079500D02*
G01X5819145Y1078365D01*
G01X5816380Y990600D02*
G01X5819145Y993365D01*
G01X5689600Y990600D02*
G01X5690161Y990600D01*
G01X5816380D01*
G54D73*
G01X1304506Y1146594D02*
G01X1238999Y1146594D01*
G01X539001Y1296581D02*
G01X537820Y1295400D01*
G01X431800D01*
G01X1333500Y1117600D02*
G01X1304506Y1146594D01*
G01X2270244Y1553784D02*
G01X2270244Y1503771D01*
G01X2270244Y1553784D02*
G01X2328484Y1553784D01*
G01X2349500Y1574800D01*
G01Y1638300D01*
G01X2336800Y1651000D01*
G01X2273028Y1651000D02*
G01X2270244Y1653784D01*
G01X2336800Y1651000D02*
G01X2273028Y1651000D01*
G01X2270244Y1253785D02*
G01X2349500Y1253785D01*
G54D10*
G01X2381672Y1403772D02*
G01X2425700Y1447800D01*
G01Y1498600D01*
G01X2438400Y1511300D01*
G01X2484800D01*
G01X2353366Y1451666D02*
G01X2272363Y1451666D01*
G01X2270244Y1453784D01*
G01X2603500Y990600D02*
G01X2578100Y965200D01*
G01X2501900D01*
G01X2476500Y990600D01*
G01Y1058500D01*
G01X2484800Y1066800D01*
G01X2270244Y1353784D02*
G01X2428884Y1353784D01*
G01X2484800Y1409700D01*
G01X2270244Y1303772D02*
G01X2274572Y1308100D01*
G01X2484800D01*
G01X2451100Y1066800D02*
G01X2484800Y1066800D01*
G01X2364115Y1153785D02*
G01X2451100Y1066800D01*
G01X2270244Y1153785D02*
G01X2364115Y1153785D01*
G01X2569800Y1612900D02*
G01X2569800Y1511300D01*
G01Y1409700D01*
G01Y1308100D01*
G01Y1206500D01*
G01X2819400Y817982D02*
G01X2819400Y889000D01*
G01X2717800Y990600D01*
G01X2603500D01*
G54D73*
G01X2569800Y1066800D02*
G01X2705100Y1066800D01*
G01X2870200Y901700D01*
G01X2743200Y1206500D02*
G01X2569800Y1206500D01*
G01X2844800Y1104900D02*
G01X2743200Y1206500D01*
G54D10*
G01X813981Y1835919D02*
G01X812800Y1837100D01*
G01X813981Y1721599D02*
G01X813981Y1835919D01*
G54D73*
G01X2095238Y1028766D02*
G01X2095238Y927362D01*
G01X2120900Y901700D01*
G01X2145225Y1028766D02*
G01X2146300Y1027691D01*
G01Y957761D01*
G01X2184400Y919661D01*
G01Y901700D01*
G01X2045226Y1028766D02*
G01X2045226Y864126D01*
G01X2044700Y863600D01*
G01X1392600Y2171700D02*
G01X1392600Y2058182D01*
G01X1391818Y2057400D01*
G01X1392600Y2171700D02*
G01X1272591Y2171700D01*
G01X1247191Y2146300D01*
G01X1384300Y1935582D02*
G01X1478382Y2029663D01*
G01Y2057400D01*
G01X1384300Y1849018D02*
G01X1485118Y1849018D01*
G01X1485900Y1849800D01*
G54D77*
G01X822909Y2133600D02*
G01X812800Y2143709D01*
G01X1422400Y2247900D02*
G01X1473200Y2197100D01*
G54D73*
G01X1777050Y2348550D02*
G01X1854200Y2425700D01*
G54D77*
G01X3329132Y2348956D02*
G01X3329132Y2280293D01*
G01X3908576Y1837915D02*
G01X3914145Y1843484D01*
G01X3806195Y1837915D02*
G01X3908576Y1837915D01*
G01X3806195Y1291815D02*
G01X3844515Y1291815D01*
G01X3974747Y1930047D02*
G01X3914145Y1930047D01*
G01X4013200Y1968500D02*
G01X3974747Y1930047D01*
G01X4013200Y2140016D02*
G01X4013200Y1968500D01*
G54D68*
G01X4117345Y1912965D02*
G01X4078445Y1912965D01*
G01X4028445Y1862966D01*
G01Y1619265D01*
G01X4078445Y1569265D01*
G01X4098422D01*
G54D77*
G01X3952000Y1780300D02*
G01X3974747Y1803047D01*
G01Y1930047D01*
G01X3774200Y1780300D02*
G01X3952000Y1780300D01*
G54D10*
G01X2898145Y1422047D02*
G01X2898145Y1429565D01*
G01X2972795D01*
G01X2998195Y1404165D01*
G01X3099795D01*
G54D78*
G01X3467100Y1473200D02*
G01X2971800Y1473200D01*
G01X2946400Y1498600D01*
G54D77*
G01X3746500Y1752600D02*
G01X3774200Y1780300D01*
G01X2946400Y731418D02*
G01X2921000Y731418D01*
G54D78*
G01X1689100Y850900D02*
G01X1795239Y957039D01*
G01Y1028766D01*
G01X1618262Y1701800D02*
G01X1645226Y1728765D01*
G01X1498600Y1701800D02*
G01X1618262Y1701800D01*
G54D73*
G01X1485900Y1934800D02*
G01X1528215Y1977115D01*
G01X1562100Y1816100D02*
G01X1536700Y1790700D01*
G01X1460500D01*
G01X1689100Y1022627D02*
G01X1695239Y1028766D01*
G54D71*
G01X1945226Y1728765D02*
G01X1945226Y1805526D01*
G01X1993900Y1854200D01*
G01X2095238Y1728765D02*
G01X2095238Y1849520D01*
G01X2099918Y1854200D01*
G01X1993900Y1854200D02*
G01X2099918Y1854200D01*
G01X2256200D01*
G01X2270244Y1653784D02*
G01X2270244Y1840156D01*
G01X2256200Y1854200D01*
G54D73*
G01X1238999Y1596581D02*
G01X1291781Y1596581D01*
G01X1308100Y1612900D01*
G01X1016000Y1854200D02*
G01X1016000Y1723619D01*
G01X1333500Y1371600D02*
G01X1308100Y1346200D01*
G01X1239393D01*
G01X1238999Y1346594D01*
G01X3623594Y2089965D02*
G01X3714994Y2181365D01*
G01X1231900Y2146300D02*
G01X1257300Y2120900D01*
G01X995339Y1981200D02*
G01X990600Y1981200D01*
G01X1231900Y1981200D02*
G01X1092200Y1981200D01*
G01X1257300Y2120900D02*
G01X1257300Y2006600D01*
G01X1231900Y1981200D01*
G01X1036889Y1939650D02*
G01X995339Y1981200D01*
G01X2006600Y2590800D02*
G01X2026476Y2570924D01*
G01X2997200D01*
G01X3009900Y2583624D01*
G01X1905000Y2590800D02*
G01X1947776Y2548024D01*
G01X3035075D01*
G01X3048000Y2560949D01*
G54D10*
G01X2125271Y-901700D02*
G01X2195936Y-831035D01*
G54D73*
G01X1016000Y1723619D02*
G01X1013981Y1721599D01*
G54D10*
G01X2453645Y-538935D02*
G01X2428245Y-564335D01*
G01Y-663834D01*
G54D73*
G01X2870200Y901700D02*
G01X2921000Y901700D01*
G01X2946400Y927100D01*
G54D10*
G01X2794561Y-838200D02*
G01X2821945Y-810816D01*
G54D73*
G01X1292593Y1546593D02*
G01X1238999Y1546593D01*
G54D10*
G01X3099795Y1531165D02*
G01X3182165Y1531165D01*
G01X3225800Y1574800D01*
G01Y1765300D01*
G54D68*
G01X4409445Y1758965D02*
G01X4516142Y1758965D01*
G54D79*
G01X4368800Y2197100D02*
G01X4307032Y2258868D01*
G01Y2348956D01*
G54D73*
G01X3579248Y2212269D02*
G01X3319745Y1952765D01*
G01X3714994Y2181365D02*
G01X3862505Y2181365D01*
G01X3886200Y2205061D01*
G01Y2209800D01*
G01X3809031Y2240209D02*
G01X3567731Y2240209D01*
G01X3820548Y2212269D02*
G01X3579248Y2212269D01*
G01X2653395Y1858022D02*
G01X2683388Y1888016D01*
G54D80*
G01X2641600Y1257300D02*
G01X2768600Y1257300D01*
G01X2806700Y1219200D01*
G54D10*
G01X2654300Y2057400D02*
G01X2489200Y1892300D01*
G01Y1617300D01*
G01X2484800Y1612900D01*
G01X2569800Y1612900D02*
G01X2569800Y1896700D01*
G01X2705100Y2032000D01*
G54D73*
G01X2350902Y1965502D02*
G01X2341200Y1955800D01*
G54D10*
G01X2341200Y1854200D01*
G01X2256200Y1854200D02*
G01X2256200Y1955800D01*
G01X539001Y1396581D02*
G01X445338Y1396581D01*
G01X444500Y1397000D02*
G01X444919Y1397000D01*
G01X308700Y1672000D02*
G01X308700Y1646600D01*
G01X317500Y1562100D02*
G01X317500Y1637800D01*
G01X393700Y1758360D02*
G01X393700Y1783760D01*
G01X317500Y1637800D02*
G01X308700Y1646600D01*
G54D76*
G01X350057Y2186318D02*
G01X416679Y2119696D01*
G01Y2115956D01*
G01X472321Y2049644D02*
G01X534814Y1987152D01*
G01Y1979225D01*
G54D10*
G01X45039Y-2042494D02*
G01X45039Y-2143761D01*
G01X42500Y-2146300D01*
G01X-42500Y-1651000D02*
G01X-39949Y-1653551D01*
G01X42494Y-1542494D02*
G01X42494Y-1650994D01*
G01X-42494Y-1162648D02*
G01X-46153Y-1158990D01*
G01X38847Y-1158990D02*
G01X42494Y-1155343D01*
G01Y-1042494D01*
G01X42500Y-1651000D02*
G01X42500Y-1735500D01*
G01X38100Y-1739900D01*
G01X38847Y-1158990D02*
G01X38847Y-1243853D01*
G01X38100Y-1244600D01*
G01X-39955Y-954967D02*
G01X-42494Y-957506D01*
G01X45045Y-653235D02*
G01X45045Y-749300D01*
G01X42494Y-542494D02*
G01X42494Y-650684D01*
G01X45045Y-653235D01*
G01X-42494Y-157396D02*
G01X-44201Y-155690D01*
G01X40799Y-155690D02*
G01X40799Y-254000D01*
G01X42494Y-42494D02*
G01X42494Y-153995D01*
G01X40799Y-155690D01*
G01X-39955Y45033D02*
G01X-42494Y42494D01*
G01X42494Y457506D02*
G01X42494Y266700D01*
G01X-44948Y544948D02*
G01X-42494Y542494D01*
G01X42494Y957506D02*
G01X42494Y851312D01*
G01X40052Y848870D01*
G01X42494Y846429D01*
G01Y749300D01*
G01X42494Y1457506D02*
G01X42494Y1346200D01*
G01Y1257300D01*
G01X42494Y1957506D02*
G01X42494Y1841506D01*
G01X42494Y1841494D02*
G01X42494Y1739900D01*
G01X45039Y2457506D02*
G01X45039Y2260600D01*
G01X-39949Y2542494D02*
G01X-38100Y2544344D01*
G01Y2616200D01*
G01X42494Y-2542494D02*
G01X42494Y-2618547D01*
G54D77*
G01X45039Y-1957531D02*
G01X103331Y-1957531D01*
G01X127000Y-1981200D01*
G01Y-2641600D01*
G01X88900Y-2679700D01*
G01X-12700D01*
G01X-39949Y-2042494D02*
G01X-91106Y-2042494D01*
G01X-12700Y-2679700D02*
G01X-50800Y-2641600D01*
G01Y-2550800D01*
G01X-42494Y-2542494D01*
G01X42494Y-1457531D02*
G01X104569Y-1457531D01*
G01X114300Y-1447800D01*
G01X-42494Y-1542494D02*
G01X-48288Y-1536700D01*
G01X-101600D01*
G01X42494Y-957531D02*
G01X109269Y-957531D01*
G01X114300Y-952500D01*
G01X42494Y-457531D02*
G01X113969Y-457531D01*
G01X114300Y-457200D01*
G01X-114300Y-1041400D02*
G01X-43588Y-1041400D01*
G01X-42494Y-1042494D01*
G01X-42494Y-542494D02*
G01X-46100Y-546100D01*
G01X-114300D01*
G01X114300Y50800D02*
G01X50825Y50800D01*
G01X42494Y42469D01*
G01X-42494Y-42494D02*
G01X-50800Y-50800D01*
G01X-101600D01*
G01X42494Y542469D02*
G01X110669Y542469D01*
G01X114300Y546100D01*
G01X-101600Y457200D02*
G01X-42800Y457200D01*
G01X-42494Y457506D01*
G01X42494Y1042469D02*
G01X113231Y1042469D01*
G01X114300Y1041400D01*
G01X42494Y1542469D02*
G01X107369Y1542469D01*
G01X114300Y1549400D01*
G01X-42494Y957506D02*
G01X-47500Y952500D01*
G01X-114300D01*
G01X42494Y2042469D02*
G01X112069Y2042469D01*
G01X114300Y2044700D01*
G01X-42494Y1457506D02*
G01X-45488Y1460500D01*
G01X-101600D01*
G01X45039Y2542469D02*
G01X111831Y2542469D01*
G01X114300Y2540000D01*
G01X-42494Y1957506D02*
G01X-44200Y1955800D01*
G01X-114300D01*
G01X-39949Y2457506D02*
G01X-46243Y2463800D01*
G01X-101600D01*
G01X1003300Y30582D02*
G01X1104118Y30582D01*
G01X1104900Y29800D01*
G01X1219200Y30582D02*
G01X1455318Y30582D01*
G01X1473200Y12700D01*
G01Y-533400D01*
G01X1511300Y-571500D01*
G01X3073400Y-838200D02*
G01X3111500Y-876300D01*
G01X983082Y-55982D02*
G01X1003300Y-55982D01*
G01X876300Y50800D02*
G01X983082Y-55982D01*
G01X1003300Y-55982D02*
G01X1219200Y-55982D01*
G01X876300Y50800D02*
G01X838200Y50800D01*
G54D10*
G01X444919Y1397000D02*
G01X445338Y1396581D01*
G01X444500Y1397000D02*
G01X444500Y1546593D01*
G01X539001D01*
G01X444500Y1549400D02*
G01X393700Y1600200D01*
G01Y1758360D01*
G54D71*
G01X713981Y1721599D02*
G01X763994Y1721599D01*
G54D73*
G01X2946400Y927100D02*
G01X2946400Y1043732D01*
G01X2885232Y1104900D01*
G01X2844800D01*
G01X4130045Y507647D02*
G01X4112163Y489765D01*
G54D10*
G01X749300Y2032000D02*
G01X749300Y1862500D01*
G01X774700Y1837100D01*
G01X812800D01*
G54D71*
G01X713994Y1721612D02*
G01X713994Y1965706D01*
G01X622300Y2057400D01*
G54D73*
G01X1308100Y1562100D02*
G01X1292593Y1546593D01*
G01X1308100Y1612900D02*
G01X1308100Y1917700D01*
G01X1286150Y1939650D01*
G01X1036889D01*
G01X1297419Y1496581D02*
G01X1238999Y1496581D01*
G54D77*
G01X3329132Y2280293D02*
G01X3271097Y2222258D01*
G01Y2109863D01*
G01X3251200Y2089965D01*
G01X3087095D01*
G54D68*
G01X4610100Y2730500D02*
G01X4607504Y2730500D01*
G54D77*
G01X3844515Y1291815D02*
G01X3873500Y1320800D01*
G01Y1493418D01*
G01X3878682Y1498600D01*
G01X3792118Y1498600D02*
G01X3792118Y1527337D01*
G01X3746500Y1572955D01*
G01Y1752600D01*
G54D80*
G01X2235200Y2451100D02*
G01X2867660Y2451100D01*
G01X2882900Y2435860D01*
G54D73*
G01X2044700Y2476500D02*
G01X2070100Y2451100D01*
G01X1943100Y2425700D02*
G01X1968500Y2400300D01*
G01X1518466Y2521766D02*
G01X1536700Y2540000D01*
G01X1511300Y2565400D02*
G01X1837578Y2565400D01*
G01X1877854Y2525124D01*
G01X1536700Y2540000D02*
G01X1827934Y2540000D01*
G01X1865670Y2502264D01*
G01X1612900Y2171700D02*
G01X1612900Y2362200D01*
G01X1727200Y2476500D01*
G01X2044700D01*
G54D10*
G01X2378710Y1477010D02*
G01X2378710Y1542731D01*
G01X2448879Y1612900D01*
G01X2484800D01*
G54D73*
G01X2707645Y1312765D02*
G01X2666095Y1312765D01*
G01X2653395Y1325465D01*
G01Y1858022D01*
G54D10*
G01X3467100Y1943100D02*
G01X3492500Y1968500D01*
G01X3760610Y1968500D02*
G01X3806195Y1922915D01*
G54D73*
G01X3467100Y1536700D02*
G01X3467100Y1689100D01*
G01X3486965Y1708965D01*
G01X3623594D01*
G54D77*
G01X1104900Y2222500D02*
G01X1130300Y2247900D01*
G01X1422400D01*
G01X1104900Y2155663D02*
G01X1082837Y2133600D01*
G01X822909D01*
G54D73*
G01X901700Y-88900D02*
G01X876300Y-63500D01*
G01X829588Y-63500D02*
G01X734100Y31989D01*
G01X876300Y-63500D02*
G01X829588Y-63500D01*
G01X540918Y525882D02*
G01X558800Y508000D01*
G01X540918Y647700D02*
G01X540918Y525882D01*
G54D77*
G01X1133134Y97096D02*
G01X1120434Y97096D01*
G01X1104900Y81561D01*
G01Y29800D01*
G54D73*
G01X348501Y1146594D02*
G01X317500Y1115593D01*
G01X539001Y1146594D02*
G01X348501Y1146594D01*
G01X406400Y1041400D02*
G01X406400Y1079500D01*
G01X423482Y1096582D01*
G01X539001D01*
G01X342900Y1295400D02*
G01X342900Y1270000D01*
G01X366306Y1246594D01*
G01X539001D01*
G01X1104900Y876300D02*
G01X1028700Y876300D01*
G01X1013981Y891019D01*
G01Y1021601D01*
G01X876300Y508000D02*
G01X901700Y533400D01*
G01X558800Y508000D02*
G01X876300Y508000D01*
G01X1318434Y1437466D02*
G01X1318434Y1475566D01*
G01X1333500Y1422400D02*
G01X1318434Y1437466D01*
G01X1318434Y1475566D02*
G01X1297419Y1496581D01*
G01X1447890Y1727290D02*
G01X1481187Y1760587D01*
G01X1538973D01*
G01X1594485Y1816100D01*
G01X2070100Y2451100D02*
G01X2070100Y1993900D01*
G01X1895239Y1819039D01*
G01Y1728765D01*
G01X1748626Y1732165D02*
G01X1745226Y1728765D01*
G01X1796926Y1730452D02*
G01X1795239Y1728765D01*
G01X1846939Y1730477D02*
G01X1845226Y1728765D01*
G01X1693477Y1730527D02*
G01X1695239Y1728765D01*
G01X1651000Y2489200D02*
G01X1587500Y2489200D01*
G01X1562100Y2463800D01*
G01Y1816100D01*
G01X1518466Y2420166D02*
G01X1518466Y2521766D01*
G01X1483481Y2430267D02*
G01X1483481Y2537581D01*
G01X1511300Y2565400D01*
G01X1645226Y1028766D02*
G01X1645226Y965266D01*
G01X1619760Y939800D01*
G01X1460500D01*
G54D78*
G01X1765300Y850900D02*
G01X1778000Y850900D01*
G01X1845226Y918126D01*
G01Y1028766D01*
G54D77*
G01X829894Y807806D02*
G01X829894Y753669D01*
G54D73*
G01X829894Y668706D02*
G01X829894Y575894D01*
G01X812800Y558800D01*
G01X609600D01*
G01X1477600Y2171700D02*
G01X1515700Y2171700D01*
G01X1528215Y2159185D01*
G01Y1977115D01*
G54D10*
G01X2256200Y1955800D02*
G01X2256200Y2141900D01*
G01X2311400Y2197100D01*
G01X2350902Y1965502D02*
G01X2350902Y2067102D01*
G01X2392000Y2108200D01*
G01X2540000D01*
G54D80*
G01X2882900Y2435860D02*
G01X2882900Y2064125D01*
G01X2867660Y2048885D01*
G01X2784932D01*
G01X2622620Y1886573D01*
G01Y1276280D01*
G01X2641600Y1257300D01*
G54D73*
G01X2705100Y1384300D02*
G01X2682245Y1407155D01*
G01Y1834715D01*
G01X2707645Y1860115D01*
G01X2792283D01*
G54D78*
G01X2987045Y1594665D02*
G01X2974345Y1594665D01*
G01X2946400Y1566721D01*
G01Y1498600D01*
G54D77*
G01X3009900Y-495300D02*
G01X3073400Y-558800D01*
G01Y-838200D01*
G54D10*
G01X2821945Y-724253D02*
G01X2821945Y-577035D01*
G01X2783845Y-538935D01*
G01X2453645D01*
G54D73*
G01X4112163Y-18235D02*
G01X3139445Y-18235D01*
G01X3114045Y-43635D01*
G01Y-122184D01*
G54D10*
G01X3492500Y1968500D02*
G01X3760610Y1968500D01*
G54D73*
G01X3567731Y2240209D02*
G01X3291845Y1964322D01*
G01Y1938816D01*
G01X3266445Y1913416D01*
G54D10*
G01X3264021Y1803521D02*
G01X3365621Y1803521D01*
G01X3403600Y1841500D01*
G01Y1920377D01*
G01X3426323Y1943100D01*
G01X3264021Y1803521D02*
G01X3225800Y1765300D01*
G01X3467100Y1943100D02*
G01X3426323Y1943100D01*
G54D78*
G01X1574800Y459662D02*
G01X1574800Y635000D01*
G01X1615162Y419300D02*
G01X1574800Y459662D01*
G01X1663700Y444500D02*
G01X1638300Y469900D01*
G01Y694815D01*
G01X1621915Y711200D01*
G01X1574800D01*
G01X3009900Y647700D02*
G01X2943938Y647700D01*
G54D73*
G01X1375050Y1089935D02*
G01X1375050Y1409700D01*
G01X1362350Y1422400D01*
G01X1333500D01*
G01X1495085Y1253785D02*
G01X1570246Y1253785D01*
G01X1420850Y1071021D02*
G01X1333500Y983671D01*
G01Y901700D01*
G01X939800Y628015D02*
G01X948650Y636865D01*
G01X939800Y520700D02*
G01X939800Y628015D01*
G01X897837Y478737D02*
G01X939800Y520700D01*
G01X734100Y31989D02*
G01X734100Y460415D01*
G01X752423Y478737D01*
G01X897837D01*
G01X927100Y-596900D02*
G01X901700Y-571500D01*
G01X965200Y-596900D02*
G01X927100Y-596900D01*
G01X901700Y-571500D02*
G01X901700Y-88900D01*
G54D78*
G01X2895600Y431800D02*
G01X2883100Y419300D01*
G01X2895600Y599362D02*
G01X2895600Y431800D01*
G01X2943938Y647700D02*
G01X2895600Y599362D01*
G01X2883100Y419300D02*
G01X1615162Y419300D01*
G01X2857500Y457200D02*
G01X2844800Y444500D01*
G01X2857500Y609600D02*
G01X2857500Y457200D01*
G01X2921000Y673100D02*
G01X2857500Y609600D01*
G01X2844800Y444500D02*
G01X1663700Y444500D01*
G54D77*
G01X2806700Y533400D02*
G01X2819400Y546100D01*
G01Y629818D01*
G01X2921000Y731418D02*
G01X2819400Y629818D01*
G01X2806700Y533400D02*
G01X2641600Y533400D01*
G01X2755900Y584200D02*
G01X2781300Y609600D01*
G01Y647700D01*
G01X2819400Y685800D01*
G01X2590800Y584200D02*
G01X2755900Y584200D01*
G54D73*
G01X901700Y673100D02*
G01X914400Y685800D01*
G01X963994Y718080D02*
G01X963994Y1021601D01*
G01X901700Y533400D02*
G01X901700Y673100D01*
G01X914400Y685800D02*
G01X952500Y685800D01*
G01X965200Y698500D01*
G01Y716873D01*
G01X963994Y718080D01*
G01X1594485Y1816100D02*
G01X1676400Y1816100D01*
G01X1777050Y1916750D01*
G01Y2348550D01*
G01X1841500Y2336800D02*
G01X1841500Y1939458D01*
G01X1693477Y1791435D01*
G01Y1730527D01*
G01X1905000Y2362200D02*
G01X1905000Y1957929D01*
G01X1748626Y1801555D01*
G01Y1732165D01*
G01X1968500Y2400300D02*
G01X1968500Y1971416D01*
G01X1796926Y1799842D01*
G01Y1730452D01*
G01X2019300Y2425700D02*
G01X2019300Y1988129D01*
G01X1846939Y1815768D01*
G01Y1730477D01*
G54D78*
G01X3581400Y1536700D02*
G01X3581400Y1511300D01*
G01X3492500Y1422400D01*
G01X3024900Y800100D02*
G01X3009900Y785100D01*
G01Y692337D01*
G01X2990663Y673100D01*
G01X2921000D01*
G01X3063000Y758851D02*
G01X3048000Y743851D01*
G01Y685800D01*
G01X3009900Y647700D01*
G54D73*
G01X444288Y281672D02*
G01X444288Y736812D01*
G01X419100Y762000D01*
G01X388968D01*
G01X508000Y217961D02*
G01X444288Y281672D01*
G01X381098Y939898D02*
G01X444598Y939898D01*
G01X457200Y952500D01*
G01Y1003300D01*
G01X475501Y1021601D01*
G01X613982D01*
G54D81*
G01X4089400Y901700D02*
G01X4330700Y901700D01*
G01X4356100Y927100D01*
G01X5578249Y1981200D02*
G01X5566415Y1969366D01*
G01X4559300Y-1689100D02*
G01X4622800Y-1752600D01*
G01X4648200D01*
G01X4660900Y-1765300D01*
G01X5969000Y2108200D02*
G01X5969000Y2019300D01*
G01X5930900Y1981200D01*
G01X5578249D01*
G54D10*
G01X2781300Y2197100D02*
G01X2311400Y2197100D01*
G01X2819400Y2133600D02*
G01X2819400Y2159000D01*
G01X2781300Y2197100D01*
G01X-42500Y-2336800D02*
G01X-42500Y-2457500D01*
G01X3087095Y1264465D02*
G01X3099795Y1277165D01*
G01X2892963Y1264465D02*
G01X3087095Y1264465D01*
G01X2860045Y1297384D02*
G01X2892963Y1264465D01*
G01X2885214Y954484D02*
G01X2883759Y953029D01*
G01X2794000Y1042788D01*
G01Y1104900D01*
G01X2755900Y1143000D01*
G01X2514600D01*
G01X2482072Y1175528D01*
G01X2270244Y1203772D02*
G01X2482072Y1203772D01*
G01X2482072Y1175528D02*
G01X2482072Y1203772D01*
G54D73*
G01X1333500Y1308100D02*
G01X1320800Y1295400D01*
G01X1240180Y1295400D02*
G01X1238999Y1296581D01*
G01X1320800Y1295400D02*
G01X1240180Y1295400D01*
G01X1333500Y1244600D02*
G01X1331506Y1246594D01*
G01X1238999D01*
G01X1409700Y914400D02*
G01X1409700Y1027486D01*
G01X1466610Y1009410D02*
G01X1473200Y1016000D01*
G01Y1231900D01*
G01X1495085Y1253785D01*
G01X1409700Y1027486D02*
G01X1443750Y1061536D01*
G01X1397950Y1080450D02*
G01X1397950Y1523050D01*
G01X1358900Y1562100D01*
G01X1308100D01*
G01X1420850Y1538250D02*
G01X1420850Y1071021D01*
G01X1570246Y1653784D02*
G01X1483116Y1653784D01*
G01X1447890Y1689010D01*
G01Y1727290D01*
G01X1464071Y1603771D02*
G01X1460500Y1600200D01*
G01X5393383Y2140765D02*
G01X5386217Y2133600D01*
G01X4790445Y497845D02*
G01X4790445Y594972D01*
G01X4599538Y599062D02*
G01X4599538Y495300D01*
G01X4612238Y482600D01*
G01X4775200D01*
G01X4790445Y497845D01*
G01X3112292Y322913D02*
G01X3139445Y350065D01*
G01X4038600Y317500D02*
G01X4006035Y350065D01*
G01X3139445D01*
G54D10*
G01X5562953Y1295047D02*
G01X5565145Y1292855D01*
G54D73*
G01X457200Y-266700D02*
G01X508000Y-215900D01*
G01Y217961D01*
G01X566318Y195682D02*
G01X558800Y203200D01*
G01X566318Y195682D02*
G01X566318Y12700D01*
G54D77*
G01X812200Y825500D02*
G01X829894Y807806D01*
G01X406400Y825500D02*
G01X812200Y825500D01*
G54D73*
G01X388968Y762000D02*
G01X355600Y795368D01*
G01Y914400D01*
G01X381098Y939898D01*
G01X1443750Y1061536D02*
G01X1443750Y1541084D01*
G01X1456450Y1553784D01*
G01X1570246D01*
G01X1464071Y1603771D02*
G01X1570246Y1603771D01*
G01X1297144Y979644D02*
G01X1397950Y1080450D01*
G01X1297144Y940330D02*
G01X1297144Y979644D01*
G01X1181100Y824286D02*
G01X1297144Y940330D01*
G01X1271645Y986530D02*
G01X1375050Y1089935D01*
G01X1271645Y947160D02*
G01X1271645Y986530D01*
G01X1238999Y972299D02*
G01X1238999Y1096582D01*
G01X1206500Y939800D02*
G01X1238999Y972299D01*
G01X1104900Y939800D02*
G01X1206500Y939800D01*
G01X1460500Y1790700D02*
G01X1408150Y1738350D01*
G01Y1550950D01*
G01X1420850Y1538250D01*
G01X965200Y2260600D02*
G01X988723Y2284123D01*
G01X1382423D01*
G01X1518466Y2420166D01*
G01X965200Y2336800D02*
G01X990600Y2311400D01*
G01X1364615D01*
G01X1483481Y2430267D01*
G01X1877854Y2525124D02*
G01X3202576Y2525124D01*
G01X3229132Y2498568D01*
G01Y2348956D01*
G01X1865670Y2502264D02*
G01X3111136Y2502264D01*
G01X3129132Y2484268D01*
G01Y2348956D01*
G01X3009900Y2583624D02*
G01X3009900Y2654300D01*
G01X3035300Y2679700D01*
G01X3492500D01*
G01X1570246Y1303772D02*
G01X1515628Y1303772D01*
G01X1485900Y1333500D01*
G54D78*
G01X1841500Y850900D02*
G01X1895239Y904639D01*
G01Y1028766D01*
G54D73*
G01X1995238Y877638D02*
G01X1995238Y1028766D01*
G01X1968500Y850900D02*
G01X1995238Y877638D01*
G01X1905000Y850900D02*
G01X1968500Y850900D01*
G54D82*
G01X4617618Y-2527300D02*
G01X4617618Y-2598318D01*
G01X4635500Y-2616200D01*
G01X4838700D01*
G01X4851400Y-2603500D01*
G01Y-2532482D01*
G01X4704182Y-2527300D02*
G01X4740897Y-2490584D01*
G01Y-2413000D01*
G01X4737100Y-2409203D02*
G01X4740897Y-2413000D01*
G01X4602734Y-2037613D02*
G01X4610100Y-2044979D01*
G01Y-2240534D01*
G01X4642866Y-2273300D02*
G01X4610100Y-2240534D01*
G01X4462882Y-2236821D02*
G01X4476501Y-2223201D01*
G01X4462882Y-2540000D02*
G01X4462882Y-2425700D01*
G01Y-2236821D01*
G01X4286499Y-2381499D02*
G01X4330700Y-2425700D01*
G01X4376318D01*
G01X4381495Y-1993199D02*
G01X4381495Y-2311400D01*
G01X4909718Y-2445918D02*
G01X4851400Y-2445918D01*
G01X4927600Y-2463800D02*
G01X4909718Y-2445918D01*
G01X4376318Y-2540000D02*
G01X4376318Y-2641600D01*
G01X4648200Y-2413000D02*
G01X4610100Y-2413000D01*
G01X4580903Y-2442197D01*
G01X4580903Y-2490584D02*
G01X4617618Y-2527300D01*
G01X4580903Y-2442197D02*
G01X4580903Y-2490584D01*
G01X4615409Y-1972589D02*
G01X4611319Y-1968500D01*
G54D10*
G01X5816600Y1079500D02*
G01X5818010Y1079500D01*
G01X5692145Y1079500D02*
G01X5816600Y1079500D01*
G01X2374900Y1473200D02*
G01X2378710Y1477010D01*
G01X2374900Y1473200D02*
G01X2353366Y1451666D01*
G01X-42500Y2261332D02*
G01X-42500Y2042500D01*
G01X-42500Y2349500D02*
G01X-42500Y2261332D01*
G54D68*
G01X2946400Y2730500D02*
G01X2882900Y2730500D01*
G01X2946400Y2730500D02*
G01X3629604Y2730500D01*
G54D10*
G01X2354125Y1403772D02*
G01X2381672Y1403772D01*
G01X2354125Y1403772D02*
G01X2270244Y1403772D01*
G54D83*
G01X3860800Y-533400D02*
G01X3972110Y-533400D01*
G01X3860700Y-533500D02*
G01X3797400Y-533500D01*
G01X4193545Y-538935D02*
G01X4053945Y-538935D01*
G01X4053845Y-538835D02*
G01X3977745Y-538835D01*
G54D10*
G01X-42500Y1841500D02*
G01X-42500Y1739115D01*
G01Y1542500D01*
G01X-44948Y848870D02*
G01X-44948Y749962D01*
G01Y544948D01*
G54D83*
G01X3596645Y-538935D02*
G01X3621945Y-538935D01*
G54D10*
G01X3545845Y-386535D02*
G01X3545845Y-355716D01*
G01Y-323035D01*
G54D77*
G01X1104900Y2184400D02*
G01X1104900Y2222500D01*
G01X1104900Y2184400D02*
G01X1104900Y2155663D01*
G54D10*
G01X42500Y-2248800D02*
G01X42500Y-2146300D01*
G01X42500Y-2349500D02*
G01X42500Y-2248800D01*
G01X-42500Y-2146300D02*
G01X-42500Y-2250612D01*
G01Y-2336800D01*
G01X-39949Y-1653551D02*
G01X-39949Y-1738521D01*
G01Y-1957506D01*
G01X-39955Y350065D02*
G01X-39955Y266632D01*
G01Y45033D01*
G01X-42500Y1346200D02*
G01X-42500Y1256854D01*
G01Y1042500D01*
G01X-42494Y-253552D02*
G01X-42494Y-157396D01*
G01X-42494Y-457506D02*
G01X-42494Y-253552D01*
G01X-42494Y-1244995D02*
G01X-42494Y-1162648D01*
G01X-42494Y-1457506D02*
G01X-42494Y-1244995D01*
G54D79*
G01X4394200Y2197100D02*
G01X4457700Y2197100D01*
G01X4394200Y2197100D02*
G01X4368800Y2197100D01*
G54D10*
G01X-39955Y-751383D02*
G01X-39955Y-954967D01*
G01X-39955Y-653235D02*
G01X-39955Y-751383D01*
G01X4803145Y-475435D02*
G01X4874945Y-547235D01*
G01X4965590Y-558690D02*
G01X4959945Y-564335D01*
G54D73*
G01X4325518Y508000D02*
G01X4325518Y551282D01*
G01X4305300Y571500D01*
G01X4130763D01*
G01X4130045Y570782D01*
G01X4127500Y386182D02*
G01X4122318Y381000D01*
G01X4325518Y254000D02*
G01X4325518Y297282D01*
G01X4318000Y304800D01*
G01X4127500D01*
G01X4114800Y292100D01*
G01Y261518D01*
G01X4122318Y254000D01*
G01X4325518Y127000D02*
G01X4325518Y170282D01*
G01X4318000Y177800D01*
G01X4127500D01*
G01X4114800Y165100D01*
G01Y134518D01*
G01X4122318Y127000D01*
G01X4122318Y0D02*
G01X4122318Y45618D01*
G01X4127500Y50800D01*
G01X4318000D01*
G01X4330700Y38100D01*
G01Y5182D01*
G01X4325518Y0D01*
G01X4325518Y-127000D02*
G01X4325518Y-83718D01*
G01X4318000Y-76200D01*
G01X4114800Y-119482D02*
G01X4122318Y-127000D01*
G01X4122318Y-109118D02*
G01X4122318Y-127000D01*
G01X4114800Y-101600D02*
G01X4122318Y-109118D01*
G01X4114800Y-101600D02*
G01X4114800Y-119482D01*
G01X4325518Y381000D02*
G01X4325518Y424282D01*
G01X4318000Y431800D01*
G01X4140200D01*
G01X4127500Y419100D01*
G01Y386182D01*
G01X4130045Y570782D02*
G01X4130045Y507647D01*
G01X5105400Y457200D02*
G01X5118100Y469900D01*
G01Y597609D01*
G01X5119553Y599062D01*
G01X4208882Y127000D02*
G01X4208882Y83718D01*
G01X4216400Y76200D01*
G01X4864100Y29411D02*
G01X4859558Y24869D01*
G01X4216400Y76200D02*
G01X4533900Y76200D01*
G01X4546495Y88795D01*
G01X4412082Y254000D02*
G01X4508500Y254000D01*
G01X4412082Y508000D02*
G01X4508500Y508000D01*
G01X4412082Y0D02*
G01X4512880Y0D01*
G01X5119553Y354147D02*
G01X5119553Y24869D01*
G54D10*
G01X5054554Y599062D02*
G01X5054554Y698454D01*
G01X4989555Y730655D02*
G01X5033600Y774700D01*
G01X4989555Y599062D02*
G01X4989555Y730655D01*
G01X5122500Y766400D02*
G01X5122500Y787400D01*
G01X5122500Y766400D02*
G01X5054554Y698454D01*
G54D73*
G01X5054600Y258911D02*
G01X5054600Y24915D01*
G01X5184551Y599062D02*
G01X5184551Y190500D01*
G01X5041900Y431800D02*
G01X5119553Y354147D01*
G01X4876800Y381000D02*
G01X4749800Y381000D01*
G01X4208882Y254000D02*
G01X4208882Y215900D01*
G54D10*
G01X5101000Y-558800D02*
G01X5101000Y-537800D01*
G01X5168900Y-469900D01*
G01Y-215900D01*
G01X5143500Y-190500D01*
G01X5082959D01*
G01X5080000Y-187541D01*
G01X5119553Y24869D02*
G01X5119553Y-77653D01*
G01X5219700Y-525100D02*
G01X5186000Y-558800D01*
G01X5119553Y-77653D02*
G01X5219700Y-177800D01*
G01X4750300Y-546100D02*
G01X4750300Y-95696D01*
G01X4729536Y-74931D01*
G01Y24869D01*
G01X5308600Y-457200D02*
G01X5224065Y-457200D01*
G01X5219700Y-461565D01*
G01X5219700Y-177800D02*
G01X5219700Y-461565D01*
G01Y-525100D01*
G01X4750300Y-546100D02*
G01X4750300Y-596400D01*
G01X4737100Y-609600D01*
G54D77*
G01X3873274Y-1701800D02*
G01X4003045Y-1572029D01*
G01X4229100Y-1765300D02*
G01X4229100Y-1689100D01*
G01X4203700Y-1663700D01*
G01X4094716D01*
G01X4003045Y-1572029D01*
G54D73*
G01X4664537Y24869D02*
G01X4664537Y-88900D01*
G01X4483100Y-254000D02*
G01X4533900Y-203200D01*
G01X4406900Y-203200D02*
G01X4406900Y-132182D01*
G01X4412082Y-127000D01*
G01X4483100Y-152400D02*
G01X4483100Y-76200D01*
G01X4457700Y-50800D01*
G01X5184551Y24869D02*
G01X5473700Y24869D01*
G01X4924557Y24869D02*
G01X4924557Y139700D01*
G01X4546495Y88795D02*
G01X4546495Y120860D01*
G01X4559195Y133560D01*
G01X4851400D01*
G01X4864100Y120860D01*
G01Y29411D01*
G01X4899157Y165100D02*
G01X4924557Y139700D01*
G01X5067300Y330200D02*
G01X4673600Y330200D01*
G01X4622800Y381000D01*
G01X4556567Y330200D02*
G01X4581967Y304800D01*
G01X5008711D01*
G01X5054600Y258911D01*
G01X4208882Y215900D02*
G01X4221582Y203200D01*
G01X4635500Y203200D02*
G01X4648200Y190500D01*
G01X4991100D01*
G01X5003800Y203200D01*
G01Y241300D01*
G01X4635500Y203200D02*
G01X4221582Y203200D01*
G54D83*
G01X3797300Y-533400D02*
G01X3627479Y-533400D01*
G01X3622045Y-538835D01*
G01X3972110Y-533400D02*
G01X3977645Y-538935D01*
G01X3418745Y-538935D02*
G01X3190345Y-539035D01*
G01X3418845Y-538835D02*
G01X3468277Y-538863D01*
G01X3531777Y-538898D01*
G01X3596645Y-538935D01*
G54D10*
G01X5506826Y-1072335D02*
G01X5671365Y-1072335D01*
G01X5715000Y-1028700D01*
G01Y-50800D01*
G01X5740400Y-25400D01*
G01X6106719D01*
G01X6119419Y-12700D01*
G54D82*
G01X4775200Y-2273300D02*
G01X4775200Y-2336800D01*
G01Y-2396503D01*
G01X4711700Y-2273300D02*
G01X4642866Y-2273300D01*
G01X4711700Y-2273300D02*
G01X4775200Y-2273300D01*
G01X4286499Y-2381499D02*
G01X4286499Y-2223201D01*
G54D73*
G01X4924557Y599062D02*
G01X4927600Y602105D01*
G01X4927600Y698500D02*
G01X4927600Y602105D01*
G01X4859558Y703042D02*
G01X4859558Y599062D01*
G01X4800600Y762000D02*
G01X4859558Y703042D01*
G01X4664537Y599062D02*
G01X4664537Y774700D01*
G01X4864100Y762000D02*
G01X4927600Y698500D01*
G01X4864100Y762000D02*
G01X4864100Y800100D01*
G01X4851400Y812800D01*
G01X4749800D01*
G01X4729536Y792536D01*
G01Y599062D01*
G01X4599538Y599062D02*
G01X4599538Y723900D01*
G01X4165600Y680720D02*
G01X4503420Y680720D01*
G01X4508500Y711200D02*
G01X4508500Y685800D01*
G01X4503420Y680720D02*
G01X4508500Y685800D01*
G54D10*
G01X4949957Y-88847D02*
G01X4924557Y-63447D01*
G01X4949957Y-304800D02*
G01X4949957Y-88847D01*
G01X4949957Y-304800D02*
G01X4902200Y-304800D01*
G01X4949957Y-304800D02*
G01X4954426Y-304800D01*
G01X4954321Y-547411D01*
G01X4965590Y-558690D01*
G54D68*
G01X4206245Y1759765D02*
G01X4118145Y1759765D01*
G54D72*
G01X5184145Y967965D02*
G01X5184145Y908865D01*
G54D73*
G01X5386217Y2133600D02*
G01X5219700Y2133600D01*
G54D72*
G01X5184145Y908865D02*
G01X5234945Y858065D01*
G54D10*
G01X5692145Y1208484D02*
G01X5692145Y1079500D01*
G01Y1079147D01*
G01X5321300Y989734D02*
G01X5323235Y991669D01*
G54D68*
G01X4422145Y1746265D02*
G01X4409445Y1758965D01*
G01X4990700Y1746265D02*
G01X4422145Y1746265D01*
G54D72*
G01X5654461Y271482D02*
G01X5722309Y271482D01*
G01X5740400Y271482D02*
G01X5722309Y271482D01*
G01X5707835Y858065D02*
G01X5740400Y825500D01*
G01Y271482D01*
G01X5234945Y858065D02*
G01X5565561Y858065D01*
G01Y979163D01*
G01X5565561Y858065D02*
G01X5707835Y858065D01*
G54D73*
G01X4706165Y1581965D02*
G01X4866645Y1581965D01*
G01X4660900Y1397000D02*
G01X4660900Y1536700D01*
G01X4706165Y1581965D01*
G54D77*
G01X2298700Y774700D02*
G01X2298700Y718810D01*
G01X2448404Y870765D02*
G01X2403139Y825500D01*
G01X2349500D01*
G01X2298700Y774700D01*
G54D78*
G01X2270244Y1103772D02*
G01X2286000Y1088016D01*
G01X2188800Y766400D02*
G01X2146300Y766400D01*
G01X2286000Y1088016D02*
G01X2286000Y863600D01*
G01X2188800Y766400D01*
G54D10*
G01X4539082Y1244600D02*
G01X4546600Y1237082D01*
G01Y1041400D01*
G01X5029200Y787400D02*
G01X5029200Y974810D01*
G54D72*
G01X5036045Y967965D02*
G01X5029200Y974810D01*
G01X5006345Y997665D01*
G54D10*
G01X5819145Y993365D02*
G01X5920965Y993365D01*
G01X5930900Y1003300D01*
G01Y1143000D01*
G54D73*
G01X2195238Y967062D02*
G01X2195238Y1028766D01*
G01X2235200Y876300D02*
G01X2235200Y927100D01*
G01X2195238Y967062D01*
G01X2209800Y850900D02*
G01X2235200Y876300D01*
G01X2108200Y850900D02*
G01X2209800Y850900D01*
G01X2057400Y800100D02*
G01X2108200Y850900D01*
G01X1346200Y800100D02*
G01X2057400Y800100D01*
G01X948650Y636865D02*
G01X1055965Y636865D01*
G01X1092200Y673100D01*
G01Y767715D01*
G01X1271645Y947160D01*
G54D81*
G01X1181100Y824286D02*
G01X1117600Y760786D01*
G01Y654508D01*
G54D73*
G01X1333500Y901700D02*
G01X1362390Y872810D01*
G01X1596710D01*
G01X1689100Y965200D01*
G01Y1022627D01*
G01X1745226Y970526D02*
G01X1745226Y1028766D01*
G01X1676400Y901700D02*
G01X1745226Y970526D01*
G01X1663700Y901700D02*
G01X1676400Y901700D01*
G01X1600200Y838200D02*
G01X1663700Y901700D01*
G01X1320800Y812800D02*
G01X1346200Y838200D01*
G01X1206500Y812800D02*
G01X1320800Y812800D01*
G01X1168400Y774700D02*
G01X1206500Y812800D01*
G01X1168400Y647700D02*
G01X1168400Y774700D01*
G01X774700Y431800D02*
G01X787400Y444500D01*
G01X825500Y-25400D02*
G01X774700Y25400D01*
G01X876300Y-25400D02*
G01X825500Y-25400D01*
G01X1346200Y838200D02*
G01X1600200Y838200D01*
G01X774700Y25400D02*
G01X774700Y431800D01*
G01X927100Y-76200D02*
G01X876300Y-25400D01*
G01X927100Y-254000D02*
G01X927100Y-76200D01*
G01X939800Y-266700D02*
G01X927100Y-254000D01*
G01X990600Y-266700D02*
G01X939800Y-266700D01*
G54D78*
G01X2146300Y766400D02*
G01X1376000Y766400D01*
G54D73*
G01X1244600Y635000D02*
G01X1282700Y635000D01*
G01X1295400Y647700D01*
G01Y749300D01*
G01X1346200Y800100D01*
G54D78*
G01X876300Y406400D02*
G01X838200Y368300D01*
G01Y50800D01*
G01X1333500Y723900D02*
G01X1333500Y622300D01*
G01X1376000Y766400D02*
G01X1333500Y723900D01*
G54D73*
G01X4412082Y381000D02*
G01X4412082Y424282D01*
G01X4419600Y431800D01*
G01X5041900D01*
G01X4208882Y381000D02*
G01X4208882Y337718D01*
G01X4216400Y330200D01*
G01X4556567D01*
G01X4412082Y127000D02*
G01X4412082Y159005D01*
G01X4418177Y165100D01*
G01X4899157D01*
G01X4114800Y-76200D02*
G01X4318000Y-76200D01*
G01X4114800Y-101600D02*
G01X4114800Y-78300D01*
G01X4100000Y-63500D01*
G01X4114800Y-78300D02*
G01X4114800Y-76200D01*
G01X4208882Y-127000D02*
G01X4208882Y-233782D01*
G01X4229100Y-254000D01*
G01X4483100D01*
G54D10*
G01X4521200Y-317500D02*
G01X4521200Y-393700D01*
G01X4490265Y-424635D01*
G01X3583945D01*
G01X4470400Y-546100D02*
G01X4470400Y-584200D01*
G01X4495800Y-609600D01*
G01X4737100D01*
G54D74*
G01X4574545Y-523245D02*
G01X4597400Y-546100D01*
G01X4665300D01*
G01X4574545Y-523245D02*
G01X4574545Y-259535D01*
G54D78*
G01X2146300Y681400D02*
G01X2146300Y533400D01*
G01X2108200Y495300D01*
G01X1714500D01*
G01X1117600Y406400D02*
G01X876300Y406400D01*
G01X1293649Y582449D02*
G01X1166649Y582449D01*
G01X1143000Y558800D01*
G01Y431800D01*
G01X1333500Y622300D02*
G01X1293649Y582449D01*
G01X1143000Y431800D02*
G01X1117600Y406400D01*
G54D73*
G01X787400Y444500D02*
G01X1079500Y444500D01*
G01X1104900Y469900D01*
G01Y584200D01*
G01X1168400Y647700D01*
G54D81*
G01X1077877Y569877D02*
G01X1077877Y614784D01*
G01X1117600Y654508D02*
G01X1077877Y614784D01*
G01X1053492Y545492D02*
G01X1077877Y569877D01*
G01X1053492Y545492D02*
G01X990554Y545492D01*
G54D73*
G01X317500Y1115593D02*
G01X317500Y482600D01*
G01X342900Y457200D01*
G01X393700D01*
G01X698500Y-698500D02*
G01X469900Y-698500D01*
G01X457200Y-685800D01*
G01Y-266700D01*
G54D77*
G01X1511300Y-571500D02*
G01X2235200Y-571500D01*
G01X2311400Y-495300D01*
G01X3009900D01*
G01X3429000Y-1681480D02*
G01X3449320Y-1701800D01*
G01X3873274D01*
G01X3111500Y-876300D02*
G01X3390900Y-876300D01*
G01X3429000Y-914400D01*
G01Y-1681480D01*
G54D73*
G01X4130045Y570782D02*
G01X4130045Y636394D01*
G01X4048074Y718365D01*
G01X3152145D01*
G01X4208882Y508000D02*
G01X4208882Y464718D01*
G01X4216400Y457200D01*
G01X5105400D01*
G01X4208882Y-30582D02*
G01X4208882Y0D01*
G01X4229100Y-50800D02*
G01X4208882Y-30582D01*
G01X4457700Y-50800D02*
G01X4229100Y-50800D01*
G01X3683792Y-123937D02*
G01X3683792Y-75408D01*
G01X3695700Y-63500D01*
G01X4100000D01*
G54D84*
G01X4930245Y1175665D02*
G01X5006345Y1175665D01*
G01X4930245Y1175665D02*
G01X4765045Y1010465D01*
G54D85*
G01X4305300Y2120900D02*
G01X4472962Y2120900D01*
G01X4516142Y2077720D01*
G01Y1758965D01*
G54D82*
G01X4611319Y-1968500D02*
G01X4508500Y-1968500D01*
G54D10*
G01X4800600Y-1281762D02*
G01X4896134Y-1186228D01*
G01X4813300Y-1854200D02*
G01X4800600Y-1841500D01*
G01Y-1281762D01*
G01X4286499Y-1930400D02*
G01X4286499Y-2223201D01*
G01X4311899Y-1905000D02*
G01X4286499Y-1930400D01*
G01X4962803Y-1905000D02*
G01X4991100Y-1933297D01*
G01Y-1993900D01*
G01X5041900Y-2044700D01*
G01X5194300Y-2044700D02*
G01X5219700Y-2019300D01*
G01Y-1783806D01*
G01X5209545Y-1773651D01*
G01X4962803Y-1905000D02*
G01X4311899Y-1905000D01*
G01X5041900Y-2044700D02*
G01X5194300Y-2044700D01*
G01X5118100Y-1943100D02*
G01X5029200Y-1854200D01*
G01X4813300D01*
G54D78*
G01X3806851Y758851D02*
G01X3835400Y787400D01*
G01Y1130300D01*
G01X3822700Y1143000D01*
G01X3643460D01*
G01X3636294Y1150165D01*
G01X3806851Y758851D02*
G01X3063000Y758851D01*
G01X3771900Y800100D02*
G01X3797300Y825500D01*
G01X3771900Y800100D02*
G01X3024900Y800100D01*
G01X3368017Y1422400D02*
G01X3340100Y1394483D01*
G01X3340100Y1117600D02*
G01X3365500Y1092200D01*
G01X3773185D01*
G01X3797300Y1068085D01*
G01X3492500Y1422400D02*
G01X3368017Y1422400D01*
G01X3797300Y825500D02*
G01X3797300Y1068085D01*
G01X3340100Y1394483D02*
G01X3340100Y1117600D01*
G54D84*
G01X4257032Y1306642D02*
G01X4343400Y1220274D01*
G01Y1016000D01*
G54D10*
G01X539293Y1975756D02*
G03X534814Y1979225I-205592J-260826D01*
G54D86*
G01X664196Y1714941D02*
G03X544398Y1970319I-332099J0D01*
G54D10*
G03X537682Y1975756I-212297J-255375D01*
G54D76*
G01X539293Y1975756D02*
G02X544398Y1970319I-2132637J-2007538D01*
G01X544398Y1970319D02*
G02X546100Y1968500I-2139086J-2003085D01*
G54D68*
G01X350057Y2186318D02*
G02X279400Y2349500I170877J170877D01*
G01X279400Y2349500D02*
G02X277099Y2997200I11440814J364503D01*
G54D73*
G01X4216263Y2527437D02*
G01X4241800Y2501900D01*
G54D78*
G01X4241800Y2476500D01*
G54D73*
G01X4305300Y2476500D02*
G01X4305300Y2514600D01*
G01X4264563Y2555337D01*
G54D68*
G01X4432300Y2732674D02*
G01X4607504Y2730500D01*
G01X4605330Y2732674D02*
G01X4432300Y2732674D01*
G01X3908760D01*
G54D73*
G01X4216263Y2527437D02*
G01X3933873Y2527437D01*
G01X4264563Y2555337D02*
G01X3922317Y2555337D01*
G01X3871517Y2263237D02*
G01X3820548Y2212269D01*
G01X3871517Y2465081D02*
G01X3871517Y2263237D01*
G01X3933873Y2527437D02*
G01X3871517Y2465081D01*
G01X3843616Y2274794D02*
G01X3809031Y2240209D01*
G01X3843616Y2476637D02*
G01X3843616Y2274794D01*
G01X3922317Y2555337D02*
G01X3843616Y2476637D01*
G54D77*
G01X3949700Y2209800D02*
G01X3949700Y2203516D01*
G01X4013200Y2140016D01*
G04 Track End*

M02*
