G04 Layer: BottomLayer*
G04 EasyEDA Pro v2.1.49.1.de255bc8.674264, 2024-08-10 13:04:53*
G04 Gerber Generator version 0.3*
G04 Scale: 100 percent, Rotated: No, Reflected: No*
G04 Dimensions in millimeters*
G04 Leading zeros omitted, absolute positions, 3 integers and 5 decimals*
%FSLAX35Y35*%
%MOMM*%
%ADD8191C,0.2032*%
%ADD10C,0.254*%
%ADD11C,1.0*%
%ADD12R,1.0X1.0*%
%ADD13C,0.5*%
%ADD14C,0.1905*%
G75*


G04 Copper Start*
G36*
G01X-594878Y-1590563D02*
G02X-744064Y-1441378I0J149186D01*
G01Y-357469D01*
G01Y-91850D01*
G02X-594878Y57336I149186J0D01*
G02X-445693Y-91850I0J-149186D01*
G02X-473100Y-178027I-149186J0D01*
G03X-488866Y-227597I70049J-49570D01*
G03X-462734Y-289258I85814J0D01*
G01X-337728Y-410253D01*
G03X-278046Y-434406I59682J61661D01*
G03X-192232Y-348592I0J85814D01*
G01Y-315508D01*
G03X-278046Y-229694I-85814J0D01*
G01X-315720D01*
G02X-329906Y-215508I0J14186D01*
G01Y-178714D01*
G01X-298760Y-209860D01*
G03X-266700Y-223139I32060J32060D01*
G01X-120380D01*
G01X-103657Y-239862D01*
G01Y-886567D01*
G01X-103947Y-886896D01*
G03X-119132Y-927100I45628J-40204D01*
G03X-58318Y-987914I60814J0D01*
G03X2496Y-927100I0J60814D01*
G03X-12490Y-887124I-60814J0D01*
G01X-12979Y-886552D01*
G01Y-221082D01*
G03X-26259Y-189022I-45339J0D01*
G01X-69540Y-145741D01*
G03X-101600Y-132461I-32060J-32060D01*
G01X-247920D01*
G01X-259461Y-120920D01*
G01Y-78633D01*
G01X-259172Y-78305D01*
G03X-243986Y-38100I-45628J40204D01*
G03X-258972Y1876I-60814J0D01*
G01X-259461Y2448D01*
G01Y119761D01*
G01X109134D01*
G01X109463Y119472D01*
G03X149668Y104286I40204J45628D01*
G03X210482Y165100I0J60814D01*
G03X149668Y225914I-60814J0D01*
G03X109692Y210928I0J-60814D01*
G01X109119Y210439D01*
G01X-279400D01*
G03X-311460Y197159I0J-45339D01*
G01X-329906Y178713D01*
G01Y186682D01*
G02X-285720Y230868I44186J0D01*
G01X344279D01*
G02X388465Y186682I0J-44186D01*
G01Y-253317D01*
G02X344279Y-297503I-44186J0D01*
G01X214144D01*
G01X214143D01*
G03X62750Y-375582I0J-185814D01*
G03X33887Y-465923I126950J-90341D01*
G03X47411Y-529417I155814J0D01*
G03X217097Y-639511I169686J75720D01*
G01X224653D01*
G02X373838Y-788697I0J-149186D01*
G02X224653Y-937883I-149186J0D01*
G01X217097D01*
G03X31283Y-1123696I0J-185814D01*
G01Y-1149954D01*
G02X-69554Y-1301426I-164186J0D01*
G01X-377606Y-1430260D01*
G03X-461677Y-1508562I63977J-152974D01*
G02X-594878Y-1590563I-133202J67184D01*
G37*
%LPC*%
G36*
G01X-432600Y-1165314D02*
G03X-396786Y-1129500I0J35814D01*
G01Y-1029500D01*
G03X-411505Y-1000558I-35814J0D01*
G03X-396786Y-952500I-71095J48058D01*
G03X-424878Y-889000I-85814J0D01*
G03X-396786Y-825500I-57722J63500D01*
G03X-424878Y-762000I-85814J0D01*
G03X-396786Y-698500I-57722J63500D01*
G03X-424878Y-635000I-85814J0D01*
G03X-396786Y-571500I-57722J63500D01*
G03X-424878Y-508000I-85814J0D01*
G03X-396786Y-444500I-57722J63500D01*
G03X-482600Y-358686I-85814J0D01*
G03X-568414Y-444500I0J-85814D01*
G03X-540322Y-508000I85814J0D01*
G03X-568414Y-571500I57722J-63500D01*
G03X-540322Y-635000I85814J0D01*
G03X-568414Y-698500I57722J-63500D01*
G03X-540322Y-762000I85814J0D01*
G03X-568414Y-825500I57722J-63500D01*
G03X-540322Y-889000I85814J0D01*
G03X-568414Y-952500I57722J-63500D01*
G03X-553695Y-1000558I85814J0D01*
G03X-568414Y-1029500I21095J-28942D01*
G01Y-1129500D01*
G03X-532600Y-1165314I35814J0D01*
G01X-432600D01*
G37*
G36*
G01X-594878Y-237664D02*
G03X-449064Y-91850I0J145814D01*
G03X-594878Y53964I-145814J0D01*
G03X-740692Y-91850I0J-145814D01*
G03X-594878Y-237664I145814J0D01*
G37*
G36*
G01X224653Y-934511D02*
G03X370467Y-788697I0J145814D01*
G03X224653Y-642883I-145814J0D01*
G03X78839Y-788697I0J-145814D01*
G03X224653Y-934511I145814J0D01*
G37*
G36*
G01X-594878Y-1587192D02*
G03X-449064Y-1441378I0J145814D01*
G03X-594878Y-1295564I-145814J0D01*
G03X-740692Y-1441378I0J-145814D01*
G03X-594878Y-1587192I145814J0D01*
G37*
%LPD*%
G54D8191*
G01X-594878Y-1590563D02*
G02X-744064Y-1441378I0J149186D01*
G01Y-357469D01*
G01Y-91850D01*
G02X-594878Y57336I149186J0D01*
G02X-445693Y-91850I0J-149186D01*
G02X-473100Y-178027I-149186J0D01*
G03X-488866Y-227597I70049J-49570D01*
G03X-462734Y-289258I85814J0D01*
G01X-337728Y-410253D01*
G03X-278046Y-434406I59682J61661D01*
G03X-192232Y-348592I0J85814D01*
G01Y-315508D01*
G03X-278046Y-229694I-85814J0D01*
G01X-315720D01*
G02X-329906Y-215508I0J14186D01*
G01Y-178714D01*
G01X-298760Y-209860D01*
G03X-266700Y-223139I32060J32060D01*
G01X-120380D01*
G01X-103657Y-239862D01*
G01Y-886567D01*
G01X-103947Y-886896D01*
G03X-119132Y-927100I45628J-40204D01*
G03X-58318Y-987914I60814J0D01*
G03X2496Y-927100I0J60814D01*
G03X-12490Y-887124I-60814J0D01*
G01X-12979Y-886552D01*
G01Y-221082D01*
G03X-26259Y-189022I-45339J0D01*
G01X-69540Y-145741D01*
G03X-101600Y-132461I-32060J-32060D01*
G01X-247920D01*
G01X-259461Y-120920D01*
G01Y-78633D01*
G01X-259172Y-78305D01*
G03X-243986Y-38100I-45628J40204D01*
G03X-258972Y1876I-60814J0D01*
G01X-259461Y2448D01*
G01Y119761D01*
G01X109134D01*
G01X109463Y119472D01*
G03X149668Y104286I40204J45628D01*
G03X210482Y165100I0J60814D01*
G03X149668Y225914I-60814J0D01*
G03X109692Y210928I0J-60814D01*
G01X109119Y210439D01*
G01X-279400D01*
G03X-311460Y197159I0J-45339D01*
G01X-329906Y178713D01*
G01Y186682D01*
G02X-285720Y230868I44186J0D01*
G01X344279D01*
G02X388465Y186682I0J-44186D01*
G01Y-253317D01*
G02X344279Y-297503I-44186J0D01*
G01X214144D01*
G01X214143D01*
G03X62750Y-375582I0J-185814D01*
G03X33887Y-465923I126950J-90341D01*
G03X47411Y-529417I155814J0D01*
G03X217097Y-639511I169686J75720D01*
G01X224653D01*
G02X373838Y-788697I0J-149186D01*
G02X224653Y-937883I-149186J0D01*
G01X217097D01*
G03X31283Y-1123696I0J-185814D01*
G01Y-1149954D01*
G02X-69554Y-1301426I-164186J0D01*
G01X-377606Y-1430260D01*
G03X-461677Y-1508562I63977J-152974D01*
G02X-594878Y-1590563I-133202J67184D01*
G01X-432600Y-1165314D02*
G03X-396786Y-1129500I0J35814D01*
G01Y-1029500D01*
G03X-411505Y-1000558I-35814J0D01*
G03X-396786Y-952500I-71095J48058D01*
G03X-424878Y-889000I-85814J0D01*
G03X-396786Y-825500I-57722J63500D01*
G03X-424878Y-762000I-85814J0D01*
G03X-396786Y-698500I-57722J63500D01*
G03X-424878Y-635000I-85814J0D01*
G03X-396786Y-571500I-57722J63500D01*
G03X-424878Y-508000I-85814J0D01*
G03X-396786Y-444500I-57722J63500D01*
G03X-482600Y-358686I-85814J0D01*
G03X-568414Y-444500I0J-85814D01*
G03X-540322Y-508000I85814J0D01*
G03X-568414Y-571500I57722J-63500D01*
G03X-540322Y-635000I85814J0D01*
G03X-568414Y-698500I57722J-63500D01*
G03X-540322Y-762000I85814J0D01*
G03X-568414Y-825500I57722J-63500D01*
G03X-540322Y-889000I85814J0D01*
G03X-568414Y-952500I57722J-63500D01*
G03X-553695Y-1000558I85814J0D01*
G03X-568414Y-1029500I21095J-28942D01*
G01Y-1129500D01*
G03X-532600Y-1165314I35814J0D01*
G01X-432600D01*
G01X-594878Y-237664D02*
G03X-449064Y-91850I0J145814D01*
G03X-594878Y53964I-145814J0D01*
G03X-740692Y-91850I0J-145814D01*
G03X-594878Y-237664I145814J0D01*
G01X224653Y-934511D02*
G03X370467Y-788697I0J145814D01*
G03X224653Y-642883I-145814J0D01*
G03X78839Y-788697I0J-145814D01*
G03X224653Y-934511I145814J0D01*
G01X-594878Y-1587192D02*
G03X-449064Y-1441378I0J145814D01*
G03X-594878Y-1295564I-145814J0D01*
G03X-740692Y-1441378I0J-145814D01*
G03X-594878Y-1587192I145814J0D01*
G54D10*
G01X-482600Y-952500D02*
G01X-558508Y-952500D01*
G01X-482600Y-952500D02*
G01X-406692Y-952500D01*
G04 Copper End*

G04 Tear Start*
G36*
G01X115632Y174625D02*
G01X115632Y155575D01*
G01X116920Y155522D01*
G01X118171Y155368D01*
G01X119388Y155119D01*
G01X120573Y154782D01*
G01X121727Y154364D01*
G01X122854Y153872D01*
G01X123957Y153313D01*
G01X126094Y152017D01*
G01X128160Y150533D01*
G01X132150Y147214D01*
G01X133132Y146350D01*
G01Y183850D01*
G01X129172Y180463D01*
G01X127135Y178904D01*
G01X125036Y177508D01*
G01X123957Y176887D01*
G01X122854Y176328D01*
G01X121727Y175835D01*
G01X120573Y175418D01*
G01X119388Y175081D01*
G01X118171Y174832D01*
G01X116920Y174678D01*
G01X115632Y174625D01*
G37*
G36*
G01X-295275Y-4064D02*
G01X-314325Y-4064D01*
G01X-314378Y-5353D01*
G01X-314532Y-6604D01*
G01X-314781Y-7820D01*
G01X-315118Y-9005D01*
G01X-315536Y-10160D01*
G01X-316028Y-11287D01*
G01X-316587Y-12389D01*
G01X-317882Y-14527D01*
G01X-319367Y-16592D01*
G01X-322686Y-20582D01*
G01X-323550Y-21564D01*
G01X-286050D01*
G01X-289437Y-17604D01*
G01X-290996Y-15567D01*
G01X-292392Y-13468D01*
G01X-293013Y-12389D01*
G01X-293572Y-11287D01*
G01X-294064Y-10160D01*
G01X-294482Y-9005D01*
G01X-294819Y-7820D01*
G01X-295068Y-6604D01*
G01X-295222Y-5353D01*
G01X-295275Y-4064D01*
G37*
G36*
G01X-314325Y-72136D02*
G01X-295275Y-72136D01*
G01X-295222Y-70848D01*
G01X-295068Y-69597D01*
G01X-294819Y-68380D01*
G01X-294482Y-67195D01*
G01X-294064Y-66041D01*
G01X-293572Y-64914D01*
G01X-293013Y-63811D01*
G01X-291718Y-61673D01*
G01X-290233Y-59608D01*
G01X-286914Y-55618D01*
G01X-286050Y-54636D01*
G01X-323550D01*
G01X-320163Y-58596D01*
G01X-318604Y-60633D01*
G01X-317208Y-62732D01*
G01X-316587Y-63811D01*
G01X-316028Y-64914D01*
G01X-315536Y-66041D01*
G01X-315118Y-67195D01*
G01X-314781Y-68380D01*
G01X-314532Y-69597D01*
G01X-314378Y-70848D01*
G01X-314325Y-72136D01*
G37*
G36*
G01X-48793Y-893064D02*
G01X-67843Y-893064D01*
G01X-67896Y-894353D01*
G01X-68051Y-895604D01*
G01X-68300Y-896820D01*
G01X-68636Y-898005D01*
G01X-69054Y-899160D01*
G01X-69546Y-900287D01*
G01X-70106Y-901389D01*
G01X-71401Y-903527D01*
G01X-72885Y-905592D01*
G01X-76205Y-909582D01*
G01X-77068Y-910564D01*
G01X-39568D01*
G01X-42956Y-906604D01*
G01X-44514Y-904567D01*
G01X-45910Y-902468D01*
G01X-46531Y-901389D01*
G01X-47091Y-900287D01*
G01X-47583Y-899160D01*
G01X-48001Y-898005D01*
G01X-48337Y-896820D01*
G01X-48586Y-895604D01*
G01X-48741Y-894353D01*
G01X-48793Y-893064D01*
G37*
G04 Tear End*

G04 Pad Start*
G54D11*
G01X-482600Y-444500D03*
G01X-482600Y-571500D03*
G01X-482600Y-825500D03*
G01X-482600Y-952500D03*
G54D12*
G01X-482600Y-1079500D03*
G54D11*
G01X-482600Y-698500D03*
G04 Pad End*

G04 Via Start*
G54D13*
G01X149668Y165100D03*
G01X-304800Y-38100D03*
G01X-58318Y-927100D03*
G01X-482600Y-1193800D03*
G01X-419100Y-1193800D03*
G01X-355600Y-1193800D03*
G01X-292100Y-1193800D03*
G01X-228600Y-1193800D03*
G01X-165100Y-1193800D03*
G01X-101600Y-1193800D03*
G01X-38100Y-1193800D03*
G01X-37549Y-1249416D03*
G01X-101049Y-1249416D03*
G01X-164549Y-1249416D03*
G01X-228049Y-1249416D03*
G01X-291549Y-1249416D03*
G01X-355049Y-1249416D03*
G01X-418549Y-1249416D03*
G01X-482049Y-1249416D03*
G01X0Y-596900D03*
G01X551Y-652516D03*
G01X64051Y-652516D03*
G01X63500Y-596900D03*
G01X0Y-711200D03*
G01X551Y-766816D03*
G01X64051Y-766816D03*
G01X63500Y-711200D03*
G01X0Y-825500D03*
G01X551Y-881116D03*
G01X64051Y-881116D03*
G01X63500Y-825500D03*
G01X-698500Y-304800D03*
G01X-635000Y-304800D03*
G01X-571500Y-304800D03*
G01X-508000Y-304800D03*
G04 Via End*

G04 Track Start*
G54D14*
G01X-304800Y-38100D02*
G01X-304800Y139700D01*
G01X-279400Y165100D01*
G01X149668D01*
G01X-304800Y-38100D02*
G01X-304800Y-139700D01*
G01X-266700Y-177800D01*
G01X-101600D01*
G01X-58318Y-221082D01*
G01Y-927100D01*
G04 Track End*

M02*
