G04 Layer: BottomLayer*
G04 EasyEDA Pro v2.1.49.1.de255bc8.674264, 2024-08-10 13:06:22*
G04 Gerber Generator version 0.3*
G04 Scale: 100 percent, Rotated: No, Reflected: No*
G04 Dimensions in millimeters*
G04 Leading zeros omitted, absolute positions, 3 integers and 5 decimals*
%FSLAX35Y35*%
%MOMM*%
%ADD8191C,0.2032*%
%ADD10C,0.254*%
%ADD11O,1.2X1.8*%
%ADD12O,1.2X2.0*%
%ADD13C,1.0*%
%ADD14R,1.0X1.0*%
%ADD15R,1.8X1.8*%
%ADD16C,1.8*%
%ADD17C,0.5*%
%ADD18C,0.4036*%
%ADD19C,0.4*%
G75*


G04 Copper Start*
G36*
G01X3511982Y2946400D02*
G03X3625462Y2782214I175514J0D01*
G01X1649534D01*
G03X1763014Y2946400I-62034J164186D01*
G03X1587500Y3121914I-175514J0D01*
G03X1423314Y3008434I0J-175514D01*
G01Y6280350D01*
G03X1587500Y6169423I164186J66043D01*
G03X1764471Y6346393I0J176971D01*
G03X1653543Y6510579I-176971J0D01*
G01X3626887D01*
G03X3512480Y6346393I60609J-164186D01*
G03X3687496Y6171378I175015J0D01*
G03X3851681Y6285784I0J175015D01*
G01Y3008434D01*
G03X3687496Y3121914I-164186J-62034D01*
G03X3511982Y2946400I0J-175514D01*
G37*
%LPC*%
G36*
G01X3721100Y3672986D02*
G03X3781914Y3733800I0J60814D01*
G03X3769614Y3770471I-60814J0D01*
G01Y4064000D01*
G03X3755405Y4098305I-48514J0D01*
G01X3691905Y4161805D01*
G03X3657600Y4176014I-34305J-34305D01*
G01X2829814D01*
G01Y4751045D01*
G03X2842114Y4787715I-48514J36671D01*
G03X2829814Y4824386I-60814J0D01*
G01Y5003800D01*
G03X2815605Y5038105I-48514J0D01*
G01X2740914Y5112795D01*
G01Y5123405D01*
G01X2750595Y5133086D01*
G01X2971800D01*
G03X3006105Y5147295I0J48514D01*
G01X3044205Y5185395D01*
G03X3058414Y5219700I-34305J34305D01*
G01Y5370316D01*
G03X3135714Y5486400I-48514J116084D01*
G03X3057195Y5602986I-125814J0D01*
G01X3060700D01*
G03X3095005Y5617195I0J48514D01*
G01X3133105Y5655295D01*
G03X3147314Y5689600I-34305J34305D01*
G01Y5726043D01*
G03X3159614Y5762714I-48514J36671D01*
G03X3098800Y5823528I-60814J0D01*
G03X3037986Y5762714I0J-60814D01*
G03X3050286Y5726043I60814J0D01*
G01Y5709695D01*
G01X3040605Y5700014D01*
G01X3018107D01*
G03X3032214Y5728500I-21707J28486D01*
G01Y5828500D01*
G03X2996400Y5864314I-35814J0D01*
G01X2896400D01*
G03X2867458Y5849595I0J-35814D01*
G03X2819400Y5864314I-48058J-71095D01*
G03X2755900Y5836222I0J-85814D01*
G03X2692400Y5864314I-63500J-57722D01*
G03X2628900Y5836222I0J-85814D01*
G03X2565400Y5864314I-63500J-57722D01*
G03X2501900Y5836222I0J-85814D01*
G03X2486914Y5849284I-63500J-57722D01*
G01Y5945886D01*
G01X3497805D01*
G01X3532886Y5910805D01*
G01Y4406900D01*
G03X3547095Y4372595I48514J0D01*
G01X3572495Y4347195D01*
G03X3606800Y4332986I34305J34305D01*
G01X3646329D01*
G03X3683000Y4320686I36671J48514D01*
G03X3743814Y4381500I0J60814D01*
G03X3683000Y4442314I-60814J0D01*
G03X3646329Y4430014I0J-60814D01*
G01X3629914D01*
G01Y4847132D01*
G03X3683000Y4815986I53086J29668D01*
G03X3743814Y4876800I0J60814D01*
G03X3731514Y4913471I-60814J0D01*
G01Y5994400D01*
G03X3717305Y6028705I-48514J0D01*
G01X3653805Y6092205D01*
G03X3619500Y6106414I-34305J-34305D01*
G01X2362200D01*
G03X2327895Y6092205I0J-48514D01*
G01X2277095Y6041405D01*
G03X2262886Y6007100I34305J-34305D01*
G01Y5849284D01*
G03X2225586Y5778500I48514J-70784D01*
G03X2311400Y5692686I85814J0D01*
G03X2374900Y5720778I0J85814D01*
G03X2438400Y5692686I63500J57722D01*
G03X2501900Y5720778I0J85814D01*
G03X2565400Y5692686I63500J57722D01*
G03X2628900Y5720778I0J85814D01*
G03X2692400Y5692686I63500J57722D01*
G03X2755900Y5720778I0J85814D01*
G03X2784702Y5700014I63500J57722D01*
G01X2781300D01*
G03X2746995Y5685805I0J-48514D01*
G01X2721595Y5660405D01*
G03X2707386Y5626100I34305J-34305D01*
G01Y5602484D01*
G03X2630086Y5486400I48514J-116084D01*
G03X2707386Y5370316I125814J0D01*
G01Y5328695D01*
G01X2697705Y5319014D01*
G01X2603500D01*
G03X2569195Y5304805I0J-48514D01*
G01X2543795Y5279405D01*
G03X2529586Y5245100I34305J-34305D01*
G01Y4965700D01*
G03X2543795Y4931395I48514J0D01*
G01X2594595Y4880595D01*
G03X2628900Y4866386I34305J34305D01*
G01X2643886D01*
G01Y4114800D01*
G03X2658095Y4080495I48514J0D01*
G01X2721595Y4016995D01*
G03X2755900Y4002786I34305J34305D01*
G01X3595529D01*
G03X3632200Y3990486I36671J48514D01*
G03X3672586Y4005832I0J60814D01*
G01Y3770471D01*
G03X3660286Y3733800I48514J-36671D01*
G03X3721100Y3672986I60814J0D01*
G37*
G36*
G01X2580786Y3263900D02*
G03X2641600Y3203086I60814J0D01*
G03X2702414Y3263900I0J60814D01*
G03X2690114Y3300571I-60814J0D01*
G01Y3574005D01*
G01X2699795Y3583686D01*
G01X2832100D01*
G03X2866405Y3597895I0J48514D01*
G01X2891805Y3623295D01*
G03X2906014Y3657600I-34305J34305D01*
G01Y3771900D01*
G03X2891805Y3806205I-48514J0D01*
G01X2860766Y3837243D01*
G03X2826461Y3851453I-34305J-34305D01*
G01X2729071D01*
G03X2692400Y3863753I-36671J-48514D01*
G03X2653006Y3849269I0J-60814D01*
G03X2614994Y3862613I-38012J-47470D01*
G03X2554180Y3801799I0J-60814D01*
G03X2614994Y3740985I60814J0D01*
G03X2654388Y3755469I0J60814D01*
G03X2692400Y3742125I38012J47470D01*
G03X2729071Y3754425I0J60814D01*
G01X2806366D01*
G01X2808986Y3751805D01*
G01Y3680714D01*
G01X2679700D01*
G03X2645395Y3666505I0J-48514D01*
G01X2607295Y3628405D01*
G03X2593086Y3594100I34305J-34305D01*
G01Y3300571D01*
G03X2580786Y3263900I48514J-36671D01*
G37*
G36*
G01X3004128Y3363834D02*
G03X3086303Y3317291I82175J49271D01*
G03X3182117Y3413105I0J95814D01*
G01Y3493105D01*
G03X3086303Y3588918I-95814J0D01*
G03X2990489Y3493105I0J-95814D01*
G01Y3452897D01*
G03X2943301Y3470910I-47188J-52802D01*
G03X2872486Y3400095I0J-70815D01*
G03X2943301Y3329280I70815J0D01*
G03X3004128Y3363834I0J70815D01*
G37*
G36*
G01X2222297Y3317291D02*
G03X2304472Y3363834I0J95814D01*
G03X2365299Y3329280I60827J36261D01*
G03X2436114Y3400095I0J70815D01*
G03X2365299Y3470910I-70815J0D01*
G03X2318111Y3452897I0J-70815D01*
G01Y3493105D01*
G03X2222297Y3588918I-95814J0D01*
G03X2126483Y3493105I0J-95814D01*
G01Y3413105D01*
G03X2222297Y3317291I95814J0D01*
G37*
G36*
G01X3138086Y5396400D02*
G03X3173900Y5360586I35814J0D01*
G01X3353900D01*
G03X3389714Y5396400I0J35814D01*
G01Y5576400D01*
G03X3353900Y5612214I-35814J0D01*
G01X3173900D01*
G03X3138086Y5576400I0J-35814D01*
G01Y5396400D01*
G37*
G36*
G01X2247900Y5360586D02*
G03X2373714Y5486400I0J125814D01*
G03X2247900Y5612214I-125814J0D01*
G03X2122086Y5486400I0J-125814D01*
G03X2247900Y5360586I125814J0D01*
G37*
G36*
G01X1868086Y5486400D02*
G03X1993900Y5360586I125814J0D01*
G03X2119714Y5486400I0J125814D01*
G03X1993900Y5612214I-125814J0D01*
G03X1868086Y5486400I0J-125814D01*
G37*
G36*
G01X2501900Y5360586D02*
G03X2627714Y5486400I0J125814D01*
G03X2501900Y5612214I-125814J0D01*
G03X2376086Y5486400I0J-125814D01*
G03X2501900Y5360586I125814J0D01*
G37*
G36*
G01X2126483Y3005097D02*
G03X2222297Y2909283I95814J0D01*
G03X2318111Y3005097I0J95814D01*
G01Y3065097D01*
G03X2222297Y3160911I-95814J0D01*
G03X2126483Y3065097I0J-95814D01*
G01Y3005097D01*
G37*
G36*
G01X3086303Y2909283D02*
G03X3182117Y3005097I0J95814D01*
G01Y3065097D01*
G03X3086303Y3160911I-95814J0D01*
G03X2990489Y3065097I0J-95814D01*
G01Y3005097D01*
G03X3086303Y2909283I95814J0D01*
G37*
%LPD*%
G54D8191*
G01X3511982Y2946400D02*
G03X3625462Y2782214I175514J0D01*
G01X1649534D01*
G03X1763014Y2946400I-62034J164186D01*
G03X1587500Y3121914I-175514J0D01*
G03X1423314Y3008434I0J-175514D01*
G01Y6280350D01*
G03X1587500Y6169423I164186J66043D01*
G03X1764471Y6346393I0J176971D01*
G03X1653543Y6510579I-176971J0D01*
G01X3626887D01*
G03X3512480Y6346393I60609J-164186D01*
G03X3687496Y6171378I175015J0D01*
G03X3851681Y6285784I0J175015D01*
G01Y3008434D01*
G03X3687496Y3121914I-164186J-62034D01*
G03X3511982Y2946400I0J-175514D01*
G01X3721100Y3672986D02*
G03X3781914Y3733800I0J60814D01*
G03X3769614Y3770471I-60814J0D01*
G01Y4064000D01*
G03X3755405Y4098305I-48514J0D01*
G01X3691905Y4161805D01*
G03X3657600Y4176014I-34305J-34305D01*
G01X2829814D01*
G01Y4751045D01*
G03X2842114Y4787715I-48514J36671D01*
G03X2829814Y4824386I-60814J0D01*
G01Y5003800D01*
G03X2815605Y5038105I-48514J0D01*
G01X2740914Y5112795D01*
G01Y5123405D01*
G01X2750595Y5133086D01*
G01X2971800D01*
G03X3006105Y5147295I0J48514D01*
G01X3044205Y5185395D01*
G03X3058414Y5219700I-34305J34305D01*
G01Y5370316D01*
G03X3135714Y5486400I-48514J116084D01*
G03X3057195Y5602986I-125814J0D01*
G01X3060700D01*
G03X3095005Y5617195I0J48514D01*
G01X3133105Y5655295D01*
G03X3147314Y5689600I-34305J34305D01*
G01Y5726043D01*
G03X3159614Y5762714I-48514J36671D01*
G03X3098800Y5823528I-60814J0D01*
G03X3037986Y5762714I0J-60814D01*
G03X3050286Y5726043I60814J0D01*
G01Y5709695D01*
G01X3040605Y5700014D01*
G01X3018107D01*
G03X3032214Y5728500I-21707J28486D01*
G01Y5828500D01*
G03X2996400Y5864314I-35814J0D01*
G01X2896400D01*
G03X2867458Y5849595I0J-35814D01*
G03X2819400Y5864314I-48058J-71095D01*
G03X2755900Y5836222I0J-85814D01*
G03X2692400Y5864314I-63500J-57722D01*
G03X2628900Y5836222I0J-85814D01*
G03X2565400Y5864314I-63500J-57722D01*
G03X2501900Y5836222I0J-85814D01*
G03X2486914Y5849284I-63500J-57722D01*
G01Y5945886D01*
G01X3497805D01*
G01X3532886Y5910805D01*
G01Y4406900D01*
G03X3547095Y4372595I48514J0D01*
G01X3572495Y4347195D01*
G03X3606800Y4332986I34305J34305D01*
G01X3646329D01*
G03X3683000Y4320686I36671J48514D01*
G03X3743814Y4381500I0J60814D01*
G03X3683000Y4442314I-60814J0D01*
G03X3646329Y4430014I0J-60814D01*
G01X3629914D01*
G01Y4847132D01*
G03X3683000Y4815986I53086J29668D01*
G03X3743814Y4876800I0J60814D01*
G03X3731514Y4913471I-60814J0D01*
G01Y5994400D01*
G03X3717305Y6028705I-48514J0D01*
G01X3653805Y6092205D01*
G03X3619500Y6106414I-34305J-34305D01*
G01X2362200D01*
G03X2327895Y6092205I0J-48514D01*
G01X2277095Y6041405D01*
G03X2262886Y6007100I34305J-34305D01*
G01Y5849284D01*
G03X2225586Y5778500I48514J-70784D01*
G03X2311400Y5692686I85814J0D01*
G03X2374900Y5720778I0J85814D01*
G03X2438400Y5692686I63500J57722D01*
G03X2501900Y5720778I0J85814D01*
G03X2565400Y5692686I63500J57722D01*
G03X2628900Y5720778I0J85814D01*
G03X2692400Y5692686I63500J57722D01*
G03X2755900Y5720778I0J85814D01*
G03X2784702Y5700014I63500J57722D01*
G01X2781300D01*
G03X2746995Y5685805I0J-48514D01*
G01X2721595Y5660405D01*
G03X2707386Y5626100I34305J-34305D01*
G01Y5602484D01*
G03X2630086Y5486400I48514J-116084D01*
G03X2707386Y5370316I125814J0D01*
G01Y5328695D01*
G01X2697705Y5319014D01*
G01X2603500D01*
G03X2569195Y5304805I0J-48514D01*
G01X2543795Y5279405D01*
G03X2529586Y5245100I34305J-34305D01*
G01Y4965700D01*
G03X2543795Y4931395I48514J0D01*
G01X2594595Y4880595D01*
G03X2628900Y4866386I34305J34305D01*
G01X2643886D01*
G01Y4114800D01*
G03X2658095Y4080495I48514J0D01*
G01X2721595Y4016995D01*
G03X2755900Y4002786I34305J34305D01*
G01X3595529D01*
G03X3632200Y3990486I36671J48514D01*
G03X3672586Y4005832I0J60814D01*
G01Y3770471D01*
G03X3660286Y3733800I48514J-36671D01*
G03X3721100Y3672986I60814J0D01*
G01X2580786Y3263900D02*
G03X2641600Y3203086I60814J0D01*
G03X2702414Y3263900I0J60814D01*
G03X2690114Y3300571I-60814J0D01*
G01Y3574005D01*
G01X2699795Y3583686D01*
G01X2832100D01*
G03X2866405Y3597895I0J48514D01*
G01X2891805Y3623295D01*
G03X2906014Y3657600I-34305J34305D01*
G01Y3771900D01*
G03X2891805Y3806205I-48514J0D01*
G01X2860766Y3837243D01*
G03X2826461Y3851453I-34305J-34305D01*
G01X2729071D01*
G03X2692400Y3863753I-36671J-48514D01*
G03X2653006Y3849269I0J-60814D01*
G03X2614994Y3862613I-38012J-47470D01*
G03X2554180Y3801799I0J-60814D01*
G03X2614994Y3740985I60814J0D01*
G03X2654388Y3755469I0J60814D01*
G03X2692400Y3742125I38012J47470D01*
G03X2729071Y3754425I0J60814D01*
G01X2806366D01*
G01X2808986Y3751805D01*
G01Y3680714D01*
G01X2679700D01*
G03X2645395Y3666505I0J-48514D01*
G01X2607295Y3628405D01*
G03X2593086Y3594100I34305J-34305D01*
G01Y3300571D01*
G03X2580786Y3263900I48514J-36671D01*
G01X3004128Y3363834D02*
G03X3086303Y3317291I82175J49271D01*
G03X3182117Y3413105I0J95814D01*
G01Y3493105D01*
G03X3086303Y3588918I-95814J0D01*
G03X2990489Y3493105I0J-95814D01*
G01Y3452897D01*
G03X2943301Y3470910I-47188J-52802D01*
G03X2872486Y3400095I0J-70815D01*
G03X2943301Y3329280I70815J0D01*
G03X3004128Y3363834I0J70815D01*
G01X2222297Y3317291D02*
G03X2304472Y3363834I0J95814D01*
G03X2365299Y3329280I60827J36261D01*
G03X2436114Y3400095I0J70815D01*
G03X2365299Y3470910I-70815J0D01*
G03X2318111Y3452897I0J-70815D01*
G01Y3493105D01*
G03X2222297Y3588918I-95814J0D01*
G03X2126483Y3493105I0J-95814D01*
G01Y3413105D01*
G03X2222297Y3317291I95814J0D01*
G01X3138086Y5396400D02*
G03X3173900Y5360586I35814J0D01*
G01X3353900D01*
G03X3389714Y5396400I0J35814D01*
G01Y5576400D01*
G03X3353900Y5612214I-35814J0D01*
G01X3173900D01*
G03X3138086Y5576400I0J-35814D01*
G01Y5396400D01*
G01X2247900Y5360586D02*
G03X2373714Y5486400I0J125814D01*
G03X2247900Y5612214I-125814J0D01*
G03X2122086Y5486400I0J-125814D01*
G03X2247900Y5360586I125814J0D01*
G01X1868086Y5486400D02*
G03X1993900Y5360586I125814J0D01*
G03X2119714Y5486400I0J125814D01*
G03X1993900Y5612214I-125814J0D01*
G03X1868086Y5486400I0J-125814D01*
G01X2501900Y5360586D02*
G03X2627714Y5486400I0J125814D01*
G03X2501900Y5612214I-125814J0D01*
G03X2376086Y5486400I0J-125814D01*
G03X2501900Y5360586I125814J0D01*
G01X2126483Y3005097D02*
G03X2222297Y2909283I95814J0D01*
G03X2318111Y3005097I0J95814D01*
G01Y3065097D01*
G03X2222297Y3160911I-95814J0D01*
G03X2126483Y3065097I0J-95814D01*
G01Y3005097D01*
G01X3086303Y2909283D02*
G03X3182117Y3005097I0J95814D01*
G01Y3065097D01*
G03X3086303Y3160911I-95814J0D01*
G03X2990489Y3065097I0J-95814D01*
G01Y3005097D01*
G03X3086303Y2909283I95814J0D01*
G54D10*
G01X3086303Y3453105D02*
G01X3000395Y3453105D01*
G01X3086303Y3453105D02*
G01X3172211Y3453105D01*
G01X3086303Y3453105D02*
G01X3086303Y3579012D01*
G01X3086303Y3453105D02*
G01X3086303Y3327197D01*
G01X2501900Y5486400D02*
G01X2617808Y5486400D01*
G01X2501900Y5486400D02*
G01X2385992Y5486400D01*
G01X2501900Y5486400D02*
G01X2501900Y5370492D01*
G01X2501900Y5486400D02*
G01X2501900Y5602308D01*
G01X2222297Y3035097D02*
G01X2136389Y3035097D01*
G01X2222297Y3035097D02*
G01X2308205Y3035097D01*
G01X2222297Y3035097D02*
G01X2222297Y3151005D01*
G01X2222297Y3035097D02*
G01X2222297Y2919189D01*
G01X2565400Y5778500D02*
G01X2565400Y5702592D01*
G01X2565400Y5778500D02*
G01X2565400Y5854408D01*
G01X3086303Y3035097D02*
G01X3000395Y3035097D01*
G01X3086303Y3035097D02*
G01X3172211Y3035097D01*
G01X3086303Y3035097D02*
G01X3086303Y3151005D01*
G01X3086303Y3035097D02*
G01X3086303Y2919189D01*
G01X2222297Y3453105D02*
G01X2136389Y3453105D01*
G01X2222297Y3453105D02*
G01X2308205Y3453105D01*
G01X2222297Y3453105D02*
G01X2222297Y3579012D01*
G01X2222297Y3453105D02*
G01X2222297Y3327197D01*
G04 Copper End*

G04 PolygonModel Start*
G36*
G01X2184400Y3987800D02*
G01X2184400Y3962400D01*
G01X2197100Y3949700D01*
G01X2317353D01*
G01X2335235Y3967582D01*
G01Y3989365D01*
G01X2324100Y4000500D01*
G01X2197100D01*
G01X2184400Y3987800D01*
G37*
G04 PolygonModel End*

G04 Rect Start*
G36*
G01X3073400Y5943600D02*
G01X3073400Y5892800D01*
G01X3225800D01*
G01Y5943600D01*
G01X3073400D01*
G37*
G04 Rect End*

G04 Pad Start*
G54D11*
G01X2222297Y3035097D03*
G01X3086303Y3035097D03*
G54D12*
G01X3086303Y3453105D03*
G01X2222297Y3453105D03*
G54D13*
G01X2311400Y5778500D03*
G01X2438400Y5778500D03*
G01X2692400Y5778500D03*
G01X2819400Y5778500D03*
G54D14*
G01X2946400Y5778500D03*
G54D13*
G01X2565400Y5778500D03*
G54D15*
G01X3263900Y5486400D03*
G54D16*
G01X3009900Y5486400D03*
G01X2755900Y5486400D03*
G01X2501900Y5486400D03*
G01X2247900Y5486400D03*
G01X1993900Y5486400D03*
G04 Pad End*

G04 Via Start*
G54D17*
G01X2526001Y3721100D03*
G01X2781300Y3721100D03*
G01X2692400Y3802939D03*
G01X2614994Y3801799D03*
G01X2641600Y3263900D03*
G01X3683000Y4876800D03*
G01X3683000Y4381500D03*
G01X2692400Y4914900D03*
G01X2298700Y3975100D03*
G01X2222500Y3975100D03*
G01X3098800Y5762714D03*
G01X3098800Y5918200D03*
G01X3200400Y5918200D03*
G01X3149600Y5918200D03*
G01X1532800Y3183800D03*
G01X1532800Y3423800D03*
G01X1532800Y3663800D03*
G01X1532800Y3903800D03*
G01X1532800Y4143800D03*
G01X1532800Y4383800D03*
G01X1532800Y4623800D03*
G01X1532800Y4863800D03*
G01X1532800Y5103800D03*
G01X1532800Y5343800D03*
G01X1532800Y5583800D03*
G01X1532800Y5823800D03*
G01X1532800Y6063800D03*
G01X1772800Y3183800D03*
G01X1772800Y3423800D03*
G01X1772800Y4623800D03*
G01X1772800Y5343800D03*
G01X1772800Y5583800D03*
G01X1772800Y5823800D03*
G01X1772800Y6063800D03*
G01X1772800Y6303800D03*
G01X2012800Y2943800D03*
G01X2012800Y3183800D03*
G01X2012800Y6063800D03*
G01X2012800Y6303800D03*
G01X2252800Y3183800D03*
G01X2252800Y4143800D03*
G01X2252800Y4383800D03*
G01X2252800Y5103800D03*
G01X2492800Y2943800D03*
G01X2492800Y6303800D03*
G01X2732800Y2943800D03*
G01X2732800Y6303800D03*
G01X2972800Y2943800D03*
G01X2972800Y3183800D03*
G01X2972800Y3903800D03*
G01X3212800Y2943800D03*
G01X3212800Y3183800D03*
G01X3212800Y3423800D03*
G01X3212800Y4863800D03*
G01X3212800Y5103800D03*
G01X3212800Y6303800D03*
G01X3452800Y2943800D03*
G01X3452800Y3183800D03*
G01X3452800Y5343800D03*
G01X3452800Y6303800D03*
G01X3692800Y3183800D03*
G01X3692800Y6063800D03*
G01X2781300Y4787716D03*
G01X3721100Y3733800D03*
G01X3632200Y4051300D03*
G04 Via End*

G04 Track Start*
G54D10*
G01X2781300Y3721100D02*
G01X2526001Y3721100D01*
G01X2692400Y3802939D02*
G01X2826461Y3802939D01*
G01X2857500Y3771900D01*
G01Y3657600D01*
G01X2832100Y3632200D01*
G01X2679700D01*
G01X2641600Y3594100D01*
G01Y3263900D01*
G54D17*
G01X2222297Y3453105D02*
G01X2222297Y3035097D01*
G01X3086303D01*
G01Y3453105D01*
G54D10*
G01X3683000Y4381500D02*
G01X3606800Y4381500D01*
G01X3581400Y4406900D01*
G01X2298700Y3975100D02*
G01X2298700Y3759200D01*
G01X2336800Y3721100D01*
G01X2526001D01*
G54D17*
G01X2222297Y3453105D02*
G01X2222297Y3962400D01*
G54D10*
G01X3098800Y5762714D02*
G01X3098800Y5689600D01*
G01X3060700Y5651500D01*
G01X2781300D01*
G01X2755900Y5626100D01*
G01Y5486400D01*
G01X2755900Y5308600D02*
G01X2755900Y5486400D01*
G01X2578100Y5245100D02*
G01X2603500Y5270500D01*
G01X2717800Y5270500D02*
G01X2755900Y5308600D01*
G01X2603500Y5270500D02*
G01X2717800Y5270500D01*
G01X3009900Y5486400D02*
G01X3009900Y5219700D01*
G01X2971800Y5181600D01*
G01X2730500D01*
G01X2692400Y5143500D01*
G01X3619500Y6057900D02*
G01X3683000Y5994400D01*
G01Y4876800D01*
G01X3581400Y4406900D02*
G01X3581400Y5930900D01*
G01X3517900Y5994400D01*
G01X2311400Y5778500D02*
G01X2311400Y6007100D01*
G01X2362200Y6057900D01*
G01X3619500D01*
G01X3517900Y5994400D02*
G01X2463800Y5994400D01*
G01X2438400Y5969000D01*
G01Y5778500D01*
G54D19*
G01X3098800Y5918200D02*
G01X2603500Y5918200D01*
G01X2565400Y5880100D01*
G01Y5778500D01*
G54D10*
G01X2692400Y5143500D02*
G01X2692400Y5092700D01*
G01X2781300Y5003800D01*
G01Y4787716D01*
G01X2692400Y4914900D02*
G01X2628900Y4914900D01*
G01X2578100Y4965700D02*
G01X2578100Y5245100D01*
G01X2628900Y4914900D02*
G01X2578100Y4965700D01*
G01X3721100Y4064000D02*
G01X3721100Y3733800D01*
G01X2781300Y4787716D02*
G01X2781300Y4152900D01*
G01X2806700Y4127500D01*
G01X3657600D01*
G01X3721100Y4064000D01*
G01X2692400Y4914900D02*
G01X2692400Y4114800D01*
G01X2755900Y4051300D01*
G01X3632200D01*
G04 Track End*

M02*
