G04 Layer: BottomSilkscreenLayer*
G04 EasyEDA Pro v2.0.15.e63e9f, 2024-02-27 22:05:23*
G04 Gerber Generator version 0.3*
G04 Scale: 100 percent, Rotated: No, Reflected: No*
G04 Dimensions in millimeters*
G04 Leading zeros omitted, absolute positions, 3 integers and 3 decimals*
%FSLAX33Y33*%
%MOMM*%
%ADD10C,0.1*%
%ADD11C,0.12*%
%ADD12C,0.15*%
%ADD13C,0.254*%
G75*


G04 Text Start*
G04 //text: 3V3*
G54D10*
G01X-2167Y9528D02*
G01X-1788Y9528D01*
G01X-1996Y9804D01*
G01X-1892D01*
G01X-1824Y9837D01*
G01X-1788Y9873D01*
G01X-1755Y9975D01*
G01Y10043D01*
G01X-1788Y10147D01*
G01X-1857Y10216D01*
G01X-1961Y10251D01*
G01X-2065D01*
G01X-2167Y10216D01*
G01X-2202Y10183D01*
G01X-2235Y10112D01*
G01X-1491Y9528D02*
G01X-1214Y10251D01*
G01X-940Y9528D02*
G01X-1214Y10251D01*
G01X-607Y9528D02*
G01X-229Y9528D01*
G01X-434Y9804D01*
G01X-330D01*
G01X-262Y9837D01*
G01X-229Y9873D01*
G01X-193Y9975D01*
G01Y10043D01*
G01X-229Y10147D01*
G01X-297Y10216D01*
G01X-399Y10251D01*
G01X-503D01*
G01X-607Y10216D01*
G01X-640Y10183D01*
G01X-676Y10112D01*
G04 //text: GND*
G01X-1720Y10716D02*
G01X-1755Y10648D01*
G01X-1824Y10579D01*
G01X-1892Y10544D01*
G01X-2029D01*
G01X-2098Y10579D01*
G01X-2167Y10648D01*
G01X-2202Y10716D01*
G01X-2235Y10820D01*
G01Y10991D01*
G01X-2202Y11095D01*
G01X-2167Y11163D01*
G01X-2098Y11232D01*
G01X-2029Y11267D01*
G01X-1892D01*
G01X-1824Y11232D01*
G01X-1755Y11163D01*
G01X-1720Y11095D01*
G01Y10991D01*
G01X-1892Y10991D02*
G01X-1720Y10991D01*
G01X-1455Y10544D02*
G01X-1455Y11267D01*
G01X-1455Y10544D02*
G01X-975Y11267D01*
G01X-975Y10544D02*
G01X-975Y11267D01*
G01X-709Y10544D02*
G01X-709Y11267D01*
G01X-709Y10544D02*
G01X-467Y10544D01*
G01X-366Y10579D01*
G01X-297Y10648D01*
G01X-262Y10716D01*
G01X-229Y10820D01*
G01Y10991D01*
G01X-262Y11095D01*
G01X-297Y11163D01*
G01X-366Y11232D01*
G01X-467Y11267D01*
G01X-709D01*
G04 //text: CS*
G01X-1720Y8557D02*
G01X-1755Y8489D01*
G01X-1824Y8420D01*
G01X-1892Y8385D01*
G01X-2029D01*
G01X-2098Y8420D01*
G01X-2167Y8489D01*
G01X-2202Y8557D01*
G01X-2235Y8661D01*
G01Y8832D01*
G01X-2202Y8936D01*
G01X-2167Y9004D01*
G01X-2098Y9073D01*
G01X-2029Y9108D01*
G01X-1892D01*
G01X-1824Y9073D01*
G01X-1755Y9004D01*
G01X-1720Y8936D01*
G01X-975Y8489D02*
G01X-1044Y8420D01*
G01X-1146Y8385D01*
G01X-1283D01*
G01X-1387Y8420D01*
G01X-1455Y8489D01*
G01Y8557D01*
G01X-1420Y8626D01*
G01X-1387Y8661D01*
G01X-1318Y8694D01*
G01X-1113Y8763D01*
G01X-1044Y8799D01*
G01X-1008Y8832D01*
G01X-975Y8900D01*
G01Y9004D01*
G01X-1044Y9073D01*
G01X-1146Y9108D01*
G01X-1283D01*
G01X-1387Y9073D01*
G01X-1455Y9004D01*
G04 //text: DO*
G01X-2235Y7496D02*
G01X-2235Y8219D01*
G01X-2235Y7496D02*
G01X-1996Y7496D01*
G01X-1892Y7531D01*
G01X-1824Y7600D01*
G01X-1788Y7668D01*
G01X-1755Y7772D01*
G01Y7943D01*
G01X-1788Y8047D01*
G01X-1824Y8115D01*
G01X-1892Y8184D01*
G01X-1996Y8219D01*
G01X-2235D01*
G01X-1283Y7496D02*
G01X-1351Y7531D01*
G01X-1420Y7600D01*
G01X-1455Y7668D01*
G01X-1491Y7772D01*
G01Y7943D01*
G01X-1455Y8047D01*
G01X-1420Y8115D01*
G01X-1351Y8184D01*
G01X-1283Y8219D01*
G01X-1146D01*
G01X-1077Y8184D01*
G01X-1008Y8115D01*
G01X-975Y8047D01*
G01X-940Y7943D01*
G01Y7772D01*
G01X-975Y7668D01*
G01X-1008Y7600D01*
G01X-1077Y7531D01*
G01X-1146Y7496D01*
G01X-1283D01*
G04 //text: SCK*
G01X-1755Y6584D02*
G01X-1824Y6515D01*
G01X-1928Y6480D01*
G01X-2065D01*
G01X-2167Y6515D01*
G01X-2235Y6584D01*
G01Y6652D01*
G01X-2202Y6721D01*
G01X-2167Y6756D01*
G01X-2098Y6789D01*
G01X-1892Y6858D01*
G01X-1824Y6894D01*
G01X-1788Y6927D01*
G01X-1755Y6995D01*
G01Y7099D01*
G01X-1824Y7168D01*
G01X-1928Y7203D01*
G01X-2065D01*
G01X-2167Y7168D01*
G01X-2235Y7099D01*
G01X-975Y6652D02*
G01X-1008Y6584D01*
G01X-1077Y6515D01*
G01X-1146Y6480D01*
G01X-1283D01*
G01X-1351Y6515D01*
G01X-1420Y6584D01*
G01X-1455Y6652D01*
G01X-1491Y6756D01*
G01Y6927D01*
G01X-1455Y7031D01*
G01X-1420Y7099D01*
G01X-1351Y7168D01*
G01X-1283Y7203D01*
G01X-1146D01*
G01X-1077Y7168D01*
G01X-1008Y7099D01*
G01X-975Y7031D01*
G01X-709Y6480D02*
G01X-709Y7203D01*
G01X-229Y6480D02*
G01X-709Y6962D01*
G01X-538Y6789D02*
G01X-229Y7203D01*
G04 //text: PWM*
G01X-2235Y5591D02*
G01X-2235Y6314D01*
G01X-2235Y5591D02*
G01X-1928Y5591D01*
G01X-1824Y5626D01*
G01X-1788Y5659D01*
G01X-1755Y5730D01*
G01Y5832D01*
G01X-1788Y5900D01*
G01X-1824Y5936D01*
G01X-1928Y5969D01*
G01X-2235D01*
G01X-1491Y5591D02*
G01X-1318Y6314D01*
G01X-1146Y5591D02*
G01X-1318Y6314D01*
G01X-1146Y5591D02*
G01X-975Y6314D01*
G01X-803Y5591D02*
G01X-975Y6314D01*
G01X-538Y5591D02*
G01X-538Y6314D01*
G01X-538Y5591D02*
G01X-262Y6314D01*
G01X13Y5591D02*
G01X-262Y6314D01*
G01X13Y5591D02*
G01X13Y6314D01*
G04 //text: Designed By ZhaJiHu*
G54D11*
G01X1562Y1839D02*
G01X721Y1839D01*
G01X1562Y1839D02*
G01X1562Y2118D01*
G01X1521Y2238D01*
G01X1440Y2319D01*
G01X1361Y2357D01*
G01X1242Y2398D01*
G01X1041D01*
G01X922Y2357D01*
G01X841Y2319D01*
G01X762Y2238D01*
G01X721Y2118D01*
G01Y1839D01*
G01X1041Y2710D02*
G01X1041Y3190D01*
G01X1120D01*
G01X1201Y3150D01*
G01X1242Y3109D01*
G01X1280Y3030D01*
G01Y2911D01*
G01X1242Y2830D01*
G01X1161Y2751D01*
G01X1041Y2710D01*
G01X960D01*
G01X841Y2751D01*
G01X762Y2830D01*
G01X721Y2911D01*
G01Y3030D01*
G01X762Y3109D01*
G01X841Y3190D01*
G01X1161Y3942D02*
G01X1242Y3901D01*
G01X1280Y3782D01*
G01Y3663D01*
G01X1242Y3541D01*
G01X1161Y3503D01*
G01X1082Y3541D01*
G01X1041Y3622D01*
G01X1001Y3823D01*
G01X960Y3901D01*
G01X881Y3942D01*
G01X841D01*
G01X762Y3901D01*
G01X721Y3782D01*
G01Y3663D01*
G01X762Y3541D01*
G01X841Y3503D01*
G01X1562Y4255D02*
G01X1521Y4295D01*
G01X1562Y4333D01*
G01X1600Y4295D01*
G01X1562Y4255D01*
G01X1280Y4295D02*
G01X721Y4295D01*
G01X1280Y5126D02*
G01X640Y5126D01*
G01X521Y5085D01*
G01X480Y5047D01*
G01X442Y4966D01*
G01Y4846D01*
G01X480Y4765D01*
G01X1161Y5126D02*
G01X1242Y5047D01*
G01X1280Y4966D01*
G01Y4846D01*
G01X1242Y4765D01*
G01X1161Y4686D01*
G01X1041Y4646D01*
G01X960D01*
G01X841Y4686D01*
G01X762Y4765D01*
G01X721Y4846D01*
G01Y4966D01*
G01X762Y5047D01*
G01X841Y5126D01*
G01X1280Y5438D02*
G01X721Y5438D01*
G01X1120Y5438D02*
G01X1242Y5558D01*
G01X1280Y5639D01*
G01Y5758D01*
G01X1242Y5837D01*
G01X1120Y5878D01*
G01X721D01*
G01X1041Y6190D02*
G01X1041Y6670D01*
G01X1120D01*
G01X1201Y6629D01*
G01X1242Y6589D01*
G01X1280Y6510D01*
G01Y6391D01*
G01X1242Y6309D01*
G01X1161Y6231D01*
G01X1041Y6190D01*
G01X960D01*
G01X841Y6231D01*
G01X762Y6309D01*
G01X721Y6391D01*
G01Y6510D01*
G01X762Y6589D01*
G01X841Y6670D01*
G01X1562Y7463D02*
G01X721Y7463D01*
G01X1161Y7463D02*
G01X1242Y7381D01*
G01X1280Y7303D01*
G01Y7183D01*
G01X1242Y7102D01*
G01X1161Y7023D01*
G01X1041Y6982D01*
G01X960D01*
G01X841Y7023D01*
G01X762Y7102D01*
G01X721Y7183D01*
G01Y7303D01*
G01X762Y7381D01*
G01X841Y7463D01*
G01X1562Y8669D02*
G01X721Y8669D01*
G01X1562Y8669D02*
G01X1562Y9030D01*
G01X1521Y9149D01*
G01X1481Y9190D01*
G01X1402Y9230D01*
G01X1321D01*
G01X1242Y9190D01*
G01X1201Y9149D01*
G01X1161Y9030D01*
G01X1161Y8669D02*
G01X1161Y9030D01*
G01X1120Y9149D01*
G01X1082Y9190D01*
G01X1001Y9230D01*
G01X881D01*
G01X800Y9190D01*
G01X762Y9149D01*
G01X721Y9030D01*
G01Y8669D01*
G01X1280Y9581D02*
G01X721Y9822D01*
G01X1280Y10061D02*
G01X721Y9822D01*
G01X561Y9741D01*
G01X480Y9662D01*
G01X442Y9581D01*
G01Y9543D01*
G01X1562Y11829D02*
G01X721Y11270D01*
G01X1562Y11270D02*
G01X1562Y11829D01*
G01X721Y11270D02*
G01X721Y11829D01*
G01X1562Y12141D02*
G01X721Y12141D01*
G01X1120Y12141D02*
G01X1242Y12263D01*
G01X1280Y12342D01*
G01Y12461D01*
G01X1242Y12543D01*
G01X1120Y12583D01*
G01X721D01*
G01X1280Y13373D02*
G01X721Y13373D01*
G01X1161Y13373D02*
G01X1242Y13294D01*
G01X1280Y13213D01*
G01Y13094D01*
G01X1242Y13015D01*
G01X1161Y12934D01*
G01X1041Y12893D01*
G01X960D01*
G01X841Y12934D01*
G01X762Y13015D01*
G01X721Y13094D01*
G01Y13213D01*
G01X762Y13294D01*
G01X841Y13373D01*
G01X1562Y14087D02*
G01X922Y14087D01*
G01X800Y14046D01*
G01X762Y14006D01*
G01X721Y13927D01*
G01Y13846D01*
G01X762Y13767D01*
G01X800Y13726D01*
G01X922Y13686D01*
G01X1001D01*
G01X1562Y14399D02*
G01X1521Y14437D01*
G01X1562Y14478D01*
G01X1600Y14437D01*
G01X1562Y14399D01*
G01X1280Y14437D02*
G01X721Y14437D01*
G01X1562Y14790D02*
G01X721Y14790D01*
G01X1562Y15349D02*
G01X721Y15349D01*
G01X1161Y14790D02*
G01X1161Y15349D01*
G01X1280Y15662D02*
G01X881Y15662D01*
G01X762Y15702D01*
G01X721Y15781D01*
G01Y15903D01*
G01X762Y15982D01*
G01X881Y16101D01*
G01X1280Y16101D02*
G01X721Y16101D01*
G04 //text: MT6701*
G54D12*
G01X3218Y5537D02*
G01X2004Y5537D01*
G01X3218Y5537D02*
G01X2004Y5999D01*
G01X3218Y6462D02*
G01X2004Y5999D01*
G01X3218Y6462D02*
G01X2004Y6462D01*
G01X3218Y7292D02*
G01X2004Y7292D01*
G01X3218Y6888D02*
G01X3218Y7699D01*
G01X3045Y8819D02*
G01X3160Y8760D01*
G01X3218Y8588D01*
G01Y8473D01*
G01X3160Y8298D01*
G01X2987Y8184D01*
G01X2697Y8125D01*
G01X2408D01*
G01X2177Y8184D01*
G01X2062Y8298D01*
G01X2004Y8473D01*
G01Y8529D01*
G01X2062Y8705D01*
G01X2177Y8819D01*
G01X2350Y8877D01*
G01X2408D01*
G01X2581Y8819D01*
G01X2697Y8705D01*
G01X2756Y8529D01*
G01Y8473D01*
G01X2697Y8298D01*
G01X2581Y8184D01*
G01X2408Y8125D01*
G01X3218Y10114D02*
G01X2004Y9535D01*
G01X3218Y9304D02*
G01X3218Y10114D01*
G01X3218Y10889D02*
G01X3160Y10714D01*
G01X2987Y10599D01*
G01X2697Y10541D01*
G01X2525D01*
G01X2235Y10599D01*
G01X2062Y10714D01*
G01X2004Y10889D01*
G01Y11003D01*
G01X2062Y11176D01*
G01X2235Y11293D01*
G01X2525Y11351D01*
G01X2697D01*
G01X2987Y11293D01*
G01X3160Y11176D01*
G01X3218Y11003D01*
G01Y10889D01*
G01X2987Y11778D02*
G01X3045Y11895D01*
G01X3218Y12068D01*
G01X2004D01*
G04 //text: JLCJLCJLCJLC*
G54D10*
G01X-9370Y6492D02*
G01X-9721Y6492D01*
G01X-9787Y6469D01*
G01X-9807Y6449D01*
G01X-9830Y6403D01*
G01Y6360D01*
G01X-9807Y6317D01*
G01X-9787Y6294D01*
G01X-9721Y6274D01*
G01X-9677D01*
G01X-9370Y6698D02*
G01X-9830Y6698D01*
G01X-9830Y6698D02*
G01X-9830Y6960D01*
G01X-9479Y7493D02*
G01X-9436Y7470D01*
G01X-9393Y7427D01*
G01X-9370Y7384D01*
G01Y7295D01*
G01X-9393Y7252D01*
G01X-9436Y7209D01*
G01X-9479Y7186D01*
G01X-9545Y7165D01*
G01X-9655D01*
G01X-9721Y7186D01*
G01X-9764Y7209D01*
G01X-9807Y7252D01*
G01X-9830Y7295D01*
G01Y7384D01*
G01X-9807Y7427D01*
G01X-9764Y7470D01*
G01X-9721Y7493D01*
G01X-9370Y7917D02*
G01X-9721Y7917D01*
G01X-9787Y7894D01*
G01X-9807Y7871D01*
G01X-9830Y7828D01*
G01Y7785D01*
G01X-9807Y7742D01*
G01X-9787Y7719D01*
G01X-9721Y7696D01*
G01X-9677D01*
G01X-9370Y8120D02*
G01X-9830Y8120D01*
G01X-9830Y8120D02*
G01X-9830Y8385D01*
G01X-9479Y8918D02*
G01X-9436Y8895D01*
G01X-9393Y8852D01*
G01X-9370Y8806D01*
G01Y8720D01*
G01X-9393Y8677D01*
G01X-9436Y8633D01*
G01X-9479Y8611D01*
G01X-9545Y8588D01*
G01X-9655D01*
G01X-9721Y8611D01*
G01X-9764Y8633D01*
G01X-9807Y8677D01*
G01X-9830Y8720D01*
G01Y8806D01*
G01X-9807Y8852D01*
G01X-9764Y8895D01*
G01X-9721Y8918D01*
G01X-9370Y9340D02*
G01X-9721Y9340D01*
G01X-9787Y9319D01*
G01X-9807Y9296D01*
G01X-9830Y9253D01*
G01Y9210D01*
G01X-9807Y9164D01*
G01X-9787Y9144D01*
G01X-9721Y9121D01*
G01X-9677D01*
G01X-9370Y9545D02*
G01X-9830Y9545D01*
G01X-9830Y9545D02*
G01X-9830Y9807D01*
G01X-9479Y10340D02*
G01X-9436Y10320D01*
G01X-9393Y10274D01*
G01X-9370Y10231D01*
G01Y10145D01*
G01X-9393Y10102D01*
G01X-9436Y10056D01*
G01X-9479Y10036D01*
G01X-9545Y10013D01*
G01X-9655D01*
G01X-9721Y10036D01*
G01X-9764Y10056D01*
G01X-9807Y10102D01*
G01X-9830Y10145D01*
G01Y10231D01*
G01X-9807Y10274D01*
G01X-9764Y10320D01*
G01X-9721Y10340D01*
G01X-9370Y10765D02*
G01X-9721Y10765D01*
G01X-9787Y10744D01*
G01X-9807Y10721D01*
G01X-9830Y10678D01*
G01Y10632D01*
G01X-9807Y10589D01*
G01X-9787Y10569D01*
G01X-9721Y10546D01*
G01X-9677D01*
G01X-9370Y10970D02*
G01X-9830Y10970D01*
G01X-9830Y10970D02*
G01X-9830Y11232D01*
G01X-9479Y11765D02*
G01X-9436Y11742D01*
G01X-9393Y11699D01*
G01X-9370Y11656D01*
G01Y11570D01*
G01X-9393Y11524D01*
G01X-9436Y11481D01*
G01X-9479Y11460D01*
G01X-9545Y11438D01*
G01X-9655D01*
G01X-9721Y11460D01*
G01X-9764Y11481D01*
G01X-9807Y11524D01*
G01X-9830Y11570D01*
G01Y11656D01*
G01X-9807Y11699D01*
G01X-9764Y11742D01*
G01X-9721Y11765D01*
G04 //text: 5V*
G01X-1861Y11525D02*
G01X-2204Y11525D01*
G01X-2240Y11834D01*
G01X-2204Y11801D01*
G01X-2103Y11766D01*
G01X-1999D01*
G01X-1894Y11801D01*
G01X-1826Y11870D01*
G01X-1793Y11972D01*
G01Y12040D01*
G01X-1826Y12144D01*
G01X-1894Y12213D01*
G01X-1999Y12248D01*
G01X-2103D01*
G01X-2204Y12213D01*
G01X-2240Y12180D01*
G01X-2273Y12109D01*
G01X-1529Y11525D02*
G01X-1252Y12248D01*
G01X-977Y11525D02*
G01X-1252Y12248D01*
G04 //text: LED*
G01X-10617Y13084D02*
G01X-10617Y13807D01*
G01X-10617Y13807D02*
G01X-10206Y13807D01*
G01X-9942Y13084D02*
G01X-9942Y13807D01*
G01X-9942Y13084D02*
G01X-9495Y13084D01*
G01X-9942Y13429D02*
G01X-9665Y13429D01*
G01X-9942Y13807D02*
G01X-9495Y13807D01*
G01X-9228Y13084D02*
G01X-9228Y13807D01*
G01X-9228Y13084D02*
G01X-8989Y13084D01*
G01X-8885Y13119D01*
G01X-8816Y13188D01*
G01X-8781Y13256D01*
G01X-8748Y13360D01*
G01Y13531D01*
G01X-8781Y13635D01*
G01X-8816Y13703D01*
G01X-8885Y13772D01*
G01X-8989Y13807D01*
G01X-9228D01*
G04 //text: 5V*
G01X-10206Y12068D02*
G01X-10549Y12068D01*
G01X-10584Y12377D01*
G01X-10549Y12344D01*
G01X-10447Y12309D01*
G01X-10343D01*
G01X-10239Y12344D01*
G01X-10170Y12413D01*
G01X-10137Y12515D01*
G01Y12583D01*
G01X-10170Y12687D01*
G01X-10239Y12756D01*
G01X-10343Y12791D01*
G01X-10447D01*
G01X-10549Y12756D01*
G01X-10584Y12723D01*
G01X-10617Y12652D01*
G01X-9873Y12068D02*
G01X-9596Y12791D01*
G01X-9322Y12068D02*
G01X-9596Y12791D01*
G04 //text: GND*
G01X-10102Y5128D02*
G01X-10137Y5060D01*
G01X-10206Y4991D01*
G01X-10274Y4956D01*
G01X-10411D01*
G01X-10480Y4991D01*
G01X-10549Y5060D01*
G01X-10584Y5128D01*
G01X-10617Y5232D01*
G01Y5403D01*
G01X-10584Y5507D01*
G01X-10549Y5575D01*
G01X-10480Y5644D01*
G01X-10411Y5679D01*
G01X-10274D01*
G01X-10206Y5644D01*
G01X-10137Y5575D01*
G01X-10102Y5507D01*
G01Y5403D01*
G01X-10274Y5403D02*
G01X-10102Y5403D01*
G01X-9837Y4956D02*
G01X-9837Y5679D01*
G01X-9837Y4956D02*
G01X-9357Y5679D01*
G01X-9357Y4956D02*
G01X-9357Y5679D01*
G01X-9091Y4956D02*
G01X-9091Y5679D01*
G01X-9091Y4956D02*
G01X-8849Y4956D01*
G01X-8748Y4991D01*
G01X-8679Y5060D01*
G01X-8644Y5128D01*
G01X-8611Y5232D01*
G01Y5403D01*
G01X-8644Y5507D01*
G01X-8679Y5575D01*
G01X-8748Y5644D01*
G01X-8849Y5679D01*
G01X-9091D01*
G04 Text End*

G04 PolygonModel Start*
G54D13*
G01X-3622Y13540D02*
G01X-3622Y12372D01*
G01X-3622Y13540D02*
G01X-4845Y13540D01*
G01X-6772Y9511D02*
G01X-6772Y5511D01*
G01X-6772Y9511D02*
G01X-6772Y13269D01*
G01X-3622Y11409D02*
G01X-3622Y11371D01*
G01X-3622Y12409D02*
G01X-3622Y12371D01*
G01X-3622Y5409D02*
G01X-3622Y4190D01*
G01X-3622Y4190D02*
G01X-4859Y4190D01*
G01X-3622Y6409D02*
G01X-3622Y6371D01*
G01X-3622Y7409D02*
G01X-3622Y7371D01*
G01X-3622Y8409D02*
G01X-3622Y8371D01*
G01X-10602Y6317D02*
G01X-9380Y6317D01*
G01X-10602Y10498D02*
G01X-10602Y11717D01*
G01X-10602Y11717D02*
G01X-9365Y11717D01*
G01X-7452Y10396D02*
G01X-7452Y7638D01*
G01X-10602Y9498D02*
G01X-10602Y9536D01*
G01X-10602Y8498D02*
G01X-10602Y8536D01*
G01X-10602Y6317D02*
G01X-10602Y7486D01*
G04 PolygonModel End*

G04 Circle Start*
G01X-11443Y10717D02*
G03X-11161Y10717I141J0D01*
G03X-11443I-141J0D01*
G04 Circle End*

M02*
